<?xml version="1.0" encoding="utf-8"?>
<!-- Generator: Adobe Illustrator 22.0.1, SVG Export Plug-In . SVG Version: 6.00 Build 0)  -->
<svg version="1.1" id="Layer_1" xmlns="http://www.w3.org/2000/svg" xmlns:xlink="http://www.w3.org/1999/xlink" x="0px" y="0px"
	 viewBox="0 0 481 561" style="enable-background:new 0 0 481 561;" xml:space="preserve">
<style type="text/css">
	.st0{fill:#DF8799;}
	.st1{fill:none;stroke:#211C1D;stroke-width:12;stroke-miterlimit:10;}
	.st2{fill:none;stroke:#303030;stroke-width:12;stroke-miterlimit:10;}
</style>
<path class="st0" d="M77.7,182.9l-57.2-31.1c-4.5-2.3-10.8-0.6-13,4c-2.8,4.5-1.1,10.8,4,13l57.2,31.1c1.7,0.6,2.8,1.1,4.5,1.1
	c3.4,0,6.8-1.7,8.5-5.1C83.9,191.4,82.2,185.2,77.7,182.9z"/>
<g>
	<path class="st0" d="M84.6,66.3l36.2,54.3c1.7,2.8,4.5,4.5,7.9,4.5c1.7,0,3.4-0.6,5.1-1.7c4.5-2.8,5.7-9.1,2.3-13.6L99.9,55.5
		c-2.8-4-8.5-5.7-13-2.3C82.3,56.1,81.2,62.3,84.6,66.3z"/>
	<path class="st0" d="M240,93.9c5.7,0,9.6-4.5,9.6-9.6V18.6c0-5.1-4.5-9.6-9.6-9.6s-9.6,4.5-9.6,9.6v65.7
		C230.4,89.4,234.9,93.9,240,93.9z"/>
	<path class="st0" d="M392.4,53.3c-4.5-3.4-10.2-1.7-13,2.3l-36.2,54.3c-3.4,4.5-2.3,10.8,2.3,13.6c1.7,1.1,3.4,1.7,5.1,1.7
		c3.4,0,6.2-1.7,7.9-4.5l36.2-54.3C398,62.3,396.9,56.1,392.4,53.3z"/>
	<path class="st0" d="M473.1,155.7c-2.3-4.5-8.5-6.2-13-4l-57.7,31.1c-4.5,2.3-6.2,8.5-4,13c1.7,3.4,5.1,5.1,8.5,5.1
		c1.7,0,3.4-0.6,4.5-1.1l57.7-31.1C473.7,166.5,475.4,160.2,473.1,155.7z"/>
	<path class="st0" d="M320.2,478H180c-14.5,0-21.9,7.2-21.9,16s7.4,16,21.9,16h139.5c15.2-0.4,21.6-7.2,21.6-16S334.7,478,320.2,478
		z"/>
	<path class="st0" d="M307.5,516H192.6c-11.9,0-18,7.7-18,17s6.1,17,18,17H307c12.4-0.4,17.7-7.7,17.7-17S319.4,516,307.5,516z"/>
	<path class="st0" d="M411.4,242.2c-0.6,0.6-1.4,1.2-1.8,1.2c-1.1,0-2.9-2.3-2.7-3.4c0.3-1.8,2.5-2.8,4-1.9c0.4,0.2,0.6,0.5,0.9,0.7
		c-0.5-3.3-1.2-6.6-2-9.8h-0.1c-1.1,0-2.9-2.3-2.7-3.4c0.2-0.9,0.8-1.6,1.5-1.9c-1.5-5.6-3.3-11-5.4-16.3c-0.2,0.1-0.4,0.2-0.6,0.2
		c-0.7,0-2.9-2-2.9-2.6c0-0.8,0.7-1.8,1.5-2.5c-3.6-8.2-7.8-16.1-12.7-23.5l-0.2,0.2l-1.4-1.3c-0.8-0.7-1.4-1.5-1.4-1.8
		c0-0.2,0.2-0.6,0.5-1c-1.1-1.5-2.1-3.1-3.2-4.5c-1.6,1-4.4,0.1-4.4-1.7c0-0.4,0.8-1.3,1.5-2c-1.2-1.5-2.4-2.9-3.6-4.4
		c0,0.1-0.1,0.1-0.1,0.2c-1,1.7-3.3,1.6-4.2-0.1l-0.7-1.4l1.1-1.1c0.4-0.4,0.8-0.7,1.1-0.9c-1.4-1.6-2.9-3.1-4.4-4.7
		c0.1,0.7,0,1.4-0.4,1.8c-0.9,0.9-3.1,0.5-3.8-0.9l-0.7-1.3l1.4-1.3l1-0.9c-1.5-1.5-3-2.9-4.6-4.3c0.1,0.7-0.2,1.4-1,1.7
		c-1.9,0.7-3.4-0.3-3.1-2c0.2-1.1,0.7-1.6,1.9-1.6c-1.7-1.5-3.4-2.9-5.1-4.3c-0.1,0.3-0.2,0.6-0.4,0.7l0,0c-1.5,0.9-3.7-0.4-3.5-2
		c0.1-0.5,0.3-0.9,0.7-1.2c-1.7-1.3-3.5-2.6-5.3-3.8l-0.6,0.5l-1.1-1.1c-0.3-0.3-0.5-0.6-0.6-1c-8-5.3-16.4-9.9-25.3-13.8
		c-0.7,0.9-2.7,0.7-3.1-0.4c-0.1-0.2-0.1-0.5,0-0.8c-6-2.4-12.1-4.5-18.5-6.2c-0.2,0.6-0.6,0.9-1.4,0.9c-1,0-1.4-0.5-1.4-1.4
		c0-0.1,0-0.1,0-0.1c-12-3-24.5-4.5-37.4-4.5c-11.2,0-22,1.2-32.5,3.4c0.3,0.1,0.5,0.4,0.5,0.9c0,0.7-0.3,1.1-0.7,1
		c-1-0.3-1.1-1.3-0.3-1.7c-14.8,3.2-28.9,8.5-41.9,15.5c0,0.4-0.3,0.6-0.7,0.6c-0.1,0-0.2,0-0.3-0.1c-39.6,21.9-68.9,60.4-78.4,106
		c0.4,0,0.7,0.3,0.7,0.7c0,0.4-0.3,0.7-0.7,0.7c-0.1,0-0.1-0.1-0.2-0.1c-2,9.9-3,20.2-3,30.6c0,38.4,14.3,75.6,39,104
		c0.2,0,0.4,0.1,0.5,0.2c0.2,0.2,0.1,0.3,0,0.4c2,2.3,4.1,4.6,6.3,6.8c0.3-0.2,0.6-0.2,0.9,0c0.2,0.2,0.1,0.4-0.4,0.5
		c2.2,2.2,4.5,4.4,6.9,6.6c0.2-0.1,0.5,0,0.6,0.1c0.2,0.2,0.1,0.3-0.1,0.4c16.5,17,20.9,46.5,21.8,64.1l0,0l0,0
		c0.4,8.4,0.1,14.1-0.1,14.3c0,2.8,0.6,5.1,2.8,7.4c1.7,1.7,4.5,2.8,6.8,2.8h144.6c2.8,0,5.1-1.1,6.8-2.8s2.8-4.5,2.8-7.4
		c0-0.1-0.1-2.1-0.1-5.3c-0.8-0.1-1.2-0.5-1.2-1.4s0.4-1.3,1.2-1.4c0.1-3.2,0.2-7.1,0.6-11.5c-0.1,0-0.2,0.1-0.4,0.1
		c-1,0-1.4-0.5-1.4-1.4c0-1,0.5-1.4,1.4-1.4c0.2,0,0.4,0,0.6,0.1c1-10,3-21.9,7.2-33.1c-0.9,0.2-2-0.1-2.3-0.9
		c-0.2-0.6,0.1-1.4,0.7-1.9l1.1-0.9l1,1c0.2,0.2,0.3,0.4,0.4,0.6c3.2-7.9,7.5-15.4,13.4-21.2c0.6-0.6,1.1-1.1,1.7-1.7
		c10.3-9.4,19.2-20,26.7-31.5c-1.3,0.1-2.4-0.7-2.4-2c0-0.8,0.5-1.8,1.1-2.3l1.1-0.9l1.1,0.9c0.4,0.3,0.7,0.9,0.9,1.4
		c1.1-1.8,2.2-3.6,3.2-5.4c-0.1-0.1-0.1-0.1-0.2-0.2l-0.7-1.4l1.1-1.1c0.6-0.6,1.4-1.1,1.7-1.1h0.1c2.7-5.2,5.2-10.4,7.3-15.8
		l-0.3,0.3l-2-1.7c-0.8-0.7-1.4-1.5-1.4-1.8c0-0.7,2.1-2.8,2.9-2.8c0.4,0,1.3,0.6,1.9,1.4c2-5.6,3.8-11.3,5.2-17.1
		c-0.8-0.1-2.8-2.1-2.8-2.8c0-0.8,2.1-2.9,2.9-2.9c0.3,0,0.7,0.2,1.1,0.6c2.1-10.1,3.2-20.4,3.2-30.8c0-8-0.6-15.8-1.8-23.5
		C412,241.5,411.7,241.9,411.4,242.2z M101.9,291c-0.4,0.2-0.7,0.1-0.7-0.3s0.3-0.8,0.7-0.8s0.7,0.1,0.7,0.3
		C102.6,290.4,102.3,290.7,101.9,291z M101.9,276.7c-0.4,0.2-0.7,0.1-0.7-0.3s0.3-0.8,0.7-0.8s0.7,0.1,0.7,0.3
		C102.6,276.1,102.3,276.4,101.9,276.7z M101.9,262.7c-0.4,0-0.7-0.3-0.7-0.7c0-0.4,0.3-0.7,0.7-0.7s0.7,0.3,0.7,0.7
		C102.6,262.4,102.3,262.7,101.9,262.7z M101.9,248.4c-0.4,0-0.7-0.5-0.7-1.1s0.3-0.9,0.7-0.7c0.4,0.2,0.7,0.7,0.7,1.1
		S102.3,248.4,101.9,248.4z M109,312.5c-0.4,0.2-0.7,0.1-0.7-0.3s0.3-0.8,0.7-0.8s0.7,0.1,0.7,0.3S109.4,312.2,109,312.5z
		 M109,298.1c-0.4,0.2-0.7,0.1-0.7-0.3s0.3-0.8,0.7-0.8s0.7,0.1,0.7,0.3C109.7,297.6,109.4,297.9,109,298.1z M109,284.2
		c-0.4,0-0.7-0.3-0.7-0.7c0-0.4,0.3-0.7,0.7-0.7s0.7,0.3,0.7,0.7C109.7,283.9,109.4,284.2,109,284.2z M109,269.5
		c-0.4,0.2-0.7,0.1-0.7-0.3s0.3-0.8,0.7-0.8s0.7,0.1,0.7,0.3S109.4,269.3,109,269.5z M109,255.6c-0.4,0-0.7-0.3-0.7-0.7
		c0-0.4,0.3-0.7,0.7-0.7s0.7,0.3,0.7,0.7C109.7,255.2,109.4,255.6,109,255.6z M109,241.2c-0.4,0-0.7-0.3-0.7-0.7
		c0-0.4,0.3-0.7,0.7-0.7s0.7,0.3,0.7,0.7C109.7,240.9,109.4,241.2,109,241.2z M109,226.9c-0.4,0-0.7-0.3-0.7-0.7
		c0-0.4,0.3-0.7,0.7-0.7s0.7,0.3,0.7,0.7S109.4,226.9,109,226.9z M109,212.6c-0.4,0-0.7-0.3-0.7-0.7c0-0.4,0.3-0.7,0.7-0.7
		s0.7,0.3,0.7,0.7C109.7,212.3,109.4,212.6,109,212.6z M116.2,333.9c-0.4,0.2-0.7,0.1-0.7-0.3s0.3-0.8,0.7-0.8s0.7,0.1,0.7,0.3
		S116.6,333.7,116.2,333.9z M116.2,319.6c-0.4,0.2-0.7,0.1-0.7-0.3s0.3-0.8,0.7-0.8s0.7,0.1,0.7,0.3S116.6,319.4,116.2,319.6z
		 M116.2,305.3c-0.4,0.2-0.7,0.1-0.7-0.3s0.3-0.8,0.7-0.8s0.7,0.1,0.7,0.3C116.9,304.7,116.6,305.1,116.2,305.3z M116.2,291
		c-0.4,0.2-0.7,0.1-0.7-0.3s0.3-0.8,0.7-0.8s0.7,0.1,0.7,0.3S116.6,290.7,116.2,291z M116.2,276.7c-0.4,0.2-0.7,0.1-0.7-0.3
		s0.3-0.8,0.7-0.8s0.7,0.1,0.7,0.3S116.6,276.4,116.2,276.7z M116.2,262.4c-0.4,0.2-0.7,0.1-0.7-0.3s0.3-0.8,0.7-0.8
		s0.7,0.1,0.7,0.3S116.6,262.1,116.2,262.4z M116.2,248.4c-0.4,0-0.7-0.3-0.7-0.7c0-0.4,0.3-0.7,0.7-0.7s0.7,0.3,0.7,0.7
		S116.6,248.4,116.2,248.4z M116.2,234.1c-0.4,0-0.7-0.3-0.7-0.7c0-0.4,0.3-0.7,0.7-0.7s0.7,0.3,0.7,0.7
		C116.9,233.8,116.6,234.1,116.2,234.1z M116.2,219.8c-0.4,0-0.7-0.3-0.7-0.7c0-0.4,0.3-0.7,0.7-0.7s0.7,0.3,0.7,0.7
		S116.6,219.8,116.2,219.8z M116.2,205.5c-0.4,0-0.7-0.3-0.7-0.7c0-0.4,0.3-0.7,0.7-0.7s0.7,0.3,0.7,0.7
		C116.9,205.1,116.6,205.5,116.2,205.5z M123.3,341.1c-0.4,0.2-0.7,0.1-0.7-0.3s0.3-0.8,0.7-0.8s0.7,0.1,0.7,0.3
		C124.1,340.5,123.7,340.8,123.3,341.1z M123.3,326.8c-0.4,0.2-0.7,0.1-0.7-0.3s0.3-0.8,0.7-0.8s0.7,0.1,0.7,0.3
		C124.1,326.2,123.7,326.5,123.3,326.8z M123.3,312.8c-0.4,0-0.7-0.3-0.7-0.7c0-0.4,0.3-0.7,0.7-0.7s0.7,0.3,0.7,0.7
		C124.1,312.5,123.7,312.8,123.3,312.8z M123.3,298.1c-0.4,0.2-0.7,0.1-0.7-0.3s0.3-0.8,0.7-0.8s0.7,0.1,0.7,0.3
		C124.1,297.6,123.7,297.9,123.3,298.1z M123.3,283.8c-0.4,0.2-0.7,0.1-0.7-0.3s0.3-0.8,0.7-0.8s0.7,0.1,0.7,0.3
		C124.1,283.2,123.7,283.6,123.3,283.8z M123.3,269.5c-0.4,0.2-0.7,0.1-0.7-0.3s0.3-0.8,0.7-0.8s0.7,0.1,0.7,0.3
		C124.1,268.9,123.7,269.3,123.3,269.5z M123.3,255.2c-0.4,0.2-0.7,0.1-0.7-0.3s0.3-0.8,0.7-0.8s0.7,0.1,0.7,0.3
		C124.1,254.6,123.7,255,123.3,255.2z M123.3,241.2c-0.4,0-0.7-0.3-0.7-0.7c0-0.4,0.3-0.7,0.7-0.7s0.7,0.3,0.7,0.7
		C124.1,240.9,123.7,241.2,123.3,241.2z M123.3,226.9c-0.4,0-0.7-0.3-0.7-0.7c0-0.4,0.3-0.7,0.7-0.7s0.7,0.3,0.7,0.7
		C124.1,226.6,123.7,226.9,123.3,226.9z M123.3,212.6c-0.4,0-0.7-0.3-0.7-0.7c0-0.4,0.3-0.7,0.7-0.7s0.7,0.3,0.7,0.7
		C124.1,212.3,123.7,212.6,123.3,212.6z M123.3,198.3c-0.4,0-0.7-0.3-0.7-0.7c0-0.4,0.3-0.7,0.7-0.7s0.7,0.3,0.7,0.7
		C124.1,198,123.7,198.3,123.3,198.3z M123.3,184c-0.4,0-0.7-0.3-0.7-0.7c0-0.4,0.3-0.7,0.7-0.7s0.7,0.3,0.7,0.7
		C124.1,183.7,123.7,184,123.3,184z M130.5,348.2c-0.4,0.2-0.7,0.1-0.7-0.3s0.3-0.8,0.7-0.8s0.7,0.1,0.7,0.3
		C131.2,347.7,130.9,348,130.5,348.2z M130.5,333.9c-0.4,0.2-0.7,0.1-0.7-0.3s0.3-0.8,0.7-0.8s0.7,0.1,0.7,0.3
		S130.9,333.7,130.5,333.9z M130.5,319.6c-0.4,0.2-0.7,0.1-0.7-0.3s0.3-0.8,0.7-0.8s0.7,0.1,0.7,0.3S130.9,319.4,130.5,319.6z
		 M130.5,305.3c-0.4,0.2-0.7,0.1-0.7-0.3s0.3-0.8,0.7-0.8s0.7,0.1,0.7,0.3C131.2,304.7,130.9,305.1,130.5,305.3z M130.5,291
		c-0.4,0.2-0.7,0.1-0.7-0.3s0.3-0.8,0.7-0.8s0.7,0.1,0.7,0.3S130.9,290.7,130.5,291z M130.5,276.7c-0.4,0.2-0.7,0.1-0.7-0.3
		s0.3-0.8,0.7-0.8s0.7,0.1,0.7,0.3S130.9,276.4,130.5,276.7z M130.5,262.4c-0.4,0.2-0.7,0.1-0.7-0.3s0.3-0.8,0.7-0.8
		s0.7,0.1,0.7,0.3S130.9,262.1,130.5,262.4z M130.5,248c-0.4,0.2-0.7,0.1-0.7-0.3s0.3-0.8,0.7-0.8s0.7,0.1,0.7,0.3
		C131.2,247.5,130.9,247.8,130.5,248z M130.5,234.1c-0.4,0-0.7-0.3-0.7-0.7c0-0.4,0.3-0.7,0.7-0.7s0.7,0.3,0.7,0.7
		C131.2,233.8,130.9,234.1,130.5,234.1z M130.5,219.8c-0.4,0-0.7-0.5-0.7-1.1s0.3-0.9,0.7-0.7c0.4,0.2,0.7,0.7,0.7,1.1
		C131.2,219.5,130.9,219.8,130.5,219.8z M130.5,205.5c-0.4,0-0.7-0.3-0.7-0.7c0-0.4,0.3-0.7,0.7-0.7s0.7,0.3,0.7,0.7
		C131.2,205.1,130.9,205.5,130.5,205.5z M130.5,191.2c-0.4,0-0.7-0.3-0.7-0.7c0-0.4,0.3-0.7,0.7-0.7s0.7,0.3,0.7,0.7
		C131.2,190.8,130.9,191.2,130.5,191.2z M130.5,176.8c-0.4,0-0.7-0.3-0.7-0.7s0.3-0.7,0.7-0.7s0.7,0.3,0.7,0.7
		S130.9,176.8,130.5,176.8z M137.7,355.4c-0.4,0.2-0.7,0.1-0.7-0.3s0.3-0.8,0.7-0.8s0.7,0.1,0.7,0.3S138,355.1,137.7,355.4z
		 M137.7,341.1c-0.4,0.2-0.7,0.1-0.7-0.3s0.3-0.8,0.7-0.8s0.7,0.1,0.7,0.3S138,340.8,137.7,341.1z M137.7,326.8
		c-0.4,0.2-0.7,0.1-0.7-0.3s0.3-0.8,0.7-0.8s0.7,0.1,0.7,0.3C138.4,326.2,138,326.5,137.7,326.8z M137.7,312.5
		c-0.4,0.2-0.7,0.1-0.7-0.3s0.3-0.8,0.7-0.8s0.7,0.1,0.7,0.3S138,312.2,137.7,312.5z M137.7,298.1c-0.4,0.2-0.7,0.1-0.7-0.3
		s0.3-0.8,0.7-0.8s0.7,0.1,0.7,0.3C138.4,297.6,138,297.9,137.7,298.1z M137.7,284.2c-0.4,0-0.7-0.3-0.7-0.7c0-0.4,0.3-0.7,0.7-0.7
		s0.7,0.3,0.7,0.7C138.4,283.9,138,284.2,137.7,284.2z M137.7,269.5c-0.4,0.2-0.7,0.1-0.7-0.3s0.3-0.8,0.7-0.8s0.7,0.1,0.7,0.3
		S138,269.3,137.7,269.5z M137.7,255.2c-0.4,0.2-0.7,0.1-0.7-0.3s0.3-0.8,0.7-0.8s0.7,0.1,0.7,0.3S138,255,137.7,255.2z
		 M137.7,241.2c-0.4,0-0.7-0.3-0.7-0.7c0-0.4,0.3-0.7,0.7-0.7s0.7,0.3,0.7,0.7C138.4,240.9,138,241.2,137.7,241.2z M137.7,226.9
		c-0.4,0-0.7-0.3-0.7-0.7c0-0.4,0.3-0.7,0.7-0.7s0.7,0.3,0.7,0.7S138,226.9,137.7,226.9z M137.7,212.6c-0.4,0-0.7-0.3-0.7-0.7
		c0-0.4,0.3-0.7,0.7-0.7s0.7,0.3,0.7,0.7C138.4,212.3,138,212.6,137.7,212.6z M137.7,198.3c-0.4,0-0.7-0.3-0.7-0.7
		c0-0.4,0.3-0.7,0.7-0.7s0.7,0.3,0.7,0.7S138,198.3,137.7,198.3z M137.7,184c-0.4,0-0.7-0.3-0.7-0.7c0-0.4,0.3-0.7,0.7-0.7
		s0.7,0.3,0.7,0.7S138,184,137.7,184z M137.7,169.7c-0.4,0-0.7-0.5-0.7-1.1s0.3-0.9,0.7-0.7s0.7,0.7,0.7,1.1
		C138.4,169.4,138,169.7,137.7,169.7z M144.8,362.2c-0.5,0-0.7-0.2-0.5-0.5c0.3-0.3,0.7-0.3,1,0S145.3,362.2,144.8,362.2z
		 M144.8,348.2c-0.4,0.2-0.7,0.1-0.7-0.3s0.3-0.8,0.7-0.8s0.7,0.1,0.7,0.3C145.5,347.7,145.2,348,144.8,348.2z M144.3,333.1
		c0.3-0.3,0.7-0.3,1,0s0,0.5-0.5,0.5S144.1,333.3,144.3,333.1z M144.8,320c-0.4,0-0.7-0.3-0.7-0.7c0-0.4,0.3-0.7,0.7-0.7
		s0.7,0.3,0.7,0.7C145.5,319.6,145.2,320,144.8,320z M144.8,305.3c-0.4,0.2-0.7,0.1-0.7-0.3s0.3-0.8,0.7-0.8s0.7,0.1,0.7,0.3
		C145.5,304.7,145.2,305.1,144.8,305.3z M144.8,291c-0.4,0.2-0.7,0.1-0.7-0.3s0.3-0.8,0.7-0.8s0.7,0.1,0.7,0.3
		S145.2,290.7,144.8,291z M144.8,277c-0.4,0-0.7-0.3-0.7-0.7c0-0.4,0.3-0.7,0.7-0.7s0.7,0.3,0.7,0.7S145.2,277,144.8,277z
		 M144.8,262.4c-0.4,0.2-0.7,0.1-0.7-0.3s0.3-0.8,0.7-0.8s0.7,0.1,0.7,0.3S145.2,262.1,144.8,262.4z M144.8,248
		c-0.4,0.2-0.7,0.1-0.7-0.3s0.3-0.8,0.7-0.8s0.7,0.1,0.7,0.3C145.5,247.5,145.2,247.8,144.8,248z M144.8,233.7
		c-0.4,0.2-0.7,0.1-0.7-0.3s0.3-0.8,0.7-0.8s0.7,0.1,0.7,0.3S145.2,233.5,144.8,233.7z M144.8,219.8c-0.4,0-0.7-0.3-0.7-0.7
		c0-0.4,0.3-0.7,0.7-0.7s0.7,0.3,0.7,0.7S145.2,219.8,144.8,219.8z M144.8,205.5c-0.4,0-0.7-0.3-0.7-0.7c0-0.4,0.3-0.7,0.7-0.7
		s0.7,0.3,0.7,0.7C145.5,205.1,145.2,205.5,144.8,205.5z M144.8,191.2c-0.4,0-0.7-0.5-0.7-1.1s0.3-0.9,0.7-0.7
		c0.4,0.2,0.7,0.7,0.7,1.1C145.5,190.8,145.2,191.2,144.8,191.2z M144.8,176.8c-0.4,0-0.7-0.3-0.7-0.7s0.3-0.7,0.7-0.7
		s0.7,0.3,0.7,0.7S145.2,176.8,144.8,176.8z M144.8,162.5c-0.4,0-0.7-0.3-0.7-0.7s0.3-0.7,0.7-0.7s0.7,0.3,0.7,0.7
		S145.2,162.5,144.8,162.5z M152,369.7c-0.4,0.2-0.7,0.1-0.7-0.3s0.3-0.8,0.7-0.8s0.7,0.1,0.7,0.3S152.4,369.5,152,369.7z
		 M151.5,354.6c0.3-0.3,0.7-0.3,1,0s0,0.5-0.5,0.5C151.4,355,151.2,354.8,151.5,354.6z M152,341.1c-0.4,0.2-0.7,0.1-0.7-0.3
		s0.3-0.8,0.7-0.8s0.7,0.1,0.7,0.3S152.4,340.8,152,341.1z M152,326.8c-0.4,0.2-0.7,0.1-0.7-0.3s0.3-0.8,0.7-0.8s0.7,0.1,0.7,0.3
		C152.7,326.2,152.4,326.5,152,326.8z M152,312.5c-0.4,0.2-0.7,0.1-0.7-0.3s0.3-0.8,0.7-0.8s0.7,0.1,0.7,0.3S152.4,312.2,152,312.5z
		 M152,298.1c-0.4,0.2-0.7,0.1-0.7-0.3s0.3-0.8,0.7-0.8s0.7,0.1,0.7,0.3C152.7,297.6,152.4,297.9,152,298.1z M152,284.2
		c-0.4,0-0.7-0.3-0.7-0.7c0-0.4,0.3-0.7,0.7-0.7s0.7,0.3,0.7,0.7C152.7,283.9,152.4,284.2,152,284.2z M152,269.5
		c-0.4,0.2-0.7,0.1-0.7-0.3s0.3-0.8,0.7-0.8s0.7,0.1,0.7,0.3S152.4,269.3,152,269.5z M152,255.2c-0.4,0.2-0.7,0.1-0.7-0.3
		s0.3-0.8,0.7-0.8s0.7,0.1,0.7,0.3S152.4,255,152,255.2z M152,241.2c-0.4,0-0.7-0.3-0.7-0.7c0-0.4,0.3-0.7,0.7-0.7s0.7,0.3,0.7,0.7
		C152.7,240.9,152.4,241.2,152,241.2z M152,226.9c-0.4,0-0.7-0.3-0.7-0.7c0-0.4,0.3-0.7,0.7-0.7s0.7,0.3,0.7,0.7
		S152.4,226.9,152,226.9z M152,212.6c-0.4,0-0.7-0.5-0.7-1.1s0.3-0.9,0.7-0.7c0.4,0.2,0.7,0.7,0.7,1.1S152.4,212.6,152,212.6z
		 M152,198.3c-0.4,0-0.7-0.3-0.7-0.7c0-0.4,0.3-0.7,0.7-0.7s0.7,0.3,0.7,0.7S152.4,198.3,152,198.3z M152,184
		c-0.4,0-0.7-0.5-0.7-1.1s0.3-0.9,0.7-0.7c0.4,0.2,0.7,0.7,0.7,1.1C152.7,183.7,152.4,184,152,184z M152,169.7
		c-0.4,0-0.7-0.3-0.7-0.7s0.3-0.7,0.7-0.7s0.7,0.3,0.7,0.7S152.4,169.7,152,169.7z M152,155.4c-0.4,0-0.7-0.5-0.7-1.1
		s0.3-0.9,0.7-0.7s0.7,0.7,0.7,1.1S152.4,155.4,152,155.4z M159.1,390.8c-0.5,0-0.7-0.2-0.5-0.5c0.3-0.3,0.7-0.3,1,0
		C159.9,390.6,159.7,390.8,159.1,390.8z M159.1,376.5c-0.5,0-0.7-0.2-0.5-0.5c0.3-0.3,0.7-0.3,1,0
		C159.9,376.3,159.7,376.5,159.1,376.5z M159.1,362.5c-0.4,0.2-0.7,0.1-0.7-0.3s0.3-0.8,0.7-0.8s0.7,0.1,0.7,0.3
		C159.8,362,159.5,362.3,159.1,362.5z M159.1,348.2c-0.4,0.2-0.7,0.1-0.7-0.3s0.3-0.8,0.7-0.8s0.7,0.1,0.7,0.3
		C159.8,347.7,159.5,348,159.1,348.2z M159.1,334.3c-0.4,0-0.7-0.3-0.7-0.7c0-0.4,0.3-0.7,0.7-0.7s0.7,0.3,0.7,0.7
		S159.5,334.3,159.1,334.3z M159.1,319.6c-0.4,0.2-0.7,0.1-0.7-0.3s0.3-0.8,0.7-0.8s0.7,0.1,0.7,0.3S159.5,319.4,159.1,319.6z
		 M159.1,305.3c-0.4,0.2-0.7,0.1-0.7-0.3s0.3-0.8,0.7-0.8s0.7,0.1,0.7,0.3C159.8,304.7,159.5,305.1,159.1,305.3z M159.1,291
		c-0.4,0.2-0.7,0.1-0.7-0.3s0.3-0.8,0.7-0.8s0.7,0.1,0.7,0.3S159.5,290.7,159.1,291z M159.1,276.7c-0.4,0.2-0.7,0.1-0.7-0.3
		s0.3-0.8,0.7-0.8s0.7,0.1,0.7,0.3S159.5,276.4,159.1,276.7z M159.1,262.4c-0.4,0.2-0.7,0.1-0.7-0.3s0.3-0.8,0.7-0.8
		s0.7,0.1,0.7,0.3S159.5,262.1,159.1,262.4z M159.1,248.4c-0.4,0-0.7-0.3-0.7-0.7c0-0.4,0.3-0.7,0.7-0.7s0.7,0.3,0.7,0.7
		S159.5,248.4,159.1,248.4z M159.1,234.1c-0.4,0-0.7-0.3-0.7-0.7c0-0.4,0.3-0.7,0.7-0.7s0.7,0.3,0.7,0.7
		C159.8,233.8,159.5,234.1,159.1,234.1z M159.1,219.8c-0.4,0-0.7-0.5-0.7-1.1s0.3-0.9,0.7-0.7c0.4,0.2,0.7,0.7,0.7,1.1
		C159.8,219.5,159.5,219.8,159.1,219.8z M159.1,205.5c-0.4,0-0.7-0.3-0.7-0.7c0-0.4,0.3-0.7,0.7-0.7s0.7,0.3,0.7,0.7
		C159.8,205.1,159.5,205.5,159.1,205.5z M159.1,191.2c-0.4,0-0.7-0.3-0.7-0.7c0-0.4,0.3-0.7,0.7-0.7s0.7,0.3,0.7,0.7
		C159.8,190.8,159.5,191.2,159.1,191.2z M159.1,176.8c-0.4,0-0.7-0.3-0.7-0.7s0.3-0.7,0.7-0.7s0.7,0.3,0.7,0.7
		S159.5,176.8,159.1,176.8z M159.1,162.5c-0.4,0-0.7-0.5-0.7-1.1s0.3-0.9,0.7-0.7s0.7,0.7,0.7,1.1
		C159.8,162.2,159.5,162.5,159.1,162.5z M159.1,148.2c-0.4,0-0.7-0.5-0.7-1.1s0.3-0.9,0.7-0.7s0.7,0.7,0.7,1.1
		C159.8,147.9,159.5,148.2,159.1,148.2z M166.3,398c-0.5,0-0.7-0.2-0.5-0.5c0.3-0.3,0.7-0.3,1,0C167,397.8,166.8,398,166.3,398z
		 M166.3,383.7c-0.5,0-0.7-0.2-0.5-0.5c0.3-0.3,0.7-0.3,1,0C167,383.4,166.8,383.7,166.3,383.7z M166.3,369.3
		c-0.5,0-0.7-0.2-0.5-0.5c0.3-0.3,0.7-0.3,1,0C167,369.1,166.8,369.3,166.3,369.3z M166.3,355c-0.5,0-0.7-0.2-0.5-0.5
		c0.3-0.3,0.7-0.3,1,0C167,354.8,166.8,355,166.3,355z M166.3,341.4c-0.4,0-0.7-0.3-0.7-0.7c0-0.4,0.3-0.7,0.7-0.7s0.7,0.3,0.7,0.7
		S166.7,341.4,166.3,341.4z M166.3,326.8c-0.4,0.2-0.7,0.1-0.7-0.3s0.3-0.8,0.7-0.8s0.7,0.1,0.7,0.3
		C167,326.2,166.7,326.5,166.3,326.8z M166.3,312.8c-0.4,0-0.7-0.3-0.7-0.7c0-0.4,0.3-0.7,0.7-0.7s0.7,0.3,0.7,0.7
		S166.7,312.8,166.3,312.8z M166.3,298.1c-0.4,0.2-0.7,0.1-0.7-0.3s0.3-0.8,0.7-0.8s0.7,0.1,0.7,0.3
		C167,297.6,166.7,297.9,166.3,298.1z M166.3,283.8c-0.4,0.2-0.7,0.1-0.7-0.3s0.3-0.8,0.7-0.8s0.7,0.1,0.7,0.3
		C167,283.2,166.7,283.6,166.3,283.8z M166.3,269.9c-0.4,0-0.7-0.3-0.7-0.7c0-0.4,0.3-0.7,0.7-0.7s0.7,0.3,0.7,0.7
		S166.7,269.9,166.3,269.9z M166.3,255.6c-0.4,0-0.7-0.3-0.7-0.7c0-0.4,0.3-0.7,0.7-0.7s0.7,0.3,0.7,0.7
		C167,255.2,166.7,255.6,166.3,255.6z M166.3,241.2c-0.4,0-0.7-0.5-0.7-1.1s0.3-0.9,0.7-0.7c0.4,0.2,0.7,0.7,0.7,1.1
		S166.7,241.2,166.3,241.2z M166.3,226.9c-0.4,0-0.7-0.3-0.7-0.7c0-0.4,0.3-0.7,0.7-0.7s0.7,0.3,0.7,0.7S166.7,226.9,166.3,226.9z
		 M166.3,212.6c-0.4,0-0.7-0.3-0.7-0.7c0-0.4,0.3-0.7,0.7-0.7s0.7,0.3,0.7,0.7C167,212.3,166.7,212.6,166.3,212.6z M166.3,198.3
		c-0.4,0-0.7-0.3-0.7-0.7c0-0.4,0.3-0.7,0.7-0.7s0.7,0.3,0.7,0.7S166.7,198.3,166.3,198.3z M166.3,184c-0.4,0-0.7-0.3-0.7-0.7
		c0-0.4,0.3-0.7,0.7-0.7s0.7,0.3,0.7,0.7S166.7,184,166.3,184z M166.3,169.7c-0.4,0-0.7-0.5-0.7-1.1s0.3-0.9,0.7-0.7
		s0.7,0.7,0.7,1.1C167,169.4,166.7,169.7,166.3,169.7z M166.3,155.4c-0.4,0-0.7-0.5-0.7-1.1s0.3-0.9,0.7-0.7s0.7,0.7,0.7,1.1
		S166.7,155.4,166.3,155.4z M166.3,141.1c-0.4,0-0.7-0.5-0.7-1.1s0.3-0.9,0.7-0.7s0.7,0.7,0.7,1.1
		C167,140.8,166.7,141.1,166.3,141.1z M173.4,433.8c-0.5,0-0.7-0.2-0.5-0.5c0.3-0.3,0.7-0.3,1,0C174.2,433.5,174,433.8,173.4,433.8z
		 M173.4,419.4c-0.5,0-0.7-0.2-0.5-0.5c0.3-0.3,0.7-0.3,1,0C174.2,419.2,174,419.4,173.4,419.4z M173.4,405.1
		c-0.5,0-0.7-0.2-0.5-0.5c0.3-0.3,0.7-0.3,1,0S174,405.1,173.4,405.1z M173.4,391.2c-0.4,0.2-0.7,0.1-0.7-0.3s0.3-0.8,0.7-0.8
		s0.7,0.1,0.7,0.3C174.2,390.6,173.8,390.9,173.4,391.2z M173.4,376.9c-0.4,0.2-0.7,0.1-0.7-0.3s0.3-0.8,0.7-0.8s0.7,0.1,0.7,0.3
		C174.2,376.3,173.8,376.6,173.4,376.9z M173.4,362.5c-0.4,0.2-0.7,0.1-0.7-0.3s0.3-0.8,0.7-0.8s0.7,0.1,0.7,0.3
		C174.2,362,173.8,362.3,173.4,362.5z M173.4,348.2c-0.4,0.2-0.7,0.1-0.7-0.3s0.3-0.8,0.7-0.8s0.7,0.1,0.7,0.3
		C174.2,347.7,173.8,348,173.4,348.2z M173.4,333.9c-0.4,0.2-0.7,0.1-0.7-0.3s0.3-0.8,0.7-0.8s0.7,0.1,0.7,0.3
		C174.2,333.3,173.8,333.7,173.4,333.9z M173.4,319.6c-0.4,0.2-0.7,0.1-0.7-0.3s0.3-0.8,0.7-0.8s0.7,0.1,0.7,0.3
		C174.2,319,173.8,319.4,173.4,319.6z M173.4,305.7c-0.4,0-0.7-0.3-0.7-0.7c0-0.4,0.3-0.7,0.7-0.7s0.7,0.3,0.7,0.7
		C174.2,305.3,173.8,305.7,173.4,305.7z M173.4,291c-0.4,0.2-0.7,0.1-0.7-0.3s0.3-0.8,0.7-0.8s0.7,0.1,0.7,0.3
		C174.2,290.4,173.8,290.7,173.4,291z M173.4,276.7c-0.4,0.2-0.7,0.1-0.7-0.3s0.3-0.8,0.7-0.8s0.7,0.1,0.7,0.3
		C174.2,276.1,173.8,276.4,173.4,276.7z M173.4,262.7c-0.4,0-0.7-0.5-0.7-1.1s0.3-0.9,0.7-0.7c0.4,0.2,0.7,0.7,0.7,1.1
		S173.8,262.7,173.4,262.7z M173.4,248.4c-0.4,0-0.7-0.5-0.7-1.1s0.3-0.9,0.7-0.7c0.4,0.2,0.7,0.7,0.7,1.1S173.8,248.4,173.4,248.4z
		 M173.4,234.1c-0.4,0-0.7-0.5-0.7-1.1s0.3-0.9,0.7-0.7c0.4,0.2,0.7,0.7,0.7,1.1C174.2,233.8,173.8,234.1,173.4,234.1z M173.4,219.8
		c-0.4,0-0.7-0.3-0.7-0.7c0-0.4,0.3-0.7,0.7-0.7s0.7,0.3,0.7,0.7C174.2,219.5,173.8,219.8,173.4,219.8z M173.4,205.5
		c-0.4,0-0.7-0.5-0.7-1.1s0.3-0.9,0.7-0.7c0.4,0.2,0.7,0.7,0.7,1.1C174.2,205.2,173.8,205.5,173.4,205.5z M173.4,191.2
		c-0.4,0-0.7-0.5-0.7-1.1s0.3-0.9,0.7-0.7c0.4,0.2,0.7,0.7,0.7,1.1C174.2,190.8,173.8,191.2,173.4,191.2z M173.4,176.8
		c-0.4,0-0.7-0.5-0.7-1.1s0.3-0.9,0.7-0.7s0.7,0.7,0.7,1.1C174.2,176.5,173.8,176.8,173.4,176.8z M173.4,162.5
		c-0.4,0-0.7-0.5-0.7-1.1s0.3-0.9,0.7-0.7s0.7,0.7,0.7,1.1C174.2,162.2,173.8,162.5,173.4,162.5z M173.4,148.2
		c-0.4,0-0.7-0.5-0.7-1.1s0.3-0.9,0.7-0.7s0.7,0.7,0.7,1.1C174.2,147.9,173.8,148.2,173.4,148.2z M173.4,133.9
		c-0.4,0-0.7-0.5-0.7-1.1s0.3-0.9,0.7-0.7s0.7,0.7,0.7,1.1C174.2,133.6,173.8,133.9,173.4,133.9z M180.6,469.5
		c-0.5,0-0.7-0.2-0.5-0.5c0.3-0.3,0.7-0.3,1,0C181.3,469.3,181.1,469.5,180.6,469.5z M180.6,455.2c-0.5,0-0.7-0.2-0.5-0.5
		c0.3-0.3,0.7-0.3,1,0C181.3,455,181.1,455.2,180.6,455.2z M180.6,440.9c-0.5,0-0.7-0.2-0.5-0.5c0.3-0.3,0.7-0.3,1,0
		C181.3,440.7,181.1,440.9,180.6,440.9z M180.6,426.6c-0.5,0-0.7-0.2-0.5-0.5c0.3-0.3,0.7-0.3,1,0
		C181.3,426.4,181.1,426.6,180.6,426.6z M180.6,412.3c-0.5,0-0.7-0.2-0.5-0.5c0.3-0.3,0.7-0.3,1,0
		C181.3,412.1,181.1,412.3,180.6,412.3z M180.6,398.3c-0.4,0.2-0.7,0.1-0.7-0.3s0.3-0.8,0.7-0.8s0.7,0.1,0.7,0.3
		C181.3,397.7,181,398.1,180.6,398.3z M180.6,384c-0.4,0.2-0.7,0.1-0.7-0.3s0.3-0.8,0.7-0.8s0.7,0.1,0.7,0.3S181,383.8,180.6,384z
		 M180.1,368.9c0.3-0.3,0.7-0.3,1,0s0,0.5-0.5,0.5C180.1,369.3,179.9,369.1,180.1,368.9z M180.6,355.4c-0.4,0.2-0.7,0.1-0.7-0.3
		s0.3-0.8,0.7-0.8s0.7,0.1,0.7,0.3S181,355.1,180.6,355.4z M180.6,341.4c-0.4,0-0.7-0.3-0.7-0.7c0-0.4,0.3-0.7,0.7-0.7
		s0.7,0.3,0.7,0.7S181,341.4,180.6,341.4z M180.6,326.8c-0.4,0.2-0.7,0.1-0.7-0.3s0.3-0.8,0.7-0.8s0.7,0.1,0.7,0.3
		C181.3,326.2,181,326.5,180.6,326.8z M180.6,312.5c-0.4,0.2-0.7,0.1-0.7-0.3s0.3-0.8,0.7-0.8s0.7,0.1,0.7,0.3
		S181,312.2,180.6,312.5z M180.6,298.1c-0.4,0.2-0.7,0.1-0.7-0.3s0.3-0.8,0.7-0.8s0.7,0.1,0.7,0.3
		C181.3,297.6,181,297.9,180.6,298.1z M180.6,284.2c-0.4,0-0.7-0.3-0.7-0.7c0-0.4,0.3-0.7,0.7-0.7s0.7,0.3,0.7,0.7
		C181.3,283.9,181,284.2,180.6,284.2z M180.6,269.9c-0.4,0-0.7-0.3-0.7-0.7c0-0.4,0.3-0.7,0.7-0.7s0.7,0.3,0.7,0.7
		S181,269.9,180.6,269.9z M180.6,255.6c-0.4,0-0.7-0.5-0.7-1.1s0.3-0.9,0.7-0.7c0.4,0.2,0.7,0.7,0.7,1.1S181,255.6,180.6,255.6z
		 M180.6,241.2c-0.4,0-0.7-0.3-0.7-0.7c0-0.4,0.3-0.7,0.7-0.7s0.7,0.3,0.7,0.7C181.3,240.9,181,241.2,180.6,241.2z M180.6,226.9
		c-0.4,0-0.7-0.3-0.7-0.7c0-0.4,0.3-0.7,0.7-0.7s0.7,0.3,0.7,0.7S181,226.9,180.6,226.9z M180.6,212.6c-0.4,0-0.7-0.5-0.7-1.1
		s0.3-0.9,0.7-0.7c0.4,0.2,0.7,0.7,0.7,1.1S181,212.6,180.6,212.6z M180.6,198.3c-0.4,0-0.7-0.3-0.7-0.7c0-0.4,0.3-0.7,0.7-0.7
		s0.7,0.3,0.7,0.7S181,198.3,180.6,198.3z M180.6,184c-0.4,0-0.7-0.5-0.7-1.1s0.3-0.9,0.7-0.7c0.4,0.2,0.7,0.7,0.7,1.1
		C181.3,183.7,181,184,180.6,184z M180.6,169.7c-0.4,0-0.7-0.5-0.7-1.1s0.3-0.9,0.7-0.7s0.7,0.7,0.7,1.1
		C181.3,169.4,181,169.7,180.6,169.7z M180.6,155.4c-0.4,0-0.7-0.5-0.7-1.1s0.3-0.9,0.7-0.7s0.7,0.7,0.7,1.1S181,155.4,180.6,155.4z
		 M180.6,141.1c-0.4,0-0.7-0.5-0.7-1.1s0.3-0.9,0.7-0.7s0.7,0.7,0.7,1.1C181.3,140.8,181,141.1,180.6,141.1z M187.8,462.4
		c-0.5,0-0.7-0.2-0.5-0.5c0.3-0.3,0.7-0.3,1,0C188.5,462.2,188.3,462.4,187.8,462.4z M187.8,448.1c-0.5,0-0.7-0.2-0.5-0.5
		c0.3-0.3,0.7-0.3,1,0C188.5,447.9,188.3,448.1,187.8,448.1z M187.8,434.1c-0.4,0.2-0.7,0.1-0.7-0.3s0.3-0.8,0.7-0.8
		s0.7,0.1,0.7,0.3S188.1,433.9,187.8,434.1z M187.8,419.8c-0.4,0.2-0.7,0.1-0.7-0.3s0.3-0.8,0.7-0.8s0.7,0.1,0.7,0.3
		C188.5,419.2,188.1,419.6,187.8,419.8z M187.8,405.5c-0.4,0.2-0.7,0.1-0.7-0.3s0.3-0.8,0.7-0.8s0.7,0.1,0.7,0.3
		S188.1,405.2,187.8,405.5z M187.3,390.3c0.3-0.3,0.7-0.3,1,0s0,0.5-0.5,0.5C187.2,390.8,187,390.6,187.3,390.3z M187.8,376.9
		c-0.4,0.2-0.7,0.1-0.7-0.3s0.3-0.8,0.7-0.8s0.7,0.1,0.7,0.3S188.1,376.6,187.8,376.9z M187.8,362.5c-0.4,0.2-0.7,0.1-0.7-0.3
		s0.3-0.8,0.7-0.8s0.7,0.1,0.7,0.3C188.5,362,188.1,362.3,187.8,362.5z M187.8,348.6c-0.4,0-0.7-0.3-0.7-0.7c0-0.4,0.3-0.7,0.7-0.7
		s0.7,0.3,0.7,0.7C188.5,348.3,188.1,348.6,187.8,348.6z M187.8,334.3c-0.4,0-0.7-0.3-0.7-0.7c0-0.4,0.3-0.7,0.7-0.7
		s0.7,0.3,0.7,0.7S188.1,334.3,187.8,334.3z M187.8,319.6c-0.4,0.2-0.7,0.1-0.7-0.3s0.3-0.8,0.7-0.8s0.7,0.1,0.7,0.3
		S188.1,319.4,187.8,319.6z M187.8,305.7c-0.4,0-0.7-0.3-0.7-0.7c0-0.4,0.3-0.7,0.7-0.7s0.7,0.3,0.7,0.7
		C188.5,305.3,188.1,305.7,187.8,305.7z M187.8,291c-0.4,0.2-0.7,0.1-0.7-0.3s0.3-0.8,0.7-0.8s0.7,0.1,0.7,0.3
		S188.1,290.7,187.8,291z M187.8,277c-0.4,0-0.7-0.3-0.7-0.7c0-0.4,0.3-0.7,0.7-0.7s0.7,0.3,0.7,0.7S188.1,277,187.8,277z
		 M187.8,262.7c-0.4,0-0.7-0.3-0.7-0.7c0-0.4,0.3-0.7,0.7-0.7s0.7,0.3,0.7,0.7C188.5,262.4,188.1,262.7,187.8,262.7z M187.8,248.4
		c-0.4,0-0.7-0.3-0.7-0.7c0-0.4,0.3-0.7,0.7-0.7s0.7,0.3,0.7,0.7S188.1,248.4,187.8,248.4z M187.8,234.1c-0.4,0-0.7-0.3-0.7-0.7
		c0-0.4,0.3-0.7,0.7-0.7s0.7,0.3,0.7,0.7C188.5,233.8,188.1,234.1,187.8,234.1z M187.8,219.8c-0.4,0-0.7-0.3-0.7-0.7
		c0-0.4,0.3-0.7,0.7-0.7s0.7,0.3,0.7,0.7S188.1,219.8,187.8,219.8z M187.8,205.5c-0.4,0-0.7-0.5-0.7-1.1s0.3-0.9,0.7-0.7
		c0.4,0.2,0.7,0.7,0.7,1.1C188.5,205.2,188.1,205.5,187.8,205.5z M187.8,191.2c-0.4,0-0.7-0.5-0.7-1.1s0.3-0.9,0.7-0.7
		c0.4,0.2,0.7,0.7,0.7,1.1C188.5,190.8,188.1,191.2,187.8,191.2z M187.8,176.8c-0.4,0-0.7-0.5-0.7-1.1s0.3-0.9,0.7-0.7
		s0.7,0.7,0.7,1.1C188.5,176.5,188.1,176.8,187.8,176.8z M187.8,162.5c-0.4,0-0.7-0.5-0.7-1.1s0.3-0.9,0.7-0.7s0.7,0.7,0.7,1.1
		C188.5,162.2,188.1,162.5,187.8,162.5z M187.8,148.2c-0.4,0-0.7-0.5-0.7-1.1s0.3-0.9,0.7-0.7s0.7,0.7,0.7,1.1
		C188.5,147.9,188.1,148.2,187.8,148.2z M187.8,133.9c-0.4,0-0.7-0.5-0.7-1.1s0.3-0.9,0.7-0.7s0.7,0.7,0.7,1.1
		S188.1,133.9,187.8,133.9z M194.9,469.5c-0.5,0-0.7-0.2-0.5-0.5c0.3-0.3,0.7-0.3,1,0C195.6,469.3,195.4,469.5,194.9,469.5z
		 M194.9,455.2c-0.5,0-0.7-0.2-0.5-0.5c0.3-0.3,0.7-0.3,1,0C195.6,455,195.4,455.2,194.9,455.2z M194.9,441.3
		c-0.4,0.2-0.7,0.1-0.7-0.3c0-0.4,0.3-0.8,0.7-0.8c0.4,0,0.7,0.1,0.7,0.3S195.3,441,194.9,441.3z M194.9,427
		c-0.4,0.2-0.7,0.1-0.7-0.3s0.3-0.8,0.7-0.8c0.4,0,0.7,0.1,0.7,0.3S195.3,426.7,194.9,427z M194.9,412.6c-0.4,0.2-0.7,0.1-0.7-0.3
		s0.3-0.8,0.7-0.8c0.4,0,0.7,0.1,0.7,0.3C195.6,412.1,195.3,412.4,194.9,412.6z M194.4,397.5c0.3-0.3,0.7-0.3,1,0s0,0.5-0.5,0.5
		S194.2,397.8,194.4,397.5z M194.9,384c-0.4,0.2-0.7,0.1-0.7-0.3s0.3-0.8,0.7-0.8c0.4,0,0.7,0.1,0.7,0.3S195.3,383.8,194.9,384z
		 M194.9,369.7c-0.4,0.2-0.7,0.1-0.7-0.3s0.3-0.8,0.7-0.8c0.4,0,0.7,0.1,0.7,0.3S195.3,369.5,194.9,369.7z M194.9,355.7
		c-0.4,0-0.7-0.3-0.7-0.7c0-0.4,0.3-0.7,0.7-0.7c0.4,0,0.7,0.3,0.7,0.7C195.6,355.4,195.3,355.7,194.9,355.7z M194.9,341.1
		c-0.4,0.2-0.7,0.1-0.7-0.3s0.3-0.8,0.7-0.8c0.4,0,0.7,0.1,0.7,0.3S195.3,340.8,194.9,341.1z M194.9,326.8c-0.4,0.2-0.7,0.1-0.7-0.3
		s0.3-0.8,0.7-0.8c0.4,0,0.7,0.1,0.7,0.3C195.6,326.2,195.3,326.5,194.9,326.8z M194.9,312.5c-0.4,0.2-0.7,0.1-0.7-0.3
		s0.3-0.8,0.7-0.8c0.4,0,0.7,0.1,0.7,0.3S195.3,312.2,194.9,312.5z M194.9,298.5c-0.4,0-0.7-0.3-0.7-0.7c0-0.4,0.3-0.7,0.7-0.7
		c0.4,0,0.7,0.3,0.7,0.7S195.3,298.5,194.9,298.5z M194.9,284.2c-0.4,0-0.7-0.5-0.7-1.1s0.3-0.9,0.7-0.7c0.4,0.2,0.7,0.7,0.7,1.1
		S195.3,284.2,194.9,284.2z M194.9,269.9c-0.4,0-0.7-0.3-0.7-0.7c0-0.4,0.3-0.7,0.7-0.7c0.4,0,0.7,0.3,0.7,0.7
		S195.3,269.9,194.9,269.9z M194.9,255.6c-0.4,0-0.7-0.3-0.7-0.7c0-0.4,0.3-0.7,0.7-0.7c0.4,0,0.7,0.3,0.7,0.7
		C195.6,255.2,195.3,255.6,194.9,255.6z M194.9,241.2c-0.4,0-0.7-0.3-0.7-0.7c0-0.4,0.3-0.7,0.7-0.7c0.4,0,0.7,0.3,0.7,0.7
		C195.6,240.9,195.3,241.2,194.9,241.2z M194.9,226.9c-0.4,0-0.7-0.5-0.7-1.1s0.3-0.9,0.7-0.7c0.4,0.2,0.7,0.7,0.7,1.1
		S195.3,226.9,194.9,226.9z M194.9,212.6c-0.4,0-0.7-0.5-0.7-1.1s0.3-0.9,0.7-0.7c0.4,0.2,0.7,0.7,0.7,1.1S195.3,212.6,194.9,212.6z
		 M194.9,198.3c-0.4,0-0.7-0.5-0.7-1.1s0.3-0.9,0.7-0.7c0.4,0.2,0.7,0.7,0.7,1.1C195.6,198,195.3,198.3,194.9,198.3z M194.9,184
		c-0.4,0-0.7-0.5-0.7-1.1s0.3-0.9,0.7-0.7c0.4,0.2,0.7,0.7,0.7,1.1C195.6,183.7,195.3,184,194.9,184z M194.9,169.7
		c-0.4,0-0.7-0.5-0.7-1.1s0.3-0.9,0.7-0.7c0.4,0.2,0.7,0.7,0.7,1.1C195.6,169.4,195.3,169.7,194.9,169.7z M194.9,155.4
		c-0.4,0-0.7-0.5-0.7-1.1s0.3-0.9,0.7-0.7c0.4,0.2,0.7,0.7,0.7,1.1S195.3,155.4,194.9,155.4z M194.9,141.1c-0.4,0-0.7-0.5-0.7-1.1
		s0.3-0.9,0.7-0.7c0.4,0.2,0.7,0.7,0.7,1.1C195.6,140.8,195.3,141.1,194.9,141.1z M194.9,126.7c-0.4,0-0.7-0.5-0.7-1.1
		s0.3-0.9,0.7-0.7c0.4,0.2,0.7,0.7,0.7,1.1C195.6,126.4,195.3,126.7,194.9,126.7z M202.1,462.4c-0.5,0-0.7-0.2-0.5-0.5
		c0.3-0.3,0.7-0.3,1,0C202.8,462.2,202.6,462.4,202.1,462.4z M202.1,448.4c-0.4,0.2-0.7,0.1-0.7-0.3c0-0.4,0.3-0.8,0.7-0.8
		c0.4,0,0.7,0.1,0.7,0.3C202.8,447.8,202.5,448.2,202.1,448.4z M202.1,434.1c-0.4,0.2-0.7,0.1-0.7-0.3s0.3-0.8,0.7-0.8
		c0.4,0,0.7,0.1,0.7,0.3C202.8,433.5,202.5,433.9,202.1,434.1z M202.1,419.8c-0.4,0.2-0.7,0.1-0.7-0.3s0.3-0.8,0.7-0.8
		c0.4,0,0.7,0.1,0.7,0.3C202.8,419.2,202.5,419.6,202.1,419.8z M202.1,405.5c-0.4,0.2-0.7,0.1-0.7-0.3s0.3-0.8,0.7-0.8
		c0.4,0,0.7,0.1,0.7,0.3C202.8,404.9,202.5,405.2,202.1,405.5z M202.1,391.2c-0.4,0.2-0.7,0.1-0.7-0.3s0.3-0.8,0.7-0.8
		c0.4,0,0.7,0.1,0.7,0.3C202.8,390.6,202.5,390.9,202.1,391.2z M202.1,376.9c-0.4,0.2-0.7,0.1-0.7-0.3s0.3-0.8,0.7-0.8
		c0.4,0,0.7,0.1,0.7,0.3C202.8,376.3,202.5,376.6,202.1,376.9z M202.1,362.5c-0.4,0.2-0.7,0.1-0.7-0.3s0.3-0.8,0.7-0.8
		c0.4,0,0.7,0.1,0.7,0.3C202.8,362,202.5,362.3,202.1,362.5z M202.1,348.2c-0.4,0.2-0.7,0.1-0.7-0.3s0.3-0.8,0.7-0.8
		c0.4,0,0.7,0.1,0.7,0.3C202.8,347.7,202.5,348,202.1,348.2z M202.1,334.3c-0.4,0-0.7-0.3-0.7-0.7c0-0.4,0.3-0.7,0.7-0.7
		c0.4,0,0.7,0.3,0.7,0.7C202.8,334,202.5,334.3,202.1,334.3z M202.1,320c-0.4,0-0.7-0.3-0.7-0.7c0-0.4,0.3-0.7,0.7-0.7
		c0.4,0,0.7,0.3,0.7,0.7C202.8,319.6,202.5,320,202.1,320z M202.1,305.7c-0.4,0-0.7-0.3-0.7-0.7c0-0.4,0.3-0.7,0.7-0.7
		c0.4,0,0.7,0.3,0.7,0.7C202.8,305.3,202.5,305.7,202.1,305.7z M202.1,291.3c-0.4,0-0.7-0.3-0.7-0.7c0-0.4,0.3-0.7,0.7-0.7
		c0.4,0,0.7,0.3,0.7,0.7C202.8,291,202.5,291.3,202.1,291.3z M202.1,277c-0.4,0-0.7-0.3-0.7-0.7c0-0.4,0.3-0.7,0.7-0.7
		c0.4,0,0.7,0.3,0.7,0.7C202.8,276.7,202.5,277,202.1,277z M202.1,262.7c-0.4,0-0.7-0.5-0.7-1.1s0.3-0.9,0.7-0.7
		c0.4,0.2,0.7,0.7,0.7,1.1S202.5,262.7,202.1,262.7z M202.1,248.4c-0.4,0-0.7-0.5-0.7-1.1s0.3-0.9,0.7-0.7c0.4,0.2,0.7,0.7,0.7,1.1
		S202.5,248.4,202.1,248.4z M202.1,234.1c-0.4,0-0.7-0.5-0.7-1.1s0.3-0.9,0.7-0.7c0.4,0.2,0.7,0.7,0.7,1.1
		C202.8,233.8,202.5,234.1,202.1,234.1z M202.1,219.8c-0.4,0-0.7-0.5-0.7-1.1s0.3-0.9,0.7-0.7c0.4,0.2,0.7,0.7,0.7,1.1
		C202.8,219.5,202.5,219.8,202.1,219.8z M202.1,205.5c-0.4,0-0.7-0.5-0.7-1.1s0.3-0.9,0.7-0.7c0.4,0.2,0.7,0.7,0.7,1.1
		C202.8,205.2,202.5,205.5,202.1,205.5z M202.1,191.2c-0.4,0-0.7-0.5-0.7-1.1s0.3-0.9,0.7-0.7c0.4,0.2,0.7,0.7,0.7,1.1
		C202.8,190.8,202.5,191.2,202.1,191.2z M202.1,176.8c-0.4,0-0.7-0.5-0.7-1.1s0.3-0.9,0.7-0.7c0.4,0.2,0.7,0.7,0.7,1.1
		C202.8,176.5,202.5,176.8,202.1,176.8z M202.1,162.5c-0.4,0-0.7-0.5-0.7-1.1s0.3-0.9,0.7-0.7c0.4,0.2,0.7,0.7,0.7,1.1
		C202.8,162.2,202.5,162.5,202.1,162.5z M202.1,148.2c-0.4,0-0.7-0.5-0.7-1.1s0.3-0.9,0.7-0.7c0.4,0.2,0.7,0.7,0.7,1.1
		C202.8,147.9,202.5,148.2,202.1,148.2z M202.1,133.9c-0.4,0-0.7-0.5-0.7-1.1s0.3-0.9,0.7-0.7c0.4,0.2,0.7,0.7,0.7,1.1
		C202.8,133.6,202.5,133.9,202.1,133.9z M202.1,119.6c-0.4,0-0.7-0.5-0.7-1.1s0.3-0.9,0.7-0.7c0.4,0.2,0.7,0.7,0.7,1.1
		C202.8,119.3,202.5,119.6,202.1,119.6z M209.2,469.5c-0.5,0-0.7-0.2-0.5-0.5c0.3-0.3,0.7-0.3,1,0S209.7,469.5,209.2,469.5z
		 M209.2,455.2c-0.5,0-0.7-0.2-0.5-0.5c0.3-0.3,0.7-0.3,1,0S209.7,455.2,209.2,455.2z M209.2,441.3c-0.4,0.2-0.7,0.1-0.7-0.3
		c0-0.4,0.3-0.8,0.7-0.8c0.4,0,0.7,0.1,0.7,0.3C209.9,440.7,209.6,441,209.2,441.3z M209.2,427c-0.4,0.2-0.7,0.1-0.7-0.3
		s0.3-0.8,0.7-0.8c0.4,0,0.7,0.1,0.7,0.3C209.9,426.4,209.6,426.7,209.2,427z M209.2,412.6c-0.4,0.2-0.7,0.1-0.7-0.3
		s0.3-0.8,0.7-0.8c0.4,0,0.7,0.1,0.7,0.3C209.9,412.1,209.6,412.4,209.2,412.6z M209.2,398.3c-0.4,0.2-0.7,0.1-0.7-0.3
		s0.3-0.8,0.7-0.8c0.4,0,0.7,0.1,0.7,0.3C209.9,397.7,209.6,398.1,209.2,398.3z M209.2,384.4c-0.4,0-0.7-0.3-0.7-0.7
		c0-0.4,0.3-0.7,0.7-0.7c0.4,0,0.7,0.3,0.7,0.7C209.9,384.1,209.6,384.4,209.2,384.4z M209.2,369.7c-0.4,0.2-0.7,0.1-0.7-0.3
		s0.3-0.8,0.7-0.8c0.4,0,0.7,0.1,0.7,0.3C209.9,369.1,209.6,369.5,209.2,369.7z M209.2,355.4c-0.4,0.2-0.7,0.1-0.7-0.3
		s0.3-0.8,0.7-0.8c0.4,0,0.7,0.1,0.7,0.3C209.9,354.8,209.6,355.1,209.2,355.4z M209.2,341.4c-0.4,0-0.7-0.3-0.7-0.7
		c0-0.4,0.3-0.7,0.7-0.7c0.4,0,0.7,0.3,0.7,0.7C209.9,341.1,209.6,341.4,209.2,341.4z M209.2,327.1c-0.4,0-0.7-0.3-0.7-0.7
		c0-0.4,0.3-0.7,0.7-0.7c0.4,0,0.7,0.3,0.7,0.7C209.9,326.8,209.6,327.1,209.2,327.1z M209.2,312.8c-0.4,0-0.7-0.3-0.7-0.7
		c0-0.4,0.3-0.7,0.7-0.7c0.4,0,0.7,0.3,0.7,0.7C209.9,312.5,209.6,312.8,209.2,312.8z M209.2,298.5c-0.4,0-0.7-0.5-0.7-1.1
		s0.3-0.9,0.7-0.7c0.4,0.2,0.7,0.7,0.7,1.1C209.9,298.2,209.6,298.5,209.2,298.5z M209.2,284.2c-0.4,0-0.7-0.3-0.7-0.7
		c0-0.4,0.3-0.7,0.7-0.7c0.4,0,0.7,0.3,0.7,0.7C209.9,283.9,209.6,284.2,209.2,284.2z M209.2,269.9c-0.4,0-0.7-0.5-0.7-1.1
		s0.3-0.9,0.7-0.7c0.4,0.2,0.7,0.7,0.7,1.1C209.9,269.6,209.6,269.9,209.2,269.9z M209.2,255.6c-0.4,0-0.7-0.5-0.7-1.1
		s0.3-0.9,0.7-0.7c0.4,0.2,0.7,0.7,0.7,1.1C209.9,255.3,209.6,255.6,209.2,255.6z M209.2,241.2c-0.4,0-0.7-0.5-0.7-1.1
		s0.3-0.9,0.7-0.7c0.4,0.2,0.7,0.7,0.7,1.1C209.9,240.9,209.6,241.2,209.2,241.2z M209.2,226.9c-0.4,0-0.7-0.5-0.7-1.1
		s0.3-0.9,0.7-0.7c0.4,0.2,0.7,0.7,0.7,1.1C209.9,226.6,209.6,226.9,209.2,226.9z M209.2,212.6c-0.4,0-0.7-0.5-0.7-1.1
		s0.3-0.9,0.7-0.7c0.4,0.2,0.7,0.7,0.7,1.1C209.9,212.3,209.6,212.6,209.2,212.6z M209.2,198.3c-0.4,0-0.7-0.5-0.7-1.1
		s0.3-0.9,0.7-0.7c0.4,0.2,0.7,0.7,0.7,1.1C209.9,198,209.6,198.3,209.2,198.3z M209.2,184c-0.4,0-0.7-0.5-0.7-1.1s0.3-0.9,0.7-0.7
		c0.4,0.2,0.7,0.7,0.7,1.1C209.9,183.7,209.6,184,209.2,184z M209.2,169.7c-0.4,0-0.7-0.5-0.7-1.1s0.3-0.9,0.7-0.7
		c0.4,0.2,0.7,0.7,0.7,1.1C209.9,169.4,209.6,169.7,209.2,169.7z M209.2,155.4c-0.4,0-0.7-0.5-0.7-1.1s0.3-0.9,0.7-0.7
		c0.4,0.2,0.7,0.7,0.7,1.1C209.9,155.1,209.6,155.4,209.2,155.4z M209.2,141.1c-0.4,0-0.7-0.5-0.7-1.1s0.3-0.9,0.7-0.7
		c0.4,0.2,0.7,0.7,0.7,1.1C209.9,140.8,209.6,141.1,209.2,141.1z M209.2,126.7c-0.4,0-0.7-0.5-0.7-1.1s0.3-1.1,0.7-1.1
		c0.4,0,0.7,0.5,0.7,1.1C209.9,126.3,209.6,126.7,209.2,126.7z M216.4,462.7c-0.4,0.2-0.7,0.1-0.7-0.3c0-0.4,0.3-0.8,0.7-0.8
		c0.4,0,0.7,0.1,0.7,0.3C217.1,462.2,216.8,462.5,216.4,462.7z M216.4,448.4c-0.4,0.2-0.7,0.1-0.7-0.3c0-0.4,0.3-0.8,0.7-0.8
		c0.4,0,0.7,0.1,0.7,0.3C217.1,447.8,216.8,448.2,216.4,448.4z M216.4,434.1c-0.4,0.2-0.7,0.1-0.7-0.3s0.3-0.8,0.7-0.8
		c0.4,0,0.7,0.1,0.7,0.3S216.8,433.9,216.4,434.1z M216.4,419.8c-0.4,0.2-0.7,0.1-0.7-0.3s0.3-0.8,0.7-0.8c0.4,0,0.7,0.1,0.7,0.3
		C217.1,419.2,216.8,419.6,216.4,419.8z M216.4,405.5c-0.4,0.2-0.7,0.1-0.7-0.3s0.3-0.8,0.7-0.8c0.4,0,0.7,0.1,0.7,0.3
		S216.8,405.2,216.4,405.5z M216.4,391.2c-0.4,0.2-0.7,0.1-0.7-0.3s0.3-0.8,0.7-0.8c0.4,0,0.7,0.1,0.7,0.3S216.8,390.9,216.4,391.2z
		 M216.4,376.9c-0.4,0.2-0.7,0.1-0.7-0.3s0.3-0.8,0.7-0.8c0.4,0,0.7,0.1,0.7,0.3S216.8,376.6,216.4,376.9z M216.4,362.9
		c-0.4,0-0.7-0.3-0.7-0.7c0-0.4,0.3-0.7,0.7-0.7c0.4,0,0.7,0.3,0.7,0.7S216.8,362.9,216.4,362.9z M216.4,348.6
		c-0.4,0-0.7-0.3-0.7-0.7c0-0.4,0.3-0.7,0.7-0.7c0.4,0,0.7,0.3,0.7,0.7C217.1,348.3,216.8,348.6,216.4,348.6z M216.4,334.3
		c-0.4,0-0.7-0.3-0.7-0.7c0-0.4,0.3-0.7,0.7-0.7c0.4,0,0.7,0.3,0.7,0.7S216.8,334.3,216.4,334.3z M216.4,320c-0.4,0-0.7-0.3-0.7-0.7
		s0.3-0.7,0.7-0.7c0.4,0,0.7,0.3,0.7,0.7S216.8,320,216.4,320z M216.4,305.7c-0.4,0-0.7-0.3-0.7-0.7c0-0.4,0.3-0.7,0.7-0.7
		c0.4,0,0.7,0.3,0.7,0.7C217.1,305.3,216.8,305.7,216.4,305.7z M216.4,291.3c-0.4,0-0.7-0.5-0.7-1.1s0.3-0.9,0.7-0.7
		c0.4,0.2,0.7,0.7,0.7,1.1C217.1,291,216.8,291.3,216.4,291.3z M216.4,277c-0.4,0-0.7-0.5-0.7-1.1s0.3-0.9,0.7-0.7
		c0.4,0.2,0.7,0.7,0.7,1.1C217.1,276.7,216.8,277,216.4,277z M216.4,262.7c-0.4,0-0.7-0.5-0.7-1.1s0.3-0.9,0.7-0.7
		c0.4,0.2,0.7,0.7,0.7,1.1S216.8,262.7,216.4,262.7z M216.4,248.4c-0.4,0-0.7-0.5-0.7-1.1s0.3-0.9,0.7-0.7c0.4,0.2,0.7,0.7,0.7,1.1
		C217.1,248.1,216.8,248.4,216.4,248.4z M216.4,234.1c-0.4,0-0.7-0.5-0.7-1.1s0.3-0.9,0.7-0.7c0.4,0.2,0.7,0.7,0.7,1.1
		S216.8,234.1,216.4,234.1z M216.4,219.8c-0.4,0-0.7-0.5-0.7-1.1s0.3-0.9,0.7-0.7c0.4,0.2,0.7,0.7,0.7,1.1
		C217.1,219.5,216.8,219.8,216.4,219.8z M216.4,205.5c-0.4,0-0.7-0.5-0.7-1.1s0.3-0.9,0.7-0.7c0.4,0.2,0.7,0.7,0.7,1.1
		C217.1,205.2,216.8,205.5,216.4,205.5z M216.4,191.2c-0.4,0-0.7-0.5-0.7-1.1s0.3-0.9,0.7-0.7c0.4,0.2,0.7,0.7,0.7,1.1
		C217.1,190.8,216.8,191.2,216.4,191.2z M216.4,176.8c-0.4,0-0.7-0.5-0.7-1.1s0.3-0.9,0.7-0.7c0.4,0.2,0.7,0.7,0.7,1.1
		C217.1,176.5,216.8,176.8,216.4,176.8z M216.4,162.5c-0.4,0-0.7-0.5-0.7-1.1s0.3-1.1,0.7-1.1c0.4,0,0.7,0.5,0.7,1.1
		S216.8,162.5,216.4,162.5z M216.4,148.2c-0.4,0-0.7-0.5-0.7-1.1s0.3-1.1,0.7-1.1c0.4,0,0.7,0.5,0.7,1.1S216.8,148.2,216.4,148.2z
		 M216.4,133.9c-0.4,0-0.7-0.5-0.7-1.1s0.3-1.1,0.7-1.1c0.4,0,0.7,0.5,0.7,1.1S216.8,133.9,216.4,133.9z M216.4,119.6
		c-0.4,0-0.7-0.5-0.7-1.1s0.3-1.1,0.7-1.1c0.4,0,0.7,0.5,0.7,1.1S216.8,119.6,216.4,119.6z M223.5,469.9c-0.4,0.2-0.7,0.1-0.7-0.3
		c0-0.4,0.3-0.8,0.7-0.8c0.4,0,0.7,0.1,0.7,0.3C224.2,469.3,223.9,469.7,223.5,469.9z M223.5,455.9c-0.4,0-0.7-0.5-0.7-1.1
		s0.3-0.9,0.7-0.7c0.4,0.2,0.7,0.7,0.7,1.1S223.9,455.9,223.5,455.9z M223.5,441.3c-0.4,0.2-0.7,0.1-0.7-0.3c0-0.4,0.3-0.8,0.7-0.8
		c0.4,0,0.7,0.1,0.7,0.3S223.9,441,223.5,441.3z M223.5,427.3c-0.4,0-0.7-0.3-0.7-0.7c0-0.4,0.3-0.7,0.7-0.7c0.4,0,0.7,0.3,0.7,0.7
		S223.9,427.3,223.5,427.3z M223.5,413c-0.4,0-0.7-0.3-0.7-0.7c0-0.4,0.3-0.7,0.7-0.7c0.4,0,0.7,0.3,0.7,0.7S223.9,413,223.5,413z
		 M223.5,398.7c-0.4,0-0.7-0.5-0.7-1.1s0.3-0.9,0.7-0.7c0.4,0.2,0.7,0.7,0.7,1.1S223.9,398.7,223.5,398.7z M223.5,384.4
		c-0.4,0-0.7-0.3-0.7-0.7c0-0.4,0.3-0.7,0.7-0.7c0.4,0,0.7,0.3,0.7,0.7S223.9,384.4,223.5,384.4z M223.5,370.1
		c-0.4,0-0.7-0.5-0.7-1.1s0.3-0.9,0.7-0.7c0.4,0.2,0.7,0.7,0.7,1.1S223.9,370.1,223.5,370.1z M223.5,355.7c-0.4,0-0.7-0.3-0.7-0.7
		c0-0.4,0.3-0.7,0.7-0.7c0.4,0,0.7,0.3,0.7,0.7C224.2,355.4,223.9,355.7,223.5,355.7z M223.5,341.4c-0.4,0-0.7-0.3-0.7-0.7
		c0-0.4,0.3-0.7,0.7-0.7c0.4,0,0.7,0.3,0.7,0.7S223.9,341.4,223.5,341.4z M223.5,327.1c-0.4,0-0.7-0.5-0.7-1.1s0.3-0.9,0.7-0.7
		c0.4,0.2,0.7,0.7,0.7,1.1S223.9,327.1,223.5,327.1z M223.5,312.8c-0.4,0-0.7-0.5-0.7-1.1s0.3-0.9,0.7-0.7c0.4,0.2,0.7,0.7,0.7,1.1
		C224.2,312.5,223.9,312.8,223.5,312.8z M223.5,298.5c-0.4,0-0.7-0.5-0.7-1.1s0.3-0.9,0.7-0.7c0.4,0.2,0.7,0.7,0.7,1.1
		C224.2,298.2,223.9,298.5,223.5,298.5z M223.5,284.2c-0.4,0-0.7-0.5-0.7-1.1s0.3-0.9,0.7-0.7c0.4,0.2,0.7,0.7,0.7,1.1
		S223.9,284.2,223.5,284.2z M223.5,269.9c-0.4,0-0.7-0.5-0.7-1.1s0.3-0.9,0.7-0.7c0.4,0.2,0.7,0.7,0.7,1.1
		C224.2,269.6,223.9,269.9,223.5,269.9z M223.5,255.6c-0.4,0-0.7-0.5-0.7-1.1s0.3-0.9,0.7-0.7c0.4,0.2,0.7,0.7,0.7,1.1
		S223.9,255.6,223.5,255.6z M223.5,241.2c-0.4,0-0.7-0.5-0.7-1.1s0.3-0.9,0.7-0.7c0.4,0.2,0.7,0.7,0.7,1.1S223.9,241.2,223.5,241.2z
		 M223.5,226.9c-0.4,0-0.7-0.5-0.7-1.1s0.3-0.9,0.7-0.7c0.4,0.2,0.7,0.7,0.7,1.1C224.2,226.6,223.9,226.9,223.5,226.9z M223.5,212.6
		c-0.4,0-0.7-0.5-0.7-1.1s0.3-0.9,0.7-0.7c0.4,0.2,0.7,0.7,0.7,1.1S223.9,212.6,223.5,212.6z M223.5,198.3c-0.4,0-0.7-0.5-0.7-1.1
		s0.3-0.9,0.7-0.7c0.4,0.2,0.7,0.7,0.7,1.1C224.2,198,223.9,198.3,223.5,198.3z M223.5,183.9c-1.1-0.4-1.2-1.5-0.2-1.8
		c0.5-0.2,0.9,0.2,0.9,0.9C224.2,183.6,223.9,184,223.5,183.9z M223.5,169.7c-0.4,0-0.7-0.5-0.7-1.1s0.3-1.1,0.7-1.1
		c0.4,0,0.7,0.5,0.7,1.1S223.9,169.7,223.5,169.7z M223.5,155.4c-0.4,0-0.7-0.5-0.7-1.1s0.3-1.1,0.7-1.1c0.4,0,0.7,0.5,0.7,1.1
		S223.9,155.4,223.5,155.4z M223.5,141.1c-0.4,0-0.7-0.5-0.7-1.1s0.3-1.1,0.7-1.1c0.4,0,0.7,0.5,0.7,1.1S223.9,141.1,223.5,141.1z
		 M223.5,126.6c-1.1-0.4-1.2-1.5-0.2-1.8c0.5-0.2,0.9,0.2,0.9,0.9C224.2,126.3,223.9,126.8,223.5,126.6z M244.2,117.9
		c0.6-0.6,1-0.6,1.6,0s0.6,0.9,0,1.3C244.6,119.9,243.3,118.9,244.2,117.9z M244.2,132.2c0.6-0.6,1-0.6,1.6,0s0.6,0.9,0,1.3
		C244.6,134.2,243.3,133.2,244.2,132.2z M230.7,463.1c-0.4,0-0.7-0.3-0.7-0.7s0.3-0.7,0.7-0.7c0.4,0,0.7,0.3,0.7,0.7
		C231.4,462.8,231.1,463.1,230.7,463.1z M230.7,448.4c-0.4,0.2-0.7,0.1-0.7-0.3c0-0.4,0.3-0.8,0.7-0.8c0.4,0,0.7,0.1,0.7,0.3
		C231.4,447.8,231.1,448.2,230.7,448.4z M230.7,434.1c-0.4,0.2-0.7,0.1-0.7-0.3s0.3-0.8,0.7-0.8c0.4,0,0.7,0.1,0.7,0.3
		C231.4,433.5,231.1,433.9,230.7,434.1z M230.7,420.2c-0.4,0-0.7-0.5-0.7-1.1s0.3-0.9,0.7-0.7c0.4,0.2,0.7,0.7,0.7,1.1
		C231.4,419.9,231.1,420.2,230.7,420.2z M230.7,405.8c-0.4,0-0.7-0.3-0.7-0.7c0-0.4,0.3-0.7,0.7-0.7c0.4,0,0.7,0.3,0.7,0.7
		C231.4,405.5,231.1,405.8,230.7,405.8z M230.7,391.5c-0.4,0-0.7-0.5-0.7-1.1s0.3-0.9,0.7-0.7c0.4,0.2,0.7,0.7,0.7,1.1
		C231.4,391.2,231.1,391.5,230.7,391.5z M230.7,377.2c-0.4,0-0.7-0.3-0.7-0.7c0-0.4,0.3-0.7,0.7-0.7c0.4,0,0.7,0.3,0.7,0.7
		C231.4,376.9,231.1,377.2,230.7,377.2z M230.7,362.9c-0.4,0-0.7-0.5-0.7-1.1s0.3-0.9,0.7-0.7c0.4,0.2,0.7,0.7,0.7,1.1
		C231.4,362.6,231.1,362.9,230.7,362.9z M230.7,348.6c-0.4,0-0.7-0.5-0.7-1.1s0.3-0.9,0.7-0.7c0.4,0.2,0.7,0.7,0.7,1.1
		C231.4,348.3,231.1,348.6,230.7,348.6z M230.7,334.3c-0.4,0-0.7-0.5-0.7-1.1s0.3-0.9,0.7-0.7c0.4,0.2,0.7,0.7,0.7,1.1
		S231.1,334.3,230.7,334.3z M230.7,320c-0.4,0-0.7-0.5-0.7-1.1s0.3-0.9,0.7-0.7c0.4,0.2,0.7,0.7,0.7,1.1S231.1,320,230.7,320z
		 M230.7,305.7c-0.4,0-0.7-0.5-0.7-1.1s0.3-0.9,0.7-0.7c0.4,0.2,0.7,0.7,0.7,1.1C231.4,305.4,231.1,305.7,230.7,305.7z M230.7,291.3
		c-0.4,0-0.7-0.5-0.7-1.1s0.3-0.9,0.7-0.7c0.4,0.2,0.7,0.7,0.7,1.1C231.4,291,231.1,291.3,230.7,291.3z M230.7,277
		c-0.4,0-0.7-0.5-0.7-1.1s0.3-0.9,0.7-0.7c0.4,0.2,0.7,0.7,0.7,1.1C231.4,276.7,231.1,277,230.7,277z M230.7,262.7
		c-0.4,0-0.7-0.5-0.7-1.1s0.3-0.9,0.7-0.7c0.4,0.2,0.7,0.7,0.7,1.1C231.4,262.4,231.1,262.7,230.7,262.7z M230.7,248.4
		c-0.4,0-0.7-0.5-0.7-1.1s0.3-1.1,0.7-1.1c0.4,0,0.7,0.5,0.7,1.1C231.4,247.9,231.1,248.4,230.7,248.4z M230.7,234.1
		c-0.4,0-0.7-0.5-0.7-1.1s0.3-0.9,0.7-0.7c0.4,0.2,0.7,0.7,0.7,1.1S231.1,234.1,230.7,234.1z M230.7,219.8c-0.4,0-0.7-0.5-0.7-1.1
		s0.3-1.1,0.7-1.1c0.4,0,0.7,0.5,0.7,1.1C231.4,219.3,231.1,219.8,230.7,219.8z M230.7,205.5c-0.4,0-0.7-0.5-0.7-1.1
		s0.3-1.1,0.7-1.1c0.4,0,0.7,0.5,0.7,1.1C231.4,205,231.1,205.5,230.7,205.5z M230.7,191.2c-0.4,0-0.7-0.5-0.7-1.1s0.3-1.1,0.7-1.1
		c0.4,0,0.7,0.5,0.7,1.1C231.4,190.7,231.1,191.2,230.7,191.2z M230.7,176.8c-0.4,0-0.7-0.5-0.7-1.1s0.3-1.1,0.7-1.1
		c0.4,0,0.7,0.5,0.7,1.1C231.4,176.4,231.1,176.8,230.7,176.8z M230.7,162.4c-1.1-0.4-1.2-1.5-0.2-1.8c0.5-0.2,0.9,0.2,0.9,0.9
		C231.4,162.1,231.1,162.5,230.7,162.4z M230.7,148.1c-1.1-0.4-1.2-1.5-0.2-1.8c0.5-0.2,0.9,0.2,0.9,0.9
		C231.4,147.8,231.1,148.2,230.7,148.1z M230.7,133.8c-1.1-0.4-1.2-1.5-0.2-1.8c0.5-0.2,0.9,0.2,0.9,0.9
		C231.4,133.5,231.1,133.9,230.7,133.8z M230.7,119.5c-1.1-0.4-1.2-1.5-0.2-1.8c0.5-0.2,0.9,0.2,0.9,0.9
		C231.4,119.2,231.1,119.6,230.7,119.5z M237.8,470.3c-0.4,0-0.7-0.3-0.7-0.7s0.3-0.7,0.7-0.7c0.4,0,0.7,0.3,0.7,0.7
		C238.6,469.9,238.2,470.3,237.8,470.3z M237.8,455.9c-0.4,0-0.7-0.3-0.7-0.7s0.3-0.7,0.7-0.7c0.4,0,0.7,0.3,0.7,0.7
		C238.6,455.6,238.2,455.9,237.8,455.9z M237.8,441.6c-0.4,0-0.7-0.5-0.7-1.1s0.3-0.9,0.7-0.7c0.4,0.2,0.7,0.7,0.7,1.1
		C238.6,441.3,238.2,441.6,237.8,441.6z M237.8,427.3c-0.4,0-0.7-0.3-0.7-0.7c0-0.4,0.3-0.7,0.7-0.7c0.4,0,0.7,0.3,0.7,0.7
		C238.6,427,238.2,427.3,237.8,427.3z M237.8,413c-0.4,0-0.7-0.3-0.7-0.7c0-0.4,0.3-0.7,0.7-0.7c0.4,0,0.7,0.3,0.7,0.7
		C238.6,412.7,238.2,413,237.8,413z M237.8,398.7c-0.4,0-0.7-0.5-0.7-1.1s0.3-0.9,0.7-0.7c0.4,0.2,0.7,0.7,0.7,1.1
		C238.6,398.4,238.2,398.7,237.8,398.7z M237.8,384.4c-0.4,0-0.7-0.5-0.7-1.1s0.3-0.9,0.7-0.7c0.4,0.2,0.7,0.7,0.7,1.1
		C238.6,384.1,238.2,384.4,237.8,384.4z M237.8,370.1c-0.4,0-0.7-0.5-0.7-1.1s0.3-0.9,0.7-0.7c0.4,0.2,0.7,0.7,0.7,1.1
		C238.6,369.8,238.2,370.1,237.8,370.1z M237.8,355.7c-0.4,0-0.7-0.5-0.7-1.1s0.3-0.9,0.7-0.7c0.4,0.2,0.7,0.7,0.7,1.1
		S238.2,355.7,237.8,355.7z M237.8,341.4c-0.4,0-0.7-0.5-0.7-1.1s0.3-0.9,0.7-0.7c0.4,0.2,0.7,0.7,0.7,1.1
		C238.6,341.1,238.2,341.4,237.8,341.4z M237.8,327.1c-0.4,0-0.7-0.5-0.7-1.1s0.3-1.1,0.7-1.1c0.4,0,0.7,0.5,0.7,1.1
		S238.2,327.1,237.8,327.1z M237.8,312.8c-0.4,0-0.7-0.5-0.7-1.1s0.3-0.9,0.7-0.7c0.4,0.2,0.7,0.7,0.7,1.1
		C238.6,312.5,238.2,312.8,237.8,312.8z M237.8,298.5c-0.4,0-0.7-0.5-0.7-1.1s0.3-0.9,0.7-0.7c0.4,0.2,0.7,0.7,0.7,1.1
		C238.6,298.2,238.2,298.5,237.8,298.5z M237.8,284.2c-0.4,0-0.7-0.5-0.7-1.1s0.3-0.9,0.7-0.7c0.4,0.2,0.7,0.7,0.7,1.1
		C238.6,283.9,238.2,284.2,237.8,284.2z M237.8,269.9c-0.4,0-0.7-0.5-0.7-1.1s0.3-1.1,0.7-1.1c0.4,0,0.7,0.5,0.7,1.1
		C238.6,269.4,238.2,269.9,237.8,269.9z M237.8,255.6c-0.4,0-0.7-0.5-0.7-1.1s0.3-1.1,0.7-1.1c0.4,0,0.7,0.5,0.7,1.1
		C238.6,255.1,238.2,255.6,237.8,255.6z M237.8,241.2c-0.4,0-0.7-0.5-0.7-1.1s0.3-1.1,0.7-1.1c0.4,0,0.7,0.5,0.7,1.1
		C238.6,240.8,238.2,241.2,237.8,241.2z M237.8,226.9c-0.4,0-0.7-0.5-0.7-1.1s0.3-1.1,0.7-1.1c0.4,0,0.7,0.5,0.7,1.1
		C238.6,226.5,238.2,226.9,237.8,226.9z M237.8,212.6c-0.4,0-0.7-0.5-0.7-1.1s0.3-1.1,0.7-1.1c0.4,0,0.7,0.5,0.7,1.1
		C238.6,212.1,238.2,212.6,237.8,212.6z M237.8,198.2c-1.1-0.4-1.2-1.5-0.2-1.8c0.5-0.2,0.9,0.2,0.9,0.9
		C238.6,197.9,238.2,198.3,237.8,198.2z M237.8,183.9c-1.1-0.4-1.2-1.5-0.2-1.8c0.5-0.2,0.9,0.2,0.9,0.9
		C238.6,183.6,238.2,184,237.8,183.9z M238.6,169.3c-1.2,0.7-2.5-0.3-1.6-1.3c0.6-0.6,1-0.6,1.6,0S239.2,168.9,238.6,169.3z
		 M238.6,155c-1.2,0.7-2.5-0.3-1.6-1.3c0.6-0.6,1-0.6,1.6,0S239.2,154.6,238.6,155z M238.6,140.7c-1.2,0.7-2.5-0.3-1.6-1.3
		c0.6-0.6,1-0.6,1.6,0S239.2,140.3,238.6,140.7z M238.6,126.3c-1.2,0.7-2.5-0.3-1.6-1.3c0.6-0.6,1-0.6,1.6,0S239.2,126,238.6,126.3z
		 M238.6,112c-1.2,0.7-2.5-0.3-1.6-1.3c0.6-0.6,1-0.6,1.6,0S239.2,111.7,238.6,112z M245,463.1c-0.4,0-0.7-0.3-0.7-0.7
		s0.3-0.7,0.7-0.7c0.4,0,0.7,0.3,0.7,0.7S245.4,463.1,245,463.1z M245,448.8c-0.4,0-0.7-0.5-0.7-1.1s0.3-0.9,0.7-0.7
		c0.4,0.2,0.7,0.7,0.7,1.1C245.7,448.5,245.4,448.8,245,448.8z M245,434.5c-0.4,0-0.7-0.5-0.7-1.1s0.3-0.9,0.7-0.7
		c0.4,0.2,0.7,0.7,0.7,1.1C245.7,434.2,245.4,434.5,245,434.5z M245,420.2c-0.4,0-0.7-0.5-0.7-1.1s0.3-0.9,0.7-0.7
		c0.4,0.2,0.7,0.7,0.7,1.1S245.4,420.2,245,420.2z M245,405.8c-0.4,0-0.7-0.5-0.7-1.1s0.3-0.9,0.7-0.7c0.4,0.2,0.7,0.7,0.7,1.1
		C245.7,405.5,245.4,405.8,245,405.8z M245,391.5c-0.4,0-0.7-0.5-0.7-1.1s0.3-0.9,0.7-0.7c0.4,0.2,0.7,0.7,0.7,1.1
		C245.7,391.2,245.4,391.5,245,391.5z M245,377.2c-0.4,0-0.7-0.5-0.7-1.1s0.3-0.9,0.7-0.7c0.4,0.2,0.7,0.7,0.7,1.1
		S245.4,377.2,245,377.2z M245,362.9c-0.4,0-0.7-0.5-0.7-1.1s0.3-0.9,0.7-0.7c0.4,0.2,0.7,0.7,0.7,1.1
		C245.7,362.6,245.4,362.9,245,362.9z M245,348.6c-0.4,0-0.7-0.5-0.7-1.1s0.3-0.9,0.7-0.7c0.4,0.2,0.7,0.7,0.7,1.1
		S245.4,348.6,245,348.6z M245,334.3c-0.4,0-0.7-0.5-0.7-1.1s0.3-0.9,0.7-0.7c0.4,0.2,0.7,0.7,0.7,1.1
		C245.7,334,245.4,334.3,245,334.3z M245,320c-0.4,0-0.7-0.5-0.7-1.1s0.3-0.9,0.7-0.7c0.4,0.2,0.7,0.7,0.7,1.1S245.4,320,245,320z
		 M245,305.7c-0.4,0-0.7-0.5-0.7-1.1s0.3-1.1,0.7-1.1c0.4,0,0.7,0.5,0.7,1.1S245.4,305.7,245,305.7z M245,291.3
		c-0.4,0-0.7-0.5-0.7-1.1s0.3-1.1,0.7-1.1c0.4,0,0.7,0.5,0.7,1.1C245.7,290.9,245.4,291.3,245,291.3z M245,277
		c-0.4,0-0.7-0.5-0.7-1.1s0.3-1.1,0.7-1.1c0.4,0,0.7,0.5,0.7,1.1S245.4,277,245,277z M245,262.7c-0.4,0-0.7-0.5-0.7-1.1
		s0.3-1.1,0.7-1.1c0.4,0,0.7,0.5,0.7,1.1S245.4,262.7,245,262.7z M245,248.4c-0.4,0-0.7-0.5-0.7-1.1s0.3-1.1,0.7-1.1
		c0.4,0,0.7,0.5,0.7,1.1S245.4,248.4,245,248.4z M245,234c-1.1-0.4-1.2-1.5-0.2-1.8c0.5-0.2,0.9,0.2,0.9,0.9
		C245.7,233.7,245.4,234.1,245,234z M245,219.7c-1.1-0.4-1.2-1.5-0.2-1.8c0.5-0.2,0.9,0.2,0.9,0.9
		C245.7,219.4,245.4,219.8,245,219.7z M245,205.3c-1.1-0.4-1.2-1.5-0.2-1.8c0.5-0.2,0.9,0.2,0.9,0.9
		C245.7,205,245.4,205.5,245,205.3z M245.8,190.8c-1.2,0.7-2.5-0.3-1.6-1.3c0.6-0.6,1-0.6,1.6,0
		C246.3,190.1,246.3,190.4,245.8,190.8z M245.8,176.4c-1.2,0.7-2.5-0.3-1.6-1.3c0.6-0.6,1-0.6,1.6,0
		C246.3,175.7,246.3,176.1,245.8,176.4z M245.8,162.1c-1.2,0.7-2.5-0.3-1.6-1.3c0.6-0.6,1-0.6,1.6,0
		C246.3,161.4,246.3,161.8,245.8,162.1z M245.4,147.9c-1.6,0.6-2.4-0.2-1.3-1.3l0.8-0.8l0.8,0.8l0.8,0.8L245.4,147.9z M252.2,470.3
		c-0.4,0-0.7-0.5-0.7-1.1s0.3-0.9,0.7-0.7c0.4,0.2,0.7,0.7,0.7,1.1C252.9,469.9,252.6,470.3,252.2,470.3z M252.2,455.9
		c-0.4,0-0.7-0.5-0.7-1.1s0.3-0.9,0.7-0.7c0.4,0.2,0.7,0.7,0.7,1.1C252.9,455.6,252.6,455.9,252.2,455.9z M252.2,441.6
		c-0.4,0-0.7-0.5-0.7-1.1s0.3-0.9,0.7-0.7c0.4,0.2,0.7,0.7,0.7,1.1C252.9,441.3,252.6,441.6,252.2,441.6z M252.2,427.3
		c-0.4,0-0.7-0.5-0.7-1.1s0.3-0.9,0.7-0.7c0.4,0.2,0.7,0.7,0.7,1.1S252.6,427.3,252.2,427.3z M252.2,413c-0.4,0-0.7-0.5-0.7-1.1
		s0.3-0.9,0.7-0.7c0.4,0.2,0.7,0.7,0.7,1.1S252.6,413,252.2,413z M252.2,398.7c-0.4,0-0.7-0.5-0.7-1.1s0.3-0.9,0.7-0.7
		c0.4,0.2,0.7,0.7,0.7,1.1C252.9,398.4,252.6,398.7,252.2,398.7z M252.2,384.4c-0.4,0-0.7-0.5-0.7-1.1s0.3-0.9,0.7-0.7
		c0.4,0.2,0.7,0.7,0.7,1.1C252.9,384.1,252.6,384.4,252.2,384.4z M252.2,370.1c-0.4,0-0.7-0.5-0.7-1.1s0.3-0.9,0.7-0.7
		c0.4,0.2,0.7,0.7,0.7,1.1C252.9,369.8,252.6,370.1,252.2,370.1z M252.2,355.7c-0.4,0-0.7-0.5-0.7-1.1s0.3-1.1,0.7-1.1
		c0.4,0,0.7,0.5,0.7,1.1C252.9,355.3,252.6,355.7,252.2,355.7z M252.2,341.4c-0.4,0-0.7-0.5-0.7-1.1s0.3-1.1,0.7-1.1
		c0.4,0,0.7,0.5,0.7,1.1S252.6,341.4,252.2,341.4z M252.2,327.1c-0.4,0-0.7-0.5-0.7-1.1s0.3-1.1,0.7-1.1c0.4,0,0.7,0.5,0.7,1.1
		S252.6,327.1,252.2,327.1z M252.2,312.8c-0.4,0-0.7-0.5-0.7-1.1s0.3-1.1,0.7-1.1c0.4,0,0.7,0.5,0.7,1.1S252.6,312.8,252.2,312.8z
		 M252.2,298.5c-0.4,0-0.7-0.5-0.7-1.1s0.3-1.1,0.7-1.1c0.4,0,0.7,0.5,0.7,1.1C252.9,298,252.6,298.5,252.2,298.5z M252.2,284.1
		c-1.1-0.4-1.2-1.5-0.2-1.8c0.5-0.2,0.9,0.2,0.9,0.9C252.9,283.8,252.6,284.2,252.2,284.1z M252.2,269.8c-1.1-0.4-1.2-1.5-0.2-1.8
		c0.5-0.2,0.9,0.2,0.9,0.9C252.9,269.5,252.6,269.9,252.2,269.8z M252.2,255.4c-1.1-0.4-1.2-1.5-0.2-1.8c0.5-0.2,0.9,0.2,0.9,0.9
		C252.9,255.1,252.6,255.6,252.2,255.4z M252.9,240.9c-1.2,0.7-2.5-0.3-1.6-1.3c0.6-0.6,1-0.6,1.6,0S253.5,240.5,252.9,240.9z
		 M252.9,226.5c-1.2,0.7-2.5-0.3-1.6-1.3c0.6-0.6,1-0.6,1.6,0C253.5,225.8,253.5,226.2,252.9,226.5z M252.9,212.2
		c-1.2,0.7-2.5-0.3-1.6-1.3c0.6-0.6,1-0.6,1.6,0C253.5,211.5,253.5,211.9,252.9,212.2z M252.9,197.9c-1.2,0.7-2.5-0.3-1.6-1.3
		c0.6-0.6,1-0.6,1.6,0S253.5,197.6,252.9,197.9z M252.9,183.6c-1.2,0.7-2.5-0.3-1.6-1.3c0.6-0.6,1-0.6,1.6,0
		C253.5,182.9,253.5,183.3,252.9,183.6z M252.6,169.4c-1.6,0.6-2.4-0.2-1.3-1.3l0.8-0.8l0.8,0.8l0.8,0.8L252.6,169.4z M252.6,155.1
		c-1.6,0.6-2.4-0.2-1.3-1.3l0.8-0.8l0.8,0.8l0.8,0.8L252.6,155.1z M252.6,140.8c-1.6,0.6-2.4-0.2-1.3-1.3l0.8-0.8l0.8,0.8l0.8,0.8
		L252.6,140.8z M252.6,126.5c-1.6,0.6-2.4-0.2-1.3-1.3l0.8-0.8l0.8,0.8l0.8,0.8L252.6,126.5z M252.6,112.1c-1.6,0.6-2.4-0.2-1.3-1.3
		l0.8-0.8l0.8,0.8l0.8,0.8L252.6,112.1z M322.5,124.8l1.1-1.1l1.1,0.9c1.2,1,1.4,1.7,0.6,2.4c-0.8,0.8-3,0.6-3.5-0.3
		C321.6,126.2,321.9,125.4,322.5,124.8z M309.2,382.4c1.4,0.3,2,1.7,1,2.4c-1,0.6-2.2-0.2-2.2-1.5
		C308,382.6,308.5,382.2,309.2,382.4z M308,368.9c0-0.6,0.5-1,1.2-0.9c1.4,0.3,2,1.7,1,2.4C309.1,371,308,370.2,308,368.9z
		 M308.5,397.2c0.5-0.5,1.2-0.6,1.6-0.3c0.9,0.6,1,1.6,0.2,2.1c-0.3,0.2-1,0.1-1.6-0.3l-1-0.6L308.5,397.2z M302.3,117.4
		c1,0,1.4,0.5,1.4,1.4c0,1-0.5,1.4-1.4,1.4c-1,0-1.4-0.5-1.4-1.4C300.8,117.9,301.3,117.4,302.3,117.4z M302.3,131.8
		c1,0,1.4,0.5,1.4,1.4s-0.5,1.4-1.4,1.4c-1,0-1.4-0.5-1.4-1.4S301.3,131.8,302.3,131.8z M302.3,146.1c1,0,1.4,0.5,1.4,1.4
		s-0.5,1.4-1.4,1.4c-1,0-1.4-0.5-1.4-1.4S301.3,146.1,302.3,146.1z M302.3,189c1,0,1.4,0.5,1.4,1.4c0,1-0.5,1.4-1.4,1.4
		c-1,0-1.4-0.5-1.4-1.4C300.8,189.5,301.3,189,302.3,189z M300.8,176.1c0-1,0.5-1.4,1.4-1.4c1,0,1.4,0.5,1.4,1.4
		c0,1-0.5,1.4-1.4,1.4C301.3,177.6,300.8,177.1,300.8,176.1z M302.3,203.3c1.5,0,2,1.7,0.7,2.5c-1,0.6-2.1-0.2-2.1-1.5
		C300.8,203.8,301.5,203.3,302.3,203.3z M302,289.3c1.4,0.3,2,1.7,1,2.4c-1,0.6-2.2-0.2-2.2-1.5C300.8,289.5,301.3,289.2,302,289.3z
		 M300.8,275.9c0-0.6,0.5-1,1.2-0.9c1.4,0.3,2,1.7,1,2.4C302,278,300.8,277.2,300.8,275.9z M302,303.6c1.4,0.3,2,1.7,1,2.4
		c-1,0.6-2.2-0.2-2.2-1.5C300.8,303.9,301.3,303.5,302,303.6z M295.1,124.6c1.4,0,1.9,1.4,1,2.4c-1,1-2.4,0.4-2.4-1
		C293.7,125.1,294.1,124.6,295.1,124.6z M295.1,138.9c1.5,0,2,1.7,0.7,2.5c-1,0.6-2.1-0.2-2.1-1.5
		C293.7,139.4,294.3,138.9,295.1,138.9z M295.1,153.2c1.5,0,2,1.7,0.7,2.5c-1,0.6-2.1-0.2-2.1-1.5
		C293.7,153.7,294.3,153.2,295.1,153.2z M295.1,167.5c1.5,0,2,1.7,0.7,2.5c-1,0.6-2.1-0.2-2.1-1.5
		C293.7,168,294.3,167.5,295.1,167.5z M295.1,181.8c1.5,0,2,1.7,0.7,2.5c-1,0.6-2.1-0.2-2.1-1.5
		C293.7,182.3,294.3,181.8,295.1,181.8z M295.1,196.2c1.5,0,2,1.7,0.7,2.5c-1,0.6-2.1-0.2-2.1-1.5
		C293.7,196.6,294.3,196.2,295.1,196.2z M295.9,213c-1,0.6-2.2-0.2-2.2-1.5c0-0.6,0.5-1,1.2-0.9C296.3,210.9,296.9,212.3,295.9,213z
		 M295.1,224.8c1.5,0,2,1.7,0.7,2.5c-1,0.6-2.1-0.2-2.1-1.5C293.7,225.3,294.3,224.8,295.1,224.8z M295.8,298.9
		c-1.2,0.7-2.6-0.9-1.6-1.9c0.8-0.8,2.4-0.3,2.4,0.8C296.5,298.1,296.2,298.6,295.8,298.9z M296.5,312.1c0,0.3-0.3,0.8-0.8,1.1
		c-1.2,0.7-2.6-0.9-1.6-1.9C295,310.5,296.5,311,296.5,312.1z M295.8,284.6c-1.2,0.7-2.6-0.9-1.6-1.9c0.8-0.8,2.4-0.3,2.4,0.8
		C296.5,283.8,296.2,284.3,295.8,284.6z M295.8,270.3c-1.2,0.7-2.6-0.9-1.6-1.9c0.8-0.8,2.4-0.3,2.4,0.8
		C296.5,269.5,296.2,270,295.8,270.3z M294.9,239.2c1.4,0.3,2,1.7,1,2.4c-1,0.6-2.2-0.2-2.2-1.5
		C293.7,239.5,294.2,239.1,294.9,239.2z M294.9,253.5c1.4,0.3,2,1.7,1,2.4c-1,0.6-2.2-0.2-2.2-1.5
		C293.7,253.8,294.2,253.4,294.9,253.5z M294.1,325.6c0.5-0.5,1.2-0.6,1.6-0.3c0.9,0.6,1,1.6,0.2,2.1c-0.3,0.2-1,0.1-1.6-0.3l-1-0.6
		L294.1,325.6z M294.1,340c0.5-0.5,1.2-0.6,1.6-0.3c0.9,0.6,1,1.6,0.2,2.1c-0.3,0.2-1,0.1-1.6-0.3l-1-0.6L294.1,340z M287.9,117.4
		c1.5,0,2,1.7,0.7,2.5c-1,0.6-2.1-0.2-2.1-1.5C286.5,117.9,287.2,117.4,287.9,117.4z M288.6,234.5c-1.2,0.7-2.6-0.9-1.6-1.9
		c0.8-0.8,2.4-0.3,2.4,0.8C289.4,233.7,289,234.2,288.6,234.5z M289.4,247.7c0,0.3-0.3,0.8-0.8,1.1c-1.2,0.7-2.6-0.9-1.6-1.9
		C287.8,246.1,289.4,246.6,289.4,247.7z M288.6,220.2c-1.2,0.7-2.6-0.9-1.6-1.9c0.8-0.8,2.4-0.3,2.4,0.8
		C289.4,219.4,289,219.9,288.6,220.2z M288.6,205.9c-1.2,0.7-2.6-0.9-1.6-1.9c0.8-0.8,2.4-0.3,2.4,0.8
		C289.4,205.1,289,205.6,288.6,205.9z M287.7,131.9c1.4,0.3,2,1.7,1,2.4c-1,0.6-2.2-0.2-2.2-1.5C286.5,132.1,287,131.7,287.7,131.9z
		 M287.7,146.2c1.4,0.3,2,1.7,1,2.4c-1,0.6-2.2-0.2-2.2-1.5C286.5,146.4,287,146.1,287.7,146.2z M287.7,160.5c1.4,0.3,2,1.7,1,2.4
		c-1,0.6-2.2-0.2-2.2-1.5C286.5,160.7,287,160.4,287.7,160.5z M287.7,174.8c1.4,0.3,2,1.7,1,2.4c-1,0.6-2.2-0.2-2.2-1.5
		C286.5,175,287,174.7,287.7,174.8z M287.7,189.1c1.4,0.3,2,1.7,1,2.4c-1,0.6-2.2-0.2-2.2-1.5C286.5,189.4,287,189,287.7,189.1z
		 M287,261.2c0.5-0.5,1.2-0.6,1.6-0.3c0.9,0.6,1,1.6,0.2,2.1c-0.3,0.2-1,0.1-1.6-0.3l-1-0.6L287,261.2z M287,275.5
		c0.5-0.5,1.2-0.6,1.6-0.3c0.9,0.6,1,1.6,0.2,2.1c-0.3,0.2-1,0.1-1.6-0.3l-1-0.6L287,275.5z M287,289.9c0.5-0.5,1.2-0.6,1.6-0.3
		c0.9,0.6,1,1.6,0.2,2.1c-0.3,0.2-1,0.1-1.6-0.3l-1-0.6L287,289.9z M281.4,170.1c-1.2,0.7-2.6-0.9-1.6-1.9c0.8-0.8,2.4-0.3,2.4,0.8
		C282.2,169.3,281.9,169.8,281.4,170.1z M282.2,183.3c0,0.3-0.3,0.8-0.8,1.1c-1.2,0.7-2.6-0.9-1.6-1.9
		C280.7,181.7,282.2,182.2,282.2,183.3z M281.4,155.8c-1.2,0.7-2.6-0.9-1.6-1.9c0.8-0.8,2.4-0.3,2.4,0.8
		C282.2,155,281.9,155.5,281.4,155.8z M281.4,141.5c-1.2,0.7-2.6-0.9-1.6-1.9c0.8-0.8,2.4-0.3,2.4,0.8
		C282.2,140.7,281.9,141.2,281.4,141.5z M280.5,110.4c1.4,0.3,2,1.7,1,2.4c-1,0.6-2.2-0.2-2.2-1.5
		C279.4,110.6,279.9,110.3,280.5,110.4z M280.5,124.7c1.4,0.3,2,1.7,1,2.4c-1,0.6-2.2-0.2-2.2-1.5
		C279.4,124.9,279.9,124.6,280.5,124.7z M279.8,196.8c0.5-0.5,1.2-0.6,1.6-0.3c0.9,0.6,1,1.6,0.2,2.1c-0.3,0.2-1,0.1-1.6-0.3l-1-0.6
		L279.8,196.8z M279.8,211.1c0.5-0.5,1.2-0.6,1.6-0.3c0.9,0.6,1,1.6,0.2,2.1c-0.3,0.2-1,0.1-1.6-0.3l-1-0.6L279.8,211.1z
		 M279.8,225.5c0.5-0.5,1.2-0.6,1.6-0.3c0.9,0.6,1,1.6,0.2,2.1c-0.3,0.2-1,0.1-1.6-0.3l-1-0.6L279.8,225.5z M272.7,118.1
		c0.8-0.8,2.4-0.3,2.4,0.8c0,0.3-0.3,0.8-0.8,1.1C273.1,120.7,271.7,119.1,272.7,118.1z M272.7,132.4c0.5-0.5,1.2-0.6,1.6-0.3
		c0.9,0.6,1,1.6,0.2,2.1c-0.3,0.2-1,0.1-1.6-0.3l-1-0.6L272.7,132.4z M272.7,146.7c0.5-0.5,1.2-0.6,1.6-0.3c0.9,0.6,1,1.6,0.2,2.1
		c-0.3,0.2-1,0.1-1.6-0.3l-1-0.6L272.7,146.7z M272.7,161c0.5-0.5,1.2-0.6,1.6-0.3c0.9,0.6,1,1.6,0.2,2.1c-0.3,0.2-1,0.1-1.6-0.3
		l-1-0.6L272.7,161z M272.7,175.4c0.5-0.5,1.2-0.6,1.6-0.3c0.9,0.6,1,1.6,0.2,2.1c-0.3,0.2-1,0.1-1.6-0.3l-1-0.6L272.7,175.4z
		 M265.5,110.9c0.5-0.5,1.2-0.6,1.6-0.3c0.9,0.6,1,1.6,0.2,2.1c-0.3,0.2-1,0.1-1.6-0.3l-1-0.6L265.5,110.9z M259.3,463.1
		c-0.4,0-0.7-0.5-0.7-1.1s0.3-0.9,0.7-0.7c0.4,0.2,0.7,0.7,0.7,1.1C260,462.8,259.7,463.1,259.3,463.1z M259.3,448.8
		c-0.4,0-0.7-0.5-0.7-1.1s0.3-0.9,0.7-0.7c0.4,0.2,0.7,0.7,0.7,1.1C260,448.5,259.7,448.8,259.3,448.8z M259.3,434.5
		c-0.4,0-0.7-0.5-0.7-1.1s0.3-0.9,0.7-0.7c0.4,0.2,0.7,0.7,0.7,1.1C260,434.2,259.7,434.5,259.3,434.5z M259.3,420.2
		c-0.4,0-0.7-0.5-0.7-1.1s0.3-0.9,0.7-0.7c0.4,0.2,0.7,0.7,0.7,1.1S259.7,420.2,259.3,420.2z M259.3,405.8c-0.4,0-0.7-0.5-0.7-1.1
		s0.3-0.9,0.7-0.7c0.4,0.2,0.7,0.7,0.7,1.1C260,405.5,259.7,405.8,259.3,405.8z M259.3,391.5c-0.4,0-0.7-0.5-0.7-1.1
		s0.3-1.1,0.7-1.1c0.4,0,0.7,0.5,0.7,1.1S259.7,391.5,259.3,391.5z M259.3,377.2c-0.4,0-0.7-0.5-0.7-1.1s0.3-1.1,0.7-1.1
		c0.4,0,0.7,0.5,0.7,1.1S259.7,377.2,259.3,377.2z M259.3,362.9c-0.4,0-0.7-0.5-0.7-1.1s0.3-1.1,0.7-1.1c0.4,0,0.7,0.5,0.7,1.1
		S259.7,362.9,259.3,362.9z M259.3,348.6c-0.4,0-0.7-0.5-0.7-1.1s0.3-1.1,0.7-1.1c0.4,0,0.7,0.5,0.7,1.1S259.7,348.6,259.3,348.6z
		 M259.3,334.2c-1.1-0.4-1.2-1.5-0.2-1.8c0.5-0.2,0.9,0.2,0.9,0.9S259.7,334.3,259.3,334.2z M259.3,319.8c-1.1-0.4-1.2-1.5-0.2-1.8
		c0.5-0.2,0.9,0.2,0.9,0.9C260,319.5,259.7,320,259.3,319.8z M259.3,305.5c-1.1-0.4-1.2-1.5-0.2-1.8c0.5-0.2,0.9,0.2,0.9,0.9
		C260,305.2,259.7,305.7,259.3,305.5z M260.1,290.9c-1.2,0.7-2.5-0.3-1.6-1.3c0.6-0.6,1-0.6,1.6,0S260.7,290.6,260.1,290.9z
		 M260.1,276.6c-1.2,0.7-2.5-0.3-1.6-1.3c0.6-0.6,1-0.6,1.6,0C260.7,275.9,260.7,276.3,260.1,276.6z M260.1,262.3
		c-1.2,0.7-2.5-0.3-1.6-1.3c0.6-0.6,1-0.6,1.6,0S260.7,262,260.1,262.3z M260.1,248c-1.2,0.7-2.5-0.3-1.6-1.3c0.6-0.6,1-0.6,1.6,0
		C260.7,247.3,260.7,247.7,260.1,248z M260.1,233.7c-1.2,0.7-2.5-0.3-1.6-1.3c0.6-0.6,1-0.6,1.6,0
		C260.7,233,260.7,233.3,260.1,233.7z M260.1,219.4c-1.2,0.7-2.5-0.3-1.6-1.3c0.6-0.6,1-0.6,1.6,0S260.7,219,260.1,219.4z
		 M259.8,205.2c-1.6,0.6-2.4-0.2-1.3-1.3l0.8-0.8l0.8,0.8l0.8,0.8L259.8,205.2z M259.8,190.9c-1.6,0.6-2.4-0.2-1.3-1.3l0.8-0.8
		l0.8,0.8l0.8,0.8L259.8,190.9z M259.8,176.5c-1.6,0.6-2.4-0.2-1.3-1.3l0.8-0.8l0.8,0.8l0.8,0.8L259.8,176.5z M259.8,162.2
		c-1.6,0.6-2.4-0.2-1.3-1.3l0.8-0.8l0.8,0.8l0.8,0.8L259.8,162.2z M258.1,147.3c0.2-0.5,0.7-0.9,1.3-0.9c0.5,0,1.1,0.4,1.3,0.9
		c0.2,0.5-0.3,0.9-1.3,0.9S257.9,147.9,258.1,147.3z M258.1,133c0.2-0.5,0.7-0.9,1.3-0.9c0.5,0,1.1,0.4,1.3,0.9
		c0.2,0.5-0.3,0.9-1.3,0.9S257.9,133.5,258.1,133z M259.8,119.3c-1.6,0.6-2.4-0.2-1.3-1.3l0.8-0.8l0.8,0.8l0.8,0.8L259.8,119.3z
		 M265.5,125.3c0.5-0.5,1.2-0.6,1.6-0.3c0.9,0.6,1,1.6,0.2,2.1c-0.3,0.2-1,0.1-1.6-0.3l-1-0.6L265.5,125.3z M266.5,169.7
		c-0.9,0-1.4-0.4-1.3-0.9c0.2-0.5,0.7-0.9,1.3-0.9c0.5,0,1.1,0.4,1.3,0.9C267.9,169.3,267.4,169.7,266.5,169.7z M266.5,184
		c-0.9,0-1.4-0.4-1.3-0.9c0.2-0.5,0.7-0.9,1.3-0.9c0.5,0,1.1,0.4,1.3,0.9C267.9,183.6,267.4,184,266.5,184z M266.5,155.4
		c-0.9,0-1.4-0.4-1.3-0.9c0.2-0.5,0.7-0.9,1.3-0.9c0.5,0,1.1,0.4,1.3,0.9C267.9,155,267.4,155.4,266.5,155.4z M266.5,141.1
		c-0.9,0-1.4-0.4-1.3-0.9c0.2-0.5,0.7-0.9,1.3-0.9c0.5,0,1.1,0.4,1.3,0.9C267.9,140.7,267.4,141.1,266.5,141.1z M266.3,368.1
		c0.5-0.2,0.9,0.2,0.9,0.9c0,0.7-0.3,1.1-0.7,1C265.4,369.6,265.3,368.4,266.3,368.1z M266.3,353.8c0.5-0.2,0.9,0.2,0.9,0.9
		c0,0.7-0.3,1.1-0.7,1C265.4,355.3,265.3,354.1,266.3,353.8z M267.2,383.3c0,0.6-0.3,1.1-0.7,1.1c-0.4,0-0.7-0.5-0.7-1.1
		s0.3-1.1,0.7-1.1C266.9,382.2,267.2,382.7,267.2,383.3z M266.5,470.3c-0.4,0-0.7-0.5-0.7-1.1s0.3-0.9,0.7-0.7
		c0.4,0.2,0.7,0.7,0.7,1.1C267.2,469.9,266.9,470.3,266.5,470.3z M266.5,455.9c-0.4,0-0.7-0.5-0.7-1.1s0.3-0.9,0.7-0.7
		c0.4,0.2,0.7,0.7,0.7,1.1S266.9,455.9,266.5,455.9z M266.5,441.6c-0.4,0-0.7-0.5-0.7-1.1s0.3-1.1,0.7-1.1c0.4,0,0.7,0.5,0.7,1.1
		S266.9,441.6,266.5,441.6z M266.5,427.3c-0.4,0-0.7-0.5-0.7-1.1s0.3-1.1,0.7-1.1c0.4,0,0.7,0.5,0.7,1.1S266.9,427.3,266.5,427.3z
		 M266.5,413c-0.4,0-0.7-0.5-0.7-1.1s0.3-1.1,0.7-1.1c0.4,0,0.7,0.5,0.7,1.1S266.9,413,266.5,413z M267.4,398.2
		c-0.8,0.8-1.7,0.5-1.7-0.6c0-0.6,0.3-1.1,0.7-1.1C267.3,396.5,268,397.7,267.4,398.2z M267.2,341c-1.2,0.7-2.5-0.3-1.6-1.3
		c0.6-0.6,1-0.6,1.6,0C267.8,340.3,267.8,340.7,267.2,341z M267.2,326.7c-1.2,0.7-2.5-0.3-1.6-1.3c0.6-0.6,1-0.6,1.6,0
		C267.8,326,267.8,326.4,267.2,326.7z M267.2,312.4c-1.2,0.7-2.5-0.3-1.6-1.3c0.6-0.6,1-0.6,1.6,0
		C267.8,311.7,267.8,312.1,267.2,312.4z M267.2,298.1c-1.2,0.7-2.5-0.3-1.6-1.3c0.6-0.6,1-0.6,1.6,0
		C267.8,297.4,267.8,297.8,267.2,298.1z M267.2,283.8c-1.2,0.7-2.5-0.3-1.6-1.3c0.6-0.6,1-0.6,1.6,0
		C267.8,283.1,267.8,283.4,267.2,283.8z M267.2,269.5c-1.2,0.7-2.5-0.3-1.6-1.3c0.6-0.6,1-0.6,1.6,0
		C267.8,268.8,267.8,269.1,267.2,269.5z M266.9,255.3c-1.6,0.6-2.4-0.2-1.3-1.3l0.8-0.8l0.8,0.8l0.8,0.8L266.9,255.3z M265.2,240.4
		c0.2-0.5,0.7-0.9,1.3-0.9c0.5,0,1.1,0.4,1.3,0.9c0.2,0.5-0.3,0.9-1.3,0.9C265.5,241.2,265,240.9,265.2,240.4z M266.9,226.6
		c-1.6,0.6-2.4-0.2-1.3-1.3l0.8-0.8l0.8,0.8l0.8,0.8L266.9,226.6z M265.2,211.7c0.2-0.5,0.7-0.9,1.3-0.9c0.5,0,1.1,0.4,1.3,0.9
		c0.2,0.5-0.3,0.9-1.3,0.9S265,212.3,265.2,211.7z M266.9,198c-1.6,0.6-2.4-0.2-1.3-1.3l0.8-0.8l0.8,0.8l0.8,0.8L266.9,198z
		 M272.7,189.7c0.5-0.5,1.2-0.6,1.6-0.3c0.9,0.6,1,1.6,0.2,2.1c-0.3,0.2-1,0.1-1.6-0.3l-1-0.6L272.7,189.7z M273.6,234.1
		c-0.9,0-1.4-0.4-1.3-0.9c0.2-0.5,0.7-0.9,1.3-0.9c0.5,0,1.1,0.4,1.3,0.9C275.1,233.7,274.5,234.1,273.6,234.1z M273.6,248.4
		c-0.9,0-1.4-0.4-1.3-0.9c0.2-0.5,0.7-0.9,1.3-0.9c0.5,0,1.1,0.4,1.3,0.9C275.1,248,274.5,248.4,273.6,248.4z M273.6,219.8
		c-0.9,0-1.4-0.4-1.3-0.9c0.2-0.5,0.7-0.9,1.3-0.9c0.5,0,1.1,0.4,1.3,0.9C275.1,219.4,274.5,219.8,273.6,219.8z M273.6,205.5
		c-0.9,0-1.4-0.4-1.3-0.9c0.2-0.5,0.7-0.9,1.3-0.9c0.5,0,1.1,0.4,1.3,0.9C275.1,205.1,274.5,205.5,273.6,205.5z M273.6,463.1
		c-0.4,0-0.7-0.5-0.7-1.1s0.3-1.1,0.7-1.1c0.4,0,0.7,0.5,0.7,1.1C274.3,462.6,274,463.1,273.6,463.1z M273.6,448.8
		c-0.4,0-0.7-0.5-0.7-1.1s0.3-1.1,0.7-1.1c0.4,0,0.7,0.5,0.7,1.1C274.3,448.3,274,448.8,273.6,448.8z M273.6,434.5
		c-0.4,0-0.7-0.5-0.7-1.1s0.3-1.1,0.7-1.1c0.4,0,0.7,0.5,0.7,1.1C274.3,434,274,434.5,273.6,434.5z M273.6,420
		c-1.1-0.4-1.2-1.5-0.2-1.8c0.5-0.2,0.9,0.2,0.9,0.9C274.3,419.7,274,420.2,273.6,420z M273.6,405.7c-1.1-0.4-1.2-1.5-0.2-1.8
		c0.5-0.2,0.9,0.2,0.9,0.9C274.3,405.4,274,405.9,273.6,405.7z M274.4,391.1c-1.2,0.7-2.5-0.3-1.6-1.3c0.6-0.6,1-0.6,1.6,0
		C275,390.4,275,390.8,274.4,391.1z M274.4,376.8c-1.2,0.7-2.5-0.3-1.6-1.3c0.6-0.6,1-0.6,1.6,0S275,376.5,274.4,376.8z
		 M274.4,362.5c-1.2,0.7-2.5-0.3-1.6-1.3c0.6-0.6,1-0.6,1.6,0C275,361.8,275,362.2,274.4,362.5z M274.4,348.2
		c-1.2,0.7-2.5-0.3-1.6-1.3c0.6-0.6,1-0.6,1.6,0C275,347.5,275,347.8,274.4,348.2z M274.4,333.9c-1.2,0.7-2.5-0.3-1.6-1.3
		c0.6-0.6,1-0.6,1.6,0S275,333.5,274.4,333.9z M274.4,319.6c-1.2,0.7-2.5-0.3-1.6-1.3c0.6-0.6,1-0.6,1.6,0
		C275,318.9,275,319.2,274.4,319.6z M274.1,305.4c-1.6,0.6-2.4-0.2-1.3-1.3l0.8-0.8l0.8,0.8l0.8,0.8L274.1,305.4z M274.1,291
		c-1.6,0.6-2.4-0.2-1.3-1.3l0.8-0.8l0.8,0.8l0.8,0.8L274.1,291z M274.1,276.7c-1.6,0.6-2.4-0.2-1.3-1.3l0.8-0.8l0.8,0.8l0.8,0.8
		L274.1,276.7z M274.1,262.4c-1.6,0.6-2.4-0.2-1.3-1.3l0.8-0.8l0.8,0.8l0.8,0.8L274.1,262.4z M279.8,239.8c0.5-0.5,1.2-0.6,1.6-0.3
		c0.9,0.6,1,1.6,0.2,2.1c-0.3,0.2-1,0.1-1.6-0.3l-1-0.6L279.8,239.8z M280.8,269.9c-0.9,0-1.4-0.4-1.3-0.9c0.2-0.5,0.7-0.9,1.3-0.9
		c0.5,0,1.1,0.4,1.3,0.9C282.2,269.5,281.7,269.9,280.8,269.9z M280.8,284.2c-0.9,0-1.4-0.4-1.3-0.9c0.2-0.5,0.7-0.9,1.3-0.9
		c0.5,0,1.1,0.4,1.3,0.9C282.2,283.8,281.7,284.2,280.8,284.2z M280.8,255.6c-0.9,0-1.4-0.4-1.3-0.9c0.2-0.5,0.7-0.9,1.3-0.9
		c0.5,0,1.1,0.4,1.3,0.9C282.2,255.2,281.7,255.6,280.8,255.6z M280.8,470.1c-1.1-0.4-1.2-1.5-0.2-1.8c0.5-0.2,0.9,0.2,0.9,0.9
		C281.5,469.8,281.2,470.3,280.8,470.1z M281.6,455.5c-1.2,0.7-2.5-0.3-1.6-1.3c0.6-0.6,1-0.6,1.6,0
		C282.1,454.8,282.1,455.2,281.6,455.5z M281.6,441.2c-1.2,0.7-2.5-0.3-1.6-1.3c0.6-0.6,1-0.6,1.6,0
		C282.1,440.5,282.1,440.9,281.6,441.2z M281.6,426.9c-1.2,0.7-2.5-0.3-1.6-1.3c0.6-0.6,1-0.6,1.6,0
		C282.1,426.2,282.1,426.6,281.6,426.9z M281.6,412.6c-1.2,0.7-2.5-0.3-1.6-1.3c0.6-0.6,1-0.6,1.6,0
		C282.1,411.9,282.1,412.3,281.6,412.6z M281.6,398.3c-1.2,0.7-2.5-0.3-1.6-1.3c0.6-0.6,1-0.6,1.6,0
		C282.1,397.6,282.1,397.9,281.6,398.3z M281.6,384c-1.2,0.7-2.5-0.3-1.6-1.3c0.6-0.6,1-0.6,1.6,0
		C282.1,383.3,282.1,383.6,281.6,384z M281.6,369.7c-1.2,0.7-2.5-0.3-1.6-1.3c0.6-0.6,1-0.6,1.6,0
		C282.1,369,282.1,369.3,281.6,369.7z M280.8,355.7c-0.9,0-1.4-0.4-1.3-0.9c0.2-0.5,0.7-0.9,1.3-0.9c0.5,0,1.1,0.4,1.3,0.9
		C282.2,355.4,281.7,355.7,280.8,355.7z M281.2,341.1c-1.6,0.6-2.4-0.2-1.3-1.3l0.8-0.8l0.8,0.8l0.8,0.8L281.2,341.1z M281.2,326.8
		c-1.6,0.6-2.4-0.2-1.3-1.3l0.8-0.8l0.8,0.8l0.8,0.8L281.2,326.8z M281.2,312.5c-1.6,0.6-2.4-0.2-1.3-1.3l0.8-0.8l0.8,0.8l0.8,0.8
		L281.2,312.5z M281.2,298.2c-1.6,0.6-2.4-0.2-1.3-1.3l0.8-0.8l0.8,0.8l0.8,0.8L281.2,298.2z M287,304.2c0.5-0.5,1.2-0.6,1.6-0.3
		c0.9,0.6,1,1.6,0.2,2.1c-0.3,0.2-1,0.1-1.6-0.3l-1-0.6L287,304.2z M287.9,320c-0.9,0-1.4-0.4-1.3-0.9c0.2-0.5,0.7-0.9,1.3-0.9
		c0.5,0,1.1,0.4,1.3,0.9C289.4,319.6,288.9,320,287.9,320z M287.9,334.3c-0.9,0-1.4-0.4-1.3-0.9c0.2-0.5,0.7-0.9,1.3-0.9
		c0.5,0,1.1,0.4,1.3,0.9C289.4,333.9,288.9,334.3,287.9,334.3z M288.4,462.8c-1.6,0.6-2.4-0.2-1.3-1.3l0.8-0.8l0.8,0.8l0.8,0.8
		L288.4,462.8z M287.2,447.1c0.6-0.6,1-0.6,1.6,0s0.6,0.9,0,1.3C287.5,449.1,286.2,448.1,287.2,447.1z M287.2,432.8
		c0.6-0.6,1-0.6,1.6,0s0.6,0.9,0,1.3C287.5,434.8,286.2,433.8,287.2,432.8z M288.4,419.9c-1.6,0.6-2.4-0.2-1.3-1.3l0.8-0.8l0.8,0.8
		l0.8,0.8L288.4,419.9z M288.4,405.6c-1.6,0.6-2.4-0.2-1.3-1.3l0.8-0.8l0.8,0.8l0.8,0.8L288.4,405.6z M286.7,390.6
		c0.2-0.5,0.7-0.9,1.3-0.9c0.5,0,1.1,0.4,1.3,0.9c0.2,0.5-0.3,0.9-1.3,0.9S286.5,391.2,286.7,390.6z M288.4,376.9
		c-1.6,0.6-2.4-0.2-1.3-1.3l0.8-0.8l0.8,0.8l0.8,0.8L288.4,376.9z M288.4,362.6c-1.6,0.6-2.4-0.2-1.3-1.3l0.8-0.8l0.8,0.8l0.8,0.8
		L288.4,362.6z M288.4,348.3c-1.6,0.6-2.4-0.2-1.3-1.3l0.8-0.8l0.8,0.8l0.8,0.8L288.4,348.3z M294.1,354.3c0.5-0.5,1.2-0.6,1.6-0.3
		c0.9,0.6,1,1.6,0.2,2.1c-0.3,0.2-1,0.1-1.6-0.3l-1-0.6L294.1,354.3z M295.1,398.7c-0.9,0-1.4-0.4-1.3-0.9c0.2-0.5,0.7-0.9,1.3-0.9
		c0.5,0,1.1,0.4,1.3,0.9C296.5,398.3,296,398.7,295.1,398.7z M295.1,413c-0.9,0-1.4-0.4-1.3-0.9c0.2-0.5,0.7-0.9,1.3-0.9
		c0.5,0,1.1,0.4,1.3,0.9C296.5,412.6,296,413,295.1,413z M295.1,384.4c-0.9,0-1.4-0.4-1.3-0.9c0.2-0.5,0.7-0.9,1.3-0.9
		c0.5,0,1.1,0.4,1.3,0.9C296.5,384,296,384.4,295.1,384.4z M295.1,370.1c-0.9,0-1.4-0.4-1.3-0.9c0.2-0.5,0.7-0.9,1.3-0.9
		c0.5,0,1.1,0.4,1.3,0.9C296.5,369.7,296,370.1,295.1,370.1z M295.5,470c-1.6,0.6-2.4-0.2-1.3-1.3l0.8-0.8l0.8,0.8l0.8,0.8
		L295.5,470z M295.5,455.6c-1.6,0.6-2.4-0.2-1.3-1.3l0.8-0.8l0.8,0.8l0.8,0.8L295.5,455.6z M295.5,441.3c-1.6,0.6-2.4-0.2-1.3-1.3
		l0.8-0.8l0.8,0.8l0.8,0.8L295.5,441.3z M295.5,427c-1.6,0.6-2.4-0.2-1.3-1.3l0.8-0.8l0.8,0.8l0.8,0.8L295.5,427z M302.3,463.1
		c-0.9,0-1.4-0.4-1.3-0.9c0.2-0.5,0.7-0.9,1.3-0.9c0.5,0,1.1,0.4,1.3,0.9C303.7,462.7,303.2,463.1,302.3,463.1z M302.3,448.8
		c-0.9,0-1.4-0.4-1.3-0.9c0.2-0.5,0.7-0.9,1.3-0.9c0.5,0,1.1,0.4,1.3,0.9C303.7,448.4,303.2,448.8,302.3,448.8z M302.3,434.5
		c-0.9,0-1.4-0.4-1.3-0.9c0.2-0.5,0.7-0.9,1.3-0.9c0.5,0,1.1,0.4,1.3,0.9C303.7,434.1,303.2,434.5,302.3,434.5z M303.1,420.4
		c-0.3,0.2-1,0.1-1.6-0.3l-1-0.6l0.8-0.8c0.5-0.5,1.2-0.6,1.6-0.3C303.8,418.9,303.9,419.9,303.1,420.4z M303.1,406.1
		c-0.3,0.2-1,0.1-1.6-0.3l-1-0.6l0.8-0.8c0.5-0.5,1.2-0.6,1.6-0.3C303.8,404.6,303.9,405.6,303.1,406.1z M303.1,391.8
		c-0.3,0.2-1,0.1-1.6-0.3l-1-0.6l0.8-0.8c0.5-0.5,1.2-0.6,1.6-0.3C303.8,390.3,303.9,391.3,303.1,391.8z M303.1,377.5
		c-0.3,0.2-1,0.1-1.6-0.3l-1-0.6l0.8-0.8c0.5-0.5,1.2-0.6,1.6-0.3C303.8,376,303.9,377,303.1,377.5z M302.9,363.3
		c-1.2,0.7-2.6-0.9-1.6-1.9c0.8-0.8,2.4-0.3,2.4,0.8C303.7,362.5,303.3,363,302.9,363.3z M302.9,349c-1.2,0.7-2.6-0.9-1.6-1.9
		c0.8-0.8,2.4-0.3,2.4,0.8C303.7,348.2,303.3,348.7,302.9,349z M302.9,334.7L302.9,334.7c-1.2,0.7-2.6-0.9-1.6-1.9
		c0.8-0.8,2.4-0.3,2.4,0.8C303.7,333.9,303.3,334.4,302.9,334.7z M302.9,320.4c-1.2,0.7-2.6-0.9-1.6-1.9c0.8-0.8,2.4-0.3,2.4,0.8
		C303.7,319.6,303.3,320.1,302.9,320.4z M303,263.1c-1,0.6-2.1-0.2-2.1-1.5c0-0.6,0.6-1,1.4-1C303.7,260.6,304.2,262.3,303,263.1z
		 M303,248.8c-1,0.6-2.1-0.2-2.1-1.5c0-0.6,0.6-1,1.4-1C303.7,246.3,304.2,248,303,248.8z M303.2,234.3c-1,1-2.4,0.4-2.4-1
		c0-1,0.5-1.4,1.4-1.4C303.6,231.9,304.2,233.3,303.2,234.3z M303.2,220c-1,1-2.4,0.4-2.4-1c0-1,0.5-1.4,1.4-1.4
		C303.6,217.6,304.2,219,303.2,220z M303.2,162.8c-1,1-2.4,0.4-2.4-1c0-1,0.5-1.4,1.4-1.4C303.6,160.4,304.2,161.8,303.2,162.8z
		 M310.3,470.5c-0.3,0.2-1,0.1-1.6-0.3l-1-0.6l0.8-0.8c0.5-0.5,1.2-0.6,1.6-0.3C311,469,311.1,470,310.3,470.5z M310.3,456.2
		c-0.3,0.2-1,0.1-1.6-0.3l-1-0.6l0.8-0.8c0.5-0.5,1.2-0.6,1.6-0.3C311,454.7,311.1,455.7,310.3,456.2z M310.3,441.9
		c-0.3,0.2-1,0.1-1.6-0.3l-1-0.6l0.8-0.8c0.5-0.5,1.2-0.6,1.6-0.3C311,440.4,311.1,441.4,310.3,441.9z M310.1,427.7
		c-1.2,0.7-2.6-0.9-1.6-1.9c0.8-0.8,2.4-0.3,2.4,0.8C310.8,426.9,310.5,427.4,310.1,427.7z M310.1,413.4c-1.2,0.7-2.6-0.9-1.6-1.9
		c0.8-0.8,2.4-0.3,2.4,0.8C310.8,412.6,310.5,413.1,310.1,413.4z M310.1,356.1c-1.2,0.7-2.6-0.9-1.6-1.9c0.8-0.8,2.4-0.3,2.4,0.8
		C310.8,355.4,310.5,355.9,310.1,356.1z M308,340.3c0-0.6,0.5-1,1.2-0.9c1.4,0.3,2,1.7,1,2.4C309.1,342.4,308,341.6,308,340.3z
		 M310.1,327.5c-1,0.6-2.1-0.2-2.1-1.5c0-0.6,0.6-1,1.4-1C310.9,325,311.4,326.7,310.1,327.5z M310.1,313.2c-1,0.6-2.1-0.2-2.1-1.5
		c0-0.6,0.6-1,1.4-1C310.9,310.7,311.4,312.4,310.1,313.2z M308,297.3c0-0.6,0.5-1,1.2-0.9c1.4,0.3,2,1.7,1,2.4
		C309.1,299.5,308,298.7,308,297.3z M310.4,284.4c-1,1-2.4,0.4-2.4-1c0-1,0.5-1.4,1.4-1.4C310.8,282,311.4,283.4,310.4,284.4z
		 M309.4,267.7c1,0,1.5,0.5,1.5,1.5s-0.4,1.4-1.2,1.2C307.7,270.1,307.5,267.7,309.4,267.7z M310.4,255.8c-1,1-2.4,0.4-2.4-1
		c0-1,0.5-1.4,1.4-1.4C310.8,253.4,311.4,254.8,310.4,255.8z M309.8,153c1.6,0.6,1.2,3.1-0.4,3.1c-0.9,0-1.4-0.5-1.4-1.3
		C308,153.1,308.6,152.5,309.8,153z M308,140.5c0-1.7,0.6-2.3,1.9-1.8c1.6,0.6,1.2,3.1-0.4,3.1C308.5,141.8,308,141.3,308,140.5z
		 M309.8,167.3c1.6,0.6,1.2,3.1-0.4,3.1c-0.9,0-1.4-0.5-1.4-1.3C308,167.4,308.6,166.8,309.8,167.3z M309.4,181.8
		c1,0,1.4,0.5,1.4,1.4s-0.5,1.4-1.4,1.4c-1,0-1.4-0.5-1.4-1.4S308.5,181.8,309.4,181.8z M309.4,196.2c1,0,1.4,0.5,1.4,1.4
		s-0.5,1.4-1.4,1.4c-1,0-1.4-0.5-1.4-1.4S308.5,196.2,309.4,196.2z M309.4,210.5c1,0,1.4,0.5,1.4,1.4c0,1-0.5,1.4-1.4,1.4
		c-1,0-1.4-0.5-1.4-1.4S308.5,210.5,309.4,210.5z M309.4,224.8c1,0,1.4,0.5,1.4,1.4c0,1-0.5,1.4-1.4,1.4c-1,0-1.4-0.5-1.4-1.4
		S308.5,224.8,309.4,224.8z M309.4,239.1c1,0,1.4,0.5,1.4,1.4c0,1-0.5,1.4-1.4,1.4c-1,0-1.4-0.5-1.4-1.4S308.5,239.1,309.4,239.1z
		 M309.4,127.5h-1.5l0.2-1.6c0.1-0.9,0.7-1.6,1.3-1.6c0.6,0,1.2,0.7,1.3,1.6l0.2,1.6H309.4z M317.2,463.5c-1.2,0.7-2.6-0.9-1.6-1.9
		c0.8-0.8,2.4-0.3,2.4,0.8C318,462.7,317.7,463.2,317.2,463.5z M315.1,433.3c0-0.6,0.5-1,1.2-0.9c1.4,0.3,2,1.7,1,2.4
		C316.3,435.4,315.1,434.6,315.1,433.3z M317.2,449.2c-1.2,0.7-2.6-0.9-1.6-1.9c0.8-0.8,2.4-0.3,2.4,0.8
		C318,448.4,317.7,448.9,317.2,449.2z M317.3,420.5c-1,0.6-2.1-0.2-2.1-1.5c0-0.6,0.6-1,1.4-1C318.1,418,318.5,419.7,317.3,420.5z
		 M315.1,404.7c0-0.6,0.5-1,1.2-0.9c1.4,0.3,2,1.7,1,2.4C316.3,406.8,315.1,406,315.1,404.7z M317.3,391.9c-1,0.6-2.1-0.2-2.1-1.5
		c0-0.6,0.6-1,1.4-1C318.1,389.4,318.5,391.1,317.3,391.9z M317.3,377.6c-1,0.6-2.1-0.2-2.1-1.5c0-0.6,0.6-1,1.4-1
		C318.1,375.1,318.5,376.8,317.3,377.6z M317.3,363.3c-1,0.6-2.1-0.2-2.1-1.5c0-0.6,0.6-1,1.4-1
		C318.1,360.8,318.5,362.5,317.3,363.3z M317.5,348.8c-1,1-2.4,0.4-2.4-1c0-1,0.5-1.4,1.4-1.4C317.9,346.4,318.5,347.8,317.5,348.8z
		 M316.6,317.8c1,0,1.4,0.5,1.4,1.4c0,1-0.5,1.4-1.4,1.4c-1,0-1.4-0.5-1.4-1.4C315.1,318.3,315.6,317.8,316.6,317.8z M315.1,304.9
		c0-1,0.5-1.4,1.4-1.4c1,0,1.4,0.5,1.4,1.4c0,1-0.5,1.4-1.4,1.4C315.6,306.4,315.1,305.9,315.1,304.9z M316.6,332.1
		c1,0,1.4,0.5,1.4,1.4c0,1-0.5,1.4-1.4,1.4c-1,0-1.4-0.5-1.4-1.4C315.1,332.6,315.6,332.1,316.6,332.1z M317.5,291.6
		c-1,1-2.4,0.4-2.4-1c0-1,0.5-1.4,1.4-1.4C317.9,289.2,318.5,290.6,317.5,291.6z M317,231.7c1.6,0.6,1.2,3.1-0.4,3.1
		c-0.9,0-1.4-0.5-1.4-1.3C315.1,231.8,315.7,231.2,317,231.7z M315.1,219.2c0-1.7,0.6-2.3,1.9-1.8c1.6,0.6,1.2,3.1-0.4,3.1
		C315.7,220.5,315.1,220,315.1,219.2z M316.6,246.3c1,0,1.4,0.5,1.4,1.4c0,1-0.5,1.4-1.4,1.4c-1,0-1.4-0.5-1.4-1.4
		C315.1,246.7,315.6,246.3,316.6,246.3z M316.6,260.6c1,0,1.4,0.5,1.4,1.4c0,1-0.5,1.4-1.4,1.4c-1,0-1.4-0.5-1.4-1.4
		C315.1,261,315.6,260.6,316.6,260.6z M316.6,274.9c1,0,1.4,0.5,1.4,1.4c0,1-0.5,1.4-1.4,1.4c-1,0-1.4-0.5-1.4-1.4
		C315.1,275.4,315.6,274.9,316.6,274.9z M316.6,206.2H315l0.2-1.6c0.1-0.9,0.7-1.6,1.3-1.6c0.6,0,1.2,0.7,1.3,1.6l0.2,1.6H316.6z
		 M316.6,191.9H315l0.2-1.6c0.1-0.9,0.7-1.6,1.3-1.6c0.6,0,1.2,0.7,1.3,1.6l0.2,1.6H316.6z M318.2,176.7c-0.5,1.2-2.8,1.1-3.3-0.1
		c-0.2-0.6,0.1-1.4,0.7-1.9l1.1-0.9l1,1C318.1,175.3,318.4,176.2,318.2,176.7z M318.2,162.3c-0.5,1.2-2.8,1.1-3.3-0.1
		c-0.2-0.6,0.1-1.4,0.7-1.9l1.1-0.9l1,1C318.1,161,318.4,161.9,318.2,162.3z M318.2,148c-0.5,1.2-2.8,1.1-3.3-0.1
		c-0.2-0.6,0.1-1.4,0.7-1.9l1.1-0.9l1,1C318.1,146.7,318.4,147.5,318.2,148z M318.2,133.7c-0.5,1.2-2.8,1.1-3.3-0.1
		c-0.2-0.6,0.1-1.4,0.7-1.9l1.1-0.9l1,1C318.1,132.4,318.4,133.2,318.2,133.7z M322.5,139.1l1.1-1.1l1.1,0.9c1.2,1,1.4,1.7,0.6,2.4
		c-0.8,0.8-3,0.6-3.5-0.3C321.6,140.6,321.9,139.7,322.5,139.1z M322.7,181.8l1.1-0.9l1,1c0.5,0.6,0.8,1.4,0.6,1.9
		c-0.5,1.2-2.8,1.1-3.3-0.1C321.8,183.1,322.1,182.3,322.7,181.8z M322.7,167.5l1.1-0.9l1,1c0.5,0.6,0.8,1.4,0.6,1.9
		c-0.5,1.2-2.8,1.1-3.3-0.1C321.8,168.8,322.1,168,322.7,167.5z M322.7,196.1l1.1-0.9l1,1c0.5,0.6,0.8,1.4,0.6,1.9
		c-0.5,1.2-2.8,1.1-3.3-0.1C321.8,197.4,322.1,196.6,322.7,196.1z M322.7,210.4l1.1-0.9l1,1c0.5,0.6,0.8,1.4,0.6,1.9
		c-0.5,1.2-2.8,1.1-3.3-0.1C321.8,211.8,322.1,210.9,322.7,210.4z M322.7,224.7l1.1-0.9l1,1c0.5,0.6,0.8,1.4,0.6,1.9
		c-0.5,1.2-2.8,1.1-3.3-0.1C321.8,226.1,322.1,225.2,322.7,224.7z M322.7,253.4c1.3-1.1,2.5-0.3,2.5,1.5c0,0.9-0.5,1.4-1.4,1.4
		C322.1,256.3,321.4,254.5,322.7,253.4z M324.5,470.6c-1,0.6-2.2-0.2-2.2-1.5c0-0.6,0.5-1,1.2-0.9
		C324.9,468.5,325.5,469.9,324.5,470.6z M324.5,456.3c-1,0.6-2.2-0.2-2.2-1.5c0-0.6,0.5-1,1.2-0.9
		C324.9,454.2,325.5,455.6,324.5,456.3z M324.4,442c-1,0.6-2.1-0.2-2.1-1.5c0-0.6,0.6-1,1.4-1C325.2,439.5,325.7,441.2,324.4,442z
		 M324.4,427.7c-1,0.6-2.1-0.2-2.1-1.5c0-0.6,0.6-1,1.4-1C325.2,425.2,325.7,426.9,324.4,427.7z M324.4,413.4
		c-1,0.6-2.1-0.2-2.1-1.5c0-0.6,0.6-1,1.4-1C325.2,410.9,325.7,412.6,324.4,413.4z M324.4,399c-1,0.6-2.1-0.2-2.1-1.5
		c0-0.6,0.6-1,1.4-1C325.2,396.5,325.7,398.3,324.4,399z M324.7,384.6c-1,1-2.4,0.4-2.4-1c0-1,0.5-1.4,1.4-1.4
		C325.1,382.2,325.7,383.6,324.7,384.6z M324.7,370.3c-1,1-2.4,0.4-2.4-1c0-1,0.5-1.4,1.4-1.4C325.1,367.9,325.7,369.3,324.7,370.3z
		 M323.7,296.4c1,0,1.4,0.5,1.4,1.4c0,1-0.5,1.4-1.4,1.4c-1,0-1.4-0.5-1.4-1.4C322.3,296.8,322.8,296.4,323.7,296.4z M322.3,283.6
		c0-1.7,0.6-2.3,1.9-1.8c1.6,0.6,1.2,3.1-0.4,3.1C322.8,284.9,322.3,284.4,322.3,283.6z M323.7,310.7c1,0,1.4,0.5,1.4,1.4
		c0,1-0.5,1.4-1.4,1.4c-1,0-1.4-0.5-1.4-1.4C322.3,311.1,322.8,310.7,323.7,310.7z M323.7,325c1,0,1.4,0.5,1.4,1.4
		c0,1-0.5,1.4-1.4,1.4c-1,0-1.4-0.5-1.4-1.4C322.3,325.5,322.8,325,323.7,325z M323.7,339.3c1,0,1.4,0.5,1.4,1.4
		c0,1-0.5,1.4-1.4,1.4c-1,0-1.4-0.5-1.4-1.4C322.3,339.8,322.8,339.3,323.7,339.3z M323.7,353.6c1,0,1.4,0.5,1.4,1.4
		c0,1-0.5,1.4-1.4,1.4c-1,0-1.4-0.5-1.4-1.4C322.3,354.1,322.8,353.6,323.7,353.6z M323.7,270.6h-1.5l0.2-1.6
		c0.1-0.9,0.7-1.6,1.3-1.6c0.6,0,1.2,0.7,1.3,1.6l0.2,1.6H323.7z M325.4,241.1c-0.5,1.5-3.1,1.1-3.1-0.5c0-0.8,0.4-1.6,0.8-1.9
		C324.1,238.1,325.8,239.9,325.4,241.1z M325.4,155.6c-0.8,0.8-2.9,0.5-3.3-0.5c-0.2-0.6,0.1-1.4,0.6-1.9l1-0.9l1.1,0.9
		C326,154.2,326.1,154.9,325.4,155.6z M329.9,289.1l1.1-0.9l1,1c0.5,0.6,0.8,1.4,0.6,1.9c-0.5,1.2-2.8,1.1-3.3-0.1
		C329,290.5,329.3,289.6,329.9,289.1z M329.9,246.2l1.1-0.9l1,1c0.5,0.6,0.8,1.4,0.6,1.9c-0.5,1.2-2.8,1.1-3.3-0.1
		C329,247.5,329.3,246.7,329.9,246.2z M329.9,231.9l1.1-0.9l1,1c0.5,0.6,0.8,1.4,0.6,1.9c-0.5,1.2-2.8,1.1-3.3-0.1
		C329,233.2,329.3,232.4,329.9,231.9z M329.9,260.5l1.1-0.9l1,1c0.5,0.6,0.8,1.4,0.6,1.9c-0.5,1.2-2.8,1.1-3.3-0.1
		C329,261.8,329.3,261,329.9,260.5z M329.9,274.8l1.1-0.9l1,1c0.5,0.6,0.8,1.4,0.6,1.9c-0.5,1.2-2.8,1.1-3.3-0.1
		C329,276.2,329.3,275.3,329.9,274.8z M331.8,463.3c-1,1-2.4,0.4-2.4-1c0-1,0.5-1.4,1.4-1.4C332.3,460.9,332.8,462.3,331.8,463.3z
		 M330.9,360.8c1,0,1.4,0.5,1.4,1.4c0,1-0.5,1.4-1.4,1.4c-1,0-1.4-0.5-1.4-1.4C329.5,361.2,329.9,360.8,330.9,360.8z M329.5,348
		c0-1.7,0.6-2.3,1.9-1.8c1.6,0.6,1.2,3.1-0.4,3.1C330,349.3,329.5,348.8,329.5,348z M330.9,375.1c1,0,1.4,0.5,1.4,1.4
		c0,1-0.5,1.4-1.4,1.4c-1,0-1.4-0.5-1.4-1.4C329.5,375.5,329.9,375.1,330.9,375.1z M330.9,389.4c1,0,1.4,0.5,1.4,1.4
		c0,1-0.5,1.4-1.4,1.4c-1,0-1.4-0.5-1.4-1.4S329.9,389.4,330.9,389.4z M330.9,403.7c1,0,1.4,0.5,1.4,1.4c0,1-0.5,1.4-1.4,1.4
		c-1,0-1.4-0.5-1.4-1.4S329.9,403.7,330.9,403.7z M330.9,418c1,0,1.4,0.5,1.4,1.4c0,1-0.5,1.4-1.4,1.4c-1,0-1.4-0.5-1.4-1.4
		S329.9,418,330.9,418z M331.1,435c-1.9-0.4-2.1-2.7-0.2-2.7c1,0,1.5,0.5,1.5,1.5C332.3,434.8,331.9,435.2,331.1,435z M332.3,448.1
		c0,1-0.4,1.4-1.2,1.2c-1.9-0.4-2.1-2.7-0.2-2.7C331.9,446.6,332.3,447.1,332.3,448.1z M330.9,335h-1.5l0.2-1.6
		c0.1-0.9,0.7-1.6,1.3-1.6c0.6,0,1.2,0.7,1.3,1.6l0.2,1.6H330.9z M330.9,320.7h-1.5l0.2-1.6c0.1-0.9,0.7-1.6,1.3-1.6
		c0.6,0,1.2,0.7,1.3,1.6l0.2,1.6H330.9z M332.5,305.5c-0.5,1.5-3.1,1.1-3.1-0.5c0-0.8,0.4-1.6,0.8-1.9
		C331.2,302.5,333,304.3,332.5,305.5z M332.6,220c-0.8,0.8-3,0.6-3.5-0.3c-0.3-0.4,0-1.3,0.6-1.9l1.1-1.1l1.1,0.9
		C333.1,218.6,333.3,219.3,332.6,220z M329.7,189.2l1.1-1.1l1.1,0.9c1.2,1,1.4,1.7,0.6,2.4c-0.8,0.8-3,0.6-3.5-0.3
		C328.8,190.7,329.1,189.8,329.7,189.2z M332.6,205.7c-0.8,0.8-2.9,0.5-3.3-0.5c-0.2-0.6,0.1-1.4,0.6-1.9l1-0.9l1.1,0.9
		C333.1,204.3,333.3,205,332.6,205.7z M332.1,177.5c-0.7,0.6-1.3,0.5-2.3-0.2l-1.4-1l1.2-1.2l1.2-1.2l1.1,0.9
		C333.3,175.8,333.3,176.4,332.1,177.5z M332.1,163.1c-0.7,0.6-1.3,0.5-2.3-0.2l-1.4-1l1.2-1.2l1.2-1.2l1.1,0.9
		C333.3,161.5,333.3,162.1,332.1,163.1z M332.1,148.8L332.1,148.8c-0.7,0.6-1.3,0.5-2.3-0.2l-1.4-1l1.2-1.2l1.2-1.2l1.1,0.9
		C333.3,147.2,333.3,147.8,332.1,148.8z M331.9,134.6l-1.1,0.9l-1.2-1.2l-1.2-1.2l1.2-1.2l1.2-1.2l1.1,0.9c0.6,0.5,1.1,1.2,1.1,1.5
		C333,133.5,332.5,134.1,331.9,134.6z M361.5,161.6c0.1,0.8-0.1,1.8-0.5,2l0,0c-1.5,0.9-3.7-0.4-3.5-2
		C357.8,159.4,361.2,159.4,361.5,161.6z M361.5,175.9c0.1,0.8-0.1,1.8-0.5,2l0,0c-1.5,0.9-3.7-0.4-3.5-2
		C357.8,173.7,361.2,173.7,361.5,175.9z M361.5,190.2c0.1,0.8-0.1,1.8-0.5,2l0,0c-1.5,0.9-3.7-0.4-3.5-2
		C357.8,188,361.2,188,361.5,190.2z M361.5,204.5c0.1,0.8-0.1,1.8-0.5,2l0,0c-1.5,0.9-3.7-0.4-3.5-2
		C357.8,202.3,361.2,202.3,361.5,204.5z M357.5,218.8c0.2-1.1,0.7-1.5,2-1.5c2.1,0,3,2.8,1.1,3.5
		C358.8,221.4,357.3,220.4,357.5,218.8z M360.6,320.7l-1.1,0.9l-1.1-1.1c-1.4-1.4-0.7-3.4,1.2-3.4c0.8,0,1.5,0.1,1.5,0.3
		c0,0.2,0.2,0.8,0.4,1.3C361.5,319.3,361.2,320.2,360.6,320.7z M360.6,335l-1.1,0.9l-1.1-1.1c-1.3-1.3-0.6-3.5,1.2-3.5
		c0.7,0,1.4,0.1,1.4,0.3c0,0.2,0.2,0.8,0.4,1.3C361.5,333.6,361.2,334.5,360.6,335z M360.6,306.4l-1.1,0.9l-1.1-1.1
		c-1.4-1.4-0.7-3.4,1.2-3.4c0.8,0,1.5,0.1,1.5,0.3c0,0.2,0.2,0.8,0.4,1.3C361.5,305,361.2,305.9,360.6,306.4z M360.6,292.1l-1.1,0.9
		l-1.1-1.1c-1.4-1.4-0.7-3.4,1.2-3.4c0.8,0,1.5,0.1,1.5,0.3c0,0.2,0.2,0.8,0.4,1.3C361.5,290.7,361.2,291.5,360.6,292.1z
		 M360.6,277.7l-1.1,0.9l-1.1-1.1c-1.5-1.5-0.7-3.6,1.4-3.3C361.6,274.6,362.1,276.5,360.6,277.7z M360.6,263.4l-1.1,0.9l-1.1-1.1
		c-1.5-1.5-0.7-3.6,1.4-3.3C361.6,260.3,362.1,262.1,360.6,263.4z M360.6,249.1l-1.1,0.9l-1.1-1.1c-1.5-1.5-0.7-3.6,1.4-3.3
		C361.6,245.9,362.1,247.8,360.6,249.1z M361,234.7L361,234.7c-1,1.6-3.8,0.3-3.5-1.6c0.2-1.1,0.7-1.5,2-1.5
		C361.4,231.6,362.1,233,361,234.7z M358,346.8c0.8-1,2.9-1.6,2.9-0.8c0,0.2,0.2,0.8,0.4,1.3c0.2,0.6-0.1,1.4-0.8,2l-1.1,0.9
		l-1.2-1.2l-1.2-1.2L358,346.8z M358,361.2c0.8-1,2.9-1.6,2.9-0.8c0,0.2,0.2,0.8,0.4,1.3c0.2,0.6-0.1,1.4-0.8,2l-1.1,0.9l-1.2-1.2
		l-1.2-1.2L358,361.2z M350.3,154.4c0.2-1.1,0.7-1.5,2-1.5c2.1,0,3,2.8,1.1,3.5C351.7,157,350.1,156,350.3,154.4z M353.4,256.3
		l-1.1,0.9l-1.1-1.1c-1.3-1.3-0.6-3.5,1.2-3.5c0.7,0,1.4,0.1,1.4,0.3c0,0.2,0.2,0.8,0.4,1.3C354.4,254.9,354,255.8,353.4,256.3z
		 M353.4,270.6l-1.1,0.9l-1.1-1.1c-1.3-1.3-0.6-3.5,1.2-3.5c0.7,0,1.4,0.1,1.4,0.3c0,0.2,0.2,0.8,0.4,1.3
		C354.4,269.2,354,270.1,353.4,270.6z M353.4,242l-1.1,0.9l-1.1-1.1c-1.3-1.3-0.6-3.5,1.2-3.5c0.7,0,1.4,0.1,1.4,0.3
		c0,0.2,0.2,0.8,0.4,1.3C354.4,240.6,354,241.4,353.4,242z M353.4,227.7l-1.1,0.9l-1.1-1.1c-1.5-1.5-0.7-3.6,1.4-3.3
		C354.5,224.5,355,226.4,353.4,227.7z M353.4,213.3l-1.1,0.9l-1.1-1.1c-1.5-1.5-0.7-3.6,1.4-3.3C354.5,210.2,355,212.1,353.4,213.3z
		 M353.4,199l-1.1,0.9l-1.1-1.1c-1.5-1.5-0.7-3.6,1.4-3.3C354.5,195.9,355,197.7,353.4,199z M353.4,184.7l-1.1,0.9l-1.1-1.1
		c-1.5-1.5-0.7-3.6,1.4-3.3C354.5,181.5,355,183.4,353.4,184.7z M353.4,170.4l-1.1,0.9l-1.1-1.1c-1.5-1.5-0.7-3.6,1.4-3.3
		C354.5,167.2,355,169.1,353.4,170.4z M350.9,282.4c0.8-1,2.9-1.6,2.9-0.8c0,0.2,0.2,0.8,0.4,1.3c0.2,0.6-0.1,1.4-0.8,2l-1.1,0.9
		l-1.2-1.2l-1.2-1.2L350.9,282.4z M345.4,145.5c2,0.3,2.5,2.2,0.9,3.5l-1.1,0.9l-1.1-1.1C342.5,147.2,343.3,145.2,345.4,145.5z
		 M346.3,220.5l-1.1,0.9l-1.1-1.1c-1.3-1.3-0.6-3.5,1.2-3.5c0.7,0,1.4,0.1,1.4,0.3s0.2,0.8,0.4,1.3
		C347.2,219.1,346.9,220,346.3,220.5z M346.3,234.8l-1.1,0.9l-1.1-1.1c-1.3-1.3-0.6-3.5,1.2-3.5c0.7,0,1.4,0.1,1.4,0.3
		c0,0.2,0.2,0.8,0.4,1.3C347.2,233.4,346.9,234.3,346.3,234.8z M346.3,206.2l-1.1,0.9l-1.1-1.1c-1.3-1.3-0.6-3.5,1.2-3.5
		c0.7,0,1.4,0.1,1.4,0.3s0.2,0.8,0.4,1.3C347.2,204.8,346.9,205.7,346.3,206.2z M346.3,191.9l-1.1,0.9l-1.1-1.1
		c-1.3-1.3-0.6-3.5,1.2-3.5c0.7,0,1.4,0.1,1.4,0.3c0,0.2,0.2,0.8,0.4,1.3C347.2,190.5,346.9,191.3,346.3,191.9z M346.3,177.6
		l-1.1,0.9l-1.1-1.1c-1.4-1.4-0.7-3.4,1.2-3.4c0.8,0,1.5,0.1,1.5,0.3s0.2,0.8,0.4,1.3C347.2,176.2,346.9,177,346.3,177.6z
		 M346.3,163.2l-1.1,0.9l-1.1-1.1c-1.4-1.4-0.7-3.4,1.2-3.4c0.8,0,1.5,0.1,1.5,0.3s0.2,0.8,0.4,1.3
		C347.2,161.8,346.9,162.7,346.3,163.2z M338.1,138.2c0.7,0,1.4,0.1,1.4,0.3s0.2,0.8,0.4,1.3c0.2,0.6-0.1,1.4-0.8,2l-1.1,0.9
		l-1.1-1.1C335.6,140.3,336.3,138.2,338.1,138.2z M336.8,267.9l1.1-1.1l1.1,0.9c1.2,1,1.4,1.7,0.6,2.4c-0.8,0.8-3,0.6-3.5-0.3
		C335.9,269.4,336.2,268.5,336.8,267.9z M336.8,253.6l1.1-1.1l1.1,0.9c1.2,1,1.4,1.7,0.6,2.4c-0.8,0.8-3,0.6-3.5-0.3
		C335.9,255.1,336.2,254.2,336.8,253.6z M337,324.9l1.1-0.9l1,1c0.5,0.6,0.8,1.4,0.6,1.9c-0.5,1.2-2.8,1.1-3.3-0.1
		C336.2,326.3,336.5,325.4,337,324.9z M337,310.6l1.1-0.9l1,1c0.5,0.6,0.8,1.4,0.6,1.9c-0.5,1.2-2.8,1.1-3.3-0.1
		C336.2,311.9,336.5,311.1,337,310.6z M337,339.2l1.1-0.9l1,1c0.5,0.6,0.8,1.4,0.6,1.9l0,0c-0.5,1.2-2.8,1.1-3.3-0.1
		C336.2,340.6,336.5,339.7,337,339.2z M337,353.5l1.1-0.9l1,1c0.5,0.6,0.8,1.4,0.6,1.9l0,0c-0.5,1.2-2.8,1.1-3.3-0.1
		C336.2,354.9,336.5,354,337,353.5z M337,367.9c1.3-1.1,2.5-0.3,2.5,1.5c0,0.9-0.5,1.4-1.4,1.4C336.4,370.8,335.7,369,337,367.9z
		 M338,428c-1,0-1.4-0.5-1.4-1.4c0-1,0.5-1.4,1.4-1.4c1,0,1.4,0.5,1.4,1.4C339.5,427.6,339,428,338,428z M338,413.7
		c-0.9,0-1.4-0.5-1.4-1.3c0-1.7,0.6-2.3,1.9-1.8C340,411.2,339.7,413.7,338,413.7z M338,399.4h-1.5l0.2-1.6c0.1-0.9,0.7-1.6,1.3-1.6
		c0.6,0,1.2,0.7,1.3,1.6l0.2,1.6H338z M339.7,384.2c-0.5,1.5-3.1,1.1-3.1-0.5c0-0.8,0.4-1.6,0.8-1.9
		C338.4,381.2,340.1,383,339.7,384.2z M339.7,298.7c-0.8,0.8-2.9,0.5-3.3-0.5c-0.2-0.6,0.1-1.4,0.6-1.9l1-0.9l1.1,0.9
		C340.3,297.3,340.4,298,339.7,298.7z M339.7,284.4c-0.8,0.8-2.9,0.5-3.3-0.5c-0.2-0.6,0.1-1.4,0.6-1.9l1-0.9l1.1,0.9
		C340.3,283,340.4,283.7,339.7,284.4z M339.2,241.9c-0.7,0.6-1.3,0.5-2.3-0.2l-1.4-1l1.2-1.2l1.2-1.2l1.1,0.9
		C340.4,240.2,340.5,240.8,339.2,241.9z M339.2,227.5c-0.7,0.6-1.3,0.5-2.3-0.2l-1.4-1l1.2-1.2l1.2-1.2l1.1,0.9
		C340.4,225.9,340.5,226.5,339.2,227.5z M339.1,213.4l-1.1,0.9l-1.2-1.2l-1.2-1.2l1.2-1.2l1.2-1.2l1.1,0.9c0.6,0.5,1.1,1.2,1.1,1.5
		C340.2,212.2,339.7,212.9,339.1,213.4z M339.1,199.1L338,200l-1.2-1.2l-1.2-1.2l1.2-1.2l1.2-1.2l1.1,0.9c0.6,0.5,1.1,1.2,1.1,1.5
		C340.2,197.9,339.7,198.5,339.1,199.1z M339.1,184.7l-1.1,0.9l-1.2-1.2l-1.2-1.2l1.2-1.2l1.2-1.2l1.1,0.9c0.6,0.5,1.1,1.2,1.1,1.5
		C340.2,183.6,339.7,184.2,339.1,184.7z M339.1,170.4l-1.1,0.9l-1.2-1.2l-1.2-1.2l1.2-1.2l1.2-1.2l1.1,0.9c0.6,0.5,1.1,1.2,1.1,1.5
		C340.2,169.3,339.7,169.9,339.1,170.4z M339.1,156.1L338,157l-1.2-1.2l-1.2-1.2l1.2-1.2l1.2-1.2l1.1,0.9c0.6,0.5,1.1,1.2,1.1,1.5
		C340.2,155,339.7,155.6,339.1,156.1z M346.8,391.4c-0.5,1.2-2.8,1.1-3.3-0.1c-0.2-0.6,0.1-1.4,0.7-1.9l1.1-0.9l1,1
		C346.7,390,347,390.9,346.8,391.4z M346.8,377c-0.5,1.2-2.8,1.1-3.3-0.1c-0.2-0.6,0.1-1.4,0.7-1.9l1.1-0.9l1,1
		C346.7,375.7,347,376.5,346.8,377z M346.8,362.7c-0.5,1.2-2.8,1.1-3.3-0.1c-0.2-0.6,0.1-1.4,0.7-1.9l1.1-0.9l1,1
		C346.7,361.4,347,362.2,346.8,362.7z M346.9,348.8c-0.8,0.8-3,0.6-3.5-0.3c-0.3-0.4,0-1.3,0.6-1.9l1.1-1.1l1.1,0.9
		C347.4,347.4,347.6,348.1,346.9,348.8z M346.9,334.5c-0.8,0.8-3,0.6-3.5-0.3c-0.3-0.4,0-1.3,0.6-1.9l1.1-1.1l1.1,0.9
		C347.4,333.1,347.6,333.8,346.9,334.5z M346.9,320.2c-0.8,0.8-3,0.6-3.5-0.3c-0.3-0.4,0-1.3,0.6-1.9l1.1-1.1l1.1,0.9
		C347.4,318.8,347.6,319.5,346.9,320.2z M346.4,306.3c-0.7,0.6-1.3,0.5-2.3-0.2l-1.4-1l1.2-1.2l1.2-1.2l1.1,0.9
		C347.6,304.6,347.6,305.2,346.4,306.3z M346.4,292c-0.7,0.6-1.3,0.5-2.3-0.2l-1.4-1l1.2-1.2l1.2-1.2l1.1,0.9
		C347.6,290.3,347.6,290.9,346.4,292z M346.4,277.6c-0.7,0.6-1.3,0.5-2.3-0.2l-1.4-1l1.2-1.2l1.2-1.2l1.1,0.9
		C347.6,276,347.6,276.6,346.4,277.6z M346.2,263.5L346.2,263.5l-1.1,0.9l-1.2-1.2l-1.2-1.2l1.2-1.2l1.2-1.2l1.1,0.9
		c0.6,0.5,1.1,1.2,1.1,1.5C347.3,262.3,346.8,263,346.2,263.5z M346.2,249.1L346.2,249.1l-1.1,0.9l-1.2-1.2l-1.2-1.2l1.2-1.2
		l1.2-1.2l1.1,0.9c0.6,0.5,1.1,1.2,1.1,1.5C347.3,248,346.8,248.6,346.2,249.1z M354,384.6c-0.8,0.8-3,0.6-3.5-0.3
		c-0.3-0.4,0-1.3,0.6-1.9l1.1-1.1l1.1,0.9C354.6,383.2,354.8,383.9,354,384.6z M353.5,370.7c-0.7,0.6-1.3,0.5-2.3-0.2l-1.4-1
		l1.2-1.2l1.2-1.2l1.1,0.9C354.7,369,354.8,369.6,353.5,370.7z M353.5,356.4c-0.7,0.6-1.3,0.5-2.3-0.2l-1.4-1l1.2-1.2l1.2-1.2
		l1.1,0.9C354.7,354.7,354.8,355.3,353.5,356.4z M353.4,342.2L353.4,342.2l-1.1,0.9l-1.2-1.2l-1.2-1.2l1.2-1.2l1.2-1.2l1.1,0.9
		c0.6,0.5,1.1,1.2,1.1,1.5C354.5,341,354,341.7,353.4,342.2z M353.4,327.9L353.4,327.9l-1.1,0.9l-1.2-1.2l-1.2-1.2l1.2-1.2l1.2-1.2
		l1.1,0.9c0.6,0.5,1.1,1.2,1.1,1.5C354.5,326.7,354,327.4,353.4,327.9z M353.4,313.6L353.4,313.6l-1.1,0.9l-1.2-1.2l-1.2-1.2
		l1.2-1.2l1.2-1.2l1.1,0.9c0.6,0.5,1.1,1.2,1.1,1.5C354.5,312.4,354,313,353.4,313.6z M353.4,299.2l-1.1,0.9l-1.1-1.1
		c-1.2-1.2-0.7-3.5,0.7-3.5c0.9,0,2.6,1.4,2.6,2.2C354.5,298.1,354,298.7,353.4,299.2z M360.5,378L360.5,378l-1.1,0.9l-1.2-1.2
		l-1.2-1.2l1.2-1.2l1.2-1.2l1.1,0.9c0.6,0.5,1.1,1.2,1.1,1.5C361.7,376.8,361.2,377.5,360.5,378z M365.6,166.8l1.1-0.9l1.1,0.9
		c0.6,0.5,1.1,1.5,1.1,2.3s-0.5,1.6-1.1,1.8c-1.6,0.6-3.2-0.3-3.2-1.8C364.5,168.3,365,167.3,365.6,166.8z M365.6,181.1l1.1-0.9
		l1.1,0.9c0.6,0.5,1.1,1.5,1.1,2.3s-0.5,1.6-1.1,1.8c-1.6,0.6-3.2-0.3-3.2-1.8C364.5,182.6,365,181.6,365.6,181.1z M367.5,195.5
		c1.6,0.9,1.7,3.4,0.2,4c-1.6,0.6-3.2-0.2-3.2-1.7C364.5,195.7,365.9,194.7,367.5,195.5z M367.5,209.8c1.6,0.9,1.7,3.4,0.2,4
		c-1.6,0.6-3.2-0.2-3.2-1.7C364.5,210.1,365.9,209,367.5,209.8z M367.7,370.8l-1.1,0.9l-1.1-1.1c-1.4-1.4-0.7-3.4,1.2-3.4
		c0.8,0,1.5,0.1,1.5,0.3c0,0.2,0.2,0.8,0.4,1.3C368.7,369.4,368.4,370.3,367.7,370.8z M367.7,356.5l-1.1,0.9l-1.1-1.1
		c-1.5-1.5-0.7-3.6,1.4-3.3C368.8,353.3,369.3,355.2,367.7,356.5z M367.7,342.2l-1.1,0.9l-1.1-1.1c-1.5-1.5-0.7-3.6,1.4-3.3
		C368.8,339,369.3,340.9,367.7,342.2z M367.7,327.8l-1.1,0.9l-1.1-1.1c-1.5-1.5-0.7-3.6,1.4-3.3
		C368.8,324.7,369.3,326.6,367.7,327.8z M367.6,313.8c-1.6,0.6-3.5-1.2-2.9-2.8c0.3-0.7,1.1-1.1,2.1-0.9
		C368.9,310.4,369.4,313.1,367.6,313.8z M367.8,299.5c-1.8,0.7-3.4-0.3-3.1-1.9c0.2-1.1,0.7-1.5,2-1.5
		C368.8,296,369.6,298.7,367.8,299.5z M367.8,285.1c-1.8,0.7-3.4-0.3-3.1-1.9c0.2-1.1,0.7-1.5,2-1.5
		C368.8,281.7,369.6,284.4,367.8,285.1z M364.7,240.3c0.3-2.2,3.7-2.2,4,0c0.1,0.8-0.1,1.8-0.5,2l0,0
		C366.7,243.2,364.4,241.9,364.7,240.3z M368.7,254.6c0.1,0.8-0.1,1.8-0.5,2l0,0c-1.5,0.9-3.7-0.4-3.5-2
		C365,252.4,368.4,252.4,368.7,254.6z M368.7,268.9c0.1,0.8-0.1,1.8-0.5,2l0,0c-1.5,0.9-3.7-0.4-3.5-2
		C365,266.7,368.4,266.7,368.7,268.9z M367.8,228.1c-1.9,0.7-3.4-0.3-3.1-2c0.2-1.2,0.7-1.6,2-1.6
		C368.8,224.4,369.7,227.4,367.8,228.1z M372.3,174.4c2.2-2,5,0.1,3.5,2.7c-0.9,1.6-3.2,1.5-4.1-0.1l-0.7-1.3L372.3,174.4z
		 M372.4,188.6l1.4-1.3l1.4,1.4l1.4,1.4l-0.7,1.3c-0.9,1.6-3.3,1.6-4.2-0.1L371,190L372.4,188.6z M372.4,202.9l1.4-1.3l1.4,1.4
		l1.4,1.4l-0.7,1.3c-0.9,1.6-3.3,1.6-4.2-0.1l-0.7-1.3L372.4,202.9z M374.9,263.9c-1.6,0.6-3.2-0.2-3.2-1.7c0-2,1.4-3.1,3-2.3
		C376.2,260.8,376.4,263.3,374.9,263.9z M374.9,278.2c-1.6,0.6-3.2-0.2-3.2-1.7c0-2,1.4-3.1,3-2.3
		C376.2,275.1,376.4,277.6,374.9,278.2z M374.9,249.6c-1.6,0.6-3.2-0.3-3.2-1.8c0-0.8,0.5-1.8,1.1-2.3l1.1-0.9l1.1,0.9
		c0.6,0.5,1.1,1.5,1.1,2.3S375.5,249.3,374.9,249.6z M374.9,235.3c-1.6,0.6-3.2-0.3-3.2-1.8c0-0.8,0.5-1.8,1.1-2.3l1.1-0.9l1.1,0.9
		c0.6,0.5,1.1,1.5,1.1,2.3C376,234.2,375.5,235,374.9,235.3z M374.6,288.5c1.4,0.8,1.8,3.1,0.6,3.9c-1.2,0.7-3.6-0.4-3.6-1.7
		C371.7,288.8,373.1,287.7,374.6,288.5z M371.8,319c0.3-2.2,3.7-2.2,4,0c0.1,0.8-0.1,1.8-0.5,2l0,0
		C373.8,321.9,371.6,320.6,371.8,319z M375.8,333.3c0.1,0.8-0.1,1.8-0.5,2l0,0c-1.5,0.9-3.7-0.4-3.5-2
		C372.1,331.1,375.5,331.1,375.8,333.3z M374.8,363.9c-1.6,0.6-3.5-1.2-2.9-2.8c0.3-0.7,1.1-1.1,2.1-0.9
		C376,360.5,376.6,363.2,374.8,363.9z M374.9,349.8c-0.7,0.3-1.7,0-2.3-0.7c-1.5-1.5-0.6-3.5,1.4-3.2
		C376,346.1,376.7,349.1,374.9,349.8z M374.9,306.8c-1.9,0.7-3.4-0.3-3.1-2c0.2-1.2,0.7-1.6,2-1.6
		C375.9,303.1,376.8,306.1,374.9,306.8z M375.8,220.1c-0.5,0.7-1.6,1.2-2.3,1c-1.8-0.3-2.2-2.9-0.7-4.2l1.1-1l1.4,1.4l1.4,1.4
		L375.8,220.1z M388.1,187.6c0.8,0,2.9,2.1,2.9,2.8c0,0.3-0.6,1.1-1.4,1.8l-1.4,1.3l-1.4-1.3c-0.8-0.7-1.4-1.5-1.4-1.8
		C385.3,189.6,387.4,187.6,388.1,187.6z M388.1,201.9c0.8,0,2.9,2.1,2.9,2.8c0,0.3-0.6,1.1-1.3,1.7l-1.3,1.2l-1.6-1.1
		c-0.9-0.6-1.6-1.4-1.6-1.7C385.3,204,387.3,201.9,388.1,201.9z M388.1,216.2c0.7,0,2.9,2,2.9,2.8c0,0.3-0.4,0.9-0.9,1.4
		c-1.5,1.5-4.9,0.5-4.9-1.4C385.3,218.2,387.4,216.2,388.1,216.2z M379.2,181.5c1.4-1.4,2.1-1.4,3.5,0c1.3,1.3,1.4,1.9,0.3,3
		c-1.3,1.3-3.3,1-4.1-0.5l-0.7-1.4L379.2,181.5z M379.9,309.9l1.1-0.9l1.1,0.9c0.6,0.5,1.1,1.5,1.1,2.3s-0.5,1.6-1.1,1.8
		c-1.6,0.6-3.2-0.3-3.2-1.8C378.8,311.5,379.3,310.4,379.9,309.9z M378.8,297.9c0-0.8,0.5-1.8,1.1-2.3l1.1-0.9l1.1,0.9
		c0.6,0.5,1.1,1.5,1.1,2.3s-0.5,1.6-1.1,1.8C380.4,300.3,378.8,299.4,378.8,297.9z M382.3,324.4c1.2,1.2,1,3.4-0.2,3.9
		c-1.7,0.6-3.2-0.3-3.2-1.8C378.8,324.6,381.1,323.3,382.3,324.4z M382.4,356.8L382.4,356.8c-1.5,0.9-3.7-0.4-3.5-2
		c0.3-2.2,3.7-2.2,4,0C383.1,355.6,382.9,356.5,382.4,356.8z M382.1,342.6c-1.9,0.7-3.4-0.3-3.1-2c0.2-1.2,0.7-1.6,2-1.6
		C383.1,338.9,384,341.9,382.1,342.6z M383.1,284.4c-0.9,1.6-3.3,1.6-4.2-0.1l-0.7-1.3l1.4-1.3l1.4-1.3l1.4,1.4l1.4,1.4L383.1,284.4
		z M383.1,270.1c-0.9,1.6-3.3,1.6-4.2-0.1l-0.7-1.3l1.4-1.3l1.4-1.3l1.4,1.4l1.4,1.4L383.1,270.1z M383.1,255.7
		c-0.9,1.6-3.3,1.6-4.2-0.1l-0.7-1.3l1.4-1.3l1.4-1.3l1.4,1.4l1.4,1.4L383.1,255.7z M378.2,240l1.3-1.2c2.2-2,5,0.1,3.5,2.7
		c-0.9,1.6-3.2,1.5-4.1-0.1L378.2,240z M383.1,227.1c-1,1.7-3.3,1.6-4.2-0.1l-0.7-1.4l1.1-1.1c0.6-0.6,1.4-1.1,1.7-1.1
		c0.5,0,2.9,2,2.8,2.4C383.8,225.8,383.5,226.4,383.1,227.1z M383.1,212.8c-1,1.7-3.3,1.6-4.2-0.1l-0.7-1.4l1.1-1.1
		c0.6-0.6,1.4-1.1,1.7-1.1c0.5,0,2.9,2,2.8,2.4C383.8,211.5,383.5,212.1,383.1,212.8z M383.1,198.5c-1,1.7-3.3,1.6-4.2-0.1l-0.7-1.4
		l1.1-1.1c0.6-0.6,1.4-1.1,1.7-1.1c0.5,0,2.9,2,2.8,2.4C383.8,197.2,383.5,197.8,383.1,198.5z M388.1,230.5c0.7,0,2.9,2,2.9,2.8
		c0,0.3-0.4,0.9-0.9,1.4c-1.5,1.5-4.9,0.5-4.9-1.4C385.3,232.6,387.4,230.5,388.1,230.5z M390.2,248.6c-1,1.7-3.3,1.6-4.2-0.1
		l-0.7-1.4l1.1-1.1c0.6-0.6,1.4-1.1,1.7-1.1c0.5,0,2.9,2,2.8,2.4C391,247.3,390.6,247.9,390.2,248.6z M391,261.5
		c0,0.1-0.4,0.7-0.8,1.4c-1,1.7-3.3,1.6-4.2-0.1l-0.7-1.4l1.1-1.1c0.6-0.6,1.4-1.1,1.7-1.1C388.7,259.1,391,261.1,391,261.5z
		 M386.4,274.6c0.6-0.6,1.4-1.1,1.7-1.1c0.5,0,2.9,2,2.8,2.4c0,0.1-0.4,0.7-0.8,1.4c-1,1.7-3.3,1.6-4.2-0.1l-0.7-1.4L386.4,274.6z
		 M390.2,291.6c-0.9,1.6-3.2,1.5-4.1-0.1l-0.7-1.3l1.3-1.2C388.8,286.9,391.6,289,390.2,291.6z M390.2,305.9
		c-0.9,1.6-3.2,1.5-4.1-0.1l-0.7-1.3l1.3-1.2C388.8,301.2,391.6,303.3,390.2,305.9z M385.3,318.7l1.4-1.3l1.4-1.3l1.4,1.4l1.4,1.4
		l-0.7,1.3c-0.9,1.6-3.3,1.6-4.2-0.1L385.3,318.7z M390.1,334.6c-0.5,0.7-1.6,1.2-2.3,1c-1.8-0.3-2.2-2.9-0.7-4.2l1.1-1l1.4,1.4
		l1.4,1.4L390.1,334.6z M392.4,311.5l1.1-1.1c1.4-1.4,2.1-1.4,3.5,0c1.3,1.3,1.4,1.9,0.3,3c-1.3,1.3-3.3,1-4.1-0.5L392.4,311.5z
		 M393.6,296c1.4-1.4,2.1-1.4,3.5,0c1.3,1.3,1.4,1.9,0.3,3c-1.3,1.3-3.3,1-4.1-0.5l-0.7-1.4L393.6,296z M393.6,281.7
		c1.4-1.4,2.1-1.4,3.5,0s1.4,2-0.1,3.3C394.6,287.1,391.4,283.9,393.6,281.7z M397.4,327.3c-1,1.7-3.3,1.6-4.2-0.1l-0.7-1.4l1.1-1.1
		c0.6-0.6,1.4-1.1,1.7-1.1c0.5,0,2.9,2,2.8,2.4C398.1,326,397.8,326.6,397.4,327.3z M396.9,270.8l-1.3,1.2l-1.6-1.1
		c-0.9-0.6-1.6-1.4-1.6-1.7c0-0.8,2.1-2.9,2.9-2.9s2.9,2.1,2.9,2.8C398.2,269.4,397.6,270.2,396.9,270.8z M396.9,256.5l-1.3,1.2
		l-1.6-1.1c-0.9-0.6-1.6-1.4-1.6-1.7c0-0.8,2.1-2.9,2.9-2.9s2.9,2.1,2.9,2.8C398.2,255.1,397.6,255.9,396.9,256.5z M396.7,242.3
		l-1.4,1.3l-1.4-1.3c-0.8-0.7-1.4-1.5-1.4-1.8c0-0.7,2.1-2.8,2.9-2.8s2.9,2.1,2.9,2.8C398.2,240.8,397.5,241.6,396.7,242.3z
		 M396.7,228l-1.4,1.3l-1.4-1.3c-0.8-0.7-1.4-1.5-1.4-1.8c0-0.7,2.1-2.8,2.9-2.8s2.9,2.1,2.9,2.8C398.2,226.5,397.5,227.3,396.7,228
		z M397,213.6c-0.6,0.6-1.4,1.1-1.7,1.1c-0.8,0-2.9-2.1-2.9-2.9s2.1-2.9,2.9-2.9s2.9,2.1,2.9,2.9C398.2,212.2,397.6,213,397,213.6z
		 M397,199.3c-0.6,0.6-1.4,1.1-1.7,1.1c-0.8,0-2.9-2.1-2.9-2.9s2.1-2.9,2.9-2.9s2.9,2.1,2.9,2.9C398.2,197.9,397.6,198.7,397,199.3z
		 M402.4,216.2c0.8,0,1.7,0.6,2.1,1.4c1,1.8,0.9,1.9-0.4,3.2c-0.6,0.6-1.4,1.1-1.7,1.1c-0.7,0-2.9-2-2.9-2.6
		C399.6,218.1,401.3,216.2,402.4,216.2z M402.4,230.5c0.8,0,1.7,0.6,2.1,1.4c1,1.8,0.9,1.9-0.4,3.2c-0.6,0.6-1.4,1.1-1.7,1.1
		c-0.7,0-2.9-2-2.9-2.6C399.6,232.4,401.3,230.5,402.4,230.5z M403.9,306.7l-1.4,1.3l-1.4-1.3c-0.8-0.7-1.4-1.5-1.4-1.8
		c0-0.7,2.1-2.8,2.9-2.8s2.9,2.1,2.9,2.8C405.3,305.2,404.7,306,403.9,306.7z M403.9,292.4l-1.4,1.3l-1.4-1.3
		c-0.8-0.7-1.4-1.5-1.4-1.8c0-0.7,2.1-2.8,2.9-2.8s2.9,2.1,2.9,2.8C405.3,290.9,404.7,291.7,403.9,292.4z M404.2,278.1
		c-0.6,0.6-1.4,1.1-1.7,1.1c-0.6,0-2.9-2.4-2.9-3c0-0.7,2.2-2.7,2.9-2.7c0.8,0,2.9,2.1,2.9,2.9C405.3,276.7,404.8,277.4,404.2,278.1
		z M404.2,263.7c-0.6,0.6-1.4,1.1-1.7,1.1c-0.8,0-2.9-2.1-2.9-2.9s2.1-2.9,2.9-2.9s2.9,2.1,2.9,2.9
		C405.3,262.3,404.8,263.1,404.2,263.7z M404.2,249.4c-0.6,0.6-1.4,1.1-1.7,1.1c-0.8,0-2.9-2.1-2.9-2.9s2.1-2.9,2.9-2.9
		s2.9,2.1,2.9,2.9C405.3,248,404.8,248.8,404.2,249.4z M411.3,285.2c-0.6,0.6-1.4,1.1-1.7,1.1c-0.7,0-2.9-2-2.9-2.6
		c0-1.3,1.7-3.1,2.9-3.1c0.8,0,1.7,0.6,2.1,1.4C412.7,283.8,412.7,283.9,411.3,285.2z M411.3,270.9c-0.6,0.6-1.4,1.1-1.7,1.1
		c-0.7,0-2.9-2-2.9-2.6c0-1.3,1.7-3.1,2.9-3.1c0.8,0,1.7,0.6,2.1,1.4C412.7,269.5,412.7,269.6,411.3,270.9z M411.3,256.6
		c-0.6,0.6-1.4,1.1-1.7,1.1c-0.7,0-2.9-2-2.9-2.6c0-1.3,1.7-3.1,2.9-3.1c0.8,0,1.7,0.6,2.1,1.4C412.7,255.2,412.7,255.3,411.3,256.6
		z"/>
	<path class="st1" d="M240,107.3c-86.6,0-157.4,70.8-157.4,157.4c0,45.3,19.8,88.9,53.2,118.3c24.9,24.9,22.6,78.1,22.1,78.7
		c0,2.8,0.6,5.1,2.8,7.4c1.7,1.7,4.5,2.8,6.8,2.8h144.4c2.8,0,5.1-1.1,6.8-2.8c1.7-1.7,2.8-4.5,2.8-7.4c0-0.6-2.8-53.8,22.1-78.7
		c0.6-0.6,1.1-1.1,1.7-1.7c32.8-30,52.1-72.5,52.1-116.6C397.4,178.1,326.6,107.3,240,107.3z"/>
	<path class="st2" d="M310.1,478H169.9c-14.5,0-21.9,7.2-21.9,16s7.4,16,21.9,16h139.5c15.2-0.4,21.6-7.2,21.6-16
		S324.6,478,310.1,478z"/>
	<path class="st2" d="M297.4,516H182.5c-11.9,0-18,7.7-18,17s6.1,17,18,17h114.4c12.4-0.4,17.7-7.7,17.7-17S309.3,516,297.4,516z"/>
	<path class="st1" d="M469.1,159.9c-2.3-4.5-8.5-6.2-13-4L398.4,187c-4.5,2.3-6.2,8.5-4,13c1.7,3.4,5.1,5.1,8.5,5.1
		c1.7,0,3.4-0.6,4.5-1.1l57.7-31.1C469.6,170.7,471.3,164.4,469.1,159.9z"/>
	<path class="st1" d="M389.1,58.3c-4.5-3.4-10.2-1.7-13,2.3l-36.2,54.3c-3.4,4.5-2.3,10.8,2.3,13.6c1.7,1.1,3.4,1.7,5.1,1.7
		c3.4,0,6.2-1.7,7.9-4.5l36.2-54.3C394.7,67.3,393.6,61.1,389.1,58.3z"/>
	<path class="st1" d="M89.4,71.3l36.2,54.3c1.7,2.8,4.5,4.5,7.9,4.5c1.7,0,3.4-0.6,5.1-1.7c4.5-2.8,5.7-9.1,2.3-13.6l-36.2-54.3
		c-2.8-4-8.5-5.7-13-2.3C87.1,61.1,86,67.3,89.4,71.3z"/>
	<path class="st1" d="M240,98.9c5.7,0,9.6-4.5,9.6-9.6V23.6c0-5.1-4.5-9.6-9.6-9.6s-9.6,4.5-9.6,9.6v65.7
		C230.4,94.4,234.9,98.9,240,98.9z"/>
	<path class="st1" d="M82.5,187.1L25.3,156c-4.5-2.3-10.8-0.6-13,4c-2.8,4.5-1.1,10.8,4,13l57.2,31.1c1.7,0.6,2.8,1.1,4.5,1.1
		c3.4,0,6.8-1.7,8.5-5.1C88.7,195.6,87,189.3,82.5,187.1z"/>
</g>
</svg>
