<?xml version="1.0" encoding="utf-8"?>
<!-- Generator: Adobe Illustrator 17.1.0, SVG Export Plug-In . SVG Version: 6.00 Build 0)  -->
<!DOCTYPE svg PUBLIC "-//W3C//DTD SVG 1.1//EN" "http://www.w3.org/Graphics/SVG/1.1/DTD/svg11.dtd">
<svg version="1.1" id="Layer_1" xmlns="http://www.w3.org/2000/svg" xmlns:xlink="http://www.w3.org/1999/xlink" x="0px" y="0px"
	 viewBox="0 0 612 792" enable-background="new 0 0 612 792" xml:space="preserve">
<path fill="#DF8799" d="M143.7,257.9l-57.2-31.1c-4.5-2.3-10.8-0.6-13,4c-2.8,4.5-1.1,10.8,4,13l57.2,31.1c1.7,0.6,2.8,1.1,4.5,1.1
	c3.4,0,6.8-1.7,8.5-5.1C149.9,266.4,148.2,260.2,143.7,257.9z"/>
<g>
	<path fill="#DF8799" d="M150.6,141.3l36.2,54.3c1.7,2.8,4.5,4.5,7.9,4.5c1.7,0,3.4-0.6,5.1-1.7c4.5-2.8,5.7-9.1,2.3-13.6
		l-36.2-54.3c-2.8-4-8.5-5.7-13-2.3C148.3,131.1,147.2,137.3,150.6,141.3z"/>
	<path fill="#DF8799" d="M306,168.9c5.7,0,9.6-4.5,9.6-9.6V93.6c0-5.1-4.5-9.6-9.6-9.6s-9.6,4.5-9.6,9.6v65.7
		C296.4,164.4,300.9,168.9,306,168.9z"/>
	<path fill="#DF8799" d="M458.4,128.3c-4.5-3.4-10.2-1.7-13,2.3l-36.2,54.3c-3.4,4.5-2.3,10.8,2.3,13.6c1.7,1.1,3.4,1.7,5.1,1.7
		c3.4,0,6.2-1.7,7.9-4.5l36.2-54.3C464,137.3,462.9,131.1,458.4,128.3z"/>
	<path fill="#DF8799" d="M539.1,230.7c-2.3-4.5-8.5-6.2-13-4l-57.7,31.1c-4.5,2.3-6.2,8.5-4,13c1.7,3.4,5.1,5.1,8.5,5.1
		c1.7,0,3.4-0.6,4.5-1.1l57.7-31.1C539.7,241.5,541.4,235.2,539.1,230.7z"/>
	<path fill="#DF8799" d="M386.2,553H246c-14.5,0-21.9,7.2-21.9,16s7.4,16,21.9,16h139.5c15.2-0.4,21.6-7.2,21.6-16
		S400.7,553,386.2,553z"/>
	<path fill="#DF8799" d="M373.5,591H258.6c-11.9,0-18,7.7-18,17s6.1,17,18,17H373c12.4-0.4,17.7-7.7,17.7-17S385.4,591,373.5,591z"
		/>
	<path fill="#DF8799" d="M477.4,317.2c-0.6,0.6-1.4,1.2-1.8,1.2c-1.1,0-2.9-2.3-2.7-3.4c0.3-1.8,2.5-2.8,4-1.9
		c0.4,0.2,0.6,0.5,0.9,0.7c-0.5-3.3-1.2-6.6-2-9.8h-0.1c-1.1,0-2.9-2.3-2.7-3.4c0.2-0.9,0.8-1.6,1.5-1.9c-1.5-5.6-3.3-11-5.4-16.3
		c-0.2,0.1-0.4,0.2-0.6,0.2c-0.7,0-2.9-2-2.9-2.6c0-0.8,0.7-1.8,1.5-2.5c-3.6-8.2-7.8-16.1-12.7-23.5l-0.2,0.2l-1.4-1.3
		c-0.8-0.7-1.4-1.5-1.4-1.8c0-0.2,0.2-0.6,0.5-1c-1.1-1.5-2.1-3.1-3.2-4.5c-1.6,1-4.4,0.1-4.4-1.7c0-0.4,0.8-1.3,1.5-2
		c-1.2-1.5-2.4-2.9-3.6-4.4c0,0.1-0.1,0.1-0.1,0.2c-1,1.7-3.3,1.6-4.2-0.1l-0.7-1.4l1.1-1.1c0.4-0.4,0.8-0.7,1.1-0.9
		c-1.4-1.6-2.9-3.1-4.4-4.7c0.1,0.7,0,1.4-0.4,1.8c-0.9,0.9-3.1,0.5-3.8-0.9l-0.7-1.3l1.4-1.3l1-0.9c-1.5-1.5-3-2.9-4.6-4.3
		c0.1,0.7-0.2,1.4-1,1.7c-1.9,0.7-3.4-0.3-3.1-2c0.2-1.1,0.7-1.6,1.9-1.6c-1.7-1.5-3.4-2.9-5.1-4.3c-0.1,0.3-0.2,0.6-0.4,0.7l0,0
		c-1.5,0.9-3.7-0.4-3.5-2c0.1-0.5,0.3-0.9,0.7-1.2c-1.7-1.3-3.5-2.6-5.3-3.8l-0.6,0.5l-1.1-1.1c-0.3-0.3-0.5-0.6-0.6-1
		c-8-5.3-16.4-9.9-25.3-13.8c-0.7,0.9-2.7,0.7-3.1-0.4c-0.1-0.2-0.1-0.5,0-0.8c-6-2.4-12.1-4.5-18.5-6.2c-0.2,0.6-0.6,0.9-1.4,0.9
		c-1,0-1.4-0.5-1.4-1.4c0-0.1,0-0.1,0-0.1c-12-3-24.5-4.5-37.4-4.5c-11.2,0-22,1.2-32.5,3.4c0.3,0.1,0.5,0.4,0.5,0.9
		c0,0.7-0.3,1.1-0.7,1c-1-0.3-1.1-1.3-0.3-1.7c-14.8,3.2-28.9,8.5-41.9,15.5c0,0.4-0.3,0.6-0.7,0.6c-0.1,0-0.2,0-0.3-0.1
		c-39.6,21.9-68.9,60.4-78.4,106c0.4,0,0.7,0.3,0.7,0.7c0,0.4-0.3,0.7-0.7,0.7c-0.1,0-0.1-0.1-0.2-0.1c-2,9.9-3,20.2-3,30.6
		c0,38.4,14.3,75.6,39,104c0.2,0,0.4,0.1,0.5,0.2c0.2,0.2,0.1,0.3,0,0.4c2,2.3,4.1,4.6,6.3,6.8c0.3-0.2,0.6-0.2,0.9,0
		c0.2,0.2,0.1,0.4-0.4,0.5c2.2,2.2,4.5,4.4,6.9,6.6c0.2-0.1,0.5,0,0.6,0.1c0.2,0.2,0.1,0.3-0.1,0.4c16.5,17,20.9,46.5,21.8,64.1l0,0
		l0,0c0.4,8.4,0.1,14.1-0.1,14.3c0,2.8,0.6,5.1,2.8,7.4c1.7,1.7,4.5,2.8,6.8,2.8h144.6c2.8,0,5.1-1.1,6.8-2.8s2.8-4.5,2.8-7.4
		c0-0.1-0.1-2.1-0.1-5.3c-0.8-0.1-1.2-0.5-1.2-1.4s0.4-1.3,1.2-1.4c0.1-3.2,0.2-7.1,0.6-11.5c-0.1,0-0.2,0.1-0.4,0.1
		c-1,0-1.4-0.5-1.4-1.4c0-1,0.5-1.4,1.4-1.4c0.2,0,0.4,0,0.6,0.1c1-10,3-21.9,7.2-33.1c-0.9,0.2-2-0.1-2.3-0.9
		c-0.2-0.6,0.1-1.4,0.7-1.9l1.1-0.9l1,1c0.2,0.2,0.3,0.4,0.4,0.6c3.2-7.9,7.5-15.4,13.4-21.2c0.6-0.6,1.1-1.1,1.7-1.7
		c10.3-9.4,19.2-20,26.7-31.5c-1.3,0.1-2.4-0.7-2.4-2c0-0.8,0.5-1.8,1.1-2.3l1.1-0.9l1.1,0.9c0.4,0.3,0.7,0.9,0.9,1.4
		c1.1-1.8,2.2-3.6,3.2-5.4c-0.1-0.1-0.1-0.1-0.2-0.2l-0.7-1.4l1.1-1.1c0.6-0.6,1.4-1.1,1.7-1.1h0.1c2.7-5.2,5.2-10.4,7.3-15.8
		l-0.3,0.3l-2-1.7c-0.8-0.7-1.4-1.5-1.4-1.8c0-0.7,2.1-2.8,2.9-2.8c0.4,0,1.3,0.6,1.9,1.4c2-5.6,3.8-11.3,5.2-17.1
		c-0.8-0.1-2.8-2.1-2.8-2.8c0-0.8,2.1-2.9,2.9-2.9c0.3,0,0.7,0.2,1.1,0.6c2.1-10.1,3.2-20.4,3.2-30.8c0-8-0.6-15.8-1.8-23.5
		C478,316.5,477.7,316.9,477.4,317.2z M167.9,366c-0.4,0.2-0.7,0.1-0.7-0.3s0.3-0.8,0.7-0.8s0.7,0.1,0.7,0.3
		C168.6,365.4,168.3,365.7,167.9,366z M167.9,351.7c-0.4,0.2-0.7,0.1-0.7-0.3s0.3-0.8,0.7-0.8s0.7,0.1,0.7,0.3
		C168.6,351.1,168.3,351.4,167.9,351.7z M167.9,337.7c-0.4,0-0.7-0.3-0.7-0.7c0-0.4,0.3-0.7,0.7-0.7s0.7,0.3,0.7,0.7
		C168.6,337.4,168.3,337.7,167.9,337.7z M167.9,323.4c-0.4,0-0.7-0.5-0.7-1.1s0.3-0.9,0.7-0.7c0.4,0.2,0.7,0.7,0.7,1.1
		S168.3,323.4,167.9,323.4z M175,387.5c-0.4,0.2-0.7,0.1-0.7-0.3s0.3-0.8,0.7-0.8s0.7,0.1,0.7,0.3S175.4,387.2,175,387.5z
		 M175,373.1c-0.4,0.2-0.7,0.1-0.7-0.3s0.3-0.8,0.7-0.8s0.7,0.1,0.7,0.3C175.7,372.6,175.4,372.9,175,373.1z M175,359.2
		c-0.4,0-0.7-0.3-0.7-0.7c0-0.4,0.3-0.7,0.7-0.7s0.7,0.3,0.7,0.7C175.7,358.9,175.4,359.2,175,359.2z M175,344.5
		c-0.4,0.2-0.7,0.1-0.7-0.3s0.3-0.8,0.7-0.8s0.7,0.1,0.7,0.3S175.4,344.3,175,344.5z M175,330.6c-0.4,0-0.7-0.3-0.7-0.7
		c0-0.4,0.3-0.7,0.7-0.7s0.7,0.3,0.7,0.7C175.7,330.2,175.4,330.6,175,330.6z M175,316.2c-0.4,0-0.7-0.3-0.7-0.7
		c0-0.4,0.3-0.7,0.7-0.7s0.7,0.3,0.7,0.7C175.7,315.9,175.4,316.2,175,316.2z M175,301.9c-0.4,0-0.7-0.3-0.7-0.7
		c0-0.4,0.3-0.7,0.7-0.7s0.7,0.3,0.7,0.7S175.4,301.9,175,301.9z M175,287.6c-0.4,0-0.7-0.3-0.7-0.7c0-0.4,0.3-0.7,0.7-0.7
		s0.7,0.3,0.7,0.7C175.7,287.3,175.4,287.6,175,287.6z M182.2,408.9c-0.4,0.2-0.7,0.1-0.7-0.3s0.3-0.8,0.7-0.8s0.7,0.1,0.7,0.3
		S182.6,408.7,182.2,408.9z M182.2,394.6c-0.4,0.2-0.7,0.1-0.7-0.3s0.3-0.8,0.7-0.8s0.7,0.1,0.7,0.3S182.6,394.4,182.2,394.6z
		 M182.2,380.3c-0.4,0.2-0.7,0.1-0.7-0.3s0.3-0.8,0.7-0.8s0.7,0.1,0.7,0.3C182.9,379.7,182.6,380.1,182.2,380.3z M182.2,366
		c-0.4,0.2-0.7,0.1-0.7-0.3s0.3-0.8,0.7-0.8s0.7,0.1,0.7,0.3S182.6,365.7,182.2,366z M182.2,351.7c-0.4,0.2-0.7,0.1-0.7-0.3
		s0.3-0.8,0.7-0.8s0.7,0.1,0.7,0.3S182.6,351.4,182.2,351.7z M182.2,337.4c-0.4,0.2-0.7,0.1-0.7-0.3s0.3-0.8,0.7-0.8
		s0.7,0.1,0.7,0.3S182.6,337.1,182.2,337.4z M182.2,323.4c-0.4,0-0.7-0.3-0.7-0.7c0-0.4,0.3-0.7,0.7-0.7s0.7,0.3,0.7,0.7
		S182.6,323.4,182.2,323.4z M182.2,309.1c-0.4,0-0.7-0.3-0.7-0.7c0-0.4,0.3-0.7,0.7-0.7s0.7,0.3,0.7,0.7
		C182.9,308.8,182.6,309.1,182.2,309.1z M182.2,294.8c-0.4,0-0.7-0.3-0.7-0.7c0-0.4,0.3-0.7,0.7-0.7s0.7,0.3,0.7,0.7
		S182.6,294.8,182.2,294.8z M182.2,280.5c-0.4,0-0.7-0.3-0.7-0.7c0-0.4,0.3-0.7,0.7-0.7s0.7,0.3,0.7,0.7
		C182.9,280.1,182.6,280.5,182.2,280.5z M189.3,416.1c-0.4,0.2-0.7,0.1-0.7-0.3s0.3-0.8,0.7-0.8s0.7,0.1,0.7,0.3
		C190.1,415.5,189.7,415.8,189.3,416.1z M189.3,401.8c-0.4,0.2-0.7,0.1-0.7-0.3s0.3-0.8,0.7-0.8s0.7,0.1,0.7,0.3
		C190.1,401.2,189.7,401.5,189.3,401.8z M189.3,387.8c-0.4,0-0.7-0.3-0.7-0.7c0-0.4,0.3-0.7,0.7-0.7s0.7,0.3,0.7,0.7
		C190.1,387.5,189.7,387.8,189.3,387.8z M189.3,373.1c-0.4,0.2-0.7,0.1-0.7-0.3s0.3-0.8,0.7-0.8s0.7,0.1,0.7,0.3
		C190.1,372.6,189.7,372.9,189.3,373.1z M189.3,358.8c-0.4,0.2-0.7,0.1-0.7-0.3s0.3-0.8,0.7-0.8s0.7,0.1,0.7,0.3
		C190.1,358.2,189.7,358.6,189.3,358.8z M189.3,344.5c-0.4,0.2-0.7,0.1-0.7-0.3s0.3-0.8,0.7-0.8s0.7,0.1,0.7,0.3
		C190.1,343.9,189.7,344.3,189.3,344.5z M189.3,330.2c-0.4,0.2-0.7,0.1-0.7-0.3s0.3-0.8,0.7-0.8s0.7,0.1,0.7,0.3
		C190.1,329.6,189.7,330,189.3,330.2z M189.3,316.2c-0.4,0-0.7-0.3-0.7-0.7c0-0.4,0.3-0.7,0.7-0.7s0.7,0.3,0.7,0.7
		C190.1,315.9,189.7,316.2,189.3,316.2z M189.3,301.9c-0.4,0-0.7-0.3-0.7-0.7c0-0.4,0.3-0.7,0.7-0.7s0.7,0.3,0.7,0.7
		C190.1,301.6,189.7,301.9,189.3,301.9z M189.3,287.6c-0.4,0-0.7-0.3-0.7-0.7c0-0.4,0.3-0.7,0.7-0.7s0.7,0.3,0.7,0.7
		C190.1,287.3,189.7,287.6,189.3,287.6z M189.3,273.3c-0.4,0-0.7-0.3-0.7-0.7c0-0.4,0.3-0.7,0.7-0.7s0.7,0.3,0.7,0.7
		C190.1,273,189.7,273.3,189.3,273.3z M189.3,259c-0.4,0-0.7-0.3-0.7-0.7c0-0.4,0.3-0.7,0.7-0.7s0.7,0.3,0.7,0.7
		C190.1,258.7,189.7,259,189.3,259z M196.5,423.2c-0.4,0.2-0.7,0.1-0.7-0.3s0.3-0.8,0.7-0.8s0.7,0.1,0.7,0.3
		C197.2,422.7,196.9,423,196.5,423.2z M196.5,408.9c-0.4,0.2-0.7,0.1-0.7-0.3s0.3-0.8,0.7-0.8s0.7,0.1,0.7,0.3
		S196.9,408.7,196.5,408.9z M196.5,394.6c-0.4,0.2-0.7,0.1-0.7-0.3s0.3-0.8,0.7-0.8s0.7,0.1,0.7,0.3S196.9,394.4,196.5,394.6z
		 M196.5,380.3c-0.4,0.2-0.7,0.1-0.7-0.3s0.3-0.8,0.7-0.8s0.7,0.1,0.7,0.3C197.2,379.7,196.9,380.1,196.5,380.3z M196.5,366
		c-0.4,0.2-0.7,0.1-0.7-0.3s0.3-0.8,0.7-0.8s0.7,0.1,0.7,0.3S196.9,365.7,196.5,366z M196.5,351.7c-0.4,0.2-0.7,0.1-0.7-0.3
		s0.3-0.8,0.7-0.8s0.7,0.1,0.7,0.3S196.9,351.4,196.5,351.7z M196.5,337.4c-0.4,0.2-0.7,0.1-0.7-0.3s0.3-0.8,0.7-0.8
		s0.7,0.1,0.7,0.3S196.9,337.1,196.5,337.4z M196.5,323c-0.4,0.2-0.7,0.1-0.7-0.3s0.3-0.8,0.7-0.8s0.7,0.1,0.7,0.3
		C197.2,322.5,196.9,322.8,196.5,323z M196.5,309.1c-0.4,0-0.7-0.3-0.7-0.7c0-0.4,0.3-0.7,0.7-0.7s0.7,0.3,0.7,0.7
		C197.2,308.8,196.9,309.1,196.5,309.1z M196.5,294.8c-0.4,0-0.7-0.5-0.7-1.1s0.3-0.9,0.7-0.7c0.4,0.2,0.7,0.7,0.7,1.1
		C197.2,294.5,196.9,294.8,196.5,294.8z M196.5,280.5c-0.4,0-0.7-0.3-0.7-0.7c0-0.4,0.3-0.7,0.7-0.7s0.7,0.3,0.7,0.7
		C197.2,280.1,196.9,280.5,196.5,280.5z M196.5,266.2c-0.4,0-0.7-0.3-0.7-0.7c0-0.4,0.3-0.7,0.7-0.7s0.7,0.3,0.7,0.7
		C197.2,265.8,196.9,266.2,196.5,266.2z M196.5,251.8c-0.4,0-0.7-0.3-0.7-0.7s0.3-0.7,0.7-0.7s0.7,0.3,0.7,0.7
		S196.9,251.8,196.5,251.8z M203.7,430.4c-0.4,0.2-0.7,0.1-0.7-0.3s0.3-0.8,0.7-0.8s0.7,0.1,0.7,0.3S204,430.1,203.7,430.4z
		 M203.7,416.1c-0.4,0.2-0.7,0.1-0.7-0.3s0.3-0.8,0.7-0.8s0.7,0.1,0.7,0.3S204,415.8,203.7,416.1z M203.7,401.8
		c-0.4,0.2-0.7,0.1-0.7-0.3s0.3-0.8,0.7-0.8s0.7,0.1,0.7,0.3C204.4,401.2,204,401.5,203.7,401.8z M203.7,387.5
		c-0.4,0.2-0.7,0.1-0.7-0.3s0.3-0.8,0.7-0.8s0.7,0.1,0.7,0.3S204,387.2,203.7,387.5z M203.7,373.1c-0.4,0.2-0.7,0.1-0.7-0.3
		s0.3-0.8,0.7-0.8s0.7,0.1,0.7,0.3C204.4,372.6,204,372.9,203.7,373.1z M203.7,359.2c-0.4,0-0.7-0.3-0.7-0.7c0-0.4,0.3-0.7,0.7-0.7
		s0.7,0.3,0.7,0.7C204.4,358.9,204,359.2,203.7,359.2z M203.7,344.5c-0.4,0.2-0.7,0.1-0.7-0.3s0.3-0.8,0.7-0.8s0.7,0.1,0.7,0.3
		S204,344.3,203.7,344.5z M203.7,330.2c-0.4,0.2-0.7,0.1-0.7-0.3s0.3-0.8,0.7-0.8s0.7,0.1,0.7,0.3S204,330,203.7,330.2z
		 M203.7,316.2c-0.4,0-0.7-0.3-0.7-0.7c0-0.4,0.3-0.7,0.7-0.7s0.7,0.3,0.7,0.7C204.4,315.9,204,316.2,203.7,316.2z M203.7,301.9
		c-0.4,0-0.7-0.3-0.7-0.7c0-0.4,0.3-0.7,0.7-0.7s0.7,0.3,0.7,0.7S204,301.9,203.7,301.9z M203.7,287.6c-0.4,0-0.7-0.3-0.7-0.7
		c0-0.4,0.3-0.7,0.7-0.7s0.7,0.3,0.7,0.7C204.4,287.3,204,287.6,203.7,287.6z M203.7,273.3c-0.4,0-0.7-0.3-0.7-0.7
		c0-0.4,0.3-0.7,0.7-0.7s0.7,0.3,0.7,0.7S204,273.3,203.7,273.3z M203.7,259c-0.4,0-0.7-0.3-0.7-0.7c0-0.4,0.3-0.7,0.7-0.7
		s0.7,0.3,0.7,0.7S204,259,203.7,259z M203.7,244.7c-0.4,0-0.7-0.5-0.7-1.1s0.3-0.9,0.7-0.7s0.7,0.7,0.7,1.1
		C204.4,244.4,204,244.7,203.7,244.7z M210.8,437.2c-0.5,0-0.7-0.2-0.5-0.5c0.3-0.3,0.7-0.3,1,0S211.3,437.2,210.8,437.2z
		 M210.8,423.2c-0.4,0.2-0.7,0.1-0.7-0.3s0.3-0.8,0.7-0.8s0.7,0.1,0.7,0.3C211.5,422.7,211.2,423,210.8,423.2z M210.3,408.1
		c0.3-0.3,0.7-0.3,1,0s0,0.5-0.5,0.5S210.1,408.3,210.3,408.1z M210.8,395c-0.4,0-0.7-0.3-0.7-0.7c0-0.4,0.3-0.7,0.7-0.7
		s0.7,0.3,0.7,0.7C211.5,394.6,211.2,395,210.8,395z M210.8,380.3c-0.4,0.2-0.7,0.1-0.7-0.3s0.3-0.8,0.7-0.8s0.7,0.1,0.7,0.3
		C211.5,379.7,211.2,380.1,210.8,380.3z M210.8,366c-0.4,0.2-0.7,0.1-0.7-0.3s0.3-0.8,0.7-0.8s0.7,0.1,0.7,0.3
		S211.2,365.7,210.8,366z M210.8,352c-0.4,0-0.7-0.3-0.7-0.7c0-0.4,0.3-0.7,0.7-0.7s0.7,0.3,0.7,0.7S211.2,352,210.8,352z
		 M210.8,337.4c-0.4,0.2-0.7,0.1-0.7-0.3s0.3-0.8,0.7-0.8s0.7,0.1,0.7,0.3S211.2,337.1,210.8,337.4z M210.8,323
		c-0.4,0.2-0.7,0.1-0.7-0.3s0.3-0.8,0.7-0.8s0.7,0.1,0.7,0.3C211.5,322.5,211.2,322.8,210.8,323z M210.8,308.7
		c-0.4,0.2-0.7,0.1-0.7-0.3s0.3-0.8,0.7-0.8s0.7,0.1,0.7,0.3S211.2,308.5,210.8,308.7z M210.8,294.8c-0.4,0-0.7-0.3-0.7-0.7
		c0-0.4,0.3-0.7,0.7-0.7s0.7,0.3,0.7,0.7S211.2,294.8,210.8,294.8z M210.8,280.5c-0.4,0-0.7-0.3-0.7-0.7c0-0.4,0.3-0.7,0.7-0.7
		s0.7,0.3,0.7,0.7C211.5,280.1,211.2,280.5,210.8,280.5z M210.8,266.2c-0.4,0-0.7-0.5-0.7-1.1s0.3-0.9,0.7-0.7
		c0.4,0.2,0.7,0.7,0.7,1.1C211.5,265.8,211.2,266.2,210.8,266.2z M210.8,251.8c-0.4,0-0.7-0.3-0.7-0.7s0.3-0.7,0.7-0.7
		s0.7,0.3,0.7,0.7S211.2,251.8,210.8,251.8z M210.8,237.5c-0.4,0-0.7-0.3-0.7-0.7s0.3-0.7,0.7-0.7s0.7,0.3,0.7,0.7
		S211.2,237.5,210.8,237.5z M218,444.7c-0.4,0.2-0.7,0.1-0.7-0.3s0.3-0.8,0.7-0.8s0.7,0.1,0.7,0.3S218.4,444.5,218,444.7z
		 M217.5,429.6c0.3-0.3,0.7-0.3,1,0s0,0.5-0.5,0.5C217.4,430,217.2,429.8,217.5,429.6z M218,416.1c-0.4,0.2-0.7,0.1-0.7-0.3
		s0.3-0.8,0.7-0.8s0.7,0.1,0.7,0.3S218.4,415.8,218,416.1z M218,401.8c-0.4,0.2-0.7,0.1-0.7-0.3s0.3-0.8,0.7-0.8s0.7,0.1,0.7,0.3
		C218.7,401.2,218.4,401.5,218,401.8z M218,387.5c-0.4,0.2-0.7,0.1-0.7-0.3s0.3-0.8,0.7-0.8s0.7,0.1,0.7,0.3S218.4,387.2,218,387.5z
		 M218,373.1c-0.4,0.2-0.7,0.1-0.7-0.3s0.3-0.8,0.7-0.8s0.7,0.1,0.7,0.3C218.7,372.6,218.4,372.9,218,373.1z M218,359.2
		c-0.4,0-0.7-0.3-0.7-0.7c0-0.4,0.3-0.7,0.7-0.7s0.7,0.3,0.7,0.7C218.7,358.9,218.4,359.2,218,359.2z M218,344.5
		c-0.4,0.2-0.7,0.1-0.7-0.3s0.3-0.8,0.7-0.8s0.7,0.1,0.7,0.3S218.4,344.3,218,344.5z M218,330.2c-0.4,0.2-0.7,0.1-0.7-0.3
		s0.3-0.8,0.7-0.8s0.7,0.1,0.7,0.3S218.4,330,218,330.2z M218,316.2c-0.4,0-0.7-0.3-0.7-0.7c0-0.4,0.3-0.7,0.7-0.7s0.7,0.3,0.7,0.7
		C218.7,315.9,218.4,316.2,218,316.2z M218,301.9c-0.4,0-0.7-0.3-0.7-0.7c0-0.4,0.3-0.7,0.7-0.7s0.7,0.3,0.7,0.7
		S218.4,301.9,218,301.9z M218,287.6c-0.4,0-0.7-0.5-0.7-1.1s0.3-0.9,0.7-0.7c0.4,0.2,0.7,0.7,0.7,1.1S218.4,287.6,218,287.6z
		 M218,273.3c-0.4,0-0.7-0.3-0.7-0.7c0-0.4,0.3-0.7,0.7-0.7s0.7,0.3,0.7,0.7S218.4,273.3,218,273.3z M218,259
		c-0.4,0-0.7-0.5-0.7-1.1s0.3-0.9,0.7-0.7c0.4,0.2,0.7,0.7,0.7,1.1C218.7,258.7,218.4,259,218,259z M218,244.7
		c-0.4,0-0.7-0.3-0.7-0.7s0.3-0.7,0.7-0.7s0.7,0.3,0.7,0.7S218.4,244.7,218,244.7z M218,230.4c-0.4,0-0.7-0.5-0.7-1.1
		s0.3-0.9,0.7-0.7s0.7,0.7,0.7,1.1S218.4,230.4,218,230.4z M225.1,465.8c-0.5,0-0.7-0.2-0.5-0.5c0.3-0.3,0.7-0.3,1,0
		C225.9,465.6,225.7,465.8,225.1,465.8z M225.1,451.5c-0.5,0-0.7-0.2-0.5-0.5c0.3-0.3,0.7-0.3,1,0
		C225.9,451.3,225.7,451.5,225.1,451.5z M225.1,437.5c-0.4,0.2-0.7,0.1-0.7-0.3s0.3-0.8,0.7-0.8s0.7,0.1,0.7,0.3
		C225.8,437,225.5,437.3,225.1,437.5z M225.1,423.2c-0.4,0.2-0.7,0.1-0.7-0.3s0.3-0.8,0.7-0.8s0.7,0.1,0.7,0.3
		C225.8,422.7,225.5,423,225.1,423.2z M225.1,409.3c-0.4,0-0.7-0.3-0.7-0.7c0-0.4,0.3-0.7,0.7-0.7s0.7,0.3,0.7,0.7
		S225.5,409.3,225.1,409.3z M225.1,394.6c-0.4,0.2-0.7,0.1-0.7-0.3s0.3-0.8,0.7-0.8s0.7,0.1,0.7,0.3S225.5,394.4,225.1,394.6z
		 M225.1,380.3c-0.4,0.2-0.7,0.1-0.7-0.3s0.3-0.8,0.7-0.8s0.7,0.1,0.7,0.3C225.8,379.7,225.5,380.1,225.1,380.3z M225.1,366
		c-0.4,0.2-0.7,0.1-0.7-0.3s0.3-0.8,0.7-0.8s0.7,0.1,0.7,0.3S225.5,365.7,225.1,366z M225.1,351.7c-0.4,0.2-0.7,0.1-0.7-0.3
		s0.3-0.8,0.7-0.8s0.7,0.1,0.7,0.3S225.5,351.4,225.1,351.7z M225.1,337.4c-0.4,0.2-0.7,0.1-0.7-0.3s0.3-0.8,0.7-0.8
		s0.7,0.1,0.7,0.3S225.5,337.1,225.1,337.4z M225.1,323.4c-0.4,0-0.7-0.3-0.7-0.7c0-0.4,0.3-0.7,0.7-0.7s0.7,0.3,0.7,0.7
		S225.5,323.4,225.1,323.4z M225.1,309.1c-0.4,0-0.7-0.3-0.7-0.7c0-0.4,0.3-0.7,0.7-0.7s0.7,0.3,0.7,0.7
		C225.8,308.8,225.5,309.1,225.1,309.1z M225.1,294.8c-0.4,0-0.7-0.5-0.7-1.1s0.3-0.9,0.7-0.7c0.4,0.2,0.7,0.7,0.7,1.1
		C225.8,294.5,225.5,294.8,225.1,294.8z M225.1,280.5c-0.4,0-0.7-0.3-0.7-0.7c0-0.4,0.3-0.7,0.7-0.7s0.7,0.3,0.7,0.7
		C225.8,280.1,225.5,280.5,225.1,280.5z M225.1,266.2c-0.4,0-0.7-0.3-0.7-0.7c0-0.4,0.3-0.7,0.7-0.7s0.7,0.3,0.7,0.7
		C225.8,265.8,225.5,266.2,225.1,266.2z M225.1,251.8c-0.4,0-0.7-0.3-0.7-0.7s0.3-0.7,0.7-0.7s0.7,0.3,0.7,0.7
		S225.5,251.8,225.1,251.8z M225.1,237.5c-0.4,0-0.7-0.5-0.7-1.1s0.3-0.9,0.7-0.7s0.7,0.7,0.7,1.1
		C225.8,237.2,225.5,237.5,225.1,237.5z M225.1,223.2c-0.4,0-0.7-0.5-0.7-1.1s0.3-0.9,0.7-0.7s0.7,0.7,0.7,1.1
		C225.8,222.9,225.5,223.2,225.1,223.2z M232.3,473c-0.5,0-0.7-0.2-0.5-0.5c0.3-0.3,0.7-0.3,1,0C233,472.8,232.8,473,232.3,473z
		 M232.3,458.7c-0.5,0-0.7-0.2-0.5-0.5c0.3-0.3,0.7-0.3,1,0C233,458.4,232.8,458.7,232.3,458.7z M232.3,444.3
		c-0.5,0-0.7-0.2-0.5-0.5c0.3-0.3,0.7-0.3,1,0C233,444.1,232.8,444.3,232.3,444.3z M232.3,430c-0.5,0-0.7-0.2-0.5-0.5
		c0.3-0.3,0.7-0.3,1,0C233,429.8,232.8,430,232.3,430z M232.3,416.4c-0.4,0-0.7-0.3-0.7-0.7c0-0.4,0.3-0.7,0.7-0.7s0.7,0.3,0.7,0.7
		S232.7,416.4,232.3,416.4z M232.3,401.8c-0.4,0.2-0.7,0.1-0.7-0.3s0.3-0.8,0.7-0.8s0.7,0.1,0.7,0.3
		C233,401.2,232.7,401.5,232.3,401.8z M232.3,387.8c-0.4,0-0.7-0.3-0.7-0.7c0-0.4,0.3-0.7,0.7-0.7s0.7,0.3,0.7,0.7
		S232.7,387.8,232.3,387.8z M232.3,373.1c-0.4,0.2-0.7,0.1-0.7-0.3s0.3-0.8,0.7-0.8s0.7,0.1,0.7,0.3
		C233,372.6,232.7,372.9,232.3,373.1z M232.3,358.8c-0.4,0.2-0.7,0.1-0.7-0.3s0.3-0.8,0.7-0.8s0.7,0.1,0.7,0.3
		C233,358.2,232.7,358.6,232.3,358.8z M232.3,344.9c-0.4,0-0.7-0.3-0.7-0.7c0-0.4,0.3-0.7,0.7-0.7s0.7,0.3,0.7,0.7
		S232.7,344.9,232.3,344.9z M232.3,330.6c-0.4,0-0.7-0.3-0.7-0.7c0-0.4,0.3-0.7,0.7-0.7s0.7,0.3,0.7,0.7
		C233,330.2,232.7,330.6,232.3,330.6z M232.3,316.2c-0.4,0-0.7-0.5-0.7-1.1s0.3-0.9,0.7-0.7c0.4,0.2,0.7,0.7,0.7,1.1
		S232.7,316.2,232.3,316.2z M232.3,301.9c-0.4,0-0.7-0.3-0.7-0.7c0-0.4,0.3-0.7,0.7-0.7s0.7,0.3,0.7,0.7S232.7,301.9,232.3,301.9z
		 M232.3,287.6c-0.4,0-0.7-0.3-0.7-0.7c0-0.4,0.3-0.7,0.7-0.7s0.7,0.3,0.7,0.7C233,287.3,232.7,287.6,232.3,287.6z M232.3,273.3
		c-0.4,0-0.7-0.3-0.7-0.7c0-0.4,0.3-0.7,0.7-0.7s0.7,0.3,0.7,0.7S232.7,273.3,232.3,273.3z M232.3,259c-0.4,0-0.7-0.3-0.7-0.7
		c0-0.4,0.3-0.7,0.7-0.7s0.7,0.3,0.7,0.7S232.7,259,232.3,259z M232.3,244.7c-0.4,0-0.7-0.5-0.7-1.1s0.3-0.9,0.7-0.7
		s0.7,0.7,0.7,1.1C233,244.4,232.7,244.7,232.3,244.7z M232.3,230.4c-0.4,0-0.7-0.5-0.7-1.1s0.3-0.9,0.7-0.7s0.7,0.7,0.7,1.1
		S232.7,230.4,232.3,230.4z M232.3,216.1c-0.4,0-0.7-0.5-0.7-1.1s0.3-0.9,0.7-0.7s0.7,0.7,0.7,1.1
		C233,215.8,232.7,216.1,232.3,216.1z M239.4,508.8c-0.5,0-0.7-0.2-0.5-0.5c0.3-0.3,0.7-0.3,1,0C240.2,508.5,240,508.8,239.4,508.8z
		 M239.4,494.4c-0.5,0-0.7-0.2-0.5-0.5c0.3-0.3,0.7-0.3,1,0C240.2,494.2,240,494.4,239.4,494.4z M239.4,480.1
		c-0.5,0-0.7-0.2-0.5-0.5c0.3-0.3,0.7-0.3,1,0S240,480.1,239.4,480.1z M239.4,466.2c-0.4,0.2-0.7,0.1-0.7-0.3s0.3-0.8,0.7-0.8
		s0.7,0.1,0.7,0.3C240.2,465.6,239.8,465.9,239.4,466.2z M239.4,451.9c-0.4,0.2-0.7,0.1-0.7-0.3s0.3-0.8,0.7-0.8s0.7,0.1,0.7,0.3
		C240.2,451.3,239.8,451.6,239.4,451.9z M239.4,437.5c-0.4,0.2-0.7,0.1-0.7-0.3s0.3-0.8,0.7-0.8s0.7,0.1,0.7,0.3
		C240.2,437,239.8,437.3,239.4,437.5z M239.4,423.2c-0.4,0.2-0.7,0.1-0.7-0.3s0.3-0.8,0.7-0.8s0.7,0.1,0.7,0.3
		C240.2,422.7,239.8,423,239.4,423.2z M239.4,408.9c-0.4,0.2-0.7,0.1-0.7-0.3s0.3-0.8,0.7-0.8s0.7,0.1,0.7,0.3
		C240.2,408.3,239.8,408.7,239.4,408.9z M239.4,394.6c-0.4,0.2-0.7,0.1-0.7-0.3s0.3-0.8,0.7-0.8s0.7,0.1,0.7,0.3
		C240.2,394,239.8,394.4,239.4,394.6z M239.4,380.7c-0.4,0-0.7-0.3-0.7-0.7c0-0.4,0.3-0.7,0.7-0.7s0.7,0.3,0.7,0.7
		C240.2,380.3,239.8,380.7,239.4,380.7z M239.4,366c-0.4,0.2-0.7,0.1-0.7-0.3s0.3-0.8,0.7-0.8s0.7,0.1,0.7,0.3
		C240.2,365.4,239.8,365.7,239.4,366z M239.4,351.7c-0.4,0.2-0.7,0.1-0.7-0.3s0.3-0.8,0.7-0.8s0.7,0.1,0.7,0.3
		C240.2,351.1,239.8,351.4,239.4,351.7z M239.4,337.7c-0.4,0-0.7-0.5-0.7-1.1s0.3-0.9,0.7-0.7c0.4,0.2,0.7,0.7,0.7,1.1
		S239.8,337.7,239.4,337.7z M239.4,323.4c-0.4,0-0.7-0.5-0.7-1.1s0.3-0.9,0.7-0.7c0.4,0.2,0.7,0.7,0.7,1.1S239.8,323.4,239.4,323.4z
		 M239.4,309.1c-0.4,0-0.7-0.5-0.7-1.1s0.3-0.9,0.7-0.7c0.4,0.2,0.7,0.7,0.7,1.1C240.2,308.8,239.8,309.1,239.4,309.1z M239.4,294.8
		c-0.4,0-0.7-0.3-0.7-0.7c0-0.4,0.3-0.7,0.7-0.7s0.7,0.3,0.7,0.7C240.2,294.5,239.8,294.8,239.4,294.8z M239.4,280.5
		c-0.4,0-0.7-0.5-0.7-1.1s0.3-0.9,0.7-0.7c0.4,0.2,0.7,0.7,0.7,1.1C240.2,280.2,239.8,280.5,239.4,280.5z M239.4,266.2
		c-0.4,0-0.7-0.5-0.7-1.1s0.3-0.9,0.7-0.7c0.4,0.2,0.7,0.7,0.7,1.1C240.2,265.8,239.8,266.2,239.4,266.2z M239.4,251.8
		c-0.4,0-0.7-0.5-0.7-1.1s0.3-0.9,0.7-0.7s0.7,0.7,0.7,1.1C240.2,251.5,239.8,251.8,239.4,251.8z M239.4,237.5
		c-0.4,0-0.7-0.5-0.7-1.1s0.3-0.9,0.7-0.7s0.7,0.7,0.7,1.1C240.2,237.2,239.8,237.5,239.4,237.5z M239.4,223.2
		c-0.4,0-0.7-0.5-0.7-1.1s0.3-0.9,0.7-0.7s0.7,0.7,0.7,1.1C240.2,222.9,239.8,223.2,239.4,223.2z M239.4,208.9
		c-0.4,0-0.7-0.5-0.7-1.1s0.3-0.9,0.7-0.7s0.7,0.7,0.7,1.1C240.2,208.6,239.8,208.9,239.4,208.9z M246.6,544.5
		c-0.5,0-0.7-0.2-0.5-0.5c0.3-0.3,0.7-0.3,1,0C247.3,544.3,247.1,544.5,246.6,544.5z M246.6,530.2c-0.5,0-0.7-0.2-0.5-0.5
		c0.3-0.3,0.7-0.3,1,0C247.3,530,247.1,530.2,246.6,530.2z M246.6,515.9c-0.5,0-0.7-0.2-0.5-0.5c0.3-0.3,0.7-0.3,1,0
		C247.3,515.7,247.1,515.9,246.6,515.9z M246.6,501.6c-0.5,0-0.7-0.2-0.5-0.5c0.3-0.3,0.7-0.3,1,0
		C247.3,501.4,247.1,501.6,246.6,501.6z M246.6,487.3c-0.5,0-0.7-0.2-0.5-0.5c0.3-0.3,0.7-0.3,1,0
		C247.3,487.1,247.1,487.3,246.6,487.3z M246.6,473.3c-0.4,0.2-0.7,0.1-0.7-0.3s0.3-0.8,0.7-0.8s0.7,0.1,0.7,0.3
		C247.3,472.7,247,473.1,246.6,473.3z M246.6,459c-0.4,0.2-0.7,0.1-0.7-0.3s0.3-0.8,0.7-0.8s0.7,0.1,0.7,0.3S247,458.8,246.6,459z
		 M246.1,443.9c0.3-0.3,0.7-0.3,1,0s0,0.5-0.5,0.5C246.1,444.3,245.9,444.1,246.1,443.9z M246.6,430.4c-0.4,0.2-0.7,0.1-0.7-0.3
		s0.3-0.8,0.7-0.8s0.7,0.1,0.7,0.3S247,430.1,246.6,430.4z M246.6,416.4c-0.4,0-0.7-0.3-0.7-0.7c0-0.4,0.3-0.7,0.7-0.7
		s0.7,0.3,0.7,0.7S247,416.4,246.6,416.4z M246.6,401.8c-0.4,0.2-0.7,0.1-0.7-0.3s0.3-0.8,0.7-0.8s0.7,0.1,0.7,0.3
		C247.3,401.2,247,401.5,246.6,401.8z M246.6,387.5c-0.4,0.2-0.7,0.1-0.7-0.3s0.3-0.8,0.7-0.8s0.7,0.1,0.7,0.3
		S247,387.2,246.6,387.5z M246.6,373.1c-0.4,0.2-0.7,0.1-0.7-0.3s0.3-0.8,0.7-0.8s0.7,0.1,0.7,0.3
		C247.3,372.6,247,372.9,246.6,373.1z M246.6,359.2c-0.4,0-0.7-0.3-0.7-0.7c0-0.4,0.3-0.7,0.7-0.7s0.7,0.3,0.7,0.7
		C247.3,358.9,247,359.2,246.6,359.2z M246.6,344.9c-0.4,0-0.7-0.3-0.7-0.7c0-0.4,0.3-0.7,0.7-0.7s0.7,0.3,0.7,0.7
		S247,344.9,246.6,344.9z M246.6,330.6c-0.4,0-0.7-0.5-0.7-1.1s0.3-0.9,0.7-0.7c0.4,0.2,0.7,0.7,0.7,1.1S247,330.6,246.6,330.6z
		 M246.6,316.2c-0.4,0-0.7-0.3-0.7-0.7c0-0.4,0.3-0.7,0.7-0.7s0.7,0.3,0.7,0.7C247.3,315.9,247,316.2,246.6,316.2z M246.6,301.9
		c-0.4,0-0.7-0.3-0.7-0.7c0-0.4,0.3-0.7,0.7-0.7s0.7,0.3,0.7,0.7S247,301.9,246.6,301.9z M246.6,287.6c-0.4,0-0.7-0.5-0.7-1.1
		s0.3-0.9,0.7-0.7c0.4,0.2,0.7,0.7,0.7,1.1S247,287.6,246.6,287.6z M246.6,273.3c-0.4,0-0.7-0.3-0.7-0.7c0-0.4,0.3-0.7,0.7-0.7
		s0.7,0.3,0.7,0.7S247,273.3,246.6,273.3z M246.6,259c-0.4,0-0.7-0.5-0.7-1.1s0.3-0.9,0.7-0.7c0.4,0.2,0.7,0.7,0.7,1.1
		C247.3,258.7,247,259,246.6,259z M246.6,244.7c-0.4,0-0.7-0.5-0.7-1.1s0.3-0.9,0.7-0.7s0.7,0.7,0.7,1.1
		C247.3,244.4,247,244.7,246.6,244.7z M246.6,230.4c-0.4,0-0.7-0.5-0.7-1.1s0.3-0.9,0.7-0.7s0.7,0.7,0.7,1.1S247,230.4,246.6,230.4z
		 M246.6,216.1c-0.4,0-0.7-0.5-0.7-1.1s0.3-0.9,0.7-0.7s0.7,0.7,0.7,1.1C247.3,215.8,247,216.1,246.6,216.1z M253.8,537.4
		c-0.5,0-0.7-0.2-0.5-0.5c0.3-0.3,0.7-0.3,1,0C254.5,537.2,254.3,537.4,253.8,537.4z M253.8,523.1c-0.5,0-0.7-0.2-0.5-0.5
		c0.3-0.3,0.7-0.3,1,0C254.5,522.9,254.3,523.1,253.8,523.1z M253.8,509.1c-0.4,0.2-0.7,0.1-0.7-0.3s0.3-0.8,0.7-0.8
		s0.7,0.1,0.7,0.3S254.1,508.9,253.8,509.1z M253.8,494.8c-0.4,0.2-0.7,0.1-0.7-0.3s0.3-0.8,0.7-0.8s0.7,0.1,0.7,0.3
		C254.5,494.2,254.1,494.6,253.8,494.8z M253.8,480.5c-0.4,0.2-0.7,0.1-0.7-0.3s0.3-0.8,0.7-0.8s0.7,0.1,0.7,0.3
		S254.1,480.2,253.8,480.5z M253.3,465.3c0.3-0.3,0.7-0.3,1,0s0,0.5-0.5,0.5C253.2,465.8,253,465.6,253.3,465.3z M253.8,451.9
		c-0.4,0.2-0.7,0.1-0.7-0.3s0.3-0.8,0.7-0.8s0.7,0.1,0.7,0.3S254.1,451.6,253.8,451.9z M253.8,437.5c-0.4,0.2-0.7,0.1-0.7-0.3
		s0.3-0.8,0.7-0.8s0.7,0.1,0.7,0.3C254.5,437,254.1,437.3,253.8,437.5z M253.8,423.6c-0.4,0-0.7-0.3-0.7-0.7c0-0.4,0.3-0.7,0.7-0.7
		s0.7,0.3,0.7,0.7C254.5,423.3,254.1,423.6,253.8,423.6z M253.8,409.3c-0.4,0-0.7-0.3-0.7-0.7c0-0.4,0.3-0.7,0.7-0.7
		s0.7,0.3,0.7,0.7S254.1,409.3,253.8,409.3z M253.8,394.6c-0.4,0.2-0.7,0.1-0.7-0.3s0.3-0.8,0.7-0.8s0.7,0.1,0.7,0.3
		S254.1,394.4,253.8,394.6z M253.8,380.7c-0.4,0-0.7-0.3-0.7-0.7c0-0.4,0.3-0.7,0.7-0.7s0.7,0.3,0.7,0.7
		C254.5,380.3,254.1,380.7,253.8,380.7z M253.8,366c-0.4,0.2-0.7,0.1-0.7-0.3s0.3-0.8,0.7-0.8s0.7,0.1,0.7,0.3
		S254.1,365.7,253.8,366z M253.8,352c-0.4,0-0.7-0.3-0.7-0.7c0-0.4,0.3-0.7,0.7-0.7s0.7,0.3,0.7,0.7S254.1,352,253.8,352z
		 M253.8,337.7c-0.4,0-0.7-0.3-0.7-0.7c0-0.4,0.3-0.7,0.7-0.7s0.7,0.3,0.7,0.7C254.5,337.4,254.1,337.7,253.8,337.7z M253.8,323.4
		c-0.4,0-0.7-0.3-0.7-0.7c0-0.4,0.3-0.7,0.7-0.7s0.7,0.3,0.7,0.7S254.1,323.4,253.8,323.4z M253.8,309.1c-0.4,0-0.7-0.3-0.7-0.7
		c0-0.4,0.3-0.7,0.7-0.7s0.7,0.3,0.7,0.7C254.5,308.8,254.1,309.1,253.8,309.1z M253.8,294.8c-0.4,0-0.7-0.3-0.7-0.7
		c0-0.4,0.3-0.7,0.7-0.7s0.7,0.3,0.7,0.7S254.1,294.8,253.8,294.8z M253.8,280.5c-0.4,0-0.7-0.5-0.7-1.1s0.3-0.9,0.7-0.7
		c0.4,0.2,0.7,0.7,0.7,1.1C254.5,280.2,254.1,280.5,253.8,280.5z M253.8,266.2c-0.4,0-0.7-0.5-0.7-1.1s0.3-0.9,0.7-0.7
		c0.4,0.2,0.7,0.7,0.7,1.1C254.5,265.8,254.1,266.2,253.8,266.2z M253.8,251.8c-0.4,0-0.7-0.5-0.7-1.1s0.3-0.9,0.7-0.7
		s0.7,0.7,0.7,1.1C254.5,251.5,254.1,251.8,253.8,251.8z M253.8,237.5c-0.4,0-0.7-0.5-0.7-1.1s0.3-0.9,0.7-0.7s0.7,0.7,0.7,1.1
		C254.5,237.2,254.1,237.5,253.8,237.5z M253.8,223.2c-0.4,0-0.7-0.5-0.7-1.1s0.3-0.9,0.7-0.7s0.7,0.7,0.7,1.1
		C254.5,222.9,254.1,223.2,253.8,223.2z M253.8,208.9c-0.4,0-0.7-0.5-0.7-1.1s0.3-0.9,0.7-0.7s0.7,0.7,0.7,1.1
		S254.1,208.9,253.8,208.9z M260.9,544.5c-0.5,0-0.7-0.2-0.5-0.5c0.3-0.3,0.7-0.3,1,0C261.6,544.3,261.4,544.5,260.9,544.5z
		 M260.9,530.2c-0.5,0-0.7-0.2-0.5-0.5c0.3-0.3,0.7-0.3,1,0C261.6,530,261.4,530.2,260.9,530.2z M260.9,516.3
		c-0.4,0.2-0.7,0.1-0.7-0.3c0-0.4,0.3-0.8,0.7-0.8c0.4,0,0.7,0.1,0.7,0.3S261.3,516,260.9,516.3z M260.9,502
		c-0.4,0.2-0.7,0.1-0.7-0.3s0.3-0.8,0.7-0.8c0.4,0,0.7,0.1,0.7,0.3S261.3,501.7,260.9,502z M260.9,487.6c-0.4,0.2-0.7,0.1-0.7-0.3
		s0.3-0.8,0.7-0.8c0.4,0,0.7,0.1,0.7,0.3C261.6,487.1,261.3,487.4,260.9,487.6z M260.4,472.5c0.3-0.3,0.7-0.3,1,0s0,0.5-0.5,0.5
		S260.2,472.8,260.4,472.5z M260.9,459c-0.4,0.2-0.7,0.1-0.7-0.3s0.3-0.8,0.7-0.8c0.4,0,0.7,0.1,0.7,0.3S261.3,458.8,260.9,459z
		 M260.9,444.7c-0.4,0.2-0.7,0.1-0.7-0.3s0.3-0.8,0.7-0.8c0.4,0,0.7,0.1,0.7,0.3S261.3,444.5,260.9,444.7z M260.9,430.7
		c-0.4,0-0.7-0.3-0.7-0.7c0-0.4,0.3-0.7,0.7-0.7c0.4,0,0.7,0.3,0.7,0.7C261.6,430.4,261.3,430.7,260.9,430.7z M260.9,416.1
		c-0.4,0.2-0.7,0.1-0.7-0.3s0.3-0.8,0.7-0.8c0.4,0,0.7,0.1,0.7,0.3S261.3,415.8,260.9,416.1z M260.9,401.8c-0.4,0.2-0.7,0.1-0.7-0.3
		s0.3-0.8,0.7-0.8c0.4,0,0.7,0.1,0.7,0.3C261.6,401.2,261.3,401.5,260.9,401.8z M260.9,387.5c-0.4,0.2-0.7,0.1-0.7-0.3
		s0.3-0.8,0.7-0.8c0.4,0,0.7,0.1,0.7,0.3S261.3,387.2,260.9,387.5z M260.9,373.5c-0.4,0-0.7-0.3-0.7-0.7c0-0.4,0.3-0.7,0.7-0.7
		c0.4,0,0.7,0.3,0.7,0.7S261.3,373.5,260.9,373.5z M260.9,359.2c-0.4,0-0.7-0.5-0.7-1.1s0.3-0.9,0.7-0.7c0.4,0.2,0.7,0.7,0.7,1.1
		S261.3,359.2,260.9,359.2z M260.9,344.9c-0.4,0-0.7-0.3-0.7-0.7c0-0.4,0.3-0.7,0.7-0.7c0.4,0,0.7,0.3,0.7,0.7
		S261.3,344.9,260.9,344.9z M260.9,330.6c-0.4,0-0.7-0.3-0.7-0.7c0-0.4,0.3-0.7,0.7-0.7c0.4,0,0.7,0.3,0.7,0.7
		C261.6,330.2,261.3,330.6,260.9,330.6z M260.9,316.2c-0.4,0-0.7-0.3-0.7-0.7c0-0.4,0.3-0.7,0.7-0.7c0.4,0,0.7,0.3,0.7,0.7
		C261.6,315.9,261.3,316.2,260.9,316.2z M260.9,301.9c-0.4,0-0.7-0.5-0.7-1.1s0.3-0.9,0.7-0.7c0.4,0.2,0.7,0.7,0.7,1.1
		S261.3,301.9,260.9,301.9z M260.9,287.6c-0.4,0-0.7-0.5-0.7-1.1s0.3-0.9,0.7-0.7c0.4,0.2,0.7,0.7,0.7,1.1S261.3,287.6,260.9,287.6z
		 M260.9,273.3c-0.4,0-0.7-0.5-0.7-1.1s0.3-0.9,0.7-0.7c0.4,0.2,0.7,0.7,0.7,1.1C261.6,273,261.3,273.3,260.9,273.3z M260.9,259
		c-0.4,0-0.7-0.5-0.7-1.1s0.3-0.9,0.7-0.7c0.4,0.2,0.7,0.7,0.7,1.1C261.6,258.7,261.3,259,260.9,259z M260.9,244.7
		c-0.4,0-0.7-0.5-0.7-1.1s0.3-0.9,0.7-0.7c0.4,0.2,0.7,0.7,0.7,1.1C261.6,244.4,261.3,244.7,260.9,244.7z M260.9,230.4
		c-0.4,0-0.7-0.5-0.7-1.1s0.3-0.9,0.7-0.7c0.4,0.2,0.7,0.7,0.7,1.1S261.3,230.4,260.9,230.4z M260.9,216.1c-0.4,0-0.7-0.5-0.7-1.1
		s0.3-0.9,0.7-0.7c0.4,0.2,0.7,0.7,0.7,1.1C261.6,215.8,261.3,216.1,260.9,216.1z M260.9,201.7c-0.4,0-0.7-0.5-0.7-1.1
		s0.3-0.9,0.7-0.7c0.4,0.2,0.7,0.7,0.7,1.1C261.6,201.4,261.3,201.7,260.9,201.7z M268.1,537.4c-0.5,0-0.7-0.2-0.5-0.5
		c0.3-0.3,0.7-0.3,1,0C268.8,537.2,268.6,537.4,268.1,537.4z M268.1,523.4c-0.4,0.2-0.7,0.1-0.7-0.3c0-0.4,0.3-0.8,0.7-0.8
		c0.4,0,0.7,0.1,0.7,0.3C268.8,522.8,268.5,523.2,268.1,523.4z M268.1,509.1c-0.4,0.2-0.7,0.1-0.7-0.3s0.3-0.8,0.7-0.8
		c0.4,0,0.7,0.1,0.7,0.3C268.8,508.5,268.5,508.9,268.1,509.1z M268.1,494.8c-0.4,0.2-0.7,0.1-0.7-0.3s0.3-0.8,0.7-0.8
		c0.4,0,0.7,0.1,0.7,0.3C268.8,494.2,268.5,494.6,268.1,494.8z M268.1,480.5c-0.4,0.2-0.7,0.1-0.7-0.3s0.3-0.8,0.7-0.8
		c0.4,0,0.7,0.1,0.7,0.3C268.8,479.9,268.5,480.2,268.1,480.5z M268.1,466.2c-0.4,0.2-0.7,0.1-0.7-0.3s0.3-0.8,0.7-0.8
		c0.4,0,0.7,0.1,0.7,0.3C268.8,465.6,268.5,465.9,268.1,466.2z M268.1,451.9c-0.4,0.2-0.7,0.1-0.7-0.3s0.3-0.8,0.7-0.8
		c0.4,0,0.7,0.1,0.7,0.3C268.8,451.3,268.5,451.6,268.1,451.9z M268.1,437.5c-0.4,0.2-0.7,0.1-0.7-0.3s0.3-0.8,0.7-0.8
		c0.4,0,0.7,0.1,0.7,0.3C268.8,437,268.5,437.3,268.1,437.5z M268.1,423.2c-0.4,0.2-0.7,0.1-0.7-0.3s0.3-0.8,0.7-0.8
		c0.4,0,0.7,0.1,0.7,0.3C268.8,422.7,268.5,423,268.1,423.2z M268.1,409.3c-0.4,0-0.7-0.3-0.7-0.7c0-0.4,0.3-0.7,0.7-0.7
		c0.4,0,0.7,0.3,0.7,0.7C268.8,409,268.5,409.3,268.1,409.3z M268.1,395c-0.4,0-0.7-0.3-0.7-0.7c0-0.4,0.3-0.7,0.7-0.7
		c0.4,0,0.7,0.3,0.7,0.7C268.8,394.6,268.5,395,268.1,395z M268.1,380.7c-0.4,0-0.7-0.3-0.7-0.7c0-0.4,0.3-0.7,0.7-0.7
		c0.4,0,0.7,0.3,0.7,0.7C268.8,380.3,268.5,380.7,268.1,380.7z M268.1,366.3c-0.4,0-0.7-0.3-0.7-0.7c0-0.4,0.3-0.7,0.7-0.7
		c0.4,0,0.7,0.3,0.7,0.7C268.8,366,268.5,366.3,268.1,366.3z M268.1,352c-0.4,0-0.7-0.3-0.7-0.7c0-0.4,0.3-0.7,0.7-0.7
		c0.4,0,0.7,0.3,0.7,0.7C268.8,351.7,268.5,352,268.1,352z M268.1,337.7c-0.4,0-0.7-0.5-0.7-1.1s0.3-0.9,0.7-0.7
		c0.4,0.2,0.7,0.7,0.7,1.1S268.5,337.7,268.1,337.7z M268.1,323.4c-0.4,0-0.7-0.5-0.7-1.1s0.3-0.9,0.7-0.7c0.4,0.2,0.7,0.7,0.7,1.1
		S268.5,323.4,268.1,323.4z M268.1,309.1c-0.4,0-0.7-0.5-0.7-1.1s0.3-0.9,0.7-0.7c0.4,0.2,0.7,0.7,0.7,1.1
		C268.8,308.8,268.5,309.1,268.1,309.1z M268.1,294.8c-0.4,0-0.7-0.5-0.7-1.1s0.3-0.9,0.7-0.7c0.4,0.2,0.7,0.7,0.7,1.1
		C268.8,294.5,268.5,294.8,268.1,294.8z M268.1,280.5c-0.4,0-0.7-0.5-0.7-1.1s0.3-0.9,0.7-0.7c0.4,0.2,0.7,0.7,0.7,1.1
		C268.8,280.2,268.5,280.5,268.1,280.5z M268.1,266.2c-0.4,0-0.7-0.5-0.7-1.1s0.3-0.9,0.7-0.7c0.4,0.2,0.7,0.7,0.7,1.1
		C268.8,265.8,268.5,266.2,268.1,266.2z M268.1,251.8c-0.4,0-0.7-0.5-0.7-1.1s0.3-0.9,0.7-0.7c0.4,0.2,0.7,0.7,0.7,1.1
		C268.8,251.5,268.5,251.8,268.1,251.8z M268.1,237.5c-0.4,0-0.7-0.5-0.7-1.1s0.3-0.9,0.7-0.7c0.4,0.2,0.7,0.7,0.7,1.1
		C268.8,237.2,268.5,237.5,268.1,237.5z M268.1,223.2c-0.4,0-0.7-0.5-0.7-1.1s0.3-0.9,0.7-0.7c0.4,0.2,0.7,0.7,0.7,1.1
		C268.8,222.9,268.5,223.2,268.1,223.2z M268.1,208.9c-0.4,0-0.7-0.5-0.7-1.1s0.3-0.9,0.7-0.7c0.4,0.2,0.7,0.7,0.7,1.1
		C268.8,208.6,268.5,208.9,268.1,208.9z M268.1,194.6c-0.4,0-0.7-0.5-0.7-1.1s0.3-0.9,0.7-0.7c0.4,0.2,0.7,0.7,0.7,1.1
		C268.8,194.3,268.5,194.6,268.1,194.6z M275.2,544.5c-0.5,0-0.7-0.2-0.5-0.5c0.3-0.3,0.7-0.3,1,0S275.7,544.5,275.2,544.5z
		 M275.2,530.2c-0.5,0-0.7-0.2-0.5-0.5c0.3-0.3,0.7-0.3,1,0S275.7,530.2,275.2,530.2z M275.2,516.3c-0.4,0.2-0.7,0.1-0.7-0.3
		c0-0.4,0.3-0.8,0.7-0.8c0.4,0,0.7,0.1,0.7,0.3C275.9,515.7,275.6,516,275.2,516.3z M275.2,502c-0.4,0.2-0.7,0.1-0.7-0.3
		s0.3-0.8,0.7-0.8c0.4,0,0.7,0.1,0.7,0.3C275.9,501.4,275.6,501.7,275.2,502z M275.2,487.6c-0.4,0.2-0.7,0.1-0.7-0.3
		s0.3-0.8,0.7-0.8c0.4,0,0.7,0.1,0.7,0.3C275.9,487.1,275.6,487.4,275.2,487.6z M275.2,473.3c-0.4,0.2-0.7,0.1-0.7-0.3
		s0.3-0.8,0.7-0.8c0.4,0,0.7,0.1,0.7,0.3C275.9,472.7,275.6,473.1,275.2,473.3z M275.2,459.4c-0.4,0-0.7-0.3-0.7-0.7
		c0-0.4,0.3-0.7,0.7-0.7c0.4,0,0.7,0.3,0.7,0.7C275.9,459.1,275.6,459.4,275.2,459.4z M275.2,444.7c-0.4,0.2-0.7,0.1-0.7-0.3
		s0.3-0.8,0.7-0.8c0.4,0,0.7,0.1,0.7,0.3C275.9,444.1,275.6,444.5,275.2,444.7z M275.2,430.4c-0.4,0.2-0.7,0.1-0.7-0.3
		s0.3-0.8,0.7-0.8c0.4,0,0.7,0.1,0.7,0.3C275.9,429.8,275.6,430.1,275.2,430.4z M275.2,416.4c-0.4,0-0.7-0.3-0.7-0.7
		c0-0.4,0.3-0.7,0.7-0.7c0.4,0,0.7,0.3,0.7,0.7C275.9,416.1,275.6,416.4,275.2,416.4z M275.2,402.1c-0.4,0-0.7-0.3-0.7-0.7
		c0-0.4,0.3-0.7,0.7-0.7c0.4,0,0.7,0.3,0.7,0.7C275.9,401.8,275.6,402.1,275.2,402.1z M275.2,387.8c-0.4,0-0.7-0.3-0.7-0.7
		c0-0.4,0.3-0.7,0.7-0.7c0.4,0,0.7,0.3,0.7,0.7C275.9,387.5,275.6,387.8,275.2,387.8z M275.2,373.5c-0.4,0-0.7-0.5-0.7-1.1
		s0.3-0.9,0.7-0.7c0.4,0.2,0.7,0.7,0.7,1.1C275.9,373.2,275.6,373.5,275.2,373.5z M275.2,359.2c-0.4,0-0.7-0.3-0.7-0.7
		c0-0.4,0.3-0.7,0.7-0.7c0.4,0,0.7,0.3,0.7,0.7C275.9,358.9,275.6,359.2,275.2,359.2z M275.2,344.9c-0.4,0-0.7-0.5-0.7-1.1
		s0.3-0.9,0.7-0.7c0.4,0.2,0.7,0.7,0.7,1.1C275.9,344.6,275.6,344.9,275.2,344.9z M275.2,330.6c-0.4,0-0.7-0.5-0.7-1.1
		s0.3-0.9,0.7-0.7c0.4,0.2,0.7,0.7,0.7,1.1C275.9,330.3,275.6,330.6,275.2,330.6z M275.2,316.2c-0.4,0-0.7-0.5-0.7-1.1
		s0.3-0.9,0.7-0.7c0.4,0.2,0.7,0.7,0.7,1.1C275.9,315.9,275.6,316.2,275.2,316.2z M275.2,301.9c-0.4,0-0.7-0.5-0.7-1.1
		s0.3-0.9,0.7-0.7c0.4,0.2,0.7,0.7,0.7,1.1C275.9,301.6,275.6,301.9,275.2,301.9z M275.2,287.6c-0.4,0-0.7-0.5-0.7-1.1
		s0.3-0.9,0.7-0.7c0.4,0.2,0.7,0.7,0.7,1.1C275.9,287.3,275.6,287.6,275.2,287.6z M275.2,273.3c-0.4,0-0.7-0.5-0.7-1.1
		s0.3-0.9,0.7-0.7c0.4,0.2,0.7,0.7,0.7,1.1C275.9,273,275.6,273.3,275.2,273.3z M275.2,259c-0.4,0-0.7-0.5-0.7-1.1s0.3-0.9,0.7-0.7
		c0.4,0.2,0.7,0.7,0.7,1.1C275.9,258.7,275.6,259,275.2,259z M275.2,244.7c-0.4,0-0.7-0.5-0.7-1.1s0.3-0.9,0.7-0.7
		c0.4,0.2,0.7,0.7,0.7,1.1C275.9,244.4,275.6,244.7,275.2,244.7z M275.2,230.4c-0.4,0-0.7-0.5-0.7-1.1s0.3-0.9,0.7-0.7
		c0.4,0.2,0.7,0.7,0.7,1.1C275.9,230.1,275.6,230.4,275.2,230.4z M275.2,216.1c-0.4,0-0.7-0.5-0.7-1.1s0.3-0.9,0.7-0.7
		c0.4,0.2,0.7,0.7,0.7,1.1C275.9,215.8,275.6,216.1,275.2,216.1z M275.2,201.7c-0.4,0-0.7-0.5-0.7-1.1s0.3-1.1,0.7-1.1
		c0.4,0,0.7,0.5,0.7,1.1C275.9,201.3,275.6,201.7,275.2,201.7z M282.4,537.7c-0.4,0.2-0.7,0.1-0.7-0.3c0-0.4,0.3-0.8,0.7-0.8
		c0.4,0,0.7,0.1,0.7,0.3C283.1,537.2,282.8,537.5,282.4,537.7z M282.4,523.4c-0.4,0.2-0.7,0.1-0.7-0.3c0-0.4,0.3-0.8,0.7-0.8
		c0.4,0,0.7,0.1,0.7,0.3C283.1,522.8,282.8,523.2,282.4,523.4z M282.4,509.1c-0.4,0.2-0.7,0.1-0.7-0.3s0.3-0.8,0.7-0.8
		c0.4,0,0.7,0.1,0.7,0.3S282.8,508.9,282.4,509.1z M282.4,494.8c-0.4,0.2-0.7,0.1-0.7-0.3s0.3-0.8,0.7-0.8c0.4,0,0.7,0.1,0.7,0.3
		C283.1,494.2,282.8,494.6,282.4,494.8z M282.4,480.5c-0.4,0.2-0.7,0.1-0.7-0.3s0.3-0.8,0.7-0.8c0.4,0,0.7,0.1,0.7,0.3
		S282.8,480.2,282.4,480.5z M282.4,466.2c-0.4,0.2-0.7,0.1-0.7-0.3s0.3-0.8,0.7-0.8c0.4,0,0.7,0.1,0.7,0.3S282.8,465.9,282.4,466.2z
		 M282.4,451.9c-0.4,0.2-0.7,0.1-0.7-0.3s0.3-0.8,0.7-0.8c0.4,0,0.7,0.1,0.7,0.3S282.8,451.6,282.4,451.9z M282.4,437.9
		c-0.4,0-0.7-0.3-0.7-0.7c0-0.4,0.3-0.7,0.7-0.7c0.4,0,0.7,0.3,0.7,0.7S282.8,437.9,282.4,437.9z M282.4,423.6
		c-0.4,0-0.7-0.3-0.7-0.7c0-0.4,0.3-0.7,0.7-0.7c0.4,0,0.7,0.3,0.7,0.7C283.1,423.3,282.8,423.6,282.4,423.6z M282.4,409.3
		c-0.4,0-0.7-0.3-0.7-0.7c0-0.4,0.3-0.7,0.7-0.7c0.4,0,0.7,0.3,0.7,0.7S282.8,409.3,282.4,409.3z M282.4,395c-0.4,0-0.7-0.3-0.7-0.7
		s0.3-0.7,0.7-0.7c0.4,0,0.7,0.3,0.7,0.7S282.8,395,282.4,395z M282.4,380.7c-0.4,0-0.7-0.3-0.7-0.7c0-0.4,0.3-0.7,0.7-0.7
		c0.4,0,0.7,0.3,0.7,0.7C283.1,380.3,282.8,380.7,282.4,380.7z M282.4,366.3c-0.4,0-0.7-0.5-0.7-1.1s0.3-0.9,0.7-0.7
		c0.4,0.2,0.7,0.7,0.7,1.1C283.1,366,282.8,366.3,282.4,366.3z M282.4,352c-0.4,0-0.7-0.5-0.7-1.1s0.3-0.9,0.7-0.7
		c0.4,0.2,0.7,0.7,0.7,1.1C283.1,351.7,282.8,352,282.4,352z M282.4,337.7c-0.4,0-0.7-0.5-0.7-1.1s0.3-0.9,0.7-0.7
		c0.4,0.2,0.7,0.7,0.7,1.1S282.8,337.7,282.4,337.7z M282.4,323.4c-0.4,0-0.7-0.5-0.7-1.1s0.3-0.9,0.7-0.7c0.4,0.2,0.7,0.7,0.7,1.1
		C283.1,323.1,282.8,323.4,282.4,323.4z M282.4,309.1c-0.4,0-0.7-0.5-0.7-1.1s0.3-0.9,0.7-0.7c0.4,0.2,0.7,0.7,0.7,1.1
		S282.8,309.1,282.4,309.1z M282.4,294.8c-0.4,0-0.7-0.5-0.7-1.1s0.3-0.9,0.7-0.7c0.4,0.2,0.7,0.7,0.7,1.1
		C283.1,294.5,282.8,294.8,282.4,294.8z M282.4,280.5c-0.4,0-0.7-0.5-0.7-1.1s0.3-0.9,0.7-0.7c0.4,0.2,0.7,0.7,0.7,1.1
		C283.1,280.2,282.8,280.5,282.4,280.5z M282.4,266.2c-0.4,0-0.7-0.5-0.7-1.1s0.3-0.9,0.7-0.7c0.4,0.2,0.7,0.7,0.7,1.1
		C283.1,265.8,282.8,266.2,282.4,266.2z M282.4,251.8c-0.4,0-0.7-0.5-0.7-1.1s0.3-0.9,0.7-0.7c0.4,0.2,0.7,0.7,0.7,1.1
		C283.1,251.5,282.8,251.8,282.4,251.8z M282.4,237.5c-0.4,0-0.7-0.5-0.7-1.1s0.3-1.1,0.7-1.1c0.4,0,0.7,0.5,0.7,1.1
		S282.8,237.5,282.4,237.5z M282.4,223.2c-0.4,0-0.7-0.5-0.7-1.1s0.3-1.1,0.7-1.1c0.4,0,0.7,0.5,0.7,1.1S282.8,223.2,282.4,223.2z
		 M282.4,208.9c-0.4,0-0.7-0.5-0.7-1.1s0.3-1.1,0.7-1.1c0.4,0,0.7,0.5,0.7,1.1S282.8,208.9,282.4,208.9z M282.4,194.6
		c-0.4,0-0.7-0.5-0.7-1.1s0.3-1.1,0.7-1.1c0.4,0,0.7,0.5,0.7,1.1S282.8,194.6,282.4,194.6z M289.5,544.9c-0.4,0.2-0.7,0.1-0.7-0.3
		c0-0.4,0.3-0.8,0.7-0.8c0.4,0,0.7,0.1,0.7,0.3C290.2,544.3,289.9,544.7,289.5,544.9z M289.5,530.9c-0.4,0-0.7-0.5-0.7-1.1
		s0.3-0.9,0.7-0.7c0.4,0.2,0.7,0.7,0.7,1.1S289.9,530.9,289.5,530.9z M289.5,516.3c-0.4,0.2-0.7,0.1-0.7-0.3c0-0.4,0.3-0.8,0.7-0.8
		c0.4,0,0.7,0.1,0.7,0.3S289.9,516,289.5,516.3z M289.5,502.3c-0.4,0-0.7-0.3-0.7-0.7c0-0.4,0.3-0.7,0.7-0.7c0.4,0,0.7,0.3,0.7,0.7
		S289.9,502.3,289.5,502.3z M289.5,488c-0.4,0-0.7-0.3-0.7-0.7c0-0.4,0.3-0.7,0.7-0.7c0.4,0,0.7,0.3,0.7,0.7S289.9,488,289.5,488z
		 M289.5,473.7c-0.4,0-0.7-0.5-0.7-1.1s0.3-0.9,0.7-0.7c0.4,0.2,0.7,0.7,0.7,1.1S289.9,473.7,289.5,473.7z M289.5,459.4
		c-0.4,0-0.7-0.3-0.7-0.7c0-0.4,0.3-0.7,0.7-0.7c0.4,0,0.7,0.3,0.7,0.7S289.9,459.4,289.5,459.4z M289.5,445.1
		c-0.4,0-0.7-0.5-0.7-1.1s0.3-0.9,0.7-0.7c0.4,0.2,0.7,0.7,0.7,1.1S289.9,445.1,289.5,445.1z M289.5,430.7c-0.4,0-0.7-0.3-0.7-0.7
		c0-0.4,0.3-0.7,0.7-0.7c0.4,0,0.7,0.3,0.7,0.7C290.2,430.4,289.9,430.7,289.5,430.7z M289.5,416.4c-0.4,0-0.7-0.3-0.7-0.7
		c0-0.4,0.3-0.7,0.7-0.7c0.4,0,0.7,0.3,0.7,0.7S289.9,416.4,289.5,416.4z M289.5,402.1c-0.4,0-0.7-0.5-0.7-1.1s0.3-0.9,0.7-0.7
		c0.4,0.2,0.7,0.7,0.7,1.1S289.9,402.1,289.5,402.1z M289.5,387.8c-0.4,0-0.7-0.5-0.7-1.1s0.3-0.9,0.7-0.7c0.4,0.2,0.7,0.7,0.7,1.1
		C290.2,387.5,289.9,387.8,289.5,387.8z M289.5,373.5c-0.4,0-0.7-0.5-0.7-1.1s0.3-0.9,0.7-0.7c0.4,0.2,0.7,0.7,0.7,1.1
		C290.2,373.2,289.9,373.5,289.5,373.5z M289.5,359.2c-0.4,0-0.7-0.5-0.7-1.1s0.3-0.9,0.7-0.7c0.4,0.2,0.7,0.7,0.7,1.1
		S289.9,359.2,289.5,359.2z M289.5,344.9c-0.4,0-0.7-0.5-0.7-1.1s0.3-0.9,0.7-0.7c0.4,0.2,0.7,0.7,0.7,1.1
		C290.2,344.6,289.9,344.9,289.5,344.9z M289.5,330.6c-0.4,0-0.7-0.5-0.7-1.1s0.3-0.9,0.7-0.7c0.4,0.2,0.7,0.7,0.7,1.1
		S289.9,330.6,289.5,330.6z M289.5,316.2c-0.4,0-0.7-0.5-0.7-1.1s0.3-0.9,0.7-0.7c0.4,0.2,0.7,0.7,0.7,1.1S289.9,316.2,289.5,316.2z
		 M289.5,301.9c-0.4,0-0.7-0.5-0.7-1.1s0.3-0.9,0.7-0.7c0.4,0.2,0.7,0.7,0.7,1.1C290.2,301.6,289.9,301.9,289.5,301.9z M289.5,287.6
		c-0.4,0-0.7-0.5-0.7-1.1s0.3-0.9,0.7-0.7c0.4,0.2,0.7,0.7,0.7,1.1S289.9,287.6,289.5,287.6z M289.5,273.3c-0.4,0-0.7-0.5-0.7-1.1
		s0.3-0.9,0.7-0.7c0.4,0.2,0.7,0.7,0.7,1.1C290.2,273,289.9,273.3,289.5,273.3z M289.5,258.9c-1.1-0.4-1.2-1.5-0.2-1.8
		c0.5-0.2,0.9,0.2,0.9,0.9C290.2,258.6,289.9,259,289.5,258.9z M289.5,244.7c-0.4,0-0.7-0.5-0.7-1.1s0.3-1.1,0.7-1.1
		c0.4,0,0.7,0.5,0.7,1.1S289.9,244.7,289.5,244.7z M289.5,230.4c-0.4,0-0.7-0.5-0.7-1.1s0.3-1.1,0.7-1.1c0.4,0,0.7,0.5,0.7,1.1
		S289.9,230.4,289.5,230.4z M289.5,216.1c-0.4,0-0.7-0.5-0.7-1.1s0.3-1.1,0.7-1.1c0.4,0,0.7,0.5,0.7,1.1S289.9,216.1,289.5,216.1z
		 M289.5,201.6c-1.1-0.4-1.2-1.5-0.2-1.8c0.5-0.2,0.9,0.2,0.9,0.9C290.2,201.3,289.9,201.8,289.5,201.6z M310.2,192.9
		c0.6-0.6,1-0.6,1.6,0s0.6,0.9,0,1.3C310.6,194.9,309.3,193.9,310.2,192.9z M310.2,207.2c0.6-0.6,1-0.6,1.6,0s0.6,0.9,0,1.3
		C310.6,209.2,309.3,208.2,310.2,207.2z M296.7,538.1c-0.4,0-0.7-0.3-0.7-0.7s0.3-0.7,0.7-0.7c0.4,0,0.7,0.3,0.7,0.7
		C297.4,537.8,297.1,538.1,296.7,538.1z M296.7,523.4c-0.4,0.2-0.7,0.1-0.7-0.3c0-0.4,0.3-0.8,0.7-0.8c0.4,0,0.7,0.1,0.7,0.3
		C297.4,522.8,297.1,523.2,296.7,523.4z M296.7,509.1c-0.4,0.2-0.7,0.1-0.7-0.3s0.3-0.8,0.7-0.8c0.4,0,0.7,0.1,0.7,0.3
		C297.4,508.5,297.1,508.9,296.7,509.1z M296.7,495.2c-0.4,0-0.7-0.5-0.7-1.1s0.3-0.9,0.7-0.7c0.4,0.2,0.7,0.7,0.7,1.1
		C297.4,494.9,297.1,495.2,296.7,495.2z M296.7,480.8c-0.4,0-0.7-0.3-0.7-0.7c0-0.4,0.3-0.7,0.7-0.7c0.4,0,0.7,0.3,0.7,0.7
		C297.4,480.5,297.1,480.8,296.7,480.8z M296.7,466.5c-0.4,0-0.7-0.5-0.7-1.1s0.3-0.9,0.7-0.7c0.4,0.2,0.7,0.7,0.7,1.1
		C297.4,466.2,297.1,466.5,296.7,466.5z M296.7,452.2c-0.4,0-0.7-0.3-0.7-0.7c0-0.4,0.3-0.7,0.7-0.7c0.4,0,0.7,0.3,0.7,0.7
		C297.4,451.9,297.1,452.2,296.7,452.2z M296.7,437.9c-0.4,0-0.7-0.5-0.7-1.1s0.3-0.9,0.7-0.7c0.4,0.2,0.7,0.7,0.7,1.1
		C297.4,437.6,297.1,437.9,296.7,437.9z M296.7,423.6c-0.4,0-0.7-0.5-0.7-1.1s0.3-0.9,0.7-0.7c0.4,0.2,0.7,0.7,0.7,1.1
		C297.4,423.3,297.1,423.6,296.7,423.6z M296.7,409.3c-0.4,0-0.7-0.5-0.7-1.1s0.3-0.9,0.7-0.7c0.4,0.2,0.7,0.7,0.7,1.1
		S297.1,409.3,296.7,409.3z M296.7,395c-0.4,0-0.7-0.5-0.7-1.1s0.3-0.9,0.7-0.7c0.4,0.2,0.7,0.7,0.7,1.1S297.1,395,296.7,395z
		 M296.7,380.7c-0.4,0-0.7-0.5-0.7-1.1s0.3-0.9,0.7-0.7c0.4,0.2,0.7,0.7,0.7,1.1C297.4,380.4,297.1,380.7,296.7,380.7z M296.7,366.3
		c-0.4,0-0.7-0.5-0.7-1.1s0.3-0.9,0.7-0.7c0.4,0.2,0.7,0.7,0.7,1.1C297.4,366,297.1,366.3,296.7,366.3z M296.7,352
		c-0.4,0-0.7-0.5-0.7-1.1s0.3-0.9,0.7-0.7c0.4,0.2,0.7,0.7,0.7,1.1C297.4,351.7,297.1,352,296.7,352z M296.7,337.7
		c-0.4,0-0.7-0.5-0.7-1.1s0.3-0.9,0.7-0.7c0.4,0.2,0.7,0.7,0.7,1.1C297.4,337.4,297.1,337.7,296.7,337.7z M296.7,323.4
		c-0.4,0-0.7-0.5-0.7-1.1s0.3-1.1,0.7-1.1c0.4,0,0.7,0.5,0.7,1.1C297.4,322.9,297.1,323.4,296.7,323.4z M296.7,309.1
		c-0.4,0-0.7-0.5-0.7-1.1s0.3-0.9,0.7-0.7c0.4,0.2,0.7,0.7,0.7,1.1S297.1,309.1,296.7,309.1z M296.7,294.8c-0.4,0-0.7-0.5-0.7-1.1
		s0.3-1.1,0.7-1.1c0.4,0,0.7,0.5,0.7,1.1C297.4,294.3,297.1,294.8,296.7,294.8z M296.7,280.5c-0.4,0-0.7-0.5-0.7-1.1
		s0.3-1.1,0.7-1.1c0.4,0,0.7,0.5,0.7,1.1C297.4,280,297.1,280.5,296.7,280.5z M296.7,266.2c-0.4,0-0.7-0.5-0.7-1.1s0.3-1.1,0.7-1.1
		c0.4,0,0.7,0.5,0.7,1.1C297.4,265.7,297.1,266.2,296.7,266.2z M296.7,251.8c-0.4,0-0.7-0.5-0.7-1.1s0.3-1.1,0.7-1.1
		c0.4,0,0.7,0.5,0.7,1.1C297.4,251.4,297.1,251.8,296.7,251.8z M296.7,237.4c-1.1-0.4-1.2-1.5-0.2-1.8c0.5-0.2,0.9,0.2,0.9,0.9
		C297.4,237.1,297.1,237.5,296.7,237.4z M296.7,223.1c-1.1-0.4-1.2-1.5-0.2-1.8c0.5-0.2,0.9,0.2,0.9,0.9
		C297.4,222.8,297.1,223.2,296.7,223.1z M296.7,208.8c-1.1-0.4-1.2-1.5-0.2-1.8c0.5-0.2,0.9,0.2,0.9,0.9
		C297.4,208.5,297.1,208.9,296.7,208.8z M296.7,194.5c-1.1-0.4-1.2-1.5-0.2-1.8c0.5-0.2,0.9,0.2,0.9,0.9
		C297.4,194.2,297.1,194.6,296.7,194.5z M303.8,545.3c-0.4,0-0.7-0.3-0.7-0.7s0.3-0.7,0.7-0.7c0.4,0,0.7,0.3,0.7,0.7
		C304.6,544.9,304.2,545.3,303.8,545.3z M303.8,530.9c-0.4,0-0.7-0.3-0.7-0.7s0.3-0.7,0.7-0.7c0.4,0,0.7,0.3,0.7,0.7
		C304.6,530.6,304.2,530.9,303.8,530.9z M303.8,516.6c-0.4,0-0.7-0.5-0.7-1.1s0.3-0.9,0.7-0.7c0.4,0.2,0.7,0.7,0.7,1.1
		C304.6,516.3,304.2,516.6,303.8,516.6z M303.8,502.3c-0.4,0-0.7-0.3-0.7-0.7c0-0.4,0.3-0.7,0.7-0.7c0.4,0,0.7,0.3,0.7,0.7
		C304.6,502,304.2,502.3,303.8,502.3z M303.8,488c-0.4,0-0.7-0.3-0.7-0.7c0-0.4,0.3-0.7,0.7-0.7c0.4,0,0.7,0.3,0.7,0.7
		C304.6,487.7,304.2,488,303.8,488z M303.8,473.7c-0.4,0-0.7-0.5-0.7-1.1s0.3-0.9,0.7-0.7c0.4,0.2,0.7,0.7,0.7,1.1
		C304.6,473.4,304.2,473.7,303.8,473.7z M303.8,459.4c-0.4,0-0.7-0.5-0.7-1.1s0.3-0.9,0.7-0.7c0.4,0.2,0.7,0.7,0.7,1.1
		C304.6,459.1,304.2,459.4,303.8,459.4z M303.8,445.1c-0.4,0-0.7-0.5-0.7-1.1s0.3-0.9,0.7-0.7c0.4,0.2,0.7,0.7,0.7,1.1
		C304.6,444.8,304.2,445.1,303.8,445.1z M303.8,430.7c-0.4,0-0.7-0.5-0.7-1.1s0.3-0.9,0.7-0.7c0.4,0.2,0.7,0.7,0.7,1.1
		S304.2,430.7,303.8,430.7z M303.8,416.4c-0.4,0-0.7-0.5-0.7-1.1s0.3-0.9,0.7-0.7c0.4,0.2,0.7,0.7,0.7,1.1
		C304.6,416.1,304.2,416.4,303.8,416.4z M303.8,402.1c-0.4,0-0.7-0.5-0.7-1.1s0.3-1.1,0.7-1.1c0.4,0,0.7,0.5,0.7,1.1
		S304.2,402.1,303.8,402.1z M303.8,387.8c-0.4,0-0.7-0.5-0.7-1.1s0.3-0.9,0.7-0.7c0.4,0.2,0.7,0.7,0.7,1.1
		C304.6,387.5,304.2,387.8,303.8,387.8z M303.8,373.5c-0.4,0-0.7-0.5-0.7-1.1s0.3-0.9,0.7-0.7c0.4,0.2,0.7,0.7,0.7,1.1
		C304.6,373.2,304.2,373.5,303.8,373.5z M303.8,359.2c-0.4,0-0.7-0.5-0.7-1.1s0.3-0.9,0.7-0.7c0.4,0.2,0.7,0.7,0.7,1.1
		C304.6,358.9,304.2,359.2,303.8,359.2z M303.8,344.9c-0.4,0-0.7-0.5-0.7-1.1s0.3-1.1,0.7-1.1c0.4,0,0.7,0.5,0.7,1.1
		C304.6,344.4,304.2,344.9,303.8,344.9z M303.8,330.6c-0.4,0-0.7-0.5-0.7-1.1s0.3-1.1,0.7-1.1c0.4,0,0.7,0.5,0.7,1.1
		C304.6,330.1,304.2,330.6,303.8,330.6z M303.8,316.2c-0.4,0-0.7-0.5-0.7-1.1s0.3-1.1,0.7-1.1c0.4,0,0.7,0.5,0.7,1.1
		C304.6,315.8,304.2,316.2,303.8,316.2z M303.8,301.9c-0.4,0-0.7-0.5-0.7-1.1s0.3-1.1,0.7-1.1c0.4,0,0.7,0.5,0.7,1.1
		C304.6,301.5,304.2,301.9,303.8,301.9z M303.8,287.6c-0.4,0-0.7-0.5-0.7-1.1s0.3-1.1,0.7-1.1c0.4,0,0.7,0.5,0.7,1.1
		C304.6,287.1,304.2,287.6,303.8,287.6z M303.8,273.2c-1.1-0.4-1.2-1.5-0.2-1.8c0.5-0.2,0.9,0.2,0.9,0.9
		C304.6,272.9,304.2,273.3,303.8,273.2z M303.8,258.9c-1.1-0.4-1.2-1.5-0.2-1.8c0.5-0.2,0.9,0.2,0.9,0.9
		C304.6,258.6,304.2,259,303.8,258.9z M304.6,244.3c-1.2,0.7-2.5-0.3-1.6-1.3c0.6-0.6,1-0.6,1.6,0S305.2,243.9,304.6,244.3z
		 M304.6,230c-1.2,0.7-2.5-0.3-1.6-1.3c0.6-0.6,1-0.6,1.6,0S305.2,229.6,304.6,230z M304.6,215.7c-1.2,0.7-2.5-0.3-1.6-1.3
		c0.6-0.6,1-0.6,1.6,0S305.2,215.3,304.6,215.7z M304.6,201.3c-1.2,0.7-2.5-0.3-1.6-1.3c0.6-0.6,1-0.6,1.6,0S305.2,201,304.6,201.3z
		 M304.6,187c-1.2,0.7-2.5-0.3-1.6-1.3c0.6-0.6,1-0.6,1.6,0S305.2,186.7,304.6,187z M311,538.1c-0.4,0-0.7-0.3-0.7-0.7
		s0.3-0.7,0.7-0.7c0.4,0,0.7,0.3,0.7,0.7S311.4,538.1,311,538.1z M311,523.8c-0.4,0-0.7-0.5-0.7-1.1s0.3-0.9,0.7-0.7
		c0.4,0.2,0.7,0.7,0.7,1.1C311.7,523.5,311.4,523.8,311,523.8z M311,509.5c-0.4,0-0.7-0.5-0.7-1.1s0.3-0.9,0.7-0.7
		c0.4,0.2,0.7,0.7,0.7,1.1C311.7,509.2,311.4,509.5,311,509.5z M311,495.2c-0.4,0-0.7-0.5-0.7-1.1s0.3-0.9,0.7-0.7
		c0.4,0.2,0.7,0.7,0.7,1.1S311.4,495.2,311,495.2z M311,480.8c-0.4,0-0.7-0.5-0.7-1.1s0.3-0.9,0.7-0.7c0.4,0.2,0.7,0.7,0.7,1.1
		C311.7,480.5,311.4,480.8,311,480.8z M311,466.5c-0.4,0-0.7-0.5-0.7-1.1s0.3-0.9,0.7-0.7c0.4,0.2,0.7,0.7,0.7,1.1
		C311.7,466.2,311.4,466.5,311,466.5z M311,452.2c-0.4,0-0.7-0.5-0.7-1.1s0.3-0.9,0.7-0.7c0.4,0.2,0.7,0.7,0.7,1.1
		S311.4,452.2,311,452.2z M311,437.9c-0.4,0-0.7-0.5-0.7-1.1s0.3-0.9,0.7-0.7c0.4,0.2,0.7,0.7,0.7,1.1
		C311.7,437.6,311.4,437.9,311,437.9z M311,423.6c-0.4,0-0.7-0.5-0.7-1.1s0.3-0.9,0.7-0.7c0.4,0.2,0.7,0.7,0.7,1.1
		S311.4,423.6,311,423.6z M311,409.3c-0.4,0-0.7-0.5-0.7-1.1s0.3-0.9,0.7-0.7c0.4,0.2,0.7,0.7,0.7,1.1
		C311.7,409,311.4,409.3,311,409.3z M311,395c-0.4,0-0.7-0.5-0.7-1.1s0.3-0.9,0.7-0.7c0.4,0.2,0.7,0.7,0.7,1.1S311.4,395,311,395z
		 M311,380.7c-0.4,0-0.7-0.5-0.7-1.1s0.3-1.1,0.7-1.1c0.4,0,0.7,0.5,0.7,1.1S311.4,380.7,311,380.7z M311,366.3
		c-0.4,0-0.7-0.5-0.7-1.1s0.3-1.1,0.7-1.1c0.4,0,0.7,0.5,0.7,1.1C311.7,365.9,311.4,366.3,311,366.3z M311,352
		c-0.4,0-0.7-0.5-0.7-1.1s0.3-1.1,0.7-1.1c0.4,0,0.7,0.5,0.7,1.1S311.4,352,311,352z M311,337.7c-0.4,0-0.7-0.5-0.7-1.1
		s0.3-1.1,0.7-1.1c0.4,0,0.7,0.5,0.7,1.1S311.4,337.7,311,337.7z M311,323.4c-0.4,0-0.7-0.5-0.7-1.1s0.3-1.1,0.7-1.1
		c0.4,0,0.7,0.5,0.7,1.1S311.4,323.4,311,323.4z M311,309c-1.1-0.4-1.2-1.5-0.2-1.8c0.5-0.2,0.9,0.2,0.9,0.9
		C311.7,308.7,311.4,309.1,311,309z M311,294.7c-1.1-0.4-1.2-1.5-0.2-1.8c0.5-0.2,0.9,0.2,0.9,0.9
		C311.7,294.4,311.4,294.8,311,294.7z M311,280.3c-1.1-0.4-1.2-1.5-0.2-1.8c0.5-0.2,0.9,0.2,0.9,0.9
		C311.7,280,311.4,280.5,311,280.3z M311.8,265.8c-1.2,0.7-2.5-0.3-1.6-1.3c0.6-0.6,1-0.6,1.6,0
		C312.3,265.1,312.3,265.4,311.8,265.8z M311.8,251.4c-1.2,0.7-2.5-0.3-1.6-1.3c0.6-0.6,1-0.6,1.6,0
		C312.3,250.7,312.3,251.1,311.8,251.4z M311.8,237.1c-1.2,0.7-2.5-0.3-1.6-1.3c0.6-0.6,1-0.6,1.6,0
		C312.3,236.4,312.3,236.8,311.8,237.1z M311.4,222.9c-1.6,0.6-2.4-0.2-1.3-1.3l0.8-0.8l0.8,0.8l0.8,0.8L311.4,222.9z M318.2,545.3
		c-0.4,0-0.7-0.5-0.7-1.1s0.3-0.9,0.7-0.7c0.4,0.2,0.7,0.7,0.7,1.1C318.9,544.9,318.6,545.3,318.2,545.3z M318.2,530.9
		c-0.4,0-0.7-0.5-0.7-1.1s0.3-0.9,0.7-0.7c0.4,0.2,0.7,0.7,0.7,1.1C318.9,530.6,318.6,530.9,318.2,530.9z M318.2,516.6
		c-0.4,0-0.7-0.5-0.7-1.1s0.3-0.9,0.7-0.7c0.4,0.2,0.7,0.7,0.7,1.1C318.9,516.3,318.6,516.6,318.2,516.6z M318.2,502.3
		c-0.4,0-0.7-0.5-0.7-1.1s0.3-0.9,0.7-0.7c0.4,0.2,0.7,0.7,0.7,1.1S318.6,502.3,318.2,502.3z M318.2,488c-0.4,0-0.7-0.5-0.7-1.1
		s0.3-0.9,0.7-0.7c0.4,0.2,0.7,0.7,0.7,1.1S318.6,488,318.2,488z M318.2,473.7c-0.4,0-0.7-0.5-0.7-1.1s0.3-0.9,0.7-0.7
		c0.4,0.2,0.7,0.7,0.7,1.1C318.9,473.4,318.6,473.7,318.2,473.7z M318.2,459.4c-0.4,0-0.7-0.5-0.7-1.1s0.3-0.9,0.7-0.7
		c0.4,0.2,0.7,0.7,0.7,1.1C318.9,459.1,318.6,459.4,318.2,459.4z M318.2,445.1c-0.4,0-0.7-0.5-0.7-1.1s0.3-0.9,0.7-0.7
		c0.4,0.2,0.7,0.7,0.7,1.1C318.9,444.8,318.6,445.1,318.2,445.1z M318.2,430.7c-0.4,0-0.7-0.5-0.7-1.1s0.3-1.1,0.7-1.1
		c0.4,0,0.7,0.5,0.7,1.1C318.9,430.3,318.6,430.7,318.2,430.7z M318.2,416.4c-0.4,0-0.7-0.5-0.7-1.1s0.3-1.1,0.7-1.1
		c0.4,0,0.7,0.5,0.7,1.1S318.6,416.4,318.2,416.4z M318.2,402.1c-0.4,0-0.7-0.5-0.7-1.1s0.3-1.1,0.7-1.1c0.4,0,0.7,0.5,0.7,1.1
		S318.6,402.1,318.2,402.1z M318.2,387.8c-0.4,0-0.7-0.5-0.7-1.1s0.3-1.1,0.7-1.1c0.4,0,0.7,0.5,0.7,1.1S318.6,387.8,318.2,387.8z
		 M318.2,373.5c-0.4,0-0.7-0.5-0.7-1.1s0.3-1.1,0.7-1.1c0.4,0,0.7,0.5,0.7,1.1C318.9,373,318.6,373.5,318.2,373.5z M318.2,359.1
		c-1.1-0.4-1.2-1.5-0.2-1.8c0.5-0.2,0.9,0.2,0.9,0.9C318.9,358.8,318.6,359.2,318.2,359.1z M318.2,344.8c-1.1-0.4-1.2-1.5-0.2-1.8
		c0.5-0.2,0.9,0.2,0.9,0.9C318.9,344.5,318.6,344.9,318.2,344.8z M318.2,330.4c-1.1-0.4-1.2-1.5-0.2-1.8c0.5-0.2,0.9,0.2,0.9,0.9
		C318.9,330.1,318.6,330.6,318.2,330.4z M318.9,315.9c-1.2,0.7-2.5-0.3-1.6-1.3c0.6-0.6,1-0.6,1.6,0S319.5,315.5,318.9,315.9z
		 M318.9,301.5c-1.2,0.7-2.5-0.3-1.6-1.3c0.6-0.6,1-0.6,1.6,0C319.5,300.8,319.5,301.2,318.9,301.5z M318.9,287.2
		c-1.2,0.7-2.5-0.3-1.6-1.3c0.6-0.6,1-0.6,1.6,0C319.5,286.5,319.5,286.9,318.9,287.2z M318.9,272.9c-1.2,0.7-2.5-0.3-1.6-1.3
		c0.6-0.6,1-0.6,1.6,0S319.5,272.6,318.9,272.9z M318.9,258.6c-1.2,0.7-2.5-0.3-1.6-1.3c0.6-0.6,1-0.6,1.6,0
		C319.5,257.9,319.5,258.3,318.9,258.6z M318.6,244.4c-1.6,0.6-2.4-0.2-1.3-1.3l0.8-0.8l0.8,0.8l0.8,0.8L318.6,244.4z M318.6,230.1
		c-1.6,0.6-2.4-0.2-1.3-1.3l0.8-0.8l0.8,0.8l0.8,0.8L318.6,230.1z M318.6,215.8c-1.6,0.6-2.4-0.2-1.3-1.3l0.8-0.8l0.8,0.8l0.8,0.8
		L318.6,215.8z M318.6,201.5c-1.6,0.6-2.4-0.2-1.3-1.3l0.8-0.8l0.8,0.8l0.8,0.8L318.6,201.5z M318.6,187.1c-1.6,0.6-2.4-0.2-1.3-1.3
		l0.8-0.8l0.8,0.8l0.8,0.8L318.6,187.1z M388.5,199.8l1.1-1.1l1.1,0.9c1.2,1,1.4,1.7,0.6,2.4c-0.8,0.8-3,0.6-3.5-0.3
		C387.6,201.2,387.9,200.4,388.5,199.8z M375.2,457.4c1.4,0.3,2,1.7,1,2.4c-1,0.6-2.2-0.2-2.2-1.5
		C374,457.6,374.5,457.2,375.2,457.4z M374,443.9c0-0.6,0.5-1,1.2-0.9c1.4,0.3,2,1.7,1,2.4C375.1,446,374,445.2,374,443.9z
		 M374.5,472.2c0.5-0.5,1.2-0.6,1.6-0.3c0.9,0.6,1,1.6,0.2,2.1c-0.3,0.2-1,0.1-1.6-0.3l-1-0.6L374.5,472.2z M368.3,192.4
		c1,0,1.4,0.5,1.4,1.4c0,1-0.5,1.4-1.4,1.4c-1,0-1.4-0.5-1.4-1.4C366.8,192.9,367.3,192.4,368.3,192.4z M368.3,206.8
		c1,0,1.4,0.5,1.4,1.4s-0.5,1.4-1.4,1.4c-1,0-1.4-0.5-1.4-1.4S367.3,206.8,368.3,206.8z M368.3,221.1c1,0,1.4,0.5,1.4,1.4
		s-0.5,1.4-1.4,1.4c-1,0-1.4-0.5-1.4-1.4S367.3,221.1,368.3,221.1z M368.3,264c1,0,1.4,0.5,1.4,1.4c0,1-0.5,1.4-1.4,1.4
		c-1,0-1.4-0.5-1.4-1.4C366.8,264.5,367.3,264,368.3,264z M366.8,251.1c0-1,0.5-1.4,1.4-1.4c1,0,1.4,0.5,1.4,1.4
		c0,1-0.5,1.4-1.4,1.4C367.3,252.6,366.8,252.1,366.8,251.1z M368.3,278.3c1.5,0,2,1.7,0.7,2.5c-1,0.6-2.1-0.2-2.1-1.5
		C366.8,278.8,367.5,278.3,368.3,278.3z M368,364.3c1.4,0.3,2,1.7,1,2.4c-1,0.6-2.2-0.2-2.2-1.5C366.8,364.5,367.3,364.2,368,364.3z
		 M366.8,350.9c0-0.6,0.5-1,1.2-0.9c1.4,0.3,2,1.7,1,2.4C368,353,366.8,352.2,366.8,350.9z M368,378.6c1.4,0.3,2,1.7,1,2.4
		c-1,0.6-2.2-0.2-2.2-1.5C366.8,378.9,367.3,378.5,368,378.6z M361.1,199.6c1.4,0,1.9,1.4,1,2.4c-1,1-2.4,0.4-2.4-1
		C359.7,200.1,360.1,199.6,361.1,199.6z M361.1,213.9c1.5,0,2,1.7,0.7,2.5c-1,0.6-2.1-0.2-2.1-1.5
		C359.7,214.4,360.3,213.9,361.1,213.9z M361.1,228.2c1.5,0,2,1.7,0.7,2.5c-1,0.6-2.1-0.2-2.1-1.5
		C359.7,228.7,360.3,228.2,361.1,228.2z M361.1,242.5c1.5,0,2,1.7,0.7,2.5c-1,0.6-2.1-0.2-2.1-1.5
		C359.7,243,360.3,242.5,361.1,242.5z M361.1,256.8c1.5,0,2,1.7,0.7,2.5c-1,0.6-2.1-0.2-2.1-1.5
		C359.7,257.3,360.3,256.8,361.1,256.8z M361.1,271.2c1.5,0,2,1.7,0.7,2.5c-1,0.6-2.1-0.2-2.1-1.5
		C359.7,271.6,360.3,271.2,361.1,271.2z M361.9,288c-1,0.6-2.2-0.2-2.2-1.5c0-0.6,0.5-1,1.2-0.9C362.3,285.9,362.9,287.3,361.9,288z
		 M361.1,299.8c1.5,0,2,1.7,0.7,2.5c-1,0.6-2.1-0.2-2.1-1.5C359.7,300.3,360.3,299.8,361.1,299.8z M361.8,373.9
		c-1.2,0.7-2.6-0.9-1.6-1.9c0.8-0.8,2.4-0.3,2.4,0.8C362.5,373.1,362.2,373.6,361.8,373.9z M362.5,387.1c0,0.3-0.3,0.8-0.8,1.1
		c-1.2,0.7-2.6-0.9-1.6-1.9C361,385.5,362.5,386,362.5,387.1z M361.8,359.6c-1.2,0.7-2.6-0.9-1.6-1.9c0.8-0.8,2.4-0.3,2.4,0.8
		C362.5,358.8,362.2,359.3,361.8,359.6z M361.8,345.3c-1.2,0.7-2.6-0.9-1.6-1.9c0.8-0.8,2.4-0.3,2.4,0.8
		C362.5,344.5,362.2,345,361.8,345.3z M360.9,314.2c1.4,0.3,2,1.7,1,2.4c-1,0.6-2.2-0.2-2.2-1.5
		C359.7,314.5,360.2,314.1,360.9,314.2z M360.9,328.5c1.4,0.3,2,1.7,1,2.4c-1,0.6-2.2-0.2-2.2-1.5
		C359.7,328.8,360.2,328.4,360.9,328.5z M360.1,400.6c0.5-0.5,1.2-0.6,1.6-0.3c0.9,0.6,1,1.6,0.2,2.1c-0.3,0.2-1,0.1-1.6-0.3l-1-0.6
		L360.1,400.6z M360.1,415c0.5-0.5,1.2-0.6,1.6-0.3c0.9,0.6,1,1.6,0.2,2.1c-0.3,0.2-1,0.1-1.6-0.3l-1-0.6L360.1,415z M353.9,192.4
		c1.5,0,2,1.7,0.7,2.5c-1,0.6-2.1-0.2-2.1-1.5C352.5,192.9,353.2,192.4,353.9,192.4z M354.6,309.5c-1.2,0.7-2.6-0.9-1.6-1.9
		c0.8-0.8,2.4-0.3,2.4,0.8C355.4,308.7,355,309.2,354.6,309.5z M355.4,322.7c0,0.3-0.3,0.8-0.8,1.1c-1.2,0.7-2.6-0.9-1.6-1.9
		C353.8,321.1,355.4,321.6,355.4,322.7z M354.6,295.2c-1.2,0.7-2.6-0.9-1.6-1.9c0.8-0.8,2.4-0.3,2.4,0.8
		C355.4,294.4,355,294.9,354.6,295.2z M354.6,280.9c-1.2,0.7-2.6-0.9-1.6-1.9c0.8-0.8,2.4-0.3,2.4,0.8
		C355.4,280.1,355,280.6,354.6,280.9z M353.7,206.9c1.4,0.3,2,1.7,1,2.4c-1,0.6-2.2-0.2-2.2-1.5C352.5,207.1,353,206.7,353.7,206.9z
		 M353.7,221.2c1.4,0.3,2,1.7,1,2.4c-1,0.6-2.2-0.2-2.2-1.5C352.5,221.4,353,221.1,353.7,221.2z M353.7,235.5c1.4,0.3,2,1.7,1,2.4
		c-1,0.6-2.2-0.2-2.2-1.5C352.5,235.7,353,235.4,353.7,235.5z M353.7,249.8c1.4,0.3,2,1.7,1,2.4c-1,0.6-2.2-0.2-2.2-1.5
		C352.5,250,353,249.7,353.7,249.8z M353.7,264.1c1.4,0.3,2,1.7,1,2.4c-1,0.6-2.2-0.2-2.2-1.5C352.5,264.4,353,264,353.7,264.1z
		 M353,336.2c0.5-0.5,1.2-0.6,1.6-0.3c0.9,0.6,1,1.6,0.2,2.1c-0.3,0.2-1,0.1-1.6-0.3l-1-0.6L353,336.2z M353,350.5
		c0.5-0.5,1.2-0.6,1.6-0.3c0.9,0.6,1,1.6,0.2,2.1c-0.3,0.2-1,0.1-1.6-0.3l-1-0.6L353,350.5z M353,364.9c0.5-0.5,1.2-0.6,1.6-0.3
		c0.9,0.6,1,1.6,0.2,2.1c-0.3,0.2-1,0.1-1.6-0.3l-1-0.6L353,364.9z M347.4,245.1c-1.2,0.7-2.6-0.9-1.6-1.9c0.8-0.8,2.4-0.3,2.4,0.8
		C348.2,244.3,347.9,244.8,347.4,245.1z M348.2,258.3c0,0.3-0.3,0.8-0.8,1.1c-1.2,0.7-2.6-0.9-1.6-1.9
		C346.7,256.7,348.2,257.2,348.2,258.3z M347.4,230.8c-1.2,0.7-2.6-0.9-1.6-1.9c0.8-0.8,2.4-0.3,2.4,0.8
		C348.2,230,347.9,230.5,347.4,230.8z M347.4,216.5c-1.2,0.7-2.6-0.9-1.6-1.9c0.8-0.8,2.4-0.3,2.4,0.8
		C348.2,215.7,347.9,216.2,347.4,216.5z M346.5,185.4c1.4,0.3,2,1.7,1,2.4c-1,0.6-2.2-0.2-2.2-1.5
		C345.4,185.6,345.9,185.3,346.5,185.4z M346.5,199.7c1.4,0.3,2,1.7,1,2.4c-1,0.6-2.2-0.2-2.2-1.5
		C345.4,199.9,345.9,199.6,346.5,199.7z M345.8,271.8c0.5-0.5,1.2-0.6,1.6-0.3c0.9,0.6,1,1.6,0.2,2.1c-0.3,0.2-1,0.1-1.6-0.3l-1-0.6
		L345.8,271.8z M345.8,286.1c0.5-0.5,1.2-0.6,1.6-0.3c0.9,0.6,1,1.6,0.2,2.1c-0.3,0.2-1,0.1-1.6-0.3l-1-0.6L345.8,286.1z
		 M345.8,300.5c0.5-0.5,1.2-0.6,1.6-0.3c0.9,0.6,1,1.6,0.2,2.1c-0.3,0.2-1,0.1-1.6-0.3l-1-0.6L345.8,300.5z M338.7,193.1
		c0.8-0.8,2.4-0.3,2.4,0.8c0,0.3-0.3,0.8-0.8,1.1C339.1,195.7,337.7,194.1,338.7,193.1z M338.7,207.4c0.5-0.5,1.2-0.6,1.6-0.3
		c0.9,0.6,1,1.6,0.2,2.1c-0.3,0.2-1,0.1-1.6-0.3l-1-0.6L338.7,207.4z M338.7,221.7c0.5-0.5,1.2-0.6,1.6-0.3c0.9,0.6,1,1.6,0.2,2.1
		c-0.3,0.2-1,0.1-1.6-0.3l-1-0.6L338.7,221.7z M338.7,236c0.5-0.5,1.2-0.6,1.6-0.3c0.9,0.6,1,1.6,0.2,2.1c-0.3,0.2-1,0.1-1.6-0.3
		l-1-0.6L338.7,236z M338.7,250.4c0.5-0.5,1.2-0.6,1.6-0.3c0.9,0.6,1,1.6,0.2,2.1c-0.3,0.2-1,0.1-1.6-0.3l-1-0.6L338.7,250.4z
		 M331.5,185.9c0.5-0.5,1.2-0.6,1.6-0.3c0.9,0.6,1,1.6,0.2,2.1c-0.3,0.2-1,0.1-1.6-0.3l-1-0.6L331.5,185.9z M325.3,538.1
		c-0.4,0-0.7-0.5-0.7-1.1s0.3-0.9,0.7-0.7c0.4,0.2,0.7,0.7,0.7,1.1C326,537.8,325.7,538.1,325.3,538.1z M325.3,523.8
		c-0.4,0-0.7-0.5-0.7-1.1s0.3-0.9,0.7-0.7c0.4,0.2,0.7,0.7,0.7,1.1C326,523.5,325.7,523.8,325.3,523.8z M325.3,509.5
		c-0.4,0-0.7-0.5-0.7-1.1s0.3-0.9,0.7-0.7c0.4,0.2,0.7,0.7,0.7,1.1C326,509.2,325.7,509.5,325.3,509.5z M325.3,495.2
		c-0.4,0-0.7-0.5-0.7-1.1s0.3-0.9,0.7-0.7c0.4,0.2,0.7,0.7,0.7,1.1S325.7,495.2,325.3,495.2z M325.3,480.8c-0.4,0-0.7-0.5-0.7-1.1
		s0.3-0.9,0.7-0.7c0.4,0.2,0.7,0.7,0.7,1.1C326,480.5,325.7,480.8,325.3,480.8z M325.3,466.5c-0.4,0-0.7-0.5-0.7-1.1
		s0.3-1.1,0.7-1.1c0.4,0,0.7,0.5,0.7,1.1S325.7,466.5,325.3,466.5z M325.3,452.2c-0.4,0-0.7-0.5-0.7-1.1s0.3-1.1,0.7-1.1
		c0.4,0,0.7,0.5,0.7,1.1S325.7,452.2,325.3,452.2z M325.3,437.9c-0.4,0-0.7-0.5-0.7-1.1s0.3-1.1,0.7-1.1c0.4,0,0.7,0.5,0.7,1.1
		S325.7,437.9,325.3,437.9z M325.3,423.6c-0.4,0-0.7-0.5-0.7-1.1s0.3-1.1,0.7-1.1c0.4,0,0.7,0.5,0.7,1.1S325.7,423.6,325.3,423.6z
		 M325.3,409.2c-1.1-0.4-1.2-1.5-0.2-1.8c0.5-0.2,0.9,0.2,0.9,0.9S325.7,409.3,325.3,409.2z M325.3,394.8c-1.1-0.4-1.2-1.5-0.2-1.8
		c0.5-0.2,0.9,0.2,0.9,0.9C326,394.5,325.7,395,325.3,394.8z M325.3,380.5c-1.1-0.4-1.2-1.5-0.2-1.8c0.5-0.2,0.9,0.2,0.9,0.9
		C326,380.2,325.7,380.7,325.3,380.5z M326.1,365.9c-1.2,0.7-2.5-0.3-1.6-1.3c0.6-0.6,1-0.6,1.6,0S326.7,365.6,326.1,365.9z
		 M326.1,351.6c-1.2,0.7-2.5-0.3-1.6-1.3c0.6-0.6,1-0.6,1.6,0C326.7,350.9,326.7,351.3,326.1,351.6z M326.1,337.3
		c-1.2,0.7-2.5-0.3-1.6-1.3c0.6-0.6,1-0.6,1.6,0S326.7,337,326.1,337.3z M326.1,323c-1.2,0.7-2.5-0.3-1.6-1.3c0.6-0.6,1-0.6,1.6,0
		C326.7,322.3,326.7,322.7,326.1,323z M326.1,308.7c-1.2,0.7-2.5-0.3-1.6-1.3c0.6-0.6,1-0.6,1.6,0
		C326.7,308,326.7,308.3,326.1,308.7z M326.1,294.4c-1.2,0.7-2.5-0.3-1.6-1.3c0.6-0.6,1-0.6,1.6,0S326.7,294,326.1,294.4z
		 M325.8,280.2c-1.6,0.6-2.4-0.2-1.3-1.3l0.8-0.8l0.8,0.8l0.8,0.8L325.8,280.2z M325.8,265.9c-1.6,0.6-2.4-0.2-1.3-1.3l0.8-0.8
		l0.8,0.8l0.8,0.8L325.8,265.9z M325.8,251.5c-1.6,0.6-2.4-0.2-1.3-1.3l0.8-0.8l0.8,0.8l0.8,0.8L325.8,251.5z M325.8,237.2
		c-1.6,0.6-2.4-0.2-1.3-1.3l0.8-0.8l0.8,0.8l0.8,0.8L325.8,237.2z M324.1,222.3c0.2-0.5,0.7-0.9,1.3-0.9c0.5,0,1.1,0.4,1.3,0.9
		c0.2,0.5-0.3,0.9-1.3,0.9S323.9,222.9,324.1,222.3z M324.1,208c0.2-0.5,0.7-0.9,1.3-0.9c0.5,0,1.1,0.4,1.3,0.9
		c0.2,0.5-0.3,0.9-1.3,0.9S323.9,208.5,324.1,208z M325.8,194.3c-1.6,0.6-2.4-0.2-1.3-1.3l0.8-0.8l0.8,0.8l0.8,0.8L325.8,194.3z
		 M331.5,200.3c0.5-0.5,1.2-0.6,1.6-0.3c0.9,0.6,1,1.6,0.2,2.1c-0.3,0.2-1,0.1-1.6-0.3l-1-0.6L331.5,200.3z M332.5,244.7
		c-0.9,0-1.4-0.4-1.3-0.9c0.2-0.5,0.7-0.9,1.3-0.9c0.5,0,1.1,0.4,1.3,0.9C333.9,244.3,333.4,244.7,332.5,244.7z M332.5,259
		c-0.9,0-1.4-0.4-1.3-0.9c0.2-0.5,0.7-0.9,1.3-0.9c0.5,0,1.1,0.4,1.3,0.9C333.9,258.6,333.4,259,332.5,259z M332.5,230.4
		c-0.9,0-1.4-0.4-1.3-0.9c0.2-0.5,0.7-0.9,1.3-0.9c0.5,0,1.1,0.4,1.3,0.9C333.9,230,333.4,230.4,332.5,230.4z M332.5,216.1
		c-0.9,0-1.4-0.4-1.3-0.9c0.2-0.5,0.7-0.9,1.3-0.9c0.5,0,1.1,0.4,1.3,0.9C333.9,215.7,333.4,216.1,332.5,216.1z M332.3,443.1
		c0.5-0.2,0.9,0.2,0.9,0.9c0,0.7-0.3,1.1-0.7,1C331.4,444.6,331.3,443.4,332.3,443.1z M332.3,428.8c0.5-0.2,0.9,0.2,0.9,0.9
		c0,0.7-0.3,1.1-0.7,1C331.4,430.3,331.3,429.1,332.3,428.8z M333.2,458.3c0,0.6-0.3,1.1-0.7,1.1c-0.4,0-0.7-0.5-0.7-1.1
		s0.3-1.1,0.7-1.1C332.9,457.2,333.2,457.7,333.2,458.3z M332.5,545.3c-0.4,0-0.7-0.5-0.7-1.1s0.3-0.9,0.7-0.7
		c0.4,0.2,0.7,0.7,0.7,1.1C333.2,544.9,332.9,545.3,332.5,545.3z M332.5,530.9c-0.4,0-0.7-0.5-0.7-1.1s0.3-0.9,0.7-0.7
		c0.4,0.2,0.7,0.7,0.7,1.1S332.9,530.9,332.5,530.9z M332.5,516.6c-0.4,0-0.7-0.5-0.7-1.1s0.3-1.1,0.7-1.1c0.4,0,0.7,0.5,0.7,1.1
		S332.9,516.6,332.5,516.6z M332.5,502.3c-0.4,0-0.7-0.5-0.7-1.1s0.3-1.1,0.7-1.1c0.4,0,0.7,0.5,0.7,1.1S332.9,502.3,332.5,502.3z
		 M332.5,488c-0.4,0-0.7-0.5-0.7-1.1s0.3-1.1,0.7-1.1c0.4,0,0.7,0.5,0.7,1.1S332.9,488,332.5,488z M333.4,473.2
		c-0.8,0.8-1.7,0.5-1.7-0.6c0-0.6,0.3-1.1,0.7-1.1C333.3,471.5,334,472.7,333.4,473.2z M333.2,416c-1.2,0.7-2.5-0.3-1.6-1.3
		c0.6-0.6,1-0.6,1.6,0C333.8,415.3,333.8,415.7,333.2,416z M333.2,401.7c-1.2,0.7-2.5-0.3-1.6-1.3c0.6-0.6,1-0.6,1.6,0
		C333.8,401,333.8,401.4,333.2,401.7z M333.2,387.4c-1.2,0.7-2.5-0.3-1.6-1.3c0.6-0.6,1-0.6,1.6,0
		C333.8,386.7,333.8,387.1,333.2,387.4z M333.2,373.1c-1.2,0.7-2.5-0.3-1.6-1.3c0.6-0.6,1-0.6,1.6,0
		C333.8,372.4,333.8,372.8,333.2,373.1z M333.2,358.8c-1.2,0.7-2.5-0.3-1.6-1.3c0.6-0.6,1-0.6,1.6,0
		C333.8,358.1,333.8,358.4,333.2,358.8z M333.2,344.5c-1.2,0.7-2.5-0.3-1.6-1.3c0.6-0.6,1-0.6,1.6,0
		C333.8,343.8,333.8,344.1,333.2,344.5z M332.9,330.3c-1.6,0.6-2.4-0.2-1.3-1.3l0.8-0.8l0.8,0.8l0.8,0.8L332.9,330.3z M331.2,315.4
		c0.2-0.5,0.7-0.9,1.3-0.9c0.5,0,1.1,0.4,1.3,0.9c0.2,0.5-0.3,0.9-1.3,0.9C331.5,316.2,331,315.9,331.2,315.4z M332.9,301.6
		c-1.6,0.6-2.4-0.2-1.3-1.3l0.8-0.8l0.8,0.8l0.8,0.8L332.9,301.6z M331.2,286.7c0.2-0.5,0.7-0.9,1.3-0.9c0.5,0,1.1,0.4,1.3,0.9
		c0.2,0.5-0.3,0.9-1.3,0.9S331,287.3,331.2,286.7z M332.9,273c-1.6,0.6-2.4-0.2-1.3-1.3l0.8-0.8l0.8,0.8l0.8,0.8L332.9,273z
		 M338.7,264.7c0.5-0.5,1.2-0.6,1.6-0.3c0.9,0.6,1,1.6,0.2,2.1c-0.3,0.2-1,0.1-1.6-0.3l-1-0.6L338.7,264.7z M339.6,309.1
		c-0.9,0-1.4-0.4-1.3-0.9c0.2-0.5,0.7-0.9,1.3-0.9c0.5,0,1.1,0.4,1.3,0.9C341.1,308.7,340.5,309.1,339.6,309.1z M339.6,323.4
		c-0.9,0-1.4-0.4-1.3-0.9c0.2-0.5,0.7-0.9,1.3-0.9c0.5,0,1.1,0.4,1.3,0.9C341.1,323,340.5,323.4,339.6,323.4z M339.6,294.8
		c-0.9,0-1.4-0.4-1.3-0.9c0.2-0.5,0.7-0.9,1.3-0.9c0.5,0,1.1,0.4,1.3,0.9C341.1,294.4,340.5,294.8,339.6,294.8z M339.6,280.5
		c-0.9,0-1.4-0.4-1.3-0.9c0.2-0.5,0.7-0.9,1.3-0.9c0.5,0,1.1,0.4,1.3,0.9C341.1,280.1,340.5,280.5,339.6,280.5z M339.6,538.1
		c-0.4,0-0.7-0.5-0.7-1.1s0.3-1.1,0.7-1.1c0.4,0,0.7,0.5,0.7,1.1C340.3,537.6,340,538.1,339.6,538.1z M339.6,523.8
		c-0.4,0-0.7-0.5-0.7-1.1s0.3-1.1,0.7-1.1c0.4,0,0.7,0.5,0.7,1.1C340.3,523.3,340,523.8,339.6,523.8z M339.6,509.5
		c-0.4,0-0.7-0.5-0.7-1.1s0.3-1.1,0.7-1.1c0.4,0,0.7,0.5,0.7,1.1C340.3,509,340,509.5,339.6,509.5z M339.6,495
		c-1.1-0.4-1.2-1.5-0.2-1.8c0.5-0.2,0.9,0.2,0.9,0.9C340.3,494.7,340,495.2,339.6,495z M339.6,480.7c-1.1-0.4-1.2-1.5-0.2-1.8
		c0.5-0.2,0.9,0.2,0.9,0.9C340.3,480.4,340,480.9,339.6,480.7z M340.4,466.1c-1.2,0.7-2.5-0.3-1.6-1.3c0.6-0.6,1-0.6,1.6,0
		C341,465.4,341,465.8,340.4,466.1z M340.4,451.8c-1.2,0.7-2.5-0.3-1.6-1.3c0.6-0.6,1-0.6,1.6,0S341,451.5,340.4,451.8z
		 M340.4,437.5c-1.2,0.7-2.5-0.3-1.6-1.3c0.6-0.6,1-0.6,1.6,0C341,436.8,341,437.2,340.4,437.5z M340.4,423.2
		c-1.2,0.7-2.5-0.3-1.6-1.3c0.6-0.6,1-0.6,1.6,0C341,422.5,341,422.8,340.4,423.2z M340.4,408.9c-1.2,0.7-2.5-0.3-1.6-1.3
		c0.6-0.6,1-0.6,1.6,0S341,408.5,340.4,408.9z M340.4,394.6c-1.2,0.7-2.5-0.3-1.6-1.3c0.6-0.6,1-0.6,1.6,0
		C341,393.9,341,394.2,340.4,394.6z M340.1,380.4c-1.6,0.6-2.4-0.2-1.3-1.3l0.8-0.8l0.8,0.8l0.8,0.8L340.1,380.4z M340.1,366
		c-1.6,0.6-2.4-0.2-1.3-1.3l0.8-0.8l0.8,0.8l0.8,0.8L340.1,366z M340.1,351.7c-1.6,0.6-2.4-0.2-1.3-1.3l0.8-0.8l0.8,0.8l0.8,0.8
		L340.1,351.7z M340.1,337.4c-1.6,0.6-2.4-0.2-1.3-1.3l0.8-0.8l0.8,0.8l0.8,0.8L340.1,337.4z M345.8,314.8c0.5-0.5,1.2-0.6,1.6-0.3
		c0.9,0.6,1,1.6,0.2,2.1c-0.3,0.2-1,0.1-1.6-0.3l-1-0.6L345.8,314.8z M346.8,344.9c-0.9,0-1.4-0.4-1.3-0.9c0.2-0.5,0.7-0.9,1.3-0.9
		c0.5,0,1.1,0.4,1.3,0.9C348.2,344.5,347.7,344.9,346.8,344.9z M346.8,359.2c-0.9,0-1.4-0.4-1.3-0.9c0.2-0.5,0.7-0.9,1.3-0.9
		c0.5,0,1.1,0.4,1.3,0.9C348.2,358.8,347.7,359.2,346.8,359.2z M346.8,330.6c-0.9,0-1.4-0.4-1.3-0.9c0.2-0.5,0.7-0.9,1.3-0.9
		c0.5,0,1.1,0.4,1.3,0.9C348.2,330.2,347.7,330.6,346.8,330.6z M346.8,545.1c-1.1-0.4-1.2-1.5-0.2-1.8c0.5-0.2,0.9,0.2,0.9,0.9
		C347.5,544.8,347.2,545.3,346.8,545.1z M347.6,530.5c-1.2,0.7-2.5-0.3-1.6-1.3c0.6-0.6,1-0.6,1.6,0
		C348.1,529.8,348.1,530.2,347.6,530.5z M347.6,516.2c-1.2,0.7-2.5-0.3-1.6-1.3c0.6-0.6,1-0.6,1.6,0
		C348.1,515.5,348.1,515.9,347.6,516.2z M347.6,501.9c-1.2,0.7-2.5-0.3-1.6-1.3c0.6-0.6,1-0.6,1.6,0
		C348.1,501.2,348.1,501.6,347.6,501.9z M347.6,487.6c-1.2,0.7-2.5-0.3-1.6-1.3c0.6-0.6,1-0.6,1.6,0
		C348.1,486.9,348.1,487.3,347.6,487.6z M347.6,473.3c-1.2,0.7-2.5-0.3-1.6-1.3c0.6-0.6,1-0.6,1.6,0
		C348.1,472.6,348.1,472.9,347.6,473.3z M347.6,459c-1.2,0.7-2.5-0.3-1.6-1.3c0.6-0.6,1-0.6,1.6,0
		C348.1,458.3,348.1,458.6,347.6,459z M347.6,444.7c-1.2,0.7-2.5-0.3-1.6-1.3c0.6-0.6,1-0.6,1.6,0
		C348.1,444,348.1,444.3,347.6,444.7z M346.8,430.7c-0.9,0-1.4-0.4-1.3-0.9c0.2-0.5,0.7-0.9,1.3-0.9c0.5,0,1.1,0.4,1.3,0.9
		C348.2,430.4,347.7,430.7,346.8,430.7z M347.2,416.1c-1.6,0.6-2.4-0.2-1.3-1.3l0.8-0.8l0.8,0.8l0.8,0.8L347.2,416.1z M347.2,401.8
		c-1.6,0.6-2.4-0.2-1.3-1.3l0.8-0.8l0.8,0.8l0.8,0.8L347.2,401.8z M347.2,387.5c-1.6,0.6-2.4-0.2-1.3-1.3l0.8-0.8l0.8,0.8l0.8,0.8
		L347.2,387.5z M347.2,373.2c-1.6,0.6-2.4-0.2-1.3-1.3l0.8-0.8l0.8,0.8l0.8,0.8L347.2,373.2z M353,379.2c0.5-0.5,1.2-0.6,1.6-0.3
		c0.9,0.6,1,1.6,0.2,2.1c-0.3,0.2-1,0.1-1.6-0.3l-1-0.6L353,379.2z M353.9,395c-0.9,0-1.4-0.4-1.3-0.9c0.2-0.5,0.7-0.9,1.3-0.9
		c0.5,0,1.1,0.4,1.3,0.9C355.4,394.6,354.9,395,353.9,395z M353.9,409.3c-0.9,0-1.4-0.4-1.3-0.9c0.2-0.5,0.7-0.9,1.3-0.9
		c0.5,0,1.1,0.4,1.3,0.9C355.4,408.9,354.9,409.3,353.9,409.3z M354.4,537.8c-1.6,0.6-2.4-0.2-1.3-1.3l0.8-0.8l0.8,0.8l0.8,0.8
		L354.4,537.8z M353.2,522.1c0.6-0.6,1-0.6,1.6,0s0.6,0.9,0,1.3C353.5,524.1,352.2,523.1,353.2,522.1z M353.2,507.8
		c0.6-0.6,1-0.6,1.6,0s0.6,0.9,0,1.3C353.5,509.8,352.2,508.8,353.2,507.8z M354.4,494.9c-1.6,0.6-2.4-0.2-1.3-1.3l0.8-0.8l0.8,0.8
		l0.8,0.8L354.4,494.9z M354.4,480.6c-1.6,0.6-2.4-0.2-1.3-1.3l0.8-0.8l0.8,0.8l0.8,0.8L354.4,480.6z M352.7,465.6
		c0.2-0.5,0.7-0.9,1.3-0.9c0.5,0,1.1,0.4,1.3,0.9c0.2,0.5-0.3,0.9-1.3,0.9S352.5,466.2,352.7,465.6z M354.4,451.9
		c-1.6,0.6-2.4-0.2-1.3-1.3l0.8-0.8l0.8,0.8l0.8,0.8L354.4,451.9z M354.4,437.6c-1.6,0.6-2.4-0.2-1.3-1.3l0.8-0.8l0.8,0.8l0.8,0.8
		L354.4,437.6z M354.4,423.3c-1.6,0.6-2.4-0.2-1.3-1.3l0.8-0.8l0.8,0.8l0.8,0.8L354.4,423.3z M360.1,429.3c0.5-0.5,1.2-0.6,1.6-0.3
		c0.9,0.6,1,1.6,0.2,2.1c-0.3,0.2-1,0.1-1.6-0.3l-1-0.6L360.1,429.3z M361.1,473.7c-0.9,0-1.4-0.4-1.3-0.9c0.2-0.5,0.7-0.9,1.3-0.9
		c0.5,0,1.1,0.4,1.3,0.9C362.5,473.3,362,473.7,361.1,473.7z M361.1,488c-0.9,0-1.4-0.4-1.3-0.9c0.2-0.5,0.7-0.9,1.3-0.9
		c0.5,0,1.1,0.4,1.3,0.9C362.5,487.6,362,488,361.1,488z M361.1,459.4c-0.9,0-1.4-0.4-1.3-0.9c0.2-0.5,0.7-0.9,1.3-0.9
		c0.5,0,1.1,0.4,1.3,0.9C362.5,459,362,459.4,361.1,459.4z M361.1,445.1c-0.9,0-1.4-0.4-1.3-0.9c0.2-0.5,0.7-0.9,1.3-0.9
		c0.5,0,1.1,0.4,1.3,0.9C362.5,444.7,362,445.1,361.1,445.1z M361.5,545c-1.6,0.6-2.4-0.2-1.3-1.3l0.8-0.8l0.8,0.8l0.8,0.8
		L361.5,545z M361.5,530.6c-1.6,0.6-2.4-0.2-1.3-1.3l0.8-0.8l0.8,0.8l0.8,0.8L361.5,530.6z M361.5,516.3c-1.6,0.6-2.4-0.2-1.3-1.3
		l0.8-0.8l0.8,0.8l0.8,0.8L361.5,516.3z M361.5,502c-1.6,0.6-2.4-0.2-1.3-1.3l0.8-0.8l0.8,0.8l0.8,0.8L361.5,502z M368.3,538.1
		c-0.9,0-1.4-0.4-1.3-0.9c0.2-0.5,0.7-0.9,1.3-0.9c0.5,0,1.1,0.4,1.3,0.9C369.7,537.7,369.2,538.1,368.3,538.1z M368.3,523.8
		c-0.9,0-1.4-0.4-1.3-0.9c0.2-0.5,0.7-0.9,1.3-0.9c0.5,0,1.1,0.4,1.3,0.9C369.7,523.4,369.2,523.8,368.3,523.8z M368.3,509.5
		c-0.9,0-1.4-0.4-1.3-0.9c0.2-0.5,0.7-0.9,1.3-0.9c0.5,0,1.1,0.4,1.3,0.9C369.7,509.1,369.2,509.5,368.3,509.5z M369.1,495.4
		c-0.3,0.2-1,0.1-1.6-0.3l-1-0.6l0.8-0.8c0.5-0.5,1.2-0.6,1.6-0.3C369.8,493.9,369.9,494.9,369.1,495.4z M369.1,481.1
		c-0.3,0.2-1,0.1-1.6-0.3l-1-0.6l0.8-0.8c0.5-0.5,1.2-0.6,1.6-0.3C369.8,479.6,369.9,480.6,369.1,481.1z M369.1,466.8
		c-0.3,0.2-1,0.1-1.6-0.3l-1-0.6l0.8-0.8c0.5-0.5,1.2-0.6,1.6-0.3C369.8,465.3,369.9,466.3,369.1,466.8z M369.1,452.5
		c-0.3,0.2-1,0.1-1.6-0.3l-1-0.6l0.8-0.8c0.5-0.5,1.2-0.6,1.6-0.3C369.8,451,369.9,452,369.1,452.5z M368.9,438.3
		c-1.2,0.7-2.6-0.9-1.6-1.9c0.8-0.8,2.4-0.3,2.4,0.8C369.7,437.5,369.3,438,368.9,438.3z M368.9,424c-1.2,0.7-2.6-0.9-1.6-1.9
		c0.8-0.8,2.4-0.3,2.4,0.8C369.7,423.2,369.3,423.7,368.9,424z M368.9,409.7L368.9,409.7c-1.2,0.7-2.6-0.9-1.6-1.9
		c0.8-0.8,2.4-0.3,2.4,0.8C369.7,408.9,369.3,409.4,368.9,409.7z M368.9,395.4c-1.2,0.7-2.6-0.9-1.6-1.9c0.8-0.8,2.4-0.3,2.4,0.8
		C369.7,394.6,369.3,395.1,368.9,395.4z M369,338.1c-1,0.6-2.1-0.2-2.1-1.5c0-0.6,0.6-1,1.4-1C369.7,335.6,370.2,337.3,369,338.1z
		 M369,323.8c-1,0.6-2.1-0.2-2.1-1.5c0-0.6,0.6-1,1.4-1C369.7,321.3,370.2,323,369,323.8z M369.2,309.3c-1,1-2.4,0.4-2.4-1
		c0-1,0.5-1.4,1.4-1.4C369.6,306.9,370.2,308.3,369.2,309.3z M369.2,295c-1,1-2.4,0.4-2.4-1c0-1,0.5-1.4,1.4-1.4
		C369.6,292.6,370.2,294,369.2,295z M369.2,237.8c-1,1-2.4,0.4-2.4-1c0-1,0.5-1.4,1.4-1.4C369.6,235.4,370.2,236.8,369.2,237.8z
		 M376.3,545.5c-0.3,0.2-1,0.1-1.6-0.3l-1-0.6l0.8-0.8c0.5-0.5,1.2-0.6,1.6-0.3C377,544,377.1,545,376.3,545.5z M376.3,531.2
		c-0.3,0.2-1,0.1-1.6-0.3l-1-0.6l0.8-0.8c0.5-0.5,1.2-0.6,1.6-0.3C377,529.7,377.1,530.7,376.3,531.2z M376.3,516.9
		c-0.3,0.2-1,0.1-1.6-0.3l-1-0.6l0.8-0.8c0.5-0.5,1.2-0.6,1.6-0.3C377,515.4,377.1,516.4,376.3,516.9z M376.1,502.7
		c-1.2,0.7-2.6-0.9-1.6-1.9c0.8-0.8,2.4-0.3,2.4,0.8C376.8,501.9,376.5,502.4,376.1,502.7z M376.1,488.4c-1.2,0.7-2.6-0.9-1.6-1.9
		c0.8-0.8,2.4-0.3,2.4,0.8C376.8,487.6,376.5,488.1,376.1,488.4z M376.1,431.1c-1.2,0.7-2.6-0.9-1.6-1.9c0.8-0.8,2.4-0.3,2.4,0.8
		C376.8,430.4,376.5,430.9,376.1,431.1z M374,415.3c0-0.6,0.5-1,1.2-0.9c1.4,0.3,2,1.7,1,2.4C375.1,417.4,374,416.6,374,415.3z
		 M376.1,402.5c-1,0.6-2.1-0.2-2.1-1.5c0-0.6,0.6-1,1.4-1C376.9,400,377.4,401.7,376.1,402.5z M376.1,388.2c-1,0.6-2.1-0.2-2.1-1.5
		c0-0.6,0.6-1,1.4-1C376.9,385.7,377.4,387.4,376.1,388.2z M374,372.3c0-0.6,0.5-1,1.2-0.9c1.4,0.3,2,1.7,1,2.4
		C375.1,374.5,374,373.7,374,372.3z M376.4,359.4c-1,1-2.4,0.4-2.4-1c0-1,0.5-1.4,1.4-1.4C376.8,357,377.4,358.4,376.4,359.4z
		 M375.4,342.7c1,0,1.5,0.5,1.5,1.5s-0.4,1.4-1.2,1.2C373.7,345.1,373.5,342.7,375.4,342.7z M376.4,330.8c-1,1-2.4,0.4-2.4-1
		c0-1,0.5-1.4,1.4-1.4C376.8,328.4,377.4,329.8,376.4,330.8z M375.8,228c1.6,0.6,1.2,3.1-0.4,3.1c-0.9,0-1.4-0.5-1.4-1.3
		C374,228.1,374.6,227.5,375.8,228z M374,215.5c0-1.7,0.6-2.3,1.9-1.8c1.6,0.6,1.2,3.1-0.4,3.1C374.5,216.8,374,216.3,374,215.5z
		 M375.8,242.3c1.6,0.6,1.2,3.1-0.4,3.1c-0.9,0-1.4-0.5-1.4-1.3C374,242.4,374.6,241.8,375.8,242.3z M375.4,256.8
		c1,0,1.4,0.5,1.4,1.4s-0.5,1.4-1.4,1.4c-1,0-1.4-0.5-1.4-1.4S374.5,256.8,375.4,256.8z M375.4,271.2c1,0,1.4,0.5,1.4,1.4
		s-0.5,1.4-1.4,1.4c-1,0-1.4-0.5-1.4-1.4S374.5,271.2,375.4,271.2z M375.4,285.5c1,0,1.4,0.5,1.4,1.4c0,1-0.5,1.4-1.4,1.4
		c-1,0-1.4-0.5-1.4-1.4S374.5,285.5,375.4,285.5z M375.4,299.8c1,0,1.4,0.5,1.4,1.4c0,1-0.5,1.4-1.4,1.4c-1,0-1.4-0.5-1.4-1.4
		S374.5,299.8,375.4,299.8z M375.4,314.1c1,0,1.4,0.5,1.4,1.4c0,1-0.5,1.4-1.4,1.4c-1,0-1.4-0.5-1.4-1.4S374.5,314.1,375.4,314.1z
		 M375.4,202.5h-1.5l0.2-1.6c0.1-0.9,0.7-1.6,1.3-1.6c0.6,0,1.2,0.7,1.3,1.6l0.2,1.6H375.4z M383.2,538.5c-1.2,0.7-2.6-0.9-1.6-1.9
		c0.8-0.8,2.4-0.3,2.4,0.8C384,537.7,383.7,538.2,383.2,538.5z M381.1,508.3c0-0.6,0.5-1,1.2-0.9c1.4,0.3,2,1.7,1,2.4
		C382.3,510.4,381.1,509.6,381.1,508.3z M383.2,524.2c-1.2,0.7-2.6-0.9-1.6-1.9c0.8-0.8,2.4-0.3,2.4,0.8
		C384,523.4,383.7,523.9,383.2,524.2z M383.3,495.5c-1,0.6-2.1-0.2-2.1-1.5c0-0.6,0.6-1,1.4-1C384.1,493,384.5,494.7,383.3,495.5z
		 M381.1,479.7c0-0.6,0.5-1,1.2-0.9c1.4,0.3,2,1.7,1,2.4C382.3,481.8,381.1,481,381.1,479.7z M383.3,466.9c-1,0.6-2.1-0.2-2.1-1.5
		c0-0.6,0.6-1,1.4-1C384.1,464.4,384.5,466.1,383.3,466.9z M383.3,452.6c-1,0.6-2.1-0.2-2.1-1.5c0-0.6,0.6-1,1.4-1
		C384.1,450.1,384.5,451.8,383.3,452.6z M383.3,438.3c-1,0.6-2.1-0.2-2.1-1.5c0-0.6,0.6-1,1.4-1
		C384.1,435.8,384.5,437.5,383.3,438.3z M383.5,423.8c-1,1-2.4,0.4-2.4-1c0-1,0.5-1.4,1.4-1.4C383.9,421.4,384.5,422.8,383.5,423.8z
		 M382.6,392.8c1,0,1.4,0.5,1.4,1.4c0,1-0.5,1.4-1.4,1.4c-1,0-1.4-0.5-1.4-1.4C381.1,393.3,381.6,392.8,382.6,392.8z M381.1,379.9
		c0-1,0.5-1.4,1.4-1.4c1,0,1.4,0.5,1.4,1.4c0,1-0.5,1.4-1.4,1.4C381.6,381.4,381.1,380.9,381.1,379.9z M382.6,407.1
		c1,0,1.4,0.5,1.4,1.4c0,1-0.5,1.4-1.4,1.4c-1,0-1.4-0.5-1.4-1.4C381.1,407.6,381.6,407.1,382.6,407.1z M383.5,366.6
		c-1,1-2.4,0.4-2.4-1c0-1,0.5-1.4,1.4-1.4C383.9,364.2,384.5,365.6,383.5,366.6z M383,306.7c1.6,0.6,1.2,3.1-0.4,3.1
		c-0.9,0-1.4-0.5-1.4-1.3C381.1,306.8,381.7,306.2,383,306.7z M381.1,294.2c0-1.7,0.6-2.3,1.9-1.8c1.6,0.6,1.2,3.1-0.4,3.1
		C381.7,295.5,381.1,295,381.1,294.2z M382.6,321.3c1,0,1.4,0.5,1.4,1.4c0,1-0.5,1.4-1.4,1.4c-1,0-1.4-0.5-1.4-1.4
		C381.1,321.7,381.6,321.3,382.6,321.3z M382.6,335.6c1,0,1.4,0.5,1.4,1.4c0,1-0.5,1.4-1.4,1.4c-1,0-1.4-0.5-1.4-1.4
		C381.1,336,381.6,335.6,382.6,335.6z M382.6,349.9c1,0,1.4,0.5,1.4,1.4c0,1-0.5,1.4-1.4,1.4c-1,0-1.4-0.5-1.4-1.4
		C381.1,350.4,381.6,349.9,382.6,349.9z M382.6,281.2H381l0.2-1.6c0.1-0.9,0.7-1.6,1.3-1.6c0.6,0,1.2,0.7,1.3,1.6l0.2,1.6H382.6z
		 M382.6,266.9H381l0.2-1.6c0.1-0.9,0.7-1.6,1.3-1.6c0.6,0,1.2,0.7,1.3,1.6l0.2,1.6H382.6z M384.2,251.7c-0.5,1.2-2.8,1.1-3.3-0.1
		c-0.2-0.6,0.1-1.4,0.7-1.9l1.1-0.9l1,1C384.1,250.3,384.4,251.2,384.2,251.7z M384.2,237.3c-0.5,1.2-2.8,1.1-3.3-0.1
		c-0.2-0.6,0.1-1.4,0.7-1.9l1.1-0.9l1,1C384.1,236,384.4,236.9,384.2,237.3z M384.2,223c-0.5,1.2-2.8,1.1-3.3-0.1
		c-0.2-0.6,0.1-1.4,0.7-1.9l1.1-0.9l1,1C384.1,221.7,384.4,222.5,384.2,223z M384.2,208.7c-0.5,1.2-2.8,1.1-3.3-0.1
		c-0.2-0.6,0.1-1.4,0.7-1.9l1.1-0.9l1,1C384.1,207.4,384.4,208.2,384.2,208.7z M388.5,214.1l1.1-1.1l1.1,0.9c1.2,1,1.4,1.7,0.6,2.4
		c-0.8,0.8-3,0.6-3.5-0.3C387.6,215.6,387.9,214.7,388.5,214.1z M388.7,256.8l1.1-0.9l1,1c0.5,0.6,0.8,1.4,0.6,1.9
		c-0.5,1.2-2.8,1.1-3.3-0.1C387.8,258.1,388.1,257.3,388.7,256.8z M388.7,242.5l1.1-0.9l1,1c0.5,0.6,0.8,1.4,0.6,1.9
		c-0.5,1.2-2.8,1.1-3.3-0.1C387.8,243.8,388.1,243,388.7,242.5z M388.7,271.1l1.1-0.9l1,1c0.5,0.6,0.8,1.4,0.6,1.9
		c-0.5,1.2-2.8,1.1-3.3-0.1C387.8,272.4,388.1,271.6,388.7,271.1z M388.7,285.4l1.1-0.9l1,1c0.5,0.6,0.8,1.4,0.6,1.9
		c-0.5,1.2-2.8,1.1-3.3-0.1C387.8,286.8,388.1,285.9,388.7,285.4z M388.7,299.7l1.1-0.9l1,1c0.5,0.6,0.8,1.4,0.6,1.9
		c-0.5,1.2-2.8,1.1-3.3-0.1C387.8,301.1,388.1,300.2,388.7,299.7z M388.7,328.4c1.3-1.1,2.5-0.3,2.5,1.5c0,0.9-0.5,1.4-1.4,1.4
		C388.1,331.3,387.4,329.5,388.7,328.4z M390.5,545.6c-1,0.6-2.2-0.2-2.2-1.5c0-0.6,0.5-1,1.2-0.9
		C390.9,543.5,391.5,544.9,390.5,545.6z M390.5,531.3c-1,0.6-2.2-0.2-2.2-1.5c0-0.6,0.5-1,1.2-0.9
		C390.9,529.2,391.5,530.6,390.5,531.3z M390.4,517c-1,0.6-2.1-0.2-2.1-1.5c0-0.6,0.6-1,1.4-1C391.2,514.5,391.7,516.2,390.4,517z
		 M390.4,502.7c-1,0.6-2.1-0.2-2.1-1.5c0-0.6,0.6-1,1.4-1C391.2,500.2,391.7,501.9,390.4,502.7z M390.4,488.4
		c-1,0.6-2.1-0.2-2.1-1.5c0-0.6,0.6-1,1.4-1C391.2,485.9,391.7,487.6,390.4,488.4z M390.4,474c-1,0.6-2.1-0.2-2.1-1.5
		c0-0.6,0.6-1,1.4-1C391.2,471.5,391.7,473.3,390.4,474z M390.7,459.6c-1,1-2.4,0.4-2.4-1c0-1,0.5-1.4,1.4-1.4
		C391.1,457.2,391.7,458.6,390.7,459.6z M390.7,445.3c-1,1-2.4,0.4-2.4-1c0-1,0.5-1.4,1.4-1.4C391.1,442.9,391.7,444.3,390.7,445.3z
		 M389.7,371.4c1,0,1.4,0.5,1.4,1.4c0,1-0.5,1.4-1.4,1.4c-1,0-1.4-0.5-1.4-1.4C388.3,371.8,388.8,371.4,389.7,371.4z M388.3,358.6
		c0-1.7,0.6-2.3,1.9-1.8c1.6,0.6,1.2,3.1-0.4,3.1C388.8,359.9,388.3,359.4,388.3,358.6z M389.7,385.7c1,0,1.4,0.5,1.4,1.4
		c0,1-0.5,1.4-1.4,1.4c-1,0-1.4-0.5-1.4-1.4C388.3,386.1,388.8,385.7,389.7,385.7z M389.7,400c1,0,1.4,0.5,1.4,1.4
		c0,1-0.5,1.4-1.4,1.4c-1,0-1.4-0.5-1.4-1.4C388.3,400.5,388.8,400,389.7,400z M389.7,414.3c1,0,1.4,0.5,1.4,1.4
		c0,1-0.5,1.4-1.4,1.4c-1,0-1.4-0.5-1.4-1.4C388.3,414.8,388.8,414.3,389.7,414.3z M389.7,428.6c1,0,1.4,0.5,1.4,1.4
		c0,1-0.5,1.4-1.4,1.4c-1,0-1.4-0.5-1.4-1.4C388.3,429.1,388.8,428.6,389.7,428.6z M389.7,345.6h-1.5l0.2-1.6
		c0.1-0.9,0.7-1.6,1.3-1.6c0.6,0,1.2,0.7,1.3,1.6l0.2,1.6H389.7z M391.4,316.1c-0.5,1.5-3.1,1.1-3.1-0.5c0-0.8,0.4-1.6,0.8-1.9
		C390.1,313.1,391.8,314.9,391.4,316.1z M391.4,230.6c-0.8,0.8-2.9,0.5-3.3-0.5c-0.2-0.6,0.1-1.4,0.6-1.9l1-0.9l1.1,0.9
		C392,229.2,392.1,229.9,391.4,230.6z M395.9,364.1l1.1-0.9l1,1c0.5,0.6,0.8,1.4,0.6,1.9c-0.5,1.2-2.8,1.1-3.3-0.1
		C395,365.5,395.3,364.6,395.9,364.1z M395.9,321.2l1.1-0.9l1,1c0.5,0.6,0.8,1.4,0.6,1.9c-0.5,1.2-2.8,1.1-3.3-0.1
		C395,322.5,395.3,321.7,395.9,321.2z M395.9,306.9l1.1-0.9l1,1c0.5,0.6,0.8,1.4,0.6,1.9c-0.5,1.2-2.8,1.1-3.3-0.1
		C395,308.2,395.3,307.4,395.9,306.9z M395.9,335.5l1.1-0.9l1,1c0.5,0.6,0.8,1.4,0.6,1.9c-0.5,1.2-2.8,1.1-3.3-0.1
		C395,336.8,395.3,336,395.9,335.5z M395.9,349.8l1.1-0.9l1,1c0.5,0.6,0.8,1.4,0.6,1.9c-0.5,1.2-2.8,1.1-3.3-0.1
		C395,351.2,395.3,350.3,395.9,349.8z M397.8,538.3c-1,1-2.4,0.4-2.4-1c0-1,0.5-1.4,1.4-1.4C398.3,535.9,398.8,537.3,397.8,538.3z
		 M396.9,435.8c1,0,1.4,0.5,1.4,1.4c0,1-0.5,1.4-1.4,1.4c-1,0-1.4-0.5-1.4-1.4C395.5,436.2,395.9,435.8,396.9,435.8z M395.5,423
		c0-1.7,0.6-2.3,1.9-1.8c1.6,0.6,1.2,3.1-0.4,3.1C396,424.3,395.5,423.8,395.5,423z M396.9,450.1c1,0,1.4,0.5,1.4,1.4
		c0,1-0.5,1.4-1.4,1.4c-1,0-1.4-0.5-1.4-1.4C395.5,450.5,395.9,450.1,396.9,450.1z M396.9,464.4c1,0,1.4,0.5,1.4,1.4
		c0,1-0.5,1.4-1.4,1.4c-1,0-1.4-0.5-1.4-1.4S395.9,464.4,396.9,464.4z M396.9,478.7c1,0,1.4,0.5,1.4,1.4c0,1-0.5,1.4-1.4,1.4
		c-1,0-1.4-0.5-1.4-1.4S395.9,478.7,396.9,478.7z M396.9,493c1,0,1.4,0.5,1.4,1.4c0,1-0.5,1.4-1.4,1.4c-1,0-1.4-0.5-1.4-1.4
		S395.9,493,396.9,493z M397.1,510c-1.9-0.4-2.1-2.7-0.2-2.7c1,0,1.5,0.5,1.5,1.5C398.3,509.8,397.9,510.2,397.1,510z M398.3,523.1
		c0,1-0.4,1.4-1.2,1.2c-1.9-0.4-2.1-2.7-0.2-2.7C397.9,521.6,398.3,522.1,398.3,523.1z M396.9,410h-1.5l0.2-1.6
		c0.1-0.9,0.7-1.6,1.3-1.6c0.6,0,1.2,0.7,1.3,1.6l0.2,1.6H396.9z M396.9,395.7h-1.5l0.2-1.6c0.1-0.9,0.7-1.6,1.3-1.6
		c0.6,0,1.2,0.7,1.3,1.6l0.2,1.6H396.9z M398.5,380.5c-0.5,1.5-3.1,1.1-3.1-0.5c0-0.8,0.4-1.6,0.8-1.9
		C397.2,377.5,399,379.3,398.5,380.5z M398.6,295c-0.8,0.8-3,0.6-3.5-0.3c-0.3-0.4,0-1.3,0.6-1.9l1.1-1.1l1.1,0.9
		C399.1,293.6,399.3,294.3,398.6,295z M395.7,264.2l1.1-1.1l1.1,0.9c1.2,1,1.4,1.7,0.6,2.4c-0.8,0.8-3,0.6-3.5-0.3
		C394.8,265.7,395.1,264.8,395.7,264.2z M398.6,280.7c-0.8,0.8-2.9,0.5-3.3-0.5c-0.2-0.6,0.1-1.4,0.6-1.9l1-0.9l1.1,0.9
		C399.1,279.3,399.3,280,398.6,280.7z M398.1,252.5c-0.7,0.6-1.3,0.5-2.3-0.2l-1.4-1l1.2-1.2l1.2-1.2l1.1,0.9
		C399.3,250.8,399.3,251.4,398.1,252.5z M398.1,238.1c-0.7,0.6-1.3,0.5-2.3-0.2l-1.4-1l1.2-1.2l1.2-1.2l1.1,0.9
		C399.3,236.5,399.3,237.1,398.1,238.1z M398.1,223.8L398.1,223.8c-0.7,0.6-1.3,0.5-2.3-0.2l-1.4-1l1.2-1.2l1.2-1.2l1.1,0.9
		C399.3,222.2,399.3,222.8,398.1,223.8z M397.9,209.6l-1.1,0.9l-1.2-1.2l-1.2-1.2l1.2-1.2l1.2-1.2l1.1,0.9c0.6,0.5,1.1,1.2,1.1,1.5
		C399,208.5,398.5,209.1,397.9,209.6z M427.5,236.6c0.1,0.8-0.1,1.8-0.5,2l0,0c-1.5,0.9-3.7-0.4-3.5-2
		C423.8,234.4,427.2,234.4,427.5,236.6z M427.5,250.9c0.1,0.8-0.1,1.8-0.5,2l0,0c-1.5,0.9-3.7-0.4-3.5-2
		C423.8,248.7,427.2,248.7,427.5,250.9z M427.5,265.2c0.1,0.8-0.1,1.8-0.5,2l0,0c-1.5,0.9-3.7-0.4-3.5-2
		C423.8,263,427.2,263,427.5,265.2z M427.5,279.5c0.1,0.8-0.1,1.8-0.5,2l0,0c-1.5,0.9-3.7-0.4-3.5-2
		C423.8,277.3,427.2,277.3,427.5,279.5z M423.5,293.8c0.2-1.1,0.7-1.5,2-1.5c2.1,0,3,2.8,1.1,3.5
		C424.8,296.4,423.3,295.4,423.5,293.8z M426.6,395.7l-1.1,0.9l-1.1-1.1c-1.4-1.4-0.7-3.4,1.2-3.4c0.8,0,1.5,0.1,1.5,0.3
		c0,0.2,0.2,0.8,0.4,1.3C427.5,394.3,427.2,395.2,426.6,395.7z M426.6,410l-1.1,0.9l-1.1-1.1c-1.3-1.3-0.6-3.5,1.2-3.5
		c0.7,0,1.4,0.1,1.4,0.3c0,0.2,0.2,0.8,0.4,1.3C427.5,408.6,427.2,409.5,426.6,410z M426.6,381.4l-1.1,0.9l-1.1-1.1
		c-1.4-1.4-0.7-3.4,1.2-3.4c0.8,0,1.5,0.1,1.5,0.3c0,0.2,0.2,0.8,0.4,1.3C427.5,380,427.2,380.9,426.6,381.4z M426.6,367.1l-1.1,0.9
		l-1.1-1.1c-1.4-1.4-0.7-3.4,1.2-3.4c0.8,0,1.5,0.1,1.5,0.3c0,0.2,0.2,0.8,0.4,1.3C427.5,365.7,427.2,366.5,426.6,367.1z
		 M426.6,352.7l-1.1,0.9l-1.1-1.1c-1.5-1.5-0.7-3.6,1.4-3.3C427.6,349.6,428.1,351.5,426.6,352.7z M426.6,338.4l-1.1,0.9l-1.1-1.1
		c-1.5-1.5-0.7-3.6,1.4-3.3C427.6,335.3,428.1,337.1,426.6,338.4z M426.6,324.1l-1.1,0.9l-1.1-1.1c-1.5-1.5-0.7-3.6,1.4-3.3
		C427.6,320.9,428.1,322.8,426.6,324.1z M427,309.7L427,309.7c-1,1.6-3.8,0.3-3.5-1.6c0.2-1.1,0.7-1.5,2-1.5
		C427.4,306.6,428.1,308,427,309.7z M424,421.8c0.8-1,2.9-1.6,2.9-0.8c0,0.2,0.2,0.8,0.4,1.3c0.2,0.6-0.1,1.4-0.8,2l-1.1,0.9
		l-1.2-1.2l-1.2-1.2L424,421.8z M424,436.2c0.8-1,2.9-1.6,2.9-0.8c0,0.2,0.2,0.8,0.4,1.3c0.2,0.6-0.1,1.4-0.8,2l-1.1,0.9l-1.2-1.2
		l-1.2-1.2L424,436.2z M416.3,229.4c0.2-1.1,0.7-1.5,2-1.5c2.1,0,3,2.8,1.1,3.5C417.7,232,416.1,231,416.3,229.4z M419.4,331.3
		l-1.1,0.9l-1.1-1.1c-1.3-1.3-0.6-3.5,1.2-3.5c0.7,0,1.4,0.1,1.4,0.3c0,0.2,0.2,0.8,0.4,1.3C420.4,329.9,420,330.8,419.4,331.3z
		 M419.4,345.6l-1.1,0.9l-1.1-1.1c-1.3-1.3-0.6-3.5,1.2-3.5c0.7,0,1.4,0.1,1.4,0.3c0,0.2,0.2,0.8,0.4,1.3
		C420.4,344.2,420,345.1,419.4,345.6z M419.4,317l-1.1,0.9l-1.1-1.1c-1.3-1.3-0.6-3.5,1.2-3.5c0.7,0,1.4,0.1,1.4,0.3
		c0,0.2,0.2,0.8,0.4,1.3C420.4,315.6,420,316.4,419.4,317z M419.4,302.7l-1.1,0.9l-1.1-1.1c-1.5-1.5-0.7-3.6,1.4-3.3
		C420.5,299.5,421,301.4,419.4,302.7z M419.4,288.3l-1.1,0.9l-1.1-1.1c-1.5-1.5-0.7-3.6,1.4-3.3C420.5,285.2,421,287.1,419.4,288.3z
		 M419.4,274l-1.1,0.9l-1.1-1.1c-1.5-1.5-0.7-3.6,1.4-3.3C420.5,270.9,421,272.7,419.4,274z M419.4,259.7l-1.1,0.9l-1.1-1.1
		c-1.5-1.5-0.7-3.6,1.4-3.3C420.5,256.5,421,258.4,419.4,259.7z M419.4,245.4l-1.1,0.9l-1.1-1.1c-1.5-1.5-0.7-3.6,1.4-3.3
		C420.5,242.2,421,244.1,419.4,245.4z M416.9,357.4c0.8-1,2.9-1.6,2.9-0.8c0,0.2,0.2,0.8,0.4,1.3c0.2,0.6-0.1,1.4-0.8,2l-1.1,0.9
		l-1.2-1.2l-1.2-1.2L416.9,357.4z M411.4,220.5c2,0.3,2.5,2.2,0.9,3.5l-1.1,0.9l-1.1-1.1C408.5,222.2,409.3,220.2,411.4,220.5z
		 M412.3,295.5l-1.1,0.9l-1.1-1.1c-1.3-1.3-0.6-3.5,1.2-3.5c0.7,0,1.4,0.1,1.4,0.3s0.2,0.8,0.4,1.3
		C413.2,294.1,412.9,295,412.3,295.5z M412.3,309.8l-1.1,0.9l-1.1-1.1c-1.3-1.3-0.6-3.5,1.2-3.5c0.7,0,1.4,0.1,1.4,0.3
		c0,0.2,0.2,0.8,0.4,1.3C413.2,308.4,412.9,309.3,412.3,309.8z M412.3,281.2l-1.1,0.9l-1.1-1.1c-1.3-1.3-0.6-3.5,1.2-3.5
		c0.7,0,1.4,0.1,1.4,0.3s0.2,0.8,0.4,1.3C413.2,279.8,412.9,280.7,412.3,281.2z M412.3,266.9l-1.1,0.9l-1.1-1.1
		c-1.3-1.3-0.6-3.5,1.2-3.5c0.7,0,1.4,0.1,1.4,0.3c0,0.2,0.2,0.8,0.4,1.3C413.2,265.5,412.9,266.3,412.3,266.9z M412.3,252.6
		l-1.1,0.9l-1.1-1.1c-1.4-1.4-0.7-3.4,1.2-3.4c0.8,0,1.5,0.1,1.5,0.3s0.2,0.8,0.4,1.3C413.2,251.2,412.9,252,412.3,252.6z
		 M412.3,238.2l-1.1,0.9l-1.1-1.1c-1.4-1.4-0.7-3.4,1.2-3.4c0.8,0,1.5,0.1,1.5,0.3s0.2,0.8,0.4,1.3
		C413.2,236.8,412.9,237.7,412.3,238.2z M404.1,213.2c0.7,0,1.4,0.1,1.4,0.3s0.2,0.8,0.4,1.3c0.2,0.6-0.1,1.4-0.8,2l-1.1,0.9
		l-1.1-1.1C401.6,215.3,402.3,213.2,404.1,213.2z M402.8,342.9l1.1-1.1l1.1,0.9c1.2,1,1.4,1.7,0.6,2.4c-0.8,0.8-3,0.6-3.5-0.3
		C401.9,344.4,402.2,343.5,402.8,342.9z M402.8,328.6l1.1-1.1l1.1,0.9c1.2,1,1.4,1.7,0.6,2.4c-0.8,0.8-3,0.6-3.5-0.3
		C401.9,330.1,402.2,329.2,402.8,328.6z M403,399.9l1.1-0.9l1,1c0.5,0.6,0.8,1.4,0.6,1.9c-0.5,1.2-2.8,1.1-3.3-0.1
		C402.2,401.3,402.5,400.4,403,399.9z M403,385.6l1.1-0.9l1,1c0.5,0.6,0.8,1.4,0.6,1.9c-0.5,1.2-2.8,1.1-3.3-0.1
		C402.2,386.9,402.5,386.1,403,385.6z M403,414.2l1.1-0.9l1,1c0.5,0.6,0.8,1.4,0.6,1.9l0,0c-0.5,1.2-2.8,1.1-3.3-0.1
		C402.2,415.6,402.5,414.7,403,414.2z M403,428.5l1.1-0.9l1,1c0.5,0.6,0.8,1.4,0.6,1.9l0,0c-0.5,1.2-2.8,1.1-3.3-0.1
		C402.2,429.9,402.5,429,403,428.5z M403,442.9c1.3-1.1,2.5-0.3,2.5,1.5c0,0.9-0.5,1.4-1.4,1.4C402.4,445.8,401.7,444,403,442.9z
		 M404,503c-1,0-1.4-0.5-1.4-1.4c0-1,0.5-1.4,1.4-1.4c1,0,1.4,0.5,1.4,1.4C405.5,502.6,405,503,404,503z M404,488.7
		c-0.9,0-1.4-0.5-1.4-1.3c0-1.7,0.6-2.3,1.9-1.8C406,486.2,405.7,488.7,404,488.7z M404,474.4h-1.5l0.2-1.6c0.1-0.9,0.7-1.6,1.3-1.6
		c0.6,0,1.2,0.7,1.3,1.6l0.2,1.6H404z M405.7,459.2c-0.5,1.5-3.1,1.1-3.1-0.5c0-0.8,0.4-1.6,0.8-1.9
		C404.4,456.2,406.1,458,405.7,459.2z M405.7,373.7c-0.8,0.8-2.9,0.5-3.3-0.5c-0.2-0.6,0.1-1.4,0.6-1.9l1-0.9l1.1,0.9
		C406.3,372.3,406.4,373,405.7,373.7z M405.7,359.4c-0.8,0.8-2.9,0.5-3.3-0.5c-0.2-0.6,0.1-1.4,0.6-1.9l1-0.9l1.1,0.9
		C406.3,358,406.4,358.7,405.7,359.4z M405.2,316.9c-0.7,0.6-1.3,0.5-2.3-0.2l-1.4-1l1.2-1.2l1.2-1.2l1.1,0.9
		C406.4,315.2,406.5,315.8,405.2,316.9z M405.2,302.5c-0.7,0.6-1.3,0.5-2.3-0.2l-1.4-1l1.2-1.2l1.2-1.2l1.1,0.9
		C406.4,300.9,406.5,301.5,405.2,302.5z M405.1,288.4l-1.1,0.9l-1.2-1.2l-1.2-1.2l1.2-1.2l1.2-1.2l1.1,0.9c0.6,0.5,1.1,1.2,1.1,1.5
		C406.2,287.2,405.7,287.9,405.1,288.4z M405.1,274.1L404,275l-1.2-1.2l-1.2-1.2l1.2-1.2l1.2-1.2l1.1,0.9c0.6,0.5,1.1,1.2,1.1,1.5
		C406.2,272.9,405.7,273.5,405.1,274.1z M405.1,259.7l-1.1,0.9l-1.2-1.2l-1.2-1.2l1.2-1.2l1.2-1.2l1.1,0.9c0.6,0.5,1.1,1.2,1.1,1.5
		C406.2,258.6,405.7,259.2,405.1,259.7z M405.1,245.4l-1.1,0.9l-1.2-1.2l-1.2-1.2l1.2-1.2l1.2-1.2l1.1,0.9c0.6,0.5,1.1,1.2,1.1,1.5
		C406.2,244.3,405.7,244.9,405.1,245.4z M405.1,231.1L404,232l-1.2-1.2l-1.2-1.2l1.2-1.2l1.2-1.2l1.1,0.9c0.6,0.5,1.1,1.2,1.1,1.5
		C406.2,230,405.7,230.6,405.1,231.1z M412.8,466.4c-0.5,1.2-2.8,1.1-3.3-0.1c-0.2-0.6,0.1-1.4,0.7-1.9l1.1-0.9l1,1
		C412.7,465,413,465.9,412.8,466.4z M412.8,452c-0.5,1.2-2.8,1.1-3.3-0.1c-0.2-0.6,0.1-1.4,0.7-1.9l1.1-0.9l1,1
		C412.7,450.7,413,451.5,412.8,452z M412.8,437.7c-0.5,1.2-2.8,1.1-3.3-0.1c-0.2-0.6,0.1-1.4,0.7-1.9l1.1-0.9l1,1
		C412.7,436.4,413,437.2,412.8,437.7z M412.9,423.8c-0.8,0.8-3,0.6-3.5-0.3c-0.3-0.4,0-1.3,0.6-1.9l1.1-1.1l1.1,0.9
		C413.4,422.4,413.6,423.1,412.9,423.8z M412.9,409.5c-0.8,0.8-3,0.6-3.5-0.3c-0.3-0.4,0-1.3,0.6-1.9l1.1-1.1l1.1,0.9
		C413.4,408.1,413.6,408.8,412.9,409.5z M412.9,395.2c-0.8,0.8-3,0.6-3.5-0.3c-0.3-0.4,0-1.3,0.6-1.9l1.1-1.1l1.1,0.9
		C413.4,393.8,413.6,394.5,412.9,395.2z M412.4,381.3c-0.7,0.6-1.3,0.5-2.3-0.2l-1.4-1l1.2-1.2l1.2-1.2l1.1,0.9
		C413.6,379.6,413.6,380.2,412.4,381.3z M412.4,367c-0.7,0.6-1.3,0.5-2.3-0.2l-1.4-1l1.2-1.2l1.2-1.2l1.1,0.9
		C413.6,365.3,413.6,365.9,412.4,367z M412.4,352.6c-0.7,0.6-1.3,0.5-2.3-0.2l-1.4-1l1.2-1.2l1.2-1.2l1.1,0.9
		C413.6,351,413.6,351.6,412.4,352.6z M412.2,338.5L412.2,338.5l-1.1,0.9l-1.2-1.2l-1.2-1.2l1.2-1.2l1.2-1.2l1.1,0.9
		c0.6,0.5,1.1,1.2,1.1,1.5C413.3,337.3,412.8,338,412.2,338.5z M412.2,324.1L412.2,324.1l-1.1,0.9l-1.2-1.2l-1.2-1.2l1.2-1.2
		l1.2-1.2l1.1,0.9c0.6,0.5,1.1,1.2,1.1,1.5C413.3,323,412.8,323.6,412.2,324.1z M420,459.6c-0.8,0.8-3,0.6-3.5-0.3
		c-0.3-0.4,0-1.3,0.6-1.9l1.1-1.1l1.1,0.9C420.6,458.2,420.8,458.9,420,459.6z M419.5,445.7c-0.7,0.6-1.3,0.5-2.3-0.2l-1.4-1
		l1.2-1.2l1.2-1.2l1.1,0.9C420.7,444,420.8,444.6,419.5,445.7z M419.5,431.4c-0.7,0.6-1.3,0.5-2.3-0.2l-1.4-1l1.2-1.2l1.2-1.2
		l1.1,0.9C420.7,429.7,420.8,430.3,419.5,431.4z M419.4,417.2L419.4,417.2l-1.1,0.9l-1.2-1.2l-1.2-1.2l1.2-1.2l1.2-1.2l1.1,0.9
		c0.6,0.5,1.1,1.2,1.1,1.5C420.5,416,420,416.7,419.4,417.2z M419.4,402.9L419.4,402.9l-1.1,0.9l-1.2-1.2l-1.2-1.2l1.2-1.2l1.2-1.2
		l1.1,0.9c0.6,0.5,1.1,1.2,1.1,1.5C420.5,401.7,420,402.4,419.4,402.9z M419.4,388.6L419.4,388.6l-1.1,0.9l-1.2-1.2l-1.2-1.2
		l1.2-1.2l1.2-1.2l1.1,0.9c0.6,0.5,1.1,1.2,1.1,1.5C420.5,387.4,420,388,419.4,388.6z M419.4,374.2l-1.1,0.9l-1.1-1.1
		c-1.2-1.2-0.7-3.5,0.7-3.5c0.9,0,2.6,1.4,2.6,2.2C420.5,373.1,420,373.7,419.4,374.2z M426.5,453L426.5,453l-1.1,0.9l-1.2-1.2
		l-1.2-1.2l1.2-1.2l1.2-1.2l1.1,0.9c0.6,0.5,1.1,1.2,1.1,1.5C427.7,451.8,427.2,452.5,426.5,453z M431.6,241.8l1.1-0.9l1.1,0.9
		c0.6,0.5,1.1,1.5,1.1,2.3s-0.5,1.6-1.1,1.8c-1.6,0.6-3.2-0.3-3.2-1.8C430.5,243.3,431,242.3,431.6,241.8z M431.6,256.1l1.1-0.9
		l1.1,0.9c0.6,0.5,1.1,1.5,1.1,2.3s-0.5,1.6-1.1,1.8c-1.6,0.6-3.2-0.3-3.2-1.8C430.5,257.6,431,256.6,431.6,256.1z M433.5,270.5
		c1.6,0.9,1.7,3.4,0.2,4c-1.6,0.6-3.2-0.2-3.2-1.7C430.5,270.7,431.9,269.7,433.5,270.5z M433.5,284.8c1.6,0.9,1.7,3.4,0.2,4
		c-1.6,0.6-3.2-0.2-3.2-1.7C430.5,285.1,431.9,284,433.5,284.8z M433.7,445.8l-1.1,0.9l-1.1-1.1c-1.4-1.4-0.7-3.4,1.2-3.4
		c0.8,0,1.5,0.1,1.5,0.3c0,0.2,0.2,0.8,0.4,1.3C434.7,444.4,434.4,445.3,433.7,445.8z M433.7,431.5l-1.1,0.9l-1.1-1.1
		c-1.5-1.5-0.7-3.6,1.4-3.3C434.8,428.3,435.3,430.2,433.7,431.5z M433.7,417.2l-1.1,0.9l-1.1-1.1c-1.5-1.5-0.7-3.6,1.4-3.3
		C434.8,414,435.3,415.9,433.7,417.2z M433.7,402.8l-1.1,0.9l-1.1-1.1c-1.5-1.5-0.7-3.6,1.4-3.3
		C434.8,399.7,435.3,401.6,433.7,402.8z M433.6,388.8c-1.6,0.6-3.5-1.2-2.9-2.8c0.3-0.7,1.1-1.1,2.1-0.9
		C434.9,385.4,435.4,388.1,433.6,388.8z M433.8,374.5c-1.8,0.7-3.4-0.3-3.1-1.9c0.2-1.1,0.7-1.5,2-1.5
		C434.8,371,435.6,373.7,433.8,374.5z M433.8,360.1c-1.8,0.7-3.4-0.3-3.1-1.9c0.2-1.1,0.7-1.5,2-1.5
		C434.8,356.7,435.6,359.4,433.8,360.1z M430.7,315.3c0.3-2.2,3.7-2.2,4,0c0.1,0.8-0.1,1.8-0.5,2l0,0
		C432.7,318.2,430.4,316.9,430.7,315.3z M434.7,329.6c0.1,0.8-0.1,1.8-0.5,2l0,0c-1.5,0.9-3.7-0.4-3.5-2
		C431,327.4,434.4,327.4,434.7,329.6z M434.7,343.9c0.1,0.8-0.1,1.8-0.5,2l0,0c-1.5,0.9-3.7-0.4-3.5-2
		C431,341.7,434.4,341.7,434.7,343.9z M433.8,303.1c-1.9,0.7-3.4-0.3-3.1-2c0.2-1.2,0.7-1.6,2-1.6
		C434.8,299.4,435.7,302.4,433.8,303.1z M438.3,249.4c2.2-2,5,0.1,3.5,2.7c-0.9,1.6-3.2,1.5-4.1-0.1l-0.7-1.3L438.3,249.4z
		 M438.4,263.6l1.4-1.3l1.4,1.4l1.4,1.4l-0.7,1.3c-0.9,1.6-3.3,1.6-4.2-0.1L437,265L438.4,263.6z M438.4,277.9l1.4-1.3l1.4,1.4
		l1.4,1.4l-0.7,1.3c-0.9,1.6-3.3,1.6-4.2-0.1l-0.7-1.3L438.4,277.9z M440.9,338.9c-1.6,0.6-3.2-0.2-3.2-1.7c0-2,1.4-3.1,3-2.3
		C442.2,335.8,442.4,338.3,440.9,338.9z M440.9,353.2c-1.6,0.6-3.2-0.2-3.2-1.7c0-2,1.4-3.1,3-2.3
		C442.2,350.1,442.4,352.6,440.9,353.2z M440.9,324.6c-1.6,0.6-3.2-0.3-3.2-1.8c0-0.8,0.5-1.8,1.1-2.3l1.1-0.9l1.1,0.9
		c0.6,0.5,1.1,1.5,1.1,2.3S441.5,324.3,440.9,324.6z M440.9,310.3c-1.6,0.6-3.2-0.3-3.2-1.8c0-0.8,0.5-1.8,1.1-2.3l1.1-0.9l1.1,0.9
		c0.6,0.5,1.1,1.5,1.1,2.3C442,309.2,441.5,310,440.9,310.3z M440.6,363.5c1.4,0.8,1.8,3.1,0.6,3.9c-1.2,0.7-3.6-0.4-3.6-1.7
		C437.7,363.8,439.1,362.7,440.6,363.5z M437.8,394c0.3-2.2,3.7-2.2,4,0c0.1,0.8-0.1,1.8-0.5,2l0,0
		C439.8,396.9,437.6,395.6,437.8,394z M441.8,408.3c0.1,0.8-0.1,1.8-0.5,2l0,0c-1.5,0.9-3.7-0.4-3.5-2
		C438.1,406.1,441.5,406.1,441.8,408.3z M440.8,438.9c-1.6,0.6-3.5-1.2-2.9-2.8c0.3-0.7,1.1-1.1,2.1-0.9
		C442,435.5,442.6,438.2,440.8,438.9z M440.9,424.8c-0.7,0.3-1.7,0-2.3-0.7c-1.5-1.5-0.6-3.5,1.4-3.2
		C442,421.1,442.7,424.1,440.9,424.8z M440.9,381.8c-1.9,0.7-3.4-0.3-3.1-2c0.2-1.2,0.7-1.6,2-1.6
		C441.9,378.1,442.8,381.1,440.9,381.8z M441.8,295.1c-0.5,0.7-1.6,1.2-2.3,1c-1.8-0.3-2.2-2.9-0.7-4.2l1.1-1l1.4,1.4l1.4,1.4
		L441.8,295.1z M454.1,262.6c0.8,0,2.9,2.1,2.9,2.8c0,0.3-0.6,1.1-1.4,1.8l-1.4,1.3l-1.4-1.3c-0.8-0.7-1.4-1.5-1.4-1.8
		C451.3,264.6,453.4,262.6,454.1,262.6z M454.1,276.9c0.8,0,2.9,2.1,2.9,2.8c0,0.3-0.6,1.1-1.3,1.7l-1.3,1.2l-1.6-1.1
		c-0.9-0.6-1.6-1.4-1.6-1.7C451.3,279,453.3,276.9,454.1,276.9z M454.1,291.2c0.7,0,2.9,2,2.9,2.8c0,0.3-0.4,0.9-0.9,1.4
		c-1.5,1.5-4.9,0.5-4.9-1.4C451.3,293.2,453.4,291.2,454.1,291.2z M445.2,256.5c1.4-1.4,2.1-1.4,3.5,0c1.3,1.3,1.4,1.9,0.3,3
		c-1.3,1.3-3.3,1-4.1-0.5l-0.7-1.4L445.2,256.5z M445.9,384.9l1.1-0.9l1.1,0.9c0.6,0.5,1.1,1.5,1.1,2.3s-0.5,1.6-1.1,1.8
		c-1.6,0.6-3.2-0.3-3.2-1.8C444.8,386.5,445.3,385.4,445.9,384.9z M444.8,372.9c0-0.8,0.5-1.8,1.1-2.3l1.1-0.9l1.1,0.9
		c0.6,0.5,1.1,1.5,1.1,2.3s-0.5,1.6-1.1,1.8C446.4,375.3,444.8,374.4,444.8,372.9z M448.3,399.4c1.2,1.2,1,3.4-0.2,3.9
		c-1.7,0.6-3.2-0.3-3.2-1.8C444.8,399.6,447.1,398.3,448.3,399.4z M448.4,431.8L448.4,431.8c-1.5,0.9-3.7-0.4-3.5-2
		c0.3-2.2,3.7-2.2,4,0C449.1,430.6,448.9,431.5,448.4,431.8z M448.1,417.6c-1.9,0.7-3.4-0.3-3.1-2c0.2-1.2,0.7-1.6,2-1.6
		C449.1,413.9,450,416.9,448.1,417.6z M449.1,359.4c-0.9,1.6-3.3,1.6-4.2-0.1l-0.7-1.3l1.4-1.3l1.4-1.3l1.4,1.4l1.4,1.4L449.1,359.4
		z M449.1,345.1c-0.9,1.6-3.3,1.6-4.2-0.1l-0.7-1.3l1.4-1.3l1.4-1.3l1.4,1.4l1.4,1.4L449.1,345.1z M449.1,330.7
		c-0.9,1.6-3.3,1.6-4.2-0.1l-0.7-1.3l1.4-1.3l1.4-1.3l1.4,1.4l1.4,1.4L449.1,330.7z M444.2,315l1.3-1.2c2.2-2,5,0.1,3.5,2.7
		c-0.9,1.6-3.2,1.5-4.1-0.1L444.2,315z M449.1,302.1c-1,1.7-3.3,1.6-4.2-0.1l-0.7-1.4l1.1-1.1c0.6-0.6,1.4-1.1,1.7-1.1
		c0.5,0,2.9,2,2.8,2.4C449.8,300.8,449.5,301.4,449.1,302.1z M449.1,287.8c-1,1.7-3.3,1.6-4.2-0.1l-0.7-1.4l1.1-1.1
		c0.6-0.6,1.4-1.1,1.7-1.1c0.5,0,2.9,2,2.8,2.4C449.8,286.5,449.5,287.1,449.1,287.8z M449.1,273.5c-1,1.7-3.3,1.6-4.2-0.1l-0.7-1.4
		l1.1-1.1c0.6-0.6,1.4-1.1,1.7-1.1c0.5,0,2.9,2,2.8,2.4C449.8,272.2,449.5,272.8,449.1,273.5z M454.1,305.5c0.7,0,2.9,2,2.9,2.8
		c0,0.3-0.4,0.9-0.9,1.4c-1.5,1.5-4.9,0.5-4.9-1.4C451.3,307.6,453.4,305.5,454.1,305.5z M456.2,323.6c-1,1.7-3.3,1.6-4.2-0.1
		l-0.7-1.4l1.1-1.1c0.6-0.6,1.4-1.1,1.7-1.1c0.5,0,2.9,2,2.8,2.4C457,322.3,456.6,322.9,456.2,323.6z M457,336.5
		c0,0.1-0.4,0.7-0.8,1.4c-1,1.7-3.3,1.6-4.2-0.1l-0.7-1.4l1.1-1.1c0.6-0.6,1.4-1.1,1.7-1.1C454.7,334.1,457,336.1,457,336.5z
		 M452.4,349.6c0.6-0.6,1.4-1.1,1.7-1.1c0.5,0,2.9,2,2.8,2.4c0,0.1-0.4,0.7-0.8,1.4c-1,1.7-3.3,1.6-4.2-0.1l-0.7-1.4L452.4,349.6z
		 M456.2,366.6c-0.9,1.6-3.2,1.5-4.1-0.1l-0.7-1.3l1.3-1.2C454.8,361.9,457.6,364,456.2,366.6z M456.2,380.9
		c-0.9,1.6-3.2,1.5-4.1-0.1l-0.7-1.3l1.3-1.2C454.8,376.2,457.6,378.3,456.2,380.9z M451.3,393.7l1.4-1.3l1.4-1.3l1.4,1.4l1.4,1.4
		l-0.7,1.3c-0.9,1.6-3.3,1.6-4.2-0.1L451.3,393.7z M456.1,409.6c-0.5,0.7-1.6,1.2-2.3,1c-1.8-0.3-2.2-2.9-0.7-4.2l1.1-1l1.4,1.4
		l1.4,1.4L456.1,409.6z M458.4,386.5l1.1-1.1c1.4-1.4,2.1-1.4,3.5,0c1.3,1.3,1.4,1.9,0.3,3c-1.3,1.3-3.3,1-4.1-0.5L458.4,386.5z
		 M459.6,371c1.4-1.4,2.1-1.4,3.5,0c1.3,1.3,1.4,1.9,0.3,3c-1.3,1.3-3.3,1-4.1-0.5l-0.7-1.4L459.6,371z M459.6,356.7
		c1.4-1.4,2.1-1.4,3.5,0s1.4,2-0.1,3.3C460.6,362.1,457.4,358.9,459.6,356.7z M463.4,402.3c-1,1.7-3.3,1.6-4.2-0.1l-0.7-1.4l1.1-1.1
		c0.6-0.6,1.4-1.1,1.7-1.1c0.5,0,2.9,2,2.8,2.4C464.1,401,463.8,401.6,463.4,402.3z M462.9,345.8l-1.3,1.2l-1.6-1.1
		c-0.9-0.6-1.6-1.4-1.6-1.7c0-0.8,2.1-2.9,2.9-2.9s2.9,2.1,2.9,2.8C464.2,344.4,463.6,345.2,462.9,345.8z M462.9,331.5l-1.3,1.2
		l-1.6-1.1c-0.9-0.6-1.6-1.4-1.6-1.7c0-0.8,2.1-2.9,2.9-2.9s2.9,2.1,2.9,2.8C464.2,330.1,463.6,330.9,462.9,331.5z M462.7,317.3
		l-1.4,1.3l-1.4-1.3c-0.8-0.7-1.4-1.5-1.4-1.8c0-0.7,2.1-2.8,2.9-2.8s2.9,2.1,2.9,2.8C464.2,315.8,463.5,316.6,462.7,317.3z
		 M462.7,303l-1.4,1.3l-1.4-1.3c-0.8-0.7-1.4-1.5-1.4-1.8c0-0.7,2.1-2.8,2.9-2.8s2.9,2.1,2.9,2.8C464.2,301.5,463.5,302.3,462.7,303
		z M463,288.6c-0.6,0.6-1.4,1.1-1.7,1.1c-0.8,0-2.9-2.1-2.9-2.9s2.1-2.9,2.9-2.9s2.9,2.1,2.9,2.9C464.2,287.2,463.6,288,463,288.6z
		 M463,274.3c-0.6,0.6-1.4,1.1-1.7,1.1c-0.8,0-2.9-2.1-2.9-2.9s2.1-2.9,2.9-2.9s2.9,2.1,2.9,2.9C464.2,272.9,463.6,273.7,463,274.3z
		 M468.4,291.2c0.8,0,1.7,0.6,2.1,1.4c1,1.8,0.9,1.9-0.4,3.2c-0.6,0.6-1.4,1.1-1.7,1.1c-0.7,0-2.9-2-2.9-2.6
		C465.6,293.1,467.3,291.2,468.4,291.2z M468.4,305.5c0.8,0,1.7,0.6,2.1,1.4c1,1.8,0.9,1.9-0.4,3.2c-0.6,0.6-1.4,1.1-1.7,1.1
		c-0.7,0-2.9-2-2.9-2.6C465.6,307.4,467.3,305.5,468.4,305.5z M469.9,381.7l-1.4,1.3l-1.4-1.3c-0.8-0.7-1.4-1.5-1.4-1.8
		c0-0.7,2.1-2.8,2.9-2.8s2.9,2.1,2.9,2.8C471.3,380.2,470.7,381,469.9,381.7z M469.9,367.4l-1.4,1.3l-1.4-1.3
		c-0.8-0.7-1.4-1.5-1.4-1.8c0-0.7,2.1-2.8,2.9-2.8s2.9,2.1,2.9,2.8C471.3,365.9,470.7,366.7,469.9,367.4z M470.2,353.1
		c-0.6,0.6-1.4,1.1-1.7,1.1c-0.6,0-2.9-2.4-2.9-3c0-0.7,2.2-2.7,2.9-2.7c0.8,0,2.9,2.1,2.9,2.9C471.3,351.7,470.8,352.4,470.2,353.1
		z M470.2,338.7c-0.6,0.6-1.4,1.1-1.7,1.1c-0.8,0-2.9-2.1-2.9-2.9s2.1-2.9,2.9-2.9s2.9,2.1,2.9,2.9
		C471.3,337.3,470.8,338.1,470.2,338.7z M470.2,324.4c-0.6,0.6-1.4,1.1-1.7,1.1c-0.8,0-2.9-2.1-2.9-2.9s2.1-2.9,2.9-2.9
		s2.9,2.1,2.9,2.9C471.3,323,470.8,323.8,470.2,324.4z M477.3,360.2c-0.6,0.6-1.4,1.1-1.7,1.1c-0.7,0-2.9-2-2.9-2.6
		c0-1.3,1.7-3.1,2.9-3.1c0.8,0,1.7,0.6,2.1,1.4C478.7,358.8,478.7,358.9,477.3,360.2z M477.3,345.9c-0.6,0.6-1.4,1.1-1.7,1.1
		c-0.7,0-2.9-2-2.9-2.6c0-1.3,1.7-3.1,2.9-3.1c0.8,0,1.7,0.6,2.1,1.4C478.7,344.5,478.7,344.6,477.3,345.9z M477.3,331.6
		c-0.6,0.6-1.4,1.1-1.7,1.1c-0.7,0-2.9-2-2.9-2.6c0-1.3,1.7-3.1,2.9-3.1c0.8,0,1.7,0.6,2.1,1.4C478.7,330.2,478.7,330.3,477.3,331.6
		z"/>
	<path fill="none" stroke="#211C1D" stroke-width="12" stroke-miterlimit="10" d="M306,182.3c-86.6,0-157.4,70.8-157.4,157.4
		c0,45.3,19.8,88.9,53.2,118.3c24.9,24.9,22.6,78.1,22.1,78.7c0,2.8,0.6,5.1,2.8,7.4c1.7,1.7,4.5,2.8,6.8,2.8h144.4
		c2.8,0,5.1-1.1,6.8-2.8c1.7-1.7,2.8-4.5,2.8-7.4c0-0.6-2.8-53.8,22.1-78.7c0.6-0.6,1.1-1.1,1.7-1.7c32.8-30,52.1-72.5,52.1-116.6
		C463.4,253.1,392.6,182.3,306,182.3z"/>
	<path fill="none" stroke="#303030" stroke-width="12" stroke-miterlimit="10" d="M376.1,553H235.9c-14.5,0-21.9,7.2-21.9,16
		s7.4,16,21.9,16h139.5c15.2-0.4,21.6-7.2,21.6-16S390.6,553,376.1,553z"/>
	<path fill="none" stroke="#303030" stroke-width="12" stroke-miterlimit="10" d="M363.4,591H248.5c-11.9,0-18,7.7-18,17
		s6.1,17,18,17h114.4c12.4-0.4,17.7-7.7,17.7-17S375.3,591,363.4,591z"/>
	<path fill="none" stroke="#211C1D" stroke-width="12" stroke-miterlimit="10" d="M535.1,234.9c-2.3-4.5-8.5-6.2-13-4L464.4,262
		c-4.5,2.3-6.2,8.5-4,13c1.7,3.4,5.1,5.1,8.5,5.1c1.7,0,3.4-0.6,4.5-1.1l57.7-31.1C535.6,245.7,537.3,239.4,535.1,234.9z"/>
	<path fill="none" stroke="#211C1D" stroke-width="12" stroke-miterlimit="10" d="M455.1,133.3c-4.5-3.4-10.2-1.7-13,2.3l-36.2,54.3
		c-3.4,4.5-2.3,10.8,2.3,13.6c1.7,1.1,3.4,1.7,5.1,1.7c3.4,0,6.2-1.7,7.9-4.5l36.2-54.3C460.7,142.3,459.6,136.1,455.1,133.3z"/>
	<path fill="none" stroke="#211C1D" stroke-width="12" stroke-miterlimit="10" d="M155.4,146.3l36.2,54.3c1.7,2.8,4.5,4.5,7.9,4.5
		c1.7,0,3.4-0.6,5.1-1.7c4.5-2.8,5.7-9.1,2.3-13.6l-36.2-54.3c-2.8-4-8.5-5.7-13-2.3C153.1,136.1,152,142.3,155.4,146.3z"/>
	<path fill="none" stroke="#211C1D" stroke-width="12" stroke-miterlimit="10" d="M306,173.9c5.7,0,9.6-4.5,9.6-9.6V98.6
		c0-5.1-4.5-9.6-9.6-9.6s-9.6,4.5-9.6,9.6v65.7C296.4,169.4,300.9,173.9,306,173.9z"/>
	<path fill="none" stroke="#211C1D" stroke-width="12" stroke-miterlimit="10" d="M148.5,262.1L91.3,231c-4.5-2.3-10.8-0.6-13,4
		c-2.8,4.5-1.1,10.8,4,13l57.2,31.1c1.7,0.6,2.8,1.1,4.5,1.1c3.4,0,6.8-1.7,8.5-5.1C154.7,270.6,153,264.3,148.5,262.1z"/>
</g>
</svg>
