<?xml version="1.0" encoding="utf-8"?>
<!-- Generator: Adobe Illustrator 17.1.0, SVG Export Plug-In . SVG Version: 6.00 Build 0)  -->
<!DOCTYPE svg PUBLIC "-//W3C//DTD SVG 1.1//EN" "http://www.w3.org/Graphics/SVG/1.1/DTD/svg11.dtd">
<svg version="1.1" id="Capa_1" xmlns="http://www.w3.org/2000/svg" xmlns:xlink="http://www.w3.org/1999/xlink" x="0px" y="0px"
	 viewBox="0 0 612 792" enable-background="new 0 0 612 792" xml:space="preserve">
<g>
	<path fill="#CF8696" d="M242.7,345.2c-0.1-0.2-0.2-0.5-0.2-0.7c0.2-0.8,1.2-1.3,1.8-0.9c0.3,0.2,0.5,0.4,0.6,0.7
		c6.8-2.9,12.3-8.2,15.4-14.8c-0.2,0-0.4,0-0.6-0.1l-0.8-0.2l0.1-1.1l0.1-1.1h1.2h1.1c0.9-2.4,1.4-4.9,1.6-7.5l-0.6-0.1l-0.1-1
		c-0.1-0.8,0.3-1.4,0.8-1.5l0,0c0-1.3,0-2.6-0.1-3.9l-0.7-0.1l-0.1-1c-0.1-0.7,0.2-1.2,0.6-1.5c-0.1-1.4-0.2-2.8-0.3-4.2
		c-0.6-0.4-0.7-1.3-0.2-1.9c-0.3-2.7-0.7-5.3-1.2-7.9c-0.2,0.2-0.5,0.3-1,0.3c-1.6,0-2-1.9-0.6-2.7c0.4-0.2,0.7-0.2,1.1-0.1
		c-0.3-1.3-0.6-2.6-0.9-3.9c-1-0.3-1.4-1.5-0.6-2.3c-0.7-2.5-1.5-5-2.4-7.6c-0.5,0-1-0.2-1.2-0.7c-0.3-0.7-0.1-1.4,0.3-1.8
		c-0.3-0.8-0.6-1.6-0.9-2.4c0,0.2,0,0.5-0.1,0.7c-0.2,0.5-0.5,0.7-1.3,0.7c-1.6,0-2-1.9-0.6-2.7c0.6-0.3,1.2-0.2,1.6,0.2
		c-0.6-1.5-1.3-3-1.9-4.5c-0.4-0.3-0.6-0.7-0.5-1.2c-0.3-0.6-0.6-1.2-0.9-1.8l-1-0.1l-1.1-0.1l-0.1-1.1c-0.1-0.8,0.1-1.1,0.6-1.4
		c0.1,0,0.2-0.1,0.3-0.1c-1.9-3.5-3.9-7-6.1-10.5c-0.1,0-0.3,0-0.4,0l-0.8-0.1l-0.1-1.1c0-0.3,0-0.5,0.1-0.7
		c-0.4-0.5-0.7-1.1-1.1-1.6l-0.1,0.1c-0.3,0.1-0.9,0.1-1.4,0l-0.8-0.2l0.1-1.1l0.1-1.1h0.6c-0.5-0.7-1-1.3-1.5-2
		c0,0.3-0.1,0.6-0.3,0.8c-1,1-2.4,0.1-2.2-1.3l0.1-0.8h1.2h0.3c-0.8-1-1.6-2.1-2.4-3.1l0.1,0.6c0.1,0.5-0.1,1-0.3,1.2
		c-1,1-2.5,0-2.1-1.4l0.2-0.8l1.1,0.1l0.9,0.1c-0.6-0.7-1.1-1.4-1.7-2.1c-11.5-13.9-23.2-23-28-26.5c0.1,0.4,0,0.8-0.4,0.9
		c-0.9,0.3-1.6-0.1-1.4-0.9c0.1-0.5,0.3-0.7,0.9-0.7l-0.1-0.1h-6.2c0.8,0.2,1.1,1,0.4,1.6l-0.5,0.4l-0.5-0.5
		c-0.6-0.6-0.4-1.4,0.2-1.5h-6.1l0.3,0.2c0.6,0.5,0.6,0.8,0.1,1.3l0,0c-0.3,0.3-0.6,0.2-1.1-0.1l-0.6-0.5l0.6-0.6l0.4-0.4h-6.2
		l0.3,0.3c0.2,0.3,0.4,0.7,0.3,0.9c-0.2,0.6-1.3,0.5-1.5-0.1c-0.1-0.3,0-0.7,0.3-0.9l0.3-0.2H166c-0.2,0.1-0.3,0.2-0.5,0.4
		c0,0,0,0,0.1,0c0.4,0.3,0.5,0.7,0.1,1c-0.1,0.1-0.5,0-0.7-0.1l-0.3-0.2c-5,3.7-16.5,12.6-27.8,26.3c-1.7,2-3.2,4-4.8,6.1
		c0.1,0,0.1-0.1,0.2,0c0.2,0.1,0.3,0.3,0.3,0.5s-0.1,0.3-0.3,0.3s-0.3-0.2-0.3-0.5c0-0.1,0-0.2,0.1-0.2c-0.9,1.2-1.8,2.5-2.7,3.7
		l0,0c0,0.1-0.1,0.2-0.2,0.3c-3.7,5.3-6.9,10.7-9.7,16.2l0,0c0,0.1-0.1,0.2-0.2,0.2c-4.8,9.5-8.2,19.2-10.2,29.1h0.1
		c0.2,0,0.3,0.1,0.3,0.1s-0.1,0.2-0.3,0.3c-0.1,0.1-0.2,0.1-0.2,0c-1.4,7-2.1,14.2-2.1,21.5c0,3.9,0.8,7.6,2.1,11.1
		c0.1,0,0.1-0.1,0.2-0.1c0.2,0,0.3,0.1,0.3,0.1c0,0.1-0.1,0.2-0.3,0.3l0,0c3.1,7.3,9,13.1,16.3,16.1c0.1,0,0.1-0.1,0.2-0.1
		c0.2,0,0.3,0.1,0.3,0.1s0,0.1-0.1,0.1c3.3,1.3,6.9,2,10.6,2h97.6C236.7,346.7,239.8,346.2,242.7,345.2z M261.2,322.9
		c-0.3,0.1-0.8,0.1-1.3,0.1l-0.8-0.1v-1.2v-1.2h1.2h1.2l0.1,1.1C261.6,322.4,261.5,322.8,261.2,322.9z M261.2,316.3
		c-0.3,0.1-0.8,0.1-1.3,0.1l-0.8-0.1v-1.2V314h1.2h1.2l0.1,1.1C261.6,315.8,261.5,316.2,261.2,316.3z M261,300.6
		c0.8,0.4,0.9,2.2,0.2,2.5c-0.3,0.1-0.8,0.1-1.2,0.1l-0.8-0.1L259,302C258.9,300.7,259.9,300,261,300.6z M261,307.2
		c0.8,0.4,0.9,2.2,0.2,2.5c-0.3,0.1-0.8,0.1-1.2,0.1l-0.8-0.1l-0.1-1.1C258.9,307.3,259.9,306.6,261,307.2z M257,317.3h1.2l0.1,1.1
		c0.1,0.7-0.1,1.1-0.4,1.3c-0.3,0.1-0.9,0.1-1.4,0l-0.8-0.2l0.1-1.1l0.1-1.1L257,317.3L257,317.3z M255.8,313v-1.2v-1.2h1.2h1.2
		l0.1,1.1c0.1,0.7-0.1,1.1-0.4,1.3c-0.3,0.1-0.8,0.1-1.3,0.1L255.8,313z M257.8,306.4c-0.3,0.1-0.9,0.1-1.3,0l-0.8-0.2v-1
		c0-1.1,0.8-1.7,1.9-1.3C258.5,304.3,258.6,306.1,257.8,306.4z M257.9,299.8c-0.3,0.1-0.8,0.1-1.2,0.1l-0.8-0.1l-0.1-1.1
		c-0.1-1.2,0.7-1.8,1.8-1.4C258.4,297.6,258.6,299.5,257.9,299.8z M258.1,293.1c-0.5,0.5-2.1,0.2-2.4-0.5c-0.5-1.4,0.7-2.6,1.9-1.9
		C258.3,291,258.6,292.6,258.1,293.1z M257.8,332.6c-0.3,0.3-0.9,0.3-1.4,0.2l-0.8-0.2l0.1-1.1l0.1-1.1h1.2h1.2l0.1,0.9
		C258.3,331.8,258.1,332.4,257.8,332.6z M257.7,326.2c-0.4,0.1-1,0.1-1.4,0l-0.7-0.2l0.1-1l0.1-1h1.2h1.2l0.1,1l0.1,1L257.7,326.2z
		 M256.4,284.1c1.2-0.7,2.4,0.5,1.9,1.9c-0.2,0.5-0.5,0.7-1.3,0.7C255.4,286.7,255,284.8,256.4,284.1z M252.4,327.9l0.1-0.8h1.2h1.2
		l0.1,0.8c0.1,0.5-0.1,1-0.3,1.2C253.7,330.2,252.2,329.3,252.4,327.9z M252.4,321.3l0.1-0.8h1.2h1.2l0.1,0.8c0.1,0.5-0.1,1-0.3,1.2
		C253.7,323.6,252.2,322.7,252.4,321.3z M254.6,335.8c-0.9,0.9-2.4,0.1-2.2-1.3c0.1-0.6,0.4-0.8,1.1-0.9
		C254.9,333.5,255.6,334.9,254.6,335.8z M254.2,316.3c-1.1,0.3-1.9-0.4-1.8-1.5l0.1-0.9h1.2h1.2l0.1,1.1l0.1,1.1L254.2,316.3z
		 M254.4,280.8c0.8,0.4,0.9,2.2,0.2,2.5c-0.3,0.1-0.8,0.1-1.2,0.1l-0.8-0.1l-0.1-1.1C252.3,280.9,253.3,280.2,254.4,280.8z
		 M254.3,287.4c0.9,0.3,1.1,2.2,0.3,2.5c-0.3,0.1-0.8,0.1-1.2,0.1l-0.8-0.1l-0.1-1.1C252.3,287.6,253.1,287,254.3,287.4z M254.3,294
		c0.9,0.3,1.1,2.2,0.3,2.5c-0.3,0.1-0.8,0.1-1.2,0.1l-0.8-0.1l-0.1-1.1C252.3,294.2,253.1,293.6,254.3,294z M252.4,301.8l0.1-1.1
		h1.2h1.2l0.1,1.1c0.1,0.7-0.1,1.1-0.4,1.3c-0.3,0.1-0.9,0.1-1.4,0l-0.8-0.2L252.4,301.8z M252.4,308.4l0.1-1.1h1.2h1.2l0.1,1.1
		c0.1,0.7-0.1,1.1-0.4,1.3c-0.3,0.1-0.9,0.1-1.4,0l-0.8-0.2L252.4,308.4z M108.5,321.7c-0.2,0-0.3-0.1-0.2-0.2
		c0.1-0.1,0.3-0.1,0.4,0S108.7,321.7,108.5,321.7z M108.5,315.3c-0.2,0.1-0.3,0-0.3-0.1s0.1-0.3,0.3-0.3c0.2,0,0.3,0.1,0.3,0.1
		S108.7,315.2,108.5,315.3z M108.3,308.3c0.1-0.1,0.3-0.1,0.4,0s0,0.2-0.2,0.2C108.3,308.5,108.2,308.4,108.3,308.3z M108.5,302.1
		c-0.2,0.1-0.3,0-0.3-0.1c0-0.2,0.1-0.3,0.3-0.3c0.2,0,0.3,0.1,0.3,0.1C108.8,301.8,108.7,302,108.5,302.1z M111.8,331.6
		c-0.2,0-0.3-0.1-0.2-0.2c0.1-0.1,0.3-0.1,0.4,0C112.1,331.5,112,331.6,111.8,331.6z M111.8,325c-0.2,0-0.3-0.1-0.2-0.2
		c0.1-0.1,0.3-0.1,0.4,0C112.1,324.9,112,325,111.8,325z M111.8,318.4c-0.2,0-0.3-0.1-0.2-0.2c0.1-0.1,0.3-0.1,0.4,0
		C112.1,318.3,112,318.4,111.8,318.4z M111.8,312c-0.2,0.1-0.3,0-0.3-0.1c0-0.2,0.1-0.3,0.3-0.3c0.2,0,0.3,0.1,0.3,0.1
		C112.1,311.7,112,311.9,111.8,312z M111.8,305.4c-0.2,0.1-0.3,0-0.3-0.1c0-0.2,0.1-0.3,0.3-0.3c0.2,0,0.3,0.1,0.3,0.1
		C112.1,305.1,112,305.3,111.8,305.4z M111.8,298.9c-0.2,0-0.3-0.1-0.3-0.3c0-0.2,0.1-0.3,0.3-0.3c0.2,0,0.3,0.1,0.3,0.3
		C112.1,298.8,112,298.9,111.8,298.9z M111.8,292.2c-0.2,0.1-0.3,0-0.3-0.1c0-0.2,0.1-0.3,0.3-0.3c0.2,0,0.3,0.1,0.3,0.1
		C112.1,291.9,112,292.1,111.8,292.2z M111.8,285.6c-0.2,0.1-0.3,0-0.3-0.1c0-0.2,0.1-0.3,0.3-0.3c0.2,0,0.3,0.1,0.3,0.1
		C112.1,285.3,112,285.5,111.8,285.6z M115.1,334.9c-0.2,0-0.3-0.1-0.2-0.2c0.1-0.1,0.3-0.1,0.4,0S115.3,334.9,115.1,334.9z
		 M115.1,328.3c-0.2,0-0.3-0.1-0.2-0.2c0.1-0.1,0.3-0.1,0.4,0C115.4,328.2,115.3,328.3,115.1,328.3z M115.1,321.7
		c-0.2,0-0.3-0.1-0.2-0.2c0.1-0.1,0.3-0.1,0.4,0S115.3,321.7,115.1,321.7z M115.1,315.1c-0.2,0-0.3-0.1-0.2-0.2
		c0.1-0.1,0.3-0.1,0.4,0S115.3,315.1,115.1,315.1z M115.1,308.5c-0.2,0-0.3-0.1-0.2-0.2c0.1-0.1,0.3-0.1,0.4,0
		S115.3,308.5,115.1,308.5z M115.1,302.2c-0.2,0-0.3-0.1-0.3-0.3c0-0.2,0.1-0.3,0.3-0.3c0.2,0,0.3,0.1,0.3,0.3
		S115.3,302.2,115.1,302.2z M115.1,295.5c-0.2,0.1-0.3,0-0.3-0.1c0-0.2,0.1-0.3,0.3-0.3c0.2,0,0.3,0.1,0.3,0.1
		S115.3,295.4,115.1,295.5z M115.1,289c-0.2,0-0.3-0.1-0.3-0.3c0-0.2,0.1-0.3,0.3-0.3c0.2,0,0.3,0.1,0.3,0.3S115.3,289,115.1,289z
		 M115.1,282.3c-0.2,0.1-0.3,0-0.3-0.1c0-0.2,0.1-0.3,0.3-0.3c0.2,0,0.3,0.1,0.3,0.1S115.3,282.2,115.1,282.3z M115.1,275.7
		c-0.2,0.1-0.3,0-0.3-0.1c0-0.2,0.1-0.3,0.3-0.3c0.2,0,0.3,0.1,0.3,0.1C115.4,275.4,115.3,275.6,115.1,275.7z M118.4,338.2
		c-0.2,0-0.3-0.1-0.2-0.2c0.1-0.1,0.3-0.1,0.4,0C118.7,338.1,118.6,338.2,118.4,338.2z M118.4,331.6c-0.2,0-0.3-0.1-0.2-0.2
		c0.1-0.1,0.3-0.1,0.4,0C118.7,331.5,118.6,331.6,118.4,331.6z M118.4,325.2c-0.2,0.1-0.3,0-0.3-0.1s0.1-0.3,0.3-0.3
		c0.2,0,0.3,0.1,0.3,0.1C118.7,324.9,118.6,325.1,118.4,325.2z M118.4,318.6c-0.2,0.1-0.3,0-0.3-0.1s0.1-0.3,0.3-0.3
		c0.2,0,0.3,0.1,0.3,0.1C118.7,318.3,118.6,318.5,118.4,318.6z M118.4,312c-0.2,0.1-0.3,0-0.3-0.1c0-0.2,0.1-0.3,0.3-0.3
		c0.2,0,0.3,0.1,0.3,0.1C118.7,311.7,118.6,311.9,118.4,312z M118.4,305.4c-0.2,0.1-0.3,0-0.3-0.1c0-0.2,0.1-0.3,0.3-0.3
		c0.2,0,0.3,0.1,0.3,0.1C118.7,305.1,118.6,305.3,118.4,305.4z M118.4,298.8c-0.2,0.1-0.3,0-0.3-0.1c0-0.2,0.1-0.3,0.3-0.3
		c0.2,0,0.3,0.1,0.3,0.1C118.7,298.5,118.6,298.7,118.4,298.8z M118.4,292.2c-0.2,0.1-0.3,0-0.3-0.1c0-0.2,0.1-0.3,0.3-0.3
		c0.2,0,0.3,0.1,0.3,0.1C118.7,291.9,118.6,292.1,118.4,292.2z M118.4,285.7c-0.2,0-0.3-0.1-0.3-0.3c0-0.2,0.1-0.3,0.3-0.3
		c0.2,0,0.3,0.1,0.3,0.3C118.7,285.6,118.6,285.7,118.4,285.7z M118.4,279c-0.2,0.1-0.3,0-0.3-0.1c0-0.2,0.1-0.3,0.3-0.3
		c0.2,0,0.3,0.1,0.3,0.1C118.7,278.7,118.6,278.9,118.4,279z M118.4,272.4c-0.2,0.1-0.3,0-0.3-0.1c0-0.2,0.1-0.3,0.3-0.3
		c0.2,0,0.3,0.1,0.3,0.1C118.7,272.1,118.6,272.3,118.4,272.4z M121.7,341.5c-0.2,0-0.3-0.1-0.2-0.2c0.1-0.1,0.3-0.1,0.4,0
		S121.9,341.5,121.7,341.5z M121.7,334.9c-0.2,0-0.3-0.1-0.2-0.2c0.1-0.1,0.3-0.1,0.4,0S121.9,334.9,121.7,334.9z M121.7,328.5
		c-0.2,0.1-0.3,0-0.3-0.1c0-0.2,0.1-0.3,0.3-0.3c0.2,0,0.3,0.1,0.3,0.1S121.9,328.4,121.7,328.5z M121.7,321.9
		c-0.2,0.1-0.3,0-0.3-0.1c0-0.2,0.1-0.3,0.3-0.3c0.2,0,0.3,0.1,0.3,0.1S121.9,321.8,121.7,321.9z M121.5,314.9
		c0.1-0.1,0.3-0.1,0.4,0s0,0.2-0.2,0.2C121.5,315.1,121.4,315,121.5,314.9z M121.7,308.7c-0.2,0.1-0.3,0-0.3-0.1s0.1-0.3,0.3-0.3
		c0.2,0,0.3,0.1,0.3,0.1C122,308.4,121.9,308.6,121.7,308.7z M121.7,302.2c-0.2,0-0.3-0.1-0.3-0.3c0-0.2,0.1-0.3,0.3-0.3
		c0.2,0,0.3,0.1,0.3,0.3S121.9,302.2,121.7,302.2z M121.7,295.5c-0.2,0.1-0.3,0-0.3-0.1c0-0.2,0.1-0.3,0.3-0.3
		c0.2,0,0.3,0.1,0.3,0.1S121.9,295.4,121.7,295.5z M121.7,288.9c-0.2,0.1-0.3,0-0.3-0.1c0-0.2,0.1-0.3,0.3-0.3
		c0.2,0,0.3,0.1,0.3,0.1S121.9,288.8,121.7,288.9z M121.7,282.3c-0.2,0.1-0.3,0-0.3-0.1c0-0.2,0.1-0.3,0.3-0.3
		c0.2,0,0.3,0.1,0.3,0.1S121.9,282.2,121.7,282.3z M121.7,275.8c-0.2,0-0.3-0.1-0.3-0.3c0-0.2,0.1-0.3,0.3-0.3
		c0.2,0,0.3,0.1,0.3,0.3C122,275.7,121.9,275.8,121.7,275.8z M121.7,269.2c-0.2,0-0.3-0.1-0.3-0.3c0-0.2,0.1-0.3,0.3-0.3
		c0.2,0,0.3,0.1,0.3,0.3S121.9,269.2,121.7,269.2z M121.7,262.6c-0.2,0-0.3-0.2-0.3-0.5s0.1-0.4,0.3-0.3c0.2,0.1,0.3,0.3,0.3,0.5
		C122,262.5,121.9,262.6,121.7,262.6z M125,338.4c-0.2,0.1-0.3,0-0.3-0.1c0-0.2,0.1-0.3,0.3-0.3c0.2,0,0.3,0.1,0.3,0.1
		S125.2,338.3,125,338.4z M125,331.8c-0.2,0.1-0.3,0-0.3-0.1s0.1-0.3,0.3-0.3c0.2,0,0.3,0.1,0.3,0.1S125.2,331.7,125,331.8z
		 M124.8,324.8c0.1-0.1,0.3-0.1,0.4,0s0,0.2-0.2,0.2C124.8,325,124.7,324.9,124.8,324.8z M125,318.6c-0.2,0.1-0.3,0-0.3-0.1
		s0.1-0.3,0.3-0.3c0.2,0,0.3,0.1,0.3,0.1C125.3,318.3,125.2,318.5,125,318.6z M125,312c-0.2,0.1-0.3,0-0.3-0.1
		c0-0.2,0.1-0.3,0.3-0.3c0.2,0,0.3,0.1,0.3,0.1S125.2,311.9,125,312z M125,305.5c-0.2,0-0.3-0.1-0.3-0.3c0-0.2,0.1-0.3,0.3-0.3
		c0.2,0,0.3,0.1,0.3,0.3S125.2,305.5,125,305.5z M125,298.9c-0.2,0-0.3-0.1-0.3-0.3c0-0.2,0.1-0.3,0.3-0.3c0.2,0,0.3,0.1,0.3,0.3
		S125.2,298.9,125,298.9z M125,292.2c-0.2,0.1-0.3,0-0.3-0.1c0-0.2,0.1-0.3,0.3-0.3c0.2,0,0.3,0.1,0.3,0.1
		C125.3,291.9,125.2,292.1,125,292.2z M125,285.7c-0.2,0-0.3-0.1-0.3-0.3c0-0.2,0.1-0.3,0.3-0.3c0.2,0,0.3,0.1,0.3,0.3
		S125.2,285.7,125,285.7z M125,279c-0.2,0.1-0.3,0-0.3-0.1c0-0.2,0.1-0.3,0.3-0.3c0.2,0,0.3,0.1,0.3,0.1S125.2,278.9,125,279z
		 M125,272.5c-0.2,0-0.3-0.1-0.3-0.3c0-0.2,0.1-0.3,0.3-0.3c0.2,0,0.3,0.1,0.3,0.3S125.2,272.5,125,272.5z M125,265.9
		c-0.2,0-0.3-0.1-0.3-0.3c0-0.2,0.1-0.3,0.3-0.3c0.2,0,0.3,0.1,0.3,0.3S125.2,265.9,125,265.9z M125,259.3c-0.2,0-0.3-0.1-0.3-0.3
		c0-0.2,0.1-0.3,0.3-0.3c0.2,0,0.3,0.1,0.3,0.3C125.3,259.2,125.2,259.3,125,259.3z M128.3,341.7c-0.2,0.1-0.3,0-0.3-0.1
		s0.1-0.3,0.3-0.3s0.3,0.1,0.3,0.1C128.6,341.4,128.5,341.6,128.3,341.7z M128.3,335.1c-0.2,0.1-0.3,0-0.3-0.1s0.1-0.3,0.3-0.3
		s0.3,0.1,0.3,0.1C128.6,334.8,128.5,335,128.3,335.1z M128.1,328.1c0.1-0.1,0.3-0.1,0.4,0c0.1,0.1,0,0.2-0.2,0.2
		C128.1,328.3,128,328.2,128.1,328.1z M128.3,321.9c-0.2,0.1-0.3,0-0.3-0.1c0-0.2,0.1-0.3,0.3-0.3s0.3,0.1,0.3,0.1
		S128.5,321.8,128.3,321.9z M128.3,315.3c-0.2,0.1-0.3,0-0.3-0.1s0.1-0.3,0.3-0.3s0.3,0.1,0.3,0.1S128.5,315.2,128.3,315.3z
		 M128.3,308.8c-0.2,0-0.3-0.1-0.3-0.3s0.1-0.3,0.3-0.3s0.3,0.1,0.3,0.3S128.5,308.8,128.3,308.8z M128.3,302.1
		c-0.2,0.1-0.3,0-0.3-0.1c0-0.2,0.1-0.3,0.3-0.3s0.3,0.1,0.3,0.1C128.6,301.8,128.5,302,128.3,302.1z M128.3,295.5
		c-0.2,0.1-0.3,0-0.3-0.1c0-0.2,0.1-0.3,0.3-0.3s0.3,0.1,0.3,0.1S128.5,295.4,128.3,295.5z M128.3,288.9c-0.2,0.1-0.3,0-0.3-0.1
		c0-0.2,0.1-0.3,0.3-0.3s0.3,0.1,0.3,0.1S128.5,288.8,128.3,288.9z M128.3,282.4c-0.2,0-0.3-0.1-0.3-0.3c0-0.2,0.1-0.3,0.3-0.3
		s0.3,0.1,0.3,0.3S128.5,282.4,128.3,282.4z M128.3,275.8c-0.2,0-0.3-0.2-0.3-0.5s0.1-0.4,0.3-0.3s0.3,0.3,0.3,0.5
		S128.5,275.8,128.3,275.8z M128.3,269.2c-0.2,0-0.3-0.1-0.3-0.3c0-0.2,0.1-0.3,0.3-0.3s0.3,0.1,0.3,0.3S128.5,269.2,128.3,269.2z
		 M128.3,262.6c-0.2,0-0.3-0.1-0.3-0.3c0-0.2,0.1-0.3,0.3-0.3s0.3,0.1,0.3,0.3S128.5,262.6,128.3,262.6z M128.3,256
		c-0.2,0-0.3-0.1-0.3-0.3s0.1-0.3,0.3-0.3s0.3,0.1,0.3,0.3S128.5,256,128.3,256z M131.6,345c-0.2,0.1-0.3,0-0.3-0.1
		c0-0.2,0.1-0.3,0.3-0.3s0.3,0.1,0.3,0.1C131.9,344.7,131.8,344.9,131.6,345z M131.6,338.4c-0.2,0.1-0.3,0-0.3-0.1
		c0-0.2,0.1-0.3,0.3-0.3s0.3,0.1,0.3,0.1C131.9,338.1,131.8,338.3,131.6,338.4z M131.6,331.8c-0.2,0.1-0.3,0-0.3-0.1
		s0.1-0.3,0.3-0.3s0.3,0.1,0.3,0.1C131.9,331.5,131.8,331.7,131.6,331.8z M131.6,325.2c-0.2,0.1-0.3,0-0.3-0.1s0.1-0.3,0.3-0.3
		s0.3,0.1,0.3,0.1C131.9,324.9,131.8,325.1,131.6,325.2z M131.6,318.6c-0.2,0.1-0.3,0-0.3-0.1s0.1-0.3,0.3-0.3s0.3,0.1,0.3,0.1
		C131.9,318.3,131.8,318.5,131.6,318.6z M131.6,312c-0.2,0.1-0.3,0-0.3-0.1c0-0.2,0.1-0.3,0.3-0.3s0.3,0.1,0.3,0.1
		C131.9,311.7,131.8,311.9,131.6,312z M131.6,305.4c-0.2,0.1-0.3,0-0.3-0.1c0-0.2,0.1-0.3,0.3-0.3s0.3,0.1,0.3,0.1
		C131.9,305.1,131.8,305.3,131.6,305.4z M131.6,298.9c-0.2,0-0.3-0.1-0.3-0.3c0-0.2,0.1-0.3,0.3-0.3s0.3,0.1,0.3,0.3
		C131.9,298.8,131.8,298.9,131.6,298.9z M131.6,292.3c-0.2,0-0.3-0.1-0.3-0.3c0-0.2,0.1-0.3,0.3-0.3s0.3,0.1,0.3,0.3
		C131.9,292.2,131.8,292.3,131.6,292.3z M131.6,285.7c-0.2,0-0.3-0.1-0.3-0.3c0-0.2,0.1-0.3,0.3-0.3s0.3,0.1,0.3,0.3
		C131.9,285.6,131.8,285.7,131.6,285.7z M131.6,279.1c-0.2,0-0.3-0.1-0.3-0.3c0-0.2,0.1-0.3,0.3-0.3s0.3,0.1,0.3,0.3
		C131.9,279,131.8,279.1,131.6,279.1z M131.6,272.5c-0.2,0-0.3-0.1-0.3-0.3c0-0.2,0.1-0.3,0.3-0.3s0.3,0.1,0.3,0.3
		C131.9,272.4,131.8,272.5,131.6,272.5z M131.6,265.9c-0.2,0-0.3-0.2-0.3-0.5s0.1-0.4,0.3-0.3s0.3,0.3,0.3,0.5
		S131.8,265.9,131.6,265.9z M131.6,259.3c-0.2,0-0.3-0.2-0.3-0.5s0.1-0.4,0.3-0.3s0.3,0.3,0.3,0.5
		C131.9,259.2,131.8,259.3,131.6,259.3z M131.6,252.7c-0.2,0-0.3-0.2-0.3-0.5s0.1-0.4,0.3-0.3c0.2,0.1,0.3,0.3,0.3,0.5
		C131.9,252.6,131.8,252.7,131.6,252.7z M134.9,341.7c-0.2,0.1-0.3,0-0.3-0.1s0.1-0.3,0.3-0.3s0.3,0.1,0.3,0.1
		C135.2,341.4,135.1,341.6,134.9,341.7z M134.9,335.1c-0.2,0.1-0.3,0-0.3-0.1s0.1-0.3,0.3-0.3s0.3,0.1,0.3,0.1
		C135.2,334.8,135.1,335,134.9,335.1z M134.9,328.5c-0.2,0.1-0.3,0-0.3-0.1c0-0.2,0.1-0.3,0.3-0.3s0.3,0.1,0.3,0.1
		S135.1,328.4,134.9,328.5z M134.9,322c-0.2,0-0.3-0.1-0.3-0.3c0-0.2,0.1-0.3,0.3-0.3s0.3,0.1,0.3,0.3S135.1,322,134.9,322z
		 M134.9,315.3c-0.2,0.1-0.3,0-0.3-0.1s0.1-0.3,0.3-0.3s0.3,0.1,0.3,0.1S135.1,315.2,134.9,315.3z M134.9,308.7
		c-0.2,0.1-0.3,0-0.3-0.1s0.1-0.3,0.3-0.3s0.3,0.1,0.3,0.1C135.2,308.4,135.1,308.6,134.9,308.7z M134.9,302.2
		c-0.2,0-0.3-0.1-0.3-0.3c0-0.2,0.1-0.3,0.3-0.3s0.3,0.1,0.3,0.3S135.1,302.2,134.9,302.2z M134.9,295.6c-0.2,0-0.3-0.1-0.3-0.3
		c0-0.2,0.1-0.3,0.3-0.3s0.3,0.1,0.3,0.3S135.1,295.6,134.9,295.6z M134.9,289c-0.2,0-0.3-0.1-0.3-0.3c0-0.2,0.1-0.3,0.3-0.3
		s0.3,0.1,0.3,0.3S135.1,289,134.9,289z M134.9,282.4c-0.2,0-0.3-0.2-0.3-0.5s0.1-0.4,0.3-0.3s0.3,0.3,0.3,0.5
		S135.1,282.4,134.9,282.4z M134.9,275.8c-0.2,0-0.3-0.1-0.3-0.3c0-0.2,0.1-0.3,0.3-0.3s0.3,0.1,0.3,0.3
		C135.2,275.7,135.1,275.8,134.9,275.8z M134.9,269.2c-0.2,0-0.3-0.2-0.3-0.5s0.1-0.4,0.3-0.3s0.3,0.3,0.3,0.5
		C135.2,269.1,135.1,269.2,134.9,269.2z M134.9,262.6c-0.2,0-0.3-0.2-0.3-0.5s0.1-0.4,0.3-0.3s0.3,0.3,0.3,0.5
		C135.2,262.5,135.1,262.6,134.9,262.6z M134.9,256c-0.2,0-0.3-0.2-0.3-0.5s0.1-0.4,0.3-0.3c0.2,0.1,0.3,0.3,0.3,0.5
		S135.1,256,134.9,256z M134.9,249.4c-0.2,0-0.3-0.2-0.3-0.5s0.1-0.4,0.3-0.3c0.2,0.1,0.3,0.3,0.3,0.5
		C135.2,249.3,135.1,249.4,134.9,249.4z M134.9,242.8c-0.2,0-0.3-0.2-0.3-0.5s0.1-0.4,0.3-0.3c0.2,0.1,0.3,0.3,0.3,0.5
		S135.1,242.8,134.9,242.8z M138.2,345c-0.2,0.1-0.3,0-0.3-0.1c0-0.2,0.1-0.3,0.3-0.3s0.3,0.1,0.3,0.1S138.4,344.9,138.2,345z
		 M138.2,338.4c-0.2,0.1-0.3,0-0.3-0.1c0-0.2,0.1-0.3,0.3-0.3s0.3,0.1,0.3,0.1S138.4,338.3,138.2,338.4z M138.2,331.8
		c-0.2,0.1-0.3,0-0.3-0.1s0.1-0.3,0.3-0.3s0.3,0.1,0.3,0.1S138.4,331.7,138.2,331.8z M138.2,325.2c-0.2,0.1-0.3,0-0.3-0.1
		s0.1-0.3,0.3-0.3s0.3,0.1,0.3,0.1C138.5,324.9,138.4,325.1,138.2,325.2z M138.2,318.6c-0.2,0.1-0.3,0-0.3-0.1s0.1-0.3,0.3-0.3
		s0.3,0.1,0.3,0.1C138.5,318.3,138.4,318.5,138.2,318.6z M138.2,312.1c-0.2,0-0.3-0.1-0.3-0.3c0-0.2,0.1-0.3,0.3-0.3
		s0.3,0.1,0.3,0.3S138.4,312.1,138.2,312.1z M138.2,305.5c-0.2,0-0.3-0.1-0.3-0.3c0-0.2,0.1-0.3,0.3-0.3s0.3,0.1,0.3,0.3
		S138.4,305.5,138.2,305.5z M138.2,298.9c-0.2,0-0.3-0.1-0.3-0.3s0.1-0.3,0.3-0.3s0.3,0.1,0.3,0.3S138.4,298.9,138.2,298.9z
		 M138.2,292.3c-0.2,0-0.3-0.1-0.3-0.3c0-0.2,0.1-0.3,0.3-0.3s0.3,0.1,0.3,0.3C138.5,292.2,138.4,292.3,138.2,292.3z M138.2,285.7
		c-0.2,0-0.3-0.1-0.3-0.3c0-0.2,0.1-0.3,0.3-0.3s0.3,0.1,0.3,0.3S138.4,285.7,138.2,285.7z M138.2,279.1c-0.2,0-0.3-0.2-0.3-0.5
		s0.1-0.4,0.3-0.3s0.3,0.3,0.3,0.5C138.5,279,138.4,279.1,138.2,279.1z M138.2,272.5c-0.2,0-0.3-0.2-0.3-0.5s0.1-0.4,0.3-0.3
		s0.3,0.3,0.3,0.5S138.4,272.5,138.2,272.5z M138.2,265.9c-0.2,0-0.3-0.2-0.3-0.5s0.1-0.4,0.3-0.3s0.3,0.3,0.3,0.5
		C138.5,265.8,138.4,265.9,138.2,265.9z M138.2,259.3c-0.2,0-0.3-0.2-0.3-0.5s0.1-0.4,0.3-0.3s0.3,0.3,0.3,0.5
		S138.4,259.3,138.2,259.3z M138.2,252.7c-0.2,0-0.3-0.2-0.3-0.5s0.1-0.4,0.3-0.3c0.2,0.1,0.3,0.3,0.3,0.5S138.4,252.7,138.2,252.7z
		 M138.2,246.1c-0.2,0-0.3-0.2-0.3-0.5s0.1-0.4,0.3-0.3c0.2,0.1,0.3,0.3,0.3,0.5S138.4,246.1,138.2,246.1z M138.2,239.5
		c-0.2,0-0.3-0.2-0.3-0.5s0.1-0.4,0.3-0.3c0.2,0.1,0.3,0.3,0.3,0.5S138.4,239.5,138.2,239.5z M141.5,341.8c-0.2,0-0.3-0.1-0.3-0.3
		c0-0.2,0.1-0.3,0.3-0.3s0.3,0.1,0.3,0.3C141.8,341.7,141.7,341.8,141.5,341.8z M141.5,335.2c-0.2,0-0.3-0.1-0.3-0.3
		c0-0.2,0.1-0.3,0.3-0.3s0.3,0.1,0.3,0.3S141.7,335.2,141.5,335.2z M141.5,328.6c-0.2,0-0.3-0.2-0.3-0.5s0.1-0.4,0.3-0.3
		s0.3,0.3,0.3,0.5C141.8,328.5,141.7,328.6,141.5,328.6z M141.5,322c-0.2,0-0.3-0.1-0.3-0.3c0-0.2,0.1-0.3,0.3-0.3s0.3,0.1,0.3,0.3
		S141.7,322,141.5,322z M141.5,315.4c-0.2,0-0.3-0.2-0.3-0.5s0.1-0.4,0.3-0.3s0.3,0.3,0.3,0.5S141.7,315.4,141.5,315.4z
		 M141.5,308.8c-0.2,0-0.3-0.1-0.3-0.3c0-0.2,0.1-0.3,0.3-0.3s0.3,0.1,0.3,0.3C141.8,308.7,141.7,308.8,141.5,308.8z M141.5,302.2
		c-0.2,0-0.3-0.1-0.3-0.3c0-0.2,0.1-0.3,0.3-0.3s0.3,0.1,0.3,0.3S141.7,302.2,141.5,302.2z M141.5,295.6c-0.2,0-0.3-0.2-0.3-0.5
		s0.1-0.4,0.3-0.3s0.3,0.3,0.3,0.5C141.8,295.5,141.7,295.6,141.5,295.6z M141.5,289c-0.2,0-0.3-0.2-0.3-0.5s0.1-0.4,0.3-0.3
		s0.3,0.3,0.3,0.5S141.7,289,141.5,289z M141.5,282.4c-0.2,0-0.3-0.2-0.3-0.5s0.1-0.4,0.3-0.3s0.3,0.3,0.3,0.5
		S141.7,282.4,141.5,282.4z M141.5,275.8c-0.2,0-0.3-0.2-0.3-0.5s0.1-0.4,0.3-0.3s0.3,0.3,0.3,0.5S141.7,275.8,141.5,275.8z
		 M141.5,269.2c-0.2,0-0.3-0.2-0.3-0.5s0.1-0.4,0.3-0.3s0.3,0.3,0.3,0.5C141.8,269.1,141.7,269.2,141.5,269.2z M141.5,262.6
		c-0.2,0-0.3-0.2-0.3-0.5s0.1-0.4,0.3-0.3s0.3,0.3,0.3,0.5C141.8,262.5,141.7,262.6,141.5,262.6z M141.5,256c-0.2,0-0.3-0.2-0.3-0.5
		s0.1-0.4,0.3-0.3c0.2,0.1,0.3,0.3,0.3,0.5S141.7,256,141.5,256z M141.5,249.4c-0.2,0-0.3-0.2-0.3-0.5s0.1-0.4,0.3-0.3
		c0.2,0.1,0.3,0.3,0.3,0.5C141.8,249.3,141.7,249.4,141.5,249.4z M141.5,242.8c-0.2,0-0.3-0.2-0.3-0.5s0.1-0.4,0.3-0.3
		c0.2,0.1,0.3,0.3,0.3,0.5S141.7,242.8,141.5,242.8z M141.5,236.2c-0.2,0-0.3-0.2-0.3-0.5s0.1-0.4,0.3-0.3c0.2,0.1,0.3,0.3,0.3,0.5
		S141.7,236.2,141.5,236.2z M144.8,345c-0.2,0.1-0.3,0-0.3-0.1c0-0.2,0.1-0.3,0.3-0.3s0.3,0.1,0.3,0.1S145,344.9,144.8,345z
		 M144.8,338.5c-0.2,0-0.3-0.2-0.3-0.5s0.1-0.4,0.3-0.3s0.3,0.3,0.3,0.5C145.1,338.4,145,338.5,144.8,338.5z M144.8,331.9
		c-0.2,0-0.3-0.1-0.3-0.3c0-0.2,0.1-0.3,0.3-0.3s0.3,0.1,0.3,0.3S145,331.9,144.8,331.9z M144.8,325.3c-0.2,0-0.3-0.2-0.3-0.5
		s0.1-0.4,0.3-0.3s0.3,0.3,0.3,0.5S145,325.3,144.8,325.3z M144.8,318.7c-0.2,0-0.3-0.1-0.3-0.3c0-0.2,0.1-0.3,0.3-0.3
		s0.3,0.1,0.3,0.3S145,318.7,144.8,318.7z M144.8,312.1c-0.2,0-0.3-0.2-0.3-0.5s0.1-0.4,0.3-0.3s0.3,0.3,0.3,0.5
		C145.1,312,145,312.1,144.8,312.1z M144.8,305.5c-0.2,0-0.3-0.2-0.3-0.5s0.1-0.4,0.3-0.3s0.3,0.3,0.3,0.5
		C145.1,305.4,145,305.5,144.8,305.5z M144.8,298.9c-0.2,0-0.3-0.2-0.3-0.5s0.1-0.4,0.3-0.3s0.3,0.3,0.3,0.5S145,298.9,144.8,298.9z
		 M144.8,292.3c-0.2,0-0.3-0.2-0.3-0.5s0.1-0.4,0.3-0.3s0.3,0.3,0.3,0.5S145,292.3,144.8,292.3z M144.8,285.7
		c-0.2,0-0.3-0.2-0.3-0.5s0.1-0.4,0.3-0.3s0.3,0.3,0.3,0.5C145.1,285.6,145,285.7,144.8,285.7z M144.8,279.1c-0.2,0-0.3-0.2-0.3-0.5
		s0.1-0.4,0.3-0.3s0.3,0.3,0.3,0.5C145.1,279,145,279.1,144.8,279.1z M144.8,272.5c-0.2,0-0.3-0.2-0.3-0.5s0.1-0.4,0.3-0.3
		s0.3,0.3,0.3,0.5S145,272.5,144.8,272.5z M144.8,265.9c-0.2,0-0.3-0.2-0.3-0.5s0.1-0.4,0.3-0.3s0.3,0.3,0.3,0.5
		C145.1,265.8,145,265.9,144.8,265.9z M144.8,259.3c-0.2,0-0.3-0.2-0.3-0.5s0.1-0.5,0.3-0.5s0.3,0.2,0.3,0.5
		C145.1,259.1,145,259.3,144.8,259.3z M144.8,252.7c-0.2,0-0.3-0.2-0.3-0.5s0.1-0.4,0.3-0.3c0.2,0.1,0.3,0.3,0.3,0.5
		S145,252.7,144.8,252.7z M144.8,246.1c-0.2,0-0.3-0.2-0.3-0.5s0.1-0.5,0.3-0.5s0.3,0.2,0.3,0.5C145.1,245.9,145,246.1,144.8,246.1z
		 M144.8,239.5c-0.2,0-0.3-0.2-0.3-0.5s0.1-0.5,0.3-0.5s0.3,0.2,0.3,0.5S145,239.5,144.8,239.5z M144.8,232.9
		c-0.2,0-0.3-0.2-0.3-0.5s0.1-0.5,0.3-0.5s0.3,0.2,0.3,0.5S145,232.9,144.8,232.9z M181.3,215.3c0.7,0.3,0.6,1.4-0.2,1.4
		c-0.4,0-0.7-0.2-0.7-0.6C180.4,215.4,180.7,215.1,181.3,215.3z M181.3,221.9c0.7,0.3,0.6,1.4-0.2,1.4c-0.4,0-0.7-0.2-0.7-0.6
		C180.4,222,180.7,221.7,181.3,221.9z M181.1,228.7c0.4,0,0.7,0.2,0.7,0.7s-0.2,0.7-0.7,0.7c-0.4,0-0.7-0.2-0.7-0.7
		S180.7,228.7,181.1,228.7z M181.1,235.3c0.4,0,0.7,0.2,0.7,0.7s-0.2,0.7-0.7,0.7c-0.4,0-0.7-0.2-0.7-0.7S180.7,235.3,181.1,235.3z
		 M181.1,241.9c0.4,0,0.7,0.2,0.7,0.7s-0.2,0.7-0.7,0.7c-0.4,0-0.7-0.2-0.7-0.7S180.7,241.9,181.1,241.9z M181.1,248.5
		c0.4,0,0.7,0.2,0.7,0.7s-0.2,0.7-0.7,0.7c-0.4,0-0.7-0.2-0.7-0.7S180.7,248.5,181.1,248.5z M181.1,255.1c0.4,0,0.7,0.2,0.7,0.7
		c0,0.4-0.2,0.7-0.7,0.7c-0.4,0-0.7-0.2-0.7-0.7C180.4,255.3,180.7,255.1,181.1,255.1z M181,314.5c0.7,0.1,0.9,0.8,0.5,1.1
		c-0.5,0.3-1-0.1-1-0.7C180.4,314.6,180.7,314.4,181,314.5z M181,321.1c0.7,0.1,0.9,0.8,0.5,1.1c-0.5,0.3-1-0.1-1-0.7
		C180.4,321.2,180.7,321.1,181,321.1z M177.8,212.2c0.4,0,0.7,0.2,0.7,0.7s-0.2,0.7-0.7,0.7c-0.4,0-0.7-0.2-0.7-0.7
		S177.4,212.2,177.8,212.2z M177.8,232c0.4,0,0.7,0.2,0.7,0.7s-0.2,0.7-0.7,0.7c-0.4,0-0.7-0.2-0.7-0.7S177.4,232,177.8,232z
		 M177.1,226c0-0.4,0.2-0.7,0.7-0.7c0.4,0,0.7,0.2,0.7,0.7s-0.2,0.7-0.7,0.7C177.4,226.7,177.1,226.5,177.1,226z M177.8,238.6
		c0.7,0,0.9,0.8,0.3,1.2c-0.4,0.3-1-0.1-1-0.7C177.1,238.8,177.4,238.6,177.8,238.6z M177.7,278.2c0.7,0.1,0.9,0.8,0.5,1.1
		c-0.5,0.3-1-0.1-1-0.7C177.1,278.3,177.4,278.1,177.7,278.2z M177.1,272c0-0.3,0.2-0.5,0.6-0.4c0.7,0.1,0.9,0.8,0.5,1.1
		C177.7,273,177.1,272.6,177.1,272z M177.7,284.8c0.7,0.1,0.9,0.8,0.5,1.1c-0.5,0.3-1-0.1-1-0.7
		C177.1,284.9,177.4,284.7,177.7,284.8z M174.5,215.5c0.7,0,0.9,0.8,0.3,1.2c-0.4,0.3-1-0.1-1-0.7
		C173.8,215.7,174.1,215.5,174.5,215.5z M174.5,222.1c0.7,0,0.9,0.8,0.3,1.2c-0.4,0.3-1-0.1-1-0.7
		C173.8,222.3,174.1,222.1,174.5,222.1z M174.5,228.7c0.7,0,0.9,0.8,0.3,1.2c-0.4,0.3-1-0.1-1-0.7
		C173.8,228.9,174.1,228.7,174.5,228.7z M174.5,235.3c0.7,0,0.9,0.8,0.3,1.2c-0.4,0.3-1-0.1-1-0.7
		C173.8,235.5,174.1,235.3,174.5,235.3z M174.8,243c-0.5,0.3-1-0.1-1-0.7c0-0.3,0.2-0.5,0.5-0.4C175.1,242,175.3,242.7,174.8,243z
		 M174.5,248.5c0.7,0,0.9,0.8,0.3,1.2c-0.4,0.3-1-0.1-1-0.7C173.8,248.7,174.1,248.5,174.5,248.5z M174.8,282.6
		c-0.6,0.3-1.2-0.4-0.7-0.9c0.4-0.4,1.1-0.1,1.1,0.4C175.2,282.3,175,282.5,174.8,282.6z M175.2,288.7c0,0.2-0.2,0.4-0.4,0.5
		c-0.6,0.3-1.2-0.4-0.7-0.9C174.5,288,175.2,288.2,175.2,288.7z M174.8,276c-0.6,0.3-1.2-0.4-0.7-0.9c0.4-0.4,1.1-0.1,1.1,0.4
		C175.2,275.7,175,275.9,174.8,276z M174.8,269.4c-0.6,0.3-1.2-0.4-0.7-0.9c0.4-0.4,1.1-0.1,1.1,0.4
		C175.2,269.1,175,269.3,174.8,269.4z M174.4,255.1c0.7,0.1,0.9,0.8,0.5,1.1c-0.5,0.3-1-0.1-1-0.7
		C173.8,255.2,174.1,255,174.4,255.1z M174.4,261.7c0.7,0.1,0.9,0.8,0.5,1.1c-0.5,0.3-1-0.1-1-0.7
		C173.8,261.8,174.1,261.6,174.4,261.7z M174.1,295c0.2-0.2,0.5-0.3,0.7-0.2c0.4,0.3,0.5,0.7,0.1,1c-0.1,0.1-0.5,0-0.7-0.1l-0.5-0.3
		L174.1,295z M174.1,301.6c0.2-0.2,0.5-0.3,0.7-0.2c0.4,0.3,0.5,0.7,0.1,1c-0.1,0.1-0.5,0-0.7-0.1l-0.5-0.3L174.1,301.6z
		 M171.5,252.9c-0.6,0.3-1.2-0.4-0.7-0.9c0.4-0.4,1.1-0.1,1.1,0.4C171.9,252.6,171.7,252.8,171.5,252.9z M171.9,259
		c0,0.2-0.2,0.4-0.4,0.5c-0.6,0.3-1.2-0.4-0.7-0.9C171.2,258.3,171.9,258.5,171.9,259z M171.5,246.3c-0.6,0.3-1.2-0.4-0.7-0.9
		c0.4-0.4,1.1-0.1,1.1,0.4C171.9,246,171.7,246.2,171.5,246.3z M171.5,239.7c-0.6,0.3-1.2-0.4-0.7-0.9c0.4-0.4,1.1-0.1,1.1,0.4
		C171.9,239.4,171.7,239.6,171.5,239.7z M171.1,212.2c0.7,0.1,0.9,0.8,0.5,1.1c-0.5,0.3-1-0.1-1-0.7
		C170.5,212.3,170.8,212.1,171.1,212.2z M171.1,218.8c0.7,0.1,0.9,0.8,0.5,1.1c-0.5,0.3-1-0.1-1-0.7
		C170.5,218.9,170.8,218.7,171.1,218.8z M171.1,225.4c0.7,0.1,0.9,0.8,0.5,1.1c-0.5,0.3-1-0.1-1-0.7
		C170.5,225.5,170.8,225.3,171.1,225.4z M171.1,232c0.7,0.1,0.9,0.8,0.5,1.1c-0.5,0.3-1-0.1-1-0.7
		C170.5,232.1,170.8,231.9,171.1,232z M170.8,265.3c0.2-0.2,0.5-0.3,0.7-0.2c0.4,0.3,0.5,0.7,0.1,1c-0.1,0.1-0.5,0-0.7-0.1l-0.5-0.3
		L170.8,265.3z M170.8,271.9c0.2-0.2,0.5-0.3,0.7-0.2c0.4,0.3,0.5,0.7,0.1,1c-0.1,0.1-0.5,0-0.7-0.1l-0.5-0.3L170.8,271.9z
		 M170.8,278.5c0.2-0.2,0.5-0.3,0.7-0.2c0.4,0.3,0.5,0.7,0.1,1c-0.1,0.1-0.5,0-0.7-0.1l-0.5-0.3L170.8,278.5z M167.5,215.7
		c0.4-0.4,1.1-0.1,1.1,0.4c0,0.2-0.2,0.4-0.4,0.5C167.6,217,167,216.2,167.5,215.7z M167.5,222.3c0.4-0.4,1.1-0.1,1.1,0.4
		c0,0.2-0.2,0.4-0.4,0.5C167.6,223.6,167,222.8,167.5,222.3z M167.5,228.9c0.4-0.4,1.1-0.1,1.1,0.4c0,0.2-0.2,0.4-0.4,0.5
		C167.6,230.2,167,229.4,167.5,228.9z M167.5,235.6c0.2-0.2,0.5-0.3,0.7-0.2c0.4,0.3,0.5,0.7,0.1,1c-0.1,0.1-0.5,0-0.7-0.1l-0.5-0.3
		L167.5,235.6z M167.5,242.2c0.2-0.2,0.5-0.3,0.7-0.2c0.4,0.3,0.5,0.7,0.1,1c-0.1,0.1-0.5,0-0.7-0.1l-0.5-0.3L167.5,242.2z
		 M167.5,248.8c0.2-0.2,0.5-0.3,0.7-0.2c0.4,0.3,0.5,0.7,0.1,1c-0.1,0.1-0.5,0-0.7-0.1l-0.5-0.3L167.5,248.8z M164.2,219.1
		c0.2-0.2,0.5-0.3,0.7-0.2c0.4,0.3,0.5,0.7,0.1,1c-0.1,0.1-0.5,0-0.7-0.1l-0.5-0.3L164.2,219.1z M164.2,225.7
		c0.2-0.2,0.5-0.3,0.7-0.2c0.4,0.3,0.5,0.7,0.1,1c-0.1,0.1-0.5,0-0.7-0.1l-0.5-0.3L164.2,225.7z M160.7,216c0.1-0.2,0.3-0.4,0.6-0.4
		c0.2,0,0.5,0.2,0.6,0.4s-0.2,0.4-0.6,0.4S160.6,216.3,160.7,216z M160.7,222.6c0.1-0.2,0.3-0.4,0.6-0.4c0.2,0,0.5,0.2,0.6,0.4
		s-0.2,0.4-0.6,0.4S160.6,222.9,160.7,222.6z M160.7,229.2c0.1-0.2,0.3-0.4,0.6-0.4c0.2,0,0.5,0.2,0.6,0.4s-0.2,0.4-0.6,0.4
		C160.9,229.6,160.6,229.5,160.7,229.2z M148.1,341.8c-0.2,0-0.3-0.1-0.3-0.3c0-0.2,0.1-0.3,0.3-0.3s0.3,0.1,0.3,0.3
		C148.4,341.7,148.3,341.8,148.1,341.8z M148.1,335.2c-0.2,0-0.3-0.1-0.3-0.3c0-0.2,0.1-0.3,0.3-0.3s0.3,0.1,0.3,0.3
		C148.4,335.1,148.3,335.2,148.1,335.2z M148.1,328.6c-0.2,0-0.3-0.2-0.3-0.5s0.1-0.4,0.3-0.3s0.3,0.3,0.3,0.5
		C148.4,328.5,148.3,328.6,148.1,328.6z M148.1,322c-0.2,0-0.3-0.2-0.3-0.5s0.1-0.4,0.3-0.3s0.3,0.3,0.3,0.5
		C148.4,321.9,148.3,322,148.1,322z M148.1,315.4c-0.2,0-0.3-0.2-0.3-0.5s0.1-0.4,0.3-0.3s0.3,0.3,0.3,0.5S148.3,315.4,148.1,315.4z
		 M148.1,308.8c-0.2,0-0.3-0.2-0.3-0.5s0.1-0.4,0.3-0.3s0.3,0.3,0.3,0.5S148.3,308.8,148.1,308.8z M148.1,302.2
		c-0.2,0-0.3-0.2-0.3-0.5s0.1-0.4,0.3-0.3s0.3,0.3,0.3,0.5C148.4,302.1,148.3,302.2,148.1,302.2z M148.1,295.6
		c-0.2,0-0.3-0.2-0.3-0.5s0.1-0.5,0.3-0.5s0.3,0.2,0.3,0.5S148.3,295.6,148.1,295.6z M148.1,289c-0.2,0-0.3-0.2-0.3-0.5
		s0.1-0.4,0.3-0.3s0.3,0.3,0.3,0.5S148.3,289,148.1,289z M148.1,282.4c-0.2,0-0.3-0.2-0.3-0.5s0.1-0.4,0.3-0.3s0.3,0.3,0.3,0.5
		S148.3,282.4,148.1,282.4z M148.1,275.8c-0.2,0-0.3-0.2-0.3-0.5s0.1-0.4,0.3-0.3s0.3,0.3,0.3,0.5
		C148.4,275.7,148.3,275.8,148.1,275.8z M148.1,269.2c-0.2,0-0.3-0.2-0.3-0.5s0.1-0.5,0.3-0.5s0.3,0.2,0.3,0.5
		S148.3,269.2,148.1,269.2z M148.1,262.6c-0.2,0-0.3-0.2-0.3-0.5s0.1-0.5,0.3-0.5s0.3,0.2,0.3,0.5
		C148.4,262.4,148.3,262.6,148.1,262.6z M148.1,256c-0.2,0-0.3-0.2-0.3-0.5s0.1-0.5,0.3-0.5s0.3,0.2,0.3,0.5
		C148.4,255.8,148.3,256,148.1,256z M148.1,249.4c-0.2,0-0.3-0.2-0.3-0.5s0.1-0.5,0.3-0.5s0.3,0.2,0.3,0.5
		C148.4,249.2,148.3,249.4,148.1,249.4z M148.1,242.8c-0.2,0-0.3-0.2-0.3-0.5s0.1-0.5,0.3-0.5s0.3,0.2,0.3,0.5
		C148.4,242.6,148.3,242.8,148.1,242.8z M148.1,236.2c-0.5-0.2-0.5-0.7-0.1-0.9c0.2-0.1,0.4,0.1,0.4,0.4
		C148.4,236,148.3,236.2,148.1,236.2z M148.1,229.6c-0.5-0.2-0.5-0.7-0.1-0.9c0.2-0.1,0.4,0.1,0.4,0.4S148.3,229.6,148.1,229.6z
		 M151.4,345.1c-0.2,0-0.3-0.2-0.3-0.5s0.1-0.4,0.3-0.3s0.3,0.3,0.3,0.5C151.7,345,151.6,345.1,151.4,345.1z M151.4,338.5
		c-0.2,0-0.3-0.2-0.3-0.5s0.1-0.4,0.3-0.3s0.3,0.3,0.3,0.5C151.7,338.4,151.6,338.5,151.4,338.5z M151.4,331.9
		c-0.2,0-0.3-0.2-0.3-0.5s0.1-0.4,0.3-0.3s0.3,0.3,0.3,0.5S151.6,331.9,151.4,331.9z M151.4,325.3c-0.2,0-0.3-0.2-0.3-0.5
		s0.1-0.4,0.3-0.3s0.3,0.3,0.3,0.5S151.6,325.3,151.4,325.3z M151.4,318.7c-0.2,0-0.3-0.2-0.3-0.5s0.1-0.4,0.3-0.3s0.3,0.3,0.3,0.5
		C151.7,318.6,151.6,318.7,151.4,318.7z M151.4,312.1c-0.2,0-0.3-0.2-0.3-0.5s0.1-0.4,0.3-0.3s0.3,0.3,0.3,0.5
		C151.7,312,151.6,312.1,151.4,312.1z M151.4,305.5c-0.2,0-0.3-0.2-0.3-0.5s0.1-0.4,0.3-0.3s0.3,0.3,0.3,0.5
		C151.7,305.4,151.6,305.5,151.4,305.5z M151.4,298.9c-0.2,0-0.3-0.2-0.3-0.5s0.1-0.4,0.3-0.3s0.3,0.3,0.3,0.5
		C151.7,298.8,151.6,298.9,151.4,298.9z M151.4,292.3c-0.2,0-0.3-0.2-0.3-0.5s0.1-0.4,0.3-0.3s0.3,0.3,0.3,0.5
		S151.6,292.3,151.4,292.3z M151.4,285.7c-0.2,0-0.3-0.2-0.3-0.5s0.1-0.5,0.3-0.5s0.3,0.2,0.3,0.5S151.6,285.7,151.4,285.7z
		 M151.4,279.1c-0.2,0-0.3-0.2-0.3-0.5s0.1-0.5,0.3-0.5s0.3,0.2,0.3,0.5S151.6,279.1,151.4,279.1z M151.4,272.5
		c-0.2,0-0.3-0.2-0.3-0.5s0.1-0.5,0.3-0.5s0.3,0.2,0.3,0.5S151.6,272.5,151.4,272.5z M151.4,265.9c-0.2,0-0.3-0.2-0.3-0.5
		s0.1-0.5,0.3-0.5s0.3,0.2,0.3,0.5C151.7,265.7,151.6,265.9,151.4,265.9z M151.4,259.3c-0.2,0-0.3-0.2-0.3-0.5s0.1-0.5,0.3-0.5
		s0.3,0.2,0.3,0.5C151.7,259.1,151.6,259.3,151.4,259.3z M151.4,252.7c-0.5-0.2-0.5-0.7-0.1-0.9c0.2-0.1,0.4,0.1,0.4,0.4
		C151.7,252.5,151.6,252.7,151.4,252.7z M151.4,246.1c-0.5-0.2-0.5-0.7-0.1-0.9c0.2-0.1,0.4,0.1,0.4,0.4
		C151.7,245.9,151.6,246.1,151.4,246.1z M151.4,239.5c-0.5-0.2-0.5-0.7-0.1-0.9c0.2-0.1,0.4,0.1,0.4,0.4
		C151.7,239.3,151.6,239.5,151.4,239.5z M151.8,232.8c-0.6,0.3-1.2-0.1-0.7-0.6c0.3-0.3,0.5-0.3,0.7,0
		C152,232.4,152,232.6,151.8,232.8z M151.8,226.2c-0.6,0.3-1.2-0.1-0.7-0.6c0.3-0.3,0.5-0.3,0.7,0C152,225.8,152,226,151.8,226.2z
		 M154.7,341.8c-0.2,0-0.3-0.2-0.3-0.5s0.1-0.4,0.3-0.3s0.3,0.3,0.3,0.5S154.9,341.8,154.7,341.8z M154.7,335.2
		c-0.2,0-0.3-0.2-0.3-0.5s0.1-0.4,0.3-0.3s0.3,0.3,0.3,0.5C155,335.1,154.9,335.2,154.7,335.2z M154.7,328.6c-0.2,0-0.3-0.2-0.3-0.5
		s0.1-0.4,0.3-0.3s0.3,0.3,0.3,0.5C155,328.5,154.9,328.6,154.7,328.6z M154.7,322c-0.2,0-0.3-0.2-0.3-0.5s0.1-0.4,0.3-0.3
		s0.3,0.3,0.3,0.5C155,321.9,154.9,322,154.7,322z M154.7,315.4c-0.2,0-0.3-0.2-0.3-0.5s0.1-0.4,0.3-0.3s0.3,0.3,0.3,0.5
		S154.9,315.4,154.7,315.4z M154.7,308.8c-0.2,0-0.3-0.2-0.3-0.5s0.1-0.5,0.3-0.5s0.3,0.2,0.3,0.5
		C155,308.6,154.9,308.8,154.7,308.8z M154.7,302.2c-0.2,0-0.3-0.2-0.3-0.5s0.1-0.5,0.3-0.5s0.3,0.2,0.3,0.5
		S154.9,302.2,154.7,302.2z M154.7,295.6c-0.2,0-0.3-0.2-0.3-0.5s0.1-0.5,0.3-0.5s0.3,0.2,0.3,0.5S154.9,295.6,154.7,295.6z
		 M154.7,289c-0.2,0-0.3-0.2-0.3-0.5s0.1-0.5,0.3-0.5s0.3,0.2,0.3,0.5S154.9,289,154.7,289z M154.7,282.4c-0.2,0-0.3-0.2-0.3-0.5
		s0.1-0.5,0.3-0.5s0.3,0.2,0.3,0.5C155,282.2,154.9,282.4,154.7,282.4z M154.7,275.8c-0.5-0.2-0.5-0.7-0.1-0.9
		c0.2-0.1,0.4,0.1,0.4,0.4S154.9,275.8,154.7,275.8z M154.7,269.2c-0.5-0.2-0.5-0.7-0.1-0.9c0.2-0.1,0.4,0.1,0.4,0.4
		S154.9,269.2,154.7,269.2z M154.7,262.6c-0.5-0.2-0.5-0.7-0.1-0.9c0.2-0.1,0.4,0.1,0.4,0.4C155,262.4,154.9,262.6,154.7,262.6z
		 M155.1,255.9c-0.6,0.3-1.2-0.1-0.7-0.6c0.3-0.3,0.5-0.3,0.7,0C155.3,255.5,155.3,255.7,155.1,255.9z M155.1,249.3
		c-0.6,0.3-1.2-0.1-0.7-0.6c0.3-0.3,0.5-0.3,0.7,0C155.3,248.9,155.3,249.1,155.1,249.3z M155.1,242.7c-0.6,0.3-1.2-0.1-0.7-0.6
		c0.3-0.3,0.5-0.3,0.7,0C155.3,242.3,155.3,242.5,155.1,242.7z M155.1,236.1c-0.6,0.3-1.2-0.1-0.7-0.6c0.3-0.3,0.5-0.3,0.7,0
		C155.3,235.7,155.3,235.9,155.1,236.1z M155.1,229.5c-0.6,0.3-1.2-0.1-0.7-0.6c0.3-0.3,0.5-0.3,0.7,0
		C155.3,229.1,155.3,229.3,155.1,229.5z M154.9,222.9c-0.7,0.3-1.1-0.1-0.6-0.6l0.4-0.4l0.4,0.4l0.4,0.4L154.9,222.9z M158,345.1
		c-0.2,0-0.3-0.2-0.3-0.5s0.1-0.4,0.3-0.3s0.3,0.3,0.3,0.5C158.3,345,158.2,345.1,158,345.1z M158,338.5c-0.2,0-0.3-0.2-0.3-0.5
		s0.1-0.4,0.3-0.3s0.3,0.3,0.3,0.5C158.3,338.4,158.2,338.5,158,338.5z M158,331.9c-0.2,0-0.3-0.2-0.3-0.5s0.1-0.4,0.3-0.3
		s0.3,0.3,0.3,0.5S158.2,331.9,158,331.9z M158,325.3c-0.2,0-0.3-0.2-0.3-0.5s0.1-0.5,0.3-0.5s0.3,0.2,0.3,0.5
		C158.3,325.1,158.2,325.3,158,325.3z M158,318.7c-0.2,0-0.3-0.2-0.3-0.5s0.1-0.5,0.3-0.5s0.3,0.2,0.3,0.5S158.2,318.7,158,318.7z
		 M158,312.1c-0.2,0-0.3-0.2-0.3-0.5s0.1-0.5,0.3-0.5s0.3,0.2,0.3,0.5S158.2,312.1,158,312.1z M158,305.5c-0.2,0-0.3-0.2-0.3-0.5
		s0.1-0.5,0.3-0.5s0.3,0.2,0.3,0.5S158.2,305.5,158,305.5z M158,298.9c-0.5-0.2-0.5-0.7-0.1-0.9c0.2-0.1,0.4,0.1,0.4,0.4
		C158.3,298.8,158.2,298.9,158,298.9z M158,292.3c-0.5-0.2-0.5-0.7-0.1-0.9c0.2-0.1,0.4,0.1,0.4,0.4S158.2,292.3,158,292.3z
		 M158,285.7c-0.5-0.2-0.5-0.7-0.1-0.9c0.2-0.1,0.4,0.1,0.4,0.4S158.2,285.7,158,285.7z M158.4,279c-0.6,0.3-1.2-0.1-0.7-0.6
		c0.3-0.3,0.5-0.3,0.7,0C158.6,278.6,158.6,278.8,158.4,279z M158.4,272.4c-0.6,0.3-1.2-0.1-0.7-0.6c0.3-0.3,0.5-0.3,0.7,0
		C158.6,272,158.6,272.2,158.4,272.4z M158.4,265.8c-0.6,0.3-1.2-0.1-0.7-0.6c0.3-0.3,0.5-0.3,0.7,0
		C158.6,265.4,158.6,265.6,158.4,265.8z M158.4,259.2c-0.6,0.3-1.2-0.1-0.7-0.6c0.3-0.3,0.5-0.3,0.7,0
		C158.6,258.8,158.6,259,158.4,259.2z M158.4,252.6c-0.6,0.3-1.2-0.1-0.7-0.6c0.3-0.3,0.5-0.3,0.7,0
		C158.6,252.2,158.6,252.4,158.4,252.6z M158.4,246c-0.6,0.3-1.2-0.1-0.7-0.6c0.3-0.3,0.5-0.3,0.7,0
		C158.6,245.6,158.6,245.8,158.4,246z M158.2,239.4c-0.7,0.3-1.1-0.1-0.6-0.6l0.4-0.4l0.4,0.4l0.4,0.4L158.2,239.4z M158.2,232.8
		c-0.7,0.3-1.1-0.1-0.6-0.6l0.4-0.4l0.4,0.4l0.4,0.4L158.2,232.8z M158.2,226.2c-0.7,0.3-1.1-0.1-0.6-0.6l0.4-0.4l0.4,0.4l0.4,0.4
		L158.2,226.2z M158.2,219.6c-0.7,0.3-1.1-0.1-0.6-0.6l0.4-0.4l0.4,0.4l0.4,0.4L158.2,219.6z M161.2,314.5c0.2-0.1,0.4,0.1,0.4,0.4
		s-0.1,0.5-0.3,0.4C160.8,315.2,160.7,314.7,161.2,314.5z M161.2,307.9c0.2-0.1,0.4,0.1,0.4,0.4s-0.1,0.5-0.3,0.4
		C160.8,308.6,160.7,308.1,161.2,307.9z M161.6,321.5c0,0.3-0.1,0.5-0.3,0.5s-0.3-0.2-0.3-0.5s0.1-0.5,0.3-0.5
		C161.5,321.1,161.6,321.3,161.6,321.5z M161.3,341.8c-0.2,0-0.3-0.2-0.3-0.5s0.1-0.5,0.3-0.5s0.3,0.2,0.3,0.5
		C161.6,341.6,161.5,341.8,161.3,341.8z M161.3,335.2c-0.2,0-0.3-0.2-0.3-0.5s0.1-0.5,0.3-0.5s0.3,0.2,0.3,0.5
		S161.5,335.2,161.3,335.2z M161.7,328.4c-0.4,0.4-0.8,0.2-0.8-0.3c0-0.3,0.1-0.5,0.3-0.5C161.7,327.7,162,328.2,161.7,328.4z
		 M161.7,302.1c-0.6,0.3-1.2-0.1-0.7-0.6c0.3-0.3,0.5-0.3,0.7,0C161.9,301.7,161.9,301.9,161.7,302.1z M161.7,295.5
		c-0.6,0.3-1.2-0.1-0.7-0.6c0.3-0.3,0.5-0.3,0.7,0C161.9,295.1,161.9,295.3,161.7,295.5z M161.7,288.9c-0.6,0.3-1.2-0.1-0.7-0.6
		c0.3-0.3,0.5-0.3,0.7,0C161.9,288.5,161.9,288.7,161.7,288.9z M161.7,282.3c-0.6,0.3-1.2-0.1-0.7-0.6c0.3-0.3,0.5-0.3,0.7,0
		C161.9,281.9,161.9,282.1,161.7,282.3z M161.7,275.7c-0.6,0.3-1.2-0.1-0.7-0.6c0.3-0.3,0.5-0.3,0.7,0
		C161.9,275.3,161.9,275.5,161.7,275.7z M161.7,269.1c-0.6,0.3-1.2-0.1-0.7-0.6c0.3-0.3,0.5-0.3,0.7,0
		C161.9,268.7,161.9,268.9,161.7,269.1z M161.5,262.5c-0.7,0.3-1.1-0.1-0.6-0.6l0.4-0.4l0.4,0.4l0.4,0.4L161.5,262.5z M160.7,255.6
		c0.1-0.2,0.3-0.4,0.6-0.4c0.2,0,0.5,0.2,0.6,0.4s-0.2,0.4-0.6,0.4S160.6,255.9,160.7,255.6z M161.5,249.3c-0.7,0.3-1.1-0.1-0.6-0.6
		l0.4-0.4l0.4,0.4l0.4,0.4L161.5,249.3z M160.7,242.4c0.1-0.2,0.3-0.4,0.6-0.4c0.2,0,0.5,0.2,0.6,0.4s-0.2,0.4-0.6,0.4
		C160.9,242.8,160.6,242.7,160.7,242.4z M161.5,236.1c-0.7,0.3-1.1-0.1-0.6-0.6l0.4-0.4l0.4,0.4l0.4,0.4L161.5,236.1z M164.2,232.3
		c0.2-0.2,0.5-0.3,0.7-0.2c0.4,0.3,0.5,0.7,0.1,1c-0.1,0.1-0.5,0-0.7-0.1l-0.5-0.3L164.2,232.3z M164.6,252.7
		c-0.4,0-0.7-0.2-0.6-0.4c0.1-0.2,0.3-0.4,0.6-0.4c0.2,0,0.5,0.2,0.6,0.4C165.3,252.6,165,252.7,164.6,252.7z M164.6,259.3
		c-0.4,0-0.7-0.2-0.6-0.4c0.1-0.2,0.3-0.4,0.6-0.4c0.2,0,0.5,0.2,0.6,0.4C165.3,259.2,165,259.3,164.6,259.3z M164.6,246.1
		c-0.4,0-0.7-0.2-0.6-0.4c0.1-0.2,0.3-0.4,0.6-0.4c0.2,0,0.5,0.2,0.6,0.4C165.3,246,165,246.1,164.6,246.1z M164.6,239.5
		c-0.4,0-0.7-0.2-0.6-0.4c0.1-0.2,0.3-0.4,0.6-0.4c0.2,0,0.5,0.2,0.6,0.4C165.3,239.4,165,239.5,164.6,239.5z M164.6,345.1
		c-0.2,0-0.3-0.2-0.3-0.5s0.1-0.5,0.3-0.5s0.3,0.2,0.3,0.5C164.9,344.9,164.8,345.1,164.6,345.1z M164.6,338.5
		c-0.5-0.2-0.5-0.7-0.1-0.9c0.2-0.1,0.4,0.1,0.4,0.4C164.9,338.4,164.8,338.5,164.6,338.5z M164.6,331.9c-0.5-0.2-0.5-0.7-0.1-0.9
		c0.2-0.1,0.4,0.1,0.4,0.4C164.9,331.8,164.8,331.9,164.6,331.9z M165,325.2c-0.6,0.3-1.2-0.1-0.7-0.6c0.3-0.3,0.5-0.3,0.7,0
		C165.2,324.8,165.2,325,165,325.2z M165,318.6c-0.6,0.3-1.2-0.1-0.7-0.6c0.3-0.3,0.5-0.3,0.7,0C165.2,318.2,165.2,318.4,165,318.6z
		 M165,312c-0.6,0.3-1.2-0.1-0.7-0.6c0.3-0.3,0.5-0.3,0.7,0C165.2,311.6,165.2,311.8,165,312z M165,305.4c-0.6,0.3-1.2-0.1-0.7-0.6
		c0.3-0.3,0.5-0.3,0.7,0C165.2,305,165.2,305.2,165,305.4z M165,298.8c-0.6,0.3-1.2-0.1-0.7-0.6c0.3-0.3,0.5-0.3,0.7,0
		C165.2,298.4,165.2,298.6,165,298.8z M165,292.2c-0.6,0.3-1.2-0.1-0.7-0.6c0.3-0.3,0.5-0.3,0.7,0C165.2,291.8,165.2,292,165,292.2z
		 M164.8,285.6c-0.7,0.3-1.1-0.1-0.6-0.6l0.4-0.4l0.4,0.4l0.4,0.4L164.8,285.6z M164.8,279c-0.7,0.3-1.1-0.1-0.6-0.6l0.4-0.4
		l0.4,0.4l0.4,0.4L164.8,279z M164.8,272.4c-0.7,0.3-1.1-0.1-0.6-0.6l0.4-0.4l0.4,0.4l0.4,0.4L164.8,272.4z M164.8,265.8
		c-0.7,0.3-1.1-0.1-0.6-0.6l0.4-0.4l0.4,0.4l0.4,0.4L164.8,265.8z M167.5,255.4c0.2-0.2,0.5-0.3,0.7-0.2c0.4,0.3,0.5,0.7,0.1,1
		c-0.1,0.1-0.5,0-0.7-0.1l-0.5-0.3L167.5,255.4z M167.9,269.2c-0.4,0-0.7-0.2-0.6-0.4c0.1-0.2,0.3-0.4,0.6-0.4
		c0.2,0,0.5,0.2,0.6,0.4C168.6,269.1,168.3,269.2,167.9,269.2z M167.9,275.8c-0.4,0-0.7-0.2-0.6-0.4c0.1-0.2,0.3-0.4,0.6-0.4
		c0.2,0,0.5,0.2,0.6,0.4C168.6,275.7,168.3,275.8,167.9,275.8z M167.9,262.6c-0.4,0-0.7-0.2-0.6-0.4c0.1-0.2,0.3-0.4,0.6-0.4
		c0.2,0,0.5,0.2,0.6,0.4C168.6,262.5,168.3,262.6,167.9,262.6z M168.3,341.7c-0.6,0.3-1.2-0.1-0.7-0.6c0.3-0.3,0.5-0.3,0.7,0
		C168.5,341.3,168.5,341.5,168.3,341.7z M168.3,335.1c-0.6,0.3-1.2-0.1-0.7-0.6c0.3-0.3,0.5-0.3,0.7,0
		C168.5,334.7,168.5,334.9,168.3,335.1z M168.3,328.5c-0.6,0.3-1.2-0.1-0.7-0.6c0.3-0.3,0.5-0.3,0.7,0
		C168.5,328.1,168.5,328.3,168.3,328.5z M168.3,321.9c-0.6,0.3-1.2-0.1-0.7-0.6c0.3-0.3,0.5-0.3,0.7,0
		C168.5,321.5,168.5,321.7,168.3,321.9z M168.3,315.3c-0.6,0.3-1.2-0.1-0.7-0.6c0.3-0.3,0.5-0.3,0.7,0
		C168.5,314.9,168.5,315.1,168.3,315.3z M167.9,308.8c-0.4,0-0.7-0.2-0.6-0.4c0.1-0.2,0.3-0.4,0.6-0.4c0.2,0,0.5,0.2,0.6,0.4
		C168.6,308.7,168.3,308.8,167.9,308.8z M168.1,302.1c-0.7,0.3-1.1-0.1-0.6-0.6l0.4-0.4l0.4,0.4l0.4,0.4L168.1,302.1z M168.1,295.5
		c-0.7,0.3-1.1-0.1-0.6-0.6l0.4-0.4l0.4,0.4l0.4,0.4L168.1,295.5z M168.1,288.9c-0.7,0.3-1.1-0.1-0.6-0.6l0.4-0.4l0.4,0.4l0.4,0.4
		L168.1,288.9z M168.1,282.3c-0.7,0.3-1.1-0.1-0.6-0.6l0.4-0.4l0.4,0.4l0.4,0.4L168.1,282.3z M170.8,285.1c0.2-0.2,0.5-0.3,0.7-0.2
		c0.4,0.3,0.5,0.7,0.1,1c-0.1,0.1-0.5,0-0.7-0.1l-0.5-0.3L170.8,285.1z M171.2,292.3c-0.4,0-0.7-0.2-0.6-0.4
		c0.1-0.2,0.3-0.4,0.6-0.4c0.2,0,0.5,0.2,0.6,0.4C171.9,292.2,171.6,292.3,171.2,292.3z M171.2,298.9c-0.4,0-0.7-0.2-0.6-0.4
		c0.1-0.2,0.3-0.4,0.6-0.4c0.2,0,0.5,0.2,0.6,0.4C171.9,298.8,171.6,298.9,171.2,298.9z M171.6,345c-0.6,0.3-1.2-0.1-0.7-0.6
		c0.3-0.3,0.5-0.3,0.7,0C171.8,344.6,171.8,344.8,171.6,345z M171.4,338.4c-0.7,0.3-1.1-0.1-0.6-0.6l0.4-0.4l0.4,0.4l0.4,0.4
		L171.4,338.4z M171.4,331.8c-0.7,0.3-1.1-0.1-0.6-0.6l0.4-0.4l0.4,0.4l0.4,0.4L171.4,331.8z M170.6,324.9c0.1-0.2,0.3-0.4,0.6-0.4
		c0.2,0,0.5,0.2,0.6,0.4c0.1,0.2-0.2,0.4-0.6,0.4S170.5,325.2,170.6,324.9z M171.4,318.6c-0.7,0.3-1.1-0.1-0.6-0.6l0.4-0.4l0.4,0.4
		l0.4,0.4L171.4,318.6z M171.4,312c-0.7,0.3-1.1-0.1-0.6-0.6l0.4-0.4l0.4,0.4l0.4,0.4L171.4,312z M171.4,305.4
		c-0.7,0.3-1.1-0.1-0.6-0.6l0.4-0.4l0.4,0.4l0.4,0.4L171.4,305.4z M174.1,308.2c0.2-0.2,0.5-0.3,0.7-0.2c0.4,0.3,0.5,0.7,0.1,1
		c-0.1,0.1-0.5,0-0.7-0.1l-0.5-0.3L174.1,308.2z M174.5,328.6c-0.4,0-0.7-0.2-0.6-0.4c0.1-0.2,0.3-0.4,0.6-0.4
		c0.2,0,0.5,0.2,0.6,0.4C175.2,328.5,174.9,328.6,174.5,328.6z M174.5,335.2c-0.4,0-0.7-0.2-0.6-0.4c0.1-0.2,0.3-0.4,0.6-0.4
		c0.2,0,0.5,0.2,0.6,0.4C175.2,335.1,174.9,335.2,174.5,335.2z M174.5,322c-0.4,0-0.7-0.2-0.6-0.4c0.1-0.2,0.3-0.4,0.6-0.4
		c0.2,0,0.5,0.2,0.6,0.4C175.2,321.9,174.9,322,174.5,322z M174.5,315.4c-0.4,0-0.7-0.2-0.6-0.4c0.1-0.2,0.3-0.4,0.6-0.4
		c0.2,0,0.5,0.2,0.6,0.4C175.2,315.3,174.9,315.4,174.5,315.4z M174.7,341.7c-0.7,0.3-1.1-0.1-0.6-0.6l0.4-0.4l0.4,0.4l0.4,0.4
		L174.7,341.7z M177.8,345.1c-0.4,0-0.7-0.2-0.6-0.4c0.1-0.2,0.3-0.4,0.6-0.4c0.2,0,0.5,0.2,0.6,0.4
		C178.5,345,178.2,345.1,177.8,345.1z M178.2,338.7c-0.1,0.1-0.5,0-0.7-0.1l-0.5-0.3l0.4-0.4c0.2-0.2,0.5-0.3,0.7-0.2
		C178.5,338,178.6,338.4,178.2,338.7z M178.2,332.1c-0.1,0.1-0.5,0-0.7-0.1l-0.5-0.3l0.4-0.4c0.2-0.2,0.5-0.3,0.7-0.2
		C178.5,331.4,178.6,331.8,178.2,332.1z M178.2,325.5c-0.1,0.1-0.5,0-0.7-0.1L177,325l0.4-0.4c0.2-0.2,0.5-0.3,0.7-0.2
		C178.5,324.8,178.6,325.2,178.2,325.5z M178.2,318.9c-0.1,0.1-0.5,0-0.7-0.1l-0.5-0.3l0.4-0.4c0.2-0.2,0.5-0.3,0.7-0.2
		C178.5,318.2,178.6,318.6,178.2,318.9z M178.1,312.3c-0.6,0.3-1.2-0.4-0.7-0.9c0.4-0.4,1.1-0.1,1.1,0.4
		C178.5,312,178.3,312.2,178.1,312.3z M178.1,305.7c-0.6,0.3-1.2-0.4-0.7-0.9c0.4-0.4,1.1-0.1,1.1,0.4
		C178.5,305.4,178.3,305.6,178.1,305.7z M178.1,299.1L178.1,299.1c-0.6,0.3-1.2-0.4-0.7-0.9c0.4-0.4,1.1-0.1,1.1,0.4
		C178.5,298.8,178.3,299,178.1,299.1z M178.1,292.5c-0.6,0.3-1.2-0.4-0.7-0.9c0.4-0.4,1.1-0.1,1.1,0.4
		C178.5,292.2,178.3,292.4,178.1,292.5z M178.1,266.1c-0.4,0.3-1-0.1-1-0.7c0-0.3,0.3-0.5,0.7-0.5
		C178.5,265,178.7,265.7,178.1,266.1z M178.1,259.5c-0.4,0.3-1-0.1-1-0.7c0-0.3,0.3-0.5,0.7-0.5
		C178.5,258.4,178.7,259.1,178.1,259.5z M178.2,252.9c-0.5,0.5-1.1,0.2-1.1-0.4c0-0.4,0.2-0.7,0.7-0.7
		C178.4,251.8,178.7,252.4,178.2,252.9z M178.2,246.3c-0.5,0.5-1.1,0.2-1.1-0.4c0-0.4,0.2-0.7,0.7-0.7
		C178.4,245.2,178.7,245.8,178.2,246.3z M178.2,219.9c-0.5,0.5-1.1,0.2-1.1-0.4c0-0.4,0.2-0.7,0.7-0.7
		C178.4,218.8,178.7,219.4,178.2,219.9z M180.7,328c0.2-0.2,0.5-0.3,0.7-0.2c0.4,0.3,0.5,0.7,0.1,1c-0.1,0.1-0.5,0-0.7-0.1l-0.5-0.3
		L180.7,328z M181.4,342c-0.6,0.3-1.2-0.4-0.7-0.9c0.4-0.4,1.1-0.1,1.1,0.4C181.8,341.7,181.6,341.9,181.4,342z M181.4,335.4
		c-0.6,0.3-1.2-0.4-0.7-0.9c0.4-0.4,1.1-0.1,1.1,0.4C181.8,335.1,181.6,335.3,181.4,335.4z M181.4,309c-0.6,0.3-1.2-0.4-0.7-0.9
		c0.4-0.4,1.1-0.1,1.1,0.4C181.8,308.7,181.6,308.9,181.4,309z M180.4,301.7c0-0.3,0.2-0.5,0.6-0.4c0.7,0.1,0.9,0.8,0.5,1.1
		C181,302.7,180.4,302.3,180.4,301.7z M181.4,295.8c-0.4,0.3-1-0.1-1-0.7c0-0.3,0.3-0.5,0.7-0.5C181.8,294.7,182,295.4,181.4,295.8z
		 M181.4,289.2c-0.4,0.3-1-0.1-1-0.7c0-0.3,0.3-0.5,0.7-0.5C181.8,288.1,182,288.8,181.4,289.2z M180.4,281.9c0-0.3,0.2-0.5,0.5-0.4
		c0.7,0.1,0.9,0.8,0.5,1.1C181,282.9,180.4,282.5,180.4,281.9z M181.5,276c-0.5,0.5-1.1,0.2-1.1-0.4c0-0.4,0.2-0.7,0.7-0.7
		C181.7,274.9,182,275.5,181.5,276z M181.1,268.3c0.5,0,0.7,0.2,0.7,0.7s-0.2,0.6-0.6,0.6C180.3,269.3,180.2,268.3,181.1,268.3z
		 M181.5,262.8c-0.5,0.5-1.1,0.2-1.1-0.4c0-0.4,0.2-0.7,0.7-0.7C181.7,261.7,182,262.3,181.5,262.8z M184.7,345.3
		c-0.5,0.3-1-0.1-1-0.7c0-0.3,0.2-0.5,0.6-0.4C185,344.3,185.2,345,184.7,345.3z M184.7,338.7c-0.4,0.3-1-0.1-1-0.7
		c0-0.3,0.3-0.5,0.7-0.5C185.1,337.6,185.3,338.4,184.7,338.7z M183.7,331.4c0-0.3,0.2-0.5,0.5-0.4c0.7,0.1,0.9,0.8,0.5,1.1
		C184.3,332.4,183.7,332,183.7,331.4z M184.7,325.5c-0.4,0.3-1-0.1-1-0.7c0-0.3,0.3-0.5,0.7-0.5
		C185.1,324.4,185.3,325.2,184.7,325.5z M184.7,318.9c-0.4,0.3-1-0.1-1-0.7c0-0.3,0.3-0.5,0.7-0.5
		C185.1,317.8,185.3,318.5,184.7,318.9z M184.7,312.3c-0.4,0.3-1-0.1-1-0.7c0-0.3,0.3-0.5,0.7-0.5
		C185.1,311.2,185.3,311.9,184.7,312.3z M184.8,305.7c-0.5,0.5-1.1,0.2-1.1-0.4c0-0.4,0.2-0.7,0.7-0.7
		C185,304.6,185.3,305.2,184.8,305.7z M184.4,291.4c0.4,0,0.7,0.2,0.7,0.7c0,0.4-0.2,0.7-0.7,0.7c-0.4,0-0.7-0.2-0.7-0.7
		S184,291.4,184.4,291.4z M183.7,285.4c0-0.4,0.2-0.7,0.7-0.7c0.4,0,0.7,0.2,0.7,0.7c0,0.4-0.2,0.7-0.7,0.7
		C184,286.1,183.7,285.9,183.7,285.4z M184.4,298c0.4,0,0.7,0.2,0.7,0.7c0,0.4-0.2,0.7-0.7,0.7c-0.4,0-0.7-0.2-0.7-0.7
		S184,298,184.4,298z M184.8,279.3c-0.5,0.5-1.1,0.2-1.1-0.4c0-0.4,0.2-0.7,0.7-0.7C185,278.2,185.3,278.8,184.8,279.3z
		 M184.6,251.6c0.7,0.3,0.6,1.4-0.2,1.4c-0.4,0-0.7-0.2-0.7-0.6C183.7,251.7,184,251.4,184.6,251.6z M183.7,245.9
		c0-0.8,0.3-1,0.9-0.8c0.7,0.3,0.6,1.4-0.2,1.4C184,246.5,183.7,246.3,183.7,245.9z M184.4,258.4c0.4,0,0.7,0.2,0.7,0.7
		s-0.2,0.7-0.7,0.7c-0.4,0-0.7-0.2-0.7-0.7S184,258.4,184.4,258.4z M184.4,265c0.4,0,0.7,0.2,0.7,0.7s-0.2,0.7-0.7,0.7
		c-0.4,0-0.7-0.2-0.7-0.7S184,265,184.4,265z M184.4,271.6c0.4,0,0.7,0.2,0.7,0.7c0,0.4-0.2,0.7-0.7,0.7c-0.4,0-0.7-0.2-0.7-0.7
		C183.7,271.8,184,271.6,184.4,271.6z M184.4,239.9h-0.7l0.1-0.7c0.1-0.4,0.3-0.7,0.6-0.7s0.5,0.3,0.6,0.7l0.1,0.7H184.4z
		 M184.4,233.3h-0.7l0.1-0.7c0.1-0.4,0.3-0.7,0.6-0.7s0.5,0.3,0.6,0.7l0.1,0.7H184.4z M185.2,226.3c-0.2,0.6-1.3,0.5-1.5-0.1
		c-0.1-0.3,0-0.7,0.3-0.9l0.5-0.4l0.4,0.5C185.1,225.6,185.2,226,185.2,226.3z M185.2,219.7c-0.2,0.6-1.3,0.5-1.5-0.1
		c-0.1-0.3,0-0.7,0.3-0.9l0.5-0.4l0.4,0.5C185.1,219,185.2,219.4,185.2,219.7z M187.2,228.6l0.5-0.4l0.4,0.5
		c0.2,0.3,0.4,0.7,0.3,0.9c-0.2,0.6-1.3,0.5-1.5-0.1C186.8,229.2,187,228.8,187.2,228.6z M187.2,222l0.5-0.4l0.4,0.5
		c0.2,0.3,0.4,0.7,0.3,0.9c-0.2,0.6-1.3,0.5-1.5-0.1C186.8,222.6,187,222.2,187.2,222z M187.2,235.2l0.5-0.4l0.4,0.5
		c0.2,0.3,0.4,0.7,0.3,0.9c-0.2,0.6-1.3,0.5-1.5-0.1C186.8,235.8,187,235.4,187.2,235.2z M187.2,241.8l0.5-0.4l0.4,0.5
		c0.2,0.3,0.4,0.7,0.3,0.9c-0.2,0.6-1.3,0.5-1.5-0.1C186.8,242.4,187,242,187.2,241.8z M187.2,248.4l0.5-0.4l0.4,0.5
		c0.2,0.3,0.4,0.7,0.3,0.9c-0.2,0.6-1.3,0.5-1.5-0.1C186.8,249,187,248.6,187.2,248.4z M187.2,261.6c0.6-0.5,1.1-0.1,1.1,0.7
		c0,0.4-0.2,0.6-0.6,0.6C186.9,263,186.6,262.1,187.2,261.6z M188,342c-0.4,0.3-1-0.1-1-0.7c0-0.3,0.3-0.5,0.7-0.5
		C188.4,340.9,188.6,341.7,188,342z M188,335.4c-0.4,0.3-1-0.1-1-0.7c0-0.3,0.3-0.5,0.7-0.5C188.4,334.3,188.6,335.1,188,335.4z
		 M188,328.8c-0.4,0.3-1-0.1-1-0.7c0-0.3,0.3-0.5,0.7-0.5C188.4,327.7,188.6,328.5,188,328.8z M188.1,322.2
		c-0.5,0.5-1.1,0.2-1.1-0.4c0-0.4,0.2-0.7,0.7-0.7C188.3,321.1,188.6,321.7,188.1,322.2z M188.1,315.6c-0.5,0.5-1.1,0.2-1.1-0.4
		c0-0.4,0.2-0.7,0.7-0.7C188.3,314.5,188.6,315.1,188.1,315.6z M187.7,281.5c0.4,0,0.7,0.2,0.7,0.7c0,0.4-0.2,0.7-0.7,0.7
		c-0.4,0-0.7-0.2-0.7-0.7S187.3,281.5,187.7,281.5z M187,275.6c0-0.8,0.3-1,0.9-0.8c0.7,0.3,0.6,1.4-0.2,1.4
		C187.3,276.2,187,276,187,275.6z M187.7,288.1c0.4,0,0.7,0.2,0.7,0.7c0,0.4-0.2,0.7-0.7,0.7c-0.4,0-0.7-0.2-0.7-0.7
		C187,288.3,187.3,288.1,187.7,288.1z M187.7,294.7c0.4,0,0.7,0.2,0.7,0.7c0,0.4-0.2,0.7-0.7,0.7c-0.4,0-0.7-0.2-0.7-0.7
		C187,294.9,187.3,294.7,187.7,294.7z M187.7,301.3c0.4,0,0.7,0.2,0.7,0.7c0,0.4-0.2,0.7-0.7,0.7c-0.4,0-0.7-0.2-0.7-0.7
		S187.3,301.3,187.7,301.3z M187.7,307.9c0.4,0,0.7,0.2,0.7,0.7c0,0.4-0.2,0.7-0.7,0.7c-0.4,0-0.7-0.2-0.7-0.7
		S187.3,307.9,187.7,307.9z M187.7,269.6H187l0.1-0.7c0.1-0.4,0.3-0.7,0.6-0.7s0.5,0.3,0.6,0.7l0.1,0.7H187.7z M188.5,256
		c-0.3,0.7-1.4,0.5-1.4-0.2c0-0.4,0.2-0.7,0.4-0.9C187.9,254.6,188.7,255.4,188.5,256z M188.5,216.6c-0.4,0.4-1.4,0.2-1.5-0.3
		c-0.1-0.3,0-0.6,0.3-0.9l0.5-0.4l0.5,0.4C188.7,215.9,188.8,216.2,188.5,216.6z M190.5,278.1l0.5-0.4l0.4,0.5
		c0.2,0.3,0.4,0.7,0.3,0.9c-0.2,0.6-1.3,0.5-1.5-0.1C190.1,278.7,190.3,278.3,190.5,278.1z M190.5,258.3l0.5-0.4l0.4,0.5
		c0.2,0.3,0.4,0.7,0.3,0.9c-0.2,0.6-1.3,0.5-1.5-0.1C190.1,258.9,190.3,258.5,190.5,258.3z M190.5,251.7l0.5-0.4l0.4,0.5
		c0.2,0.3,0.4,0.7,0.3,0.9c-0.2,0.6-1.3,0.5-1.5-0.1C190.1,252.3,190.3,251.9,190.5,251.7z M190.5,264.9l0.5-0.4l0.4,0.5
		c0.2,0.3,0.4,0.7,0.3,0.9c-0.2,0.6-1.3,0.5-1.5-0.1C190.1,265.5,190.3,265.1,190.5,264.9z M190.5,271.5l0.5-0.4l0.4,0.5
		c0.2,0.3,0.4,0.7,0.3,0.9c-0.2,0.6-1.3,0.5-1.5-0.1C190.1,272.1,190.3,271.7,190.5,271.5z M191.1,345.4c-0.9-0.2-1-1.3-0.1-1.3
		c0.5,0,0.7,0.2,0.7,0.7C191.7,345.3,191.5,345.5,191.1,345.4z M191,338.9c-0.4,0-0.7-0.2-0.7-0.7c0-0.4,0.2-0.7,0.7-0.7
		c0.4,0,0.7,0.2,0.7,0.7C191.7,338.7,191.4,338.9,191,338.9z M191,332.3c-0.4,0-0.7-0.2-0.7-0.7c0-0.4,0.2-0.7,0.7-0.7
		c0.4,0,0.7,0.2,0.7,0.7C191.7,332.1,191.4,332.3,191,332.3z M191,325.7c-0.4,0-0.7-0.2-0.7-0.7c0-0.4,0.2-0.7,0.7-0.7
		c0.4,0,0.7,0.2,0.7,0.7S191.4,325.7,191,325.7z M191,319.1c-0.4,0-0.7-0.2-0.7-0.7c0-0.4,0.2-0.7,0.7-0.7c0.4,0,0.7,0.2,0.7,0.7
		S191.4,319.1,191,319.1z M191,312.5c-0.4,0-0.7-0.2-0.7-0.7c0-0.4,0.2-0.7,0.7-0.7c0.4,0,0.7,0.2,0.7,0.7S191.4,312.5,191,312.5z
		 M191,305.9c-0.4,0-0.7-0.2-0.7-0.6c0-0.8,0.3-1,0.9-0.8C191.9,304.7,191.8,305.9,191,305.9z M191,299.3h-0.7l0.1-0.7
		c0.1-0.4,0.3-0.7,0.6-0.7s0.5,0.3,0.6,0.7l0.1,0.7H191z M191,292.7h-0.7l0.1-0.7c0.1-0.4,0.3-0.7,0.6-0.7s0.5,0.3,0.6,0.7l0.1,0.7
		H191z M191.8,285.7c-0.3,0.7-1.4,0.5-1.4-0.2c0-0.4,0.2-0.7,0.4-0.9C191.2,284.3,192,285.1,191.8,285.7z M191.8,246.3
		c-0.3,0.3-1.4,0.3-1.6-0.1c-0.1-0.2,0-0.6,0.3-0.9l0.5-0.5l0.5,0.4C192,245.6,192.1,245.9,191.8,246.3z M190.4,232l0.5-0.5l0.5,0.4
		c0.6,0.5,0.6,0.8,0.3,1.1s-1.4,0.3-1.6-0.1C190,232.7,190.2,232.3,190.4,232z M191.8,239.7c-0.4,0.4-1.4,0.2-1.5-0.3
		c-0.1-0.3,0-0.6,0.3-0.9l0.5-0.4l0.5,0.4C192,239,192.1,239.3,191.8,239.7z M191.5,226.6c-0.3,0.3-0.6,0.2-1.1-0.1l-0.6-0.5
		l0.6-0.6l0.6-0.6l0.5,0.4C192.1,225.9,192.1,226.2,191.5,226.6z M191.5,220c-0.3,0.3-0.6,0.2-1.1-0.1l-0.6-0.5l0.6-0.6l0.6-0.6
		l0.5,0.4C192.1,219.3,192.1,219.6,191.5,220z M205.1,219.3c0.1,0.4-0.1,0.8-0.3,0.9l0,0c-0.7,0.4-1.7-0.2-1.6-0.9
		C203.4,218.3,205,218.3,205.1,219.3z M205.1,225.9c0.1,0.4-0.1,0.8-0.3,0.9l0,0c-0.7,0.4-1.7-0.2-1.6-0.9
		C203.4,224.9,205,224.9,205.1,225.9z M205.1,232.5c0.1,0.4-0.1,0.8-0.3,0.9l0,0c-0.7,0.4-1.7-0.2-1.6-0.9
		C203.4,231.5,205,231.5,205.1,232.5z M205.1,239.1c0.1,0.4-0.1,0.8-0.3,0.9l0,0c-0.7,0.4-1.7-0.2-1.6-0.9
		C203.4,238.1,205,238.1,205.1,239.1z M203.3,245.7c0.1-0.5,0.3-0.7,0.9-0.7c1,0,1.4,1.3,0.5,1.6
		C203.9,246.9,203.2,246.5,203.3,245.7z M204.7,292.7l-0.5,0.4l-0.5-0.5c-0.7-0.7-0.3-1.6,0.5-1.6c0.4,0,0.7,0.1,0.7,0.1
		c0,0.1,0.1,0.3,0.2,0.6C205.1,292,205,292.4,204.7,292.7z M204.7,299.3l-0.5,0.4l-0.5-0.5c-0.6-0.6-0.3-1.6,0.6-1.6
		c0.3,0,0.6,0.1,0.6,0.1c0,0.1,0.1,0.3,0.2,0.6C205.1,298.6,205,299,204.7,299.3z M204.7,286.1l-0.5,0.4l-0.5-0.5
		c-0.7-0.7-0.3-1.6,0.5-1.6c0.4,0,0.7,0.1,0.7,0.1c0,0.1,0.1,0.3,0.2,0.6C205.1,285.4,205,285.8,204.7,286.1z M204.7,279.5l-0.5,0.4
		l-0.5-0.5c-0.7-0.7-0.3-1.6,0.5-1.6c0.4,0,0.7,0.1,0.7,0.1c0,0.1,0.1,0.3,0.2,0.6C205.1,278.8,205,279.2,204.7,279.5z M204.7,272.9
		l-0.5,0.4l-0.5-0.5c-0.7-0.7-0.3-1.6,0.6-1.5C205.2,271.4,205.4,272.3,204.7,272.9z M204.7,266.3l-0.5,0.4l-0.5-0.5
		c-0.7-0.7-0.3-1.6,0.6-1.5C205.2,264.8,205.4,265.7,204.7,266.3z M204.7,259.7l-0.5,0.4l-0.5-0.5c-0.7-0.7-0.3-1.6,0.6-1.5
		C205.2,258.2,205.4,259.1,204.7,259.7z M204.9,253L204.9,253c-0.5,0.7-1.8,0.1-1.6-0.7c0.1-0.5,0.3-0.7,0.9-0.7
		C205.1,251.6,205.4,252.3,204.9,253z M203.5,304.7c0.4-0.5,1.3-0.7,1.3-0.4c0,0.1,0.1,0.3,0.2,0.6c0.1,0.3-0.1,0.7-0.3,0.9
		l-0.5,0.4l-0.5-0.5l-0.5-0.5L203.5,304.7z M203.5,311.3c0.4-0.5,1.3-0.7,1.3-0.4c0,0.1,0.1,0.3,0.2,0.6c0.1,0.3-0.1,0.7-0.3,0.9
		l-0.5,0.4l-0.5-0.5l-0.5-0.5L203.5,311.3z M200,216c0.1-0.5,0.3-0.7,0.9-0.7c1,0,1.4,1.3,0.5,1.6C200.6,217.2,199.9,216.8,200,216z
		 M201.4,263l-0.5,0.4l-0.5-0.5c-0.6-0.6-0.3-1.6,0.6-1.6c0.3,0,0.6,0.1,0.6,0.1c0,0.1,0.1,0.3,0.2,0.6
		C201.8,262.3,201.7,262.7,201.4,263z M201.4,269.6l-0.5,0.4l-0.5-0.5c-0.6-0.6-0.3-1.6,0.6-1.6c0.3,0,0.6,0.1,0.6,0.1
		c0,0.1,0.1,0.3,0.2,0.6C201.8,268.9,201.7,269.3,201.4,269.6z M201.4,256.4l-0.5,0.4l-0.5-0.5c-0.6-0.6-0.3-1.6,0.6-1.6
		c0.3,0,0.6,0.1,0.6,0.1c0,0.1,0.1,0.3,0.2,0.6C201.8,255.7,201.7,256.1,201.4,256.4z M201.4,249.8l-0.5,0.4l-0.5-0.5
		c-0.7-0.7-0.3-1.6,0.6-1.5C201.9,248.3,202.1,249.2,201.4,249.8z M201.4,243.2l-0.5,0.4l-0.5-0.5c-0.7-0.7-0.3-1.6,0.6-1.5
		C201.9,241.7,202.1,242.6,201.4,243.2z M201.4,236.6l-0.5,0.4l-0.5-0.5c-0.7-0.7-0.3-1.6,0.6-1.5
		C201.9,235.1,202.1,236,201.4,236.6z M201.4,230l-0.5,0.4l-0.5-0.5c-0.7-0.7-0.3-1.6,0.6-1.5C201.9,228.5,202.1,229.4,201.4,230z
		 M201.4,223.4l-0.5,0.4l-0.5-0.5c-0.7-0.7-0.3-1.6,0.6-1.5C201.9,221.9,202.1,222.8,201.4,223.4z M200.2,275
		c0.4-0.5,1.3-0.7,1.3-0.4c0,0.1,0.1,0.3,0.2,0.6c0.1,0.3-0.1,0.7-0.3,0.9l-0.5,0.4l-0.5-0.5l-0.5-0.5L200.2,275z M197.6,218.4
		c0.4,0,0.7,0.1,0.7,0.1s0.1,0.3,0.2,0.6c0.1,0.3-0.1,0.7-0.3,0.9l-0.5,0.4L197,220C196.4,219.3,196.7,218.4,197.6,218.4z
		 M197.6,225c0.4,0,0.7,0.1,0.7,0.1c0,0.1,0.1,0.3,0.2,0.6c0.1,0.3-0.1,0.7-0.3,0.9l-0.5,0.4l-0.5-0.5
		C196.4,225.9,196.7,225,197.6,225z M198.1,246.5l-0.5,0.4l-0.5-0.5c-0.6-0.6-0.3-1.6,0.6-1.6c0.3,0,0.6,0.1,0.6,0.1
		s0.1,0.3,0.2,0.6C198.5,245.8,198.4,246.2,198.1,246.5z M198.1,253.1l-0.5,0.4l-0.5-0.5c-0.6-0.6-0.3-1.6,0.6-1.6
		c0.3,0,0.6,0.1,0.6,0.1s0.1,0.3,0.2,0.6C198.5,252.4,198.4,252.8,198.1,253.1z M198.1,239.9l-0.5,0.4l-0.5-0.5
		c-0.6-0.6-0.3-1.6,0.6-1.6c0.3,0,0.6,0.1,0.6,0.1c0,0.1,0.1,0.3,0.2,0.6C198.5,239.2,198.4,239.6,198.1,239.9z M198.1,233.3
		l-0.5,0.4l-0.5-0.5c-0.6-0.6-0.3-1.6,0.6-1.6c0.3,0,0.6,0.1,0.6,0.1c0,0.1,0.1,0.3,0.2,0.6C198.5,232.6,198.4,233,198.1,233.3z
		 M193.7,268.3l0.5-0.5l0.5,0.4c0.6,0.5,0.6,0.8,0.3,1.1c-0.3,0.3-1.4,0.3-1.6-0.1C193.3,269,193.5,268.6,193.7,268.3z M193.7,261.7
		l0.5-0.5l0.5,0.4c0.6,0.5,0.6,0.8,0.3,1.1c-0.3,0.3-1.4,0.3-1.6-0.1C193.3,262.4,193.5,262,193.7,261.7z M193.8,294.6l0.5-0.4
		l0.4,0.5c0.2,0.3,0.4,0.7,0.3,0.9c-0.2,0.6-1.3,0.5-1.5-0.1C193.4,295.2,193.6,294.8,193.8,294.6z M193.8,288l0.5-0.4l0.4,0.5
		c0.2,0.3,0.4,0.7,0.3,0.9c-0.2,0.6-1.3,0.5-1.5-0.1C193.4,288.6,193.6,288.2,193.8,288z M193.8,301.2l0.5-0.4l0.4,0.5
		c0.2,0.3,0.4,0.7,0.3,0.9l0,0c-0.2,0.6-1.3,0.5-1.5-0.1C193.4,301.8,193.6,301.4,193.8,301.2z M193.8,307.8l0.5-0.4l0.4,0.5
		c0.2,0.3,0.4,0.7,0.3,0.9l0,0c-0.2,0.6-1.3,0.5-1.5-0.1C193.4,308.4,193.6,308,193.8,307.8z M193.8,314.4c0.6-0.5,1.1-0.1,1.1,0.7
		c0,0.4-0.2,0.6-0.6,0.6C193.5,315.8,193.2,314.9,193.8,314.4z M194.3,342.2c-0.4,0-0.7-0.2-0.7-0.7c0-0.4,0.2-0.7,0.7-0.7
		c0.4,0,0.7,0.2,0.7,0.7S194.7,342.2,194.3,342.2z M194.3,335.6c-0.4,0-0.7-0.2-0.7-0.6c0-0.8,0.3-1,0.9-0.8
		C195.2,334.4,195.1,335.6,194.3,335.6z M194.3,329h-0.7l0.1-0.7c0.1-0.4,0.3-0.7,0.6-0.7s0.5,0.3,0.6,0.7l0.1,0.7H194.3z
		 M195.1,322c-0.3,0.7-1.4,0.5-1.4-0.2c0-0.4,0.2-0.7,0.4-0.9C194.5,320.6,195.3,321.4,195.1,322z M195.1,282.6
		c-0.4,0.4-1.4,0.2-1.5-0.3c-0.1-0.3,0-0.6,0.3-0.9l0.5-0.4l0.5,0.4C195.3,281.9,195.4,282.2,195.1,282.6z M195.1,276
		c-0.4,0.4-1.4,0.2-1.5-0.3c-0.1-0.3,0-0.6,0.3-0.9l0.5-0.4l0.5,0.4C195.3,275.3,195.4,275.6,195.1,276z M194.8,256.3
		c-0.3,0.3-0.6,0.2-1.1-0.1l-0.6-0.5l0.6-0.6l0.6-0.6l0.5,0.4C195.4,255.6,195.4,255.9,194.8,256.3z M194.8,249.7
		c-0.3,0.3-0.6,0.2-1.1-0.1l-0.6-0.5l0.6-0.6l0.6-0.6l0.5,0.4C195.4,249,195.4,249.3,194.8,249.7z M194.8,243.2l-0.5,0.4l-0.5-0.5
		l-0.5-0.5l0.5-0.5l0.5-0.5l0.5,0.4c0.3,0.2,0.5,0.5,0.5,0.7C195.3,242.6,195.1,243,194.8,243.2z M194.8,236.6l-0.5,0.4l-0.5-0.5
		l-0.5-0.5l0.5-0.5l0.5-0.5l0.5,0.4c0.3,0.2,0.5,0.5,0.5,0.7C195.3,236,195.1,236.4,194.8,236.6z M194.8,230l-0.5,0.4l-0.5-0.5
		l-0.5-0.5l0.5-0.5l0.5-0.5l0.5,0.4c0.3,0.2,0.5,0.5,0.5,0.7C195.3,229.4,195.1,229.8,194.8,230z M194.8,223.4l-0.5,0.4l-0.5-0.5
		l-0.5-0.5l0.5-0.5l0.5-0.5l0.5,0.4c0.3,0.2,0.5,0.5,0.5,0.7C195.3,222.8,195.1,223.2,194.8,223.4z M194.8,216.8l-0.5,0.4l-0.5-0.5
		l-0.5-0.5l0.5-0.5l0.5-0.5l0.5,0.4c0.3,0.2,0.5,0.5,0.5,0.7C195.3,216.2,195.1,216.6,194.8,216.8z M197.1,317.7l0.5-0.4l0.4,0.5
		c0.2,0.3,0.4,0.7,0.3,0.9c-0.2,0.6-1.3,0.5-1.5-0.1C196.7,318.3,196.9,317.9,197.1,317.7z M197.1,311.1l0.5-0.4l0.4,0.5
		c0.2,0.3,0.4,0.7,0.3,0.9c-0.2,0.6-1.3,0.5-1.5-0.1C196.7,311.7,196.9,311.3,197.1,311.1z M197.1,324.3l0.5-0.4l0.4,0.5
		c0.2,0.3,0.4,0.7,0.3,0.9c-0.2,0.6-1.3,0.5-1.5-0.1C196.7,324.9,196.9,324.5,197.1,324.3z M197.1,330.9l0.5-0.4l0.4,0.5
		c0.2,0.3,0.4,0.7,0.3,0.9c-0.2,0.6-1.3,0.5-1.5-0.1C196.7,331.5,196.9,331.1,197.1,330.9z M197.6,345.5c-0.8,0-1.1-0.8-0.5-1.3
		s1.1-0.1,1.1,0.7C198.3,345.2,198,345.5,197.6,345.5z M198.4,338.5c-0.3,0.7-1.4,0.5-1.4-0.2c0-0.4,0.2-0.7,0.4-0.9
		C197.8,337.1,198.6,337.9,198.4,338.5z M198.4,305.7c-0.3,0.3-1.4,0.3-1.6-0.1c-0.1-0.2,0-0.6,0.3-0.9l0.5-0.5l0.5,0.4
		C198.6,305,198.7,305.3,198.4,305.7z M198.4,299.1c-0.3,0.3-1.4,0.3-1.6-0.1c-0.1-0.2,0-0.6,0.3-0.9l0.5-0.5l0.5,0.4
		C198.6,298.4,198.7,298.7,198.4,299.1z M198.4,292.5c-0.3,0.3-1.4,0.3-1.6-0.1c-0.1-0.2,0-0.6,0.3-0.9l0.5-0.5l0.5,0.4
		C198.6,291.8,198.7,292.1,198.4,292.5z M198.1,286c-0.3,0.3-0.6,0.2-1.1-0.1l-0.6-0.5l0.6-0.6l0.6-0.6l0.5,0.4
		C198.7,285.3,198.7,285.6,198.1,286z M198.1,279.4c-0.3,0.3-0.6,0.2-1.1-0.1l-0.6-0.5l0.6-0.6l0.6-0.6l0.5,0.4
		C198.7,278.7,198.7,279,198.1,279.4z M198.1,272.8c-0.3,0.3-0.6,0.2-1.1-0.1l-0.6-0.5l0.6-0.6l0.6-0.6l0.5,0.4
		C198.7,272.1,198.7,272.4,198.1,272.8z M198.1,266.3L198.1,266.3l-0.5,0.4l-0.5-0.5l-0.5-0.5l0.5-0.5l0.5-0.5l0.5,0.4
		c0.3,0.2,0.5,0.5,0.5,0.7C198.6,265.7,198.4,266.1,198.1,266.3z M198.1,259.7L198.1,259.7l-0.5,0.4l-0.5-0.5l-0.5-0.5l0.5-0.5
		l0.5-0.5l0.5,0.4c0.3,0.2,0.5,0.5,0.5,0.7C198.6,259.1,198.4,259.5,198.1,259.7z M201.7,341.8c-0.2,0.6-1.3,0.5-1.5-0.1
		c-0.1-0.3,0-0.7,0.3-0.9l0.5-0.4l0.4,0.5C201.6,341.1,201.7,341.5,201.7,341.8z M201.7,335.4c-0.3,0.3-1.4,0.3-1.6-0.1
		c-0.1-0.2,0-0.6,0.3-0.9l0.5-0.5l0.5,0.4C201.9,334.7,202,335,201.7,335.4z M201.7,328.8c-0.3,0.3-1.4,0.3-1.6-0.1
		c-0.1-0.2,0-0.6,0.3-0.9l0.5-0.5l0.5,0.4C201.9,328.1,202,328.4,201.7,328.8z M201.7,322.2c-0.3,0.3-1.4,0.3-1.6-0.1
		c-0.1-0.2,0-0.6,0.3-0.9l0.5-0.5l0.5,0.4C201.9,321.5,202,321.8,201.7,322.2z M201.4,315.7c-0.3,0.3-0.6,0.2-1.1-0.1l-0.6-0.5
		l0.6-0.6l0.6-0.6l0.5,0.4C202,315,202,315.3,201.4,315.7z M201.4,309.1c-0.3,0.3-0.6,0.2-1.1-0.1l-0.6-0.5l0.6-0.6l0.6-0.6l0.5,0.4
		C202,308.4,202,308.7,201.4,309.1z M201.4,302.6L201.4,302.6l-0.5,0.4l-0.5-0.5l-0.5-0.5l0.5-0.5l0.5-0.5l0.5,0.4
		c0.3,0.2,0.5,0.5,0.5,0.7C201.9,302.1,201.7,302.4,201.4,302.6z M201.4,296L201.4,296l-0.5,0.4l-0.5-0.5l-0.5-0.5l0.5-0.5l0.5-0.5
		l0.5,0.4c0.3,0.2,0.5,0.5,0.5,0.7C201.9,295.5,201.7,295.8,201.4,296z M201.4,289.4L201.4,289.4l-0.5,0.4l-0.5-0.5l-0.5-0.5
		l0.5-0.5l0.5-0.5l0.5,0.4c0.3,0.2,0.5,0.5,0.5,0.7C201.9,288.8,201.7,289.2,201.4,289.4z M201.4,282.8l-0.5,0.4l-0.5-0.5
		c-0.5-0.5-0.3-1.6,0.3-1.6c0.4,0,1.2,0.7,1.2,1C201.9,282.3,201.7,282.6,201.4,282.8z M205,345.3c-0.3,0.3-1.4,0.3-1.6-0.1
		c-0.1-0.2,0-0.6,0.3-0.9l0.5-0.5l0.5,0.4C205.2,344.6,205.3,344.9,205,345.3z M204.7,338.8c-0.3,0.3-0.6,0.2-1.1-0.1l-0.6-0.5
		l0.6-0.6l0.6-0.6l0.5,0.4C205.3,338.1,205.3,338.4,204.7,338.8z M204.7,332.2c-0.3,0.3-0.6,0.2-1.1-0.1l-0.6-0.5l0.6-0.6l0.6-0.6
		l0.5,0.4C205.3,331.5,205.3,331.8,204.7,332.2z M204.7,325.7L204.7,325.7l-0.5,0.4l-0.5-0.5l-0.5-0.5l0.5-0.5l0.5-0.5l0.5,0.4
		c0.3,0.2,0.5,0.5,0.5,0.7C205.2,325.2,205,325.5,204.7,325.7z M204.7,319.1L204.7,319.1l-0.5,0.4l-0.5-0.5l-0.5-0.5l0.5-0.5
		l0.5-0.5l0.5,0.4c0.3,0.2,0.5,0.5,0.5,0.7C205.2,318.6,205,318.9,204.7,319.1z M238.1,273.1c-1,1-2.5,0-2.1-1.4l0.2-0.8h0.9
		C238.4,270.9,239,272.3,238.1,273.1z M238.5,278.8c0,0.3-0.2,0.7-0.4,0.9c-1,1-2.5,0-2.1-1.4C236.4,277,238.5,277.4,238.5,278.8z
		 M241.3,342.3c-0.3,0.3-0.6,0.5-0.8,0.5c-0.3,0-1.3-0.9-1.3-1.2c0-0.6,0.8-1.4,1.3-1.4C241.7,340.2,242.2,341.4,241.3,342.3z
		 M241.2,316.1c-1.5,0.8-2.7-1.2-1.3-2.1c0.4-0.3,0.7-0.3,1.2,0C241.9,314.5,242,315.7,241.2,316.1z M241.2,322.7
		c-1.5,0.8-2.7-1.2-1.3-2.1c0.4-0.3,0.7-0.3,1.2,0C241.9,321.1,242,322.3,241.2,322.7z M241.3,309.5l-0.5,0.4l-0.8-0.4
		c-1-0.4-1-1.6-0.1-2.2C241.1,306.6,242.4,308.6,241.3,309.5z M241.1,333.8c0.8,0.5,0.9,1.3,0.2,1.9c-0.3,0.3-0.7,0.5-0.8,0.5
		c-0.5,0-1.4-1.1-1.3-1.6C239.4,333.8,240.4,333.4,241.1,333.8z M241.2,329.3c-0.8,0.4-1.6,0.1-1.9-0.7c-0.4-1.2,1.2-2.1,2.1-1.2
		C242,328,241.9,328.9,241.2,329.3z M241.3,302.9c-1.1,0.9-2.7-0.4-2-1.6c0.7-1.1,2.4-0.7,2.4,0.6
		C241.8,302.2,241.6,302.7,241.3,302.9z M239.2,268.5l0.1-0.8h1.2h1.2l0.1,0.8c0.1,0.5-0.1,1-0.3,1.2
		C240.5,270.8,239,269.9,239.2,268.5z M239.2,261.9l0.1-0.8h1.2h1.2l0.1,0.8c0.1,0.5-0.1,1-0.3,1.2
		C240.5,264.2,239,263.3,239.2,261.9z M239.2,275.1l0.1-0.8h1.2h1.2l0.1,0.8c0.1,0.5-0.1,1-0.3,1.2
		C240.5,277.4,239,276.5,239.2,275.1z M241.4,296.2c-1,1-2.5,0-2.1-1.4l0.2-0.8h0.9C241.7,294,242.3,295.4,241.4,296.2z
		 M241.4,289.6c-1,1-2.5,0-2.1-1.4l0.2-0.8h0.9C241.7,287.4,242.3,288.8,241.4,289.6z M244.5,339.2c-1.5,0.8-2.7-1.2-1.3-2.1
		c0.4-0.3,0.7-0.3,1.2,0C245.2,337.6,245.3,338.8,244.5,339.2z M244.5,332.6c-1.5,0.8-2.7-1.2-1.3-2.1c0.4-0.3,0.7-0.3,1.2,0
		C245.2,331,245.3,332.2,244.5,332.6z M244.6,326l-0.5,0.4l-0.8-0.4c-1-0.4-1-1.6-0.1-2.2C244.4,323.1,245.7,325.1,244.6,326z
		 M244.6,319.4c-1.1,0.9-2.7-0.4-2-1.6c0.7-1.1,2.4-0.7,2.4,0.6C245.1,318.7,244.9,319.2,244.6,319.4z M242.5,291.6l0.1-0.8h1.2h1.2
		l0.1,0.8c0.1,0.5-0.1,1-0.3,1.2C243.8,293.9,242.3,293,242.5,291.6z M242.5,285l0.1-0.8h1.2h1.2l0.1,0.8c0.1,0.5-0.1,1-0.3,1.2
		C243.8,287.3,242.3,286.4,242.5,285z M244.7,312.7c-1,1-2.5,0-2.1-1.4l0.2-0.8h0.9C245,310.5,245.6,311.9,244.7,312.7z
		 M244.7,306.1c-1,1-2.5,0-2.1-1.4l0.2-0.8h0.9C245,303.9,245.6,305.3,244.7,306.1z M244.7,299.5c-1,1-2.5,0-2.1-1.4l0.2-0.8h0.9
		C245,297.3,245.6,298.7,244.7,299.5z M247.9,342.5l-0.5,0.4l-0.8-0.4c-1-0.4-1-1.6-0.1-2.2C247.7,339.6,249,341.6,247.9,342.5z
		 M247.9,335.9l-0.5,0.4l-0.8-0.4c-1-0.4-1-1.6-0.1-2.2C247.7,333,249,335,247.9,335.9z M247.9,329.3c-1.1,0.9-2.7-0.4-2-1.6
		c0.5-0.7,1.8-0.9,2.2-0.4C248.6,328,248.5,328.8,247.9,329.3z M245.8,308.1l0.1-0.8h1.2h1.2l0.1,0.8c0.1,0.5-0.1,1-0.3,1.2
		C247.1,310.4,245.6,309.5,245.8,308.1z M245.8,301.5l0.1-0.8h1.2h1.2l0.1,0.8c0.1,0.5-0.1,1-0.3,1.2
		C247.1,303.8,245.6,302.9,245.8,301.5z M248,322.6c-1,1-2.5,0-2.1-1.4l0.2-0.8h0.9C248.3,320.4,248.9,321.8,248,322.6z M248,316
		c-1,1-2.5,0-2.1-1.4l0.2-0.8h0.9C248.3,313.8,248.9,315.2,248,316z M249.1,311.4l0.1-0.8h1.2h1.2l0.1,0.8c0.1,0.5-0.1,1-0.3,1.2
		C250.4,313.7,248.9,312.8,249.1,311.4z M249.1,304.8l0.1-0.8h1.2h1.2l0.1,0.8c0.1,0.5-0.1,1-0.3,1.2
		C250.4,307.1,248.9,306.2,249.1,304.8z M249.1,318l0.1-0.8h1.2h1.2l0.1,0.8c0.1,0.5-0.1,1-0.3,1.2
		C250.4,320.3,248.9,319.4,249.1,318z M249.1,324.6l0.1-0.8h1.2h1.2l0.1,0.8c0.1,0.5-0.1,1-0.3,1.2
		C250.4,326.9,248.9,326,249.1,324.6z M251.3,339.1c-1,1-2.5,0-2.1-1.4c0.3-1.4,2.5-0.9,2.5,0.5
		C251.7,338.5,251.5,338.9,251.3,339.1z M251.3,332.5c-1,1-2.5,0-2.1-1.4l0.2-0.8h0.9C251.6,330.3,252.2,331.7,251.3,332.5z
		 M251.1,270.9c0.8,0.4,0.9,2.2,0.2,2.5c-0.3,0.1-0.8,0.1-1.2,0.1l-0.8-0.1l-0.1-1.1C249,271,250,270.3,251.1,270.9z M251,277.5
		c0.9,0.3,1.1,2.2,0.3,2.5c-0.3,0.1-0.8,0.1-1.2,0.1l-0.8-0.1l-0.1-1.1C249,277.7,249.8,277.1,251,277.5z M251.3,286.6
		c-0.3,0.1-0.8,0.1-1.3,0.1l-0.8-0.1v-1.2v-1.2h1.2h1.2l0.1,1.1C251.7,286.1,251.6,286.5,251.3,286.6z M249.1,291.9l0.1-1.1h1.2h1.2
		l0.1,1.1c0.1,0.7-0.1,1.1-0.4,1.3c-0.3,0.1-0.9,0.1-1.4,0L249,293L249.1,291.9z M249.1,298.5l0.1-1.1h1.2h1.2l0.1,1.1
		c0.1,0.7-0.1,1.1-0.4,1.3c-0.3,0.1-0.9,0.1-1.4,0l-0.8-0.2L249.1,298.5z M247.6,296.5c-1.1,0.3-1.9-0.4-1.8-1.5l0.1-0.9h1.2h1.2
		l0.1,1.1l0.1,1.1L247.6,296.5z M247.8,289.9c-0.4,0.1-1,0.1-1.4,0l-0.7-0.2l0.1-1l0.1-1h1.2h1.2l0.1,1l0.1,1L247.8,289.9z
		 M247.8,261c0.8,0.4,0.9,2.2,0.2,2.5c-0.3,0.1-0.8,0.1-1.2,0.1l-0.8-0.1l-0.1-1.1C245.7,261.1,246.7,260.4,247.8,261z M247.7,267.6
		c0.9,0.3,1.1,2.2,0.3,2.5c-0.3,0.1-0.8,0.1-1.2,0.1l-0.8-0.1l-0.1-1.1C245.7,267.8,246.5,267.2,247.7,267.6z M245.8,275.4l0.1-1.1
		h1.2h1.2l0.1,1.1c0.1,0.7-0.1,1.1-0.4,1.3c-0.3,0.1-0.9,0.1-1.4,0l-0.8-0.2L245.8,275.4z M245.8,282l0.1-1.1h1.2h1.2l0.1,1.1
		c0.1,0.7-0.1,1.1-0.4,1.3c-0.3,0.1-0.9,0.1-1.4,0l-0.8-0.2L245.8,282z M244.5,280c-0.4,0.1-1,0.1-1.4,0l-0.7-0.2l0.1-1l0.1-1h1.2
		h1.2l0.1,1l0.1,1L244.5,280z M242.6,259v-1.2h1.2h1.2l0.1,1.1c0.1,0.7-0.1,1.1-0.4,1.3c-0.3,0.1-0.8,0.1-1.3,0.1l-0.8-0.1V259z
		 M242.5,265.5l0.1-1.1h1.2h1.2l0.1,1.1c0.1,0.7-0.1,1.1-0.4,1.3c-0.3,0.1-0.9,0.1-1.4,0l-0.8-0.2L242.5,265.5z M242.5,272.1
		l0.1-1.1h1.2h1.2l0.1,1.1c0.1,0.7-0.1,1.1-0.4,1.3c-0.3,0.1-0.9,0.1-1.4,0l-0.8-0.2L242.5,272.1z M241.4,283c-1,1-2.5,0-2.1-1.4
		l0.2-0.8h0.9C241.7,280.8,242.3,282.2,241.4,283z M239.2,255.6l0.1-1.1h1.2h1.2l0.1,1.1c0.1,0.7-0.1,1.1-0.4,1.3
		c-0.3,0.1-0.9,0.1-1.4,0l-0.8-0.2L239.2,255.6z M238.1,266.5c-1,1-2.5,0-2.1-1.4l0.2-0.8h0.9C238.4,264.3,239,265.7,238.1,266.5z
		 M236,258.5l0.2-0.8l1.1,0.1l1.1,0.1l0.1,0.8c0.1,0.5-0.1,1-0.3,1.2C237.1,260.9,235.7,260,236,258.5z M235.9,252l0.1-0.8h1.2h1.2
		l0.1,0.8c0.1,0.5-0.1,1-0.3,1.2C237.2,254.3,235.7,253.4,235.9,252z M236.1,284.8c0.7-1.1,2.4-0.7,2.4,0.6c0,0.3-0.2,0.8-0.5,1l0,0
		C237,287.3,235.4,286,236.1,284.8z M238,293l-0.5,0.4l-0.8-0.4c-1-0.4-1-1.6-0.1-2.2C237.8,290.1,239.1,292.1,238,293z
		 M237.9,299.6c-1.5,0.8-2.7-1.2-1.3-2.1c0.4-0.3,0.7-0.3,1.2,0C238.6,298,238.7,299.2,237.9,299.6z M238,312.6
		c-0.3,0.3-0.7,0.5-0.8,0.5c-0.5,0-1.4-1.1-1.3-1.6c0.2-0.8,1.2-1.3,1.8-0.9C238.6,311.2,238.7,312,238,312.6z M238,319.2
		c-0.3,0.3-0.7,0.5-0.8,0.5c-0.5,0-1.4-1.1-1.3-1.6c0.2-0.8,1.2-1.3,1.8-0.9C238.6,317.8,238.7,318.6,238,319.2z M237.9,306.2
		c-0.8,0.4-1.6,0.1-1.9-0.7c-0.4-1.2,1.2-2.1,2.1-1.2C238.7,304.9,238.6,305.8,237.9,306.2z M237.2,323.7c0.4,0,0.8,0.3,1,0.6
		c0.4,0.8,0.4,0.9-0.2,1.5c-0.3,0.3-0.6,0.5-0.8,0.5c-0.3,0-1.3-0.9-1.3-1.2C235.9,324.6,236.7,323.7,237.2,323.7z M237,330.3
		c0.5,0,1.5,0.9,1.5,1.3c0,0.2-0.2,0.5-0.5,0.8s-0.6,0.5-0.8,0.5c-0.3,0-1.3-0.9-1.3-1.2C235.9,331.2,236.6,330.3,237,330.3z
		 M237,336.9c0.5,0,1.5,0.9,1.5,1.3c0,0.2-0.2,0.5-0.5,0.8s-0.6,0.5-0.8,0.5c-0.3,0-1.3-0.9-1.3-1.2
		C235.9,337.8,236.6,336.9,237,336.9z M237.2,343.5c0.4,0,1.3,1,1.3,1.3c0,0.2-0.2,0.5-0.5,0.8s-0.6,0.5-0.8,0.5
		c-0.4,0-1.3-1-1.3-1.3S236.8,343.5,237.2,343.5z M232.7,248.6l0.2-0.8h0.9c1.3,0,1.8,1.4,1,2.2C233.8,251,232.4,250,232.7,248.6z
		 M232.7,255.2l0.2-0.8h0.9c1.3,0,1.8,1.4,1,2.2C233.8,257.6,232.4,256.6,232.7,255.2z M232.8,261.7c0.7-1.1,2.4-0.7,2.4,0.6
		c0,0.3-0.2,0.8-0.5,1C233.7,264.2,232.1,262.9,232.8,261.7z M234.7,289.5c-0.6,0.6-0.9,0.7-1.6,0.1c-1.2-0.9,0.1-2.8,1.4-2
		C235.3,288.1,235.4,288.9,234.7,289.5z M234.7,296.1c-0.3,0.3-0.7,0.5-0.8,0.5c-0.5,0-1.4-1.1-1.3-1.6c0.2-0.8,1.2-1.3,1.8-0.9
		C235.3,294.7,235.4,295.5,234.7,296.1z M234.7,282.9c-0.6,0.6-0.9,0.7-1.6,0.1c-1.2-0.9,0.1-2.8,1.4-2
		C235.3,281.5,235.4,282.3,234.7,282.9z M234.7,276.5l-0.5,0.4l-0.8-0.4c-1-0.4-1-1.6-0.1-2.2C234.5,273.6,235.8,275.6,234.7,276.5z
		 M234.7,269.9l-0.5,0.4l-0.8-0.4c-1-0.4-1-1.6-0.1-2.2C234.5,267,235.8,269,234.7,269.9z M233.8,300.6c1.3,0,1.8,1.2,0.9,2.1
		c-0.3,0.3-0.6,0.5-0.8,0.5c-0.3,0-1.3-0.9-1.3-1.2C232.6,301.5,233.4,300.6,233.8,300.6z M233.9,307.2c0.4,0,0.8,0.3,1,0.6
		c0.4,0.8,0.4,0.9-0.2,1.5c-0.3,0.3-0.6,0.5-0.8,0.5c-0.3,0-1.3-0.9-1.3-1.2C232.6,308.1,233.4,307.2,233.9,307.2z M233.9,313.8
		c0.4,0,0.8,0.3,1,0.6c0.4,0.8,0.4,0.9-0.2,1.5c-0.3,0.3-0.6,0.5-0.8,0.5c-0.3,0-1.3-0.9-1.3-1.2
		C232.6,314.7,233.4,313.8,233.9,313.8z M233.7,320.4c0.5,0,1.5,0.9,1.5,1.3c0,0.2-0.2,0.5-0.5,0.8s-0.6,0.5-0.8,0.5
		c-0.3,0-1.3-0.9-1.3-1.2C232.6,321.3,233.3,320.4,233.7,320.4z M233.9,327c0.4,0,1.3,1,1.3,1.3c0,0.2-0.2,0.5-0.5,0.8
		s-0.6,0.5-0.8,0.5c-0.4,0-1.3-1-1.3-1.3S233.5,327,233.9,327z M233.9,333.6c0.4,0,1.3,1,1.3,1.3c0,0.2-0.2,0.5-0.5,0.8
		s-0.6,0.5-0.8,0.5c-0.4,0-1.3-1-1.3-1.3S233.5,333.6,233.9,333.6z M230,257.9c0.4-0.3,0.7-0.3,1.2,0c0.9,0.5,0.9,1.7,0.1,2.1
		C229.7,260.8,228.5,258.8,230,257.9z M230,251.3c0.4-0.3,0.7-0.3,1.2,0c0.9,0.5,0.9,1.7,0.1,2.1C229.7,254.2,228.5,252.2,230,251.3
		z M231.3,273.2c-0.8,0.4-1.6,0.1-1.9-0.7c-0.4-1.2,1.2-2.1,2.1-1.2C232.1,271.9,232,272.8,231.3,273.2z M231.4,279.6
		c-0.3,0.3-0.7,0.5-0.8,0.5c-0.5,0-1.4-1.1-1.3-1.6c0.2-0.8,1.2-1.3,1.8-0.9C232,278.2,232.1,279,231.4,279.6z M231.3,266.6
		c-0.8,0.4-1.6,0.1-1.9-0.7c-0.4-1.2,1.2-2.1,2.1-1.2C232.1,265.3,232,266.2,231.3,266.6z M231.4,246.8l-0.5,0.4l-0.8-0.4
		c-1-0.4-1-1.6-0.1-2.2C231.2,243.9,232.5,245.9,231.4,246.8z M230.6,284.1c0.4,0,0.8,0.3,1,0.6c0.4,0.8,0.4,0.9-0.2,1.5
		c-0.3,0.3-0.6,0.5-0.8,0.5c-0.3,0-1.3-0.9-1.3-1.2C229.3,285,230.1,284.1,230.6,284.1z M230.6,290.7c0.4,0,0.8,0.3,1,0.6
		c0.4,0.8,0.4,0.9-0.2,1.5c-0.3,0.3-0.6,0.5-0.8,0.5c-0.3,0-1.3-0.9-1.3-1.2C229.3,291.6,230.1,290.7,230.6,290.7z M230.6,297.3
		c0.4,0,0.8,0.3,1,0.6c0.4,0.8,0.4,0.9-0.2,1.5c-0.3,0.3-0.6,0.5-0.8,0.5c-0.3,0-1.3-0.9-1.3-1.2
		C229.3,298.2,230.1,297.3,230.6,297.3z M226.7,234.8c0.4-0.3,0.7-0.3,1.2,0c0.9,0.5,0.9,1.7,0.1,2.1
		C226.4,237.7,225.2,235.7,226.7,234.8z M227.9,241.4c0.8,0.5,0.9,1.3,0.2,1.9c-0.3,0.3-0.7,0.5-0.8,0.5c-0.5,0-1.4-1.1-1.3-1.6
		C226.2,241.4,227.2,241,227.9,241.4z M227.9,248c0.8,0.5,0.9,1.3,0.2,1.9c-0.3,0.3-0.7,0.5-0.8,0.5c-0.5,0-1.4-1.1-1.3-1.6
		C226.2,248,227.2,247.6,227.9,248z M227.9,254.6c0.8,0.5,0.9,1.3,0.2,1.9c-0.3,0.3-0.7,0.5-0.8,0.5c-0.5,0-1.4-1.1-1.3-1.6
		C226.2,254.6,227.2,254.2,227.9,254.6z M227.3,261c0.4,0,0.8,0.3,1,0.6c0.4,0.8,0.4,0.9-0.2,1.5c-0.3,0.3-0.6,0.5-0.8,0.5
		c-0.3,0-1.3-0.9-1.3-1.2C226,261.8,226.8,261,227.3,261z M227.3,267.6c0.4,0,0.8,0.3,1,0.6c0.4,0.8,0.4,0.9-0.2,1.5
		c-0.3,0.3-0.6,0.5-0.8,0.5c-0.3,0-1.3-0.9-1.3-1.2C226,268.4,226.8,267.6,227.3,267.6z M227.3,274.2c0.4,0,0.8,0.3,1,0.6
		c0.4,0.8,0.4,0.9-0.2,1.5c-0.3,0.3-0.6,0.5-0.8,0.5c-0.3,0-1.3-0.9-1.3-1.2C226,275.1,226.8,274.2,227.3,274.2z M223.9,231.3
		c1.3,0,1.8,1.2,0.9,2.1c-0.3,0.3-0.6,0.5-0.8,0.5c-0.3,0-1.3-0.9-1.3-1.2C222.7,232.2,223.5,231.3,223.9,231.3z M224,237.9
		c0.4,0,0.8,0.3,1,0.6c0.4,0.8,0.4,0.9-0.2,1.5c-0.3,0.3-0.6,0.5-0.8,0.5c-0.3,0-1.3-0.9-1.3-1.2C222.7,238.7,223.5,237.9,224,237.9
		z M224,244.5c0.4,0,0.8,0.3,1,0.6c0.4,0.8,0.4,0.9-0.2,1.5c-0.3,0.3-0.6,0.5-0.8,0.5c-0.3,0-1.3-0.9-1.3-1.2
		C222.7,245.3,223.5,244.5,224,244.5z M224,251.1c0.4,0,0.8,0.3,1,0.6c0.4,0.8,0.4,0.9-0.2,1.5c-0.3,0.3-0.6,0.5-0.8,0.5
		c-0.3,0-1.3-0.9-1.3-1.2C222.7,251.9,223.5,251.1,224,251.1z M217.4,224.7c0.4,0,1.3,0.9,1.3,1.3c0,0.1-0.3,0.5-0.7,0.9l-0.7,0.6
		l-0.7-0.6c-0.4-0.3-0.7-0.7-0.7-0.9C216.1,225.6,217,224.7,217.4,224.7z M217.4,231.3c0.4,0,1.3,0.9,1.3,1.3c0,0.1-0.3,0.5-0.7,0.9
		l-0.7,0.6l-0.7-0.6c-0.4-0.3-0.7-0.7-0.7-0.9C216.1,232.2,217,231.3,217.4,231.3z M217.4,237.9c0.4,0,1.3,0.9,1.3,1.3
		c0,0.1-0.3,0.5-0.6,0.8l-0.6,0.5l-0.7-0.5c-0.4-0.3-0.7-0.6-0.7-0.8C216.1,238.8,217,237.9,217.4,237.9z M217.4,244.5
		c0.3,0,1.3,0.9,1.3,1.3c0,0.1-0.2,0.4-0.4,0.6c-0.7,0.7-2.2,0.2-2.2-0.6C216.1,245.4,217.1,244.5,217.4,244.5z M208,230.2
		c-0.8,0.3-1.5-0.1-1.5-0.8c0-0.3,0.2-0.8,0.5-1l0.5-0.4l0.5,0.4c0.3,0.2,0.5,0.7,0.5,1S208.3,230.1,208,230.2z M208,236.8
		c-0.7,0.3-1.5-0.1-1.5-0.8c0-0.9,0.7-1.4,1.4-1C208.6,235.3,208.7,236.5,208,236.8z M208,223.6c-0.8,0.3-1.5-0.1-1.5-0.8
		c0-0.3,0.2-0.8,0.5-1l0.5-0.4l0.5,0.4c0.3,0.2,0.5,0.7,0.5,1S208.3,223.5,208,223.6z M206.8,215.3l0.6-0.6l0.5,0.4
		c0.5,0.4,0.7,1.4,0.3,1.8c-0.4,0.4-1.4,0.2-1.7-0.4l-0.3-0.6L206.8,215.3z M207.9,241.5c0.7,0.4,0.8,1.6,0.1,1.8
		c-0.7,0.3-1.5-0.1-1.5-0.8C206.5,241.7,207.2,241.2,207.9,241.5z M208,342.2l-0.5,0.4l-0.5-0.5c-0.6-0.6-0.3-1.6,0.6-1.6
		c0.3,0,0.6,0.1,0.6,0.1c0,0.1,0.1,0.3,0.2,0.6C208.4,341.5,208.3,341.9,208,342.2z M208,335.6l-0.5,0.4l-0.5-0.5
		c-0.6-0.6-0.3-1.6,0.6-1.6c0.3,0,0.6,0.1,0.6,0.1c0,0.1,0.1,0.3,0.2,0.6C208.4,334.9,208.3,335.3,208,335.6z M208,329l-0.5,0.4
		l-0.5-0.5c-0.6-0.6-0.3-1.6,0.6-1.6c0.3,0,0.6,0.1,0.6,0.1c0,0.1,0.1,0.3,0.2,0.6C208.4,328.3,208.3,328.7,208,329z M208,322.4
		l-0.5,0.4l-0.5-0.5c-0.6-0.6-0.3-1.6,0.6-1.6c0.3,0,0.6,0.1,0.6,0.1c0,0.1,0.1,0.3,0.2,0.6C208.4,321.7,208.3,322.1,208,322.4z
		 M208,315.8l-0.5,0.4l-0.5-0.5c-0.7-0.7-0.3-1.6,0.5-1.6c0.4,0,0.7,0.1,0.7,0.1c0,0.1,0.1,0.3,0.2,0.6
		C208.4,315.1,208.3,315.5,208,315.8z M208,309.2l-0.5,0.4l-0.5-0.5c-0.7-0.7-0.3-1.6,0.6-1.5C208.5,307.7,208.7,308.6,208,309.2z
		 M208,302.6l-0.5,0.4l-0.5-0.5c-0.7-0.7-0.3-1.6,0.6-1.5C208.5,301.1,208.7,302,208,302.6z M208,296l-0.5,0.4l-0.5-0.5
		c-0.7-0.7-0.3-1.6,0.6-1.5C208.5,294.5,208.7,295.4,208,296z M208,289.5c-0.7,0.3-1.6-0.6-1.3-1.3c0.1-0.3,0.5-0.5,1-0.4
		C208.5,287.9,208.8,289.2,208,289.5z M208,282.9c-0.8,0.3-1.5-0.1-1.4-0.9c0.1-0.5,0.3-0.7,0.9-0.7
		C208.5,281.3,208.9,282.6,208,282.9z M208,276.3c-0.8,0.3-1.5-0.1-1.4-0.9c0.1-0.5,0.3-0.7,0.9-0.7
		C208.5,274.7,208.9,276,208,276.3z M206.6,255.6c0.1-1,1.7-1,1.9,0c0.1,0.4-0.1,0.8-0.3,0.9l0,0
		C207.5,256.9,206.5,256.4,206.6,255.6z M208.4,262.2c0.1,0.4-0.1,0.8-0.3,0.9l0,0c-0.7,0.4-1.7-0.2-1.6-0.9
		C206.7,261.2,208.3,261.2,208.4,262.2z M208.4,268.8c0.1,0.4-0.1,0.8-0.3,0.9l0,0c-0.7,0.4-1.7-0.2-1.6-0.9
		C206.7,267.8,208.3,267.8,208.4,268.8z M208,250c-0.9,0.3-1.6-0.1-1.4-0.9c0.1-0.5,0.3-0.7,0.9-0.7
		C208.5,248.3,208.9,249.6,208,250z M210,218.6c0.3-0.3,0.6-0.5,0.8-0.5s1.3,0.9,1.3,1.1c0,0-0.2,0.3-0.3,0.6
		c-0.4,0.8-1.5,0.7-1.9-0.1l-0.3-0.6L210,218.6z M210.2,231.8l0.7-0.6l0.6,0.6l0.6,0.6l-0.3,0.6c-0.4,0.8-1.5,0.7-1.9,0l-0.3-0.6
		L210.2,231.8z M209.5,225.8l0.6-0.5c1-0.9,2.3,0,1.6,1.2c-0.4,0.7-1.5,0.7-1.9-0.1L209.5,225.8z M210.2,238.4l0.7-0.6l0.6,0.6
		l0.6,0.6l-0.3,0.6c-0.4,0.8-1.5,0.7-1.9,0l-0.3-0.6L210.2,238.4z M211.3,266.5c-0.7,0.3-1.5-0.1-1.5-0.8c0-0.9,0.7-1.4,1.4-1
		C211.9,265,212,266.2,211.3,266.5z M211.3,273.1c-0.7,0.3-1.5-0.1-1.5-0.8c0-0.9,0.7-1.4,1.4-1C211.9,271.6,212,272.8,211.3,273.1z
		 M211.3,259.9c-0.8,0.3-1.5-0.1-1.5-0.8c0-0.3,0.2-0.8,0.5-1l0.5-0.4l0.5,0.4c0.3,0.2,0.5,0.7,0.5,1S211.6,259.8,211.3,259.9z
		 M211.3,253.3c-0.8,0.3-1.5-0.1-1.5-0.8c0-0.3,0.2-0.8,0.5-1l0.5-0.4l0.5,0.4c0.3,0.2,0.5,0.7,0.5,1S211.6,253.2,211.3,253.3z
		 M211.2,277.8c0.7,0.3,0.8,1.5,0.3,1.8c-0.6,0.3-1.6-0.2-1.6-0.8C209.8,278,210.5,277.5,211.2,277.8z M209.9,291.9
		c0.1-1,1.7-1,1.9,0c0.1,0.4-0.1,0.8-0.3,0.9l0,0C210.8,293.2,209.8,292.7,209.9,291.9z M211.7,298.5c0.1,0.4-0.1,0.8-0.3,0.9l0,0
		c-0.7,0.4-1.7-0.2-1.6-0.9C210,297.5,211.6,297.5,211.7,298.5z M211.3,345.5l-0.5,0.4l-0.5-0.5c-0.7-0.7-0.3-1.6,0.5-1.6
		c0.4,0,0.7,0.1,0.7,0.1c0,0.1,0.1,0.3,0.2,0.6C211.7,344.8,211.6,345.2,211.3,345.5z M211.3,338.9l-0.5,0.4l-0.5-0.5
		c-0.7-0.7-0.3-1.6,0.5-1.6c0.4,0,0.7,0.1,0.7,0.1c0,0.1,0.1,0.3,0.2,0.6C211.7,338.2,211.6,338.6,211.3,338.9z M211.3,332.3
		l-0.5,0.4l-0.5-0.5c-0.7-0.7-0.3-1.6,0.6-1.5C211.8,330.8,212,331.7,211.3,332.3z M211.3,325.7l-0.5,0.4l-0.5-0.5
		c-0.7-0.7-0.3-1.6,0.6-1.5C211.8,324.2,212,325.1,211.3,325.7z M211.3,319.1l-0.5,0.4l-0.5-0.5c-0.7-0.7-0.3-1.6,0.6-1.5
		C211.8,317.6,212,318.5,211.3,319.1z M211.3,312.6c-0.7,0.3-1.6-0.6-1.3-1.3c0.1-0.3,0.5-0.5,1-0.4
		C211.8,311,212.1,312.3,211.3,312.6z M211.3,306.1c-0.3,0.1-0.8,0-1.1-0.3c-0.7-0.7-0.3-1.6,0.6-1.5
		C211.8,304.4,212.1,305.8,211.3,306.1z M211.3,286.3c-0.9,0.3-1.6-0.1-1.4-0.9c0.1-0.5,0.3-0.7,0.9-0.7
		C211.8,284.6,212.2,285.9,211.3,286.3z M211.7,246.3c-0.2,0.3-0.7,0.5-1.1,0.5c-0.8-0.2-1-1.4-0.3-1.9l0.5-0.4l0.6,0.6l0.6,0.6
		L211.7,246.3z M213.6,287.7l0.5-0.4l0.5,0.4c0.3,0.2,0.5,0.7,0.5,1s-0.2,0.7-0.5,0.8c-0.8,0.3-1.5-0.1-1.5-0.8
		C213.1,288.4,213.3,287.9,213.6,287.7z M213.1,282.2c0-0.3,0.2-0.8,0.5-1l0.5-0.4l0.5,0.4c0.3,0.2,0.5,0.7,0.5,1s-0.2,0.7-0.5,0.8
		C213.8,283.3,213.1,282.9,213.1,282.2z M214.7,294.4c0.5,0.5,0.5,1.6-0.1,1.8c-0.8,0.3-1.5-0.1-1.5-0.8
		C213.1,294.5,214.2,293.9,214.7,294.4z M213.2,308.4c0.1-1,1.7-1,1.9,0c0.1,0.4-0.1,0.8-0.3,0.9l0,0
		C214.1,309.7,213.1,309.2,213.2,308.4z M215,315c0.1,0.4-0.1,0.8-0.3,0.9l0,0c-0.7,0.4-1.7-0.2-1.6-0.9
		C213.3,314,214.9,314,215,315z M215,321.6c0.1,0.4-0.1,0.8-0.3,0.9l0,0c-0.7,0.4-1.7-0.2-1.6-0.9
		C213.3,320.6,214.9,320.6,215,321.6z M215,328.2c0.1,0.4-0.1,0.8-0.3,0.9l0,0c-0.7,0.4-1.7-0.2-1.6-0.9
		C213.3,327.2,214.9,327.2,215,328.2z M214.6,342.3c-0.7,0.3-1.6-0.6-1.3-1.3c0.1-0.3,0.5-0.5,1-0.4
		C215.1,340.7,215.4,342,214.6,342.3z M214.6,335.7c-0.7,0.3-1.6-0.6-1.3-1.3c0.1-0.3,0.5-0.5,1-0.4
		C215.1,334.1,215.4,335.4,214.6,335.7z M214.6,302.8c-0.9,0.3-1.6-0.1-1.4-0.9c0.1-0.5,0.3-0.7,0.9-0.7
		C215.1,301.1,215.5,302.4,214.6,302.8z M215.1,275.9c-0.4,0.8-1.5,0.7-1.9,0l-0.3-0.6l0.7-0.6l0.7-0.6l0.6,0.6l0.6,0.6L215.1,275.9
		z M215.1,269.3c-0.4,0.8-1.5,0.7-1.9,0l-0.3-0.6l0.7-0.6l0.7-0.6l0.6,0.6l0.6,0.6L215.1,269.3z M215.1,262.7
		c-0.4,0.8-1.5,0.7-1.9,0l-0.3-0.6l0.7-0.6l0.7-0.6l0.6,0.6l0.6,0.6L215.1,262.7z M212.8,255.5l0.6-0.5c1-0.9,2.3,0,1.6,1.2
		c-0.4,0.7-1.5,0.7-1.9-0.1L212.8,255.5z M215.1,249.5c-0.4,0.8-1.5,0.7-1.9-0.1l-0.3-0.6l0.5-0.5c0.3-0.3,0.6-0.5,0.8-0.5
		s1.3,0.9,1.3,1.1C215.4,248.9,215.2,249.2,215.1,249.5z M212.8,229l0.5-0.5c0.7-0.7,1-0.7,1.6,0c0.6,0.6,0.6,0.9,0.1,1.4
		c-0.6,0.6-1.5,0.5-1.9-0.2L212.8,229z M215.1,242.9c-0.4,0.8-1.5,0.7-1.9-0.1l-0.3-0.6l0.5-0.5c0.3-0.3,0.6-0.5,0.8-0.5
		s1.3,0.9,1.3,1.1C215.4,242.3,215.2,242.6,215.1,242.9z M215.1,236.3c-0.4,0.8-1.5,0.7-1.9-0.1l-0.3-0.6l0.5-0.5
		c0.3-0.3,0.6-0.5,0.8-0.5s1.3,0.9,1.3,1.1C215.4,235.7,215.2,236,215.1,236.3z M215,223.3c-0.7,0.7-2.2,0.2-2.2-0.6
		c0-0.3,1-1.3,1.3-1.3s1.3,0.9,1.3,1.3C215.4,222.8,215.2,223.1,215,223.3z M217.4,251.1c0.3,0,1.3,0.9,1.3,1.3
		c0,0.1-0.2,0.4-0.4,0.6c-0.7,0.7-2.2,0.2-2.2-0.6C216.1,252,217.1,251.1,217.4,251.1z M218.4,259.4c-0.4,0.8-1.5,0.7-1.9-0.1
		l-0.3-0.6l0.5-0.5c0.3-0.3,0.6-0.5,0.8-0.5s1.3,0.9,1.3,1.1C218.7,258.8,218.5,259.1,218.4,259.4z M218.7,265.4
		c0,0-0.2,0.3-0.3,0.6c-0.4,0.8-1.5,0.7-1.9-0.1l-0.3-0.6l0.5-0.5c0.3-0.3,0.6-0.5,0.8-0.5C217.6,264.3,218.7,265.2,218.7,265.4z
		 M216.6,271.4c0.3-0.3,0.6-0.5,0.8-0.5s1.3,0.9,1.3,1.1c0,0-0.2,0.3-0.3,0.6c-0.4,0.8-1.5,0.7-1.9-0.1l-0.3-0.6L216.6,271.4z
		 M218.3,279.2c-0.4,0.7-1.5,0.7-1.9-0.1l-0.3-0.6l0.6-0.5C217.7,277.1,219,278.1,218.3,279.2z M218.3,285.8
		c-0.4,0.7-1.5,0.7-1.9-0.1l-0.3-0.6l0.6-0.5C217.7,283.7,219,284.7,218.3,285.8z M216.8,291.2l0.7-0.6l0.6,0.6l0.6,0.6l-0.3,0.6
		c-0.4,0.8-1.5,0.7-1.9,0l-0.3-0.6L216.8,291.2z M217.9,312.7c-0.8,0.3-1.5-0.1-1.5-0.8c0-0.3,0.2-0.8,0.5-1l0.5-0.4l0.5,0.4
		c0.3,0.2,0.5,0.7,0.5,1S218.2,312.6,217.9,312.7z M218.4,318.5c0,0.3-0.2,0.7-0.5,0.8c-0.8,0.3-1.5-0.1-1.5-0.8
		c0-0.3,0.2-0.8,0.5-1l0.5-0.4l0.5,0.4C218.2,317.6,218.4,318.1,218.4,318.5z M217.9,306.1c-0.8,0.3-1.5-0.1-1.5-0.8
		c0-0.3,0.2-0.8,0.5-1l0.5-0.4l0.5,0.4c0.3,0.2,0.5,0.7,0.5,1S218.2,306,217.9,306.1z M217.8,324.1c0.7,0.4,0.8,1.6,0.1,1.8
		c-0.7,0.3-1.5-0.1-1.5-0.8C216.4,324.2,217.1,323.7,217.8,324.1z M218.1,345.6L218.1,345.6c-0.7,0.4-1.7-0.2-1.6-0.9
		c0.1-1,1.7-1,1.9,0C218.4,345.1,218.3,345.5,218.1,345.6z M217.9,339.1c-0.9,0.3-1.6-0.1-1.4-0.9c0.1-0.5,0.3-0.7,0.9-0.7
		C218.4,337.4,218.8,338.7,217.9,339.1z M217.9,332.5c-0.9,0.3-1.6-0.1-1.4-0.9c0.1-0.5,0.3-0.7,0.9-0.7
		C218.4,330.8,218.8,332.1,217.9,332.5z M218.3,299.1c-0.2,0.3-0.7,0.5-1.1,0.5c-0.8-0.2-1-1.4-0.3-1.9l0.5-0.4l0.6,0.6l0.6,0.6
		L218.3,299.1z M219.9,281.3c0.7-0.7,1-0.7,1.6,0c0.6,0.6,0.6,0.9,0.1,1.4c-0.6,0.6-1.5,0.5-1.9-0.2l-0.3-0.6L219.9,281.3z
		 M219.9,274.7c0.7-0.7,1-0.7,1.6,0c0.7,0.7,0.7,0.9-0.1,1.5C220.4,277.2,218.9,275.7,219.9,274.7z M219.9,287.9
		c0.7-0.7,1-0.7,1.6,0c0.6,0.6,0.6,0.9,0.1,1.4c-0.6,0.6-1.5,0.5-1.9-0.2l-0.3-0.6L219.9,287.9z M221.2,342.4
		c-0.7,0.3-1.5-0.1-1.5-0.8c0-0.9,0.7-1.4,1.4-1C221.8,340.9,221.9,342.1,221.2,342.4z M221.2,335.8c-0.8,0.3-1.5-0.1-1.5-0.8
		c0-0.3,0.2-0.8,0.5-1l0.5-0.4l0.5,0.4c0.3,0.2,0.5,0.7,0.5,1S221.5,335.7,221.2,335.8z M221.2,329.2c-0.8,0.3-1.5-0.1-1.5-0.8
		c0-0.3,0.2-0.8,0.5-1l0.5-0.4l0.5,0.4c0.3,0.2,0.5,0.7,0.5,1S221.5,329.1,221.2,329.2z M221.7,322.1c-0.4,0.8-1.5,0.7-1.9,0
		l-0.3-0.6l0.7-0.6l0.7-0.6l0.6,0.6l0.6,0.6L221.7,322.1z M221.7,315.5c-0.4,0.8-1.5,0.7-1.9,0l-0.3-0.6l0.7-0.6l0.7-0.6l0.6,0.6
		l0.6,0.6L221.7,315.5z M219.4,308.3l0.6-0.5c1-0.9,2.3,0,1.6,1.2c-0.4,0.7-1.5,0.7-1.9-0.1L219.4,308.3z M221.7,302.3
		c-0.4,0.8-1.5,0.7-1.9-0.1l-0.3-0.6l0.5-0.5c0.3-0.3,0.6-0.5,0.8-0.5s1.3,0.9,1.3,1.1C222,301.7,221.8,302,221.7,302.3z
		 M221.7,295.7c-0.4,0.8-1.5,0.7-1.9-0.1l-0.3-0.6l0.5-0.5c0.3-0.3,0.6-0.5,0.8-0.5s1.3,0.9,1.3,1.1
		C222,295.1,221.8,295.4,221.7,295.7z M221.4,269.7l-0.6,0.5l-0.7-0.5c-0.4-0.3-0.7-0.6-0.7-0.8c0-0.4,1-1.3,1.3-1.3
		c0.4,0,1.3,0.9,1.3,1.3C222,269,221.8,269.4,221.4,269.7z M221.4,263.1l-0.6,0.5l-0.7-0.5c-0.4-0.3-0.7-0.6-0.7-0.8
		c0-0.4,1-1.3,1.3-1.3c0.4,0,1.3,0.9,1.3,1.3C222,262.4,221.8,262.8,221.4,263.1z M221.4,256.5l-0.7,0.6l-0.7-0.6
		c-0.4-0.3-0.7-0.7-0.7-0.9c0-0.3,1-1.3,1.3-1.3c0.4,0,1.3,0.9,1.3,1.3C222,255.8,221.7,256.2,221.4,256.5z M221.4,249.9l-0.7,0.6
		l-0.7-0.6c-0.4-0.3-0.7-0.7-0.7-0.9c0-0.3,1-1.3,1.3-1.3c0.4,0,1.3,0.9,1.3,1.3C222,249.2,221.7,249.6,221.4,249.9z M221.5,243.3
		c-0.3,0.3-0.6,0.5-0.8,0.5c-0.4,0-1.3-1-1.3-1.3c0-0.4,1-1.3,1.3-1.3c0.4,0,1.3,1,1.3,1.3C222,242.7,221.8,243,221.5,243.3z
		 M221.5,236.7c-0.3,0.3-0.6,0.5-0.8,0.5c-0.4,0-1.3-1-1.3-1.3c0-0.4,1-1.3,1.3-1.3c0.4,0,1.3,1,1.3,1.3
		C222,236.1,221.8,236.4,221.5,236.7z M221.5,230.1c-0.3,0.3-0.6,0.5-0.8,0.5c-0.4,0-1.3-1-1.3-1.3s1-1.3,1.3-1.3
		c0.4,0,1.3,1,1.3,1.3C222,229.5,221.8,229.8,221.5,230.1z M225,345.2c-0.4,0.8-1.5,0.7-1.9,0l-0.3-0.6l0.7-0.6l0.7-0.6l0.6,0.6
		l0.6,0.6L225,345.2z M225,338.6c-0.4,0.8-1.5,0.7-1.9,0l-0.3-0.6l0.7-0.6l0.7-0.6l0.6,0.6l0.6,0.6L225,338.6z M225,332
		c-0.4,0.8-1.5,0.7-1.9-0.1l-0.3-0.6l0.5-0.5c0.3-0.3,0.6-0.5,0.8-0.5s1.3,0.9,1.3,1.1C225.3,331.4,225.1,331.7,225,332z
		 M222.7,311.5l0.5-0.5c0.7-0.7,1-0.7,1.6,0c0.6,0.6,0.6,0.9,0.1,1.4c-0.6,0.6-1.5,0.5-1.9-0.2L222.7,311.5z M225,325.4
		c-0.4,0.8-1.5,0.7-1.9-0.1l-0.3-0.6l0.5-0.5c0.3-0.3,0.6-0.5,0.8-0.5s1.3,0.9,1.3,1.1C225.3,324.8,225.1,325.1,225,325.4z
		 M225,318.8c-0.4,0.8-1.5,0.7-1.9-0.1l-0.3-0.6l0.5-0.5c0.3-0.3,0.6-0.5,0.8-0.5s1.3,0.9,1.3,1.1
		C225.3,318.2,225.1,318.5,225,318.8z M224.9,305.8c-0.7,0.7-2.2,0.2-2.2-0.6c0-0.3,1-1.3,1.3-1.3s1.3,0.9,1.3,1.3
		C225.3,305.3,225.1,305.6,224.9,305.8z M224.9,299.2c-0.7,0.7-2.2,0.2-2.2-0.6c0-0.3,1-1.3,1.3-1.3s1.3,0.9,1.3,1.3
		C225.3,298.7,225.1,299,224.9,299.2z M224.7,292.8l-0.7,0.6l-0.7-0.6c-0.4-0.3-0.7-0.7-0.7-0.9c0-0.3,1-1.3,1.3-1.3
		c0.4,0,1.3,0.9,1.3,1.3C225.3,292.1,225,292.5,224.7,292.8z M224.7,286.2l-0.7,0.6l-0.7-0.6c-0.4-0.3-0.7-0.7-0.7-0.9
		c0-0.3,1-1.3,1.3-1.3c0.4,0,1.3,0.9,1.3,1.3C225.3,285.5,225,285.9,224.7,286.2z M224.7,279.6l-0.7,0.6l-0.7-0.6
		c-0.4-0.3-0.7-0.7-0.7-0.9c0-0.3,1-1.3,1.3-1.3c0.4,0,1.3,0.9,1.3,1.3C225.3,278.9,225,279.3,224.7,279.6z M224.8,273
		c-0.3,0.3-0.6,0.5-0.8,0.5c-0.3,0-1.3-1.1-1.3-1.4s1-1.2,1.3-1.2c0.4,0,1.3,1,1.3,1.3C225.3,272.4,225.1,272.7,224.8,273z
		 M224.8,266.4c-0.3,0.3-0.6,0.5-0.8,0.5c-0.4,0-1.3-1-1.3-1.3c0-0.4,1-1.3,1.3-1.3s1.3,1,1.3,1.3
		C225.3,265.8,225.1,266.1,224.8,266.4z M224.8,259.8c-0.3,0.3-0.6,0.5-0.8,0.5c-0.4,0-1.3-1-1.3-1.3c0-0.4,1-1.3,1.3-1.3
		s1.3,1,1.3,1.3C225.3,259.2,225.1,259.5,224.8,259.8z M228.3,341.9c-0.4,0.8-1.5,0.7-1.9-0.1l-0.3-0.6l0.5-0.5
		c0.3-0.3,0.6-0.5,0.8-0.5s1.3,0.9,1.3,1.1C228.6,341.3,228.4,341.6,228.3,341.9z M226.5,334.1c0.7-0.7,1-0.7,1.6,0
		c0.6,0.6,0.6,0.9,0.1,1.4c-0.6,0.6-1.5,0.5-1.9-0.2l-0.3-0.6L226.5,334.1z M226,328l0.5-0.5c0.7-0.7,1-0.7,1.6,0
		c0.6,0.6,0.6,0.9,0.1,1.4c-0.6,0.6-1.5,0.5-1.9-0.2L226,328z M228.2,322.3c-0.7,0.7-2.2,0.2-2.2-0.6c0-0.3,1-1.3,1.3-1.3
		s1.3,0.9,1.3,1.3C228.6,321.8,228.4,322.1,228.2,322.3z M228,315.9l-0.6,0.5l-0.7-0.5c-0.4-0.3-0.7-0.6-0.7-0.8
		c0-0.4,1-1.3,1.3-1.3c0.4,0,1.3,0.9,1.3,1.3C228.6,315.2,228.4,315.6,228,315.9z M228,309.3l-0.7,0.6l-0.7-0.6
		c-0.4-0.3-0.7-0.7-0.7-0.9c0-0.3,1-1.3,1.3-1.3c0.4,0,1.3,0.9,1.3,1.3C228.6,308.6,228.3,309,228,309.3z M228,302.7
		c-0.3,0.3-0.7,0.5-0.8,0.5c-0.3,0-1.2-1-1.2-1.3c0-0.4,1-1.3,1.3-1.3c0.4,0,1.3,0.9,1.3,1.3C228.6,302,228.3,302.4,228,302.7z
		 M228,296.1l-0.7,0.6l-0.7-0.6c-0.4-0.3-0.7-0.7-0.7-0.9c0-0.3,1-1.3,1.3-1.3c0.4,0,1.3,0.9,1.3,1.3
		C228.6,295.4,228.3,295.8,228,296.1z M228.1,289.5c-0.3,0.3-0.6,0.5-0.8,0.5c-0.4,0-1.3-1-1.3-1.3s1-1.3,1.3-1.3s1.3,1,1.3,1.3
		C228.6,288.9,228.4,289.2,228.1,289.5z M228.1,282.9c-0.3,0.3-0.6,0.5-0.8,0.5c-0.4,0-1.3-1-1.3-1.3s1-1.3,1.3-1.3s1.3,1,1.3,1.3
		C228.6,282.3,228.4,282.6,228.1,282.9z M231.3,345.6l-0.6,0.5l-0.7-0.5c-0.4-0.3-0.7-0.6-0.7-0.8c0-0.4,1-1.3,1.3-1.3
		c0.4,0,1.3,0.9,1.3,1.3C231.9,344.9,231.7,345.3,231.3,345.6z M231.3,339l-0.6,0.5L230,339c-0.4-0.3-0.7-0.6-0.7-0.8
		c0-0.4,1-1.3,1.3-1.3c0.4,0,1.3,0.9,1.3,1.3C231.9,338.3,231.7,338.7,231.3,339z M231.3,332.4l-0.7,0.6l-0.7-0.6
		c-0.4-0.3-0.7-0.7-0.7-0.9c0-0.3,1-1.3,1.3-1.3c0.4,0,1.3,0.9,1.3,1.3C231.9,331.7,231.6,332.1,231.3,332.4z M231.3,325.8
		c-0.3,0.3-0.7,0.5-0.8,0.5c-0.3,0-1.2-1-1.2-1.3c0-0.4,1-1.3,1.3-1.3c0.4,0,1.3,0.9,1.3,1.3C231.9,325.1,231.6,325.5,231.3,325.8z
		 M231.3,319.2l-0.7,0.6l-0.7-0.6c-0.4-0.3-0.7-0.7-0.7-0.9c0-0.3,1-1.3,1.3-1.3c0.4,0,1.3,0.9,1.3,1.3
		C231.9,318.5,231.6,318.9,231.3,319.2z M231.4,312.6c-0.3,0.3-0.6,0.5-0.8,0.5c-0.4,0-1.3-1-1.3-1.3s1-1.3,1.3-1.3
		c0.4,0,1.3,1,1.3,1.3C231.9,312,231.7,312.3,231.4,312.6z M231.4,306c-0.3,0.3-0.6,0.5-0.8,0.5c-0.3,0-1.3-0.9-1.3-1.2
		c0-0.5,0.7-1.4,1.1-1.4c0.5,0,1.5,0.9,1.5,1.3C231.9,305.4,231.7,305.7,231.4,306z M231.4,240.2c-1.1,0.9-2.7-0.4-2-1.6
		c0.7-1.1,2.4-0.7,2.4,0.6C231.9,239.5,231.7,240,231.4,240.2z M232.6,341.5c0-0.3,1-1.3,1.3-1.3c0.4,0,1.3,0.9,1.3,1.3
		c0,0.1-0.3,0.5-0.7,0.9l-0.7,0.6l-0.7-0.6C232.9,342,232.6,341.6,232.6,341.5z"/>
	<path fill="#D78798" d="M165.1,202.2h34.2c2.3,0,4.2,2.5,4.2,5.5v0.1c0,2.2-1.4,4-3.1,4h-35c-1.9,0-3.5-1.9-3.6-4.4v-0.6
		C161.6,204.4,163.2,202.2,165.1,202.2z M139.5,164.7c5-4.3,9.8-6.2,15.5-6.2c6.1,0,13,2.1,22.2,5.5c1.9,0.7,3.9,1,6,1
		c5,0,9.9-2,14.5-3.9c4.4-1.8,8.6-3.6,12.7-3.6c2,0,4.8,0.3,8.3,2.8L198,198.7h-36L139.5,164.7z"/>
	<path fill="none" stroke="#000002" stroke-width="5" stroke-miterlimit="10" d="M188.5,269.6h-11.8c-4.3,0-7.8-3.5-7.8-7.8
		s3.5-7.8,7.8-7.8h20.8c2.8,0,5.2-2.3,5.2-5.2s-2.3-5.2-5.2-5.2h-9.8v-7.2c0-2.8-2.3-5.2-5.2-5.2c-2.8,0-5.2,2.3-5.2,5.2v7.2h-0.7
		c-10,0-18.1,8.1-18.1,18.1c0,10,8.1,18.1,18.1,18.1h11.8c4.3,0,7.8,3.5,7.8,7.8s-3.5,7.8-7.8,7.8h-21.2c-2.8,0-5.2,2.3-5.2,5.2
		c0,2.8,2.3,5.2,5.2,5.2h10.2v7.4c0,2.8,2.3,5.2,5.2,5.2s5.2-2.3,5.2-5.2v-7.4h0.9h0.1c9.9-0.1,17.9-8.2,17.9-18.1
		C206.7,277.7,198.5,269.6,188.5,269.6z"/>
	<path fill="none" stroke="#000103" stroke-width="5" stroke-miterlimit="10" d="M227.9,349.6h-97.6c-16.4,0-29.7-13.3-29.7-29.7
		c0-27.6,10.1-53.7,30-77.7c12.6-15.2,25.3-24.6,29.2-27.4h38.6c3.9,2.7,16.6,12.2,29.2,27.4c19.9,24,30,50.1,30,77.7
		C257.7,336.2,244.3,349.6,227.9,349.6z M135.8,164.7c5-4.3,9.8-6.2,15.5-6.2c6.1,0,13,2.1,22.2,5.5c1.9,0.7,3.9,1,6,1
		c5,0,9.9-2,14.5-3.9c4.4-1.8,8.6-3.6,12.7-3.6c2,0,4.8,0.3,8.3,2.8l-20.6,38.4h-36L135.8,164.7z M161.5,201.8h34.2
		c2.3,0,4.2,2.5,4.2,5.5v0.1c0,2.2-1.4,4-3.1,4h-35c-1.9,0-3.5-1.9-3.6-4.4v-0.6C158.1,204,159.6,201.8,161.5,201.8z"/>
</g>
</svg>
