<?xml version="1.0" encoding="utf-8"?>
<!-- Generator: Adobe Illustrator 22.0.1, SVG Export Plug-In . SVG Version: 6.00 Build 0)  -->
<svg version="1.1" id="Capa_1" xmlns="http://www.w3.org/2000/svg" xmlns:xlink="http://www.w3.org/1999/xlink" x="0px" y="0px"
	 viewBox="0 0 174 214" style="enable-background:new 0 0 174 214;" xml:space="preserve">
<style type="text/css">
	.st0{fill:#CF8696;}
	.st1{fill:#D78798;}
	.st2{fill:none;stroke:#000002;stroke-width:5;stroke-miterlimit:10;}
	.st3{fill:none;stroke:#000103;stroke-width:5;stroke-miterlimit:10;}
</style>
<g>
	<path class="st0" d="M147.7,201.2c-0.1-0.2-0.2-0.5-0.2-0.7c0.2-0.8,1.2-1.3,1.8-0.9c0.3,0.2,0.5,0.4,0.6,0.7
		c6.8-2.9,12.3-8.2,15.4-14.8c-0.2,0-0.4,0-0.6-0.1l-0.8-0.2l0.1-1.1l0.1-1.1h1.2h1.1c0.9-2.4,1.4-4.9,1.6-7.5l-0.6-0.1l-0.1-1
		c-0.1-0.8,0.3-1.4,0.8-1.5l0,0c0-1.3,0-2.6-0.1-3.9l-0.7-0.1l-0.1-1c-0.1-0.7,0.2-1.2,0.6-1.5c-0.1-1.4-0.2-2.8-0.3-4.2
		c-0.6-0.4-0.7-1.3-0.2-1.9c-0.3-2.7-0.7-5.3-1.2-7.9c-0.2,0.2-0.5,0.3-1,0.3c-1.6,0-2-1.9-0.6-2.7c0.4-0.2,0.7-0.2,1.1-0.1
		c-0.3-1.3-0.6-2.6-0.9-3.9c-1-0.3-1.4-1.5-0.6-2.3c-0.7-2.5-1.5-5-2.4-7.6c-0.5,0-1-0.2-1.2-0.7c-0.3-0.7-0.1-1.4,0.3-1.8
		c-0.3-0.8-0.6-1.6-0.9-2.4c0,0.2,0,0.5-0.1,0.7c-0.2,0.5-0.5,0.7-1.3,0.7c-1.6,0-2-1.9-0.6-2.7c0.6-0.3,1.2-0.2,1.6,0.2
		c-0.6-1.5-1.3-3-1.9-4.5c-0.4-0.3-0.6-0.7-0.5-1.2c-0.3-0.6-0.6-1.2-0.9-1.8l-1-0.1l-1.1-0.1l-0.1-1.1c-0.1-0.8,0.1-1.1,0.6-1.4
		c0.1,0,0.2-0.1,0.3-0.1c-1.9-3.5-3.9-7-6.1-10.5c-0.1,0-0.3,0-0.4,0l-0.8-0.1l-0.1-1.1c0-0.3,0-0.5,0.1-0.7
		c-0.4-0.5-0.7-1.1-1.1-1.6l-0.1,0.1c-0.3,0.1-0.9,0.1-1.4,0l-0.8-0.2l0.1-1.1l0.1-1.1h0.6c-0.5-0.7-1-1.3-1.5-2
		c0,0.3-0.1,0.6-0.3,0.8c-1,1-2.4,0.1-2.2-1.3l0.1-0.8h1.2h0.3c-0.8-1-1.6-2.1-2.4-3.1l0.1,0.6c0.1,0.5-0.1,1-0.3,1.2
		c-1,1-2.5,0-2.1-1.4l0.2-0.8l1.1,0.1l0.9,0.1c-0.6-0.7-1.1-1.4-1.7-2.1c-11.5-13.9-23.2-23-28-26.5c0.1,0.4,0,0.8-0.4,0.9
		c-0.9,0.3-1.6-0.1-1.4-0.9c0.1-0.5,0.3-0.7,0.9-0.7l-0.1-0.1h-6.2c0.8,0.2,1.1,1,0.4,1.6l-0.5,0.4l-0.5-0.5
		c-0.6-0.6-0.4-1.4,0.2-1.5h-6.1l0.3,0.2c0.6,0.5,0.6,0.8,0.1,1.3l0,0c-0.3,0.3-0.6,0.2-1.1-0.1l-0.6-0.5l0.6-0.6l0.4-0.4h-6.2
		l0.3,0.3c0.2,0.3,0.4,0.7,0.3,0.9c-0.2,0.6-1.3,0.5-1.5-0.1c-0.1-0.3,0-0.7,0.3-0.9l0.3-0.2H71c-0.2,0.1-0.3,0.2-0.5,0.4
		c0,0,0,0,0.1,0c0.4,0.3,0.5,0.7,0.1,1c-0.1,0.1-0.5,0-0.7-0.1l-0.3-0.2c-5,3.7-16.5,12.6-27.8,26.3c-1.7,2-3.2,4-4.8,6.1
		c0.1,0,0.1-0.1,0.2,0c0.2,0.1,0.3,0.3,0.3,0.5s-0.1,0.3-0.3,0.3s-0.3-0.2-0.3-0.5c0-0.1,0-0.2,0.1-0.2c-0.9,1.2-1.8,2.5-2.7,3.7
		l0,0c0,0.1-0.1,0.2-0.2,0.3c-3.7,5.3-6.9,10.7-9.7,16.2l0,0c0,0.1-0.1,0.2-0.2,0.2c-4.8,9.5-8.2,19.2-10.2,29.1h0.1
		c0.2,0,0.3,0.1,0.3,0.1s-0.1,0.2-0.3,0.3c-0.1,0.1-0.2,0.1-0.2,0c-1.4,7-2.1,14.2-2.1,21.5c0,3.9,0.8,7.6,2.1,11.1
		c0.1,0,0.1-0.1,0.2-0.1c0.2,0,0.3,0.1,0.3,0.1c0,0.1-0.1,0.2-0.3,0.3l0,0c3.1,7.3,9,13.1,16.3,16.1c0.1,0,0.1-0.1,0.2-0.1
		c0.2,0,0.3,0.1,0.3,0.1s0,0.1-0.1,0.1c3.3,1.3,6.9,2,10.6,2h97.6C141.7,202.7,144.8,202.2,147.7,201.2z M166.2,178.9
		c-0.3,0.1-0.8,0.1-1.3,0.1l-0.8-0.1v-1.2v-1.2h1.2h1.2l0.1,1.1C166.6,178.4,166.5,178.8,166.2,178.9z M166.2,172.3
		c-0.3,0.1-0.8,0.1-1.3,0.1l-0.8-0.1v-1.2V170h1.2h1.2l0.1,1.1C166.6,171.8,166.5,172.2,166.2,172.3z M166,156.6
		c0.8,0.4,0.9,2.2,0.2,2.5c-0.3,0.1-0.8,0.1-1.2,0.1l-0.8-0.1L164,158C163.9,156.7,164.9,156,166,156.6z M166,163.2
		c0.8,0.4,0.9,2.2,0.2,2.5c-0.3,0.1-0.8,0.1-1.2,0.1l-0.8-0.1l-0.1-1.1C163.9,163.3,164.9,162.6,166,163.2z M162,173.3h1.2l0.1,1.1
		c0.1,0.7-0.1,1.1-0.4,1.3c-0.3,0.1-0.9,0.1-1.4,0l-0.8-0.2l0.1-1.1l0.1-1.1L162,173.3L162,173.3z M160.8,169v-1.2v-1.2h1.2h1.2
		l0.1,1.1c0.1,0.7-0.1,1.1-0.4,1.3c-0.3,0.1-0.8,0.1-1.3,0.1L160.8,169z M162.8,162.4c-0.3,0.1-0.9,0.1-1.3,0l-0.8-0.2v-1
		c0-1.1,0.8-1.7,1.9-1.3C163.5,160.3,163.6,162.1,162.8,162.4z M162.9,155.8c-0.3,0.1-0.8,0.1-1.2,0.1l-0.8-0.1l-0.1-1.1
		c-0.1-1.2,0.7-1.8,1.8-1.4C163.4,153.6,163.6,155.5,162.9,155.8z M163.1,149.1c-0.5,0.5-2.1,0.2-2.4-0.5c-0.5-1.4,0.7-2.6,1.9-1.9
		C163.3,147,163.6,148.6,163.1,149.1z M162.8,188.6c-0.3,0.3-0.9,0.3-1.4,0.2l-0.8-0.2l0.1-1.1l0.1-1.1h1.2h1.2l0.1,0.9
		C163.3,187.8,163.1,188.4,162.8,188.6z M162.7,182.2c-0.4,0.1-1,0.1-1.4,0l-0.7-0.2l0.1-1l0.1-1h1.2h1.2l0.1,1l0.1,1L162.7,182.2z
		 M161.4,140.1c1.2-0.7,2.4,0.5,1.9,1.9c-0.2,0.5-0.5,0.7-1.3,0.7C160.4,142.7,160,140.8,161.4,140.1z M157.4,183.9l0.1-0.8h1.2h1.2
		l0.1,0.8c0.1,0.5-0.1,1-0.3,1.2C158.7,186.2,157.2,185.3,157.4,183.9z M157.4,177.3l0.1-0.8h1.2h1.2l0.1,0.8c0.1,0.5-0.1,1-0.3,1.2
		C158.7,179.6,157.2,178.7,157.4,177.3z M159.6,191.8c-0.9,0.9-2.4,0.1-2.2-1.3c0.1-0.6,0.4-0.8,1.1-0.9
		C159.9,189.5,160.6,190.9,159.6,191.8z M159.2,172.3c-1.1,0.3-1.9-0.4-1.8-1.5l0.1-0.9h1.2h1.2l0.1,1.1l0.1,1.1L159.2,172.3z
		 M159.4,136.8c0.8,0.4,0.9,2.2,0.2,2.5c-0.3,0.1-0.8,0.1-1.2,0.1l-0.8-0.1l-0.1-1.1C157.3,136.9,158.3,136.2,159.4,136.8z
		 M159.3,143.4c0.9,0.3,1.1,2.2,0.3,2.5c-0.3,0.1-0.8,0.1-1.2,0.1l-0.8-0.1l-0.1-1.1C157.3,143.6,158.1,143,159.3,143.4z M159.3,150
		c0.9,0.3,1.1,2.2,0.3,2.5c-0.3,0.1-0.8,0.1-1.2,0.1l-0.8-0.1l-0.1-1.1C157.3,150.2,158.1,149.6,159.3,150z M157.4,157.8l0.1-1.1
		h1.2h1.2l0.1,1.1c0.1,0.7-0.1,1.1-0.4,1.3c-0.3,0.1-0.9,0.1-1.4,0l-0.8-0.2L157.4,157.8z M157.4,164.4l0.1-1.1h1.2h1.2l0.1,1.1
		c0.1,0.7-0.1,1.1-0.4,1.3c-0.3,0.1-0.9,0.1-1.4,0l-0.8-0.2L157.4,164.4z M13.5,177.7c-0.2,0-0.3-0.1-0.2-0.2c0.1-0.1,0.3-0.1,0.4,0
		S13.7,177.7,13.5,177.7z M13.5,171.3c-0.2,0.1-0.3,0-0.3-0.1s0.1-0.3,0.3-0.3c0.2,0,0.3,0.1,0.3,0.1S13.7,171.2,13.5,171.3z
		 M13.3,164.3c0.1-0.1,0.3-0.1,0.4,0s0,0.2-0.2,0.2C13.3,164.5,13.2,164.4,13.3,164.3z M13.5,158.1c-0.2,0.1-0.3,0-0.3-0.1
		c0-0.2,0.1-0.3,0.3-0.3c0.2,0,0.3,0.1,0.3,0.1C13.8,157.8,13.7,158,13.5,158.1z M16.8,187.6c-0.2,0-0.3-0.1-0.2-0.2
		c0.1-0.1,0.3-0.1,0.4,0C17.1,187.5,17,187.6,16.8,187.6z M16.8,181c-0.2,0-0.3-0.1-0.2-0.2c0.1-0.1,0.3-0.1,0.4,0
		C17.1,180.9,17,181,16.8,181z M16.8,174.4c-0.2,0-0.3-0.1-0.2-0.2c0.1-0.1,0.3-0.1,0.4,0C17.1,174.3,17,174.4,16.8,174.4z
		 M16.8,168c-0.2,0.1-0.3,0-0.3-0.1c0-0.2,0.1-0.3,0.3-0.3c0.2,0,0.3,0.1,0.3,0.1C17.1,167.7,17,167.9,16.8,168z M16.8,161.4
		c-0.2,0.1-0.3,0-0.3-0.1c0-0.2,0.1-0.3,0.3-0.3c0.2,0,0.3,0.1,0.3,0.1C17.1,161.1,17,161.3,16.8,161.4z M16.8,154.9
		c-0.2,0-0.3-0.1-0.3-0.3c0-0.2,0.1-0.3,0.3-0.3c0.2,0,0.3,0.1,0.3,0.3C17.1,154.8,17,154.9,16.8,154.9z M16.8,148.2
		c-0.2,0.1-0.3,0-0.3-0.1c0-0.2,0.1-0.3,0.3-0.3c0.2,0,0.3,0.1,0.3,0.1C17.1,147.9,17,148.1,16.8,148.2z M16.8,141.6
		c-0.2,0.1-0.3,0-0.3-0.1c0-0.2,0.1-0.3,0.3-0.3c0.2,0,0.3,0.1,0.3,0.1C17.1,141.3,17,141.5,16.8,141.6z M20.1,190.9
		c-0.2,0-0.3-0.1-0.2-0.2c0.1-0.1,0.3-0.1,0.4,0S20.3,190.9,20.1,190.9z M20.1,184.3c-0.2,0-0.3-0.1-0.2-0.2c0.1-0.1,0.3-0.1,0.4,0
		C20.4,184.2,20.3,184.3,20.1,184.3z M20.1,177.7c-0.2,0-0.3-0.1-0.2-0.2c0.1-0.1,0.3-0.1,0.4,0S20.3,177.7,20.1,177.7z M20.1,171.1
		c-0.2,0-0.3-0.1-0.2-0.2c0.1-0.1,0.3-0.1,0.4,0S20.3,171.1,20.1,171.1z M20.1,164.5c-0.2,0-0.3-0.1-0.2-0.2c0.1-0.1,0.3-0.1,0.4,0
		S20.3,164.5,20.1,164.5z M20.1,158.2c-0.2,0-0.3-0.1-0.3-0.3c0-0.2,0.1-0.3,0.3-0.3c0.2,0,0.3,0.1,0.3,0.3S20.3,158.2,20.1,158.2z
		 M20.1,151.5c-0.2,0.1-0.3,0-0.3-0.1c0-0.2,0.1-0.3,0.3-0.3c0.2,0,0.3,0.1,0.3,0.1S20.3,151.4,20.1,151.5z M20.1,145
		c-0.2,0-0.3-0.1-0.3-0.3c0-0.2,0.1-0.3,0.3-0.3c0.2,0,0.3,0.1,0.3,0.3S20.3,145,20.1,145z M20.1,138.3c-0.2,0.1-0.3,0-0.3-0.1
		c0-0.2,0.1-0.3,0.3-0.3c0.2,0,0.3,0.1,0.3,0.1S20.3,138.2,20.1,138.3z M20.1,131.7c-0.2,0.1-0.3,0-0.3-0.1c0-0.2,0.1-0.3,0.3-0.3
		c0.2,0,0.3,0.1,0.3,0.1C20.4,131.4,20.3,131.6,20.1,131.7z M23.4,194.2c-0.2,0-0.3-0.1-0.2-0.2c0.1-0.1,0.3-0.1,0.4,0
		C23.7,194.1,23.6,194.2,23.4,194.2z M23.4,187.6c-0.2,0-0.3-0.1-0.2-0.2c0.1-0.1,0.3-0.1,0.4,0C23.7,187.5,23.6,187.6,23.4,187.6z
		 M23.4,181.2c-0.2,0.1-0.3,0-0.3-0.1s0.1-0.3,0.3-0.3c0.2,0,0.3,0.1,0.3,0.1C23.7,180.9,23.6,181.1,23.4,181.2z M23.4,174.6
		c-0.2,0.1-0.3,0-0.3-0.1s0.1-0.3,0.3-0.3c0.2,0,0.3,0.1,0.3,0.1C23.7,174.3,23.6,174.5,23.4,174.6z M23.4,168
		c-0.2,0.1-0.3,0-0.3-0.1c0-0.2,0.1-0.3,0.3-0.3c0.2,0,0.3,0.1,0.3,0.1C23.7,167.7,23.6,167.9,23.4,168z M23.4,161.4
		c-0.2,0.1-0.3,0-0.3-0.1c0-0.2,0.1-0.3,0.3-0.3c0.2,0,0.3,0.1,0.3,0.1C23.7,161.1,23.6,161.3,23.4,161.4z M23.4,154.8
		c-0.2,0.1-0.3,0-0.3-0.1c0-0.2,0.1-0.3,0.3-0.3c0.2,0,0.3,0.1,0.3,0.1C23.7,154.5,23.6,154.7,23.4,154.8z M23.4,148.2
		c-0.2,0.1-0.3,0-0.3-0.1c0-0.2,0.1-0.3,0.3-0.3c0.2,0,0.3,0.1,0.3,0.1C23.7,147.9,23.6,148.1,23.4,148.2z M23.4,141.7
		c-0.2,0-0.3-0.1-0.3-0.3c0-0.2,0.1-0.3,0.3-0.3c0.2,0,0.3,0.1,0.3,0.3C23.7,141.6,23.6,141.7,23.4,141.7z M23.4,135
		c-0.2,0.1-0.3,0-0.3-0.1c0-0.2,0.1-0.3,0.3-0.3c0.2,0,0.3,0.1,0.3,0.1C23.7,134.7,23.6,134.9,23.4,135z M23.4,128.4
		c-0.2,0.1-0.3,0-0.3-0.1c0-0.2,0.1-0.3,0.3-0.3c0.2,0,0.3,0.1,0.3,0.1C23.7,128.1,23.6,128.3,23.4,128.4z M26.7,197.5
		c-0.2,0-0.3-0.1-0.2-0.2c0.1-0.1,0.3-0.1,0.4,0S26.9,197.5,26.7,197.5z M26.7,190.9c-0.2,0-0.3-0.1-0.2-0.2c0.1-0.1,0.3-0.1,0.4,0
		S26.9,190.9,26.7,190.9z M26.7,184.5c-0.2,0.1-0.3,0-0.3-0.1c0-0.2,0.1-0.3,0.3-0.3c0.2,0,0.3,0.1,0.3,0.1S26.9,184.4,26.7,184.5z
		 M26.7,177.9c-0.2,0.1-0.3,0-0.3-0.1c0-0.2,0.1-0.3,0.3-0.3c0.2,0,0.3,0.1,0.3,0.1S26.9,177.8,26.7,177.9z M26.5,170.9
		c0.1-0.1,0.3-0.1,0.4,0s0,0.2-0.2,0.2C26.5,171.1,26.4,171,26.5,170.9z M26.7,164.7c-0.2,0.1-0.3,0-0.3-0.1s0.1-0.3,0.3-0.3
		c0.2,0,0.3,0.1,0.3,0.1C27,164.4,26.9,164.6,26.7,164.7z M26.7,158.2c-0.2,0-0.3-0.1-0.3-0.3c0-0.2,0.1-0.3,0.3-0.3
		c0.2,0,0.3,0.1,0.3,0.3S26.9,158.2,26.7,158.2z M26.7,151.5c-0.2,0.1-0.3,0-0.3-0.1c0-0.2,0.1-0.3,0.3-0.3c0.2,0,0.3,0.1,0.3,0.1
		S26.9,151.4,26.7,151.5z M26.7,144.9c-0.2,0.1-0.3,0-0.3-0.1c0-0.2,0.1-0.3,0.3-0.3c0.2,0,0.3,0.1,0.3,0.1S26.9,144.8,26.7,144.9z
		 M26.7,138.3c-0.2,0.1-0.3,0-0.3-0.1c0-0.2,0.1-0.3,0.3-0.3c0.2,0,0.3,0.1,0.3,0.1S26.9,138.2,26.7,138.3z M26.7,131.8
		c-0.2,0-0.3-0.1-0.3-0.3c0-0.2,0.1-0.3,0.3-0.3c0.2,0,0.3,0.1,0.3,0.3C27,131.7,26.9,131.8,26.7,131.8z M26.7,125.2
		c-0.2,0-0.3-0.1-0.3-0.3c0-0.2,0.1-0.3,0.3-0.3c0.2,0,0.3,0.1,0.3,0.3S26.9,125.2,26.7,125.2z M26.7,118.6c-0.2,0-0.3-0.2-0.3-0.5
		s0.1-0.4,0.3-0.3c0.2,0.1,0.3,0.3,0.3,0.5C27,118.5,26.9,118.6,26.7,118.6z M30,194.4c-0.2,0.1-0.3,0-0.3-0.1
		c0-0.2,0.1-0.3,0.3-0.3c0.2,0,0.3,0.1,0.3,0.1S30.2,194.3,30,194.4z M30,187.8c-0.2,0.1-0.3,0-0.3-0.1s0.1-0.3,0.3-0.3
		c0.2,0,0.3,0.1,0.3,0.1S30.2,187.7,30,187.8z M29.8,180.8c0.1-0.1,0.3-0.1,0.4,0s0,0.2-0.2,0.2C29.8,181,29.7,180.9,29.8,180.8z
		 M30,174.6c-0.2,0.1-0.3,0-0.3-0.1s0.1-0.3,0.3-0.3c0.2,0,0.3,0.1,0.3,0.1C30.3,174.3,30.2,174.5,30,174.6z M30,168
		c-0.2,0.1-0.3,0-0.3-0.1c0-0.2,0.1-0.3,0.3-0.3c0.2,0,0.3,0.1,0.3,0.1S30.2,167.9,30,168z M30,161.5c-0.2,0-0.3-0.1-0.3-0.3
		c0-0.2,0.1-0.3,0.3-0.3c0.2,0,0.3,0.1,0.3,0.3S30.2,161.5,30,161.5z M30,154.9c-0.2,0-0.3-0.1-0.3-0.3c0-0.2,0.1-0.3,0.3-0.3
		c0.2,0,0.3,0.1,0.3,0.3S30.2,154.9,30,154.9z M30,148.2c-0.2,0.1-0.3,0-0.3-0.1c0-0.2,0.1-0.3,0.3-0.3c0.2,0,0.3,0.1,0.3,0.1
		C30.3,147.9,30.2,148.1,30,148.2z M30,141.7c-0.2,0-0.3-0.1-0.3-0.3c0-0.2,0.1-0.3,0.3-0.3c0.2,0,0.3,0.1,0.3,0.3
		S30.2,141.7,30,141.7z M30,135c-0.2,0.1-0.3,0-0.3-0.1c0-0.2,0.1-0.3,0.3-0.3c0.2,0,0.3,0.1,0.3,0.1S30.2,134.9,30,135z M30,128.5
		c-0.2,0-0.3-0.1-0.3-0.3c0-0.2,0.1-0.3,0.3-0.3c0.2,0,0.3,0.1,0.3,0.3S30.2,128.5,30,128.5z M30,121.9c-0.2,0-0.3-0.1-0.3-0.3
		c0-0.2,0.1-0.3,0.3-0.3c0.2,0,0.3,0.1,0.3,0.3S30.2,121.9,30,121.9z M30,115.3c-0.2,0-0.3-0.1-0.3-0.3c0-0.2,0.1-0.3,0.3-0.3
		c0.2,0,0.3,0.1,0.3,0.3C30.3,115.2,30.2,115.3,30,115.3z M33.3,197.7c-0.2,0.1-0.3,0-0.3-0.1s0.1-0.3,0.3-0.3s0.3,0.1,0.3,0.1
		C33.6,197.4,33.5,197.6,33.3,197.7z M33.3,191.1c-0.2,0.1-0.3,0-0.3-0.1s0.1-0.3,0.3-0.3s0.3,0.1,0.3,0.1
		C33.6,190.8,33.5,191,33.3,191.1z M33.1,184.1c0.1-0.1,0.3-0.1,0.4,0c0.1,0.1,0,0.2-0.2,0.2C33.1,184.3,33,184.2,33.1,184.1z
		 M33.3,177.9c-0.2,0.1-0.3,0-0.3-0.1c0-0.2,0.1-0.3,0.3-0.3s0.3,0.1,0.3,0.1S33.5,177.8,33.3,177.9z M33.3,171.3
		c-0.2,0.1-0.3,0-0.3-0.1s0.1-0.3,0.3-0.3s0.3,0.1,0.3,0.1S33.5,171.2,33.3,171.3z M33.3,164.8c-0.2,0-0.3-0.1-0.3-0.3
		s0.1-0.3,0.3-0.3s0.3,0.1,0.3,0.3S33.5,164.8,33.3,164.8z M33.3,158.1c-0.2,0.1-0.3,0-0.3-0.1c0-0.2,0.1-0.3,0.3-0.3
		s0.3,0.1,0.3,0.1C33.6,157.8,33.5,158,33.3,158.1z M33.3,151.5c-0.2,0.1-0.3,0-0.3-0.1c0-0.2,0.1-0.3,0.3-0.3s0.3,0.1,0.3,0.1
		S33.5,151.4,33.3,151.5z M33.3,144.9c-0.2,0.1-0.3,0-0.3-0.1c0-0.2,0.1-0.3,0.3-0.3s0.3,0.1,0.3,0.1S33.5,144.8,33.3,144.9z
		 M33.3,138.4c-0.2,0-0.3-0.1-0.3-0.3c0-0.2,0.1-0.3,0.3-0.3s0.3,0.1,0.3,0.3S33.5,138.4,33.3,138.4z M33.3,131.8
		c-0.2,0-0.3-0.2-0.3-0.5s0.1-0.4,0.3-0.3s0.3,0.3,0.3,0.5S33.5,131.8,33.3,131.8z M33.3,125.2c-0.2,0-0.3-0.1-0.3-0.3
		c0-0.2,0.1-0.3,0.3-0.3s0.3,0.1,0.3,0.3S33.5,125.2,33.3,125.2z M33.3,118.6c-0.2,0-0.3-0.1-0.3-0.3c0-0.2,0.1-0.3,0.3-0.3
		s0.3,0.1,0.3,0.3S33.5,118.6,33.3,118.6z M33.3,112c-0.2,0-0.3-0.1-0.3-0.3s0.1-0.3,0.3-0.3s0.3,0.1,0.3,0.3S33.5,112,33.3,112z
		 M36.6,201c-0.2,0.1-0.3,0-0.3-0.1c0-0.2,0.1-0.3,0.3-0.3s0.3,0.1,0.3,0.1C36.9,200.7,36.8,200.9,36.6,201z M36.6,194.4
		c-0.2,0.1-0.3,0-0.3-0.1c0-0.2,0.1-0.3,0.3-0.3s0.3,0.1,0.3,0.1C36.9,194.1,36.8,194.3,36.6,194.4z M36.6,187.8
		c-0.2,0.1-0.3,0-0.3-0.1s0.1-0.3,0.3-0.3s0.3,0.1,0.3,0.1C36.9,187.5,36.8,187.7,36.6,187.8z M36.6,181.2c-0.2,0.1-0.3,0-0.3-0.1
		s0.1-0.3,0.3-0.3s0.3,0.1,0.3,0.1C36.9,180.9,36.8,181.1,36.6,181.2z M36.6,174.6c-0.2,0.1-0.3,0-0.3-0.1s0.1-0.3,0.3-0.3
		s0.3,0.1,0.3,0.1C36.9,174.3,36.8,174.5,36.6,174.6z M36.6,168c-0.2,0.1-0.3,0-0.3-0.1c0-0.2,0.1-0.3,0.3-0.3s0.3,0.1,0.3,0.1
		C36.9,167.7,36.8,167.9,36.6,168z M36.6,161.4c-0.2,0.1-0.3,0-0.3-0.1c0-0.2,0.1-0.3,0.3-0.3s0.3,0.1,0.3,0.1
		C36.9,161.1,36.8,161.3,36.6,161.4z M36.6,154.9c-0.2,0-0.3-0.1-0.3-0.3c0-0.2,0.1-0.3,0.3-0.3s0.3,0.1,0.3,0.3
		C36.9,154.8,36.8,154.9,36.6,154.9z M36.6,148.3c-0.2,0-0.3-0.1-0.3-0.3c0-0.2,0.1-0.3,0.3-0.3s0.3,0.1,0.3,0.3
		C36.9,148.2,36.8,148.3,36.6,148.3z M36.6,141.7c-0.2,0-0.3-0.1-0.3-0.3c0-0.2,0.1-0.3,0.3-0.3s0.3,0.1,0.3,0.3
		C36.9,141.6,36.8,141.7,36.6,141.7z M36.6,135.1c-0.2,0-0.3-0.1-0.3-0.3c0-0.2,0.1-0.3,0.3-0.3s0.3,0.1,0.3,0.3
		C36.9,135,36.8,135.1,36.6,135.1z M36.6,128.5c-0.2,0-0.3-0.1-0.3-0.3c0-0.2,0.1-0.3,0.3-0.3s0.3,0.1,0.3,0.3
		C36.9,128.4,36.8,128.5,36.6,128.5z M36.6,121.9c-0.2,0-0.3-0.2-0.3-0.5s0.1-0.4,0.3-0.3s0.3,0.3,0.3,0.5S36.8,121.9,36.6,121.9z
		 M36.6,115.3c-0.2,0-0.3-0.2-0.3-0.5s0.1-0.4,0.3-0.3s0.3,0.3,0.3,0.5C36.9,115.2,36.8,115.3,36.6,115.3z M36.6,108.7
		c-0.2,0-0.3-0.2-0.3-0.5s0.1-0.4,0.3-0.3c0.2,0.1,0.3,0.3,0.3,0.5C36.9,108.6,36.8,108.7,36.6,108.7z M39.9,197.7
		c-0.2,0.1-0.3,0-0.3-0.1s0.1-0.3,0.3-0.3s0.3,0.1,0.3,0.1C40.2,197.4,40.1,197.6,39.9,197.7z M39.9,191.1c-0.2,0.1-0.3,0-0.3-0.1
		s0.1-0.3,0.3-0.3s0.3,0.1,0.3,0.1C40.2,190.8,40.1,191,39.9,191.1z M39.9,184.5c-0.2,0.1-0.3,0-0.3-0.1c0-0.2,0.1-0.3,0.3-0.3
		s0.3,0.1,0.3,0.1S40.1,184.4,39.9,184.5z M39.9,178c-0.2,0-0.3-0.1-0.3-0.3c0-0.2,0.1-0.3,0.3-0.3s0.3,0.1,0.3,0.3
		S40.1,178,39.9,178z M39.9,171.3c-0.2,0.1-0.3,0-0.3-0.1s0.1-0.3,0.3-0.3s0.3,0.1,0.3,0.1S40.1,171.2,39.9,171.3z M39.9,164.7
		c-0.2,0.1-0.3,0-0.3-0.1s0.1-0.3,0.3-0.3s0.3,0.1,0.3,0.1C40.2,164.4,40.1,164.6,39.9,164.7z M39.9,158.2c-0.2,0-0.3-0.1-0.3-0.3
		c0-0.2,0.1-0.3,0.3-0.3s0.3,0.1,0.3,0.3S40.1,158.2,39.9,158.2z M39.9,151.6c-0.2,0-0.3-0.1-0.3-0.3c0-0.2,0.1-0.3,0.3-0.3
		s0.3,0.1,0.3,0.3S40.1,151.6,39.9,151.6z M39.9,145c-0.2,0-0.3-0.1-0.3-0.3c0-0.2,0.1-0.3,0.3-0.3s0.3,0.1,0.3,0.3
		S40.1,145,39.9,145z M39.9,138.4c-0.2,0-0.3-0.2-0.3-0.5s0.1-0.4,0.3-0.3s0.3,0.3,0.3,0.5S40.1,138.4,39.9,138.4z M39.9,131.8
		c-0.2,0-0.3-0.1-0.3-0.3c0-0.2,0.1-0.3,0.3-0.3s0.3,0.1,0.3,0.3C40.2,131.7,40.1,131.8,39.9,131.8z M39.9,125.2
		c-0.2,0-0.3-0.2-0.3-0.5s0.1-0.4,0.3-0.3s0.3,0.3,0.3,0.5C40.2,125.1,40.1,125.2,39.9,125.2z M39.9,118.6c-0.2,0-0.3-0.2-0.3-0.5
		s0.1-0.4,0.3-0.3s0.3,0.3,0.3,0.5C40.2,118.5,40.1,118.6,39.9,118.6z M39.9,112c-0.2,0-0.3-0.2-0.3-0.5s0.1-0.4,0.3-0.3
		c0.2,0.1,0.3,0.3,0.3,0.5S40.1,112,39.9,112z M39.9,105.4c-0.2,0-0.3-0.2-0.3-0.5s0.1-0.4,0.3-0.3c0.2,0.1,0.3,0.3,0.3,0.5
		C40.2,105.3,40.1,105.4,39.9,105.4z M39.9,98.8c-0.2,0-0.3-0.2-0.3-0.5s0.1-0.4,0.3-0.3c0.2,0.1,0.3,0.3,0.3,0.5
		S40.1,98.8,39.9,98.8z M43.2,201c-0.2,0.1-0.3,0-0.3-0.1c0-0.2,0.1-0.3,0.3-0.3s0.3,0.1,0.3,0.1S43.4,200.9,43.2,201z M43.2,194.4
		c-0.2,0.1-0.3,0-0.3-0.1c0-0.2,0.1-0.3,0.3-0.3s0.3,0.1,0.3,0.1S43.4,194.3,43.2,194.4z M43.2,187.8c-0.2,0.1-0.3,0-0.3-0.1
		s0.1-0.3,0.3-0.3s0.3,0.1,0.3,0.1S43.4,187.7,43.2,187.8z M43.2,181.2c-0.2,0.1-0.3,0-0.3-0.1s0.1-0.3,0.3-0.3s0.3,0.1,0.3,0.1
		C43.5,180.9,43.4,181.1,43.2,181.2z M43.2,174.6c-0.2,0.1-0.3,0-0.3-0.1s0.1-0.3,0.3-0.3s0.3,0.1,0.3,0.1
		C43.5,174.3,43.4,174.5,43.2,174.6z M43.2,168.1c-0.2,0-0.3-0.1-0.3-0.3c0-0.2,0.1-0.3,0.3-0.3s0.3,0.1,0.3,0.3
		S43.4,168.1,43.2,168.1z M43.2,161.5c-0.2,0-0.3-0.1-0.3-0.3c0-0.2,0.1-0.3,0.3-0.3s0.3,0.1,0.3,0.3S43.4,161.5,43.2,161.5z
		 M43.2,154.9c-0.2,0-0.3-0.1-0.3-0.3s0.1-0.3,0.3-0.3s0.3,0.1,0.3,0.3S43.4,154.9,43.2,154.9z M43.2,148.3c-0.2,0-0.3-0.1-0.3-0.3
		c0-0.2,0.1-0.3,0.3-0.3s0.3,0.1,0.3,0.3C43.5,148.2,43.4,148.3,43.2,148.3z M43.2,141.7c-0.2,0-0.3-0.1-0.3-0.3
		c0-0.2,0.1-0.3,0.3-0.3s0.3,0.1,0.3,0.3S43.4,141.7,43.2,141.7z M43.2,135.1c-0.2,0-0.3-0.2-0.3-0.5s0.1-0.4,0.3-0.3
		s0.3,0.3,0.3,0.5C43.5,135,43.4,135.1,43.2,135.1z M43.2,128.5c-0.2,0-0.3-0.2-0.3-0.5s0.1-0.4,0.3-0.3s0.3,0.3,0.3,0.5
		S43.4,128.5,43.2,128.5z M43.2,121.9c-0.2,0-0.3-0.2-0.3-0.5s0.1-0.4,0.3-0.3s0.3,0.3,0.3,0.5C43.5,121.8,43.4,121.9,43.2,121.9z
		 M43.2,115.3c-0.2,0-0.3-0.2-0.3-0.5s0.1-0.4,0.3-0.3s0.3,0.3,0.3,0.5S43.4,115.3,43.2,115.3z M43.2,108.7c-0.2,0-0.3-0.2-0.3-0.5
		s0.1-0.4,0.3-0.3c0.2,0.1,0.3,0.3,0.3,0.5S43.4,108.7,43.2,108.7z M43.2,102.1c-0.2,0-0.3-0.2-0.3-0.5s0.1-0.4,0.3-0.3
		c0.2,0.1,0.3,0.3,0.3,0.5S43.4,102.1,43.2,102.1z M43.2,95.5c-0.2,0-0.3-0.2-0.3-0.5s0.1-0.4,0.3-0.3c0.2,0.1,0.3,0.3,0.3,0.5
		S43.4,95.5,43.2,95.5z M46.5,197.8c-0.2,0-0.3-0.1-0.3-0.3c0-0.2,0.1-0.3,0.3-0.3s0.3,0.1,0.3,0.3
		C46.8,197.7,46.7,197.8,46.5,197.8z M46.5,191.2c-0.2,0-0.3-0.1-0.3-0.3c0-0.2,0.1-0.3,0.3-0.3s0.3,0.1,0.3,0.3
		S46.7,191.2,46.5,191.2z M46.5,184.6c-0.2,0-0.3-0.2-0.3-0.5s0.1-0.4,0.3-0.3s0.3,0.3,0.3,0.5C46.8,184.5,46.7,184.6,46.5,184.6z
		 M46.5,178c-0.2,0-0.3-0.1-0.3-0.3c0-0.2,0.1-0.3,0.3-0.3s0.3,0.1,0.3,0.3S46.7,178,46.5,178z M46.5,171.4c-0.2,0-0.3-0.2-0.3-0.5
		s0.1-0.4,0.3-0.3s0.3,0.3,0.3,0.5S46.7,171.4,46.5,171.4z M46.5,164.8c-0.2,0-0.3-0.1-0.3-0.3c0-0.2,0.1-0.3,0.3-0.3
		s0.3,0.1,0.3,0.3C46.8,164.7,46.7,164.8,46.5,164.8z M46.5,158.2c-0.2,0-0.3-0.1-0.3-0.3c0-0.2,0.1-0.3,0.3-0.3s0.3,0.1,0.3,0.3
		S46.7,158.2,46.5,158.2z M46.5,151.6c-0.2,0-0.3-0.2-0.3-0.5s0.1-0.4,0.3-0.3s0.3,0.3,0.3,0.5C46.8,151.5,46.7,151.6,46.5,151.6z
		 M46.5,145c-0.2,0-0.3-0.2-0.3-0.5s0.1-0.4,0.3-0.3s0.3,0.3,0.3,0.5S46.7,145,46.5,145z M46.5,138.4c-0.2,0-0.3-0.2-0.3-0.5
		s0.1-0.4,0.3-0.3s0.3,0.3,0.3,0.5S46.7,138.4,46.5,138.4z M46.5,131.8c-0.2,0-0.3-0.2-0.3-0.5s0.1-0.4,0.3-0.3s0.3,0.3,0.3,0.5
		S46.7,131.8,46.5,131.8z M46.5,125.2c-0.2,0-0.3-0.2-0.3-0.5s0.1-0.4,0.3-0.3s0.3,0.3,0.3,0.5C46.8,125.1,46.7,125.2,46.5,125.2z
		 M46.5,118.6c-0.2,0-0.3-0.2-0.3-0.5s0.1-0.4,0.3-0.3s0.3,0.3,0.3,0.5C46.8,118.5,46.7,118.6,46.5,118.6z M46.5,112
		c-0.2,0-0.3-0.2-0.3-0.5s0.1-0.4,0.3-0.3c0.2,0.1,0.3,0.3,0.3,0.5S46.7,112,46.5,112z M46.5,105.4c-0.2,0-0.3-0.2-0.3-0.5
		s0.1-0.4,0.3-0.3c0.2,0.1,0.3,0.3,0.3,0.5C46.8,105.3,46.7,105.4,46.5,105.4z M46.5,98.8c-0.2,0-0.3-0.2-0.3-0.5s0.1-0.4,0.3-0.3
		c0.2,0.1,0.3,0.3,0.3,0.5S46.7,98.8,46.5,98.8z M46.5,92.2c-0.2,0-0.3-0.2-0.3-0.5s0.1-0.4,0.3-0.3c0.2,0.1,0.3,0.3,0.3,0.5
		S46.7,92.2,46.5,92.2z M49.8,201c-0.2,0.1-0.3,0-0.3-0.1c0-0.2,0.1-0.3,0.3-0.3s0.3,0.1,0.3,0.1S50,200.9,49.8,201z M49.8,194.5
		c-0.2,0-0.3-0.2-0.3-0.5s0.1-0.4,0.3-0.3s0.3,0.3,0.3,0.5C50.1,194.4,50,194.5,49.8,194.5z M49.8,187.9c-0.2,0-0.3-0.1-0.3-0.3
		c0-0.2,0.1-0.3,0.3-0.3s0.3,0.1,0.3,0.3S50,187.9,49.8,187.9z M49.8,181.3c-0.2,0-0.3-0.2-0.3-0.5s0.1-0.4,0.3-0.3s0.3,0.3,0.3,0.5
		S50,181.3,49.8,181.3z M49.8,174.7c-0.2,0-0.3-0.1-0.3-0.3c0-0.2,0.1-0.3,0.3-0.3s0.3,0.1,0.3,0.3S50,174.7,49.8,174.7z
		 M49.8,168.1c-0.2,0-0.3-0.2-0.3-0.5s0.1-0.4,0.3-0.3s0.3,0.3,0.3,0.5C50.1,168,50,168.1,49.8,168.1z M49.8,161.5
		c-0.2,0-0.3-0.2-0.3-0.5s0.1-0.4,0.3-0.3s0.3,0.3,0.3,0.5C50.1,161.4,50,161.5,49.8,161.5z M49.8,154.9c-0.2,0-0.3-0.2-0.3-0.5
		s0.1-0.4,0.3-0.3s0.3,0.3,0.3,0.5S50,154.9,49.8,154.9z M49.8,148.3c-0.2,0-0.3-0.2-0.3-0.5s0.1-0.4,0.3-0.3s0.3,0.3,0.3,0.5
		S50,148.3,49.8,148.3z M49.8,141.7c-0.2,0-0.3-0.2-0.3-0.5s0.1-0.4,0.3-0.3s0.3,0.3,0.3,0.5C50.1,141.6,50,141.7,49.8,141.7z
		 M49.8,135.1c-0.2,0-0.3-0.2-0.3-0.5s0.1-0.4,0.3-0.3s0.3,0.3,0.3,0.5C50.1,135,50,135.1,49.8,135.1z M49.8,128.5
		c-0.2,0-0.3-0.2-0.3-0.5s0.1-0.4,0.3-0.3s0.3,0.3,0.3,0.5S50,128.5,49.8,128.5z M49.8,121.9c-0.2,0-0.3-0.2-0.3-0.5
		s0.1-0.4,0.3-0.3s0.3,0.3,0.3,0.5C50.1,121.8,50,121.9,49.8,121.9z M49.8,115.3c-0.2,0-0.3-0.2-0.3-0.5s0.1-0.5,0.3-0.5
		s0.3,0.2,0.3,0.5C50.1,115.1,50,115.3,49.8,115.3z M49.8,108.7c-0.2,0-0.3-0.2-0.3-0.5s0.1-0.4,0.3-0.3c0.2,0.1,0.3,0.3,0.3,0.5
		S50,108.7,49.8,108.7z M49.8,102.1c-0.2,0-0.3-0.2-0.3-0.5s0.1-0.5,0.3-0.5s0.3,0.2,0.3,0.5C50.1,101.9,50,102.1,49.8,102.1z
		 M49.8,95.5c-0.2,0-0.3-0.2-0.3-0.5s0.1-0.5,0.3-0.5s0.3,0.2,0.3,0.5S50,95.5,49.8,95.5z M49.8,88.9c-0.2,0-0.3-0.2-0.3-0.5
		s0.1-0.5,0.3-0.5s0.3,0.2,0.3,0.5S50,88.9,49.8,88.9z M86.3,71.3c0.7,0.3,0.6,1.4-0.2,1.4c-0.4,0-0.7-0.2-0.7-0.6
		C85.4,71.4,85.7,71.1,86.3,71.3z M86.3,77.9c0.7,0.3,0.6,1.4-0.2,1.4c-0.4,0-0.7-0.2-0.7-0.6C85.4,78,85.7,77.7,86.3,77.9z
		 M86.1,84.7c0.4,0,0.7,0.2,0.7,0.7s-0.2,0.7-0.7,0.7c-0.4,0-0.7-0.2-0.7-0.7S85.7,84.7,86.1,84.7z M86.1,91.3
		c0.4,0,0.7,0.2,0.7,0.7s-0.2,0.7-0.7,0.7c-0.4,0-0.7-0.2-0.7-0.7S85.7,91.3,86.1,91.3z M86.1,97.9c0.4,0,0.7,0.2,0.7,0.7
		s-0.2,0.7-0.7,0.7c-0.4,0-0.7-0.2-0.7-0.7S85.7,97.9,86.1,97.9z M86.1,104.5c0.4,0,0.7,0.2,0.7,0.7s-0.2,0.7-0.7,0.7
		c-0.4,0-0.7-0.2-0.7-0.7S85.7,104.5,86.1,104.5z M86.1,111.1c0.4,0,0.7,0.2,0.7,0.7c0,0.4-0.2,0.7-0.7,0.7c-0.4,0-0.7-0.2-0.7-0.7
		C85.4,111.3,85.7,111.1,86.1,111.1z M86,170.5c0.7,0.1,0.9,0.8,0.5,1.1c-0.5,0.3-1-0.1-1-0.7C85.4,170.6,85.7,170.4,86,170.5z
		 M86,177.1c0.7,0.1,0.9,0.8,0.5,1.1c-0.5,0.3-1-0.1-1-0.7C85.4,177.2,85.7,177.1,86,177.1z M82.8,68.2c0.4,0,0.7,0.2,0.7,0.7
		s-0.2,0.7-0.7,0.7c-0.4,0-0.7-0.2-0.7-0.7S82.4,68.2,82.8,68.2z M82.8,88c0.4,0,0.7,0.2,0.7,0.7s-0.2,0.7-0.7,0.7
		c-0.4,0-0.7-0.2-0.7-0.7S82.4,88,82.8,88z M82.1,82c0-0.4,0.2-0.7,0.7-0.7c0.4,0,0.7,0.2,0.7,0.7s-0.2,0.7-0.7,0.7
		C82.4,82.7,82.1,82.5,82.1,82z M82.8,94.6c0.7,0,0.9,0.8,0.3,1.2c-0.4,0.3-1-0.1-1-0.7C82.1,94.8,82.4,94.6,82.8,94.6z M82.7,134.2
		c0.7,0.1,0.9,0.8,0.5,1.1c-0.5,0.3-1-0.1-1-0.7C82.1,134.3,82.4,134.1,82.7,134.2z M82.1,128c0-0.3,0.2-0.5,0.6-0.4
		c0.7,0.1,0.9,0.8,0.5,1.1C82.7,129,82.1,128.6,82.1,128z M82.7,140.8c0.7,0.1,0.9,0.8,0.5,1.1c-0.5,0.3-1-0.1-1-0.7
		C82.1,140.9,82.4,140.7,82.7,140.8z M79.5,71.5c0.7,0,0.9,0.8,0.3,1.2c-0.4,0.3-1-0.1-1-0.7C78.8,71.7,79.1,71.5,79.5,71.5z
		 M79.5,78.1c0.7,0,0.9,0.8,0.3,1.2c-0.4,0.3-1-0.1-1-0.7C78.8,78.3,79.1,78.1,79.5,78.1z M79.5,84.7c0.7,0,0.9,0.8,0.3,1.2
		c-0.4,0.3-1-0.1-1-0.7C78.8,84.9,79.1,84.7,79.5,84.7z M79.5,91.3c0.7,0,0.9,0.8,0.3,1.2c-0.4,0.3-1-0.1-1-0.7
		C78.8,91.5,79.1,91.3,79.5,91.3z M79.8,99c-0.5,0.3-1-0.1-1-0.7c0-0.3,0.2-0.5,0.5-0.4C80.1,98,80.3,98.7,79.8,99z M79.5,104.5
		c0.7,0,0.9,0.8,0.3,1.2c-0.4,0.3-1-0.1-1-0.7C78.8,104.7,79.1,104.5,79.5,104.5z M79.8,138.6c-0.6,0.3-1.2-0.4-0.7-0.9
		c0.4-0.4,1.1-0.1,1.1,0.4C80.2,138.3,80,138.5,79.8,138.6z M80.2,144.7c0,0.2-0.2,0.4-0.4,0.5c-0.6,0.3-1.2-0.4-0.7-0.9
		C79.5,144,80.2,144.2,80.2,144.7z M79.8,132c-0.6,0.3-1.2-0.4-0.7-0.9c0.4-0.4,1.1-0.1,1.1,0.4C80.2,131.7,80,131.9,79.8,132z
		 M79.8,125.4c-0.6,0.3-1.2-0.4-0.7-0.9c0.4-0.4,1.1-0.1,1.1,0.4C80.2,125.1,80,125.3,79.8,125.4z M79.4,111.1
		c0.7,0.1,0.9,0.8,0.5,1.1c-0.5,0.3-1-0.1-1-0.7C78.8,111.2,79.1,111,79.4,111.1z M79.4,117.7c0.7,0.1,0.9,0.8,0.5,1.1
		c-0.5,0.3-1-0.1-1-0.7C78.8,117.8,79.1,117.6,79.4,117.7z M79.1,151c0.2-0.2,0.5-0.3,0.7-0.2c0.4,0.3,0.5,0.7,0.1,1
		c-0.1,0.1-0.5,0-0.7-0.1l-0.5-0.3L79.1,151z M79.1,157.6c0.2-0.2,0.5-0.3,0.7-0.2c0.4,0.3,0.5,0.7,0.1,1c-0.1,0.1-0.5,0-0.7-0.1
		l-0.5-0.3L79.1,157.6z M76.5,108.9c-0.6,0.3-1.2-0.4-0.7-0.9c0.4-0.4,1.1-0.1,1.1,0.4C76.9,108.6,76.7,108.8,76.5,108.9z M76.9,115
		c0,0.2-0.2,0.4-0.4,0.5c-0.6,0.3-1.2-0.4-0.7-0.9C76.2,114.3,76.9,114.5,76.9,115z M76.5,102.3c-0.6,0.3-1.2-0.4-0.7-0.9
		c0.4-0.4,1.1-0.1,1.1,0.4C76.9,102,76.7,102.2,76.5,102.3z M76.5,95.7c-0.6,0.3-1.2-0.4-0.7-0.9c0.4-0.4,1.1-0.1,1.1,0.4
		C76.9,95.4,76.7,95.6,76.5,95.7z M76.1,68.2c0.7,0.1,0.9,0.8,0.5,1.1c-0.5,0.3-1-0.1-1-0.7C75.5,68.3,75.8,68.1,76.1,68.2z
		 M76.1,74.8c0.7,0.1,0.9,0.8,0.5,1.1c-0.5,0.3-1-0.1-1-0.7C75.5,74.9,75.8,74.7,76.1,74.8z M76.1,81.4c0.7,0.1,0.9,0.8,0.5,1.1
		c-0.5,0.3-1-0.1-1-0.7C75.5,81.5,75.8,81.3,76.1,81.4z M76.1,88c0.7,0.1,0.9,0.8,0.5,1.1c-0.5,0.3-1-0.1-1-0.7
		C75.5,88.1,75.8,87.9,76.1,88z M75.8,121.3c0.2-0.2,0.5-0.3,0.7-0.2c0.4,0.3,0.5,0.7,0.1,1c-0.1,0.1-0.5,0-0.7-0.1l-0.5-0.3
		L75.8,121.3z M75.8,127.9c0.2-0.2,0.5-0.3,0.7-0.2c0.4,0.3,0.5,0.7,0.1,1c-0.1,0.1-0.5,0-0.7-0.1l-0.5-0.3L75.8,127.9z M75.8,134.5
		c0.2-0.2,0.5-0.3,0.7-0.2c0.4,0.3,0.5,0.7,0.1,1c-0.1,0.1-0.5,0-0.7-0.1l-0.5-0.3L75.8,134.5z M72.5,71.7c0.4-0.4,1.1-0.1,1.1,0.4
		c0,0.2-0.2,0.4-0.4,0.5C72.6,73,72,72.2,72.5,71.7z M72.5,78.3c0.4-0.4,1.1-0.1,1.1,0.4c0,0.2-0.2,0.4-0.4,0.5
		C72.6,79.6,72,78.8,72.5,78.3z M72.5,84.9c0.4-0.4,1.1-0.1,1.1,0.4c0,0.2-0.2,0.4-0.4,0.5C72.6,86.2,72,85.4,72.5,84.9z M72.5,91.6
		c0.2-0.2,0.5-0.3,0.7-0.2c0.4,0.3,0.5,0.7,0.1,1c-0.1,0.1-0.5,0-0.7-0.1L72.1,92L72.5,91.6z M72.5,98.2c0.2-0.2,0.5-0.3,0.7-0.2
		c0.4,0.3,0.5,0.7,0.1,1c-0.1,0.1-0.5,0-0.7-0.1l-0.5-0.3L72.5,98.2z M72.5,104.8c0.2-0.2,0.5-0.3,0.7-0.2c0.4,0.3,0.5,0.7,0.1,1
		c-0.1,0.1-0.5,0-0.7-0.1l-0.5-0.3L72.5,104.8z M69.2,75.1c0.2-0.2,0.5-0.3,0.7-0.2c0.4,0.3,0.5,0.7,0.1,1c-0.1,0.1-0.5,0-0.7-0.1
		l-0.5-0.3L69.2,75.1z M69.2,81.7c0.2-0.2,0.5-0.3,0.7-0.2c0.4,0.3,0.5,0.7,0.1,1c-0.1,0.1-0.5,0-0.7-0.1l-0.5-0.3L69.2,81.7z
		 M65.7,72c0.1-0.2,0.3-0.4,0.6-0.4c0.2,0,0.5,0.2,0.6,0.4s-0.2,0.4-0.6,0.4S65.6,72.3,65.7,72z M65.7,78.6c0.1-0.2,0.3-0.4,0.6-0.4
		c0.2,0,0.5,0.2,0.6,0.4S66.7,79,66.3,79S65.6,78.9,65.7,78.6z M65.7,85.2c0.1-0.2,0.3-0.4,0.6-0.4c0.2,0,0.5,0.2,0.6,0.4
		s-0.2,0.4-0.6,0.4C65.9,85.6,65.6,85.5,65.7,85.2z M53.1,197.8c-0.2,0-0.3-0.1-0.3-0.3c0-0.2,0.1-0.3,0.3-0.3s0.3,0.1,0.3,0.3
		C53.4,197.7,53.3,197.8,53.1,197.8z M53.1,191.2c-0.2,0-0.3-0.1-0.3-0.3c0-0.2,0.1-0.3,0.3-0.3s0.3,0.1,0.3,0.3
		C53.4,191.1,53.3,191.2,53.1,191.2z M53.1,184.6c-0.2,0-0.3-0.2-0.3-0.5s0.1-0.4,0.3-0.3s0.3,0.3,0.3,0.5
		C53.4,184.5,53.3,184.6,53.1,184.6z M53.1,178c-0.2,0-0.3-0.2-0.3-0.5s0.1-0.4,0.3-0.3s0.3,0.3,0.3,0.5
		C53.4,177.9,53.3,178,53.1,178z M53.1,171.4c-0.2,0-0.3-0.2-0.3-0.5s0.1-0.4,0.3-0.3s0.3,0.3,0.3,0.5S53.3,171.4,53.1,171.4z
		 M53.1,164.8c-0.2,0-0.3-0.2-0.3-0.5s0.1-0.4,0.3-0.3s0.3,0.3,0.3,0.5S53.3,164.8,53.1,164.8z M53.1,158.2c-0.2,0-0.3-0.2-0.3-0.5
		s0.1-0.4,0.3-0.3s0.3,0.3,0.3,0.5C53.4,158.1,53.3,158.2,53.1,158.2z M53.1,151.6c-0.2,0-0.3-0.2-0.3-0.5s0.1-0.5,0.3-0.5
		s0.3,0.2,0.3,0.5S53.3,151.6,53.1,151.6z M53.1,145c-0.2,0-0.3-0.2-0.3-0.5s0.1-0.4,0.3-0.3s0.3,0.3,0.3,0.5S53.3,145,53.1,145z
		 M53.1,138.4c-0.2,0-0.3-0.2-0.3-0.5s0.1-0.4,0.3-0.3s0.3,0.3,0.3,0.5S53.3,138.4,53.1,138.4z M53.1,131.8c-0.2,0-0.3-0.2-0.3-0.5
		s0.1-0.4,0.3-0.3s0.3,0.3,0.3,0.5C53.4,131.7,53.3,131.8,53.1,131.8z M53.1,125.2c-0.2,0-0.3-0.2-0.3-0.5s0.1-0.5,0.3-0.5
		s0.3,0.2,0.3,0.5S53.3,125.2,53.1,125.2z M53.1,118.6c-0.2,0-0.3-0.2-0.3-0.5s0.1-0.5,0.3-0.5s0.3,0.2,0.3,0.5
		C53.4,118.4,53.3,118.6,53.1,118.6z M53.1,112c-0.2,0-0.3-0.2-0.3-0.5s0.1-0.5,0.3-0.5s0.3,0.2,0.3,0.5
		C53.4,111.8,53.3,112,53.1,112z M53.1,105.4c-0.2,0-0.3-0.2-0.3-0.5s0.1-0.5,0.3-0.5s0.3,0.2,0.3,0.5
		C53.4,105.2,53.3,105.4,53.1,105.4z M53.1,98.8c-0.2,0-0.3-0.2-0.3-0.5s0.1-0.5,0.3-0.5s0.3,0.2,0.3,0.5
		C53.4,98.6,53.3,98.8,53.1,98.8z M53.1,92.2c-0.5-0.2-0.5-0.7-0.1-0.9c0.2-0.1,0.4,0.1,0.4,0.4C53.4,92,53.3,92.2,53.1,92.2z
		 M53.1,85.6c-0.5-0.2-0.5-0.7-0.1-0.9c0.2-0.1,0.4,0.1,0.4,0.4S53.3,85.6,53.1,85.6z M56.4,201.1c-0.2,0-0.3-0.2-0.3-0.5
		s0.1-0.4,0.3-0.3s0.3,0.3,0.3,0.5C56.7,201,56.6,201.1,56.4,201.1z M56.4,194.5c-0.2,0-0.3-0.2-0.3-0.5s0.1-0.4,0.3-0.3
		s0.3,0.3,0.3,0.5C56.7,194.4,56.6,194.5,56.4,194.5z M56.4,187.9c-0.2,0-0.3-0.2-0.3-0.5s0.1-0.4,0.3-0.3s0.3,0.3,0.3,0.5
		S56.6,187.9,56.4,187.9z M56.4,181.3c-0.2,0-0.3-0.2-0.3-0.5s0.1-0.4,0.3-0.3s0.3,0.3,0.3,0.5S56.6,181.3,56.4,181.3z M56.4,174.7
		c-0.2,0-0.3-0.2-0.3-0.5s0.1-0.4,0.3-0.3s0.3,0.3,0.3,0.5C56.7,174.6,56.6,174.7,56.4,174.7z M56.4,168.1c-0.2,0-0.3-0.2-0.3-0.5
		s0.1-0.4,0.3-0.3s0.3,0.3,0.3,0.5C56.7,168,56.6,168.1,56.4,168.1z M56.4,161.5c-0.2,0-0.3-0.2-0.3-0.5s0.1-0.4,0.3-0.3
		s0.3,0.3,0.3,0.5C56.7,161.4,56.6,161.5,56.4,161.5z M56.4,154.9c-0.2,0-0.3-0.2-0.3-0.5s0.1-0.4,0.3-0.3s0.3,0.3,0.3,0.5
		C56.7,154.8,56.6,154.9,56.4,154.9z M56.4,148.3c-0.2,0-0.3-0.2-0.3-0.5s0.1-0.4,0.3-0.3s0.3,0.3,0.3,0.5S56.6,148.3,56.4,148.3z
		 M56.4,141.7c-0.2,0-0.3-0.2-0.3-0.5s0.1-0.5,0.3-0.5s0.3,0.2,0.3,0.5S56.6,141.7,56.4,141.7z M56.4,135.1c-0.2,0-0.3-0.2-0.3-0.5
		s0.1-0.5,0.3-0.5s0.3,0.2,0.3,0.5S56.6,135.1,56.4,135.1z M56.4,128.5c-0.2,0-0.3-0.2-0.3-0.5s0.1-0.5,0.3-0.5s0.3,0.2,0.3,0.5
		S56.6,128.5,56.4,128.5z M56.4,121.9c-0.2,0-0.3-0.2-0.3-0.5s0.1-0.5,0.3-0.5s0.3,0.2,0.3,0.5C56.7,121.7,56.6,121.9,56.4,121.9z
		 M56.4,115.3c-0.2,0-0.3-0.2-0.3-0.5s0.1-0.5,0.3-0.5s0.3,0.2,0.3,0.5C56.7,115.1,56.6,115.3,56.4,115.3z M56.4,108.7
		c-0.5-0.2-0.5-0.7-0.1-0.9c0.2-0.1,0.4,0.1,0.4,0.4C56.7,108.5,56.6,108.7,56.4,108.7z M56.4,102.1c-0.5-0.2-0.5-0.7-0.1-0.9
		c0.2-0.1,0.4,0.1,0.4,0.4C56.7,101.9,56.6,102.1,56.4,102.1z M56.4,95.5c-0.5-0.2-0.5-0.7-0.1-0.9c0.2-0.1,0.4,0.1,0.4,0.4
		C56.7,95.3,56.6,95.5,56.4,95.5z M56.8,88.8c-0.6,0.3-1.2-0.1-0.7-0.6c0.3-0.3,0.5-0.3,0.7,0C57,88.4,57,88.6,56.8,88.8z
		 M56.8,82.2c-0.6,0.3-1.2-0.1-0.7-0.6c0.3-0.3,0.5-0.3,0.7,0C57,81.8,57,82,56.8,82.2z M59.7,197.8c-0.2,0-0.3-0.2-0.3-0.5
		s0.1-0.4,0.3-0.3s0.3,0.3,0.3,0.5S59.9,197.8,59.7,197.8z M59.7,191.2c-0.2,0-0.3-0.2-0.3-0.5s0.1-0.4,0.3-0.3s0.3,0.3,0.3,0.5
		C60,191.1,59.9,191.2,59.7,191.2z M59.7,184.6c-0.2,0-0.3-0.2-0.3-0.5s0.1-0.4,0.3-0.3s0.3,0.3,0.3,0.5
		C60,184.5,59.9,184.6,59.7,184.6z M59.7,178c-0.2,0-0.3-0.2-0.3-0.5s0.1-0.4,0.3-0.3s0.3,0.3,0.3,0.5C60,177.9,59.9,178,59.7,178z
		 M59.7,171.4c-0.2,0-0.3-0.2-0.3-0.5s0.1-0.4,0.3-0.3s0.3,0.3,0.3,0.5S59.9,171.4,59.7,171.4z M59.7,164.8c-0.2,0-0.3-0.2-0.3-0.5
		s0.1-0.5,0.3-0.5s0.3,0.2,0.3,0.5C60,164.6,59.9,164.8,59.7,164.8z M59.7,158.2c-0.2,0-0.3-0.2-0.3-0.5s0.1-0.5,0.3-0.5
		s0.3,0.2,0.3,0.5S59.9,158.2,59.7,158.2z M59.7,151.6c-0.2,0-0.3-0.2-0.3-0.5s0.1-0.5,0.3-0.5s0.3,0.2,0.3,0.5
		S59.9,151.6,59.7,151.6z M59.7,145c-0.2,0-0.3-0.2-0.3-0.5s0.1-0.5,0.3-0.5s0.3,0.2,0.3,0.5S59.9,145,59.7,145z M59.7,138.4
		c-0.2,0-0.3-0.2-0.3-0.5s0.1-0.5,0.3-0.5s0.3,0.2,0.3,0.5C60,138.2,59.9,138.4,59.7,138.4z M59.7,131.8c-0.5-0.2-0.5-0.7-0.1-0.9
		c0.2-0.1,0.4,0.1,0.4,0.4S59.9,131.8,59.7,131.8z M59.7,125.2c-0.5-0.2-0.5-0.7-0.1-0.9c0.2-0.1,0.4,0.1,0.4,0.4
		S59.9,125.2,59.7,125.2z M59.7,118.6c-0.5-0.2-0.5-0.7-0.1-0.9c0.2-0.1,0.4,0.1,0.4,0.4C60,118.4,59.9,118.6,59.7,118.6z
		 M60.1,111.9c-0.6,0.3-1.2-0.1-0.7-0.6c0.3-0.3,0.5-0.3,0.7,0C60.3,111.5,60.3,111.7,60.1,111.9z M60.1,105.3
		c-0.6,0.3-1.2-0.1-0.7-0.6c0.3-0.3,0.5-0.3,0.7,0C60.3,104.9,60.3,105.1,60.1,105.3z M60.1,98.7c-0.6,0.3-1.2-0.1-0.7-0.6
		c0.3-0.3,0.5-0.3,0.7,0C60.3,98.3,60.3,98.5,60.1,98.7z M60.1,92.1c-0.6,0.3-1.2-0.1-0.7-0.6c0.3-0.3,0.5-0.3,0.7,0
		C60.3,91.7,60.3,91.9,60.1,92.1z M60.1,85.5c-0.6,0.3-1.2-0.1-0.7-0.6c0.3-0.3,0.5-0.3,0.7,0C60.3,85.1,60.3,85.3,60.1,85.5z
		 M59.9,78.9c-0.7,0.3-1.1-0.1-0.6-0.6l0.4-0.4l0.4,0.4l0.4,0.4L59.9,78.9z M63,201.1c-0.2,0-0.3-0.2-0.3-0.5s0.1-0.4,0.3-0.3
		s0.3,0.3,0.3,0.5C63.3,201,63.2,201.1,63,201.1z M63,194.5c-0.2,0-0.3-0.2-0.3-0.5s0.1-0.4,0.3-0.3s0.3,0.3,0.3,0.5
		C63.3,194.4,63.2,194.5,63,194.5z M63,187.9c-0.2,0-0.3-0.2-0.3-0.5s0.1-0.4,0.3-0.3s0.3,0.3,0.3,0.5S63.2,187.9,63,187.9z
		 M63,181.3c-0.2,0-0.3-0.2-0.3-0.5s0.1-0.5,0.3-0.5s0.3,0.2,0.3,0.5C63.3,181.1,63.2,181.3,63,181.3z M63,174.7
		c-0.2,0-0.3-0.2-0.3-0.5s0.1-0.5,0.3-0.5s0.3,0.2,0.3,0.5S63.2,174.7,63,174.7z M63,168.1c-0.2,0-0.3-0.2-0.3-0.5s0.1-0.5,0.3-0.5
		s0.3,0.2,0.3,0.5S63.2,168.1,63,168.1z M63,161.5c-0.2,0-0.3-0.2-0.3-0.5s0.1-0.5,0.3-0.5s0.3,0.2,0.3,0.5S63.2,161.5,63,161.5z
		 M63,154.9c-0.5-0.2-0.5-0.7-0.1-0.9c0.2-0.1,0.4,0.1,0.4,0.4C63.3,154.8,63.2,154.9,63,154.9z M63,148.3c-0.5-0.2-0.5-0.7-0.1-0.9
		c0.2-0.1,0.4,0.1,0.4,0.4S63.2,148.3,63,148.3z M63,141.7c-0.5-0.2-0.5-0.7-0.1-0.9c0.2-0.1,0.4,0.1,0.4,0.4S63.2,141.7,63,141.7z
		 M63.4,135c-0.6,0.3-1.2-0.1-0.7-0.6c0.3-0.3,0.5-0.3,0.7,0C63.6,134.6,63.6,134.8,63.4,135z M63.4,128.4c-0.6,0.3-1.2-0.1-0.7-0.6
		c0.3-0.3,0.5-0.3,0.7,0C63.6,128,63.6,128.2,63.4,128.4z M63.4,121.8c-0.6,0.3-1.2-0.1-0.7-0.6c0.3-0.3,0.5-0.3,0.7,0
		C63.6,121.4,63.6,121.6,63.4,121.8z M63.4,115.2c-0.6,0.3-1.2-0.1-0.7-0.6c0.3-0.3,0.5-0.3,0.7,0C63.6,114.8,63.6,115,63.4,115.2z
		 M63.4,108.6c-0.6,0.3-1.2-0.1-0.7-0.6c0.3-0.3,0.5-0.3,0.7,0C63.6,108.2,63.6,108.4,63.4,108.6z M63.4,102
		c-0.6,0.3-1.2-0.1-0.7-0.6c0.3-0.3,0.5-0.3,0.7,0C63.6,101.6,63.6,101.8,63.4,102z M63.2,95.4c-0.7,0.3-1.1-0.1-0.6-0.6l0.4-0.4
		l0.4,0.4l0.4,0.4L63.2,95.4z M63.2,88.8c-0.7,0.3-1.1-0.1-0.6-0.6l0.4-0.4l0.4,0.4l0.4,0.4L63.2,88.8z M63.2,82.2
		c-0.7,0.3-1.1-0.1-0.6-0.6l0.4-0.4l0.4,0.4l0.4,0.4L63.2,82.2z M63.2,75.6c-0.7,0.3-1.1-0.1-0.6-0.6l0.4-0.4l0.4,0.4l0.4,0.4
		L63.2,75.6z M66.2,170.5c0.2-0.1,0.4,0.1,0.4,0.4s-0.1,0.5-0.3,0.4C65.8,171.2,65.7,170.7,66.2,170.5z M66.2,163.9
		c0.2-0.1,0.4,0.1,0.4,0.4s-0.1,0.5-0.3,0.4C65.8,164.6,65.7,164.1,66.2,163.9z M66.6,177.5c0,0.3-0.1,0.5-0.3,0.5s-0.3-0.2-0.3-0.5
		s0.1-0.5,0.3-0.5C66.5,177.1,66.6,177.3,66.6,177.5z M66.3,197.8c-0.2,0-0.3-0.2-0.3-0.5s0.1-0.5,0.3-0.5s0.3,0.2,0.3,0.5
		C66.6,197.6,66.5,197.8,66.3,197.8z M66.3,191.2c-0.2,0-0.3-0.2-0.3-0.5s0.1-0.5,0.3-0.5s0.3,0.2,0.3,0.5S66.5,191.2,66.3,191.2z
		 M66.7,184.4c-0.4,0.4-0.8,0.2-0.8-0.3c0-0.3,0.1-0.5,0.3-0.5C66.7,183.7,67,184.2,66.7,184.4z M66.7,158.1
		c-0.6,0.3-1.2-0.1-0.7-0.6c0.3-0.3,0.5-0.3,0.7,0C66.9,157.7,66.9,157.9,66.7,158.1z M66.7,151.5c-0.6,0.3-1.2-0.1-0.7-0.6
		c0.3-0.3,0.5-0.3,0.7,0C66.9,151.1,66.9,151.3,66.7,151.5z M66.7,144.9c-0.6,0.3-1.2-0.1-0.7-0.6c0.3-0.3,0.5-0.3,0.7,0
		C66.9,144.5,66.9,144.7,66.7,144.9z M66.7,138.3c-0.6,0.3-1.2-0.1-0.7-0.6c0.3-0.3,0.5-0.3,0.7,0C66.9,137.9,66.9,138.1,66.7,138.3
		z M66.7,131.7c-0.6,0.3-1.2-0.1-0.7-0.6c0.3-0.3,0.5-0.3,0.7,0C66.9,131.3,66.9,131.5,66.7,131.7z M66.7,125.1
		c-0.6,0.3-1.2-0.1-0.7-0.6c0.3-0.3,0.5-0.3,0.7,0C66.9,124.7,66.9,124.9,66.7,125.1z M66.5,118.5c-0.7,0.3-1.1-0.1-0.6-0.6l0.4-0.4
		l0.4,0.4l0.4,0.4L66.5,118.5z M65.7,111.6c0.1-0.2,0.3-0.4,0.6-0.4c0.2,0,0.5,0.2,0.6,0.4s-0.2,0.4-0.6,0.4S65.6,111.9,65.7,111.6z
		 M66.5,105.3c-0.7,0.3-1.1-0.1-0.6-0.6l0.4-0.4l0.4,0.4l0.4,0.4L66.5,105.3z M65.7,98.4c0.1-0.2,0.3-0.4,0.6-0.4
		c0.2,0,0.5,0.2,0.6,0.4s-0.2,0.4-0.6,0.4C65.9,98.8,65.6,98.7,65.7,98.4z M66.5,92.1c-0.7,0.3-1.1-0.1-0.6-0.6l0.4-0.4l0.4,0.4
		l0.4,0.4L66.5,92.1z M69.2,88.3c0.2-0.2,0.5-0.3,0.7-0.2c0.4,0.3,0.5,0.7,0.1,1c-0.1,0.1-0.5,0-0.7-0.1l-0.5-0.3L69.2,88.3z
		 M69.6,108.7c-0.4,0-0.7-0.2-0.6-0.4c0.1-0.2,0.3-0.4,0.6-0.4c0.2,0,0.5,0.2,0.6,0.4C70.3,108.6,70,108.7,69.6,108.7z M69.6,115.3
		c-0.4,0-0.7-0.2-0.6-0.4c0.1-0.2,0.3-0.4,0.6-0.4c0.2,0,0.5,0.2,0.6,0.4C70.3,115.2,70,115.3,69.6,115.3z M69.6,102.1
		c-0.4,0-0.7-0.2-0.6-0.4c0.1-0.2,0.3-0.4,0.6-0.4c0.2,0,0.5,0.2,0.6,0.4C70.3,102,70,102.1,69.6,102.1z M69.6,95.5
		c-0.4,0-0.7-0.2-0.6-0.4c0.1-0.2,0.3-0.4,0.6-0.4c0.2,0,0.5,0.2,0.6,0.4C70.3,95.4,70,95.5,69.6,95.5z M69.6,201.1
		c-0.2,0-0.3-0.2-0.3-0.5s0.1-0.5,0.3-0.5s0.3,0.2,0.3,0.5C69.9,200.9,69.8,201.1,69.6,201.1z M69.6,194.5c-0.5-0.2-0.5-0.7-0.1-0.9
		c0.2-0.1,0.4,0.1,0.4,0.4C69.9,194.4,69.8,194.5,69.6,194.5z M69.6,187.9c-0.5-0.2-0.5-0.7-0.1-0.9c0.2-0.1,0.4,0.1,0.4,0.4
		C69.9,187.8,69.8,187.9,69.6,187.9z M70,181.2c-0.6,0.3-1.2-0.1-0.7-0.6c0.3-0.3,0.5-0.3,0.7,0C70.2,180.8,70.2,181,70,181.2z
		 M70,174.6c-0.6,0.3-1.2-0.1-0.7-0.6c0.3-0.3,0.5-0.3,0.7,0C70.2,174.2,70.2,174.4,70,174.6z M70,168c-0.6,0.3-1.2-0.1-0.7-0.6
		c0.3-0.3,0.5-0.3,0.7,0C70.2,167.6,70.2,167.8,70,168z M70,161.4c-0.6,0.3-1.2-0.1-0.7-0.6c0.3-0.3,0.5-0.3,0.7,0
		C70.2,161,70.2,161.2,70,161.4z M70,154.8c-0.6,0.3-1.2-0.1-0.7-0.6c0.3-0.3,0.5-0.3,0.7,0C70.2,154.4,70.2,154.6,70,154.8z
		 M70,148.2c-0.6,0.3-1.2-0.1-0.7-0.6c0.3-0.3,0.5-0.3,0.7,0C70.2,147.8,70.2,148,70,148.2z M69.8,141.6c-0.7,0.3-1.1-0.1-0.6-0.6
		l0.4-0.4L70,141l0.4,0.4L69.8,141.6z M69.8,135c-0.7,0.3-1.1-0.1-0.6-0.6l0.4-0.4l0.4,0.4l0.4,0.4L69.8,135z M69.8,128.4
		c-0.7,0.3-1.1-0.1-0.6-0.6l0.4-0.4l0.4,0.4l0.4,0.4L69.8,128.4z M69.8,121.8c-0.7,0.3-1.1-0.1-0.6-0.6l0.4-0.4l0.4,0.4l0.4,0.4
		L69.8,121.8z M72.5,111.4c0.2-0.2,0.5-0.3,0.7-0.2c0.4,0.3,0.5,0.7,0.1,1c-0.1,0.1-0.5,0-0.7-0.1l-0.5-0.3L72.5,111.4z M72.9,125.2
		c-0.4,0-0.7-0.2-0.6-0.4c0.1-0.2,0.3-0.4,0.6-0.4c0.2,0,0.5,0.2,0.6,0.4C73.6,125.1,73.3,125.2,72.9,125.2z M72.9,131.8
		c-0.4,0-0.7-0.2-0.6-0.4c0.1-0.2,0.3-0.4,0.6-0.4c0.2,0,0.5,0.2,0.6,0.4C73.6,131.7,73.3,131.8,72.9,131.8z M72.9,118.6
		c-0.4,0-0.7-0.2-0.6-0.4c0.1-0.2,0.3-0.4,0.6-0.4c0.2,0,0.5,0.2,0.6,0.4C73.6,118.5,73.3,118.6,72.9,118.6z M73.3,197.7
		c-0.6,0.3-1.2-0.1-0.7-0.6c0.3-0.3,0.5-0.3,0.7,0C73.5,197.3,73.5,197.5,73.3,197.7z M73.3,191.1c-0.6,0.3-1.2-0.1-0.7-0.6
		c0.3-0.3,0.5-0.3,0.7,0C73.5,190.7,73.5,190.9,73.3,191.1z M73.3,184.5c-0.6,0.3-1.2-0.1-0.7-0.6c0.3-0.3,0.5-0.3,0.7,0
		C73.5,184.1,73.5,184.3,73.3,184.5z M73.3,177.9c-0.6,0.3-1.2-0.1-0.7-0.6c0.3-0.3,0.5-0.3,0.7,0C73.5,177.5,73.5,177.7,73.3,177.9
		z M73.3,171.3c-0.6,0.3-1.2-0.1-0.7-0.6c0.3-0.3,0.5-0.3,0.7,0C73.5,170.9,73.5,171.1,73.3,171.3z M72.9,164.8
		c-0.4,0-0.7-0.2-0.6-0.4c0.1-0.2,0.3-0.4,0.6-0.4c0.2,0,0.5,0.2,0.6,0.4C73.6,164.7,73.3,164.8,72.9,164.8z M73.1,158.1
		c-0.7,0.3-1.1-0.1-0.6-0.6l0.4-0.4l0.4,0.4l0.4,0.4L73.1,158.1z M73.1,151.5c-0.7,0.3-1.1-0.1-0.6-0.6l0.4-0.4l0.4,0.4l0.4,0.4
		L73.1,151.5z M73.1,144.9c-0.7,0.3-1.1-0.1-0.6-0.6l0.4-0.4l0.4,0.4l0.4,0.4L73.1,144.9z M73.1,138.3c-0.7,0.3-1.1-0.1-0.6-0.6
		l0.4-0.4l0.4,0.4l0.4,0.4L73.1,138.3z M75.8,141.1c0.2-0.2,0.5-0.3,0.7-0.2c0.4,0.3,0.5,0.7,0.1,1c-0.1,0.1-0.5,0-0.7-0.1l-0.5-0.3
		L75.8,141.1z M76.2,148.3c-0.4,0-0.7-0.2-0.6-0.4c0.1-0.2,0.3-0.4,0.6-0.4c0.2,0,0.5,0.2,0.6,0.4C76.9,148.2,76.6,148.3,76.2,148.3
		z M76.2,154.9c-0.4,0-0.7-0.2-0.6-0.4c0.1-0.2,0.3-0.4,0.6-0.4c0.2,0,0.5,0.2,0.6,0.4C76.9,154.8,76.6,154.9,76.2,154.9z M76.6,201
		c-0.6,0.3-1.2-0.1-0.7-0.6c0.3-0.3,0.5-0.3,0.7,0C76.8,200.6,76.8,200.8,76.6,201z M76.4,194.4c-0.7,0.3-1.1-0.1-0.6-0.6l0.4-0.4
		l0.4,0.4l0.4,0.4L76.4,194.4z M76.4,187.8c-0.7,0.3-1.1-0.1-0.6-0.6l0.4-0.4l0.4,0.4l0.4,0.4L76.4,187.8z M75.6,180.9
		c0.1-0.2,0.3-0.4,0.6-0.4c0.2,0,0.5,0.2,0.6,0.4c0.1,0.2-0.2,0.4-0.6,0.4S75.5,181.2,75.6,180.9z M76.4,174.6
		c-0.7,0.3-1.1-0.1-0.6-0.6l0.4-0.4l0.4,0.4l0.4,0.4L76.4,174.6z M76.4,168c-0.7,0.3-1.1-0.1-0.6-0.6l0.4-0.4l0.4,0.4l0.4,0.4
		L76.4,168z M76.4,161.4c-0.7,0.3-1.1-0.1-0.6-0.6l0.4-0.4l0.4,0.4l0.4,0.4L76.4,161.4z M79.1,164.2c0.2-0.2,0.5-0.3,0.7-0.2
		c0.4,0.3,0.5,0.7,0.1,1c-0.1,0.1-0.5,0-0.7-0.1l-0.5-0.3L79.1,164.2z M79.5,184.6c-0.4,0-0.7-0.2-0.6-0.4c0.1-0.2,0.3-0.4,0.6-0.4
		c0.2,0,0.5,0.2,0.6,0.4C80.2,184.5,79.9,184.6,79.5,184.6z M79.5,191.2c-0.4,0-0.7-0.2-0.6-0.4c0.1-0.2,0.3-0.4,0.6-0.4
		c0.2,0,0.5,0.2,0.6,0.4C80.2,191.1,79.9,191.2,79.5,191.2z M79.5,178c-0.4,0-0.7-0.2-0.6-0.4c0.1-0.2,0.3-0.4,0.6-0.4
		c0.2,0,0.5,0.2,0.6,0.4C80.2,177.9,79.9,178,79.5,178z M79.5,171.4c-0.4,0-0.7-0.2-0.6-0.4c0.1-0.2,0.3-0.4,0.6-0.4
		c0.2,0,0.5,0.2,0.6,0.4C80.2,171.3,79.9,171.4,79.5,171.4z M79.7,197.7c-0.7,0.3-1.1-0.1-0.6-0.6l0.4-0.4l0.4,0.4l0.4,0.4
		L79.7,197.7z M82.8,201.1c-0.4,0-0.7-0.2-0.6-0.4c0.1-0.2,0.3-0.4,0.6-0.4c0.2,0,0.5,0.2,0.6,0.4C83.5,201,83.2,201.1,82.8,201.1z
		 M83.2,194.7c-0.1,0.1-0.5,0-0.7-0.1l-0.5-0.3l0.4-0.4c0.2-0.2,0.5-0.3,0.7-0.2C83.5,194,83.6,194.4,83.2,194.7z M83.2,188.1
		c-0.1,0.1-0.5,0-0.7-0.1l-0.5-0.3l0.4-0.4c0.2-0.2,0.5-0.3,0.7-0.2C83.5,187.4,83.6,187.8,83.2,188.1z M83.2,181.5
		c-0.1,0.1-0.5,0-0.7-0.1L82,181l0.4-0.4c0.2-0.2,0.5-0.3,0.7-0.2C83.5,180.8,83.6,181.2,83.2,181.5z M83.2,174.9
		c-0.1,0.1-0.5,0-0.7-0.1l-0.5-0.3l0.4-0.4c0.2-0.2,0.5-0.3,0.7-0.2C83.5,174.2,83.6,174.6,83.2,174.9z M83.1,168.3
		c-0.6,0.3-1.2-0.4-0.7-0.9c0.4-0.4,1.1-0.1,1.1,0.4C83.5,168,83.3,168.2,83.1,168.3z M83.1,161.7c-0.6,0.3-1.2-0.4-0.7-0.9
		c0.4-0.4,1.1-0.1,1.1,0.4C83.5,161.4,83.3,161.6,83.1,161.7z M83.1,155.1L83.1,155.1c-0.6,0.3-1.2-0.4-0.7-0.9
		c0.4-0.4,1.1-0.1,1.1,0.4C83.5,154.8,83.3,155,83.1,155.1z M83.1,148.5c-0.6,0.3-1.2-0.4-0.7-0.9c0.4-0.4,1.1-0.1,1.1,0.4
		C83.5,148.2,83.3,148.4,83.1,148.5z M83.1,122.1c-0.4,0.3-1-0.1-1-0.7c0-0.3,0.3-0.5,0.7-0.5C83.5,121,83.7,121.7,83.1,122.1z
		 M83.1,115.5c-0.4,0.3-1-0.1-1-0.7c0-0.3,0.3-0.5,0.7-0.5C83.5,114.4,83.7,115.1,83.1,115.5z M83.2,108.9c-0.5,0.5-1.1,0.2-1.1-0.4
		c0-0.4,0.2-0.7,0.7-0.7C83.4,107.8,83.7,108.4,83.2,108.9z M83.2,102.3c-0.5,0.5-1.1,0.2-1.1-0.4c0-0.4,0.2-0.7,0.7-0.7
		C83.4,101.2,83.7,101.8,83.2,102.3z M83.2,75.9c-0.5,0.5-1.1,0.2-1.1-0.4c0-0.4,0.2-0.7,0.7-0.7C83.4,74.8,83.7,75.4,83.2,75.9z
		 M85.7,184c0.2-0.2,0.5-0.3,0.7-0.2c0.4,0.3,0.5,0.7,0.1,1c-0.1,0.1-0.5,0-0.7-0.1l-0.5-0.3L85.7,184z M86.4,198
		c-0.6,0.3-1.2-0.4-0.7-0.9c0.4-0.4,1.1-0.1,1.1,0.4C86.8,197.7,86.6,197.9,86.4,198z M86.4,191.4c-0.6,0.3-1.2-0.4-0.7-0.9
		c0.4-0.4,1.1-0.1,1.1,0.4C86.8,191.1,86.6,191.3,86.4,191.4z M86.4,165c-0.6,0.3-1.2-0.4-0.7-0.9c0.4-0.4,1.1-0.1,1.1,0.4
		C86.8,164.7,86.6,164.9,86.4,165z M85.4,157.7c0-0.3,0.2-0.5,0.6-0.4c0.7,0.1,0.9,0.8,0.5,1.1C86,158.7,85.4,158.3,85.4,157.7z
		 M86.4,151.8c-0.4,0.3-1-0.1-1-0.7c0-0.3,0.3-0.5,0.7-0.5C86.8,150.7,87,151.4,86.4,151.8z M86.4,145.2c-0.4,0.3-1-0.1-1-0.7
		c0-0.3,0.3-0.5,0.7-0.5C86.8,144.1,87,144.8,86.4,145.2z M85.4,137.9c0-0.3,0.2-0.5,0.5-0.4c0.7,0.1,0.9,0.8,0.5,1.1
		C86,138.9,85.4,138.5,85.4,137.9z M86.5,132c-0.5,0.5-1.1,0.2-1.1-0.4c0-0.4,0.2-0.7,0.7-0.7C86.7,130.9,87,131.5,86.5,132z
		 M86.1,124.3c0.5,0,0.7,0.2,0.7,0.7s-0.2,0.6-0.6,0.6C85.3,125.3,85.2,124.3,86.1,124.3z M86.5,118.8c-0.5,0.5-1.1,0.2-1.1-0.4
		c0-0.4,0.2-0.7,0.7-0.7C86.7,117.7,87,118.3,86.5,118.8z M89.7,201.3c-0.5,0.3-1-0.1-1-0.7c0-0.3,0.2-0.5,0.6-0.4
		C90,200.3,90.2,201,89.7,201.3z M89.7,194.7c-0.4,0.3-1-0.1-1-0.7c0-0.3,0.3-0.5,0.7-0.5C90.1,193.6,90.3,194.4,89.7,194.7z
		 M88.7,187.4c0-0.3,0.2-0.5,0.5-0.4c0.7,0.1,0.9,0.8,0.5,1.1C89.3,188.4,88.7,188,88.7,187.4z M89.7,181.5c-0.4,0.3-1-0.1-1-0.7
		c0-0.3,0.3-0.5,0.7-0.5C90.1,180.4,90.3,181.2,89.7,181.5z M89.7,174.9c-0.4,0.3-1-0.1-1-0.7c0-0.3,0.3-0.5,0.7-0.5
		C90.1,173.8,90.3,174.5,89.7,174.9z M89.7,168.3c-0.4,0.3-1-0.1-1-0.7c0-0.3,0.3-0.5,0.7-0.5C90.1,167.2,90.3,167.9,89.7,168.3z
		 M89.8,161.7c-0.5,0.5-1.1,0.2-1.1-0.4c0-0.4,0.2-0.7,0.7-0.7C90,160.6,90.3,161.2,89.8,161.7z M89.4,147.4c0.4,0,0.7,0.2,0.7,0.7
		c0,0.4-0.2,0.7-0.7,0.7c-0.4,0-0.7-0.2-0.7-0.7S89,147.4,89.4,147.4z M88.7,141.4c0-0.4,0.2-0.7,0.7-0.7c0.4,0,0.7,0.2,0.7,0.7
		c0,0.4-0.2,0.7-0.7,0.7C89,142.1,88.7,141.9,88.7,141.4z M89.4,154c0.4,0,0.7,0.2,0.7,0.7c0,0.4-0.2,0.7-0.7,0.7
		c-0.4,0-0.7-0.2-0.7-0.7S89,154,89.4,154z M89.8,135.3c-0.5,0.5-1.1,0.2-1.1-0.4c0-0.4,0.2-0.7,0.7-0.7
		C90,134.2,90.3,134.8,89.8,135.3z M89.6,107.6c0.7,0.3,0.6,1.4-0.2,1.4c-0.4,0-0.7-0.2-0.7-0.6C88.7,107.7,89,107.4,89.6,107.6z
		 M88.7,101.9c0-0.8,0.3-1,0.9-0.8c0.7,0.3,0.6,1.4-0.2,1.4C89,102.5,88.7,102.3,88.7,101.9z M89.4,114.4c0.4,0,0.7,0.2,0.7,0.7
		s-0.2,0.7-0.7,0.7c-0.4,0-0.7-0.2-0.7-0.7S89,114.4,89.4,114.4z M89.4,121c0.4,0,0.7,0.2,0.7,0.7s-0.2,0.7-0.7,0.7
		c-0.4,0-0.7-0.2-0.7-0.7S89,121,89.4,121z M89.4,127.6c0.4,0,0.7,0.2,0.7,0.7c0,0.4-0.2,0.7-0.7,0.7c-0.4,0-0.7-0.2-0.7-0.7
		C88.7,127.8,89,127.6,89.4,127.6z M89.4,95.9h-0.7l0.1-0.7c0.1-0.4,0.3-0.7,0.6-0.7s0.5,0.3,0.6,0.7l0.1,0.7H89.4z M89.4,89.3h-0.7
		l0.1-0.7c0.1-0.4,0.3-0.7,0.6-0.7s0.5,0.3,0.6,0.7l0.1,0.7H89.4z M90.2,82.3c-0.2,0.6-1.3,0.5-1.5-0.1c-0.1-0.3,0-0.7,0.3-0.9
		l0.5-0.4l0.4,0.5C90.1,81.6,90.2,82,90.2,82.3z M90.2,75.7c-0.2,0.6-1.3,0.5-1.5-0.1c-0.1-0.3,0-0.7,0.3-0.9l0.5-0.4l0.4,0.5
		C90.1,75,90.2,75.4,90.2,75.7z M92.2,84.6l0.5-0.4l0.4,0.5c0.2,0.3,0.4,0.7,0.3,0.9c-0.2,0.6-1.3,0.5-1.5-0.1
		C91.8,85.2,92,84.8,92.2,84.6z M92.2,78l0.5-0.4l0.4,0.5c0.2,0.3,0.4,0.7,0.3,0.9c-0.2,0.6-1.3,0.5-1.5-0.1
		C91.8,78.6,92,78.2,92.2,78z M92.2,91.2l0.5-0.4l0.4,0.5c0.2,0.3,0.4,0.7,0.3,0.9c-0.2,0.6-1.3,0.5-1.5-0.1
		C91.8,91.8,92,91.4,92.2,91.2z M92.2,97.8l0.5-0.4l0.4,0.5c0.2,0.3,0.4,0.7,0.3,0.9c-0.2,0.6-1.3,0.5-1.5-0.1
		C91.8,98.4,92,98,92.2,97.8z M92.2,104.4l0.5-0.4l0.4,0.5c0.2,0.3,0.4,0.7,0.3,0.9c-0.2,0.6-1.3,0.5-1.5-0.1
		C91.8,105,92,104.6,92.2,104.4z M92.2,117.6c0.6-0.5,1.1-0.1,1.1,0.7c0,0.4-0.2,0.6-0.6,0.6C91.9,119,91.6,118.1,92.2,117.6z
		 M93,198c-0.4,0.3-1-0.1-1-0.7c0-0.3,0.3-0.5,0.7-0.5C93.4,196.9,93.6,197.7,93,198z M93,191.4c-0.4,0.3-1-0.1-1-0.7
		c0-0.3,0.3-0.5,0.7-0.5C93.4,190.3,93.6,191.1,93,191.4z M93,184.8c-0.4,0.3-1-0.1-1-0.7c0-0.3,0.3-0.5,0.7-0.5
		C93.4,183.7,93.6,184.5,93,184.8z M93.1,178.2c-0.5,0.5-1.1,0.2-1.1-0.4c0-0.4,0.2-0.7,0.7-0.7C93.3,177.1,93.6,177.7,93.1,178.2z
		 M93.1,171.6c-0.5,0.5-1.1,0.2-1.1-0.4c0-0.4,0.2-0.7,0.7-0.7C93.3,170.5,93.6,171.1,93.1,171.6z M92.7,137.5
		c0.4,0,0.7,0.2,0.7,0.7c0,0.4-0.2,0.7-0.7,0.7c-0.4,0-0.7-0.2-0.7-0.7S92.3,137.5,92.7,137.5z M92,131.6c0-0.8,0.3-1,0.9-0.8
		c0.7,0.3,0.6,1.4-0.2,1.4C92.3,132.2,92,132,92,131.6z M92.7,144.1c0.4,0,0.7,0.2,0.7,0.7c0,0.4-0.2,0.7-0.7,0.7
		c-0.4,0-0.7-0.2-0.7-0.7C92,144.3,92.3,144.1,92.7,144.1z M92.7,150.7c0.4,0,0.7,0.2,0.7,0.7c0,0.4-0.2,0.7-0.7,0.7
		c-0.4,0-0.7-0.2-0.7-0.7C92,150.9,92.3,150.7,92.7,150.7z M92.7,157.3c0.4,0,0.7,0.2,0.7,0.7c0,0.4-0.2,0.7-0.7,0.7
		c-0.4,0-0.7-0.2-0.7-0.7S92.3,157.3,92.7,157.3z M92.7,163.9c0.4,0,0.7,0.2,0.7,0.7c0,0.4-0.2,0.7-0.7,0.7c-0.4,0-0.7-0.2-0.7-0.7
		S92.3,163.9,92.7,163.9z M92.7,125.6H92l0.1-0.7c0.1-0.4,0.3-0.7,0.6-0.7s0.5,0.3,0.6,0.7l0.1,0.7H92.7z M93.5,112
		c-0.3,0.7-1.4,0.5-1.4-0.2c0-0.4,0.2-0.7,0.4-0.9C92.9,110.6,93.7,111.4,93.5,112z M93.5,72.6c-0.4,0.4-1.4,0.2-1.5-0.3
		c-0.1-0.3,0-0.6,0.3-0.9l0.5-0.4l0.5,0.4C93.7,71.9,93.8,72.2,93.5,72.6z M95.5,134.1l0.5-0.4l0.4,0.5c0.2,0.3,0.4,0.7,0.3,0.9
		c-0.2,0.6-1.3,0.5-1.5-0.1C95.1,134.7,95.3,134.3,95.5,134.1z M95.5,114.3l0.5-0.4l0.4,0.5c0.2,0.3,0.4,0.7,0.3,0.9
		c-0.2,0.6-1.3,0.5-1.5-0.1C95.1,114.9,95.3,114.5,95.5,114.3z M95.5,107.7l0.5-0.4l0.4,0.5c0.2,0.3,0.4,0.7,0.3,0.9
		c-0.2,0.6-1.3,0.5-1.5-0.1C95.1,108.3,95.3,107.9,95.5,107.7z M95.5,120.9l0.5-0.4l0.4,0.5c0.2,0.3,0.4,0.7,0.3,0.9
		c-0.2,0.6-1.3,0.5-1.5-0.1C95.1,121.5,95.3,121.1,95.5,120.9z M95.5,127.5l0.5-0.4l0.4,0.5c0.2,0.3,0.4,0.7,0.3,0.9
		c-0.2,0.6-1.3,0.5-1.5-0.1C95.1,128.1,95.3,127.7,95.5,127.5z M96.1,201.4c-0.9-0.2-1-1.3-0.1-1.3c0.5,0,0.7,0.2,0.7,0.7
		C96.7,201.3,96.5,201.5,96.1,201.4z M96,194.9c-0.4,0-0.7-0.2-0.7-0.7c0-0.4,0.2-0.7,0.7-0.7c0.4,0,0.7,0.2,0.7,0.7
		C96.7,194.7,96.4,194.9,96,194.9z M96,188.3c-0.4,0-0.7-0.2-0.7-0.7c0-0.4,0.2-0.7,0.7-0.7c0.4,0,0.7,0.2,0.7,0.7
		C96.7,188.1,96.4,188.3,96,188.3z M96,181.7c-0.4,0-0.7-0.2-0.7-0.7c0-0.4,0.2-0.7,0.7-0.7c0.4,0,0.7,0.2,0.7,0.7
		S96.4,181.7,96,181.7z M96,175.1c-0.4,0-0.7-0.2-0.7-0.7c0-0.4,0.2-0.7,0.7-0.7c0.4,0,0.7,0.2,0.7,0.7S96.4,175.1,96,175.1z
		 M96,168.5c-0.4,0-0.7-0.2-0.7-0.7c0-0.4,0.2-0.7,0.7-0.7c0.4,0,0.7,0.2,0.7,0.7S96.4,168.5,96,168.5z M96,161.9
		c-0.4,0-0.7-0.2-0.7-0.6c0-0.8,0.3-1,0.9-0.8C96.9,160.7,96.8,161.9,96,161.9z M96,155.3h-0.7l0.1-0.7c0.1-0.4,0.3-0.7,0.6-0.7
		s0.5,0.3,0.6,0.7l0.1,0.7H96z M96,148.7h-0.7l0.1-0.7c0.1-0.4,0.3-0.7,0.6-0.7s0.5,0.3,0.6,0.7l0.1,0.7H96z M96.8,141.7
		c-0.3,0.7-1.4,0.5-1.4-0.2c0-0.4,0.2-0.7,0.4-0.9C96.2,140.3,97,141.1,96.8,141.7z M96.8,102.3c-0.3,0.3-1.4,0.3-1.6-0.1
		c-0.1-0.2,0-0.6,0.3-0.9l0.5-0.5l0.5,0.4C97,101.6,97.1,101.9,96.8,102.3z M95.4,88l0.5-0.5l0.5,0.4c0.6,0.5,0.6,0.8,0.3,1.1
		s-1.4,0.3-1.6-0.1C95,88.7,95.2,88.3,95.4,88z M96.8,95.7c-0.4,0.4-1.4,0.2-1.5-0.3c-0.1-0.3,0-0.6,0.3-0.9l0.5-0.4l0.5,0.4
		C97,95,97.1,95.3,96.8,95.7z M96.5,82.6c-0.3,0.3-0.6,0.2-1.1-0.1L94.8,82l0.6-0.6l0.6-0.6l0.5,0.4C97.1,81.9,97.1,82.2,96.5,82.6z
		 M96.5,76c-0.3,0.3-0.6,0.2-1.1-0.1l-0.6-0.5l0.6-0.6l0.6-0.6l0.5,0.4C97.1,75.3,97.1,75.6,96.5,76z M110.1,75.3
		c0.1,0.4-0.1,0.8-0.3,0.9l0,0c-0.7,0.4-1.7-0.2-1.6-0.9C108.4,74.3,110,74.3,110.1,75.3z M110.1,81.9c0.1,0.4-0.1,0.8-0.3,0.9l0,0
		c-0.7,0.4-1.7-0.2-1.6-0.9C108.4,80.9,110,80.9,110.1,81.9z M110.1,88.5c0.1,0.4-0.1,0.8-0.3,0.9l0,0c-0.7,0.4-1.7-0.2-1.6-0.9
		C108.4,87.5,110,87.5,110.1,88.5z M110.1,95.1c0.1,0.4-0.1,0.8-0.3,0.9l0,0c-0.7,0.4-1.7-0.2-1.6-0.9
		C108.4,94.1,110,94.1,110.1,95.1z M108.3,101.7c0.1-0.5,0.3-0.7,0.9-0.7c1,0,1.4,1.3,0.5,1.6C108.9,102.9,108.2,102.5,108.3,101.7z
		 M109.7,148.7l-0.5,0.4l-0.5-0.5c-0.7-0.7-0.3-1.6,0.5-1.6c0.4,0,0.7,0.1,0.7,0.1c0,0.1,0.1,0.3,0.2,0.6
		C110.1,148,110,148.4,109.7,148.7z M109.7,155.3l-0.5,0.4l-0.5-0.5c-0.6-0.6-0.3-1.6,0.6-1.6c0.3,0,0.6,0.1,0.6,0.1
		c0,0.1,0.1,0.3,0.2,0.6C110.1,154.6,110,155,109.7,155.3z M109.7,142.1l-0.5,0.4l-0.5-0.5c-0.7-0.7-0.3-1.6,0.5-1.6
		c0.4,0,0.7,0.1,0.7,0.1c0,0.1,0.1,0.3,0.2,0.6C110.1,141.4,110,141.8,109.7,142.1z M109.7,135.5l-0.5,0.4l-0.5-0.5
		c-0.7-0.7-0.3-1.6,0.5-1.6c0.4,0,0.7,0.1,0.7,0.1c0,0.1,0.1,0.3,0.2,0.6C110.1,134.8,110,135.2,109.7,135.5z M109.7,128.9l-0.5,0.4
		l-0.5-0.5c-0.7-0.7-0.3-1.6,0.6-1.5C110.2,127.4,110.4,128.3,109.7,128.9z M109.7,122.3l-0.5,0.4l-0.5-0.5
		c-0.7-0.7-0.3-1.6,0.6-1.5C110.2,120.8,110.4,121.7,109.7,122.3z M109.7,115.7l-0.5,0.4l-0.5-0.5c-0.7-0.7-0.3-1.6,0.6-1.5
		C110.2,114.2,110.4,115.1,109.7,115.7z M109.9,109L109.9,109c-0.5,0.7-1.8,0.1-1.6-0.7c0.1-0.5,0.3-0.7,0.9-0.7
		C110.1,107.6,110.4,108.3,109.9,109z M108.5,160.7c0.4-0.5,1.3-0.7,1.3-0.4c0,0.1,0.1,0.3,0.2,0.6c0.1,0.3-0.1,0.7-0.3,0.9
		l-0.5,0.4l-0.5-0.5l-0.5-0.5L108.5,160.7z M108.5,167.3c0.4-0.5,1.3-0.7,1.3-0.4c0,0.1,0.1,0.3,0.2,0.6c0.1,0.3-0.1,0.7-0.3,0.9
		l-0.5,0.4l-0.5-0.5l-0.5-0.5L108.5,167.3z M105,72c0.1-0.5,0.3-0.7,0.9-0.7c1,0,1.4,1.3,0.5,1.6C105.6,73.2,104.9,72.8,105,72z
		 M106.4,119l-0.5,0.4l-0.5-0.5c-0.6-0.6-0.3-1.6,0.6-1.6c0.3,0,0.6,0.1,0.6,0.1c0,0.1,0.1,0.3,0.2,0.6
		C106.8,118.3,106.7,118.7,106.4,119z M106.4,125.6l-0.5,0.4l-0.5-0.5c-0.6-0.6-0.3-1.6,0.6-1.6c0.3,0,0.6,0.1,0.6,0.1
		c0,0.1,0.1,0.3,0.2,0.6C106.8,124.9,106.7,125.3,106.4,125.6z M106.4,112.4l-0.5,0.4l-0.5-0.5c-0.6-0.6-0.3-1.6,0.6-1.6
		c0.3,0,0.6,0.1,0.6,0.1c0,0.1,0.1,0.3,0.2,0.6C106.8,111.7,106.7,112.1,106.4,112.4z M106.4,105.8l-0.5,0.4l-0.5-0.5
		c-0.7-0.7-0.3-1.6,0.6-1.5C106.9,104.3,107.1,105.2,106.4,105.8z M106.4,99.2l-0.5,0.4l-0.5-0.5c-0.7-0.7-0.3-1.6,0.6-1.5
		C106.9,97.7,107.1,98.6,106.4,99.2z M106.4,92.6l-0.5,0.4l-0.5-0.5c-0.7-0.7-0.3-1.6,0.6-1.5C106.9,91.1,107.1,92,106.4,92.6z
		 M106.4,86l-0.5,0.4l-0.5-0.5c-0.7-0.7-0.3-1.6,0.6-1.5C106.9,84.5,107.1,85.4,106.4,86z M106.4,79.4l-0.5,0.4l-0.5-0.5
		c-0.7-0.7-0.3-1.6,0.6-1.5C106.9,77.9,107.1,78.8,106.4,79.4z M105.2,131c0.4-0.5,1.3-0.7,1.3-0.4c0,0.1,0.1,0.3,0.2,0.6
		c0.1,0.3-0.1,0.7-0.3,0.9l-0.5,0.4l-0.5-0.5l-0.5-0.5L105.2,131z M102.6,74.4c0.4,0,0.7,0.1,0.7,0.1s0.1,0.3,0.2,0.6
		c0.1,0.3-0.1,0.7-0.3,0.9l-0.5,0.4L102,76C101.4,75.3,101.7,74.4,102.6,74.4z M102.6,81c0.4,0,0.7,0.1,0.7,0.1
		c0,0.1,0.1,0.3,0.2,0.6c0.1,0.3-0.1,0.7-0.3,0.9l-0.5,0.4l-0.5-0.5C101.4,81.9,101.7,81,102.6,81z M103.1,102.5l-0.5,0.4l-0.5-0.5
		c-0.6-0.6-0.3-1.6,0.6-1.6c0.3,0,0.6,0.1,0.6,0.1s0.1,0.3,0.2,0.6C103.5,101.8,103.4,102.2,103.1,102.5z M103.1,109.1l-0.5,0.4
		l-0.5-0.5c-0.6-0.6-0.3-1.6,0.6-1.6c0.3,0,0.6,0.1,0.6,0.1s0.1,0.3,0.2,0.6C103.5,108.4,103.4,108.8,103.1,109.1z M103.1,95.9
		l-0.5,0.4l-0.5-0.5c-0.6-0.6-0.3-1.6,0.6-1.6c0.3,0,0.6,0.1,0.6,0.1c0,0.1,0.1,0.3,0.2,0.6C103.5,95.2,103.4,95.6,103.1,95.9z
		 M103.1,89.3l-0.5,0.4l-0.5-0.5c-0.6-0.6-0.3-1.6,0.6-1.6c0.3,0,0.6,0.1,0.6,0.1c0,0.1,0.1,0.3,0.2,0.6
		C103.5,88.6,103.4,89,103.1,89.3z M98.7,124.3l0.5-0.5l0.5,0.4c0.6,0.5,0.6,0.8,0.3,1.1c-0.3,0.3-1.4,0.3-1.6-0.1
		C98.3,125,98.5,124.6,98.7,124.3z M98.7,117.7l0.5-0.5l0.5,0.4c0.6,0.5,0.6,0.8,0.3,1.1c-0.3,0.3-1.4,0.3-1.6-0.1
		C98.3,118.4,98.5,118,98.7,117.7z M98.8,150.6l0.5-0.4l0.4,0.5c0.2,0.3,0.4,0.7,0.3,0.9c-0.2,0.6-1.3,0.5-1.5-0.1
		C98.4,151.2,98.6,150.8,98.8,150.6z M98.8,144l0.5-0.4l0.4,0.5c0.2,0.3,0.4,0.7,0.3,0.9c-0.2,0.6-1.3,0.5-1.5-0.1
		C98.4,144.6,98.6,144.2,98.8,144z M98.8,157.2l0.5-0.4l0.4,0.5c0.2,0.3,0.4,0.7,0.3,0.9l0,0c-0.2,0.6-1.3,0.5-1.5-0.1
		C98.4,157.8,98.6,157.4,98.8,157.2z M98.8,163.8l0.5-0.4l0.4,0.5c0.2,0.3,0.4,0.7,0.3,0.9l0,0c-0.2,0.6-1.3,0.5-1.5-0.1
		C98.4,164.4,98.6,164,98.8,163.8z M98.8,170.4c0.6-0.5,1.1-0.1,1.1,0.7c0,0.4-0.2,0.6-0.6,0.6C98.5,171.8,98.2,170.9,98.8,170.4z
		 M99.3,198.2c-0.4,0-0.7-0.2-0.7-0.7c0-0.4,0.2-0.7,0.7-0.7c0.4,0,0.7,0.2,0.7,0.7S99.7,198.2,99.3,198.2z M99.3,191.6
		c-0.4,0-0.7-0.2-0.7-0.6c0-0.8,0.3-1,0.9-0.8C100.2,190.4,100.1,191.6,99.3,191.6z M99.3,185h-0.7l0.1-0.7c0.1-0.4,0.3-0.7,0.6-0.7
		s0.5,0.3,0.6,0.7l0.1,0.7H99.3z M100.1,178c-0.3,0.7-1.4,0.5-1.4-0.2c0-0.4,0.2-0.7,0.4-0.9C99.5,176.6,100.3,177.4,100.1,178z
		 M100.1,138.6c-0.4,0.4-1.4,0.2-1.5-0.3c-0.1-0.3,0-0.6,0.3-0.9l0.5-0.4l0.5,0.4C100.3,137.9,100.4,138.2,100.1,138.6z M100.1,132
		c-0.4,0.4-1.4,0.2-1.5-0.3c-0.1-0.3,0-0.6,0.3-0.9l0.5-0.4l0.5,0.4C100.3,131.3,100.4,131.6,100.1,132z M99.8,112.3
		c-0.3,0.3-0.6,0.2-1.1-0.1l-0.6-0.5l0.6-0.6l0.6-0.6l0.5,0.4C100.4,111.6,100.4,111.9,99.8,112.3z M99.8,105.7
		c-0.3,0.3-0.6,0.2-1.1-0.1l-0.6-0.5l0.6-0.6l0.6-0.6l0.5,0.4C100.4,105,100.4,105.3,99.8,105.7z M99.8,99.2l-0.5,0.4l-0.5-0.5
		l-0.5-0.5l0.5-0.5l0.5-0.5l0.5,0.4c0.3,0.2,0.5,0.5,0.5,0.7C100.3,98.6,100.1,99,99.8,99.2z M99.8,92.6L99.3,93l-0.5-0.5L98.3,92
		l0.5-0.5l0.5-0.5l0.5,0.4c0.3,0.2,0.5,0.5,0.5,0.7C100.3,92,100.1,92.4,99.8,92.6z M99.8,86l-0.5,0.4l-0.5-0.5l-0.5-0.5l0.5-0.5
		l0.5-0.5l0.5,0.4c0.3,0.2,0.5,0.5,0.5,0.7C100.3,85.4,100.1,85.8,99.8,86z M99.8,79.4l-0.5,0.4l-0.5-0.5l-0.5-0.5l0.5-0.5l0.5-0.5
		l0.5,0.4c0.3,0.2,0.5,0.5,0.5,0.7C100.3,78.8,100.1,79.2,99.8,79.4z M99.8,72.8l-0.5,0.4l-0.5-0.5l-0.5-0.5l0.5-0.5l0.5-0.5
		l0.5,0.4c0.3,0.2,0.5,0.5,0.5,0.7C100.3,72.2,100.1,72.6,99.8,72.8z M102.1,173.7l0.5-0.4l0.4,0.5c0.2,0.3,0.4,0.7,0.3,0.9
		c-0.2,0.6-1.3,0.5-1.5-0.1C101.7,174.3,101.9,173.9,102.1,173.7z M102.1,167.1l0.5-0.4l0.4,0.5c0.2,0.3,0.4,0.7,0.3,0.9
		c-0.2,0.6-1.3,0.5-1.5-0.1C101.7,167.7,101.9,167.3,102.1,167.1z M102.1,180.3l0.5-0.4l0.4,0.5c0.2,0.3,0.4,0.7,0.3,0.9
		c-0.2,0.6-1.3,0.5-1.5-0.1C101.7,180.9,101.9,180.5,102.1,180.3z M102.1,186.9l0.5-0.4l0.4,0.5c0.2,0.3,0.4,0.7,0.3,0.9
		c-0.2,0.6-1.3,0.5-1.5-0.1C101.7,187.5,101.9,187.1,102.1,186.9z M102.6,201.5c-0.8,0-1.1-0.8-0.5-1.3s1.1-0.1,1.1,0.7
		C103.3,201.2,103,201.5,102.6,201.5z M103.4,194.5c-0.3,0.7-1.4,0.5-1.4-0.2c0-0.4,0.2-0.7,0.4-0.9
		C102.8,193.1,103.6,193.9,103.4,194.5z M103.4,161.7c-0.3,0.3-1.4,0.3-1.6-0.1c-0.1-0.2,0-0.6,0.3-0.9l0.5-0.5l0.5,0.4
		C103.6,161,103.7,161.3,103.4,161.7z M103.4,155.1c-0.3,0.3-1.4,0.3-1.6-0.1c-0.1-0.2,0-0.6,0.3-0.9l0.5-0.5l0.5,0.4
		C103.6,154.4,103.7,154.7,103.4,155.1z M103.4,148.5c-0.3,0.3-1.4,0.3-1.6-0.1c-0.1-0.2,0-0.6,0.3-0.9l0.5-0.5l0.5,0.4
		C103.6,147.8,103.7,148.1,103.4,148.5z M103.1,142c-0.3,0.3-0.6,0.2-1.1-0.1l-0.6-0.5l0.6-0.6l0.6-0.6l0.5,0.4
		C103.7,141.3,103.7,141.6,103.1,142z M103.1,135.4c-0.3,0.3-0.6,0.2-1.1-0.1l-0.6-0.5l0.6-0.6l0.6-0.6l0.5,0.4
		C103.7,134.7,103.7,135,103.1,135.4z M103.1,128.8c-0.3,0.3-0.6,0.2-1.1-0.1l-0.6-0.5l0.6-0.6l0.6-0.6l0.5,0.4
		C103.7,128.1,103.7,128.4,103.1,128.8z M103.1,122.3L103.1,122.3l-0.5,0.4l-0.5-0.5l-0.5-0.5l0.5-0.5l0.5-0.5l0.5,0.4
		c0.3,0.2,0.5,0.5,0.5,0.7C103.6,121.7,103.4,122.1,103.1,122.3z M103.1,115.7L103.1,115.7l-0.5,0.4l-0.5-0.5l-0.5-0.5l0.5-0.5
		l0.5-0.5l0.5,0.4c0.3,0.2,0.5,0.5,0.5,0.7C103.6,115.1,103.4,115.5,103.1,115.7z M106.7,197.8c-0.2,0.6-1.3,0.5-1.5-0.1
		c-0.1-0.3,0-0.7,0.3-0.9l0.5-0.4l0.4,0.5C106.6,197.1,106.7,197.5,106.7,197.8z M106.7,191.4c-0.3,0.3-1.4,0.3-1.6-0.1
		c-0.1-0.2,0-0.6,0.3-0.9l0.5-0.5l0.5,0.4C106.9,190.7,107,191,106.7,191.4z M106.7,184.8c-0.3,0.3-1.4,0.3-1.6-0.1
		c-0.1-0.2,0-0.6,0.3-0.9l0.5-0.5l0.5,0.4C106.9,184.1,107,184.4,106.7,184.8z M106.7,178.2c-0.3,0.3-1.4,0.3-1.6-0.1
		c-0.1-0.2,0-0.6,0.3-0.9l0.5-0.5l0.5,0.4C106.9,177.5,107,177.8,106.7,178.2z M106.4,171.7c-0.3,0.3-0.6,0.2-1.1-0.1l-0.6-0.5
		l0.6-0.6l0.6-0.6l0.5,0.4C107,171,107,171.3,106.4,171.7z M106.4,165.1c-0.3,0.3-0.6,0.2-1.1-0.1l-0.6-0.5l0.6-0.6l0.6-0.6l0.5,0.4
		C107,164.4,107,164.7,106.4,165.1z M106.4,158.6L106.4,158.6l-0.5,0.4l-0.5-0.5l-0.5-0.5l0.5-0.5l0.5-0.5l0.5,0.4
		c0.3,0.2,0.5,0.5,0.5,0.7C106.9,158.1,106.7,158.4,106.4,158.6z M106.4,152L106.4,152l-0.5,0.4l-0.5-0.5l-0.5-0.5l0.5-0.5l0.5-0.5
		l0.5,0.4c0.3,0.2,0.5,0.5,0.5,0.7C106.9,151.5,106.7,151.8,106.4,152z M106.4,145.4L106.4,145.4l-0.5,0.4l-0.5-0.5l-0.5-0.5
		l0.5-0.5l0.5-0.5l0.5,0.4c0.3,0.2,0.5,0.5,0.5,0.7C106.9,144.8,106.7,145.2,106.4,145.4z M106.4,138.8l-0.5,0.4l-0.5-0.5
		c-0.5-0.5-0.3-1.6,0.3-1.6c0.4,0,1.2,0.7,1.2,1C106.9,138.3,106.7,138.6,106.4,138.8z M110,201.3c-0.3,0.3-1.4,0.3-1.6-0.1
		c-0.1-0.2,0-0.6,0.3-0.9l0.5-0.5l0.5,0.4C110.2,200.6,110.3,200.9,110,201.3z M109.7,194.8c-0.3,0.3-0.6,0.2-1.1-0.1l-0.6-0.5
		l0.6-0.6l0.6-0.6l0.5,0.4C110.3,194.1,110.3,194.4,109.7,194.8z M109.7,188.2c-0.3,0.3-0.6,0.2-1.1-0.1l-0.6-0.5l0.6-0.6l0.6-0.6
		l0.5,0.4C110.3,187.5,110.3,187.8,109.7,188.2z M109.7,181.7L109.7,181.7l-0.5,0.4l-0.5-0.5l-0.5-0.5l0.5-0.5l0.5-0.5l0.5,0.4
		c0.3,0.2,0.5,0.5,0.5,0.7C110.2,181.2,110,181.5,109.7,181.7z M109.7,175.1L109.7,175.1l-0.5,0.4l-0.5-0.5l-0.5-0.5l0.5-0.5
		l0.5-0.5l0.5,0.4c0.3,0.2,0.5,0.5,0.5,0.7C110.2,174.6,110,174.9,109.7,175.1z M143.1,129.1c-1,1-2.5,0-2.1-1.4l0.2-0.8h0.9
		C143.4,126.9,144,128.3,143.1,129.1z M143.5,134.8c0,0.3-0.2,0.7-0.4,0.9c-1,1-2.5,0-2.1-1.4C141.4,133,143.5,133.4,143.5,134.8z
		 M146.3,198.3c-0.3,0.3-0.6,0.5-0.8,0.5c-0.3,0-1.3-0.9-1.3-1.2c0-0.6,0.8-1.4,1.3-1.4C146.7,196.2,147.2,197.4,146.3,198.3z
		 M146.2,172.1c-1.5,0.8-2.7-1.2-1.3-2.1c0.4-0.3,0.7-0.3,1.2,0C146.9,170.5,147,171.7,146.2,172.1z M146.2,178.7
		c-1.5,0.8-2.7-1.2-1.3-2.1c0.4-0.3,0.7-0.3,1.2,0C146.9,177.1,147,178.3,146.2,178.7z M146.3,165.5l-0.5,0.4l-0.8-0.4
		c-1-0.4-1-1.6-0.1-2.2C146.1,162.6,147.4,164.6,146.3,165.5z M146.1,189.8c0.8,0.5,0.9,1.3,0.2,1.9c-0.3,0.3-0.7,0.5-0.8,0.5
		c-0.5,0-1.4-1.1-1.3-1.6C144.4,189.8,145.4,189.4,146.1,189.8z M146.2,185.3c-0.8,0.4-1.6,0.1-1.9-0.7c-0.4-1.2,1.2-2.1,2.1-1.2
		C147,184,146.9,184.9,146.2,185.3z M146.3,158.9c-1.1,0.9-2.7-0.4-2-1.6c0.7-1.1,2.4-0.7,2.4,0.6
		C146.8,158.2,146.6,158.7,146.3,158.9z M144.2,124.5l0.1-0.8h1.2h1.2l0.1,0.8c0.1,0.5-0.1,1-0.3,1.2
		C145.5,126.8,144,125.9,144.2,124.5z M144.2,117.9l0.1-0.8h1.2h1.2l0.1,0.8c0.1,0.5-0.1,1-0.3,1.2
		C145.5,120.2,144,119.3,144.2,117.9z M144.2,131.1l0.1-0.8h1.2h1.2l0.1,0.8c0.1,0.5-0.1,1-0.3,1.2
		C145.5,133.4,144,132.5,144.2,131.1z M146.4,152.2c-1,1-2.5,0-2.1-1.4l0.2-0.8h0.9C146.7,150,147.3,151.4,146.4,152.2z
		 M146.4,145.6c-1,1-2.5,0-2.1-1.4l0.2-0.8h0.9C146.7,143.4,147.3,144.8,146.4,145.6z M149.5,195.2c-1.5,0.8-2.7-1.2-1.3-2.1
		c0.4-0.3,0.7-0.3,1.2,0C150.2,193.6,150.3,194.8,149.5,195.2z M149.5,188.6c-1.5,0.8-2.7-1.2-1.3-2.1c0.4-0.3,0.7-0.3,1.2,0
		C150.2,187,150.3,188.2,149.5,188.6z M149.6,182l-0.5,0.4l-0.8-0.4c-1-0.4-1-1.6-0.1-2.2C149.4,179.1,150.7,181.1,149.6,182z
		 M149.6,175.4c-1.1,0.9-2.7-0.4-2-1.6c0.7-1.1,2.4-0.7,2.4,0.6C150.1,174.7,149.9,175.2,149.6,175.4z M147.5,147.6l0.1-0.8h1.2h1.2
		l0.1,0.8c0.1,0.5-0.1,1-0.3,1.2C148.8,149.9,147.3,149,147.5,147.6z M147.5,141l0.1-0.8h1.2h1.2l0.1,0.8c0.1,0.5-0.1,1-0.3,1.2
		C148.8,143.3,147.3,142.4,147.5,141z M149.7,168.7c-1,1-2.5,0-2.1-1.4l0.2-0.8h0.9C150,166.5,150.6,167.9,149.7,168.7z
		 M149.7,162.1c-1,1-2.5,0-2.1-1.4l0.2-0.8h0.9C150,159.9,150.6,161.3,149.7,162.1z M149.7,155.5c-1,1-2.5,0-2.1-1.4l0.2-0.8h0.9
		C150,153.3,150.6,154.7,149.7,155.5z M152.9,198.5l-0.5,0.4l-0.8-0.4c-1-0.4-1-1.6-0.1-2.2C152.7,195.6,154,197.6,152.9,198.5z
		 M152.9,191.9l-0.5,0.4l-0.8-0.4c-1-0.4-1-1.6-0.1-2.2C152.7,189,154,191,152.9,191.9z M152.9,185.3c-1.1,0.9-2.7-0.4-2-1.6
		c0.5-0.7,1.8-0.9,2.2-0.4C153.6,184,153.5,184.8,152.9,185.3z M150.8,164.1l0.1-0.8h1.2h1.2l0.1,0.8c0.1,0.5-0.1,1-0.3,1.2
		C152.1,166.4,150.6,165.5,150.8,164.1z M150.8,157.5l0.1-0.8h1.2h1.2l0.1,0.8c0.1,0.5-0.1,1-0.3,1.2
		C152.1,159.8,150.6,158.9,150.8,157.5z M153,178.6c-1,1-2.5,0-2.1-1.4l0.2-0.8h0.9C153.3,176.4,153.9,177.8,153,178.6z M153,172
		c-1,1-2.5,0-2.1-1.4l0.2-0.8h0.9C153.3,169.8,153.9,171.2,153,172z M154.1,167.4l0.1-0.8h1.2h1.2l0.1,0.8c0.1,0.5-0.1,1-0.3,1.2
		C155.4,169.7,153.9,168.8,154.1,167.4z M154.1,160.8l0.1-0.8h1.2h1.2l0.1,0.8c0.1,0.5-0.1,1-0.3,1.2
		C155.4,163.1,153.9,162.2,154.1,160.8z M154.1,174l0.1-0.8h1.2h1.2l0.1,0.8c0.1,0.5-0.1,1-0.3,1.2
		C155.4,176.3,153.9,175.4,154.1,174z M154.1,180.6l0.1-0.8h1.2h1.2l0.1,0.8c0.1,0.5-0.1,1-0.3,1.2
		C155.4,182.9,153.9,182,154.1,180.6z M156.3,195.1c-1,1-2.5,0-2.1-1.4c0.3-1.4,2.5-0.9,2.5,0.5
		C156.7,194.5,156.5,194.9,156.3,195.1z M156.3,188.5c-1,1-2.5,0-2.1-1.4l0.2-0.8h0.9C156.6,186.3,157.2,187.7,156.3,188.5z
		 M156.1,126.9c0.8,0.4,0.9,2.2,0.2,2.5c-0.3,0.1-0.8,0.1-1.2,0.1l-0.8-0.1l-0.1-1.1C154,127,155,126.3,156.1,126.9z M156,133.5
		c0.9,0.3,1.1,2.2,0.3,2.5c-0.3,0.1-0.8,0.1-1.2,0.1l-0.8-0.1l-0.1-1.1C154,133.7,154.8,133.1,156,133.5z M156.3,142.6
		c-0.3,0.1-0.8,0.1-1.3,0.1l-0.8-0.1v-1.2v-1.2h1.2h1.2l0.1,1.1C156.7,142.1,156.6,142.5,156.3,142.6z M154.1,147.9l0.1-1.1h1.2h1.2
		l0.1,1.1c0.1,0.7-0.1,1.1-0.4,1.3c-0.3,0.1-0.9,0.1-1.4,0L154,149L154.1,147.9z M154.1,154.5l0.1-1.1h1.2h1.2l0.1,1.1
		c0.1,0.7-0.1,1.1-0.4,1.3c-0.3,0.1-0.9,0.1-1.4,0l-0.8-0.2L154.1,154.5z M152.6,152.5c-1.1,0.3-1.9-0.4-1.8-1.5l0.1-0.9h1.2h1.2
		l0.1,1.1l0.1,1.1L152.6,152.5z M152.8,145.9c-0.4,0.1-1,0.1-1.4,0l-0.7-0.2l0.1-1l0.1-1h1.2h1.2l0.1,1l0.1,1L152.8,145.9z
		 M152.8,117c0.8,0.4,0.9,2.2,0.2,2.5c-0.3,0.1-0.8,0.1-1.2,0.1l-0.8-0.1l-0.1-1.1C150.7,117.1,151.7,116.4,152.8,117z M152.7,123.6
		c0.9,0.3,1.1,2.2,0.3,2.5c-0.3,0.1-0.8,0.1-1.2,0.1l-0.8-0.1l-0.1-1.1C150.7,123.8,151.5,123.2,152.7,123.6z M150.8,131.4l0.1-1.1
		h1.2h1.2l0.1,1.1c0.1,0.7-0.1,1.1-0.4,1.3c-0.3,0.1-0.9,0.1-1.4,0l-0.8-0.2L150.8,131.4z M150.8,138l0.1-1.1h1.2h1.2l0.1,1.1
		c0.1,0.7-0.1,1.1-0.4,1.3c-0.3,0.1-0.9,0.1-1.4,0l-0.8-0.2L150.8,138z M149.5,136c-0.4,0.1-1,0.1-1.4,0l-0.7-0.2l0.1-1l0.1-1h1.2
		h1.2l0.1,1l0.1,1L149.5,136z M147.6,115v-1.2h1.2h1.2l0.1,1.1c0.1,0.7-0.1,1.1-0.4,1.3c-0.3,0.1-0.8,0.1-1.3,0.1l-0.8-0.1V115z
		 M147.5,121.5l0.1-1.1h1.2h1.2l0.1,1.1c0.1,0.7-0.1,1.1-0.4,1.3c-0.3,0.1-0.9,0.1-1.4,0l-0.8-0.2L147.5,121.5z M147.5,128.1
		l0.1-1.1h1.2h1.2l0.1,1.1c0.1,0.7-0.1,1.1-0.4,1.3c-0.3,0.1-0.9,0.1-1.4,0l-0.8-0.2L147.5,128.1z M146.4,139c-1,1-2.5,0-2.1-1.4
		l0.2-0.8h0.9C146.7,136.8,147.3,138.2,146.4,139z M144.2,111.6l0.1-1.1h1.2h1.2l0.1,1.1c0.1,0.7-0.1,1.1-0.4,1.3
		c-0.3,0.1-0.9,0.1-1.4,0l-0.8-0.2L144.2,111.6z M143.1,122.5c-1,1-2.5,0-2.1-1.4l0.2-0.8h0.9C143.4,120.3,144,121.7,143.1,122.5z
		 M141,114.5l0.2-0.8l1.1,0.1l1.1,0.1l0.1,0.8c0.1,0.5-0.1,1-0.3,1.2C142.1,116.9,140.7,116,141,114.5z M140.9,108l0.1-0.8h1.2h1.2
		l0.1,0.8c0.1,0.5-0.1,1-0.3,1.2C142.2,110.3,140.7,109.4,140.9,108z M141.1,140.8c0.7-1.1,2.4-0.7,2.4,0.6c0,0.3-0.2,0.8-0.5,1l0,0
		C142,143.3,140.4,142,141.1,140.8z M143,149l-0.5,0.4l-0.8-0.4c-1-0.4-1-1.6-0.1-2.2C142.8,146.1,144.1,148.1,143,149z
		 M142.9,155.6c-1.5,0.8-2.7-1.2-1.3-2.1c0.4-0.3,0.7-0.3,1.2,0C143.6,154,143.7,155.2,142.9,155.6z M143,168.6
		c-0.3,0.3-0.7,0.5-0.8,0.5c-0.5,0-1.4-1.1-1.3-1.6c0.2-0.8,1.2-1.3,1.8-0.9C143.6,167.2,143.7,168,143,168.6z M143,175.2
		c-0.3,0.3-0.7,0.5-0.8,0.5c-0.5,0-1.4-1.1-1.3-1.6c0.2-0.8,1.2-1.3,1.8-0.9C143.6,173.8,143.7,174.6,143,175.2z M142.9,162.2
		c-0.8,0.4-1.6,0.1-1.9-0.7c-0.4-1.2,1.2-2.1,2.1-1.2C143.7,160.9,143.6,161.8,142.9,162.2z M142.2,179.7c0.4,0,0.8,0.3,1,0.6
		c0.4,0.8,0.4,0.9-0.2,1.5c-0.3,0.3-0.6,0.5-0.8,0.5c-0.3,0-1.3-0.9-1.3-1.2C140.9,180.6,141.7,179.7,142.2,179.7z M142,186.3
		c0.5,0,1.5,0.9,1.5,1.3c0,0.2-0.2,0.5-0.5,0.8s-0.6,0.5-0.8,0.5c-0.3,0-1.3-0.9-1.3-1.2C140.9,187.2,141.6,186.3,142,186.3z
		 M142,192.9c0.5,0,1.5,0.9,1.5,1.3c0,0.2-0.2,0.5-0.5,0.8s-0.6,0.5-0.8,0.5c-0.3,0-1.3-0.9-1.3-1.2
		C140.9,193.8,141.6,192.9,142,192.9z M142.2,199.5c0.4,0,1.3,1,1.3,1.3c0,0.2-0.2,0.5-0.5,0.8s-0.6,0.5-0.8,0.5
		c-0.4,0-1.3-1-1.3-1.3S141.8,199.5,142.2,199.5z M137.7,104.6l0.2-0.8h0.9c1.3,0,1.8,1.4,1,2.2C138.8,107,137.4,106,137.7,104.6z
		 M137.7,111.2l0.2-0.8h0.9c1.3,0,1.8,1.4,1,2.2C138.8,113.6,137.4,112.6,137.7,111.2z M137.8,117.7c0.7-1.1,2.4-0.7,2.4,0.6
		c0,0.3-0.2,0.8-0.5,1C138.7,120.2,137.1,118.9,137.8,117.7z M139.7,145.5c-0.6,0.6-0.9,0.7-1.6,0.1c-1.2-0.9,0.1-2.8,1.4-2
		C140.3,144.1,140.4,144.9,139.7,145.5z M139.7,152.1c-0.3,0.3-0.7,0.5-0.8,0.5c-0.5,0-1.4-1.1-1.3-1.6c0.2-0.8,1.2-1.3,1.8-0.9
		C140.3,150.7,140.4,151.5,139.7,152.1z M139.7,138.9c-0.6,0.6-0.9,0.7-1.6,0.1c-1.2-0.9,0.1-2.8,1.4-2
		C140.3,137.5,140.4,138.3,139.7,138.9z M139.7,132.5l-0.5,0.4l-0.8-0.4c-1-0.4-1-1.6-0.1-2.2C139.5,129.6,140.8,131.6,139.7,132.5z
		 M139.7,125.9l-0.5,0.4l-0.8-0.4c-1-0.4-1-1.6-0.1-2.2C139.5,123,140.8,125,139.7,125.9z M138.8,156.6c1.3,0,1.8,1.2,0.9,2.1
		c-0.3,0.3-0.6,0.5-0.8,0.5c-0.3,0-1.3-0.9-1.3-1.2C137.6,157.5,138.4,156.6,138.8,156.6z M138.9,163.2c0.4,0,0.8,0.3,1,0.6
		c0.4,0.8,0.4,0.9-0.2,1.5c-0.3,0.3-0.6,0.5-0.8,0.5c-0.3,0-1.3-0.9-1.3-1.2C137.6,164.1,138.4,163.2,138.9,163.2z M138.9,169.8
		c0.4,0,0.8,0.3,1,0.6c0.4,0.8,0.4,0.9-0.2,1.5c-0.3,0.3-0.6,0.5-0.8,0.5c-0.3,0-1.3-0.9-1.3-1.2
		C137.6,170.7,138.4,169.8,138.9,169.8z M138.7,176.4c0.5,0,1.5,0.9,1.5,1.3c0,0.2-0.2,0.5-0.5,0.8s-0.6,0.5-0.8,0.5
		c-0.3,0-1.3-0.9-1.3-1.2C137.6,177.3,138.3,176.4,138.7,176.4z M138.9,183c0.4,0,1.3,1,1.3,1.3c0,0.2-0.2,0.5-0.5,0.8
		s-0.6,0.5-0.8,0.5c-0.4,0-1.3-1-1.3-1.3S138.5,183,138.9,183z M138.9,189.6c0.4,0,1.3,1,1.3,1.3c0,0.2-0.2,0.5-0.5,0.8
		s-0.6,0.5-0.8,0.5c-0.4,0-1.3-1-1.3-1.3S138.5,189.6,138.9,189.6z M135,113.9c0.4-0.3,0.7-0.3,1.2,0c0.9,0.5,0.9,1.7,0.1,2.1
		C134.7,116.8,133.5,114.8,135,113.9z M135,107.3c0.4-0.3,0.7-0.3,1.2,0c0.9,0.5,0.9,1.7,0.1,2.1C134.7,110.2,133.5,108.2,135,107.3
		z M136.3,129.2c-0.8,0.4-1.6,0.1-1.9-0.7c-0.4-1.2,1.2-2.1,2.1-1.2C137.1,127.9,137,128.8,136.3,129.2z M136.4,135.6
		c-0.3,0.3-0.7,0.5-0.8,0.5c-0.5,0-1.4-1.1-1.3-1.6c0.2-0.8,1.2-1.3,1.8-0.9C137,134.2,137.1,135,136.4,135.6z M136.3,122.6
		c-0.8,0.4-1.6,0.1-1.9-0.7c-0.4-1.2,1.2-2.1,2.1-1.2C137.1,121.3,137,122.2,136.3,122.6z M136.4,102.8l-0.5,0.4l-0.8-0.4
		c-1-0.4-1-1.6-0.1-2.2C136.2,99.9,137.5,101.9,136.4,102.8z M135.6,140.1c0.4,0,0.8,0.3,1,0.6c0.4,0.8,0.4,0.9-0.2,1.5
		c-0.3,0.3-0.6,0.5-0.8,0.5c-0.3,0-1.3-0.9-1.3-1.2C134.3,141,135.1,140.1,135.6,140.1z M135.6,146.7c0.4,0,0.8,0.3,1,0.6
		c0.4,0.8,0.4,0.9-0.2,1.5c-0.3,0.3-0.6,0.5-0.8,0.5c-0.3,0-1.3-0.9-1.3-1.2C134.3,147.6,135.1,146.7,135.6,146.7z M135.6,153.3
		c0.4,0,0.8,0.3,1,0.6c0.4,0.8,0.4,0.9-0.2,1.5c-0.3,0.3-0.6,0.5-0.8,0.5c-0.3,0-1.3-0.9-1.3-1.2
		C134.3,154.2,135.1,153.3,135.6,153.3z M131.7,90.8c0.4-0.3,0.7-0.3,1.2,0c0.9,0.5,0.9,1.7,0.1,2.1
		C131.4,93.7,130.2,91.7,131.7,90.8z M132.9,97.4c0.8,0.5,0.9,1.3,0.2,1.9c-0.3,0.3-0.7,0.5-0.8,0.5c-0.5,0-1.4-1.1-1.3-1.6
		C131.2,97.4,132.2,97,132.9,97.4z M132.9,104c0.8,0.5,0.9,1.3,0.2,1.9c-0.3,0.3-0.7,0.5-0.8,0.5c-0.5,0-1.4-1.1-1.3-1.6
		C131.2,104,132.2,103.6,132.9,104z M132.9,110.6c0.8,0.5,0.9,1.3,0.2,1.9c-0.3,0.3-0.7,0.5-0.8,0.5c-0.5,0-1.4-1.1-1.3-1.6
		C131.2,110.6,132.2,110.2,132.9,110.6z M132.3,117c0.4,0,0.8,0.3,1,0.6c0.4,0.8,0.4,0.9-0.2,1.5c-0.3,0.3-0.6,0.5-0.8,0.5
		c-0.3,0-1.3-0.9-1.3-1.2C131,117.8,131.8,117,132.3,117z M132.3,123.6c0.4,0,0.8,0.3,1,0.6c0.4,0.8,0.4,0.9-0.2,1.5
		c-0.3,0.3-0.6,0.5-0.8,0.5c-0.3,0-1.3-0.9-1.3-1.2C131,124.4,131.8,123.6,132.3,123.6z M132.3,130.2c0.4,0,0.8,0.3,1,0.6
		c0.4,0.8,0.4,0.9-0.2,1.5c-0.3,0.3-0.6,0.5-0.8,0.5c-0.3,0-1.3-0.9-1.3-1.2C131,131.1,131.8,130.2,132.3,130.2z M128.9,87.3
		c1.3,0,1.8,1.2,0.9,2.1c-0.3,0.3-0.6,0.5-0.8,0.5c-0.3,0-1.3-0.9-1.3-1.2C127.7,88.2,128.5,87.3,128.9,87.3z M129,93.9
		c0.4,0,0.8,0.3,1,0.6c0.4,0.8,0.4,0.9-0.2,1.5c-0.3,0.3-0.6,0.5-0.8,0.5c-0.3,0-1.3-0.9-1.3-1.2C127.7,94.7,128.5,93.9,129,93.9z
		 M129,100.5c0.4,0,0.8,0.3,1,0.6c0.4,0.8,0.4,0.9-0.2,1.5c-0.3,0.3-0.6,0.5-0.8,0.5c-0.3,0-1.3-0.9-1.3-1.2
		C127.7,101.3,128.5,100.5,129,100.5z M129,107.1c0.4,0,0.8,0.3,1,0.6c0.4,0.8,0.4,0.9-0.2,1.5c-0.3,0.3-0.6,0.5-0.8,0.5
		c-0.3,0-1.3-0.9-1.3-1.2C127.7,107.9,128.5,107.1,129,107.1z M122.4,80.7c0.4,0,1.3,0.9,1.3,1.3c0,0.1-0.3,0.5-0.7,0.9l-0.7,0.6
		l-0.7-0.6c-0.4-0.3-0.7-0.7-0.7-0.9C121.1,81.6,122,80.7,122.4,80.7z M122.4,87.3c0.4,0,1.3,0.9,1.3,1.3c0,0.1-0.3,0.5-0.7,0.9
		l-0.7,0.6l-0.7-0.6c-0.4-0.3-0.7-0.7-0.7-0.9C121.1,88.2,122,87.3,122.4,87.3z M122.4,93.9c0.4,0,1.3,0.9,1.3,1.3
		c0,0.1-0.3,0.5-0.6,0.8l-0.6,0.5l-0.7-0.5c-0.4-0.3-0.7-0.6-0.7-0.8C121.1,94.8,122,93.9,122.4,93.9z M122.4,100.5
		c0.3,0,1.3,0.9,1.3,1.3c0,0.1-0.2,0.4-0.4,0.6c-0.7,0.7-2.2,0.2-2.2-0.6C121.1,101.4,122.1,100.5,122.4,100.5z M113,86.2
		c-0.8,0.3-1.5-0.1-1.5-0.8c0-0.3,0.2-0.8,0.5-1l0.5-0.4l0.5,0.4c0.3,0.2,0.5,0.7,0.5,1S113.3,86.1,113,86.2z M113,92.8
		c-0.7,0.3-1.5-0.1-1.5-0.8c0-0.9,0.7-1.4,1.4-1C113.6,91.3,113.7,92.5,113,92.8z M113,79.6c-0.8,0.3-1.5-0.1-1.5-0.8
		c0-0.3,0.2-0.8,0.5-1l0.5-0.4l0.5,0.4c0.3,0.2,0.5,0.7,0.5,1S113.3,79.5,113,79.6z M111.8,71.3l0.6-0.6l0.5,0.4
		c0.5,0.4,0.7,1.4,0.3,1.8c-0.4,0.4-1.4,0.2-1.7-0.4l-0.3-0.6L111.8,71.3z M112.9,97.5c0.7,0.4,0.8,1.6,0.1,1.8
		c-0.7,0.3-1.5-0.1-1.5-0.8C111.5,97.7,112.2,97.2,112.9,97.5z M113,198.2l-0.5,0.4l-0.5-0.5c-0.6-0.6-0.3-1.6,0.6-1.6
		c0.3,0,0.6,0.1,0.6,0.1c0,0.1,0.1,0.3,0.2,0.6C113.4,197.5,113.3,197.9,113,198.2z M113,191.6l-0.5,0.4l-0.5-0.5
		c-0.6-0.6-0.3-1.6,0.6-1.6c0.3,0,0.6,0.1,0.6,0.1c0,0.1,0.1,0.3,0.2,0.6C113.4,190.9,113.3,191.3,113,191.6z M113,185l-0.5,0.4
		l-0.5-0.5c-0.6-0.6-0.3-1.6,0.6-1.6c0.3,0,0.6,0.1,0.6,0.1c0,0.1,0.1,0.3,0.2,0.6C113.4,184.3,113.3,184.7,113,185z M113,178.4
		l-0.5,0.4l-0.5-0.5c-0.6-0.6-0.3-1.6,0.6-1.6c0.3,0,0.6,0.1,0.6,0.1c0,0.1,0.1,0.3,0.2,0.6C113.4,177.7,113.3,178.1,113,178.4z
		 M113,171.8l-0.5,0.4l-0.5-0.5c-0.7-0.7-0.3-1.6,0.5-1.6c0.4,0,0.7,0.1,0.7,0.1c0,0.1,0.1,0.3,0.2,0.6
		C113.4,171.1,113.3,171.5,113,171.8z M113,165.2l-0.5,0.4l-0.5-0.5c-0.7-0.7-0.3-1.6,0.6-1.5C113.5,163.7,113.7,164.6,113,165.2z
		 M113,158.6l-0.5,0.4l-0.5-0.5c-0.7-0.7-0.3-1.6,0.6-1.5C113.5,157.1,113.7,158,113,158.6z M113,152l-0.5,0.4l-0.5-0.5
		c-0.7-0.7-0.3-1.6,0.6-1.5C113.5,150.5,113.7,151.4,113,152z M113,145.5c-0.7,0.3-1.6-0.6-1.3-1.3c0.1-0.3,0.5-0.5,1-0.4
		C113.5,143.9,113.8,145.2,113,145.5z M113,138.9c-0.8,0.3-1.5-0.1-1.4-0.9c0.1-0.5,0.3-0.7,0.9-0.7
		C113.5,137.3,113.9,138.6,113,138.9z M113,132.3c-0.8,0.3-1.5-0.1-1.4-0.9c0.1-0.5,0.3-0.7,0.9-0.7
		C113.5,130.7,113.9,132,113,132.3z M111.6,111.6c0.1-1,1.7-1,1.9,0c0.1,0.4-0.1,0.8-0.3,0.9l0,0
		C112.5,112.9,111.5,112.4,111.6,111.6z M113.4,118.2c0.1,0.4-0.1,0.8-0.3,0.9l0,0c-0.7,0.4-1.7-0.2-1.6-0.9
		C111.7,117.2,113.3,117.2,113.4,118.2z M113.4,124.8c0.1,0.4-0.1,0.8-0.3,0.9l0,0c-0.7,0.4-1.7-0.2-1.6-0.9
		C111.7,123.8,113.3,123.8,113.4,124.8z M113,106c-0.9,0.3-1.6-0.1-1.4-0.9c0.1-0.5,0.3-0.7,0.9-0.7
		C113.5,104.3,113.9,105.6,113,106z M115,74.6c0.3-0.3,0.6-0.5,0.8-0.5s1.3,0.9,1.3,1.1c0,0-0.2,0.3-0.3,0.6
		c-0.4,0.8-1.5,0.7-1.9-0.1l-0.3-0.6L115,74.6z M115.2,87.8l0.7-0.6l0.6,0.6l0.6,0.6l-0.3,0.6c-0.4,0.8-1.5,0.7-1.9,0l-0.3-0.6
		L115.2,87.8z M114.5,81.8l0.6-0.5c1-0.9,2.3,0,1.6,1.2c-0.4,0.7-1.5,0.7-1.9-0.1L114.5,81.8z M115.2,94.4l0.7-0.6l0.6,0.6l0.6,0.6
		l-0.3,0.6c-0.4,0.8-1.5,0.7-1.9,0l-0.3-0.6L115.2,94.4z M116.3,122.5c-0.7,0.3-1.5-0.1-1.5-0.8c0-0.9,0.7-1.4,1.4-1
		C116.9,121,117,122.2,116.3,122.5z M116.3,129.1c-0.7,0.3-1.5-0.1-1.5-0.8c0-0.9,0.7-1.4,1.4-1C116.9,127.6,117,128.8,116.3,129.1z
		 M116.3,115.9c-0.8,0.3-1.5-0.1-1.5-0.8c0-0.3,0.2-0.8,0.5-1l0.5-0.4l0.5,0.4c0.3,0.2,0.5,0.7,0.5,1S116.6,115.8,116.3,115.9z
		 M116.3,109.3c-0.8,0.3-1.5-0.1-1.5-0.8c0-0.3,0.2-0.8,0.5-1l0.5-0.4l0.5,0.4c0.3,0.2,0.5,0.7,0.5,1S116.6,109.2,116.3,109.3z
		 M116.2,133.8c0.7,0.3,0.8,1.5,0.3,1.8c-0.6,0.3-1.6-0.2-1.6-0.8C114.8,134,115.5,133.5,116.2,133.8z M114.9,147.9
		c0.1-1,1.7-1,1.9,0c0.1,0.4-0.1,0.8-0.3,0.9l0,0C115.8,149.2,114.8,148.7,114.9,147.9z M116.7,154.5c0.1,0.4-0.1,0.8-0.3,0.9l0,0
		c-0.7,0.4-1.7-0.2-1.6-0.9C115,153.5,116.6,153.5,116.7,154.5z M116.3,201.5l-0.5,0.4l-0.5-0.5c-0.7-0.7-0.3-1.6,0.5-1.6
		c0.4,0,0.7,0.1,0.7,0.1c0,0.1,0.1,0.3,0.2,0.6C116.7,200.8,116.6,201.2,116.3,201.5z M116.3,194.9l-0.5,0.4l-0.5-0.5
		c-0.7-0.7-0.3-1.6,0.5-1.6c0.4,0,0.7,0.1,0.7,0.1c0,0.1,0.1,0.3,0.2,0.6C116.7,194.2,116.6,194.6,116.3,194.9z M116.3,188.3
		l-0.5,0.4l-0.5-0.5c-0.7-0.7-0.3-1.6,0.6-1.5C116.8,186.8,117,187.7,116.3,188.3z M116.3,181.7l-0.5,0.4l-0.5-0.5
		c-0.7-0.7-0.3-1.6,0.6-1.5C116.8,180.2,117,181.1,116.3,181.7z M116.3,175.1l-0.5,0.4l-0.5-0.5c-0.7-0.7-0.3-1.6,0.6-1.5
		C116.8,173.6,117,174.5,116.3,175.1z M116.3,168.6c-0.7,0.3-1.6-0.6-1.3-1.3c0.1-0.3,0.5-0.5,1-0.4
		C116.8,167,117.1,168.3,116.3,168.6z M116.3,162.1c-0.3,0.1-0.8,0-1.1-0.3c-0.7-0.7-0.3-1.6,0.6-1.5
		C116.8,160.4,117.1,161.8,116.3,162.1z M116.3,142.3c-0.9,0.3-1.6-0.1-1.4-0.9c0.1-0.5,0.3-0.7,0.9-0.7
		C116.8,140.6,117.2,141.9,116.3,142.3z M116.7,102.3c-0.2,0.3-0.7,0.5-1.1,0.5c-0.8-0.2-1-1.4-0.3-1.9l0.5-0.4l0.6,0.6l0.6,0.6
		L116.7,102.3z M118.6,143.7l0.5-0.4l0.5,0.4c0.3,0.2,0.5,0.7,0.5,1s-0.2,0.7-0.5,0.8c-0.8,0.3-1.5-0.1-1.5-0.8
		C118.1,144.4,118.3,143.9,118.6,143.7z M118.1,138.2c0-0.3,0.2-0.8,0.5-1l0.5-0.4l0.5,0.4c0.3,0.2,0.5,0.7,0.5,1s-0.2,0.7-0.5,0.8
		C118.8,139.3,118.1,138.9,118.1,138.2z M119.7,150.4c0.5,0.5,0.5,1.6-0.1,1.8c-0.8,0.3-1.5-0.1-1.5-0.8
		C118.1,150.5,119.2,149.9,119.7,150.4z M118.2,164.4c0.1-1,1.7-1,1.9,0c0.1,0.4-0.1,0.8-0.3,0.9l0,0
		C119.1,165.7,118.1,165.2,118.2,164.4z M120,171c0.1,0.4-0.1,0.8-0.3,0.9l0,0c-0.7,0.4-1.7-0.2-1.6-0.9
		C118.3,170,119.9,170,120,171z M120,177.6c0.1,0.4-0.1,0.8-0.3,0.9l0,0c-0.7,0.4-1.7-0.2-1.6-0.9
		C118.3,176.6,119.9,176.6,120,177.6z M120,184.2c0.1,0.4-0.1,0.8-0.3,0.9l0,0c-0.7,0.4-1.7-0.2-1.6-0.9
		C118.3,183.2,119.9,183.2,120,184.2z M119.6,198.3c-0.7,0.3-1.6-0.6-1.3-1.3c0.1-0.3,0.5-0.5,1-0.4
		C120.1,196.7,120.4,198,119.6,198.3z M119.6,191.7c-0.7,0.3-1.6-0.6-1.3-1.3c0.1-0.3,0.5-0.5,1-0.4
		C120.1,190.1,120.4,191.4,119.6,191.7z M119.6,158.8c-0.9,0.3-1.6-0.1-1.4-0.9c0.1-0.5,0.3-0.7,0.9-0.7
		C120.1,157.1,120.5,158.4,119.6,158.8z M120.1,131.9c-0.4,0.8-1.5,0.7-1.9,0l-0.3-0.6l0.7-0.6l0.7-0.6l0.6,0.6l0.6,0.6L120.1,131.9
		z M120.1,125.3c-0.4,0.8-1.5,0.7-1.9,0l-0.3-0.6l0.7-0.6l0.7-0.6l0.6,0.6l0.6,0.6L120.1,125.3z M120.1,118.7
		c-0.4,0.8-1.5,0.7-1.9,0l-0.3-0.6l0.7-0.6l0.7-0.6l0.6,0.6l0.6,0.6L120.1,118.7z M117.8,111.5l0.6-0.5c1-0.9,2.3,0,1.6,1.2
		c-0.4,0.7-1.5,0.7-1.9-0.1L117.8,111.5z M120.1,105.5c-0.4,0.8-1.5,0.7-1.9-0.1l-0.3-0.6l0.5-0.5c0.3-0.3,0.6-0.5,0.8-0.5
		s1.3,0.9,1.3,1.1C120.4,104.9,120.2,105.2,120.1,105.5z M117.8,85l0.5-0.5c0.7-0.7,1-0.7,1.6,0c0.6,0.6,0.6,0.9,0.1,1.4
		c-0.6,0.6-1.5,0.5-1.9-0.2L117.8,85z M120.1,98.9c-0.4,0.8-1.5,0.7-1.9-0.1l-0.3-0.6l0.5-0.5c0.3-0.3,0.6-0.5,0.8-0.5
		s1.3,0.9,1.3,1.1C120.4,98.3,120.2,98.6,120.1,98.9z M120.1,92.3c-0.4,0.8-1.5,0.7-1.9-0.1l-0.3-0.6l0.5-0.5
		c0.3-0.3,0.6-0.5,0.8-0.5s1.3,0.9,1.3,1.1C120.4,91.7,120.2,92,120.1,92.3z M120,79.3c-0.7,0.7-2.2,0.2-2.2-0.6
		c0-0.3,1-1.3,1.3-1.3s1.3,0.9,1.3,1.3C120.4,78.8,120.2,79.1,120,79.3z M122.4,107.1c0.3,0,1.3,0.9,1.3,1.3c0,0.1-0.2,0.4-0.4,0.6
		c-0.7,0.7-2.2,0.2-2.2-0.6C121.1,108,122.1,107.1,122.4,107.1z M123.4,115.4c-0.4,0.8-1.5,0.7-1.9-0.1l-0.3-0.6l0.5-0.5
		c0.3-0.3,0.6-0.5,0.8-0.5s1.3,0.9,1.3,1.1C123.7,114.8,123.5,115.1,123.4,115.4z M123.7,121.4c0,0-0.2,0.3-0.3,0.6
		c-0.4,0.8-1.5,0.7-1.9-0.1l-0.3-0.6l0.5-0.5c0.3-0.3,0.6-0.5,0.8-0.5C122.6,120.3,123.7,121.2,123.7,121.4z M121.6,127.4
		c0.3-0.3,0.6-0.5,0.8-0.5s1.3,0.9,1.3,1.1c0,0-0.2,0.3-0.3,0.6c-0.4,0.8-1.5,0.7-1.9-0.1l-0.3-0.6L121.6,127.4z M123.3,135.2
		c-0.4,0.7-1.5,0.7-1.9-0.1l-0.3-0.6l0.6-0.5C122.7,133.1,124,134.1,123.3,135.2z M123.3,141.8c-0.4,0.7-1.5,0.7-1.9-0.1l-0.3-0.6
		l0.6-0.5C122.7,139.7,124,140.7,123.3,141.8z M121.8,147.2l0.7-0.6l0.6,0.6l0.6,0.6l-0.3,0.6c-0.4,0.8-1.5,0.7-1.9,0l-0.3-0.6
		L121.8,147.2z M122.9,168.7c-0.8,0.3-1.5-0.1-1.5-0.8c0-0.3,0.2-0.8,0.5-1l0.5-0.4l0.5,0.4c0.3,0.2,0.5,0.7,0.5,1
		S123.2,168.6,122.9,168.7z M123.4,174.5c0,0.3-0.2,0.7-0.5,0.8c-0.8,0.3-1.5-0.1-1.5-0.8c0-0.3,0.2-0.8,0.5-1l0.5-0.4l0.5,0.4
		C123.2,173.6,123.4,174.1,123.4,174.5z M122.9,162.1c-0.8,0.3-1.5-0.1-1.5-0.8c0-0.3,0.2-0.8,0.5-1l0.5-0.4l0.5,0.4
		c0.3,0.2,0.5,0.7,0.5,1S123.2,162,122.9,162.1z M122.8,180.1c0.7,0.4,0.8,1.6,0.1,1.8c-0.7,0.3-1.5-0.1-1.5-0.8
		C121.4,180.2,122.1,179.7,122.8,180.1z M123.1,201.6L123.1,201.6c-0.7,0.4-1.7-0.2-1.6-0.9c0.1-1,1.7-1,1.9,0
		C123.4,201.1,123.3,201.5,123.1,201.6z M122.9,195.1c-0.9,0.3-1.6-0.1-1.4-0.9c0.1-0.5,0.3-0.7,0.9-0.7
		C123.4,193.4,123.8,194.7,122.9,195.1z M122.9,188.5c-0.9,0.3-1.6-0.1-1.4-0.9c0.1-0.5,0.3-0.7,0.9-0.7
		C123.4,186.8,123.8,188.1,122.9,188.5z M123.3,155.1c-0.2,0.3-0.7,0.5-1.1,0.5c-0.8-0.2-1-1.4-0.3-1.9l0.5-0.4l0.6,0.6l0.6,0.6
		L123.3,155.1z M124.9,137.3c0.7-0.7,1-0.7,1.6,0c0.6,0.6,0.6,0.9,0.1,1.4c-0.6,0.6-1.5,0.5-1.9-0.2l-0.3-0.6L124.9,137.3z
		 M124.9,130.7c0.7-0.7,1-0.7,1.6,0c0.7,0.7,0.7,0.9-0.1,1.5C125.4,133.2,123.9,131.7,124.9,130.7z M124.9,143.9
		c0.7-0.7,1-0.7,1.6,0c0.6,0.6,0.6,0.9,0.1,1.4c-0.6,0.6-1.5,0.5-1.9-0.2l-0.3-0.6L124.9,143.9z M126.2,198.4
		c-0.7,0.3-1.5-0.1-1.5-0.8c0-0.9,0.7-1.4,1.4-1C126.8,196.9,126.9,198.1,126.2,198.4z M126.2,191.8c-0.8,0.3-1.5-0.1-1.5-0.8
		c0-0.3,0.2-0.8,0.5-1l0.5-0.4l0.5,0.4c0.3,0.2,0.5,0.7,0.5,1S126.5,191.7,126.2,191.8z M126.2,185.2c-0.8,0.3-1.5-0.1-1.5-0.8
		c0-0.3,0.2-0.8,0.5-1l0.5-0.4l0.5,0.4c0.3,0.2,0.5,0.7,0.5,1S126.5,185.1,126.2,185.2z M126.7,178.1c-0.4,0.8-1.5,0.7-1.9,0
		l-0.3-0.6l0.7-0.6l0.7-0.6l0.6,0.6l0.6,0.6L126.7,178.1z M126.7,171.5c-0.4,0.8-1.5,0.7-1.9,0l-0.3-0.6l0.7-0.6l0.7-0.6l0.6,0.6
		l0.6,0.6L126.7,171.5z M124.4,164.3l0.6-0.5c1-0.9,2.3,0,1.6,1.2c-0.4,0.7-1.5,0.7-1.9-0.1L124.4,164.3z M126.7,158.3
		c-0.4,0.8-1.5,0.7-1.9-0.1l-0.3-0.6l0.5-0.5c0.3-0.3,0.6-0.5,0.8-0.5s1.3,0.9,1.3,1.1C127,157.7,126.8,158,126.7,158.3z
		 M126.7,151.7c-0.4,0.8-1.5,0.7-1.9-0.1l-0.3-0.6l0.5-0.5c0.3-0.3,0.6-0.5,0.8-0.5s1.3,0.9,1.3,1.1
		C127,151.1,126.8,151.4,126.7,151.7z M126.4,125.7l-0.6,0.5l-0.7-0.5c-0.4-0.3-0.7-0.6-0.7-0.8c0-0.4,1-1.3,1.3-1.3
		c0.4,0,1.3,0.9,1.3,1.3C127,125,126.8,125.4,126.4,125.7z M126.4,119.1l-0.6,0.5l-0.7-0.5c-0.4-0.3-0.7-0.6-0.7-0.8
		c0-0.4,1-1.3,1.3-1.3c0.4,0,1.3,0.9,1.3,1.3C127,118.4,126.8,118.8,126.4,119.1z M126.4,112.5l-0.7,0.6l-0.7-0.6
		c-0.4-0.3-0.7-0.7-0.7-0.9c0-0.3,1-1.3,1.3-1.3c0.4,0,1.3,0.9,1.3,1.3C127,111.8,126.7,112.2,126.4,112.5z M126.4,105.9l-0.7,0.6
		l-0.7-0.6c-0.4-0.3-0.7-0.7-0.7-0.9c0-0.3,1-1.3,1.3-1.3c0.4,0,1.3,0.9,1.3,1.3C127,105.2,126.7,105.6,126.4,105.9z M126.5,99.3
		c-0.3,0.3-0.6,0.5-0.8,0.5c-0.4,0-1.3-1-1.3-1.3c0-0.4,1-1.3,1.3-1.3c0.4,0,1.3,1,1.3,1.3C127,98.7,126.8,99,126.5,99.3z
		 M126.5,92.7c-0.3,0.3-0.6,0.5-0.8,0.5c-0.4,0-1.3-1-1.3-1.3c0-0.4,1-1.3,1.3-1.3c0.4,0,1.3,1,1.3,1.3
		C127,92.1,126.8,92.4,126.5,92.7z M126.5,86.1c-0.3,0.3-0.6,0.5-0.8,0.5c-0.4,0-1.3-1-1.3-1.3s1-1.3,1.3-1.3c0.4,0,1.3,1,1.3,1.3
		C127,85.5,126.8,85.8,126.5,86.1z M130,201.2c-0.4,0.8-1.5,0.7-1.9,0l-0.3-0.6l0.7-0.6l0.7-0.6l0.6,0.6l0.6,0.6L130,201.2z
		 M130,194.6c-0.4,0.8-1.5,0.7-1.9,0l-0.3-0.6l0.7-0.6l0.7-0.6l0.6,0.6l0.6,0.6L130,194.6z M130,188c-0.4,0.8-1.5,0.7-1.9-0.1
		l-0.3-0.6l0.5-0.5c0.3-0.3,0.6-0.5,0.8-0.5s1.3,0.9,1.3,1.1C130.3,187.4,130.1,187.7,130,188z M127.7,167.5l0.5-0.5
		c0.7-0.7,1-0.7,1.6,0c0.6,0.6,0.6,0.9,0.1,1.4c-0.6,0.6-1.5,0.5-1.9-0.2L127.7,167.5z M130,181.4c-0.4,0.8-1.5,0.7-1.9-0.1
		l-0.3-0.6l0.5-0.5c0.3-0.3,0.6-0.5,0.8-0.5s1.3,0.9,1.3,1.1C130.3,180.8,130.1,181.1,130,181.4z M130,174.8
		c-0.4,0.8-1.5,0.7-1.9-0.1l-0.3-0.6l0.5-0.5c0.3-0.3,0.6-0.5,0.8-0.5s1.3,0.9,1.3,1.1C130.3,174.2,130.1,174.5,130,174.8z
		 M129.9,161.8c-0.7,0.7-2.2,0.2-2.2-0.6c0-0.3,1-1.3,1.3-1.3s1.3,0.9,1.3,1.3C130.3,161.3,130.1,161.6,129.9,161.8z M129.9,155.2
		c-0.7,0.7-2.2,0.2-2.2-0.6c0-0.3,1-1.3,1.3-1.3s1.3,0.9,1.3,1.3C130.3,154.7,130.1,155,129.9,155.2z M129.7,148.8l-0.7,0.6
		l-0.7-0.6c-0.4-0.3-0.7-0.7-0.7-0.9c0-0.3,1-1.3,1.3-1.3c0.4,0,1.3,0.9,1.3,1.3C130.3,148.1,130,148.5,129.7,148.8z M129.7,142.2
		l-0.7,0.6l-0.7-0.6c-0.4-0.3-0.7-0.7-0.7-0.9c0-0.3,1-1.3,1.3-1.3c0.4,0,1.3,0.9,1.3,1.3C130.3,141.5,130,141.9,129.7,142.2z
		 M129.7,135.6l-0.7,0.6l-0.7-0.6c-0.4-0.3-0.7-0.7-0.7-0.9c0-0.3,1-1.3,1.3-1.3c0.4,0,1.3,0.9,1.3,1.3
		C130.3,134.9,130,135.3,129.7,135.6z M129.8,129c-0.3,0.3-0.6,0.5-0.8,0.5c-0.3,0-1.3-1.1-1.3-1.4s1-1.2,1.3-1.2
		c0.4,0,1.3,1,1.3,1.3C130.3,128.4,130.1,128.7,129.8,129z M129.8,122.4c-0.3,0.3-0.6,0.5-0.8,0.5c-0.4,0-1.3-1-1.3-1.3
		c0-0.4,1-1.3,1.3-1.3s1.3,1,1.3,1.3C130.3,121.8,130.1,122.1,129.8,122.4z M129.8,115.8c-0.3,0.3-0.6,0.5-0.8,0.5
		c-0.4,0-1.3-1-1.3-1.3c0-0.4,1-1.3,1.3-1.3s1.3,1,1.3,1.3C130.3,115.2,130.1,115.5,129.8,115.8z M133.3,197.9
		c-0.4,0.8-1.5,0.7-1.9-0.1l-0.3-0.6l0.5-0.5c0.3-0.3,0.6-0.5,0.8-0.5s1.3,0.9,1.3,1.1C133.6,197.3,133.4,197.6,133.3,197.9z
		 M131.5,190.1c0.7-0.7,1-0.7,1.6,0c0.6,0.6,0.6,0.9,0.1,1.4c-0.6,0.6-1.5,0.5-1.9-0.2l-0.3-0.6L131.5,190.1z M131,184l0.5-0.5
		c0.7-0.7,1-0.7,1.6,0c0.6,0.6,0.6,0.9,0.1,1.4c-0.6,0.6-1.5,0.5-1.9-0.2L131,184z M133.2,178.3c-0.7,0.7-2.2,0.2-2.2-0.6
		c0-0.3,1-1.3,1.3-1.3s1.3,0.9,1.3,1.3C133.6,177.8,133.4,178.1,133.2,178.3z M133,171.9l-0.6,0.5l-0.7-0.5
		c-0.4-0.3-0.7-0.6-0.7-0.8c0-0.4,1-1.3,1.3-1.3c0.4,0,1.3,0.9,1.3,1.3C133.6,171.2,133.4,171.6,133,171.9z M133,165.3l-0.7,0.6
		l-0.7-0.6c-0.4-0.3-0.7-0.7-0.7-0.9c0-0.3,1-1.3,1.3-1.3c0.4,0,1.3,0.9,1.3,1.3C133.6,164.6,133.3,165,133,165.3z M133,158.7
		c-0.3,0.3-0.7,0.5-0.8,0.5c-0.3,0-1.2-1-1.2-1.3c0-0.4,1-1.3,1.3-1.3c0.4,0,1.3,0.9,1.3,1.3C133.6,158,133.3,158.4,133,158.7z
		 M133,152.1l-0.7,0.6l-0.7-0.6c-0.4-0.3-0.7-0.7-0.7-0.9c0-0.3,1-1.3,1.3-1.3c0.4,0,1.3,0.9,1.3,1.3
		C133.6,151.4,133.3,151.8,133,152.1z M133.1,145.5c-0.3,0.3-0.6,0.5-0.8,0.5c-0.4,0-1.3-1-1.3-1.3s1-1.3,1.3-1.3s1.3,1,1.3,1.3
		C133.6,144.9,133.4,145.2,133.1,145.5z M133.1,138.9c-0.3,0.3-0.6,0.5-0.8,0.5c-0.4,0-1.3-1-1.3-1.3s1-1.3,1.3-1.3s1.3,1,1.3,1.3
		C133.6,138.3,133.4,138.6,133.1,138.9z M136.3,201.6l-0.6,0.5l-0.7-0.5c-0.4-0.3-0.7-0.6-0.7-0.8c0-0.4,1-1.3,1.3-1.3
		c0.4,0,1.3,0.9,1.3,1.3C136.9,200.9,136.7,201.3,136.3,201.6z M136.3,195l-0.6,0.5L135,195c-0.4-0.3-0.7-0.6-0.7-0.8
		c0-0.4,1-1.3,1.3-1.3c0.4,0,1.3,0.9,1.3,1.3C136.9,194.3,136.7,194.7,136.3,195z M136.3,188.4l-0.7,0.6l-0.7-0.6
		c-0.4-0.3-0.7-0.7-0.7-0.9c0-0.3,1-1.3,1.3-1.3c0.4,0,1.3,0.9,1.3,1.3C136.9,187.7,136.6,188.1,136.3,188.4z M136.3,181.8
		c-0.3,0.3-0.7,0.5-0.8,0.5c-0.3,0-1.2-1-1.2-1.3c0-0.4,1-1.3,1.3-1.3c0.4,0,1.3,0.9,1.3,1.3C136.9,181.1,136.6,181.5,136.3,181.8z
		 M136.3,175.2l-0.7,0.6l-0.7-0.6c-0.4-0.3-0.7-0.7-0.7-0.9c0-0.3,1-1.3,1.3-1.3c0.4,0,1.3,0.9,1.3,1.3
		C136.9,174.5,136.6,174.9,136.3,175.2z M136.4,168.6c-0.3,0.3-0.6,0.5-0.8,0.5c-0.4,0-1.3-1-1.3-1.3s1-1.3,1.3-1.3
		c0.4,0,1.3,1,1.3,1.3C136.9,168,136.7,168.3,136.4,168.6z M136.4,162c-0.3,0.3-0.6,0.5-0.8,0.5c-0.3,0-1.3-0.9-1.3-1.2
		c0-0.5,0.7-1.4,1.1-1.4c0.5,0,1.5,0.9,1.5,1.3C136.9,161.4,136.7,161.7,136.4,162z M136.4,96.2c-1.1,0.9-2.7-0.4-2-1.6
		c0.7-1.1,2.4-0.7,2.4,0.6C136.9,95.5,136.7,96,136.4,96.2z M137.6,197.5c0-0.3,1-1.3,1.3-1.3c0.4,0,1.3,0.9,1.3,1.3
		c0,0.1-0.3,0.5-0.7,0.9l-0.7,0.6l-0.7-0.6C137.9,198,137.6,197.6,137.6,197.5z"/>
	<path class="st1" d="M70.1,58.2h34.2c2.3,0,4.2,2.5,4.2,5.5v0.1c0,2.2-1.4,4-3.1,4h-35c-1.9,0-3.5-1.9-3.6-4.4v-0.6
		C66.6,60.4,68.2,58.2,70.1,58.2z M44.5,20.7c5-4.3,9.8-6.2,15.5-6.2c6.1,0,13,2.1,22.2,5.5c1.9,0.7,3.9,1,6,1c5,0,9.9-2,14.5-3.9
		c4.4-1.8,8.6-3.6,12.7-3.6c2,0,4.8,0.3,8.3,2.8L103,54.7H67L44.5,20.7z"/>
	<path class="st2" d="M93.5,125.6H81.7c-4.3,0-7.8-3.5-7.8-7.8s3.5-7.8,7.8-7.8h20.8c2.8,0,5.2-2.3,5.2-5.2s-2.3-5.2-5.2-5.2h-9.8
		v-7.2c0-2.8-2.3-5.2-5.2-5.2c-2.8,0-5.2,2.3-5.2,5.2v7.2h-0.7c-10,0-18.1,8.1-18.1,18.1c0,10,8.1,18.1,18.1,18.1h11.8
		c4.3,0,7.8,3.5,7.8,7.8s-3.5,7.8-7.8,7.8H72.2c-2.8,0-5.2,2.3-5.2,5.2c0,2.8,2.3,5.2,5.2,5.2h10.2v7.4c0,2.8,2.3,5.2,5.2,5.2
		s5.2-2.3,5.2-5.2v-7.4h0.9h0.1c9.9-0.1,17.9-8.2,17.9-18.1C111.7,133.7,103.5,125.6,93.5,125.6z"/>
	<path class="st3" d="M132.9,205.6H35.3c-16.4,0-29.7-13.3-29.7-29.7c0-27.6,10.1-53.7,30-77.7C48.2,83,60.9,73.6,64.8,70.8h38.6
		c3.9,2.7,16.6,12.2,29.2,27.4c19.9,24,30,50.1,30,77.7C162.7,192.2,149.3,205.6,132.9,205.6z M40.8,20.7c5-4.3,9.8-6.2,15.5-6.2
		c6.1,0,13,2.1,22.2,5.5c1.9,0.7,3.9,1,6,1c5,0,9.9-2,14.5-3.9c4.4-1.8,8.6-3.6,12.7-3.6c2,0,4.8,0.3,8.3,2.8L99.4,54.7h-36
		L40.8,20.7z M66.5,57.8h34.2c2.3,0,4.2,2.5,4.2,5.5v0.1c0,2.2-1.4,4-3.1,4h-35c-1.9,0-3.5-1.9-3.6-4.4v-0.6
		C63.1,60,64.6,57.8,66.5,57.8z"/>
</g>
</svg>
