<?xml version="1.0" encoding="utf-8"?>
<!-- Generator: Adobe Illustrator 22.0.1, SVG Export Plug-In . SVG Version: 6.00 Build 0)  -->
<svg version="1.1" id="Layer_1" xmlns="http://www.w3.org/2000/svg" xmlns:xlink="http://www.w3.org/1999/xlink" x="0px" y="0px"
	 viewBox="0 0 114 128.5" style="enable-background:new 0 0 114 128.5;" xml:space="preserve">
<style type="text/css">
	.st0{fill:#DF8799;}
	.st1{fill:#D68797;}
	.st2{fill:none;stroke:#313031;stroke-width:4;stroke-miterlimit:10;}
	.st3{fill:none;stroke:#2F2E2E;stroke-width:3;stroke-miterlimit:10;}
</style>
<path class="st0" d="M17.7,118.5h78.7c1.4,0,2.5,1.2,2.5,2.6v0.1c0,1.5-1.1,2.6-2.5,2.6H17.7c-1.4,0-2.5-1.2-2.5-2.6v-0.1
	C15.3,119.7,16.4,118.5,17.7,118.5z"/>
<path class="st0" d="M17.7,6.5h78.7c1.4,0,2.5,1.2,2.5,2.6v0.1c0,1.5-1.1,2.6-2.5,2.6H17.7c-1.4,0-2.5-1.2-2.5-2.6V9.1
	C15.3,7.7,16.4,6.5,17.7,6.5z"/>
<path class="st1" d="M72.9,116.4c-0.6-0.6-0.3-1.6,0.6-1.6c0.3,0,0.6,0.1,0.6,0.1c0,0.1,0.1,0.3,0.2,0.6c0.1,0.3-0.1,0.7-0.3,0.9
	l-0.5,0.4H89c0,0,0.2-1.5,0.3-3.7c-0.1-0.1-0.2-0.2-0.2-0.3l-0.3-0.6l0.6-0.5l0,0c0.1-1.5,0.2-3.1,0.2-4.9c-0.2-0.1-0.4-0.3-0.5-0.5
	l-0.3-0.6l0.5-0.5c0.1-0.1,0.2-0.2,0.3-0.3c0-1.5,0-3.1-0.1-4.7c-0.2-0.1-0.3-0.3-0.4-0.5l-0.3-0.6l0.5-0.5c0.1-0.1,0.1-0.1,0.2-0.1
	c-0.2-3.3-0.7-6.4-1.5-8.9c-0.1,0.1-0.1,0.3-0.2,0.4c-0.4,0.8-1.5,0.7-1.9-0.1l-0.3-0.6l0.5-0.5c0.3-0.3,0.6-0.5,0.8-0.5
	c0.2,0,0.6,0.4,1,0.7c-0.5-1.3-1.1-2.4-1.8-3.2c-2.1-2.4-6.7-5.8-11.5-9.1c0,0.2-0.2,0.5-0.5,0.6c-0.7,0.3-1.6-0.6-1.3-1.3
	c0.1-0.1,0.2-0.2,0.3-0.3c-0.8-0.6-1.6-1.1-2.4-1.6l-0.3,0.2l-0.5-0.5c-0.1-0.1-0.2-0.3-0.3-0.4c-6.3-4.1-11.8-7.5-11.8-7.5
	s0,0-0.1,0.1l0,0c0.2,0.3,0.4,0.7,0.3,0.9c-0.2,0.6-1.3,0.5-1.5-0.1c0-0.1,0-0.1,0-0.2c-2.2,1.1-6.8,3.6-11.7,6.6
	c0,0.2-0.1,0.4-0.3,0.5c-0.2,0.1-0.4,0.1-0.6,0c-8.8,5.4-18.5,12.6-18.6,17.8c-0.3,9.7,0,25.7,0,25.7h48.5L72.9,116.4z M87.1,116.6
	c-0.8,0.3-1.5-0.1-1.5-0.8c0-0.3,0.2-0.8,0.5-1l0.5-0.4l0.5,0.4c0.3,0.2,0.5,0.7,0.5,1S87.4,116.5,87.1,116.6z M85.4,108.9l0.6-0.6
	l0.6-0.6l0.5,0.4c0.5,0.4,0.7,1.4,0.3,1.8c-0.4,0.4-1.4,0.2-1.7-0.4L85.4,108.9z M86,95.1l0.7-0.6l0.6,0.6l0.6,0.6l-0.3,0.6
	c-0.4,0.8-1.5,0.7-1.9,0l-0.3-0.6L86,95.1z M86,101.7l0.7-0.6l0.6,0.6l0.6,0.6l-0.3,0.6c-0.4,0.8-1.5,0.7-1.9,0l-0.3-0.6L86,101.7z
	 M27.2,116.1c-0.2,0-0.3-0.2-0.3-0.5s0.1-0.5,0.3-0.5c0.2,0,0.3,0.2,0.3,0.5C27.6,115.9,27.4,116.1,27.2,116.1z M27.2,109.5
	c-0.2,0-0.3-0.2-0.3-0.5s0.1-0.5,0.3-0.5c0.2,0,0.3,0.2,0.3,0.5C27.6,109.3,27.4,109.5,27.2,109.5z M27.2,102.9
	c-0.2,0-0.3-0.2-0.3-0.5s0.1-0.5,0.3-0.5c0.2,0,0.3,0.2,0.3,0.5C27.6,102.7,27.4,102.9,27.2,102.9z M27.2,96.2
	c-0.5-0.2-0.5-0.7-0.1-0.9c0.2-0.1,0.4,0.1,0.4,0.4C27.6,96.1,27.4,96.3,27.2,96.2z M27.6,89.5c-0.6,0.3-1.2-0.1-0.7-0.6
	c0.3-0.3,0.5-0.3,0.7,0C27.9,89.2,27.9,89.3,27.6,89.5z M43.6,78.8c0.7,0.1,0.9,0.8,0.5,1.1c-0.5,0.3-1-0.1-1-0.7
	C43.1,78.9,43.3,78.8,43.6,78.8z M36.6,79.4c0.1-0.2,0.3-0.4,0.6-0.4c0.2,0,0.5,0.2,0.6,0.4c0.1,0.2-0.2,0.4-0.6,0.4
	C36.7,79.8,36.5,79.6,36.6,79.4z M36.6,86c0.1-0.2,0.3-0.4,0.6-0.4c0.2,0,0.5,0.2,0.6,0.4c0.1,0.2-0.2,0.4-0.6,0.4
	C36.7,86.4,36.5,86.2,36.6,86z M36.6,92.6c0.1-0.2,0.3-0.4,0.6-0.4c0.2,0,0.5,0.2,0.6,0.4c0.1,0.2-0.2,0.4-0.6,0.4
	C36.7,93,36.5,92.8,36.6,92.6z M30.2,85.6c0.3-0.3,0.5-0.3,0.7,0c0.3,0.3,0.3,0.4,0,0.6C30.4,86.5,29.8,86.1,30.2,85.6z M30.5,112.7
	c-0.5-0.2-0.5-0.7-0.1-0.9c0.2-0.1,0.4,0.1,0.4,0.4C30.9,112.6,30.7,112.8,30.5,112.7z M30.9,106c-0.6,0.3-1.2-0.1-0.7-0.6
	c0.3-0.3,0.5-0.3,0.7,0C31.2,105.7,31.2,105.8,30.9,106z M30.9,99.4c-0.6,0.3-1.2-0.1-0.7-0.6c0.3-0.3,0.5-0.3,0.7,0
	C31.2,99.1,31.2,99.2,30.9,99.4z M30.8,92.8c-0.7,0.3-1.1-0.1-0.6-0.6l0.4-0.4l0.4,0.4l0.4,0.4L30.8,92.8z M34.1,115.9
	c-0.7,0.3-1.1-0.1-0.6-0.6l0.4-0.4l0.4,0.4l0.4,0.4L34.1,115.9z M33.5,108.7c0.3-0.3,0.5-0.3,0.7,0c0.3,0.3,0.3,0.4,0,0.6
	C33.7,109.6,33.1,109.2,33.5,108.7z M33.5,102.1c0.3-0.3,0.5-0.3,0.7,0c0.3,0.3,0.3,0.4,0,0.6C33.7,103,33.1,102.6,33.5,102.1z
	 M34.1,96.1c-0.7,0.3-1.1-0.1-0.6-0.6l0.4-0.4l0.4,0.4l0.4,0.4L34.1,96.1z M34.1,89.5c-0.7,0.3-1.1-0.1-0.6-0.6l0.4-0.4l0.4,0.4
	l0.4,0.4L34.1,89.5z M34.1,82.9c-0.7,0.3-1.1-0.1-0.6-0.6l0.4-0.4l0.4,0.4l0.4,0.4L34.1,82.9z M37.4,112.6c-0.7,0.3-1.1-0.1-0.6-0.6
	l0.4-0.4l0.4,0.4l0.4,0.4L37.4,112.6z M37.4,106c-0.7,0.3-1.1-0.1-0.6-0.6l0.4-0.4l0.4,0.4l0.4,0.4L37.4,106z M37.4,99.4
	c-0.7,0.3-1.1-0.1-0.6-0.6l0.4-0.4l0.4,0.4l0.4,0.4L37.4,99.4z M40.4,116.1c-0.4,0-0.7-0.2-0.6-0.4c0.1-0.2,0.3-0.4,0.6-0.4
	c0.2,0,0.5,0.2,0.6,0.4S40.9,116.1,40.4,116.1z M40.4,109.5c-0.4,0-0.7-0.2-0.6-0.4c0.1-0.2,0.3-0.4,0.6-0.4c0.2,0,0.5,0.2,0.6,0.4
	S40.9,109.5,40.4,109.5z M40.8,103c-0.1,0.1-0.5,0-0.7-0.1l-0.5-0.3l0.4-0.4c0.2-0.2,0.5-0.3,0.7-0.2
	C41.2,102.3,41.2,102.8,40.8,103z M40.8,96.4c-0.1,0.1-0.5,0-0.7-0.1L39.6,96l0.4-0.4c0.2-0.2,0.5-0.3,0.7-0.2
	C41.2,95.7,41.2,96.2,40.8,96.4z M40.8,89.8c-0.1,0.1-0.5,0-0.7-0.1l-0.5-0.3L40,89c0.2-0.2,0.5-0.3,0.7-0.2
	C41.2,89.1,41.2,89.6,40.8,89.8z M40.8,83.2c-0.1,0.1-0.5,0-0.7-0.1l-0.5-0.3l0.4-0.4c0.2-0.2,0.5-0.3,0.7-0.2
	C41.2,82.5,41.2,83,40.8,83.2z M40.8,76.7c-0.6,0.3-1.2-0.4-0.7-0.9c0.4-0.4,1.1-0.1,1.1,0.4C41.1,76.3,40.9,76.5,40.8,76.7z
	 M44.1,112.9c-0.1,0.1-0.5,0-0.7-0.1l-0.5-0.3l0.4-0.4c0.2-0.2,0.5-0.3,0.7-0.2C44.5,112.2,44.5,112.7,44.1,112.9z M44.1,106.4
	c-0.6,0.3-1.2-0.4-0.7-0.9c0.4-0.4,1.1-0.1,1.1,0.4C44.4,106,44.2,106.2,44.1,106.4z M44.1,99.8c-0.6,0.3-1.2-0.4-0.7-0.9
	c0.4-0.4,1.1-0.1,1.1,0.4C44.4,99.4,44.2,99.6,44.1,99.8z M44.1,93.2c-0.6,0.3-1.2-0.4-0.7-0.9c0.4-0.4,1.1-0.1,1.1,0.4
	C44.4,92.8,44.2,93,44.1,93.2z M44.1,86.6c-0.6,0.3-1.2-0.4-0.7-0.9c0.4-0.4,1.1-0.1,1.1,0.4C44.4,86.2,44.2,86.4,44.1,86.6z
	 M53.8,68.8c0.7,0.3,0.6,1.4-0.2,1.4c-0.4,0-0.7-0.2-0.7-0.6C53,68.8,53.3,68.6,53.8,68.8z M53.7,75.5c0.4,0,0.7,0.2,0.7,0.7
	c0,0.4-0.2,0.7-0.7,0.7c-0.4,0-0.7-0.2-0.7-0.7S53.2,75.5,53.7,75.5z M53.7,82.1c0.4,0,0.7,0.2,0.7,0.7c0,0.4-0.2,0.7-0.7,0.7
	c-0.4,0-0.7-0.2-0.7-0.7C53,82.3,53.2,82.1,53.7,82.1z M53.7,88.7c0.4,0,0.7,0.2,0.7,0.7c0,0.4-0.2,0.7-0.7,0.7
	c-0.4,0-0.7-0.2-0.7-0.7C53,88.9,53.2,88.7,53.7,88.7z M53.7,95.3c0.4,0,0.7,0.2,0.7,0.7c0,0.4-0.2,0.7-0.7,0.7
	c-0.4,0-0.7-0.2-0.7-0.7S53.2,95.3,53.7,95.3z M53.7,101.9c0.4,0,0.7,0.2,0.7,0.7c0,0.4-0.2,0.7-0.7,0.7c-0.4,0-0.7-0.2-0.7-0.7
	S53.2,101.9,53.7,101.9z M50.4,72.2c0.4,0,0.7,0.2,0.7,0.7c0,0.4-0.2,0.7-0.7,0.7c-0.4,0-0.7-0.2-0.7-0.7
	C49.7,72.4,49.9,72.2,50.4,72.2z M50.4,80c-0.9-0.2-1-1.3-0.1-1.3c0.5,0,0.7,0.2,0.7,0.7C51,79.9,50.8,80.1,50.4,80z M51,86.1
	c0,0.5-0.2,0.6-0.6,0.6c-0.9-0.2-1-1.3-0.1-1.3C50.8,85.4,51,85.6,51,86.1z M47.4,116.2c-0.5,0.3-1-0.1-1-0.7c0-0.3,0.2-0.5,0.6-0.4
	C47.6,115.3,47.9,115.9,47.4,116.2z M47.4,109.6c-0.5,0.3-1-0.1-1-0.7c0-0.3,0.2-0.5,0.6-0.4C47.6,108.7,47.9,109.3,47.4,109.6z
	 M47.4,103c-0.4,0.3-1-0.1-1-0.7c0-0.3,0.3-0.5,0.7-0.5C47.7,101.9,48,102.7,47.4,103z M46.9,95.3c0.7,0.1,0.9,0.8,0.5,1.1
	c-0.5,0.3-1-0.1-1-0.7C46.4,95.4,46.6,95.3,46.9,95.3z M46.4,89.1c0-0.3,0.2-0.5,0.5-0.4c0.7,0.1,0.9,0.8,0.5,1.1
	C46.9,90.1,46.4,89.8,46.4,89.1z M47.4,83.2c-0.4,0.3-1-0.1-1-0.7c0-0.3,0.3-0.5,0.7-0.5C47.7,82.1,48,82.9,47.4,83.2z M47.4,76.6
	c-0.4,0.3-1-0.1-1-0.7c0-0.3,0.3-0.5,0.7-0.5C47.7,75.5,48,76.3,47.4,76.6z M50.7,112.9c-0.4,0.3-1-0.1-1-0.7c0-0.3,0.3-0.5,0.7-0.5
	C51,111.8,51.3,112.6,50.7,112.9z M50.7,106.3c-0.4,0.3-1-0.1-1-0.7c0-0.3,0.3-0.5,0.7-0.5C51,105.2,51.3,106,50.7,106.3z
	 M50.7,99.7c-0.4,0.3-1-0.1-1-0.7c0-0.3,0.3-0.5,0.7-0.5C51,98.6,51.3,99.4,50.7,99.7z M50.8,93.1c-0.5,0.5-1.1,0.2-1.1-0.4
	c0-0.4,0.2-0.7,0.7-0.7C51,92,51.2,92.6,50.8,93.1z M53.7,116.4c-0.4,0-0.7-0.2-0.7-0.7c0-0.4,0.2-0.7,0.7-0.7
	c0.4,0,0.7,0.2,0.7,0.7C54.3,116.2,54.1,116.4,53.7,116.4z M54.1,109.6c-0.5,0.5-1.1,0.2-1.1-0.4c0-0.4,0.2-0.7,0.7-0.7
	C54.3,108.5,54.5,109.1,54.1,109.6z M70.1,78.5c0.4,0,0.7,0.1,0.7,0.1c0,0.1,0.1,0.3,0.2,0.6c0.1,0.3-0.1,0.7-0.3,0.9l-0.5,0.4
	L69.7,80C68.9,79.4,69.3,78.5,70.1,78.5z M70.6,86.7l-0.5,0.4l-0.5-0.5C69,86,69.3,85,70.2,85c0.3,0,0.6,0.1,0.6,0.1
	c0,0.1,0.1,0.3,0.2,0.6C71.1,86.1,70.9,86.5,70.6,86.7z M70.6,93.3l-0.5,0.4l-0.5-0.5c-0.6-0.6-0.3-1.6,0.6-1.6
	c0.3,0,0.6,0.1,0.6,0.1c0,0.1,0.1,0.3,0.2,0.6C71.1,92.7,70.9,93.1,70.6,93.3z M66.9,75.2c0.3,0,0.6,0.1,0.6,0.1
	c0,0.1,0.1,0.3,0.2,0.6c0.1,0.3-0.1,0.7-0.3,0.9l-0.5,0.4l-0.5-0.5C65.7,76.1,66.1,75.2,66.9,75.2z M56.5,78.8
	c0.6-0.5,1.1-0.1,1.1,0.7c0,0.4-0.2,0.6-0.6,0.6C56.2,80.1,55.9,79.3,56.5,78.8z M57,113.1c-0.4,0-0.7-0.2-0.7-0.7
	c0-0.4,0.2-0.7,0.7-0.7c0.4,0,0.7,0.2,0.7,0.7C57.6,112.9,57.4,113.1,57,113.1z M57,106.5c-0.4,0-0.7-0.2-0.7-0.7
	c0-0.4,0.2-0.7,0.7-0.7c0.4,0,0.7,0.2,0.7,0.7C57.6,106.3,57.4,106.5,57,106.5z M57,99.9h-0.7l0.1-0.7c0.1-0.4,0.3-0.7,0.6-0.7
	c0.3,0,0.5,0.3,0.6,0.7l0.1,0.7H57z M57,93.3h-0.7l0.1-0.7c0.1-0.4,0.3-0.7,0.6-0.7c0.3,0,0.5,0.3,0.6,0.7l0.1,0.7H57z M57.7,86.3
	c-0.3,0.7-1.4,0.5-1.4-0.2c0-0.4,0.2-0.7,0.4-0.9C57.1,84.9,57.9,85.7,57.7,86.3z M57.7,73.1c-0.3,0.7-1.4,0.5-1.4-0.2
	c0-0.4,0.2-0.7,0.4-0.9C57.1,71.7,57.9,72.5,57.7,73.1z M59.8,82.1l0.5-0.4l0.4,0.5c0.2,0.3,0.4,0.7,0.3,0.9
	c-0.2,0.6-1.3,0.5-1.5-0.1C59.4,82.7,59.5,82.3,59.8,82.1z M59.8,75.5l0.5-0.4l0.4,0.5c0.2,0.3,0.4,0.7,0.3,0.9
	c-0.2,0.6-1.3,0.5-1.5-0.1C59.4,76.1,59.5,75.7,59.8,75.5z M59.8,88.7l0.5-0.4l0.4,0.5c0.2,0.3,0.4,0.7,0.3,0.9
	c-0.2,0.6-1.3,0.5-1.5-0.1C59.4,89.3,59.5,88.9,59.8,88.7z M59.8,95.3l0.5-0.4l0.4,0.5c0.2,0.3,0.4,0.7,0.3,0.9
	c-0.2,0.6-1.3,0.5-1.5-0.1C59.4,95.9,59.5,95.5,59.8,95.3z M59.8,108.5c0.6-0.5,1.1-0.1,1.1,0.7c0,0.4-0.2,0.6-0.6,0.6
	C59.5,109.8,59.2,109,59.8,108.5z M60.3,116.4h-0.7l0.1-0.7c0.1-0.4,0.3-0.7,0.6-0.7c0.3,0,0.5,0.3,0.6,0.7l0.1,0.7H60.3z M61,102.8
	c-0.3,0.7-1.4,0.5-1.4-0.2c0-0.4,0.2-0.7,0.4-0.9C60.4,101.4,61.2,102.2,61,102.8z M61,70c-0.3,0.3-1.4,0.3-1.6-0.1
	c-0.1-0.2,0-0.6,0.3-0.9l0.5-0.5l0.5,0.4C61.3,69.3,61.4,69.6,61,70z M64.3,112.7c-0.2,0.6-1.3,0.5-1.5-0.1c-0.1-0.3,0-0.7,0.3-0.9
	l0.5-0.4l0.4,0.5C64.3,112.1,64.4,112.5,64.3,112.7z M64.3,106.1c-0.2,0.6-1.3,0.5-1.5-0.1c-0.1-0.3,0-0.7,0.3-0.9l0.5-0.4l0.4,0.5
	C64.3,105.5,64.4,105.9,64.3,106.1z M64.3,99.7c-0.3,0.3-1.4,0.3-1.6-0.1c-0.1-0.2,0-0.6,0.3-0.9l0.5-0.5l0.5,0.4
	C64.6,99,64.7,99.3,64.3,99.7z M64.3,93.1c-0.3,0.3-1.4,0.3-1.6-0.1c-0.1-0.2,0-0.6,0.3-0.9l0.5-0.5L64,92
	C64.6,92.4,64.7,92.7,64.3,93.1z M64.3,86.5c-0.3,0.3-1.4,0.3-1.6-0.1c-0.1-0.2,0-0.6,0.3-0.9l0.5-0.5l0.5,0.4
	C64.6,85.8,64.7,86.1,64.3,86.5z M64.3,79.9c-0.3,0.3-1.4,0.3-1.6-0.1c-0.1-0.2,0-0.6,0.3-0.9l0.5-0.5l0.5,0.4
	C64.6,79.2,64.7,79.5,64.3,79.9z M64.1,73.5c-0.3,0.3-0.6,0.2-1.1-0.1l-0.6-0.5l0.6-0.6l0.6-0.6l0.5,0.4
	C64.7,72.7,64.7,73,64.1,73.5z M67.6,116.2c-0.3,0.3-1.4,0.3-1.6-0.1c-0.1-0.2,0-0.6,0.3-0.9l0.5-0.5l0.5,0.4
	C67.9,115.5,68,115.8,67.6,116.2z M67.6,109.6c-0.3,0.3-1.4,0.3-1.6-0.1c-0.1-0.2,0-0.6,0.3-0.9l0.5-0.5l0.5,0.4
	C67.9,108.9,68,109.2,67.6,109.6z M67.4,103.2c-0.3,0.3-0.6,0.2-1.1-0.1l-0.6-0.5l0.6-0.6l0.6-0.6l0.5,0.4
	C68,102.4,68,102.7,67.4,103.2z M67.4,96.6c-0.3,0.3-0.6,0.2-1.1-0.1L65.7,96l0.6-0.6l0.6-0.6l0.5,0.4C68,95.8,68,96.1,67.4,96.6z
	 M67.3,90L67.3,90l-0.5,0.4l-0.5-0.5l-0.5-0.5l0.5-0.5l0.5-0.5l0.5,0.4c0.3,0.2,0.5,0.5,0.5,0.7C67.8,89.5,67.6,89.8,67.3,90z
	 M67.3,83.4L67.3,83.4l-0.5,0.4l-0.5-0.5l-0.5-0.5l0.5-0.5l0.5-0.5l0.5,0.4c0.3,0.2,0.5,0.5,0.5,0.7C67.8,82.9,67.6,83.2,67.3,83.4z
	 M70.6,113.1L70.6,113.1l-0.5,0.4l-0.5-0.5l-0.5-0.5l0.5-0.5l0.5-0.5l0.5,0.4c0.3,0.2,0.5,0.5,0.5,0.7
	C71.1,112.6,70.9,112.9,70.6,113.1z M70.6,106.5L70.6,106.5l-0.5,0.4l-0.5-0.5l-0.5-0.5l0.5-0.5l0.5-0.5l0.5,0.4
	c0.3,0.2,0.5,0.5,0.5,0.7C71.1,106,70.9,106.3,70.6,106.5z M70.6,99.9L70.6,99.9l-0.5,0.4l-0.5-0.5l-0.5-0.5l0.5-0.5l0.5-0.5
	l0.5,0.4c0.3,0.2,0.5,0.5,0.5,0.7C71.1,99.4,70.9,99.7,70.6,99.9z M73.9,109.8l-0.5,0.4l-0.5-0.5c-0.6-0.6-0.3-1.6,0.6-1.6
	c0.3,0,0.6,0.1,0.6,0.1c0,0.1,0.1,0.3,0.2,0.6C74.4,109.2,74.2,109.6,73.9,109.8z M77.2,113.1l-0.5,0.4l-0.5-0.5
	c-0.7-0.7-0.3-1.6,0.6-1.5S78,112.5,77.2,113.1z M77.2,106.5l-0.5,0.4l-0.5-0.5c-0.7-0.7-0.3-1.6,0.6-1.5S78,105.9,77.2,106.5z
	 M77.2,100c-0.7,0.3-1.6-0.6-1.3-1.3c0.1-0.3,0.5-0.5,1-0.4C77.8,98.4,78,99.7,77.2,100z M80.7,116.6L80.7,116.6
	c-0.7,0.4-1.7-0.2-1.6-0.9c0.1-1,1.7-1,1.9,0C81,116,80.9,116.4,80.7,116.6z M80.7,110L80.7,110c-0.7,0.4-1.7-0.2-1.6-0.9
	c0.1-1,1.7-1,1.9,0C81,109.4,80.9,109.8,80.7,110z M80.7,103.4L80.7,103.4c-0.7,0.4-1.7-0.2-1.6-0.9c0.1-1,1.7-1,1.9,0
	C81,102.8,80.9,103.2,80.7,103.4z M80.7,96.8L80.7,96.8c-0.7,0.4-1.7-0.2-1.6-0.9c0.1-1,1.7-1,1.9,0C81,96.2,80.9,96.6,80.7,96.8z
	 M83.9,113.3c-0.9,0.3-1.6-0.1-1.4-0.9c0.1-0.5,0.3-0.7,0.9-0.7C84.3,111.6,84.7,113,83.9,113.3z M82.4,105.7c0.1-1,1.7-1,1.9,0
	c0.1,0.4-0.1,0.8-0.3,0.9l0,0C83.3,107.1,82.3,106.5,82.4,105.7z M82.9,85.1l0.5-0.4l0.5,0.4c0.3,0.2,0.5,0.7,0.5,1
	s-0.2,0.7-0.5,0.8c-0.8,0.3-1.5-0.1-1.5-0.8C82.4,85.8,82.6,85.3,82.9,85.1z M82.9,91.7l0.5-0.4l0.5,0.4c0.3,0.2,0.5,0.7,0.5,1
	s-0.2,0.7-0.5,0.8c-0.8,0.3-1.5-0.1-1.5-0.8C82.4,92.4,82.6,91.9,82.9,91.7z M82.9,98.3l0.5-0.4l0.5,0.4c0.3,0.2,0.5,0.7,0.5,1
	s-0.2,0.7-0.5,0.8c-0.8,0.3-1.5-0.1-1.5-0.8C82.4,99,82.6,98.5,82.9,98.3z M80.6,90.2c-0.9,0.3-1.6-0.1-1.4-0.9
	c0.1-0.5,0.3-0.7,0.9-0.7C81,88.5,81.4,89.9,80.6,90.2z M80.4,81.8c0.7,0.3,0.8,1.5,0.3,1.8c-0.6,0.3-1.6-0.2-1.6-0.8
	C79.1,81.9,79.7,81.4,80.4,81.8z M77.2,93.4c-0.7,0.3-1.6-0.6-1.3-1.3c0.1-0.3,0.5-0.5,1-0.4C77.8,91.8,78,93.1,77.2,93.4z
	 M77.7,79.3c0.1,0.4-0.1,0.8-0.3,0.9l0,0c-0.7,0.4-1.7-0.2-1.6-0.9C76,78.3,77.5,78.3,77.7,79.3z M77.7,85.9
	c0.1,0.4-0.1,0.8-0.3,0.9l0,0c-0.7,0.4-1.7-0.2-1.6-0.9C76,84.9,77.5,84.9,77.7,85.9z M73.5,81.8c0.9,0.1,1.1,1,0.4,1.6l-0.5,0.4
	l-0.5-0.5C72.2,82.6,72.6,81.7,73.5,81.8z M73.5,88.4c0.9,0.1,1.1,1,0.4,1.6l-0.5,0.4l-0.5-0.5C72.2,89.2,72.6,88.3,73.5,88.4z
	 M73.5,95c0.9,0.1,1.1,1,0.4,1.6L73.4,97l-0.5-0.5C72.2,95.8,72.6,94.9,73.5,95z M73.5,101.6c0.9,0.1,1.1,1,0.4,1.6l-0.5,0.4
	l-0.5-0.5C72.2,102.4,72.6,101.5,73.5,101.6z"/>
<path class="st1" d="M89.3,39.2l0.1-0.1c0-1.4,0.1-3,0.1-4.6c-0.3-0.1-0.5-0.3-0.7-0.6l-0.3-0.6l0.7-0.6l0.4-0.3c0-1.5,0-3,0-4.5
	c-0.3-0.1-0.5-0.3-0.7-0.6l-0.3-0.6l0.6-0.5c0.1-0.1,0.3-0.2,0.4-0.3c0-1.6,0-3.2,0-4.6c-0.3-0.1-0.5-0.3-0.7-0.5l-0.3-0.6l0.6-0.5
	c0.1-0.1,0.2-0.2,0.4-0.2c0-2.7-0.1-4.5-0.1-4.5H76.8l-0.1,0.1L76.6,15H25.5c0,0-2.1,19.6,1.4,28.5c0-0.3,0.1-0.5,0.3-0.5
	c0.2,0,0.3,0.2,0.3,0.5S27.4,44,27.2,44c-0.1,0-0.1,0-0.2-0.1c0.4,1,0.9,1.8,1.4,2.4c1.6,1.8,4.7,4.3,8.2,6.8l0,0
	c0.3-0.3,0.5-0.3,0.7,0c0.3,0.3,0.3,0.4,0,0.6c7.8,5.6,17.4,11.5,19.1,12.5c0.1,0,0.2-0.1,0.3-0.1c0.1,0,0.2,0,0.3,0.1
	c1.6-0.8,8.5-4.4,15.6-8.9l-0.5-0.4l0.6-0.6l0.6-0.6l0.5,0.4c0.1,0.1,0.2,0.2,0.2,0.2c7.5-4.9,14.6-10.7,15.3-15.2
	C88.7,40.7,88.7,39.7,89.3,39.2z M27.1,37.3c-0.2,0-0.3-0.2-0.3-0.5s0.1-0.5,0.3-0.5c0.2,0,0.3,0.2,0.3,0.5S27.2,37.3,27.1,37.3z
	 M27.1,30.7c-0.2,0-0.3-0.2-0.3-0.5s0.1-0.5,0.3-0.5c0.2,0,0.3,0.2,0.3,0.5S27.2,30.7,27.1,30.7z M27.1,24.1c-0.2,0-0.3-0.2-0.3-0.5
	s0.1-0.5,0.3-0.5c0.2,0,0.3,0.2,0.3,0.5C27.4,23.8,27.2,24.1,27.1,24.1z M27.1,17.4c-0.5-0.2-0.5-0.7-0.1-0.9
	c0.2-0.1,0.4,0.1,0.4,0.4C27.4,17.3,27.2,17.5,27.1,17.4z M60.3,16.4c0.7,0.3,0.6,1.4-0.2,1.4c-0.4,0-0.7-0.2-0.7-0.6
	C59.4,16.4,59.7,16.1,60.3,16.4z M60.1,23.1c0.4,0,0.7,0.2,0.7,0.7c0,0.4-0.2,0.7-0.7,0.7c-0.4,0-0.7-0.2-0.7-0.7
	C59.4,23.3,59.6,23.1,60.1,23.1z M60.1,29.7c0.4,0,0.7,0.2,0.7,0.7c0,0.4-0.2,0.7-0.7,0.7c-0.4,0-0.7-0.2-0.7-0.7
	C59.4,29.9,59.6,29.7,60.1,29.7z M60.1,36.3c0.4,0,0.7,0.2,0.7,0.7c0,0.4-0.2,0.7-0.7,0.7c-0.4,0-0.7-0.2-0.7-0.7
	S59.6,36.3,60.1,36.3z M60.1,42.9c0.4,0,0.7,0.2,0.7,0.7c0,0.4-0.2,0.7-0.7,0.7c-0.4,0-0.7-0.2-0.7-0.7S59.6,42.9,60.1,42.9z
	 M60.1,49.5c0.4,0,0.7,0.2,0.7,0.7c0,0.4-0.2,0.7-0.7,0.7c-0.4,0-0.7-0.2-0.7-0.7S59.6,49.5,60.1,49.5z M56.8,33
	c0.4,0,0.7,0.2,0.7,0.7c0,0.4-0.2,0.7-0.7,0.7c-0.4,0-0.7-0.2-0.7-0.7C56.1,33.2,56.3,33,56.8,33z M56.1,27c0-0.4,0.2-0.7,0.7-0.7
	c0.4,0,0.7,0.2,0.7,0.7c0,0.4-0.2,0.7-0.7,0.7C56.3,27.7,56.1,27.5,56.1,27z M56.8,39.6c0.4,0,0.7,0.2,0.7,0.7
	c0,0.4-0.2,0.7-0.7,0.7c-0.4,0-0.7-0.2-0.7-0.7C56.1,39.8,56.3,39.6,56.8,39.6z M50,19.8c0.7,0.1,0.9,0.8,0.5,1.1
	c-0.5,0.3-1-0.1-1-0.7C49.5,19.9,49.7,19.8,50,19.8z M50,26.4c0.7,0.1,0.9,0.8,0.5,1.1c-0.5,0.3-1-0.1-1-0.7
	C49.5,26.5,49.7,26.4,50,26.4z M43.1,20.1c0.2-0.2,0.5-0.3,0.7-0.2c0.4,0.3,0.5,0.7,0.1,1c-0.1,0.1-0.5,0-0.7-0.1l-0.5-0.3
	L43.1,20.1z M39.7,17c0.1-0.2,0.3-0.4,0.6-0.4c0.2,0,0.5,0.2,0.6,0.4c0.1,0.2-0.2,0.4-0.6,0.4C39.8,17.5,39.6,17.3,39.7,17z
	 M30.4,47.2c-0.2,0-0.3-0.2-0.3-0.5s0.1-0.5,0.3-0.5c0.2,0,0.3,0.2,0.3,0.5C30.7,46.9,30.5,47.2,30.4,47.2z M30.4,40.5
	c-0.5-0.2-0.5-0.7-0.1-0.9c0.2-0.1,0.4,0.1,0.4,0.4S30.5,40.6,30.4,40.5z M30.4,33.9c-0.5-0.2-0.5-0.7-0.1-0.9
	c0.2-0.1,0.4,0.1,0.4,0.4C30.7,33.8,30.5,34,30.4,33.9z M30.4,27.3c-0.5-0.2-0.5-0.7-0.1-0.9c0.2-0.1,0.4,0.1,0.4,0.4
	S30.5,27.4,30.4,27.3z M30.7,20.6c-0.6,0.3-1.2-0.1-0.7-0.6c0.3-0.3,0.5-0.3,0.7,0C31,20.2,31,20.4,30.7,20.6z M33.7,50.4
	c-0.5-0.2-0.5-0.7-0.1-0.9c0.2-0.1,0.4,0.1,0.4,0.4C34,50.3,33.8,50.5,33.7,50.4z M34,43.7c-0.6,0.3-1.2-0.1-0.7-0.6
	c0.3-0.3,0.5-0.3,0.7,0C34.3,43.3,34.3,43.5,34,43.7z M34,37.1c-0.6,0.3-1.2-0.1-0.7-0.6c0.3-0.3,0.5-0.3,0.7,0
	C34.3,36.7,34.3,36.9,34,37.1z M34,30.5c-0.6,0.3-1.2-0.1-0.7-0.6c0.3-0.3,0.5-0.3,0.7,0C34.3,30.1,34.3,30.3,34,30.5z M34,23.9
	c-0.6,0.3-1.2-0.1-0.7-0.6c0.3-0.3,0.5-0.3,0.7,0C34.3,23.5,34.3,23.7,34,23.9z M34,17.3c-0.6,0.3-1.2-0.1-0.7-0.6
	c0.3-0.3,0.5-0.3,0.7,0C34.3,16.9,34.3,17.1,34,17.3z M37.3,47c-0.6,0.3-1.2-0.1-0.7-0.6c0.3-0.3,0.5-0.3,0.7,0
	C37.6,46.6,37.6,46.8,37.3,47z M37.3,40.4c-0.6,0.3-1.2-0.1-0.7-0.6c0.3-0.3,0.5-0.3,0.7,0C37.6,40,37.6,40.2,37.3,40.4z M37.3,33.8
	c-0.6,0.3-1.2-0.1-0.7-0.6c0.3-0.3,0.5-0.3,0.7,0C37.6,33.4,37.6,33.6,37.3,33.8z M37.2,27.2c-0.7,0.3-1.1-0.1-0.6-0.6l0.4-0.4
	l0.4,0.4l0.4,0.4L37.2,27.2z M37.2,20.6c-0.7,0.3-1.1-0.1-0.6-0.6l0.4-0.4l0.4,0.4l0.4,0.4L37.2,20.6z M40.3,50.5
	c-0.4,0-0.7-0.2-0.6-0.4c0.1-0.2,0.3-0.4,0.6-0.4c0.2,0,0.5,0.2,0.6,0.4C40.9,50.3,40.7,50.5,40.3,50.5z M40.5,43.7
	c-0.7,0.3-1.1-0.1-0.6-0.6l0.4-0.4l0.4,0.4l0.4,0.4L40.5,43.7z M40.5,37.1c-0.7,0.3-1.1-0.1-0.6-0.6l0.4-0.4l0.4,0.4l0.4,0.4
	L40.5,37.1z M40.5,30.5c-0.7,0.3-1.1-0.1-0.6-0.6l0.4-0.4l0.4,0.4l0.4,0.4L40.5,30.5z M40.5,23.9c-0.7,0.3-1.1-0.1-0.6-0.6l0.4-0.4
	l0.4,0.4l0.4,0.4L40.5,23.9z M43.1,26.7c0.2-0.2,0.5-0.3,0.7-0.2c0.4,0.3,0.5,0.7,0.1,1c-0.1,0.1-0.5,0-0.7-0.1l-0.5-0.3L43.1,26.7z
	 M43.6,34c-0.4,0-0.7-0.2-0.6-0.4c0.1-0.2,0.3-0.4,0.6-0.4c0.2,0,0.5,0.2,0.6,0.4C44.2,33.8,44,34,43.6,34z M43.6,40.6
	c-0.4,0-0.7-0.2-0.6-0.4c0.1-0.2,0.3-0.4,0.6-0.4c0.2,0,0.5,0.2,0.6,0.4C44.2,40.4,44,40.6,43.6,40.6z M43.8,53.6
	c-0.7,0.3-1.1-0.1-0.6-0.6l0.4-0.4L44,53l0.4,0.4L43.8,53.6z M43.8,47c-0.7,0.3-1.1-0.1-0.6-0.6l0.4-0.4l0.4,0.4l0.4,0.4L43.8,47z
	 M46.9,57.1c-0.4,0-0.7-0.2-0.6-0.4c0.1-0.2,0.3-0.4,0.6-0.4c0.2,0,0.5,0.2,0.6,0.4C47.5,56.9,47.3,57.1,46.9,57.1z M47.3,50.6
	c-0.1,0.1-0.5,0-0.7-0.1l-0.5-0.3l0.4-0.4c0.2-0.2,0.5-0.3,0.7-0.2C47.6,49.9,47.6,50.3,47.3,50.6z M47.3,44c-0.1,0.1-0.5,0-0.7-0.1
	l-0.5-0.3l0.4-0.4c0.2-0.2,0.5-0.3,0.7-0.2C47.6,43.3,47.6,43.7,47.3,44z M47.3,37.4c-0.1,0.1-0.5,0-0.7-0.1L46,37l0.4-0.4
	c0.2-0.2,0.5-0.3,0.7-0.2C47.6,36.7,47.6,37.1,47.3,37.4z M47.2,30.8c-0.6,0.3-1.2-0.4-0.7-0.9c0.4-0.4,1.1-0.1,1.1,0.4
	C47.5,30.5,47.4,30.7,47.2,30.8z M47.2,24.2c-0.6,0.3-1.2-0.4-0.7-0.9c0.4-0.4,1.1-0.1,1.1,0.4C47.5,23.9,47.4,24.1,47.2,24.2z
	 M47.2,17.6c-0.6,0.3-1.2-0.4-0.7-0.9c0.4-0.4,1.1-0.1,1.1,0.4C47.5,17.3,47.4,17.5,47.2,17.6z M50.6,60.5c-0.1,0.1-0.5,0-0.7-0.1
	l-0.5-0.3l0.4-0.4c0.2-0.2,0.5-0.3,0.7-0.2C50.9,59.8,50.9,60.2,50.6,60.5z M50.5,53.9c-0.6,0.3-1.2-0.4-0.7-0.9
	c0.4-0.4,1.1-0.1,1.1,0.4C50.8,53.6,50.7,53.8,50.5,53.9z M50.5,47.3c-0.6,0.3-1.2-0.4-0.7-0.9c0.4-0.4,1.1-0.1,1.1,0.4
	C50.8,47,50.7,47.2,50.5,47.3z M50.5,40.7L50.5,40.7c-0.6,0.3-1.2-0.4-0.7-0.9c0.4-0.4,1.1-0.1,1.1,0.4
	C50.8,40.4,50.7,40.6,50.5,40.7z M50.5,34.1c-0.6,0.3-1.2-0.4-0.7-0.9c0.4-0.4,1.1-0.1,1.1,0.4C50.8,33.8,50.7,34,50.5,34.1z
	 M53.8,63.8c-0.5,0.3-1-0.1-1-0.7c0-0.3,0.2-0.5,0.6-0.4C54,62.9,54.3,63.5,53.8,63.8z M53.8,57.2c-0.5,0.3-1-0.1-1-0.7
	c0-0.3,0.2-0.5,0.6-0.4C54,56.3,54.3,56.9,53.8,57.2z M53.8,50.6c-0.6,0.3-1.2-0.4-0.7-0.9c0.4-0.4,1.1-0.1,1.1,0.4
	C54.1,50.3,54,50.5,53.8,50.6z M52.8,43.3c0-0.3,0.2-0.5,0.6-0.4c0.7,0.1,0.9,0.8,0.5,1.1C53.3,44.3,52.8,43.9,52.8,43.3z
	 M53.8,37.4c-0.4,0.3-1-0.1-1-0.7c0-0.3,0.3-0.5,0.7-0.5C54.1,36.3,54.4,37.1,53.8,37.4z M53.8,30.8c-0.4,0.3-1-0.1-1-0.7
	c0-0.3,0.3-0.5,0.7-0.5C54.1,29.7,54.4,30.5,53.8,30.8z M52.8,23.5c0-0.3,0.2-0.5,0.5-0.4c0.7,0.1,0.9,0.8,0.5,1.1
	C53.3,24.5,52.8,24.1,52.8,23.5z M53.9,17.6c-0.5,0.5-1.1,0.2-1.1-0.4c0-0.4,0.2-0.7,0.7-0.7C54.1,16.5,54.4,17.1,53.9,17.6z
	 M57.1,60.5c-0.4,0.3-1-0.1-1-0.7c0-0.3,0.3-0.5,0.7-0.5C57.4,59.4,57.7,60.2,57.1,60.5z M57.1,53.9c-0.4,0.3-1-0.1-1-0.7
	c0-0.3,0.3-0.5,0.7-0.5C57.4,52.8,57.7,53.6,57.1,53.9z M57.2,47.3c-0.5,0.5-1.1,0.2-1.1-0.4c0-0.4,0.2-0.7,0.7-0.7
	C57.4,46.2,57.7,46.8,57.2,47.3z M57.2,20.9c-0.5,0.5-1.1,0.2-1.1-0.4c0-0.4,0.2-0.7,0.7-0.7C57.4,19.8,57.7,20.4,57.2,20.9z
	 M60.5,63.8c-0.5,0.5-1.1,0.2-1.1-0.4c0-0.4,0.2-0.7,0.7-0.7C60.7,62.7,61,63.3,60.5,63.8z M60.5,57.2c-0.5,0.5-1.1,0.2-1.1-0.4
	c0-0.4,0.2-0.7,0.7-0.7C60.7,56.1,61,56.7,60.5,57.2z M62.9,19.7l0.5-0.4l0.4,0.5c0.2,0.3,0.4,0.7,0.3,0.9c-0.2,0.6-1.3,0.5-1.5-0.1
	C62.5,20.4,62.6,20,62.9,19.7z M63.4,60.7c-0.4,0-0.7-0.2-0.7-0.7c0-0.4,0.2-0.7,0.7-0.7c0.4,0,0.7,0.2,0.7,0.7
	C64,60.5,63.8,60.7,63.4,60.7z M63.4,54.1c-0.4,0-0.7-0.2-0.7-0.7c0-0.4,0.2-0.7,0.7-0.7c0.4,0,0.7,0.2,0.7,0.7
	C64,53.9,63.8,54.1,63.4,54.1z M63.4,47.5c-0.4,0-0.7-0.2-0.7-0.6c0-0.8,0.3-1,0.9-0.8C64.3,46.3,64.1,47.5,63.4,47.5z M63.4,40.9
	h-0.7l0.1-0.7c0.1-0.4,0.3-0.7,0.6-0.7c0.3,0,0.5,0.3,0.6,0.7l0.1,0.7H63.4z M63.4,34.3h-0.7l0.1-0.7c0.1-0.4,0.3-0.7,0.6-0.7
	c0.3,0,0.5,0.3,0.6,0.7l0.1,0.7H63.4z M64.1,27.3c-0.3,0.7-1.4,0.5-1.4-0.2c0-0.4,0.2-0.7,0.4-0.9C63.5,25.9,64.3,26.7,64.1,27.3z
	 M66.7,57.4c-0.8,0-1.1-0.8-0.5-1.3s1.1-0.1,1.1,0.7C67.3,57.2,67.1,57.4,66.7,57.4z M67.4,50.4L67.4,50.4c-0.2,0.6-1.3,0.5-1.5-0.1
	c-0.1-0.3,0-0.7,0.3-0.9l0.5-0.4l0.4,0.5C67.4,49.8,67.5,50.1,67.4,50.4z M67.4,43.8L67.4,43.8c-0.2,0.6-1.3,0.5-1.5-0.1
	c-0.1-0.3,0-0.7,0.3-0.9l0.5-0.4l0.4,0.5C67.4,43.1,67.5,43.5,67.4,43.8z M67.4,37.2c-0.2,0.6-1.3,0.5-1.5-0.1
	c-0.1-0.3,0-0.7,0.3-0.9l0.5-0.4l0.4,0.5C67.4,36.5,67.5,36.9,67.4,37.2z M67.4,30.6c-0.2,0.6-1.3,0.5-1.5-0.1
	c-0.1-0.3,0-0.7,0.3-0.9l0.5-0.4l0.4,0.5C67.4,29.9,67.5,30.3,67.4,30.6z M67.4,24.2c-0.4,0.4-1.4,0.2-1.5-0.3
	c-0.1-0.3,0-0.6,0.3-0.9l0.5-0.4l0.5,0.4C67.7,23.5,67.8,23.8,67.4,24.2z M67.4,17.6C67,18,66,17.8,65.9,17.3
	c-0.1-0.3,0-0.6,0.3-0.9l0.5-0.4l0.5,0.4C67.7,16.9,67.8,17.2,67.4,17.6z M70.7,53.7c-0.2,0.6-1.3,0.5-1.5-0.1
	c-0.1-0.3,0-0.7,0.3-0.9l0.5-0.4l0.4,0.5C70.7,53.1,70.8,53.4,70.7,53.7z M70.7,47.3c-0.3,0.3-1.4,0.3-1.6-0.1
	c-0.1-0.2,0-0.6,0.3-0.9l0.5-0.5l0.5,0.4C71,46.6,71.1,46.9,70.7,47.3z M70.7,40.7c-0.3,0.3-1.4,0.3-1.6-0.1c-0.1-0.2,0-0.6,0.3-0.9
	l0.5-0.5l0.5,0.4C71,40,71.1,40.3,70.7,40.7z M70.7,34.1c-0.3,0.3-1.4,0.3-1.6-0.1c-0.1-0.2,0-0.6,0.3-0.9l0.5-0.5l0.5,0.4
	C71,33.4,71.1,33.7,70.7,34.1z M70.5,27.6c-0.3,0.3-0.6,0.2-1.1-0.1L68.8,27l0.6-0.6l0.6-0.6l0.5,0.4C71.1,26.9,71.1,27.2,70.5,27.6
	z M70.5,21c-0.3,0.3-0.6,0.2-1.1-0.1l-0.6-0.5l0.6-0.6l0.6-0.6l0.5,0.4C71.1,20.3,71.1,20.6,70.5,21z M72.6,16.6
	c0.4-0.5,1.3-0.7,1.3-0.4c0,0.1,0.1,0.3,0.2,0.6c0.1,0.3-0.1,0.7-0.3,0.9l-0.5,0.4l-0.5-0.5l-0.5-0.5L72.6,16.6z M73.8,50.7
	c-0.3,0.3-0.6,0.2-1.1-0.1l-0.6-0.5l0.6-0.6l0.6-0.6l0.5,0.4C74.4,50,74.4,50.3,73.8,50.7z M73.7,44.2L73.7,44.2l-0.5,0.4l-0.5-0.5
	l-0.5-0.5l0.5-0.5l0.5-0.5l0.5,0.4c0.3,0.2,0.5,0.5,0.5,0.7C74.2,43.7,74,44,73.7,44.2z M73.7,37.6L73.7,37.6L73.2,38l-0.5-0.5
	L72.2,37l0.5-0.5l0.5-0.5l0.5,0.4c0.3,0.2,0.5,0.5,0.5,0.7C74.2,37.1,74,37.4,73.7,37.6z M73.7,31L73.7,31l-0.5,0.4l-0.5-0.5
	l-0.5-0.5l0.5-0.5l0.5-0.5l0.5,0.4c0.3,0.2,0.5,0.5,0.5,0.7C74.2,30.5,74,30.8,73.7,31z M73.7,24.4l-0.5,0.4l-0.5-0.5
	c-0.5-0.5-0.3-1.6,0.3-1.6c0.4,0,1.2,0.7,1.2,1C74.2,23.9,74,24.2,73.7,24.4z M77.1,54.1l-0.5,0.4L76,54l-0.5-0.5l0.4-0.5
	c0.4-0.5,1.3-0.7,1.3-0.4c0,0.1,0.1,0.3,0.2,0.6C77.5,53.4,77.3,53.8,77.1,54.1z M77.1,47.5l-0.5,0.4l-0.5-0.5l-0.5-0.5l0.4-0.5
	c0.4-0.5,1.3-0.7,1.3-0.4c0,0.1,0.1,0.3,0.2,0.6C77.5,46.8,77.3,47.2,77.1,47.5z M77.1,40.9l-0.5,0.4l-0.5-0.5
	c-0.6-0.6-0.3-1.6,0.6-1.6c0.3,0,0.6,0.1,0.6,0.1c0,0.1,0.1,0.3,0.2,0.6C77.5,40.2,77.3,40.6,77.1,40.9z M77.1,34.3l-0.5,0.4
	l-0.5-0.5c-0.7-0.7-0.3-1.6,0.5-1.6c0.4,0,0.7,0.1,0.7,0.1c0,0.1,0.1,0.3,0.2,0.6C77.5,33.6,77.3,34,77.1,34.3z M77.1,27.7l-0.5,0.4
	l-0.5-0.5c-0.7-0.7-0.3-1.6,0.5-1.6c0.4,0,0.7,0.1,0.7,0.1c0,0.1,0.1,0.3,0.2,0.6C77.5,27,77.3,27.4,77.1,27.7z M77.1,21.1l-0.5,0.4
	L76,21c-0.7-0.7-0.3-1.6,0.5-1.6c0.4,0,0.7,0.1,0.7,0.1c0,0.1,0.1,0.3,0.2,0.6C77.5,20.4,77.3,20.8,77.1,21.1z M80.4,50.8l-0.5,0.4
	l-0.5-0.5c-0.7-0.7-0.3-1.6,0.6-1.5C80.8,49.3,81.1,50.2,80.4,50.8z M80.4,44.2l-0.5,0.4l-0.5-0.5c-0.7-0.7-0.3-1.6,0.6-1.5
	C80.8,42.7,81.1,43.6,80.4,44.2z M80.4,37.6L79.9,38l-0.5-0.5c-0.7-0.7-0.3-1.6,0.6-1.5C80.8,36.1,81.1,37,80.4,37.6z M80.3,31.1
	c-0.7,0.3-1.6-0.6-1.3-1.3c0.1-0.3,0.5-0.5,1-0.4C80.9,29.5,81.1,30.8,80.3,31.1z M80.4,24.5c-0.8,0.3-1.5-0.1-1.4-0.9
	c0.1-0.5,0.3-0.7,0.9-0.7C80.8,22.9,81.2,24.2,80.4,24.5z M80.4,17.9c-0.8,0.3-1.5-0.1-1.4-0.9c0.1-0.5,0.3-0.7,0.9-0.7
	C80.8,16.3,81.2,17.6,80.4,17.9z M83.5,19.5c0.7,0.3,0.8,1.5,0.3,1.8c-0.6,0.3-1.6-0.2-1.6-0.8C82.2,19.6,82.8,19.1,83.5,19.5z
	 M82.2,33.5c0.1-1,1.7-1,1.9,0c0.1,0.4-0.1,0.8-0.3,0.9l0,0C83.2,34.9,82.1,34.3,82.2,33.5z M84.1,40.1c0.1,0.4-0.1,0.8-0.3,0.9l0,0
	c-0.7,0.4-1.7-0.2-1.6-0.9C82.4,39.1,83.9,39.1,84.1,40.1z M83.7,47.7c-0.3,0.1-0.8,0-1.1-0.3c-0.7-0.7-0.3-1.6,0.6-1.5
	C84.2,46,84.5,47.4,83.7,47.7z M83.7,27.9c-0.9,0.3-1.6-0.1-1.4-0.9c0.1-0.5,0.3-0.7,0.9-0.7C84.1,26.2,84.5,27.6,83.7,27.9z
	 M86,29.3l0.5-0.4l0.5,0.4c0.3,0.2,0.5,0.7,0.5,1S87.3,31,87,31.1c-0.8,0.3-1.5-0.1-1.5-0.8C85.5,30,85.7,29.6,86,29.3z M85.5,23.8
	c0-0.3,0.2-0.8,0.5-1l0.5-0.4l0.5,0.4c0.3,0.2,0.5,0.7,0.5,1s-0.2,0.7-0.5,0.8C86.2,24.9,85.5,24.5,85.5,23.8z M87.1,36
	c0.5,0.5,0.5,1.6-0.1,1.8c-0.8,0.3-1.5-0.1-1.5-0.8C85.5,36.1,86.5,35.5,87.1,36z M87,44.4c-0.9,0.3-1.6-0.1-1.4-0.9
	c0.1-0.5,0.3-0.7,0.9-0.7C87.4,42.7,87.8,44.1,87,44.4z M87.4,17.5c-0.4,0.8-1.5,0.7-1.9,0l-0.3-0.6l0.7-0.6l0.7-0.6l0.6,0.6
	l0.6,0.6L87.4,17.5z"/>
<path class="st2" d="M21.7,14.2c0,0-2.7,25,3,31.3s28.3,20,28.3,20s32.3-16,32.7-25.7c0.3-9.7,0-25.7,0-25.7h-64V14.2z"/>
<path class="st2" d="M85.2,116.8c0,0,2.6-25-3-31.3c-5.7-6.3-28.3-20-28.3-20s-32.3,16-32.6,25.7s0,25.7,0,25.7L85.2,116.8z"/>
<path class="st3" d="M14.1,6.5h78.7c1.4,0,2.5,1.2,2.5,2.6v0.1c0,1.5-1.1,2.6-2.5,2.6H14.1c-1.4,0-2.5-1.2-2.5-2.6V9.1
	C11.6,7.7,12.7,6.5,14.1,6.5z"/>
<path class="st3" d="M14.1,118.5h78.7c1.4,0,2.5,1.2,2.5,2.6v0.1c0,1.5-1.1,2.6-2.5,2.6H14.1c-1.4,0-2.5-1.2-2.5-2.6v-0.1
	C11.6,119.7,12.7,118.5,14.1,118.5z"/>
</svg>
