<?xml version="1.0" encoding="utf-8"?>
<!-- Generator: Adobe Illustrator 17.1.0, SVG Export Plug-In . SVG Version: 6.00 Build 0)  -->
<!DOCTYPE svg PUBLIC "-//W3C//DTD SVG 1.1//EN" "http://www.w3.org/Graphics/SVG/1.1/DTD/svg11.dtd">
<svg version="1.1" id="Layer_1" xmlns="http://www.w3.org/2000/svg" xmlns:xlink="http://www.w3.org/1999/xlink" x="0px" y="0px"
	 viewBox="0 0 612 792" enable-background="new 0 0 612 792" xml:space="preserve">
<path fill="#DF8799" d="M265.7,436.5h78.7c1.4,0,2.5,1.2,2.5,2.6v0.1c0,1.5-1.1,2.6-2.5,2.6h-78.7c-1.4,0-2.5-1.2-2.5-2.6v-0.1
	C263.3,437.7,264.4,436.5,265.7,436.5z"/>
<path fill="#DF8799" d="M265.7,324.5h78.7c1.4,0,2.5,1.2,2.5,2.6v0.1c0,1.5-1.1,2.6-2.5,2.6h-78.7c-1.4,0-2.5-1.2-2.5-2.6v-0.1
	C263.3,325.7,264.4,324.5,265.7,324.5z"/>
<path fill="#D68797" d="M320.9,434.4c-0.6-0.6-0.3-1.6,0.6-1.6c0.3,0,0.6,0.1,0.6,0.1c0,0.1,0.1,0.3,0.2,0.6
	c0.1,0.3-0.1,0.7-0.3,0.9l-0.5,0.4H337c0,0,0.2-1.5,0.3-3.7c-0.1-0.1-0.2-0.2-0.2-0.3l-0.3-0.6l0.6-0.5l0,0c0.1-1.5,0.2-3.1,0.2-4.9
	c-0.2-0.1-0.4-0.3-0.5-0.5l-0.3-0.6l0.5-0.5c0.1-0.1,0.2-0.2,0.3-0.3c0-1.5,0-3.1-0.1-4.7c-0.2-0.1-0.3-0.3-0.4-0.5l-0.3-0.6
	l0.5-0.5c0.1-0.1,0.1-0.1,0.2-0.1c-0.2-3.3-0.7-6.4-1.5-8.9c-0.1,0.1-0.1,0.3-0.2,0.4c-0.4,0.8-1.5,0.7-1.9-0.1l-0.3-0.6l0.5-0.5
	c0.3-0.3,0.6-0.5,0.8-0.5c0.2,0,0.6,0.4,1,0.7c-0.5-1.3-1.1-2.4-1.8-3.2c-2.1-2.4-6.7-5.8-11.5-9.1c0,0.2-0.2,0.5-0.5,0.6
	c-0.7,0.3-1.6-0.6-1.3-1.3c0.1-0.1,0.2-0.2,0.3-0.3c-0.8-0.6-1.6-1.1-2.4-1.6l-0.3,0.2l-0.5-0.5c-0.1-0.1-0.2-0.3-0.3-0.4
	c-6.3-4.1-11.8-7.5-11.8-7.5s0,0-0.1,0.1l0,0c0.2,0.3,0.4,0.7,0.3,0.9c-0.2,0.6-1.3,0.5-1.5-0.1c0-0.1,0-0.1,0-0.2
	c-2.2,1.1-6.8,3.6-11.7,6.6c0,0.2-0.1,0.4-0.3,0.5c-0.2,0.1-0.4,0.1-0.6,0c-8.8,5.4-18.5,12.6-18.6,17.8c-0.3,9.7,0,25.7,0,25.7
	h48.5L320.9,434.4z M335.1,434.6c-0.8,0.3-1.5-0.1-1.5-0.8c0-0.3,0.2-0.8,0.5-1l0.5-0.4l0.5,0.4c0.3,0.2,0.5,0.7,0.5,1
	S335.4,434.5,335.1,434.6z M333.4,426.9l0.6-0.6l0.6-0.6l0.5,0.4c0.5,0.4,0.7,1.4,0.3,1.8c-0.4,0.4-1.4,0.2-1.7-0.4L333.4,426.9z
	 M334,413.1l0.7-0.6l0.6,0.6l0.6,0.6l-0.3,0.6c-0.4,0.8-1.5,0.7-1.9,0l-0.3-0.6L334,413.1z M334,419.7l0.7-0.6l0.6,0.6l0.6,0.6
	l-0.3,0.6c-0.4,0.8-1.5,0.7-1.9,0l-0.3-0.6L334,419.7z M275.2,434.1c-0.2,0-0.3-0.2-0.3-0.5s0.1-0.5,0.3-0.5c0.2,0,0.3,0.2,0.3,0.5
	C275.6,433.9,275.4,434.1,275.2,434.1z M275.2,427.5c-0.2,0-0.3-0.2-0.3-0.5s0.1-0.5,0.3-0.5c0.2,0,0.3,0.2,0.3,0.5
	C275.6,427.3,275.4,427.5,275.2,427.5z M275.2,420.9c-0.2,0-0.3-0.2-0.3-0.5s0.1-0.5,0.3-0.5c0.2,0,0.3,0.2,0.3,0.5
	C275.6,420.7,275.4,420.9,275.2,420.9z M275.2,414.2c-0.5-0.2-0.5-0.7-0.1-0.9c0.2-0.1,0.4,0.1,0.4,0.4
	C275.6,414.1,275.4,414.3,275.2,414.2z M275.6,407.5c-0.6,0.3-1.2-0.1-0.7-0.6c0.3-0.3,0.5-0.3,0.7,0
	C275.9,407.2,275.9,407.3,275.6,407.5z M291.6,396.8c0.7,0.1,0.9,0.8,0.5,1.1c-0.5,0.3-1-0.1-1-0.7
	C291.1,396.9,291.3,396.8,291.6,396.8z M284.6,397.4c0.1-0.2,0.3-0.4,0.6-0.4c0.2,0,0.5,0.2,0.6,0.4c0.1,0.2-0.2,0.4-0.6,0.4
	C284.7,397.8,284.5,397.6,284.6,397.4z M284.6,404c0.1-0.2,0.3-0.4,0.6-0.4c0.2,0,0.5,0.2,0.6,0.4c0.1,0.2-0.2,0.4-0.6,0.4
	C284.7,404.4,284.5,404.2,284.6,404z M284.6,410.6c0.1-0.2,0.3-0.4,0.6-0.4c0.2,0,0.5,0.2,0.6,0.4c0.1,0.2-0.2,0.4-0.6,0.4
	C284.7,411,284.5,410.8,284.6,410.6z M278.2,403.6c0.3-0.3,0.5-0.3,0.7,0c0.3,0.3,0.3,0.4,0,0.6
	C278.4,404.5,277.8,404.1,278.2,403.6z M278.5,430.7c-0.5-0.2-0.5-0.7-0.1-0.9c0.2-0.1,0.4,0.1,0.4,0.4
	C278.9,430.6,278.7,430.8,278.5,430.7z M278.9,424c-0.6,0.3-1.2-0.1-0.7-0.6c0.3-0.3,0.5-0.3,0.7,0
	C279.2,423.7,279.2,423.8,278.9,424z M278.9,417.4c-0.6,0.3-1.2-0.1-0.7-0.6c0.3-0.3,0.5-0.3,0.7,0
	C279.2,417.1,279.2,417.2,278.9,417.4z M278.8,410.8c-0.7,0.3-1.1-0.1-0.6-0.6l0.4-0.4l0.4,0.4l0.4,0.4L278.8,410.8z M282.1,433.9
	c-0.7,0.3-1.1-0.1-0.6-0.6l0.4-0.4l0.4,0.4l0.4,0.4L282.1,433.9z M281.5,426.7c0.3-0.3,0.5-0.3,0.7,0c0.3,0.3,0.3,0.4,0,0.6
	C281.7,427.6,281.1,427.2,281.5,426.7z M281.5,420.1c0.3-0.3,0.5-0.3,0.7,0c0.3,0.3,0.3,0.4,0,0.6
	C281.7,421,281.1,420.6,281.5,420.1z M282.1,414.1c-0.7,0.3-1.1-0.1-0.6-0.6l0.4-0.4l0.4,0.4l0.4,0.4L282.1,414.1z M282.1,407.5
	c-0.7,0.3-1.1-0.1-0.6-0.6l0.4-0.4l0.4,0.4l0.4,0.4L282.1,407.5z M282.1,400.9c-0.7,0.3-1.1-0.1-0.6-0.6l0.4-0.4l0.4,0.4l0.4,0.4
	L282.1,400.9z M285.4,430.6c-0.7,0.3-1.1-0.1-0.6-0.6l0.4-0.4l0.4,0.4l0.4,0.4L285.4,430.6z M285.4,424c-0.7,0.3-1.1-0.1-0.6-0.6
	l0.4-0.4l0.4,0.4l0.4,0.4L285.4,424z M285.4,417.4c-0.7,0.3-1.1-0.1-0.6-0.6l0.4-0.4l0.4,0.4l0.4,0.4L285.4,417.4z M288.4,434.1
	c-0.4,0-0.7-0.2-0.6-0.4c0.1-0.2,0.3-0.4,0.6-0.4c0.2,0,0.5,0.2,0.6,0.4S288.9,434.1,288.4,434.1z M288.4,427.5
	c-0.4,0-0.7-0.2-0.6-0.4c0.1-0.2,0.3-0.4,0.6-0.4c0.2,0,0.5,0.2,0.6,0.4S288.9,427.5,288.4,427.5z M288.8,421
	c-0.1,0.1-0.5,0-0.7-0.1l-0.5-0.3l0.4-0.4c0.2-0.2,0.5-0.3,0.7-0.2C289.2,420.3,289.2,420.8,288.8,421z M288.8,414.4
	c-0.1,0.1-0.5,0-0.7-0.1l-0.5-0.3l0.4-0.4c0.2-0.2,0.5-0.3,0.7-0.2C289.2,413.7,289.2,414.2,288.8,414.4z M288.8,407.8
	c-0.1,0.1-0.5,0-0.7-0.1l-0.5-0.3l0.4-0.4c0.2-0.2,0.5-0.3,0.7-0.2C289.2,407.1,289.2,407.6,288.8,407.8z M288.8,401.2
	c-0.1,0.1-0.5,0-0.7-0.1l-0.5-0.3l0.4-0.4c0.2-0.2,0.5-0.3,0.7-0.2C289.2,400.5,289.2,401,288.8,401.2z M288.8,394.7
	c-0.6,0.3-1.2-0.4-0.7-0.9c0.4-0.4,1.1-0.1,1.1,0.4C289.1,394.3,288.9,394.5,288.8,394.7z M292.1,430.9c-0.1,0.1-0.5,0-0.7-0.1
	l-0.5-0.3l0.4-0.4c0.2-0.2,0.5-0.3,0.7-0.2C292.5,430.2,292.5,430.7,292.1,430.9z M292.1,424.4c-0.6,0.3-1.2-0.4-0.7-0.9
	c0.4-0.4,1.1-0.1,1.1,0.4C292.4,424,292.2,424.2,292.1,424.4z M292.1,417.8c-0.6,0.3-1.2-0.4-0.7-0.9c0.4-0.4,1.1-0.1,1.1,0.4
	C292.4,417.4,292.2,417.6,292.1,417.8z M292.1,411.2c-0.6,0.3-1.2-0.4-0.7-0.9c0.4-0.4,1.1-0.1,1.1,0.4
	C292.4,410.8,292.2,411,292.1,411.2z M292.1,404.6c-0.6,0.3-1.2-0.4-0.7-0.9c0.4-0.4,1.1-0.1,1.1,0.4
	C292.4,404.2,292.2,404.4,292.1,404.6z M301.8,386.8c0.7,0.3,0.6,1.4-0.2,1.4c-0.4,0-0.7-0.2-0.7-0.6
	C301,386.8,301.3,386.6,301.8,386.8z M301.7,393.5c0.4,0,0.7,0.2,0.7,0.7c0,0.4-0.2,0.7-0.7,0.7c-0.4,0-0.7-0.2-0.7-0.7
	S301.2,393.5,301.7,393.5z M301.7,400.1c0.4,0,0.7,0.2,0.7,0.7c0,0.4-0.2,0.7-0.7,0.7c-0.4,0-0.7-0.2-0.7-0.7
	C301,400.3,301.2,400.1,301.7,400.1z M301.7,406.7c0.4,0,0.7,0.2,0.7,0.7c0,0.4-0.2,0.7-0.7,0.7c-0.4,0-0.7-0.2-0.7-0.7
	C301,406.9,301.2,406.7,301.7,406.7z M301.7,413.3c0.4,0,0.7,0.2,0.7,0.7c0,0.4-0.2,0.7-0.7,0.7c-0.4,0-0.7-0.2-0.7-0.7
	S301.2,413.3,301.7,413.3z M301.7,419.9c0.4,0,0.7,0.2,0.7,0.7c0,0.4-0.2,0.7-0.7,0.7c-0.4,0-0.7-0.2-0.7-0.7
	S301.2,419.9,301.7,419.9z M298.4,390.2c0.4,0,0.7,0.2,0.7,0.7c0,0.4-0.2,0.7-0.7,0.7c-0.4,0-0.7-0.2-0.7-0.7
	C297.7,390.4,297.9,390.2,298.4,390.2z M298.4,398c-0.9-0.2-1-1.3-0.1-1.3c0.5,0,0.7,0.2,0.7,0.7C299,397.9,298.8,398.1,298.4,398z
	 M299,404.1c0,0.5-0.2,0.6-0.6,0.6c-0.9-0.2-1-1.3-0.1-1.3C298.8,403.4,299,403.6,299,404.1z M295.4,434.2c-0.5,0.3-1-0.1-1-0.7
	c0-0.3,0.2-0.5,0.6-0.4C295.6,433.3,295.9,433.9,295.4,434.2z M295.4,427.6c-0.5,0.3-1-0.1-1-0.7c0-0.3,0.2-0.5,0.6-0.4
	C295.6,426.7,295.9,427.3,295.4,427.6z M295.4,421c-0.4,0.3-1-0.1-1-0.7c0-0.3,0.3-0.5,0.7-0.5C295.7,419.9,296,420.7,295.4,421z
	 M294.9,413.3c0.7,0.1,0.9,0.8,0.5,1.1c-0.5,0.3-1-0.1-1-0.7C294.4,413.4,294.6,413.3,294.9,413.3z M294.4,407.1
	c0-0.3,0.2-0.5,0.5-0.4c0.7,0.1,0.9,0.8,0.5,1.1C294.9,408.1,294.4,407.8,294.4,407.1z M295.4,401.2c-0.4,0.3-1-0.1-1-0.7
	c0-0.3,0.3-0.5,0.7-0.5C295.7,400.1,296,400.9,295.4,401.2z M295.4,394.6c-0.4,0.3-1-0.1-1-0.7c0-0.3,0.3-0.5,0.7-0.5
	C295.7,393.5,296,394.3,295.4,394.6z M298.7,430.9c-0.4,0.3-1-0.1-1-0.7c0-0.3,0.3-0.5,0.7-0.5C299,429.8,299.3,430.6,298.7,430.9z
	 M298.7,424.3c-0.4,0.3-1-0.1-1-0.7c0-0.3,0.3-0.5,0.7-0.5C299,423.2,299.3,424,298.7,424.3z M298.7,417.7c-0.4,0.3-1-0.1-1-0.7
	c0-0.3,0.3-0.5,0.7-0.5C299,416.6,299.3,417.4,298.7,417.7z M298.8,411.1c-0.5,0.5-1.1,0.2-1.1-0.4c0-0.4,0.2-0.7,0.7-0.7
	C299,410,299.2,410.6,298.8,411.1z M301.7,434.4c-0.4,0-0.7-0.2-0.7-0.7c0-0.4,0.2-0.7,0.7-0.7c0.4,0,0.7,0.2,0.7,0.7
	C302.3,434.2,302.1,434.4,301.7,434.4z M302.1,427.6c-0.5,0.5-1.1,0.2-1.1-0.4c0-0.4,0.2-0.7,0.7-0.7
	C302.3,426.5,302.5,427.1,302.1,427.6z M318.1,396.5c0.4,0,0.7,0.1,0.7,0.1c0,0.1,0.1,0.3,0.2,0.6c0.1,0.3-0.1,0.7-0.3,0.9l-0.5,0.4
	l-0.5-0.5C316.9,397.4,317.3,396.5,318.1,396.5z M318.6,404.7l-0.5,0.4l-0.5-0.5c-0.6-0.6-0.3-1.6,0.6-1.6c0.3,0,0.6,0.1,0.6,0.1
	c0,0.1,0.1,0.3,0.2,0.6C319.1,404.1,318.9,404.5,318.6,404.7z M318.6,411.3l-0.5,0.4l-0.5-0.5c-0.6-0.6-0.3-1.6,0.6-1.6
	c0.3,0,0.6,0.1,0.6,0.1c0,0.1,0.1,0.3,0.2,0.6C319.1,410.7,318.9,411.1,318.6,411.3z M314.9,393.2c0.3,0,0.6,0.1,0.6,0.1
	c0,0.1,0.1,0.3,0.2,0.6c0.1,0.3-0.1,0.7-0.3,0.9l-0.5,0.4l-0.5-0.5C313.7,394.1,314.1,393.2,314.9,393.2z M304.5,396.8
	c0.6-0.5,1.1-0.1,1.1,0.7c0,0.4-0.2,0.6-0.6,0.6C304.2,398.1,303.9,397.3,304.5,396.8z M305,431.1c-0.4,0-0.7-0.2-0.7-0.7
	c0-0.4,0.2-0.7,0.7-0.7c0.4,0,0.7,0.2,0.7,0.7C305.6,430.9,305.4,431.1,305,431.1z M305,424.5c-0.4,0-0.7-0.2-0.7-0.7
	c0-0.4,0.2-0.7,0.7-0.7c0.4,0,0.7,0.2,0.7,0.7C305.6,424.3,305.4,424.5,305,424.5z M305,417.9h-0.7l0.1-0.7c0.1-0.4,0.3-0.7,0.6-0.7
	c0.3,0,0.5,0.3,0.6,0.7l0.1,0.7H305z M305,411.3h-0.7l0.1-0.7c0.1-0.4,0.3-0.7,0.6-0.7c0.3,0,0.5,0.3,0.6,0.7l0.1,0.7H305z
	 M305.7,404.3c-0.3,0.7-1.4,0.5-1.4-0.2c0-0.4,0.2-0.7,0.4-0.9C305.1,402.9,305.9,403.7,305.7,404.3z M305.7,391.1
	c-0.3,0.7-1.4,0.5-1.4-0.2c0-0.4,0.2-0.7,0.4-0.9C305.1,389.7,305.9,390.5,305.7,391.1z M307.8,400.1l0.5-0.4l0.4,0.5
	c0.2,0.3,0.4,0.7,0.3,0.9c-0.2,0.6-1.3,0.5-1.5-0.1C307.4,400.7,307.5,400.3,307.8,400.1z M307.8,393.5l0.5-0.4l0.4,0.5
	c0.2,0.3,0.4,0.7,0.3,0.9c-0.2,0.6-1.3,0.5-1.5-0.1C307.4,394.1,307.5,393.7,307.8,393.5z M307.8,406.7l0.5-0.4l0.4,0.5
	c0.2,0.3,0.4,0.7,0.3,0.9c-0.2,0.6-1.3,0.5-1.5-0.1C307.4,407.3,307.5,406.9,307.8,406.7z M307.8,413.3l0.5-0.4l0.4,0.5
	c0.2,0.3,0.4,0.7,0.3,0.9c-0.2,0.6-1.3,0.5-1.5-0.1C307.4,413.9,307.5,413.5,307.8,413.3z M307.8,426.5c0.6-0.5,1.1-0.1,1.1,0.7
	c0,0.4-0.2,0.6-0.6,0.6C307.5,427.8,307.2,427,307.8,426.5z M308.3,434.4h-0.7l0.1-0.7c0.1-0.4,0.3-0.7,0.6-0.7
	c0.3,0,0.5,0.3,0.6,0.7l0.1,0.7H308.3z M309,420.8c-0.3,0.7-1.4,0.5-1.4-0.2c0-0.4,0.2-0.7,0.4-0.9
	C308.4,419.4,309.2,420.2,309,420.8z M309,388c-0.3,0.3-1.4,0.3-1.6-0.1c-0.1-0.2,0-0.6,0.3-0.9l0.5-0.5l0.5,0.4
	C309.3,387.3,309.4,387.6,309,388z M312.3,430.7c-0.2,0.6-1.3,0.5-1.5-0.1c-0.1-0.3,0-0.7,0.3-0.9l0.5-0.4l0.4,0.5
	C312.3,430.1,312.4,430.5,312.3,430.7z M312.3,424.1c-0.2,0.6-1.3,0.5-1.5-0.1c-0.1-0.3,0-0.7,0.3-0.9l0.5-0.4l0.4,0.5
	C312.3,423.5,312.4,423.9,312.3,424.1z M312.3,417.7c-0.3,0.3-1.4,0.3-1.6-0.1c-0.1-0.2,0-0.6,0.3-0.9l0.5-0.5l0.5,0.4
	C312.6,417,312.7,417.3,312.3,417.7z M312.3,411.1c-0.3,0.3-1.4,0.3-1.6-0.1c-0.1-0.2,0-0.6,0.3-0.9l0.5-0.5l0.5,0.4
	C312.6,410.4,312.7,410.7,312.3,411.1z M312.3,404.5c-0.3,0.3-1.4,0.3-1.6-0.1c-0.1-0.2,0-0.6,0.3-0.9l0.5-0.5l0.5,0.4
	C312.6,403.8,312.7,404.1,312.3,404.5z M312.3,397.9c-0.3,0.3-1.4,0.3-1.6-0.1c-0.1-0.2,0-0.6,0.3-0.9l0.5-0.5l0.5,0.4
	C312.6,397.2,312.7,397.5,312.3,397.9z M312.1,391.5c-0.3,0.3-0.6,0.2-1.1-0.1l-0.6-0.5l0.6-0.6l0.6-0.6l0.5,0.4
	C312.7,390.7,312.7,391,312.1,391.5z M315.6,434.2c-0.3,0.3-1.4,0.3-1.6-0.1c-0.1-0.2,0-0.6,0.3-0.9l0.5-0.5l0.5,0.4
	C315.9,433.5,316,433.8,315.6,434.2z M315.6,427.6c-0.3,0.3-1.4,0.3-1.6-0.1c-0.1-0.2,0-0.6,0.3-0.9l0.5-0.5l0.5,0.4
	C315.9,426.9,316,427.2,315.6,427.6z M315.4,421.2c-0.3,0.3-0.6,0.2-1.1-0.1l-0.6-0.5l0.6-0.6l0.6-0.6l0.5,0.4
	C316,420.4,316,420.7,315.4,421.2z M315.4,414.6c-0.3,0.3-0.6,0.2-1.1-0.1l-0.6-0.5l0.6-0.6l0.6-0.6l0.5,0.4
	C316,413.8,316,414.1,315.4,414.6z M315.3,408L315.3,408l-0.5,0.4l-0.5-0.5l-0.5-0.5l0.5-0.5l0.5-0.5l0.5,0.4
	c0.3,0.2,0.5,0.5,0.5,0.7C315.8,407.5,315.6,407.8,315.3,408z M315.3,401.4L315.3,401.4l-0.5,0.4l-0.5-0.5l-0.5-0.5l0.5-0.5l0.5-0.5
	l0.5,0.4c0.3,0.2,0.5,0.5,0.5,0.7C315.8,400.9,315.6,401.2,315.3,401.4z M318.6,431.1L318.6,431.1l-0.5,0.4l-0.5-0.5l-0.5-0.5
	l0.5-0.5l0.5-0.5l0.5,0.4c0.3,0.2,0.5,0.5,0.5,0.7C319.1,430.6,318.9,430.9,318.6,431.1z M318.6,424.5L318.6,424.5l-0.5,0.4
	l-0.5-0.5l-0.5-0.5l0.5-0.5l0.5-0.5l0.5,0.4c0.3,0.2,0.5,0.5,0.5,0.7C319.1,424,318.9,424.3,318.6,424.5z M318.6,417.9L318.6,417.9
	l-0.5,0.4l-0.5-0.5l-0.5-0.5l0.5-0.5l0.5-0.5l0.5,0.4c0.3,0.2,0.5,0.5,0.5,0.7C319.1,417.4,318.9,417.7,318.6,417.9z M321.9,427.8
	l-0.5,0.4l-0.5-0.5c-0.6-0.6-0.3-1.6,0.6-1.6c0.3,0,0.6,0.1,0.6,0.1c0,0.1,0.1,0.3,0.2,0.6C322.4,427.2,322.2,427.6,321.9,427.8z
	 M325.2,431.1l-0.5,0.4l-0.5-0.5c-0.7-0.7-0.3-1.6,0.6-1.5S326,430.5,325.2,431.1z M325.2,424.5l-0.5,0.4l-0.5-0.5
	c-0.7-0.7-0.3-1.6,0.6-1.5S326,423.9,325.2,424.5z M325.2,418c-0.7,0.3-1.6-0.6-1.3-1.3c0.1-0.3,0.5-0.5,1-0.4
	C325.8,416.4,326,417.7,325.2,418z M328.7,434.6L328.7,434.6c-0.7,0.4-1.7-0.2-1.6-0.9c0.1-1,1.7-1,1.9,0
	C329,434,328.9,434.4,328.7,434.6z M328.7,428L328.7,428c-0.7,0.4-1.7-0.2-1.6-0.9c0.1-1,1.7-1,1.9,0
	C329,427.4,328.9,427.8,328.7,428z M328.7,421.4L328.7,421.4c-0.7,0.4-1.7-0.2-1.6-0.9c0.1-1,1.7-1,1.9,0
	C329,420.8,328.9,421.2,328.7,421.4z M328.7,414.8L328.7,414.8c-0.7,0.4-1.7-0.2-1.6-0.9c0.1-1,1.7-1,1.9,0
	C329,414.2,328.9,414.6,328.7,414.8z M331.9,431.3c-0.9,0.3-1.6-0.1-1.4-0.9c0.1-0.5,0.3-0.7,0.9-0.7
	C332.3,429.6,332.7,431,331.9,431.3z M330.4,423.7c0.1-1,1.7-1,1.9,0c0.1,0.4-0.1,0.8-0.3,0.9l0,0
	C331.3,425.1,330.3,424.5,330.4,423.7z M330.9,403.1l0.5-0.4l0.5,0.4c0.3,0.2,0.5,0.7,0.5,1s-0.2,0.7-0.5,0.8
	c-0.8,0.3-1.5-0.1-1.5-0.8C330.4,403.8,330.6,403.3,330.9,403.1z M330.9,409.7l0.5-0.4l0.5,0.4c0.3,0.2,0.5,0.7,0.5,1
	s-0.2,0.7-0.5,0.8c-0.8,0.3-1.5-0.1-1.5-0.8C330.4,410.4,330.6,409.9,330.9,409.7z M330.9,416.3l0.5-0.4l0.5,0.4
	c0.3,0.2,0.5,0.7,0.5,1s-0.2,0.7-0.5,0.8c-0.8,0.3-1.5-0.1-1.5-0.8C330.4,417,330.6,416.5,330.9,416.3z M328.6,408.2
	c-0.9,0.3-1.6-0.1-1.4-0.9c0.1-0.5,0.3-0.7,0.9-0.7C329,406.5,329.4,407.9,328.6,408.2z M328.4,399.8c0.7,0.3,0.8,1.5,0.3,1.8
	c-0.6,0.3-1.6-0.2-1.6-0.8C327.1,399.9,327.7,399.4,328.4,399.8z M325.2,411.4c-0.7,0.3-1.6-0.6-1.3-1.3c0.1-0.3,0.5-0.5,1-0.4
	C325.8,409.8,326,411.1,325.2,411.4z M325.7,397.3c0.1,0.4-0.1,0.8-0.3,0.9l0,0c-0.7,0.4-1.7-0.2-1.6-0.9
	C324,396.3,325.5,396.3,325.7,397.3z M325.7,403.9c0.1,0.4-0.1,0.8-0.3,0.9l0,0c-0.7,0.4-1.7-0.2-1.6-0.9
	C324,402.9,325.5,402.9,325.7,403.9z M321.5,399.8c0.9,0.1,1.1,1,0.4,1.6l-0.5,0.4l-0.5-0.5C320.2,400.6,320.6,399.7,321.5,399.8z
	 M321.5,406.4c0.9,0.1,1.1,1,0.4,1.6l-0.5,0.4l-0.5-0.5C320.2,407.2,320.6,406.3,321.5,406.4z M321.5,413c0.9,0.1,1.1,1,0.4,1.6
	l-0.5,0.4l-0.5-0.5C320.2,413.8,320.6,412.9,321.5,413z M321.5,419.6c0.9,0.1,1.1,1,0.4,1.6l-0.5,0.4l-0.5-0.5
	C320.2,420.4,320.6,419.5,321.5,419.6z"/>
<path fill="#D68797" d="M337.3,357.2l0.1-0.1c0-1.4,0.1-3,0.1-4.6c-0.3-0.1-0.5-0.3-0.7-0.6l-0.3-0.6l0.7-0.6l0.4-0.3
	c0-1.5,0-3,0-4.5c-0.3-0.1-0.5-0.3-0.7-0.6l-0.3-0.6l0.6-0.5c0.1-0.1,0.3-0.2,0.4-0.3c0-1.6,0-3.2,0-4.6c-0.3-0.1-0.5-0.3-0.7-0.5
	l-0.3-0.6l0.6-0.5c0.1-0.1,0.2-0.2,0.4-0.2c0-2.7-0.1-4.5-0.1-4.5h-12.7l-0.1,0.1l-0.1-0.1h-51.1c0,0-2.1,19.6,1.4,28.5
	c0-0.3,0.1-0.5,0.3-0.5c0.2,0,0.3,0.2,0.3,0.5s-0.1,0.5-0.3,0.5c-0.1,0-0.1,0-0.2-0.1c0.4,1,0.9,1.8,1.4,2.4
	c1.6,1.8,4.7,4.3,8.2,6.8l0,0c0.3-0.3,0.5-0.3,0.7,0c0.3,0.3,0.3,0.4,0,0.6c7.8,5.6,17.4,11.5,19.1,12.5c0.1,0,0.2-0.1,0.3-0.1
	c0.1,0,0.2,0,0.3,0.1c1.6-0.8,8.5-4.4,15.6-8.9l-0.5-0.4l0.6-0.6l0.6-0.6l0.5,0.4c0.1,0.1,0.2,0.2,0.2,0.2
	c7.5-4.9,14.6-10.7,15.3-15.2C336.7,358.7,336.7,357.7,337.3,357.2z M275.1,355.3c-0.2,0-0.3-0.2-0.3-0.5s0.1-0.5,0.3-0.5
	c0.2,0,0.3,0.2,0.3,0.5S275.2,355.3,275.1,355.3z M275.1,348.7c-0.2,0-0.3-0.2-0.3-0.5s0.1-0.5,0.3-0.5c0.2,0,0.3,0.2,0.3,0.5
	S275.2,348.7,275.1,348.7z M275.1,342.1c-0.2,0-0.3-0.2-0.3-0.5s0.1-0.5,0.3-0.5c0.2,0,0.3,0.2,0.3,0.5
	C275.4,341.8,275.2,342.1,275.1,342.1z M275.1,335.4c-0.5-0.2-0.5-0.7-0.1-0.9c0.2-0.1,0.4,0.1,0.4,0.4
	C275.4,335.3,275.2,335.5,275.1,335.4z M308.3,334.4c0.7,0.3,0.6,1.4-0.2,1.4c-0.4,0-0.7-0.2-0.7-0.6
	C307.4,334.4,307.7,334.1,308.3,334.4z M308.1,341.1c0.4,0,0.7,0.2,0.7,0.7c0,0.4-0.2,0.7-0.7,0.7c-0.4,0-0.7-0.2-0.7-0.7
	C307.4,341.3,307.6,341.1,308.1,341.1z M308.1,347.7c0.4,0,0.7,0.2,0.7,0.7c0,0.4-0.2,0.7-0.7,0.7c-0.4,0-0.7-0.2-0.7-0.7
	C307.4,347.9,307.6,347.7,308.1,347.7z M308.1,354.3c0.4,0,0.7,0.2,0.7,0.7c0,0.4-0.2,0.7-0.7,0.7c-0.4,0-0.7-0.2-0.7-0.7
	S307.6,354.3,308.1,354.3z M308.1,360.9c0.4,0,0.7,0.2,0.7,0.7c0,0.4-0.2,0.7-0.7,0.7c-0.4,0-0.7-0.2-0.7-0.7
	S307.6,360.9,308.1,360.9z M308.1,367.5c0.4,0,0.7,0.2,0.7,0.7c0,0.4-0.2,0.7-0.7,0.7c-0.4,0-0.7-0.2-0.7-0.7
	S307.6,367.5,308.1,367.5z M304.8,351c0.4,0,0.7,0.2,0.7,0.7c0,0.4-0.2,0.7-0.7,0.7c-0.4,0-0.7-0.2-0.7-0.7
	C304.1,351.2,304.3,351,304.8,351z M304.1,345c0-0.4,0.2-0.7,0.7-0.7c0.4,0,0.7,0.2,0.7,0.7c0,0.4-0.2,0.7-0.7,0.7
	C304.3,345.7,304.1,345.5,304.1,345z M304.8,357.6c0.4,0,0.7,0.2,0.7,0.7c0,0.4-0.2,0.7-0.7,0.7c-0.4,0-0.7-0.2-0.7-0.7
	C304.1,357.8,304.3,357.6,304.8,357.6z M298,337.8c0.7,0.1,0.9,0.8,0.5,1.1c-0.5,0.3-1-0.1-1-0.7C297.5,337.9,297.7,337.8,298,337.8
	z M298,344.4c0.7,0.1,0.9,0.8,0.5,1.1c-0.5,0.3-1-0.1-1-0.7C297.5,344.5,297.7,344.4,298,344.4z M291.1,338.1
	c0.2-0.2,0.5-0.3,0.7-0.2c0.4,0.3,0.5,0.7,0.1,1c-0.1,0.1-0.5,0-0.7-0.1l-0.5-0.3L291.1,338.1z M287.7,335c0.1-0.2,0.3-0.4,0.6-0.4
	c0.2,0,0.5,0.2,0.6,0.4c0.1,0.2-0.2,0.4-0.6,0.4C287.8,335.5,287.6,335.3,287.7,335z M278.4,365.2c-0.2,0-0.3-0.2-0.3-0.5
	s0.1-0.5,0.3-0.5c0.2,0,0.3,0.2,0.3,0.5C278.7,364.9,278.5,365.2,278.4,365.2z M278.4,358.5c-0.5-0.2-0.5-0.7-0.1-0.9
	c0.2-0.1,0.4,0.1,0.4,0.4S278.5,358.6,278.4,358.5z M278.4,351.9c-0.5-0.2-0.5-0.7-0.1-0.9c0.2-0.1,0.4,0.1,0.4,0.4
	C278.7,351.8,278.5,352,278.4,351.9z M278.4,345.3c-0.5-0.2-0.5-0.7-0.1-0.9c0.2-0.1,0.4,0.1,0.4,0.4S278.5,345.4,278.4,345.3z
	 M278.7,338.6c-0.6,0.3-1.2-0.1-0.7-0.6c0.3-0.3,0.5-0.3,0.7,0C279,338.2,279,338.4,278.7,338.6z M281.7,368.4
	c-0.5-0.2-0.5-0.7-0.1-0.9c0.2-0.1,0.4,0.1,0.4,0.4C282,368.3,281.8,368.5,281.7,368.4z M282,361.7c-0.6,0.3-1.2-0.1-0.7-0.6
	c0.3-0.3,0.5-0.3,0.7,0C282.3,361.3,282.3,361.5,282,361.7z M282,355.1c-0.6,0.3-1.2-0.1-0.7-0.6c0.3-0.3,0.5-0.3,0.7,0
	C282.3,354.7,282.3,354.9,282,355.1z M282,348.5c-0.6,0.3-1.2-0.1-0.7-0.6c0.3-0.3,0.5-0.3,0.7,0C282.3,348.1,282.3,348.3,282,348.5
	z M282,341.9c-0.6,0.3-1.2-0.1-0.7-0.6c0.3-0.3,0.5-0.3,0.7,0C282.3,341.5,282.3,341.7,282,341.9z M282,335.3
	c-0.6,0.3-1.2-0.1-0.7-0.6c0.3-0.3,0.5-0.3,0.7,0C282.3,334.9,282.3,335.1,282,335.3z M285.3,365c-0.6,0.3-1.2-0.1-0.7-0.6
	c0.3-0.3,0.5-0.3,0.7,0C285.6,364.6,285.6,364.8,285.3,365z M285.3,358.4c-0.6,0.3-1.2-0.1-0.7-0.6c0.3-0.3,0.5-0.3,0.7,0
	C285.6,358,285.6,358.2,285.3,358.4z M285.3,351.8c-0.6,0.3-1.2-0.1-0.7-0.6c0.3-0.3,0.5-0.3,0.7,0
	C285.6,351.4,285.6,351.6,285.3,351.8z M285.2,345.2c-0.7,0.3-1.1-0.1-0.6-0.6l0.4-0.4l0.4,0.4l0.4,0.4L285.2,345.2z M285.2,338.6
	c-0.7,0.3-1.1-0.1-0.6-0.6l0.4-0.4l0.4,0.4l0.4,0.4L285.2,338.6z M288.3,368.5c-0.4,0-0.7-0.2-0.6-0.4c0.1-0.2,0.3-0.4,0.6-0.4
	c0.2,0,0.5,0.2,0.6,0.4C288.9,368.3,288.7,368.5,288.3,368.5z M288.5,361.7c-0.7,0.3-1.1-0.1-0.6-0.6l0.4-0.4l0.4,0.4l0.4,0.4
	L288.5,361.7z M288.5,355.1c-0.7,0.3-1.1-0.1-0.6-0.6l0.4-0.4l0.4,0.4l0.4,0.4L288.5,355.1z M288.5,348.5c-0.7,0.3-1.1-0.1-0.6-0.6
	l0.4-0.4l0.4,0.4l0.4,0.4L288.5,348.5z M288.5,341.9c-0.7,0.3-1.1-0.1-0.6-0.6l0.4-0.4l0.4,0.4l0.4,0.4L288.5,341.9z M291.1,344.7
	c0.2-0.2,0.5-0.3,0.7-0.2c0.4,0.3,0.5,0.7,0.1,1c-0.1,0.1-0.5,0-0.7-0.1l-0.5-0.3L291.1,344.7z M291.6,352c-0.4,0-0.7-0.2-0.6-0.4
	c0.1-0.2,0.3-0.4,0.6-0.4c0.2,0,0.5,0.2,0.6,0.4C292.2,351.8,292,352,291.6,352z M291.6,358.6c-0.4,0-0.7-0.2-0.6-0.4
	c0.1-0.2,0.3-0.4,0.6-0.4c0.2,0,0.5,0.2,0.6,0.4C292.2,358.4,292,358.6,291.6,358.6z M291.8,371.6c-0.7,0.3-1.1-0.1-0.6-0.6l0.4-0.4
	l0.4,0.4l0.4,0.4L291.8,371.6z M291.8,365c-0.7,0.3-1.1-0.1-0.6-0.6l0.4-0.4l0.4,0.4l0.4,0.4L291.8,365z M294.9,375.1
	c-0.4,0-0.7-0.2-0.6-0.4c0.1-0.2,0.3-0.4,0.6-0.4c0.2,0,0.5,0.2,0.6,0.4C295.5,374.9,295.3,375.1,294.9,375.1z M295.3,368.6
	c-0.1,0.1-0.5,0-0.7-0.1l-0.5-0.3l0.4-0.4c0.2-0.2,0.5-0.3,0.7-0.2C295.6,367.9,295.6,368.3,295.3,368.6z M295.3,362
	c-0.1,0.1-0.5,0-0.7-0.1l-0.5-0.3l0.4-0.4c0.2-0.2,0.5-0.3,0.7-0.2C295.6,361.3,295.6,361.7,295.3,362z M295.3,355.4
	c-0.1,0.1-0.5,0-0.7-0.1L294,355l0.4-0.4c0.2-0.2,0.5-0.3,0.7-0.2C295.6,354.7,295.6,355.1,295.3,355.4z M295.2,348.8
	c-0.6,0.3-1.2-0.4-0.7-0.9c0.4-0.4,1.1-0.1,1.1,0.4C295.5,348.5,295.4,348.7,295.2,348.8z M295.2,342.2c-0.6,0.3-1.2-0.4-0.7-0.9
	c0.4-0.4,1.1-0.1,1.1,0.4C295.5,341.9,295.4,342.1,295.2,342.2z M295.2,335.6c-0.6,0.3-1.2-0.4-0.7-0.9c0.4-0.4,1.1-0.1,1.1,0.4
	C295.5,335.3,295.4,335.5,295.2,335.6z M298.6,378.5c-0.1,0.1-0.5,0-0.7-0.1l-0.5-0.3l0.4-0.4c0.2-0.2,0.5-0.3,0.7-0.2
	C298.9,377.8,298.9,378.2,298.6,378.5z M298.5,371.9c-0.6,0.3-1.2-0.4-0.7-0.9c0.4-0.4,1.1-0.1,1.1,0.4
	C298.8,371.6,298.7,371.8,298.5,371.9z M298.5,365.3c-0.6,0.3-1.2-0.4-0.7-0.9c0.4-0.4,1.1-0.1,1.1,0.4
	C298.8,365,298.7,365.2,298.5,365.3z M298.5,358.7L298.5,358.7c-0.6,0.3-1.2-0.4-0.7-0.9c0.4-0.4,1.1-0.1,1.1,0.4
	C298.8,358.4,298.7,358.6,298.5,358.7z M298.5,352.1c-0.6,0.3-1.2-0.4-0.7-0.9c0.4-0.4,1.1-0.1,1.1,0.4
	C298.8,351.8,298.7,352,298.5,352.1z M301.8,381.8c-0.5,0.3-1-0.1-1-0.7c0-0.3,0.2-0.5,0.6-0.4C302,380.9,302.3,381.5,301.8,381.8z
	 M301.8,375.2c-0.5,0.3-1-0.1-1-0.7c0-0.3,0.2-0.5,0.6-0.4C302,374.3,302.3,374.9,301.8,375.2z M301.8,368.6
	c-0.6,0.3-1.2-0.4-0.7-0.9c0.4-0.4,1.1-0.1,1.1,0.4C302.1,368.3,302,368.5,301.8,368.6z M300.8,361.3c0-0.3,0.2-0.5,0.6-0.4
	c0.7,0.1,0.9,0.8,0.5,1.1C301.3,362.3,300.8,361.9,300.8,361.3z M301.8,355.4c-0.4,0.3-1-0.1-1-0.7c0-0.3,0.3-0.5,0.7-0.5
	C302.1,354.3,302.4,355.1,301.8,355.4z M301.8,348.8c-0.4,0.3-1-0.1-1-0.7c0-0.3,0.3-0.5,0.7-0.5
	C302.1,347.7,302.4,348.5,301.8,348.8z M300.8,341.5c0-0.3,0.2-0.5,0.5-0.4c0.7,0.1,0.9,0.8,0.5,1.1
	C301.3,342.5,300.8,342.1,300.8,341.5z M301.9,335.6c-0.5,0.5-1.1,0.2-1.1-0.4c0-0.4,0.2-0.7,0.7-0.7
	C302.1,334.5,302.4,335.1,301.9,335.6z M305.1,378.5c-0.4,0.3-1-0.1-1-0.7c0-0.3,0.3-0.5,0.7-0.5
	C305.4,377.4,305.7,378.2,305.1,378.5z M305.1,371.9c-0.4,0.3-1-0.1-1-0.7c0-0.3,0.3-0.5,0.7-0.5
	C305.4,370.8,305.7,371.6,305.1,371.9z M305.2,365.3c-0.5,0.5-1.1,0.2-1.1-0.4c0-0.4,0.2-0.7,0.7-0.7
	C305.4,364.2,305.7,364.8,305.2,365.3z M305.2,338.9c-0.5,0.5-1.1,0.2-1.1-0.4c0-0.4,0.2-0.7,0.7-0.7
	C305.4,337.8,305.7,338.4,305.2,338.9z M308.5,381.8c-0.5,0.5-1.1,0.2-1.1-0.4c0-0.4,0.2-0.7,0.7-0.7
	C308.7,380.7,309,381.3,308.5,381.8z M308.5,375.2c-0.5,0.5-1.1,0.2-1.1-0.4c0-0.4,0.2-0.7,0.7-0.7
	C308.7,374.1,309,374.7,308.5,375.2z M310.9,337.7l0.5-0.4l0.4,0.5c0.2,0.3,0.4,0.7,0.3,0.9c-0.2,0.6-1.3,0.5-1.5-0.1
	C310.5,338.4,310.6,338,310.9,337.7z M311.4,378.7c-0.4,0-0.7-0.2-0.7-0.7c0-0.4,0.2-0.7,0.7-0.7c0.4,0,0.7,0.2,0.7,0.7
	C312,378.5,311.8,378.7,311.4,378.7z M311.4,372.1c-0.4,0-0.7-0.2-0.7-0.7c0-0.4,0.2-0.7,0.7-0.7c0.4,0,0.7,0.2,0.7,0.7
	C312,371.9,311.8,372.1,311.4,372.1z M311.4,365.5c-0.4,0-0.7-0.2-0.7-0.6c0-0.8,0.3-1,0.9-0.8C312.3,364.3,312.1,365.5,311.4,365.5
	z M311.4,358.9h-0.7l0.1-0.7c0.1-0.4,0.3-0.7,0.6-0.7c0.3,0,0.5,0.3,0.6,0.7l0.1,0.7H311.4z M311.4,352.3h-0.7l0.1-0.7
	c0.1-0.4,0.3-0.7,0.6-0.7c0.3,0,0.5,0.3,0.6,0.7l0.1,0.7H311.4z M312.1,345.3c-0.3,0.7-1.4,0.5-1.4-0.2c0-0.4,0.2-0.7,0.4-0.9
	C311.5,343.9,312.3,344.7,312.1,345.3z M314.7,375.4c-0.8,0-1.1-0.8-0.5-1.3s1.1-0.1,1.1,0.7C315.3,375.2,315.1,375.4,314.7,375.4z
	 M315.4,368.4L315.4,368.4c-0.2,0.6-1.3,0.5-1.5-0.1c-0.1-0.3,0-0.7,0.3-0.9l0.5-0.4l0.4,0.5C315.4,367.8,315.5,368.1,315.4,368.4z
	 M315.4,361.8L315.4,361.8c-0.2,0.6-1.3,0.5-1.5-0.1c-0.1-0.3,0-0.7,0.3-0.9l0.5-0.4l0.4,0.5C315.4,361.1,315.5,361.5,315.4,361.8z
	 M315.4,355.2c-0.2,0.6-1.3,0.5-1.5-0.1c-0.1-0.3,0-0.7,0.3-0.9l0.5-0.4l0.4,0.5C315.4,354.5,315.5,354.9,315.4,355.2z M315.4,348.6
	c-0.2,0.6-1.3,0.5-1.5-0.1c-0.1-0.3,0-0.7,0.3-0.9l0.5-0.4l0.4,0.5C315.4,347.9,315.5,348.3,315.4,348.6z M315.4,342.2
	c-0.4,0.4-1.4,0.2-1.5-0.3c-0.1-0.3,0-0.6,0.3-0.9l0.5-0.4l0.5,0.4C315.7,341.5,315.8,341.8,315.4,342.2z M315.4,335.6
	c-0.4,0.4-1.4,0.2-1.5-0.3c-0.1-0.3,0-0.6,0.3-0.9l0.5-0.4l0.5,0.4C315.7,334.9,315.8,335.2,315.4,335.6z M318.7,371.7
	c-0.2,0.6-1.3,0.5-1.5-0.1c-0.1-0.3,0-0.7,0.3-0.9l0.5-0.4l0.4,0.5C318.7,371.1,318.8,371.4,318.7,371.7z M318.7,365.3
	c-0.3,0.3-1.4,0.3-1.6-0.1c-0.1-0.2,0-0.6,0.3-0.9l0.5-0.5l0.5,0.4C319,364.6,319.1,364.9,318.7,365.3z M318.7,358.7
	c-0.3,0.3-1.4,0.3-1.6-0.1c-0.1-0.2,0-0.6,0.3-0.9l0.5-0.5l0.5,0.4C319,358,319.1,358.3,318.7,358.7z M318.7,352.1
	c-0.3,0.3-1.4,0.3-1.6-0.1c-0.1-0.2,0-0.6,0.3-0.9l0.5-0.5l0.5,0.4C319,351.4,319.1,351.7,318.7,352.1z M318.5,345.6
	c-0.3,0.3-0.6,0.2-1.1-0.1l-0.6-0.5l0.6-0.6l0.6-0.6l0.5,0.4C319.1,344.9,319.1,345.2,318.5,345.6z M318.5,339
	c-0.3,0.3-0.6,0.2-1.1-0.1l-0.6-0.5l0.6-0.6l0.6-0.6l0.5,0.4C319.1,338.3,319.1,338.6,318.5,339z M320.6,334.6
	c0.4-0.5,1.3-0.7,1.3-0.4c0,0.1,0.1,0.3,0.2,0.6c0.1,0.3-0.1,0.7-0.3,0.9l-0.5,0.4l-0.5-0.5l-0.5-0.5L320.6,334.6z M321.8,368.7
	c-0.3,0.3-0.6,0.2-1.1-0.1l-0.6-0.5l0.6-0.6l0.6-0.6l0.5,0.4C322.4,368,322.4,368.3,321.8,368.7z M321.7,362.2L321.7,362.2l-0.5,0.4
	l-0.5-0.5l-0.5-0.5l0.5-0.5l0.5-0.5l0.5,0.4c0.3,0.2,0.5,0.5,0.5,0.7C322.2,361.7,322,362,321.7,362.2z M321.7,355.6L321.7,355.6
	l-0.5,0.4l-0.5-0.5l-0.5-0.5l0.5-0.5l0.5-0.5l0.5,0.4c0.3,0.2,0.5,0.5,0.5,0.7C322.2,355.1,322,355.4,321.7,355.6z M321.7,349
	L321.7,349l-0.5,0.4l-0.5-0.5l-0.5-0.5l0.5-0.5l0.5-0.5l0.5,0.4c0.3,0.2,0.5,0.5,0.5,0.7C322.2,348.5,322,348.8,321.7,349z
	 M321.7,342.4l-0.5,0.4l-0.5-0.5c-0.5-0.5-0.3-1.6,0.3-1.6c0.4,0,1.2,0.7,1.2,1C322.2,341.9,322,342.2,321.7,342.4z M325.1,372.1
	l-0.5,0.4L324,372l-0.5-0.5l0.4-0.5c0.4-0.5,1.3-0.7,1.3-0.4c0,0.1,0.1,0.3,0.2,0.6C325.5,371.4,325.3,371.8,325.1,372.1z
	 M325.1,365.5l-0.5,0.4l-0.5-0.5l-0.5-0.5l0.4-0.5c0.4-0.5,1.3-0.7,1.3-0.4c0,0.1,0.1,0.3,0.2,0.6
	C325.5,364.8,325.3,365.2,325.1,365.5z M325.1,358.9l-0.5,0.4l-0.5-0.5c-0.6-0.6-0.3-1.6,0.6-1.6c0.3,0,0.6,0.1,0.6,0.1
	c0,0.1,0.1,0.3,0.2,0.6C325.5,358.2,325.3,358.6,325.1,358.9z M325.1,352.3l-0.5,0.4l-0.5-0.5c-0.7-0.7-0.3-1.6,0.5-1.6
	c0.4,0,0.7,0.1,0.7,0.1c0,0.1,0.1,0.3,0.2,0.6C325.5,351.6,325.3,352,325.1,352.3z M325.1,345.7l-0.5,0.4l-0.5-0.5
	c-0.7-0.7-0.3-1.6,0.5-1.6c0.4,0,0.7,0.1,0.7,0.1c0,0.1,0.1,0.3,0.2,0.6C325.5,345,325.3,345.4,325.1,345.7z M325.1,339.1l-0.5,0.4
	L324,339c-0.7-0.7-0.3-1.6,0.5-1.6c0.4,0,0.7,0.1,0.7,0.1c0,0.1,0.1,0.3,0.2,0.6C325.5,338.4,325.3,338.8,325.1,339.1z M328.4,368.8
	l-0.5,0.4l-0.5-0.5c-0.7-0.7-0.3-1.6,0.6-1.5C328.8,367.3,329.1,368.2,328.4,368.8z M328.4,362.2l-0.5,0.4l-0.5-0.5
	c-0.7-0.7-0.3-1.6,0.6-1.5C328.8,360.7,329.1,361.6,328.4,362.2z M328.4,355.6l-0.5,0.4l-0.5-0.5c-0.7-0.7-0.3-1.6,0.6-1.5
	C328.8,354.1,329.1,355,328.4,355.6z M328.3,349.1c-0.7,0.3-1.6-0.6-1.3-1.3c0.1-0.3,0.5-0.5,1-0.4
	C328.9,347.5,329.1,348.8,328.3,349.1z M328.4,342.5c-0.8,0.3-1.5-0.1-1.4-0.9c0.1-0.5,0.3-0.7,0.9-0.7
	C328.8,340.9,329.2,342.2,328.4,342.5z M328.4,335.9c-0.8,0.3-1.5-0.1-1.4-0.9c0.1-0.5,0.3-0.7,0.9-0.7
	C328.8,334.3,329.2,335.6,328.4,335.9z M331.5,337.5c0.7,0.3,0.8,1.5,0.3,1.8c-0.6,0.3-1.6-0.2-1.6-0.8
	C330.2,337.6,330.8,337.1,331.5,337.5z M330.2,351.5c0.1-1,1.7-1,1.9,0c0.1,0.4-0.1,0.8-0.3,0.9l0,0
	C331.2,352.9,330.1,352.3,330.2,351.5z M332.1,358.1c0.1,0.4-0.1,0.8-0.3,0.9l0,0c-0.7,0.4-1.7-0.2-1.6-0.9
	C330.4,357.1,331.9,357.1,332.1,358.1z M331.7,365.7c-0.3,0.1-0.8,0-1.1-0.3c-0.7-0.7-0.3-1.6,0.6-1.5
	C332.2,364,332.5,365.4,331.7,365.7z M331.7,345.9c-0.9,0.3-1.6-0.1-1.4-0.9c0.1-0.5,0.3-0.7,0.9-0.7
	C332.1,344.2,332.5,345.6,331.7,345.9z M334,347.3l0.5-0.4l0.5,0.4c0.3,0.2,0.5,0.7,0.5,1s-0.2,0.7-0.5,0.8
	c-0.8,0.3-1.5-0.1-1.5-0.8C333.5,348,333.7,347.6,334,347.3z M333.5,341.8c0-0.3,0.2-0.8,0.5-1l0.5-0.4l0.5,0.4
	c0.3,0.2,0.5,0.7,0.5,1s-0.2,0.7-0.5,0.8C334.2,342.9,333.5,342.5,333.5,341.8z M335.1,354c0.5,0.5,0.5,1.6-0.1,1.8
	c-0.8,0.3-1.5-0.1-1.5-0.8C333.5,354.1,334.5,353.5,335.1,354z M335,362.4c-0.9,0.3-1.6-0.1-1.4-0.9c0.1-0.5,0.3-0.7,0.9-0.7
	C335.4,360.7,335.8,362.1,335,362.4z M335.4,335.5c-0.4,0.8-1.5,0.7-1.9,0l-0.3-0.6l0.7-0.6l0.7-0.6l0.6,0.6l0.6,0.6L335.4,335.5z"
	/>
<path fill="none" stroke="#313031" stroke-width="4" stroke-miterlimit="10" d="M269.7,332.2c0,0-2.7,25,3,31.3s28.3,20,28.3,20
	s32.3-16,32.7-25.7c0.3-9.7,0-25.7,0-25.7h-64V332.2z"/>
<path fill="none" stroke="#313031" stroke-width="4" stroke-miterlimit="10" d="M333.2,434.8c0,0,2.6-25-3-31.3
	c-5.7-6.3-28.3-20-28.3-20s-32.3,16-32.6,25.7s0,25.7,0,25.7L333.2,434.8z"/>
<path fill="none" stroke="#2F2E2E" stroke-width="3" stroke-miterlimit="10" d="M262.1,324.5h78.7c1.4,0,2.5,1.2,2.5,2.6v0.1
	c0,1.5-1.1,2.6-2.5,2.6h-78.7c-1.4,0-2.5-1.2-2.5-2.6v-0.1C259.6,325.7,260.7,324.5,262.1,324.5z"/>
<path fill="none" stroke="#2F2E2E" stroke-width="3" stroke-miterlimit="10" d="M262.1,436.5h78.7c1.4,0,2.5,1.2,2.5,2.6v0.1
	c0,1.5-1.1,2.6-2.5,2.6h-78.7c-1.4,0-2.5-1.2-2.5-2.6v-0.1C259.6,437.7,260.7,436.5,262.1,436.5z"/>
</svg>
